G04 ================== begin FILE IDENTIFICATION RECORD ==================*
G04 Layout Name:  ORWL_Design_SHIFT.brd*
G04 Film Name:    drill-3_8*
G04 File Format:  Gerber RS274X*
G04 File Origin:  Cadence Allegro 16.6-P004*
G04 Origin Date:  Sat Sep 19 15:46:53 2015*
G04 *
G04 Layer:  MANUFACTURING/PHOTOPLOT_OUTLINE*
G04 Layer:  MANUFACTURING/NCDRILL_LEGEND*
G04 Layer:  MANUFACTURING/NCLEGEND-3-8*
G04 Layer:  DRAWING FORMAT/NCDRILL_LEGEND*
G04 Layer:  BOARD GEOMETRY/OUTLINE*
G04 Layer:  BOARD GEOMETRY/DIMENSION*
G04 Layer:  BOARD GEOMETRY/LOGO*
G04 *
G04 Offset:    (0.00 0.00)*
G04 Mirror:    No*
G04 Mode:      Positive*
G04 Rotation:  0*
G04 FullContactRelief:  No*
G04 UndefLineWidth:     6.00*
G04 ================== end FILE IDENTIFICATION RECORD ====================*
%FSLAX45Y45*MOIN*%
%IR0*IPPOS*OFA0.00000B0.00000*MIA0B0*SFA1.00000B1.00000*%
%AMMACRO10*
1,1,.006,.004,.004*
20,1,.006,.004,.004,.004,-.004,0.0*
1,1,.006,.004,-.004*
20,1,.006,.004,-.004,-.004,-.004,0.0*
1,1,.006,-.004,-.004*
20,1,.006,-.004,-.004,-.004,.004,0.0*
1,1,.006,-.004,.004*
20,1,.006,-.004,.004,.004,.004,0.0*
1,1,.006,.004,.004*
%
%ADD10MACRO10*%
%ADD11C,.02*%
%ADD12C,.014*%
%ADD13C,.015*%
%ADD14C,.006*%
G75*
%LPD*%
G75*
G54D10*
X-395300Y222800D03*
X-401600Y222700D03*
X-376654Y211653D03*
X-404100Y210400D03*
X-376800Y216700D03*
X-362000Y234300D03*
X-372000Y216900D03*
X-352300Y240800D03*
X-357200Y240200D03*
X-363700Y240400D03*
X-364700Y243700D03*
X-371600Y232500D03*
X-375490Y236845D03*
X-338000Y215300D03*
X-337600Y217100D03*
X-339388Y216428D03*
X-339522Y214667D03*
X-371700Y230200D03*
X-338000Y237600D03*
X-349400Y231600D03*
X-351500Y233500D03*
X-352300Y235200D03*
X-349700Y233500D03*
X-350600Y235000D03*
X-346200Y164300D03*
X-344400Y164200D03*
Y166000D03*
X-346100D03*
X-342900Y165200D03*
X-354600Y144300D03*
X-358200Y146200D03*
X-372100Y159400D03*
X-334700Y249100D03*
X-331400Y248600D03*
X-333100D03*
X-335900Y250300D03*
X-305040Y288570D03*
X-359900Y297500D03*
X-358600Y296100D03*
X-314800Y238700D03*
X-315400Y240600D03*
X-287542Y200798D03*
X-291400Y188667D03*
X-303660Y216610D03*
X-345300Y259700D03*
X-314300Y251600D03*
X-352900Y310200D03*
X-351200D03*
X-352900Y308500D03*
X-316300Y254900D03*
X-316100Y253100D03*
X-324000Y227900D03*
Y226200D03*
X-325800Y228170D03*
X-327510Y228190D03*
X-326600Y226220D03*
X-293600Y244700D03*
X-307950Y233763D03*
X-370700Y260500D03*
X-296200Y254100D03*
X-280994Y228071D03*
X-277294Y302953D03*
X-314500Y255100D03*
X-314400Y253300D03*
X-279594Y204653D03*
X-276180Y248440D03*
X-320000Y280500D03*
X-278900Y192600D03*
X-309000Y278300D03*
X-318800Y184900D03*
X-313300Y193400D03*
X-288394Y255853D03*
X-278600Y209800D03*
X-305900Y250800D03*
X-294694Y247053D03*
X-297300Y243653D03*
X-344300Y284600D03*
X-371400Y249500D03*
Y299900D03*
X-371700Y286200D03*
X-376400Y278700D03*
X-352800Y271300D03*
X-352500Y252500D03*
X-363700Y252200D03*
X-358100Y245500D03*
X-352100Y244900D03*
X-305294Y293206D03*
X-301700Y268400D03*
X-301300Y261100D03*
Y263600D03*
X-303900Y263700D03*
X-304200Y268400D03*
X-320500Y309100D03*
X-321700Y315400D03*
X-319694Y283553D03*
Y286053D03*
Y289053D03*
X-301400Y258600D03*
X-314864Y198563D03*
X-297400Y197900D03*
X-300100D03*
X-295500Y197200D03*
X-295300Y202000D03*
X-302500Y200300D03*
X-300100D03*
X-297500Y200400D03*
X-279135Y202653D03*
X-302400Y197800D03*
X-277400Y186600D03*
X-283000Y181500D03*
X-277700Y181300D03*
X-376900Y307600D03*
X-362700Y306700D03*
X-367600Y312900D03*
X-322000Y306900D03*
X-355100Y316300D03*
X-344200Y304600D03*
X-305294Y305700D03*
X-284194Y248053D03*
X-292500Y261200D03*
X-293700Y264300D03*
X-289080Y259430D03*
X-368227Y246069D03*
X-305800Y244700D03*
X-276994Y241700D03*
X-338690Y271040D03*
X-285000Y240500D03*
X-328900Y274900D03*
X-306715Y275200D03*
X-291894Y246453D03*
X-281694Y245253D03*
X-302594Y231453D03*
X-293600Y233600D03*
X-297500Y236800D03*
X-289294Y228653D03*
X-313400Y272800D03*
X-337600Y266300D03*
X-288494Y250553D03*
X-286200Y255800D03*
X-288894Y236253D03*
X-307190Y216740D03*
X-375500Y262900D03*
X-319000Y268500D03*
X-334500Y263500D03*
X-280100Y251900D03*
X-333300Y195100D03*
X-368000Y256319D03*
X-335520Y244680D03*
X-304750Y282490D03*
X-311500Y260410D03*
X-301700Y189000D03*
X-318900Y212100D03*
X-318800Y210000D03*
X-286620Y235880D03*
X-287000Y220800D03*
Y218708D03*
X-284000Y184500D03*
X-286200Y184200D03*
X-278700Y184400D03*
X-276600Y184200D03*
X-299609Y221827D03*
X-300400Y226250D03*
X-284400Y186700D03*
X-298500Y188200D03*
X-306600Y278300D03*
X-298794Y247053D03*
X-311594Y235353D03*
X-302400Y241300D03*
X-304895Y276500D03*
X-276774Y198053D03*
X-281593Y209252D03*
X-320660Y261350D03*
X-319000Y261770D03*
X-319020Y260140D03*
X-319350Y258530D03*
X-320710Y259690D03*
X-357400Y260800D03*
X-353300D03*
X-355000D03*
X-329400Y262600D03*
Y264300D03*
X-331060Y259940D03*
X-331200Y261600D03*
X-329400Y260800D03*
X-281630Y211589D03*
X-282794Y294653D03*
X-279694Y313053D03*
X-334900Y238400D03*
Y236600D03*
X-336700D03*
X-332100Y203900D03*
X-333700D03*
X-335300D03*
X-330200Y203800D03*
X-328000Y205900D03*
X-337879Y256744D03*
X-337900Y255100D03*
X-339300Y254100D03*
X-339269Y255940D03*
X-338600Y252600D03*
X-289194Y218053D03*
X-370000Y253500D03*
X-385000Y250100D03*
X-386386Y246700D03*
X-277100Y232900D03*
X-288394Y238353D03*
X-298100Y266680D03*
X-301300Y254200D03*
X-329800Y205925D03*
X-336500Y238200D03*
X-334600Y205925D03*
X-333000D03*
X-331400D03*
X-336200D03*
X-310000Y189500D03*
Y223780D03*
X-311440Y222960D03*
X-312990Y223510D03*
X-307740Y220740D03*
X-307990Y218990D03*
X-281773Y221953D03*
X-281587Y216660D03*
X-281594Y234453D03*
X-281694Y236953D03*
X-281780Y219853D03*
X-298000Y225400D03*
X-294300Y240300D03*
X-294200Y219900D03*
X-307500Y242200D03*
X-301200Y250100D03*
X-306100Y236100D03*
X-278444Y290253D03*
X-301900Y272700D03*
X-303400Y274100D03*
X-335983Y217669D03*
X-304600Y229300D03*
X-281594Y232253D03*
X-322900Y214900D03*
X-285864Y191703D03*
X-361500Y303000D03*
X-288330Y192900D03*
X-278894Y198053D03*
X-278700Y194900D03*
X-283350Y203550D03*
X-286100Y202700D03*
X-278400Y215900D03*
X-279400Y217728D03*
X-291560Y232690D03*
X-302800Y223000D03*
X-304850Y226250D03*
X-288300Y244600D03*
X-283794Y194953D03*
X-281518Y207093D03*
X-277100Y205390D03*
X-276000Y201500D03*
X-293900Y186900D03*
X-288618Y94632D03*
X-316000Y165000D03*
X-372700Y123900D03*
X-357300Y128200D03*
X-367500Y138100D03*
X-329700Y143400D03*
X-291600Y178600D03*
X-288600Y178800D03*
X-296520Y171260D03*
X-299300Y171400D03*
X-310800Y138300D03*
X-320500Y146800D03*
X-318300Y129900D03*
X-325100Y134900D03*
X-335000Y136300D03*
X-323400Y118100D03*
X-302200Y110600D03*
X-305800Y43900D03*
X-309800Y53000D03*
X-285500Y37400D03*
X-330600Y87100D03*
X-295900Y51000D03*
X-334700Y117900D03*
X-297200Y115700D03*
X-296500Y40900D03*
X-320600Y83700D03*
X-303800Y66100D03*
X-335900Y50800D03*
X-331800Y46800D03*
X-340800Y53300D03*
X-347500Y60500D03*
X-342800Y58100D03*
X-342600Y93800D03*
X-337500Y88700D03*
X-335200Y96600D03*
X-336500Y99800D03*
X-330500Y93000D03*
X-326200Y89400D03*
X-304400Y74700D03*
X-307900Y77400D03*
X-299200Y67700D03*
X-307100Y70900D03*
X-324800Y76500D03*
X-331800Y77800D03*
X-297100Y53300D03*
X-294500Y53100D03*
X-329100Y100200D03*
X-330900D03*
X-331400Y101900D03*
X-329500Y102100D03*
X-349100Y119600D03*
X-349400Y111900D03*
X-311200Y106300D03*
X-292300Y159600D03*
X-278500Y165700D03*
X-287200Y215900D03*
X-276300Y220000D03*
X-278400Y219700D03*
X-287100Y212800D03*
X-276700Y225400D03*
X-297814Y230086D03*
X-278294Y230746D03*
X-276149Y230797D03*
X-275800Y213900D03*
X-277900D03*
X-312985Y302300D03*
X-311600Y303800D03*
X-300700Y69300D03*
X-302500Y70900D03*
X-326900Y91400D03*
X-308300Y75300D03*
X-306200Y73400D03*
X-276386Y165600D03*
X-296900Y213200D03*
X-294700Y213900D03*
X-337200Y141900D03*
X-335100Y142000D03*
X-334600Y98600D03*
X-333100Y97100D03*
X-320900Y311100D03*
X-317860Y297830D03*
X-319385Y296400D03*
X-322500Y309700D03*
X-307894Y311900D03*
X-309500Y310275D03*
X-349500Y115100D03*
Y117400D03*
X-328400Y92900D03*
X-291600Y361800D03*
X-298900Y363000D03*
X-277800Y329200D03*
X-279400Y329300D03*
X-289950Y369000D03*
X-293600Y347726D03*
X-277000Y375500D03*
X-280080D03*
X-288000Y327423D03*
X-318300Y346900D03*
X-293400Y343400D03*
X-360100Y324400D03*
X-297200Y327800D03*
X-277494Y343053D03*
X-282894Y343453D03*
X-280894D03*
X-342000Y333700D03*
X-334500Y341100D03*
X-318000Y320000D03*
X-364000Y321000D03*
X-299712Y320311D03*
X-302600Y361200D03*
X-321500Y317500D03*
X-319700Y318700D03*
X-302620Y319940D03*
X-304100Y318500D03*
X-166500Y20500D03*
X-136200Y18700D03*
X-199587Y-1500D03*
X-170200Y10700D03*
X-247800Y20400D03*
X-211398Y-1500D03*
X-209901Y-4200D03*
X-197618Y-5000D03*
X-206800Y0D03*
X-182700Y400D03*
X-170100Y12600D03*
X-195686Y-1500D03*
X-201726Y-1608D03*
X-206700Y2200D03*
X-200600Y2000D03*
X-272089Y236948D03*
X-274194Y239753D03*
X-274000Y236312D03*
X-272600Y229600D03*
X-271894Y240353D03*
X-271994Y226153D03*
X-271900Y214300D03*
X-274300Y203180D03*
X-272900Y216100D03*
X-273000Y218900D03*
X-272569Y204400D03*
X-272470Y209350D03*
X-249500Y185800D03*
X-254920Y211210D03*
X-254700Y206400D03*
X-254880Y213870D03*
X-251394Y205453D03*
X-245300Y190600D03*
X-269100Y230400D03*
X-183494Y290353D03*
X-204694Y307753D03*
X-260194Y290453D03*
X-244324Y308022D03*
X-168894Y304233D03*
X-260666Y234081D03*
X-137806Y311080D03*
X-35600Y230200D03*
X-148900Y297000D03*
X-112700Y243100D03*
X-88700Y241800D03*
X-109100Y292000D03*
X-107500D03*
X-105800D03*
X-109700Y294500D03*
X-108000Y294600D03*
X-106300D03*
X-104600Y294700D03*
X-104100Y291900D03*
X-206100Y194700D03*
X-219200Y189100D03*
X-266500Y182800D03*
X-109200Y233900D03*
X-102700Y244100D03*
X-163400Y241700D03*
X-161200Y279500D03*
X-92000Y224000D03*
X-92400Y254900D03*
X-97700Y254100D03*
X-98200Y220100D03*
X-78700Y225300D03*
X-80700Y254600D03*
X-106500Y252100D03*
X-106700Y223100D03*
X-107200Y231800D03*
X-225794Y241953D03*
X-66200Y299100D03*
X-224920Y199190D03*
X-212400Y192900D03*
X-213915Y200232D03*
X-117200Y199000D03*
Y196900D03*
X-96200Y245600D03*
X-80700Y222800D03*
X-96700Y241474D03*
X-111200Y234300D03*
X-107200Y227800D03*
X-87500Y216000D03*
X-73700Y229600D03*
X-56000Y277300D03*
X-52800Y256100D03*
X-85380Y230200D03*
X-114009Y309190D03*
X-85500Y222100D03*
X-84700Y285100D03*
X-89600Y297600D03*
X-59400Y296600D03*
X-87100Y314200D03*
X-254986Y186417D03*
X-31300Y183600D03*
X-32300Y210600D03*
X-50600Y254100D03*
X-52600Y259800D03*
X-44300Y250200D03*
X-34600Y244700D03*
X-25400Y244600D03*
X-20000Y261200D03*
X-9700Y274200D03*
X-35000Y288600D03*
X-23600Y308000D03*
X3100Y247500D03*
X-116597Y246668D03*
X-126000Y259700D03*
X-139600Y258800D03*
X-136100Y269700D03*
X-136200Y283400D03*
X-145100Y287900D03*
X-117100Y280500D03*
X-97300Y272500D03*
X-89000Y261600D03*
X-75200Y271100D03*
X-53390Y219550D03*
X-55980Y219600D03*
X-134900Y296900D03*
Y294300D03*
X-136600D03*
X-138400D03*
X-136600Y296900D03*
X-138300D03*
X-133100D03*
X-133000Y294300D03*
X-131300Y294200D03*
X-131400Y296900D03*
X-95200Y280600D03*
X-93200D03*
X-91200D03*
X-97200D03*
X-120257Y197683D03*
X-121300Y199400D03*
X-123457Y199383D03*
X-124357Y197683D03*
X-122357D03*
X-51600Y303900D03*
X-94500Y238000D03*
Y236000D03*
X-92500D03*
X-90500Y234000D03*
X-92500D03*
Y238000D03*
X-53380Y221290D03*
X-56000Y221300D03*
X-262800Y201500D03*
X-220516Y232623D03*
X-222578Y232418D03*
X-228485Y232387D03*
X-230511Y232417D03*
X-222694Y234253D03*
X-226594D03*
X-222694Y229853D03*
X-226594D03*
X-226296Y232521D03*
X-236120Y227751D03*
X-236107Y229941D03*
X-240363Y229858D03*
X-242403Y225496D03*
X-242486Y227721D03*
X-242557Y230100D03*
X-239944Y216753D03*
X-235994D03*
X-224527Y223739D03*
X-228444Y223717D03*
X-226544Y221103D03*
X-222644Y225503D03*
X-226544D03*
X-240209Y225201D03*
X-240347Y227629D03*
X-216794Y214253D03*
X-226544Y216703D03*
X-222619Y216698D03*
X-210894Y214253D03*
X-212794D03*
X-222644Y212303D03*
X-226544D03*
X-222644Y221103D03*
X-236105Y225530D03*
X-236044Y214553D03*
X-224548Y215075D03*
X-220538Y214926D03*
X-239944Y214553D03*
X-239994Y210153D03*
X-236044D03*
X-226594Y207853D03*
X-248400Y196200D03*
X-196463Y207373D03*
X-222694Y207853D03*
X-216194Y207953D03*
X-209694Y207753D03*
X-207794Y207053D03*
X-201475Y207434D03*
X-198775Y207414D03*
X-251560Y232250D03*
X-251570Y223130D03*
X-251607Y229912D03*
X-251536Y225539D03*
X-251516Y227744D03*
X-249994Y288965D03*
X-243894Y292953D03*
X-260494Y215753D03*
X-255700Y192400D03*
X-254400Y237000D03*
X-90600Y231800D03*
X-101200Y245700D03*
X-79200Y244600D03*
X-99200Y228600D03*
X-223100Y200300D03*
X-201594Y238100D03*
X-215494Y235953D03*
X-177994Y314853D03*
X-202694Y244953D03*
X-205469Y245153D03*
X-201794Y241253D03*
X-242132Y250653D03*
X-252394Y241053D03*
X-116200Y243100D03*
X-86000Y250200D03*
X-101100Y225500D03*
X-96100Y213200D03*
X-100100Y212900D03*
X-96400Y223100D03*
X-258294Y239553D03*
X-186194Y306353D03*
X-200794Y256353D03*
X-184594Y307853D03*
X-197794Y259953D03*
X-177994Y310953D03*
X-192294Y258353D03*
X-203494Y253513D03*
X-173994Y312953D03*
X-200494Y248253D03*
X-171574Y310253D03*
X-176094Y311053D03*
X-200204Y251693D03*
X-200484Y242953D03*
X-173444Y310653D03*
X-196564Y252253D03*
X-174094Y304863D03*
X-194694Y247353D03*
X-171694Y304423D03*
X-176201Y303006D03*
X-198094Y250813D03*
X-175694Y301053D03*
X-199994Y254353D03*
X-195019Y254463D03*
X-173694Y301053D03*
X-189494Y314603D03*
X-212094Y246353D03*
X-213464Y240853D03*
X-212761Y242620D03*
X-185794Y314853D03*
X-206294Y239653D03*
X-208194Y239553D03*
X-180994Y310853D03*
X-196464Y261753D03*
X-182594Y306593D03*
X-193694Y266783D03*
X-179694Y306853D03*
X-197794Y255753D03*
X-180194Y304953D03*
X-197784Y257853D03*
X-242369Y258858D03*
X-250889Y305253D03*
X-238194Y259453D03*
X-250744Y301153D03*
X-241194Y264253D03*
X-248474Y301153D03*
X-240294Y261753D03*
X-252794Y297453D03*
X-244394Y264453D03*
X-250694Y297453D03*
X-245794Y268753D03*
X-248644Y297453D03*
X-244294Y267253D03*
X-186094Y304253D03*
X-202694Y257253D03*
X-246094Y249253D03*
X-261994Y305653D03*
X-245594Y251353D03*
X-256694Y297453D03*
X-249894Y269953D03*
X-254694Y293453D03*
X-254294Y267453D03*
X-257394Y291033D03*
X-252194Y267353D03*
X-256594Y295553D03*
X-251994Y270053D03*
X-256994Y292903D03*
X-254094Y270653D03*
X-262784Y293553D03*
X-249894Y267253D03*
Y265153D03*
X-263224Y291153D03*
X-264641Y295660D03*
X-241494Y253653D03*
X-266594Y295153D03*
X-236994Y250653D03*
X-266594Y293153D03*
X-243094Y262053D03*
X-253044Y308953D03*
X-238194Y257353D03*
X-250826Y309153D03*
X-238194Y254953D03*
X-246894Y309073D03*
X-238194Y252853D03*
X-252794Y305253D03*
X-245494Y254943D03*
X-256794Y300453D03*
X-261054Y302053D03*
X-247303Y253453D03*
X-260364Y295453D03*
X-260564Y293213D03*
X-260780Y299167D03*
X-247294Y257653D03*
X-262694Y299653D03*
X-244794Y246553D03*
X-259894Y305418D03*
X-264094Y305653D03*
X-241894Y242753D03*
X-86037Y232963D03*
X-80700Y229900D03*
X-109300Y231800D03*
X-113200Y234600D03*
X-94137Y241437D03*
X-101800Y230600D03*
X-251939Y290286D03*
X-251879Y292486D03*
X-246934Y311153D03*
X-248924Y311453D03*
X-170827Y315708D03*
X-173027Y315768D03*
X-261737Y239661D03*
X-82200Y243400D03*
X-83390Y230000D03*
X-92100Y230400D03*
X-97700Y249100D03*
X-112200Y227600D03*
X-107000Y249900D03*
X-110000Y250100D03*
X-91700Y249500D03*
X-92488Y244100D03*
X-219800Y191700D03*
X-270505Y235095D03*
X-102700Y239600D03*
X-77400Y231100D03*
X-28700Y225300D03*
X-98600Y234100D03*
X-55626Y263017D03*
X-99300Y243200D03*
X-88189Y238413D03*
X-90800Y241800D03*
X-96300Y231300D03*
X-104200Y230200D03*
X-83700Y235100D03*
X-207400Y191800D03*
X-69700Y247600D03*
X-93500Y247100D03*
X-270530Y200850D03*
X-269494Y202653D03*
X-262894Y206953D03*
X-102663Y232963D03*
X-107200Y244900D03*
X-117200Y223400D03*
X-87200Y225700D03*
X-89700Y250900D03*
X-84200Y238100D03*
X-86000Y235031D03*
X-88700Y244974D03*
X-78200Y238600D03*
X-91126Y246700D03*
X-80700Y227200D03*
X-102631Y235031D03*
X-84200Y254600D03*
X-102400Y253800D03*
X-102200Y220600D03*
X-217193Y238849D03*
X-216794Y231653D03*
X-164694Y237053D03*
X-216946Y234185D03*
X-204194Y243483D03*
X-205469Y248553D03*
X-201994Y249723D03*
X-68700Y249600D03*
X-75700Y262100D03*
X-43909Y242897D03*
X-262694Y243053D03*
X-265794Y300453D03*
X-175194Y284853D03*
X-168294Y301653D03*
X-265132Y241125D03*
X-80900Y303100D03*
X-248494Y242053D03*
X-244694Y240653D03*
X-213294Y248153D03*
X-212768Y244553D03*
X-182857Y301447D03*
X-188763Y301507D03*
X-191400Y304084D03*
X-206094Y296753D03*
X-252594Y256453D03*
X-247894Y288953D03*
X-233739Y256453D03*
X-212594D03*
X-257194Y309773D03*
X-161100Y281900D03*
Y283600D03*
Y288700D03*
Y285300D03*
Y287000D03*
Y290300D03*
Y291900D03*
X-224494Y240153D03*
X-237594Y240653D03*
X-234819D03*
X-221944Y240153D03*
X-232094D03*
X-229544D03*
X-227044D03*
X-239694D03*
X-249794D03*
X-247294D03*
X-241294Y256653D03*
X-222894Y256953D03*
X-243894Y297653D03*
X-264694Y286553D03*
X-191482Y309653D03*
X-206094Y313653D03*
X-196594Y287253D03*
X-258694Y232753D03*
X-261594Y223253D03*
X-267194Y223853D03*
X-262616Y212953D03*
X-260666Y213025D03*
X-259294Y209053D03*
X-264780Y215639D03*
X-258716Y212553D03*
X-256766Y212481D03*
X-117000Y194800D03*
Y193200D03*
Y191400D03*
X-118700Y191300D03*
Y193100D03*
Y194800D03*
X-121500Y190700D03*
X-120500Y218000D03*
X-252526Y218419D03*
X-126300Y180800D03*
X-123600Y181100D03*
X-121900D03*
X-147700Y308000D03*
X-82200Y247600D03*
X-55610Y260519D03*
X-91200Y252300D03*
X-257480Y215639D03*
X-257494Y227653D03*
Y225053D03*
X-268066Y207053D03*
X-267808Y209039D03*
X-267780Y211239D03*
X-87500Y311200D03*
X-262794Y221353D03*
X-260666Y221381D03*
X-264894Y232153D03*
X-99700Y223700D03*
X-243494Y237553D03*
X-231532Y237074D03*
X-233141Y236828D03*
X-235870Y236890D03*
X-248594Y237753D03*
X-245994Y237553D03*
X-253650Y232070D03*
X-253694Y227753D03*
Y225553D03*
Y234353D03*
X-253794Y223253D03*
X-257494Y234453D03*
X-256194Y236053D03*
X-62800Y226100D03*
X-268794Y217553D03*
X-95600Y254400D03*
X-89900D03*
X-130900Y238200D03*
X-96900Y227600D03*
X-71200Y242100D03*
X-66700Y234600D03*
X-266100Y235700D03*
X-134300Y238200D03*
X-132600D03*
X-146200Y238100D03*
X-147900D03*
X-146400Y240700D03*
X-148100D03*
X-144700D03*
X-77400Y228600D03*
X-68700Y229600D03*
X-144900Y242400D03*
X-149800D03*
X-148100D03*
X-146500D03*
X-149800Y240700D03*
X-136700D03*
X-135100Y239700D03*
X-107900Y242600D03*
X-159600Y225700D03*
X-267780Y220039D03*
X-144000Y226900D03*
X-142300Y223300D03*
X-144000Y223400D03*
X-142300Y226900D03*
X-144000Y225100D03*
X-107200Y247900D03*
X-46300Y283500D03*
X-256794Y238153D03*
X-267360Y231940D03*
X-261494Y229353D03*
Y227653D03*
X-240556Y232132D03*
X-236650D03*
X-236670Y223331D03*
X-240556Y223135D03*
X-236676Y212343D03*
X-236675Y207936D03*
X-236644Y218953D03*
X-240587Y212343D03*
X-240594Y218953D03*
X-240587Y207936D03*
X-101200Y250100D03*
X-58200Y248100D03*
X-246694Y291853D03*
X-202594Y292253D03*
X-168494Y294242D03*
X-169100Y227220D03*
X-166780Y217440D03*
X-166840Y220660D03*
X-169070Y220670D03*
X-166730Y223960D03*
X-168980Y223980D03*
X-170870Y222600D03*
X-166820Y227200D03*
X-170820Y213310D03*
X-168950Y217470D03*
X-168980Y214260D03*
X-166750Y214240D03*
X-174700Y222200D03*
X-174500Y215700D03*
X-174700Y217700D03*
Y219800D03*
X-168980Y211500D03*
X-166720Y211460D03*
X-230512Y216935D03*
X-220696Y217049D03*
X-230512Y212535D03*
X-228495Y212665D03*
X-214709Y219665D03*
X-214710Y217093D03*
X-224591Y208272D03*
X-212626Y211819D03*
X-218094Y209153D03*
X-208626Y211819D03*
X-210626D03*
X-214626D03*
X-216626D03*
X-179570Y217770D03*
X-181200Y217800D03*
X-179570Y220370D03*
X-181200Y220400D03*
X-208869Y217085D03*
X-210818Y217101D03*
X-212761Y217085D03*
X-208892Y219657D03*
X-210826Y219649D03*
X-212760Y219672D03*
X-230494Y221353D03*
X-224591Y217072D03*
X-220644Y221453D03*
X-228495Y217065D03*
X-220696Y212649D03*
X-220686Y208059D03*
X-228495Y230265D03*
Y225865D03*
X-230494Y225753D03*
X-224591Y225872D03*
Y230272D03*
X-230394Y234553D03*
X-220704Y234648D03*
X-230494Y230153D03*
X-182820Y220450D03*
X-184440Y220470D03*
X-186070Y220500D03*
X-187780D03*
X-189400Y220470D03*
X-191030Y220450D03*
X-191000Y217590D03*
X-189370Y217610D03*
X-187750Y217640D03*
X-186040D03*
X-184410Y217610D03*
X-182790Y217590D03*
X-177950Y220350D03*
X-176300Y220300D03*
X-177950Y217750D03*
X-176300Y217700D03*
X-228494Y221453D03*
X-224599Y234671D03*
X-228507Y234468D03*
X-220696Y225849D03*
X-230512Y208035D03*
X-224591Y212672D03*
X-262194Y235853D03*
X-212194Y204453D03*
X-224594Y221453D03*
X-220696Y230249D03*
X-228495Y208265D03*
X-204300Y186800D03*
X-86637Y241600D03*
X-247794Y202553D03*
X-230500Y181200D03*
X-245800Y182100D03*
X-248354Y216733D03*
X-248334Y218919D03*
X-248308Y227727D03*
X-248354Y223316D03*
X-248366Y232134D03*
X-248340Y229951D03*
X-248327Y225528D03*
X-244330Y184710D03*
X-248330Y207935D03*
X-248334Y212329D03*
X-248354Y210144D03*
X-248347Y214547D03*
X-230800Y186300D03*
X-166580Y198790D03*
X-168930Y198690D03*
X-166570Y201670D03*
X-168860Y201770D03*
X-168740Y187240D03*
X-166430Y187230D03*
X-174350Y204090D03*
X-172600Y204020D03*
X-170950Y204070D03*
X-166530Y195710D03*
X-168860Y195740D03*
X-171760Y197690D03*
X-173370Y197670D03*
X-175120Y197740D03*
X-166560Y189650D03*
X-168900Y189690D03*
X-166560Y192640D03*
X-168780Y192790D03*
X-232694Y216753D03*
Y214553D03*
X-180980Y187980D03*
X-184940Y187900D03*
X-185900Y197620D03*
X-184150Y197550D03*
X-180240Y204060D03*
X-183520Y204070D03*
X-181870Y204050D03*
X-187290Y204060D03*
X-185270Y204140D03*
X-189220Y197580D03*
X-190970Y197650D03*
X-182440Y197570D03*
X-187570Y197600D03*
X-180410Y197620D03*
X-189500Y187880D03*
X-223164Y203634D03*
X-190800Y203950D03*
X-189160Y203990D03*
X-228309Y203675D03*
X-225715Y203651D03*
X-220738Y203655D03*
X-237198Y203808D03*
X-244093Y234662D03*
X-242130Y234656D03*
X-232794Y229978D03*
X-232761Y232151D03*
X-240195Y234671D03*
X-236295D03*
X-238245Y234661D03*
X-232894Y227653D03*
X-232772Y234345D03*
X-232190Y203785D03*
X-232694Y225453D03*
X-232894Y223153D03*
X-176450Y187440D03*
X-178660Y197550D03*
X-178490Y203990D03*
X-176750Y204070D03*
X-176940Y197540D03*
X-233094Y220253D03*
X-232754Y207949D03*
X-232763Y210144D03*
X-232757Y212329D03*
X-250094Y203853D03*
X-210894Y206061D03*
X-84306Y243600D03*
X-95469Y250100D03*
X-92600Y220000D03*
X-84900Y213400D03*
X-92100Y227600D03*
X-99300Y238700D03*
X-94400Y251800D03*
X-68700Y267765D03*
X-109200Y247900D03*
X-213100Y188700D03*
X-208100Y188900D03*
X-244594Y223335D03*
X-244679Y229937D03*
X-244579Y225536D03*
X-244684Y227736D03*
X-244484Y212328D03*
X-244479Y218950D03*
X-244495Y216739D03*
Y214538D03*
X-244479Y210132D03*
Y207931D03*
X-269600Y241300D03*
X-78400Y236600D03*
X-259700Y200500D03*
Y198500D03*
X-257694Y201053D03*
Y203153D03*
X-259159Y192520D03*
X-259210Y194550D03*
X-259170Y190410D03*
X-266600Y185100D03*
X-224194Y196953D03*
X-222900Y191600D03*
X-217400Y190400D03*
X-264275Y238832D03*
X-257694Y198053D03*
X-251794Y202453D03*
X-257694Y196053D03*
X-252994Y204053D03*
X-255660Y190400D03*
X-250494Y191653D03*
X-255660Y188400D03*
X-250494Y189053D03*
X-272100Y180200D03*
X-273700Y170300D03*
X-189300Y167000D03*
X-186800Y167200D03*
X-253300Y180200D03*
X-255400Y180300D03*
X-266500Y180400D03*
X-247100Y174000D03*
X-201800Y167100D03*
X-191300Y167000D03*
X-266800Y178300D03*
X-224800Y166300D03*
X-210100Y177100D03*
X-266800Y170300D03*
X-215800Y169300D03*
X-221000Y172000D03*
X-193500Y166800D03*
X-230500Y166100D03*
X-146100Y154800D03*
X-135600Y155500D03*
X-89300Y150800D03*
X-161512Y168905D03*
X-77100Y164300D03*
X-73714Y163100D03*
X-83000Y163700D03*
X-84458Y160800D03*
X-124900Y180000D03*
X-125400Y178400D03*
X-78614Y161500D03*
X-76590Y177960D03*
X-156900Y165890D03*
X-151000Y167500D03*
X-59627Y150700D03*
X-40400Y180600D03*
X-84800Y167600D03*
X-201500Y108100D03*
X-99800Y108800D03*
X-163600Y142800D03*
X-33500Y115700D03*
X-56000Y127600D03*
X-171800Y39900D03*
X-146300Y94900D03*
X-123600Y94400D03*
X-217000Y81200D03*
X-177400Y29200D03*
X-228923Y45960D03*
X-231200Y96900D03*
X-274000Y57300D03*
X-273200Y76600D03*
X-263013Y50000D03*
X-265987Y48787D03*
X-269100Y131600D03*
X-265600Y133400D03*
X-260700Y129500D03*
X-255546Y137612D03*
X-272100Y165500D03*
X-268100Y165700D03*
X-270100D03*
X-255800Y145500D03*
X-255032Y142255D03*
X-133886Y105314D03*
X-246894Y100054D03*
X-63200Y140033D03*
X-75731Y141000D03*
X-63528Y125639D03*
X-85105Y142570D03*
X-64100Y72400D03*
X-55000Y56300D03*
X-60000Y60400D03*
X-47500Y58900D03*
X-64114Y112100D03*
X-66267Y114737D03*
X-79735Y105500D03*
X-78881Y116900D03*
X-82030Y117100D03*
X-145614Y105586D03*
X-108500Y73600D03*
X-50300Y141900D03*
X-79100Y83200D03*
X-76500Y82500D03*
X-72300Y87200D03*
X-95000Y66300D03*
X-101300Y60900D03*
X-96200Y62500D03*
X-93100Y51600D03*
X-87400Y57000D03*
X-60400Y76200D03*
X-51114Y106953D03*
X-61898Y137064D03*
X-177210Y99020D03*
X-175720Y125950D03*
X-176190Y96760D03*
X-57900Y50700D03*
X-56300Y60000D03*
X-67908Y89211D03*
X-82200Y77800D03*
X-83400Y73300D03*
X-85000Y71600D03*
X-90900Y70800D03*
X-231100Y49500D03*
X-189770Y69840D03*
X-195890Y62600D03*
X-198070Y62750D03*
X-194240Y69840D03*
X-204500Y79000D03*
X-174900Y106400D03*
X-173200D03*
X-176500D03*
X-171500D03*
X-72167Y143500D03*
X-80456Y144477D03*
X-158500Y75500D03*
X-233700Y45600D03*
X-196292Y97319D03*
Y102119D03*
X-194692D03*
X-196292Y98919D03*
X-194692D03*
Y97219D03*
X-196292Y100519D03*
X-194692D03*
X-160300Y54800D03*
X-160600Y49600D03*
X-88900Y99800D03*
X-237400Y49700D03*
X-238970Y86370D03*
X-247530Y79320D03*
X-157500Y64400D03*
X-177300Y122400D03*
X-175600D03*
X-173900Y122300D03*
X-178600Y74400D03*
X-193270Y62600D03*
X-171000Y71800D03*
X-175100Y78300D03*
X-168700Y76500D03*
X-168100Y61400D03*
X-165700Y52600D03*
X-160400Y63500D03*
X-246370Y87060D03*
X-244327Y100592D03*
X-236264Y101043D03*
X-247500Y97200D03*
X-173700Y49400D03*
X-169300Y52200D03*
X-218310Y99190D03*
X-218440Y91410D03*
X-224680Y89360D03*
X-229000Y92160D03*
X-223580Y101960D03*
X-223100Y96690D03*
X-240400Y78910D03*
X-203100Y57200D03*
Y59200D03*
X-239700Y45800D03*
X-186900Y70150D03*
X-184610Y70650D03*
X-160700Y58400D03*
X-153000Y77100D03*
X-193200Y114900D03*
X-183000Y135200D03*
X-183400Y136800D03*
X-181800D03*
X-183400Y138400D03*
X-184600Y135200D03*
X-198000Y115000D03*
X-196400D03*
X-194800D03*
X-234200Y121100D03*
X-234600Y136900D03*
X-229300Y125800D03*
X-229200Y128000D03*
X-212500Y132000D03*
X-229400Y156900D03*
X-171400Y141200D03*
X-183400Y140000D03*
X-181800D03*
X-238600Y156200D03*
X-184800Y167300D03*
X-206056Y164017D03*
X-218900Y165000D03*
X-181800Y138400D03*
X-175600Y163250D03*
X-180700Y167300D03*
X-182700D03*
X-173334Y164600D03*
X-245200Y142600D03*
X-204800Y143400D03*
X-218750Y104670D03*
X-175830Y127965D03*
X-171500Y136100D03*
X-175820Y131100D03*
X-242000Y142500D03*
X-239500Y148700D03*
X-203600Y145200D03*
X-233400Y37400D03*
Y42100D03*
X-164700Y25000D03*
X-241147Y97540D03*
X-243332Y97609D03*
X-166200Y29700D03*
X-139200Y22500D03*
X-136100Y26500D03*
Y30500D03*
X-181000Y38200D03*
X-179100Y40000D03*
X-181000Y39800D03*
X-179100Y41800D03*
X-180900Y41700D03*
X-182100Y37000D03*
X-183700D03*
X-185371D03*
X-154100Y42000D03*
X-149615Y25484D03*
X-153300Y37000D03*
X-153200Y35300D03*
X-239200Y44200D03*
X-262000Y31000D03*
X-194764Y91446D03*
X-189500Y124600D03*
X-199100Y30200D03*
X-189900Y146600D03*
X-274700Y225400D03*
X-85050Y74590D03*
X-235297Y49408D03*
X-86560Y73030D03*
X-233232Y49381D03*
X-175500Y167900D03*
X-173200Y168000D03*
X-243294Y203853D03*
X-243194Y201853D03*
X-231700Y38800D03*
X-231600Y41100D03*
Y43100D03*
X-187400Y75800D03*
X-173830Y76680D03*
X-171230Y76540D03*
X-231600Y45200D03*
X-153500Y97300D03*
X-155200Y99000D03*
X-206130Y72800D03*
X-206100Y74900D03*
X-181984Y76700D03*
X-214094Y191053D03*
X-220094Y193853D03*
X-221900Y174900D03*
X-274100Y165500D03*
X-271375Y170200D03*
X-268875D03*
X-182900Y113000D03*
X-68900Y232700D03*
X-70800Y225600D03*
X-49817Y291812D03*
X-49500Y295100D03*
X-155202Y304302D03*
X-207494Y165491D03*
X-213700Y170100D03*
Y168100D03*
X-223000Y165100D03*
X-219300Y170700D03*
X-221000Y165000D03*
X-217300Y170800D03*
X-204618Y165408D03*
X-123706Y339437D03*
X-104600Y360500D03*
X-115500Y344200D03*
X-150800Y352200D03*
X-110900Y348700D03*
X-106300Y344000D03*
X-115400Y365000D03*
X-118400Y331800D03*
X-182750Y343390D03*
X-180950D03*
Y341590D03*
X-182750D03*
X-173494Y323753D03*
X-175320Y331980D03*
X-120000Y357100D03*
X-94766Y344554D03*
X-122800Y332200D03*
X-139614Y334400D03*
X-86114Y346900D03*
X-83200Y324300D03*
X-91800Y326900D03*
X-81100Y334400D03*
X-117000Y362100D03*
X-134500Y325800D03*
X-122000Y360200D03*
X-177820Y331980D03*
X-121500Y346200D03*
X-182820Y331980D03*
X-180320D03*
X-111300Y369500D03*
X-146806Y356920D03*
X-145700Y347700D03*
X-137130Y350073D03*
X-84700Y343000D03*
X-125845Y342172D03*
X-81300Y351300D03*
X-111898Y352302D03*
X-103800Y346300D03*
X-141700Y327200D03*
X-178194Y323753D03*
X-169494Y319753D03*
X-148300Y340700D03*
X-152400Y331300D03*
X-96500Y363500D03*
X-119800Y339437D03*
X-170500Y333500D03*
X-273900Y332200D03*
X-274320Y371020D03*
X-274550Y375500D03*
X-274000Y351300D03*
Y349600D03*
X-272300Y351300D03*
X-272400Y349600D03*
X-257300Y360300D03*
X-262900Y365900D03*
X-249600Y363800D03*
X-192800Y363700D03*
X-128000Y344500D03*
X-124600Y344000D03*
X-259894Y324153D03*
X-188563Y323323D03*
X-246800Y347700D03*
X-253200Y367200D03*
X-241700Y363800D03*
X-169506Y317653D03*
X-105400Y319000D03*
X-231200Y359800D03*
X-219500Y362400D03*
X-266500Y358269D03*
X-264100Y325900D03*
X-185320Y331980D03*
X-213994Y321053D03*
X-233794Y317853D03*
X-201994Y323753D03*
X-189614Y320753D03*
X-181694Y319173D03*
X-177994Y319003D03*
X-267900Y372000D03*
X-226996Y354884D03*
X-183186Y367000D03*
X-191800Y347300D03*
X-218000Y355500D03*
X-194400Y372100D03*
X-191794Y320653D03*
Y318623D03*
X-199700Y340400D03*
X-270000Y329100D03*
X-70200Y324800D03*
X-262900Y363500D03*
X-185100Y352600D03*
X-51400Y340500D03*
X-222800Y390033D03*
X-229694Y325053D03*
X-212894Y337053D03*
X-181694Y316903D03*
X-177994Y316953D03*
X-189594Y316921D03*
X-185794Y316758D03*
X-185700Y343614D03*
X-141500Y344400D03*
X-117800Y347100D03*
X-218200Y348900D03*
X-238600Y383100D03*
X-145600Y352500D03*
X-143600Y354662D03*
X-109500Y358586D03*
X-220800Y348900D03*
X-112300Y358586D03*
X-179600Y348200D03*
X-115200Y358586D03*
X682000Y-17500D03*
G54D11*
G01X-79200Y-264100D02*
X-353200D01*
G03X-358200Y-269100I0J-5000D01*
G01Y-338100D01*
G03X-353200Y-343100I4375J-625D01*
G01X16300D01*
G01X27800Y-261100D02*
X-353200D01*
G03X-361200Y-269100I-1000J-7000D01*
G01Y-341100D01*
G03X-354200Y-346100I6667J1934D01*
G01X14300D01*
G01X-70200Y-306100D02*
X-20200D01*
G01X-70200Y-264100D02*
Y-322100D01*
G01X-140200Y-288100D02*
X-20200D01*
G01X-140200Y-322100D02*
X-20200D01*
G01X-140200Y-264100D02*
Y-343100D01*
G01X-20200Y-264100D02*
Y-343100D01*
G01X15300D02*
X28000D01*
G03X32800Y-339100I32J4842D01*
G01Y-269100D01*
G03X27800Y-264100I-6500J-1500D01*
G01X15300D01*
G01X13800Y-346100D02*
X28000D01*
G03X35800Y-339100I339J7468D01*
G01Y-270100D01*
G03X27800Y-261100I-8500J500D01*
G01X15800Y-264100D02*
X-79200D01*
G54D12*
G01X-335700Y-288900D02*
Y-278900D01*
X-331700D01*
X-330100Y-279400D01*
X-328900Y-280067D01*
X-327900Y-281067D01*
X-327100Y-282234D01*
X-326900Y-283900D01*
X-327100Y-285567D01*
X-327900Y-286733D01*
X-328900Y-287734D01*
X-330100Y-288400D01*
X-331700Y-288900D01*
X-335700D01*
G01X-322200Y-284400D02*
X-315800D01*
X-316400Y-283233D01*
X-317400Y-282567D01*
X-318800Y-282234D01*
X-320200Y-282400D01*
X-321400Y-282900D01*
X-322200Y-284067D01*
X-322600Y-285067D01*
Y-286067D01*
X-322200Y-287067D01*
X-321200Y-288067D01*
X-320000Y-288733D01*
X-318600Y-288900D01*
X-317200Y-288567D01*
X-315800Y-287567D01*
G01X-310100Y-287734D02*
X-309100Y-288400D01*
X-307700Y-288900D01*
X-306500D01*
X-305300Y-288567D01*
X-304500Y-288067D01*
X-304100Y-287400D01*
X-304300Y-286400D01*
X-305100Y-285900D01*
X-308700Y-284900D01*
X-309500Y-283733D01*
X-309100Y-282900D01*
X-308300Y-282400D01*
X-307100Y-282234D01*
X-305900Y-282400D01*
X-304700Y-282900D01*
G01X-295000Y-282234D02*
Y-288900D01*
G01Y-279567D02*
X-295400Y-279400D01*
Y-279067D01*
X-295000Y-278900D01*
X-294600Y-279067D01*
Y-279400D01*
X-295000Y-279567D01*
G01X-285700Y-291400D02*
X-284300Y-292067D01*
X-282700Y-292233D01*
X-281300Y-292067D01*
X-280100Y-291233D01*
X-279300Y-290067D01*
Y-282234D01*
G01Y-283567D02*
X-280100Y-282900D01*
X-281300Y-282400D01*
X-282700Y-282234D01*
X-284300Y-282567D01*
X-285300Y-283233D01*
X-286100Y-284400D01*
X-286500Y-285567D01*
X-286300Y-286567D01*
X-285500Y-287734D01*
X-284300Y-288567D01*
X-282700Y-288900D01*
X-281500Y-288733D01*
X-280100Y-288067D01*
X-279300Y-287400D01*
G01X-274200Y-288900D02*
Y-282234D01*
G01Y-283900D02*
X-273400Y-283067D01*
X-272200Y-282400D01*
X-270600Y-282234D01*
X-269200Y-282400D01*
X-268000Y-283067D01*
X-267400Y-284233D01*
Y-288900D01*
G01X-250800Y-287567D02*
X-249200Y-288400D01*
X-247400Y-288900D01*
X-245800D01*
X-244200Y-288400D01*
X-243000Y-287567D01*
X-242400Y-286400D01*
X-242800Y-285234D01*
X-243800Y-284233D01*
X-245600Y-283567D01*
X-248000Y-283233D01*
X-249400Y-282567D01*
X-250000Y-281400D01*
X-249600Y-280233D01*
X-248600Y-279400D01*
X-247200Y-278900D01*
X-245800D01*
X-244400Y-279233D01*
X-243200Y-280067D01*
G01X-238700Y-288900D02*
Y-278900D01*
G01X-230300D02*
Y-288900D01*
G01Y-283900D02*
X-238700D01*
G01X-224800Y-278900D02*
X-220000D01*
G01X-222400D02*
Y-288900D01*
G01X-224800D02*
X-220000D01*
G01X-214100D02*
Y-278900D01*
X-206500D01*
G01X-209300Y-283733D02*
X-214100D01*
G01X-198200Y-278900D02*
Y-288900D01*
G01X-202800Y-278900D02*
X-193600D01*
G54D13*
G01X-12200Y-316200D02*
Y-296200D01*
X-14600Y-300200D01*
G01Y-316200D02*
X-9800D01*
G01X-4000Y-307867D02*
X-2600Y-305533D01*
X-1400Y-304200D01*
X200Y-303534D01*
X1600Y-304200D01*
X2600Y-305533D01*
X3400Y-307533D01*
X3600Y-309867D01*
X3400Y-311867D01*
X2600Y-313867D01*
X1400Y-315533D01*
X0Y-316200D01*
X-1600Y-315533D01*
X-3000Y-313534D01*
X-3800Y-310533D01*
X-4000Y-307200D01*
X-3600Y-302867D01*
X-3000Y-300533D01*
X-2000Y-298200D01*
X-600Y-296533D01*
X800Y-296200D01*
X2200Y-296867D01*
X3200Y-298533D01*
G01X11800Y-316867D02*
X11400Y-316533D01*
Y-315867D01*
X11800Y-315533D01*
X12200Y-315867D01*
Y-316533D01*
X11800Y-316867D01*
G01X19400Y-313201D02*
X20600Y-314867D01*
X22000Y-315867D01*
X23800Y-316200D01*
X25600Y-315533D01*
X27000Y-314200D01*
X28000Y-311867D01*
X28200Y-309200D01*
X27800Y-306534D01*
X26800Y-304867D01*
X25400Y-303534D01*
X24000Y-303200D01*
X22600Y-303534D01*
X20800Y-304867D01*
X21400Y-296200D01*
X26800D01*
G01X802000Y-27500D02*
X803400Y-27167D01*
X805000Y-26167D01*
X806000Y-24501D01*
X806400Y-22167D01*
X806000Y-19834D01*
X804800Y-17834D01*
X803000Y-16833D01*
X801000D01*
X799800Y-16167D01*
X798800Y-14500D01*
X798400Y-12167D01*
X799000Y-9833D01*
X800400Y-8167D01*
X802000Y-7500D01*
X803600Y-8167D01*
X805000Y-9833D01*
X805600Y-12167D01*
X805200Y-14500D01*
X804200Y-16167D01*
X803000Y-16833D01*
X801000D01*
X799200Y-17834D01*
X798000Y-19834D01*
X797600Y-22167D01*
X798000Y-24501D01*
X799000Y-26167D01*
X800600Y-27167D01*
X802000Y-27500D01*
G01X814000Y-28167D02*
X813600Y-27833D01*
Y-27167D01*
X814000Y-26833D01*
X814400Y-27167D01*
Y-27833D01*
X814000Y-28167D01*
G01X826000Y-7500D02*
X824400Y-8167D01*
X823200Y-9833D01*
X822400Y-11833D01*
X821800Y-14500D01*
X821600Y-17500D01*
X821800Y-20500D01*
X822400Y-23167D01*
X823200Y-25167D01*
X824400Y-26833D01*
X826000Y-27500D01*
X827600Y-26833D01*
X828800Y-25167D01*
X829600Y-23167D01*
X830200Y-20500D01*
X830400Y-17500D01*
X830200Y-14500D01*
X829600Y-11833D01*
X828800Y-9833D01*
X827600Y-8167D01*
X826000Y-7500D01*
G01X791800Y7666D02*
X793400Y6000D01*
X795200Y5000D01*
X796800D01*
X798400Y6000D01*
X799600Y7666D01*
X800200Y10000D01*
X799800Y12333D01*
X798800Y14333D01*
X797000Y15667D01*
X794600Y16333D01*
X793200Y17666D01*
X792600Y20000D01*
X793000Y22333D01*
X794000Y24000D01*
X795400Y25000D01*
X796800D01*
X798200Y24333D01*
X799400Y22667D01*
G01X805600Y25000D02*
X810400D01*
G01X808000D02*
Y5000D01*
G01X805600D02*
X810400D01*
G01X816200Y25000D02*
X823800D01*
X816200Y5000D01*
X823800D01*
G01X836000D02*
X828000D01*
Y25000D01*
X836000D01*
G01X832800Y15334D02*
X828000D01*
G01X648200Y5000D02*
Y25000D01*
X655800D01*
G01X653000Y15334D02*
X648200D01*
G01X661600Y25000D02*
X666400D01*
G01X664000D02*
Y5000D01*
G01X661600D02*
X666400D01*
G01X677200Y15000D02*
X681200D01*
Y9000D01*
X680000Y7000D01*
X678600Y5667D01*
X676600Y5000D01*
X674600Y5667D01*
X673200Y7000D01*
X672000Y9000D01*
X671200Y11333D01*
X670800Y14000D01*
Y16333D01*
X671200Y18333D01*
X672000Y20667D01*
X673200Y22667D01*
X674400Y24000D01*
X676000Y25000D01*
X677400D01*
X679000Y24333D01*
X680200Y23000D01*
G01X683600Y25000D02*
Y10667D01*
X684400Y7666D01*
X686000Y5667D01*
X688000Y5000D01*
X690000Y5667D01*
X691600Y7666D01*
X692400Y10667D01*
Y25000D01*
G01X696000Y5000D02*
Y25000D01*
X701000D01*
X702600Y24000D01*
X703600Y22667D01*
X704000Y20000D01*
X703600Y17333D01*
X702400Y15667D01*
X701000Y14666D01*
X696000D01*
G01X701000D02*
X704000Y5000D01*
G01X716000D02*
X708000D01*
Y25000D01*
X716000D01*
G01X712800Y15334D02*
X708000D01*
G01X743000Y40000D02*
X748000Y60000D01*
X753000Y40000D01*
G01X751200Y47000D02*
X744800D01*
G01X756000Y60000D02*
Y40000D01*
X764000D01*
G01X768000Y60000D02*
Y40000D01*
X776000D01*
G01X791600Y60000D02*
Y45667D01*
X792400Y42666D01*
X794000Y40667D01*
X796000Y40000D01*
X798000Y40667D01*
X799600Y42666D01*
X800400Y45667D01*
Y60000D01*
G01X803400Y40000D02*
Y60000D01*
X812600Y40000D01*
Y60000D01*
G01X817600D02*
X822400D01*
G01X820000D02*
Y40000D01*
G01X817600D02*
X822400D01*
G01X832000Y60000D02*
Y40000D01*
G01X827400Y60000D02*
X836600D01*
G01X839800Y42666D02*
X841400Y41000D01*
X843200Y40000D01*
X844800D01*
X846400Y41000D01*
X847600Y42666D01*
X848200Y45000D01*
X847800Y47333D01*
X846800Y49333D01*
X845000Y50667D01*
X842600Y51333D01*
X841200Y52666D01*
X840600Y55000D01*
X841000Y57333D01*
X842000Y59000D01*
X843400Y60000D01*
X844800D01*
X846200Y59333D01*
X847400Y57667D01*
G01X863000Y40000D02*
X868000Y60000D01*
X873000Y40000D01*
G01X871200Y47000D02*
X864800D01*
G01X876000Y40000D02*
Y60000D01*
X881000D01*
X882600Y59000D01*
X883600Y57667D01*
X884000Y55000D01*
X883600Y52333D01*
X882400Y50667D01*
X881000Y49666D01*
X876000D01*
G01X881000D02*
X884000Y40000D01*
G01X896000D02*
X888000D01*
Y60000D01*
X896000D01*
G01X892800Y50334D02*
X888000D01*
G01X913600Y60000D02*
X918400D01*
G01X916000D02*
Y40000D01*
G01X913600D02*
X918400D01*
G01X923400D02*
Y60000D01*
X932600Y40000D01*
Y60000D01*
G01X946800Y40000D02*
Y60000D01*
X952000Y43333D01*
X957200Y60000D01*
Y40000D01*
G01X961600Y60000D02*
X966400D01*
G01X964000D02*
Y40000D01*
G01X961600D02*
X966400D01*
G01X972000Y60000D02*
Y40000D01*
X980000D01*
G01X983800Y42666D02*
X985400Y41000D01*
X987200Y40000D01*
X988800D01*
X990400Y41000D01*
X991600Y42666D01*
X992200Y45000D01*
X991800Y47333D01*
X990800Y49333D01*
X989000Y50667D01*
X986600Y51333D01*
X985200Y52666D01*
X984600Y55000D01*
X985000Y57333D01*
X986000Y59000D01*
X987400Y60000D01*
X988800D01*
X990200Y59333D01*
X991400Y57667D01*
G01X719600Y65000D02*
Y85000D01*
X723600D01*
X725200Y84000D01*
X726400Y82667D01*
X727400Y80667D01*
X728200Y78333D01*
X728400Y75000D01*
X728200Y71666D01*
X727400Y69333D01*
X726400Y67333D01*
X725200Y66000D01*
X723600Y65000D01*
X719600D01*
G01X732000D02*
Y85000D01*
X737000D01*
X738600Y84000D01*
X739600Y82667D01*
X740000Y80000D01*
X739600Y77333D01*
X738400Y75667D01*
X737000Y74666D01*
X732000D01*
G01X737000D02*
X740000Y65000D01*
G01X745600Y85000D02*
X750400D01*
G01X748000D02*
Y65000D01*
G01X745600D02*
X750400D01*
G01X756000Y85000D02*
Y65000D01*
X764000D01*
G01X768000Y85000D02*
Y65000D01*
X776000D01*
G01X800400Y83333D02*
X799200Y84333D01*
X797800Y85000D01*
X796200D01*
X794400Y84000D01*
X793000Y82333D01*
X792000Y80333D01*
X791200Y77000D01*
X791000Y74000D01*
X791400Y71000D01*
X792000Y69000D01*
X793200Y67000D01*
X794600Y65667D01*
X796000Y65000D01*
X797400D01*
X798800Y65667D01*
X800000Y66666D01*
X801000Y67999D01*
G01X803800Y65000D02*
Y85000D01*
G01X812200D02*
Y65000D01*
G01Y75000D02*
X803800D01*
G01X815000Y65000D02*
X820000Y85000D01*
X825000Y65000D01*
G01X823200Y72000D02*
X816800D01*
G01X828000Y65000D02*
Y85000D01*
X833000D01*
X834600Y84000D01*
X835600Y82667D01*
X836000Y80000D01*
X835600Y77333D01*
X834400Y75667D01*
X833000Y74666D01*
X828000D01*
G01X833000D02*
X836000Y65000D01*
G01X844000Y85000D02*
Y65000D01*
G01X839400Y85000D02*
X848600D01*
G01X856000Y64333D02*
X855600Y64667D01*
Y65333D01*
X856000Y65667D01*
X856400Y65333D01*
Y64667D01*
X856000Y64333D01*
G01Y73333D02*
X855600Y73667D01*
Y74333D01*
X856000Y74666D01*
X856400Y74333D01*
Y73667D01*
X856000Y73333D01*
G01X881200Y75000D02*
X885200D01*
Y69000D01*
X884000Y67000D01*
X882600Y65667D01*
X880600Y65000D01*
X878600Y65667D01*
X877200Y67000D01*
X876000Y69000D01*
X875200Y71333D01*
X874800Y74000D01*
Y76333D01*
X875200Y78333D01*
X876000Y80667D01*
X877200Y82667D01*
X878400Y84000D01*
X880000Y85000D01*
X881400D01*
X883000Y84333D01*
X884200Y83000D01*
G01X887400Y65000D02*
Y85000D01*
X896600Y65000D01*
Y85000D01*
G01X899600Y65000D02*
Y85000D01*
X903600D01*
X905200Y84000D01*
X906400Y82667D01*
X907400Y80667D01*
X908200Y78333D01*
X908400Y75000D01*
X908200Y71666D01*
X907400Y69333D01*
X906400Y67333D01*
X905200Y66000D01*
X903600Y65000D01*
X899600D01*
G01X916000D02*
Y85000D01*
X913600Y81000D01*
G01Y65000D02*
X918400D01*
G01X940000Y85000D02*
Y65000D01*
G01X937200Y78333D02*
X942800D01*
G01X952000Y65000D02*
X950800Y65333D01*
X949600Y66666D01*
X948800Y69000D01*
X948400Y71666D01*
X948800Y74333D01*
X949600Y76667D01*
X950800Y78000D01*
X952000Y78333D01*
X953200Y78000D01*
X954400Y76667D01*
X955200Y74333D01*
X955400Y71666D01*
X955200Y69000D01*
X954400Y66666D01*
X953200Y65333D01*
X952000Y65000D01*
G01X977200Y75000D02*
X981200D01*
Y69000D01*
X980000Y67000D01*
X978600Y65667D01*
X976600Y65000D01*
X974600Y65667D01*
X973200Y67000D01*
X972000Y69000D01*
X971200Y71333D01*
X970800Y74000D01*
Y76333D01*
X971200Y78333D01*
X972000Y80667D01*
X973200Y82667D01*
X974400Y84000D01*
X976000Y85000D01*
X977400D01*
X979000Y84333D01*
X980200Y83000D01*
G01X983400Y65000D02*
Y85000D01*
X992600Y65000D01*
Y85000D01*
G01X995600Y65000D02*
Y85000D01*
X999600D01*
X1001200Y84000D01*
X1002400Y82667D01*
X1003400Y80667D01*
X1004200Y78333D01*
X1004400Y75000D01*
X1004200Y71666D01*
X1003400Y69333D01*
X1002400Y67333D01*
X1001200Y66000D01*
X999600Y65000D01*
X995600D01*
G01X1008200Y81667D02*
X1009400Y83666D01*
X1010800Y84667D01*
X1012400Y85000D01*
X1014400Y84333D01*
X1015800Y82667D01*
X1016200Y80667D01*
X1016000Y78666D01*
X1015200Y77000D01*
X1011200Y73667D01*
X1009400Y71333D01*
X1008200Y67999D01*
X1007800Y65000D01*
X1016200D01*
G01X1042000Y-27500D02*
Y-7500D01*
X1039600Y-11500D01*
G01Y-27500D02*
X1044400D01*
G01X1056400D02*
Y-7500D01*
X1049000Y-21833D01*
X1059000D01*
G01X1066000Y-27500D02*
X1067400Y-27167D01*
X1069000Y-26167D01*
X1070000Y-24501D01*
X1070400Y-22167D01*
X1070000Y-19834D01*
X1068800Y-17834D01*
X1067000Y-16833D01*
X1065000D01*
X1063800Y-16167D01*
X1062800Y-14500D01*
X1062400Y-12167D01*
X1063000Y-9833D01*
X1064400Y-8167D01*
X1066000Y-7500D01*
X1067600Y-8167D01*
X1069000Y-9833D01*
X1069600Y-12167D01*
X1069200Y-14500D01*
X1068200Y-16167D01*
X1067000Y-16833D01*
X1065000D01*
X1063200Y-17834D01*
X1062000Y-19834D01*
X1061600Y-22167D01*
X1062000Y-24501D01*
X1063000Y-26167D01*
X1064600Y-27167D01*
X1066000Y-27500D01*
G01X1080400D02*
Y-7500D01*
X1073000Y-21833D01*
X1083000D01*
G01X930000Y-27500D02*
Y-7500D01*
X934800D01*
X936400Y-8500D01*
X937600Y-10833D01*
X938000Y-13500D01*
X937600Y-16167D01*
X936600Y-18167D01*
X934800Y-19167D01*
X930000D01*
G01X942000Y-7500D02*
Y-27500D01*
X950000D01*
G01X953000D02*
X958000Y-7500D01*
X963000Y-27500D01*
G01X961200Y-20500D02*
X954800D01*
G01X970000Y-7500D02*
Y-27500D01*
G01X965400Y-7500D02*
X974600D01*
G01X986000Y-27500D02*
X978000D01*
Y-7500D01*
X986000D01*
G01X982800Y-17166D02*
X978000D01*
G01X989600Y-27500D02*
Y-7500D01*
X993600D01*
X995200Y-8500D01*
X996400Y-9833D01*
X997400Y-11833D01*
X998200Y-14167D01*
X998400Y-17500D01*
X998200Y-20834D01*
X997400Y-23167D01*
X996400Y-25167D01*
X995200Y-26500D01*
X993600Y-27500D01*
X989600D01*
G01X1048000Y5000D02*
X1046400Y5333D01*
X1045000Y6666D01*
X1043800Y8666D01*
X1043000Y11000D01*
X1042600Y13667D01*
Y16333D01*
X1043000Y19000D01*
X1043800Y21334D01*
X1045000Y23333D01*
X1046400Y24667D01*
X1048000Y25000D01*
X1049600Y24667D01*
X1051000Y23333D01*
X1052200Y21334D01*
X1053000Y19000D01*
X1053400Y16333D01*
Y13667D01*
X1053000Y11000D01*
X1052200Y8666D01*
X1051000Y6666D01*
X1049600Y5333D01*
X1048000Y5000D01*
G01X1049600Y10333D02*
X1052000Y5000D01*
G01X1060000Y25000D02*
Y5000D01*
G01X1055400Y25000D02*
X1064600D01*
G01X1072000Y5000D02*
Y14000D01*
X1068000Y25000D01*
G01X1076000D02*
X1072000Y14000D01*
G01X930000Y5000D02*
Y25000D01*
X934800D01*
X936400Y24000D01*
X937600Y21667D01*
X938000Y19000D01*
X937600Y16333D01*
X936600Y14333D01*
X934800Y13333D01*
X930000D01*
G01X942000Y25000D02*
Y5000D01*
X950000D01*
G01X953000D02*
X958000Y25000D01*
X963000Y5000D01*
G01X961200Y12000D02*
X954800D01*
G01X970000Y25000D02*
Y5000D01*
G01X965400Y25000D02*
X974600D01*
G01X986000Y5000D02*
X978000D01*
Y25000D01*
X986000D01*
G01X982800Y15334D02*
X978000D01*
G01X989600Y5000D02*
Y25000D01*
X993600D01*
X995200Y24000D01*
X996400Y22667D01*
X997400Y20667D01*
X998200Y18333D01*
X998400Y15000D01*
X998200Y11666D01*
X997400Y9333D01*
X996400Y7333D01*
X995200Y6000D01*
X993600Y5000D01*
X989600D01*
G54D14*
G01X-335933Y-307400D02*
X-334813Y-312400D01*
X-333600Y-307400D01*
X-332387Y-312400D01*
X-331267Y-307400D01*
G01X-328433D02*
X-327313Y-312400D01*
X-326100Y-307400D01*
X-324887Y-312400D01*
X-323767Y-307400D01*
G01X-320933D02*
X-319813Y-312400D01*
X-318600Y-307400D01*
X-317387Y-312400D01*
X-316267Y-307400D01*
G01X-311100Y-312650D02*
X-311287Y-312525D01*
Y-312275D01*
X-311100Y-312150D01*
X-310913Y-312275D01*
Y-312525D01*
X-311100Y-312650D01*
G01X-301920Y-304900D02*
Y-312400D01*
G01Y-311275D02*
X-302293Y-311900D01*
X-302853Y-312275D01*
X-303507Y-312400D01*
X-304253Y-312150D01*
X-304813Y-311525D01*
X-305187Y-310775D01*
X-305280Y-309900D01*
X-305187Y-309025D01*
X-304813Y-308275D01*
X-304253Y-307650D01*
X-303507Y-307400D01*
X-302853Y-307525D01*
X-302387Y-307775D01*
X-301920Y-308275D01*
G01X-297500Y-309025D02*
X-294513D01*
X-294793Y-308150D01*
X-295260Y-307650D01*
X-295913Y-307400D01*
X-296567Y-307525D01*
X-297127Y-307900D01*
X-297500Y-308775D01*
X-297687Y-309525D01*
Y-310275D01*
X-297500Y-311025D01*
X-297033Y-311775D01*
X-296473Y-312275D01*
X-295820Y-312400D01*
X-295167Y-312150D01*
X-294513Y-311400D01*
G01X-290000Y-311525D02*
X-289533Y-312025D01*
X-288880Y-312400D01*
X-288320D01*
X-287760Y-312150D01*
X-287387Y-311775D01*
X-287200Y-311275D01*
X-287293Y-310525D01*
X-287667Y-310150D01*
X-289347Y-309400D01*
X-289720Y-308525D01*
X-289533Y-307900D01*
X-289160Y-307525D01*
X-288600Y-307400D01*
X-288040Y-307525D01*
X-287480Y-307900D01*
G01X-281100Y-307400D02*
Y-312400D01*
G01Y-305400D02*
X-281287Y-305275D01*
Y-305025D01*
X-281100Y-304900D01*
X-280913Y-305025D01*
Y-305275D01*
X-281100Y-305400D01*
G01X-274907Y-314275D02*
X-274253Y-314775D01*
X-273507Y-314900D01*
X-272853Y-314775D01*
X-272293Y-314150D01*
X-271920Y-313275D01*
Y-307400D01*
G01Y-308400D02*
X-272293Y-307900D01*
X-272853Y-307525D01*
X-273507Y-307400D01*
X-274253Y-307650D01*
X-274720Y-308150D01*
X-275093Y-309025D01*
X-275280Y-309900D01*
X-275187Y-310650D01*
X-274813Y-311525D01*
X-274253Y-312150D01*
X-273507Y-312400D01*
X-272947Y-312275D01*
X-272293Y-311775D01*
X-271920Y-311275D01*
G01X-267687Y-312400D02*
Y-307400D01*
G01Y-308650D02*
X-267313Y-308025D01*
X-266753Y-307525D01*
X-266007Y-307400D01*
X-265353Y-307525D01*
X-264793Y-308025D01*
X-264513Y-308900D01*
Y-312400D01*
G01X-259813Y-309900D02*
X-257387D01*
G01X-252500Y-311525D02*
X-252033Y-312025D01*
X-251380Y-312400D01*
X-250820D01*
X-250260Y-312150D01*
X-249887Y-311775D01*
X-249700Y-311275D01*
X-249793Y-310525D01*
X-250167Y-310150D01*
X-251847Y-309400D01*
X-252220Y-308525D01*
X-252033Y-307900D01*
X-251660Y-307525D01*
X-251100Y-307400D01*
X-250540Y-307525D01*
X-249980Y-307900D01*
G01X-245187Y-312400D02*
Y-304900D01*
G01Y-308525D02*
X-244720Y-307900D01*
X-244253Y-307525D01*
X-243507Y-307400D01*
X-242947Y-307525D01*
X-242293Y-308025D01*
X-242013Y-308775D01*
Y-312400D01*
G01X-236100Y-307400D02*
Y-312400D01*
G01Y-305400D02*
X-236287Y-305275D01*
Y-305025D01*
X-236100Y-304900D01*
X-235913Y-305025D01*
Y-305275D01*
X-236100Y-305400D01*
G01X-229160Y-312400D02*
Y-306025D01*
X-228973Y-305400D01*
X-228600Y-305025D01*
X-228040Y-304900D01*
X-227480Y-305150D01*
X-227200Y-305775D01*
G01X-228320Y-307900D02*
X-230187D01*
G01X-221100Y-304900D02*
Y-312400D01*
G01X-222407Y-307400D02*
X-219793D01*
G01X-213600Y-312650D02*
X-213787Y-312525D01*
Y-312275D01*
X-213600Y-312150D01*
X-213413Y-312275D01*
Y-312525D01*
X-213600Y-312650D01*
G01X-204607Y-308025D02*
X-205260Y-307525D01*
X-205820Y-307400D01*
X-206567Y-307650D01*
X-207127Y-308150D01*
X-207500Y-309025D01*
X-207593Y-309900D01*
X-207500Y-310775D01*
X-207127Y-311525D01*
X-206567Y-312150D01*
X-205820Y-312400D01*
X-205167Y-312150D01*
X-204607Y-311650D01*
G01X-198600Y-312400D02*
X-199160Y-312275D01*
X-199720Y-311775D01*
X-200093Y-310900D01*
X-200280Y-309900D01*
X-200093Y-308900D01*
X-199720Y-308025D01*
X-199160Y-307525D01*
X-198600Y-307400D01*
X-198040Y-307525D01*
X-197480Y-308025D01*
X-197107Y-308900D01*
X-197013Y-309900D01*
X-197107Y-310900D01*
X-197480Y-311775D01*
X-198040Y-312275D01*
X-198600Y-312400D01*
G01X-193900D02*
Y-307400D01*
G01Y-308775D02*
X-193620Y-308150D01*
X-193153Y-307650D01*
X-192500Y-307400D01*
X-191847Y-307650D01*
X-191380Y-308150D01*
X-191100Y-308775D01*
Y-312400D01*
G01Y-308775D02*
X-190820Y-308150D01*
X-190353Y-307650D01*
X-189700Y-307400D01*
X-189047Y-307650D01*
X-188580Y-308150D01*
X-188300Y-308900D01*
Y-312400D01*
G01X-336033Y-307400D02*
X-334913Y-312400D01*
X-333700Y-307400D01*
X-332487Y-312400D01*
X-331367Y-307400D01*
G01X-328533D02*
X-327413Y-312400D01*
X-326200Y-307400D01*
X-324987Y-312400D01*
X-323867Y-307400D01*
G01X-321033D02*
X-319913Y-312400D01*
X-318700Y-307400D01*
X-317487Y-312400D01*
X-316367Y-307400D01*
G01X-311200Y-312650D02*
X-311387Y-312525D01*
Y-312275D01*
X-311200Y-312150D01*
X-311013Y-312275D01*
Y-312525D01*
X-311200Y-312650D01*
G01X-302020Y-304900D02*
Y-312400D01*
G01Y-311275D02*
X-302393Y-311900D01*
X-302953Y-312275D01*
X-303607Y-312400D01*
X-304353Y-312150D01*
X-304913Y-311525D01*
X-305287Y-310775D01*
X-305380Y-309900D01*
X-305287Y-309025D01*
X-304913Y-308275D01*
X-304353Y-307650D01*
X-303607Y-307400D01*
X-302953Y-307525D01*
X-302487Y-307775D01*
X-302020Y-308275D01*
G01X-297600Y-309025D02*
X-294613D01*
X-294893Y-308150D01*
X-295360Y-307650D01*
X-296013Y-307400D01*
X-296667Y-307525D01*
X-297227Y-307900D01*
X-297600Y-308775D01*
X-297787Y-309525D01*
Y-310275D01*
X-297600Y-311025D01*
X-297133Y-311775D01*
X-296573Y-312275D01*
X-295920Y-312400D01*
X-295267Y-312150D01*
X-294613Y-311400D01*
G01X-290100Y-311525D02*
X-289633Y-312025D01*
X-288980Y-312400D01*
X-288420D01*
X-287860Y-312150D01*
X-287487Y-311775D01*
X-287300Y-311275D01*
X-287393Y-310525D01*
X-287767Y-310150D01*
X-289447Y-309400D01*
X-289820Y-308525D01*
X-289633Y-307900D01*
X-289260Y-307525D01*
X-288700Y-307400D01*
X-288140Y-307525D01*
X-287580Y-307900D01*
G01X-281200Y-307400D02*
Y-312400D01*
G01Y-305400D02*
X-281387Y-305275D01*
Y-305025D01*
X-281200Y-304900D01*
X-281013Y-305025D01*
Y-305275D01*
X-281200Y-305400D01*
G01X-275007Y-314275D02*
X-274353Y-314775D01*
X-273607Y-314900D01*
X-272953Y-314775D01*
X-272393Y-314150D01*
X-272020Y-313275D01*
Y-307400D01*
G01Y-308400D02*
X-272393Y-307900D01*
X-272953Y-307525D01*
X-273607Y-307400D01*
X-274353Y-307650D01*
X-274820Y-308150D01*
X-275193Y-309025D01*
X-275380Y-309900D01*
X-275287Y-310650D01*
X-274913Y-311525D01*
X-274353Y-312150D01*
X-273607Y-312400D01*
X-273047Y-312275D01*
X-272393Y-311775D01*
X-272020Y-311275D01*
G01X-267787Y-312400D02*
Y-307400D01*
G01Y-308650D02*
X-267413Y-308025D01*
X-266853Y-307525D01*
X-266107Y-307400D01*
X-265453Y-307525D01*
X-264893Y-308025D01*
X-264613Y-308900D01*
Y-312400D01*
G01X-259913Y-309900D02*
X-257487D01*
G01X-252600Y-311525D02*
X-252133Y-312025D01*
X-251480Y-312400D01*
X-250920D01*
X-250360Y-312150D01*
X-249987Y-311775D01*
X-249800Y-311275D01*
X-249893Y-310525D01*
X-250267Y-310150D01*
X-251947Y-309400D01*
X-252320Y-308525D01*
X-252133Y-307900D01*
X-251760Y-307525D01*
X-251200Y-307400D01*
X-250640Y-307525D01*
X-250080Y-307900D01*
G01X-245287Y-312400D02*
Y-304900D01*
G01Y-308525D02*
X-244820Y-307900D01*
X-244353Y-307525D01*
X-243607Y-307400D01*
X-243047Y-307525D01*
X-242393Y-308025D01*
X-242113Y-308775D01*
Y-312400D01*
G01X-236200Y-307400D02*
Y-312400D01*
G01Y-305400D02*
X-236387Y-305275D01*
Y-305025D01*
X-236200Y-304900D01*
X-236013Y-305025D01*
Y-305275D01*
X-236200Y-305400D01*
G01X-229260Y-312400D02*
Y-306025D01*
X-229073Y-305400D01*
X-228700Y-305025D01*
X-228140Y-304900D01*
X-227580Y-305150D01*
X-227300Y-305775D01*
G01X-228420Y-307900D02*
X-230287D01*
G01X-221200Y-304900D02*
Y-312400D01*
G01X-222507Y-307400D02*
X-219893D01*
G01X-213700Y-312650D02*
X-213887Y-312525D01*
Y-312275D01*
X-213700Y-312150D01*
X-213513Y-312275D01*
Y-312525D01*
X-213700Y-312650D01*
G01X-204707Y-308025D02*
X-205360Y-307525D01*
X-205920Y-307400D01*
X-206667Y-307650D01*
X-207227Y-308150D01*
X-207600Y-309025D01*
X-207693Y-309900D01*
X-207600Y-310775D01*
X-207227Y-311525D01*
X-206667Y-312150D01*
X-205920Y-312400D01*
X-205267Y-312150D01*
X-204707Y-311650D01*
G01X-198700Y-312400D02*
X-199260Y-312275D01*
X-199820Y-311775D01*
X-200193Y-310900D01*
X-200380Y-309900D01*
X-200193Y-308900D01*
X-199820Y-308025D01*
X-199260Y-307525D01*
X-198700Y-307400D01*
X-198140Y-307525D01*
X-197580Y-308025D01*
X-197207Y-308900D01*
X-197113Y-309900D01*
X-197207Y-310900D01*
X-197580Y-311775D01*
X-198140Y-312275D01*
X-198700Y-312400D01*
G01X-194000D02*
Y-307400D01*
G01Y-308775D02*
X-193720Y-308150D01*
X-193253Y-307650D01*
X-192600Y-307400D01*
X-191947Y-307650D01*
X-191480Y-308150D01*
X-191200Y-308775D01*
Y-312400D01*
G01Y-308775D02*
X-190920Y-308150D01*
X-190453Y-307650D01*
X-189800Y-307400D01*
X-189147Y-307650D01*
X-188680Y-308150D01*
X-188400Y-308900D01*
Y-312400D01*
G01X-336133Y-307400D02*
X-335013Y-312400D01*
X-333800Y-307400D01*
X-332587Y-312400D01*
X-331467Y-307400D01*
G01X-328633D02*
X-327513Y-312400D01*
X-326300Y-307400D01*
X-325087Y-312400D01*
X-323967Y-307400D01*
G01X-321133D02*
X-320013Y-312400D01*
X-318800Y-307400D01*
X-317587Y-312400D01*
X-316467Y-307400D01*
G01X-311300Y-312650D02*
X-311487Y-312525D01*
Y-312275D01*
X-311300Y-312150D01*
X-311113Y-312275D01*
Y-312525D01*
X-311300Y-312650D01*
G01X-302120Y-304900D02*
Y-312400D01*
G01Y-311275D02*
X-302493Y-311900D01*
X-303053Y-312275D01*
X-303707Y-312400D01*
X-304453Y-312150D01*
X-305013Y-311525D01*
X-305387Y-310775D01*
X-305480Y-309900D01*
X-305387Y-309025D01*
X-305013Y-308275D01*
X-304453Y-307650D01*
X-303707Y-307400D01*
X-303053Y-307525D01*
X-302587Y-307775D01*
X-302120Y-308275D01*
G01X-297700Y-309025D02*
X-294713D01*
X-294993Y-308150D01*
X-295460Y-307650D01*
X-296113Y-307400D01*
X-296767Y-307525D01*
X-297327Y-307900D01*
X-297700Y-308775D01*
X-297887Y-309525D01*
Y-310275D01*
X-297700Y-311025D01*
X-297233Y-311775D01*
X-296673Y-312275D01*
X-296020Y-312400D01*
X-295367Y-312150D01*
X-294713Y-311400D01*
G01X-290200Y-311525D02*
X-289733Y-312025D01*
X-289080Y-312400D01*
X-288520D01*
X-287960Y-312150D01*
X-287587Y-311775D01*
X-287400Y-311275D01*
X-287493Y-310525D01*
X-287867Y-310150D01*
X-289547Y-309400D01*
X-289920Y-308525D01*
X-289733Y-307900D01*
X-289360Y-307525D01*
X-288800Y-307400D01*
X-288240Y-307525D01*
X-287680Y-307900D01*
G01X-281300Y-307400D02*
Y-312400D01*
G01Y-305400D02*
X-281487Y-305275D01*
Y-305025D01*
X-281300Y-304900D01*
X-281113Y-305025D01*
Y-305275D01*
X-281300Y-305400D01*
G01X-275107Y-314275D02*
X-274453Y-314775D01*
X-273707Y-314900D01*
X-273053Y-314775D01*
X-272493Y-314150D01*
X-272120Y-313275D01*
Y-307400D01*
G01Y-308400D02*
X-272493Y-307900D01*
X-273053Y-307525D01*
X-273707Y-307400D01*
X-274453Y-307650D01*
X-274920Y-308150D01*
X-275293Y-309025D01*
X-275480Y-309900D01*
X-275387Y-310650D01*
X-275013Y-311525D01*
X-274453Y-312150D01*
X-273707Y-312400D01*
X-273147Y-312275D01*
X-272493Y-311775D01*
X-272120Y-311275D01*
G01X-267887Y-312400D02*
Y-307400D01*
G01Y-308650D02*
X-267513Y-308025D01*
X-266953Y-307525D01*
X-266207Y-307400D01*
X-265553Y-307525D01*
X-264993Y-308025D01*
X-264713Y-308900D01*
Y-312400D01*
G01X-260013Y-309900D02*
X-257587D01*
G01X-252700Y-311525D02*
X-252233Y-312025D01*
X-251580Y-312400D01*
X-251020D01*
X-250460Y-312150D01*
X-250087Y-311775D01*
X-249900Y-311275D01*
X-249993Y-310525D01*
X-250367Y-310150D01*
X-252047Y-309400D01*
X-252420Y-308525D01*
X-252233Y-307900D01*
X-251860Y-307525D01*
X-251300Y-307400D01*
X-250740Y-307525D01*
X-250180Y-307900D01*
G01X-245387Y-312400D02*
Y-304900D01*
G01Y-308525D02*
X-244920Y-307900D01*
X-244453Y-307525D01*
X-243707Y-307400D01*
X-243147Y-307525D01*
X-242493Y-308025D01*
X-242213Y-308775D01*
Y-312400D01*
G01X-236300Y-307400D02*
Y-312400D01*
G01Y-305400D02*
X-236487Y-305275D01*
Y-305025D01*
X-236300Y-304900D01*
X-236113Y-305025D01*
Y-305275D01*
X-236300Y-305400D01*
G01X-229360Y-312400D02*
Y-306025D01*
X-229173Y-305400D01*
X-228800Y-305025D01*
X-228240Y-304900D01*
X-227680Y-305150D01*
X-227400Y-305775D01*
G01X-228520Y-307900D02*
X-230387D01*
G01X-221300Y-304900D02*
Y-312400D01*
G01X-222607Y-307400D02*
X-219993D01*
G01X-213800Y-312650D02*
X-213987Y-312525D01*
Y-312275D01*
X-213800Y-312150D01*
X-213613Y-312275D01*
Y-312525D01*
X-213800Y-312650D01*
G01X-204807Y-308025D02*
X-205460Y-307525D01*
X-206020Y-307400D01*
X-206767Y-307650D01*
X-207327Y-308150D01*
X-207700Y-309025D01*
X-207793Y-309900D01*
X-207700Y-310775D01*
X-207327Y-311525D01*
X-206767Y-312150D01*
X-206020Y-312400D01*
X-205367Y-312150D01*
X-204807Y-311650D01*
G01X-198800Y-312400D02*
X-199360Y-312275D01*
X-199920Y-311775D01*
X-200293Y-310900D01*
X-200480Y-309900D01*
X-200293Y-308900D01*
X-199920Y-308025D01*
X-199360Y-307525D01*
X-198800Y-307400D01*
X-198240Y-307525D01*
X-197680Y-308025D01*
X-197307Y-308900D01*
X-197213Y-309900D01*
X-197307Y-310900D01*
X-197680Y-311775D01*
X-198240Y-312275D01*
X-198800Y-312400D01*
G01X-194100D02*
Y-307400D01*
G01Y-308775D02*
X-193820Y-308150D01*
X-193353Y-307650D01*
X-192700Y-307400D01*
X-192047Y-307650D01*
X-191580Y-308150D01*
X-191300Y-308775D01*
Y-312400D01*
G01Y-308775D02*
X-191020Y-308150D01*
X-190553Y-307650D01*
X-189900Y-307400D01*
X-189247Y-307650D01*
X-188780Y-308150D01*
X-188500Y-308900D01*
Y-312400D01*
G01X-336233Y-307400D02*
X-335113Y-312400D01*
X-333900Y-307400D01*
X-332687Y-312400D01*
X-331567Y-307400D01*
G01X-328733D02*
X-327613Y-312400D01*
X-326400Y-307400D01*
X-325187Y-312400D01*
X-324067Y-307400D01*
G01X-321233D02*
X-320113Y-312400D01*
X-318900Y-307400D01*
X-317687Y-312400D01*
X-316567Y-307400D01*
G01X-311400Y-312650D02*
X-311587Y-312525D01*
Y-312275D01*
X-311400Y-312150D01*
X-311213Y-312275D01*
Y-312525D01*
X-311400Y-312650D01*
G01X-302220Y-304900D02*
Y-312400D01*
G01Y-311275D02*
X-302593Y-311900D01*
X-303153Y-312275D01*
X-303807Y-312400D01*
X-304553Y-312150D01*
X-305113Y-311525D01*
X-305487Y-310775D01*
X-305580Y-309900D01*
X-305487Y-309025D01*
X-305113Y-308275D01*
X-304553Y-307650D01*
X-303807Y-307400D01*
X-303153Y-307525D01*
X-302687Y-307775D01*
X-302220Y-308275D01*
G01X-297800Y-309025D02*
X-294813D01*
X-295093Y-308150D01*
X-295560Y-307650D01*
X-296213Y-307400D01*
X-296867Y-307525D01*
X-297427Y-307900D01*
X-297800Y-308775D01*
X-297987Y-309525D01*
Y-310275D01*
X-297800Y-311025D01*
X-297333Y-311775D01*
X-296773Y-312275D01*
X-296120Y-312400D01*
X-295467Y-312150D01*
X-294813Y-311400D01*
G01X-290300Y-311525D02*
X-289833Y-312025D01*
X-289180Y-312400D01*
X-288620D01*
X-288060Y-312150D01*
X-287687Y-311775D01*
X-287500Y-311275D01*
X-287593Y-310525D01*
X-287967Y-310150D01*
X-289647Y-309400D01*
X-290020Y-308525D01*
X-289833Y-307900D01*
X-289460Y-307525D01*
X-288900Y-307400D01*
X-288340Y-307525D01*
X-287780Y-307900D01*
G01X-281400Y-307400D02*
Y-312400D01*
G01Y-305400D02*
X-281587Y-305275D01*
Y-305025D01*
X-281400Y-304900D01*
X-281213Y-305025D01*
Y-305275D01*
X-281400Y-305400D01*
G01X-275207Y-314275D02*
X-274553Y-314775D01*
X-273807Y-314900D01*
X-273153Y-314775D01*
X-272593Y-314150D01*
X-272220Y-313275D01*
Y-307400D01*
G01Y-308400D02*
X-272593Y-307900D01*
X-273153Y-307525D01*
X-273807Y-307400D01*
X-274553Y-307650D01*
X-275020Y-308150D01*
X-275393Y-309025D01*
X-275580Y-309900D01*
X-275487Y-310650D01*
X-275113Y-311525D01*
X-274553Y-312150D01*
X-273807Y-312400D01*
X-273247Y-312275D01*
X-272593Y-311775D01*
X-272220Y-311275D01*
G01X-267987Y-312400D02*
Y-307400D01*
G01Y-308650D02*
X-267613Y-308025D01*
X-267053Y-307525D01*
X-266307Y-307400D01*
X-265653Y-307525D01*
X-265093Y-308025D01*
X-264813Y-308900D01*
Y-312400D01*
G01X-260113Y-309900D02*
X-257687D01*
G01X-252800Y-311525D02*
X-252333Y-312025D01*
X-251680Y-312400D01*
X-251120D01*
X-250560Y-312150D01*
X-250187Y-311775D01*
X-250000Y-311275D01*
X-250093Y-310525D01*
X-250467Y-310150D01*
X-252147Y-309400D01*
X-252520Y-308525D01*
X-252333Y-307900D01*
X-251960Y-307525D01*
X-251400Y-307400D01*
X-250840Y-307525D01*
X-250280Y-307900D01*
G01X-245487Y-312400D02*
Y-304900D01*
G01Y-308525D02*
X-245020Y-307900D01*
X-244553Y-307525D01*
X-243807Y-307400D01*
X-243247Y-307525D01*
X-242593Y-308025D01*
X-242313Y-308775D01*
Y-312400D01*
G01X-236400Y-307400D02*
Y-312400D01*
G01Y-305400D02*
X-236587Y-305275D01*
Y-305025D01*
X-236400Y-304900D01*
X-236213Y-305025D01*
Y-305275D01*
X-236400Y-305400D01*
G01X-229460Y-312400D02*
Y-306025D01*
X-229273Y-305400D01*
X-228900Y-305025D01*
X-228340Y-304900D01*
X-227780Y-305150D01*
X-227500Y-305775D01*
G01X-228620Y-307900D02*
X-230487D01*
G01X-221400Y-304900D02*
Y-312400D01*
G01X-222707Y-307400D02*
X-220093D01*
G01X-213900Y-312650D02*
X-214087Y-312525D01*
Y-312275D01*
X-213900Y-312150D01*
X-213713Y-312275D01*
Y-312525D01*
X-213900Y-312650D01*
G01X-204907Y-308025D02*
X-205560Y-307525D01*
X-206120Y-307400D01*
X-206867Y-307650D01*
X-207427Y-308150D01*
X-207800Y-309025D01*
X-207893Y-309900D01*
X-207800Y-310775D01*
X-207427Y-311525D01*
X-206867Y-312150D01*
X-206120Y-312400D01*
X-205467Y-312150D01*
X-204907Y-311650D01*
G01X-198900Y-312400D02*
X-199460Y-312275D01*
X-200020Y-311775D01*
X-200393Y-310900D01*
X-200580Y-309900D01*
X-200393Y-308900D01*
X-200020Y-308025D01*
X-199460Y-307525D01*
X-198900Y-307400D01*
X-198340Y-307525D01*
X-197780Y-308025D01*
X-197407Y-308900D01*
X-197313Y-309900D01*
X-197407Y-310900D01*
X-197780Y-311775D01*
X-198340Y-312275D01*
X-198900Y-312400D01*
G01X-194200D02*
Y-307400D01*
G01Y-308775D02*
X-193920Y-308150D01*
X-193453Y-307650D01*
X-192800Y-307400D01*
X-192147Y-307650D01*
X-191680Y-308150D01*
X-191400Y-308775D01*
Y-312400D01*
G01Y-308775D02*
X-191120Y-308150D01*
X-190653Y-307650D01*
X-190000Y-307400D01*
X-189347Y-307650D01*
X-188880Y-308150D01*
X-188600Y-308900D01*
Y-312400D01*
G01X2414Y107679D02*
G03X-165856Y412946I-199265J89171D01*
G03X-168325Y410939I-308J-2143D01*
G02X-185960Y412556I-8841J555D01*
G03X-188022Y414979I-2150J259D01*
G03X-233931Y411985I-8827J-218128D01*
G03X-235498Y409536I334J-1940D01*
G01X-233035Y400343D01*
X-240641Y398305D01*
X-243299Y408226D01*
G03X-245640Y409636I-1902J-509D01*
G03X-306287Y385746I48791J-212785D01*
G03X-307039Y383119I987J-1704D01*
G01X-302217Y374050D01*
X-309169Y370353D01*
X-313637Y378756D01*
G03X-316454Y379479I-1738J-924D01*
G03X-396108Y107662I119603J-182628D01*
G03X-393274Y106559I1976J885D01*
G02X-385239Y90810I3510J-8133D01*
G03X-386009Y87868I1107J-1861D01*
G03X-364507Y57032I189157J108985D01*
G03X-363899Y55167I2139J-334D01*
G01X-338535Y29802D01*
G03X-336669Y29193I1532J1531D01*
G03X-132711Y-11822I139818J167658D01*
G03X-131388Y-9431I-579J1882D01*
G01X-134064Y556D01*
X-126458Y2594D01*
X-123978Y-6664D01*
G03X-121396Y-8002I1902J509D01*
G03X-112326Y-4430I-75440J204858D01*
G03X-111350Y-1690I-762J1815D01*
G01X-115818Y6713D01*
X-108866Y10410D01*
X-104043Y1341D01*
G03X-101445Y494I1738J924D01*
G03X-57033Y29193I-95406J196356D01*
G03X-55167Y29802I334J2139D01*
G01X-29802Y55167D01*
G03X-29194Y57032I-1531J1531D01*
G03X-7702Y87852I-167657J139818D01*
G03X-8650Y90889I-1876J1081D01*
G02X-601Y106664I3798J8003D01*
G03X2414Y107679I1039J1900D01*
G01X-336473Y-137250D02*
X-335913Y-136500D01*
X-335260Y-136125D01*
X-334513Y-136000D01*
X-333580Y-136250D01*
X-332927Y-136875D01*
X-332740Y-137625D01*
X-332833Y-138375D01*
X-333207Y-139000D01*
X-335073Y-140250D01*
X-335913Y-141125D01*
X-336473Y-142375D01*
X-336660Y-143500D01*
X-332740D01*
G01X-329253Y-142000D02*
X-328693Y-142875D01*
X-327947Y-143375D01*
X-327107Y-143500D01*
X-326360Y-143375D01*
X-325613Y-142750D01*
X-325147Y-142000D01*
X-325053Y-141250D01*
X-325240Y-140375D01*
X-325893Y-139750D01*
X-326547Y-139500D01*
X-327387D01*
G01X-326547D02*
X-325987Y-139125D01*
X-325520Y-138500D01*
X-325333Y-137750D01*
X-325520Y-137000D01*
X-325987Y-136375D01*
X-326827Y-136000D01*
X-327667Y-136125D01*
X-328507Y-136625D01*
G01X-321473Y-140375D02*
X-320820Y-139500D01*
X-320260Y-139000D01*
X-319513Y-138750D01*
X-318860Y-139000D01*
X-318393Y-139500D01*
X-318020Y-140250D01*
X-317927Y-141125D01*
X-318020Y-141875D01*
X-318393Y-142625D01*
X-318953Y-143250D01*
X-319607Y-143500D01*
X-320353Y-143250D01*
X-321007Y-142500D01*
X-321380Y-141375D01*
X-321473Y-140125D01*
X-321287Y-138500D01*
X-321007Y-137625D01*
X-320540Y-136750D01*
X-319887Y-136125D01*
X-319233Y-136000D01*
X-318580Y-136250D01*
X-318113Y-136875D01*
G01X-315000Y-143500D02*
Y-138500D01*
G01Y-139875D02*
X-314720Y-139250D01*
X-314253Y-138750D01*
X-313600Y-138500D01*
X-312947Y-138750D01*
X-312480Y-139250D01*
X-312200Y-139875D01*
Y-143500D01*
G01Y-139875D02*
X-311920Y-139250D01*
X-311453Y-138750D01*
X-310800Y-138500D01*
X-310147Y-138750D01*
X-309680Y-139250D01*
X-309400Y-140000D01*
Y-143500D01*
G01X-304700Y-138500D02*
Y-143500D01*
G01Y-136500D02*
X-304887Y-136375D01*
Y-136125D01*
X-304700Y-136000D01*
X-304513Y-136125D01*
Y-136375D01*
X-304700Y-136500D01*
G01X-297200Y-143500D02*
Y-136000D01*
G01X-291567Y-143500D02*
X-287833Y-141000D01*
X-291567Y-138500D01*
G01X-283413Y-142125D02*
X-280987D01*
G01Y-139875D02*
X-283413D01*
G01X-276753Y-143500D02*
Y-136000D01*
X-274887D01*
X-274140Y-136375D01*
X-273580Y-136875D01*
X-273113Y-137625D01*
X-272740Y-138500D01*
X-272647Y-139750D01*
X-272740Y-141000D01*
X-273113Y-141875D01*
X-273580Y-142625D01*
X-274140Y-143125D01*
X-274887Y-143500D01*
X-276753D01*
G01X-268507D02*
Y-138500D01*
G01Y-139500D02*
X-268040Y-139000D01*
X-267573Y-138625D01*
X-266920Y-138500D01*
X-266453Y-138625D01*
X-265893Y-139000D01*
G01X-259700Y-138500D02*
Y-143500D01*
G01Y-136500D02*
X-259887Y-136375D01*
Y-136125D01*
X-259700Y-136000D01*
X-259513Y-136125D01*
Y-136375D01*
X-259700Y-136500D01*
G01X-252200Y-143500D02*
Y-136000D01*
G01X-244700Y-143500D02*
Y-136000D01*
G01X-231100Y-142625D02*
X-230633Y-143125D01*
X-229980Y-143500D01*
X-229420D01*
X-228860Y-143250D01*
X-228487Y-142875D01*
X-228300Y-142375D01*
X-228393Y-141625D01*
X-228767Y-141250D01*
X-230447Y-140500D01*
X-230820Y-139625D01*
X-230633Y-139000D01*
X-230260Y-138625D01*
X-229700Y-138500D01*
X-229140Y-138625D01*
X-228580Y-139000D01*
G01X-222200Y-138500D02*
Y-143500D01*
G01Y-136500D02*
X-222387Y-136375D01*
Y-136125D01*
X-222200Y-136000D01*
X-222013Y-136125D01*
Y-136375D01*
X-222200Y-136500D01*
G01X-216100Y-138500D02*
X-213300D01*
X-216100Y-143500D01*
X-213300D01*
G01X-208600Y-140125D02*
X-205613D01*
X-205893Y-139250D01*
X-206360Y-138750D01*
X-207013Y-138500D01*
X-207667Y-138625D01*
X-208227Y-139000D01*
X-208600Y-139875D01*
X-208787Y-140625D01*
Y-141375D01*
X-208600Y-142125D01*
X-208133Y-142875D01*
X-207573Y-143375D01*
X-206920Y-143500D01*
X-206267Y-143250D01*
X-205613Y-142500D01*
G01X-201567Y-143500D02*
X-197833Y-141000D01*
X-201567Y-138500D01*
G01X-192387Y-143500D02*
X-192200Y-141875D01*
X-191920Y-140500D01*
X-191547Y-139250D01*
X-191080Y-137875D01*
X-190333Y-136000D01*
X-194067D01*
G01X-186287Y-142625D02*
X-185633Y-143250D01*
X-184887Y-143500D01*
X-184140Y-143250D01*
X-183487Y-142500D01*
X-183020Y-141375D01*
X-182833Y-140250D01*
Y-138875D01*
X-183020Y-137750D01*
X-183487Y-136750D01*
X-184047Y-136250D01*
X-184700Y-136000D01*
X-185447Y-136250D01*
X-186007Y-136750D01*
X-186380Y-137500D01*
X-186567Y-138500D01*
X-186380Y-139375D01*
X-185913Y-140250D01*
X-185353Y-140750D01*
X-184700Y-140875D01*
X-183953Y-140625D01*
X-183393Y-140000D01*
X-182833Y-138875D01*
G01X-180000Y-143500D02*
Y-138500D01*
G01Y-139875D02*
X-179720Y-139250D01*
X-179253Y-138750D01*
X-178600Y-138500D01*
X-177947Y-138750D01*
X-177480Y-139250D01*
X-177200Y-139875D01*
Y-143500D01*
G01Y-139875D02*
X-176920Y-139250D01*
X-176453Y-138750D01*
X-175800Y-138500D01*
X-175147Y-138750D01*
X-174680Y-139250D01*
X-174400Y-140000D01*
Y-143500D01*
G01X-169700Y-138500D02*
Y-143500D01*
G01Y-136500D02*
X-169887Y-136375D01*
Y-136125D01*
X-169700Y-136000D01*
X-169513Y-136125D01*
Y-136375D01*
X-169700Y-136500D01*
G01X-162200Y-143500D02*
Y-136000D01*
G01X-289253Y-107500D02*
Y-100000D01*
X-287387D01*
X-286640Y-100375D01*
X-286080Y-100875D01*
X-285613Y-101625D01*
X-285240Y-102500D01*
X-285147Y-103750D01*
X-285240Y-105000D01*
X-285613Y-105875D01*
X-286080Y-106625D01*
X-286640Y-107125D01*
X-287387Y-107500D01*
X-289253D01*
G01X-281100Y-104125D02*
X-278113D01*
X-278393Y-103250D01*
X-278860Y-102750D01*
X-279513Y-102500D01*
X-280167Y-102625D01*
X-280727Y-103000D01*
X-281100Y-103875D01*
X-281287Y-104625D01*
Y-105375D01*
X-281100Y-106125D01*
X-280633Y-106875D01*
X-280073Y-107375D01*
X-279420Y-107500D01*
X-278767Y-107250D01*
X-278113Y-106500D01*
G01X-273600Y-106625D02*
X-273133Y-107125D01*
X-272480Y-107500D01*
X-271920D01*
X-271360Y-107250D01*
X-270987Y-106875D01*
X-270800Y-106375D01*
X-270893Y-105625D01*
X-271267Y-105250D01*
X-272947Y-104500D01*
X-273320Y-103625D01*
X-273133Y-103000D01*
X-272760Y-102625D01*
X-272200Y-102500D01*
X-271640Y-102625D01*
X-271080Y-103000D01*
G01X-263207Y-103125D02*
X-263860Y-102625D01*
X-264420Y-102500D01*
X-265167Y-102750D01*
X-265727Y-103250D01*
X-266100Y-104125D01*
X-266193Y-105000D01*
X-266100Y-105875D01*
X-265727Y-106625D01*
X-265167Y-107250D01*
X-264420Y-107500D01*
X-263767Y-107250D01*
X-263207Y-106750D01*
G01X-258507Y-107500D02*
Y-102500D01*
G01Y-103500D02*
X-258040Y-103000D01*
X-257573Y-102625D01*
X-256920Y-102500D01*
X-256453Y-102625D01*
X-255893Y-103000D01*
G01X-249700Y-102500D02*
Y-107500D01*
G01Y-100500D02*
X-249887Y-100375D01*
Y-100125D01*
X-249700Y-100000D01*
X-249513Y-100125D01*
Y-100375D01*
X-249700Y-100500D01*
G01X-243880Y-110000D02*
Y-102500D01*
G01Y-103625D02*
X-243413Y-103000D01*
X-242947Y-102625D01*
X-242200Y-102500D01*
X-241547Y-102625D01*
X-240893Y-103250D01*
X-240613Y-104125D01*
X-240520Y-105000D01*
X-240613Y-105875D01*
X-240893Y-106750D01*
X-241453Y-107250D01*
X-242200Y-107500D01*
X-242853Y-107375D01*
X-243507Y-107000D01*
X-243880Y-106500D01*
G01X-234700Y-100000D02*
Y-107500D01*
G01X-236007Y-102500D02*
X-233393D01*
G01X-227200D02*
Y-107500D01*
G01Y-100500D02*
X-227387Y-100375D01*
Y-100125D01*
X-227200Y-100000D01*
X-227013Y-100125D01*
Y-100375D01*
X-227200Y-100500D01*
G01X-219700Y-107500D02*
X-220260Y-107375D01*
X-220820Y-106875D01*
X-221193Y-106000D01*
X-221380Y-105000D01*
X-221193Y-104000D01*
X-220820Y-103125D01*
X-220260Y-102625D01*
X-219700Y-102500D01*
X-219140Y-102625D01*
X-218580Y-103125D01*
X-218207Y-104000D01*
X-218113Y-105000D01*
X-218207Y-106000D01*
X-218580Y-106875D01*
X-219140Y-107375D01*
X-219700Y-107500D01*
G01X-213787D02*
Y-102500D01*
G01Y-103750D02*
X-213413Y-103125D01*
X-212853Y-102625D01*
X-212107Y-102500D01*
X-211453Y-102625D01*
X-210893Y-103125D01*
X-210613Y-104000D01*
Y-107500D01*
G01X-336753Y-128500D02*
Y-121000D01*
X-334887D01*
X-334140Y-121375D01*
X-333580Y-121875D01*
X-333113Y-122625D01*
X-332740Y-123500D01*
X-332647Y-124750D01*
X-332740Y-126000D01*
X-333113Y-126875D01*
X-333580Y-127625D01*
X-334140Y-128125D01*
X-334887Y-128500D01*
X-336753D01*
G01X-328507D02*
Y-123500D01*
G01Y-124500D02*
X-328040Y-124000D01*
X-327573Y-123625D01*
X-326920Y-123500D01*
X-326453Y-123625D01*
X-325893Y-124000D01*
G01X-319700Y-123500D02*
Y-128500D01*
G01Y-121500D02*
X-319887Y-121375D01*
Y-121125D01*
X-319700Y-121000D01*
X-319513Y-121125D01*
Y-121375D01*
X-319700Y-121500D01*
G01X-312200Y-128500D02*
Y-121000D01*
G01X-304700Y-128500D02*
Y-121000D01*
G01X-291100Y-127625D02*
X-290633Y-128125D01*
X-289980Y-128500D01*
X-289420D01*
X-288860Y-128250D01*
X-288487Y-127875D01*
X-288300Y-127375D01*
X-288393Y-126625D01*
X-288767Y-126250D01*
X-290447Y-125500D01*
X-290820Y-124625D01*
X-290633Y-124000D01*
X-290260Y-123625D01*
X-289700Y-123500D01*
X-289140Y-123625D01*
X-288580Y-124000D01*
G01X-282200Y-123500D02*
Y-128500D01*
G01Y-121500D02*
X-282387Y-121375D01*
Y-121125D01*
X-282200Y-121000D01*
X-282013Y-121125D01*
Y-121375D01*
X-282200Y-121500D01*
G01X-276100Y-123500D02*
X-273300D01*
X-276100Y-128500D01*
X-273300D01*
G01X-268600Y-125125D02*
X-265613D01*
X-265893Y-124250D01*
X-266360Y-123750D01*
X-267013Y-123500D01*
X-267667Y-123625D01*
X-268227Y-124000D01*
X-268600Y-124875D01*
X-268787Y-125625D01*
Y-126375D01*
X-268600Y-127125D01*
X-268133Y-127875D01*
X-267573Y-128375D01*
X-266920Y-128500D01*
X-266267Y-128250D01*
X-265613Y-127500D01*
G01X-261567Y-128500D02*
X-257833Y-126000D01*
X-261567Y-123500D01*
G01X-253973Y-122250D02*
X-253413Y-121500D01*
X-252760Y-121125D01*
X-252013Y-121000D01*
X-251080Y-121250D01*
X-250427Y-121875D01*
X-250240Y-122625D01*
X-250333Y-123375D01*
X-250707Y-124000D01*
X-252573Y-125250D01*
X-253413Y-126125D01*
X-253973Y-127375D01*
X-254160Y-128500D01*
X-250240D01*
G01X-246753Y-127000D02*
X-246193Y-127875D01*
X-245447Y-128375D01*
X-244607Y-128500D01*
X-243860Y-128375D01*
X-243113Y-127750D01*
X-242647Y-127000D01*
X-242553Y-126250D01*
X-242740Y-125375D01*
X-243393Y-124750D01*
X-244047Y-124500D01*
X-244887D01*
G01X-244047D02*
X-243487Y-124125D01*
X-243020Y-123500D01*
X-242833Y-122750D01*
X-243020Y-122000D01*
X-243487Y-121375D01*
X-244327Y-121000D01*
X-245167Y-121125D01*
X-246007Y-121625D01*
G01X-238973Y-125375D02*
X-238320Y-124500D01*
X-237760Y-124000D01*
X-237013Y-123750D01*
X-236360Y-124000D01*
X-235893Y-124500D01*
X-235520Y-125250D01*
X-235427Y-126125D01*
X-235520Y-126875D01*
X-235893Y-127625D01*
X-236453Y-128250D01*
X-237107Y-128500D01*
X-237853Y-128250D01*
X-238507Y-127500D01*
X-238880Y-126375D01*
X-238973Y-125125D01*
X-238787Y-123500D01*
X-238507Y-122625D01*
X-238040Y-121750D01*
X-237387Y-121125D01*
X-236733Y-121000D01*
X-236080Y-121250D01*
X-235613Y-121875D01*
G01X-232500Y-128500D02*
Y-123500D01*
G01Y-124875D02*
X-232220Y-124250D01*
X-231753Y-123750D01*
X-231100Y-123500D01*
X-230447Y-123750D01*
X-229980Y-124250D01*
X-229700Y-124875D01*
Y-128500D01*
G01Y-124875D02*
X-229420Y-124250D01*
X-228953Y-123750D01*
X-228300Y-123500D01*
X-227647Y-123750D01*
X-227180Y-124250D01*
X-226900Y-125000D01*
Y-128500D01*
G01X-222200Y-123500D02*
Y-128500D01*
G01Y-121500D02*
X-222387Y-121375D01*
Y-121125D01*
X-222200Y-121000D01*
X-222013Y-121125D01*
Y-121375D01*
X-222200Y-121500D01*
G01X-214700Y-128500D02*
Y-121000D01*
G01X-334700Y-188500D02*
X-334047Y-188375D01*
X-333300Y-188000D01*
X-332833Y-187375D01*
X-332647Y-186500D01*
X-332833Y-185625D01*
X-333393Y-184875D01*
X-334233Y-184500D01*
X-335167D01*
X-335727Y-184250D01*
X-336193Y-183625D01*
X-336380Y-182750D01*
X-336100Y-181875D01*
X-335447Y-181250D01*
X-334700Y-181000D01*
X-333953Y-181250D01*
X-333300Y-181875D01*
X-333020Y-182750D01*
X-333207Y-183625D01*
X-333673Y-184250D01*
X-334233Y-184500D01*
X-335167D01*
X-336007Y-184875D01*
X-336567Y-185625D01*
X-336753Y-186500D01*
X-336567Y-187375D01*
X-336100Y-188000D01*
X-335353Y-188375D01*
X-334700Y-188500D01*
G01X-330000D02*
Y-183500D01*
G01Y-184875D02*
X-329720Y-184250D01*
X-329253Y-183750D01*
X-328600Y-183500D01*
X-327947Y-183750D01*
X-327480Y-184250D01*
X-327200Y-184875D01*
Y-188500D01*
G01Y-184875D02*
X-326920Y-184250D01*
X-326453Y-183750D01*
X-325800Y-183500D01*
X-325147Y-183750D01*
X-324680Y-184250D01*
X-324400Y-185000D01*
Y-188500D01*
G01X-319700Y-183500D02*
Y-188500D01*
G01Y-181500D02*
X-319887Y-181375D01*
Y-181125D01*
X-319700Y-181000D01*
X-319513Y-181125D01*
Y-181375D01*
X-319700Y-181500D01*
G01X-312200Y-188500D02*
Y-181000D01*
G01X-306567Y-188500D02*
X-302833Y-186000D01*
X-306567Y-183500D01*
G01X-299253Y-188500D02*
Y-181000D01*
X-297387D01*
X-296640Y-181375D01*
X-296080Y-181875D01*
X-295613Y-182625D01*
X-295240Y-183500D01*
X-295147Y-184750D01*
X-295240Y-186000D01*
X-295613Y-186875D01*
X-296080Y-187625D01*
X-296640Y-188125D01*
X-297387Y-188500D01*
X-299253D01*
G01X-291007D02*
Y-183500D01*
G01Y-184500D02*
X-290540Y-184000D01*
X-290073Y-183625D01*
X-289420Y-183500D01*
X-288953Y-183625D01*
X-288393Y-184000D01*
G01X-282200Y-183500D02*
Y-188500D01*
G01Y-181500D02*
X-282387Y-181375D01*
Y-181125D01*
X-282200Y-181000D01*
X-282013Y-181125D01*
Y-181375D01*
X-282200Y-181500D01*
G01X-274700Y-188500D02*
Y-181000D01*
G01X-267200Y-188500D02*
Y-181000D01*
G01X-253600Y-187625D02*
X-253133Y-188125D01*
X-252480Y-188500D01*
X-251920D01*
X-251360Y-188250D01*
X-250987Y-187875D01*
X-250800Y-187375D01*
X-250893Y-186625D01*
X-251267Y-186250D01*
X-252947Y-185500D01*
X-253320Y-184625D01*
X-253133Y-184000D01*
X-252760Y-183625D01*
X-252200Y-183500D01*
X-251640Y-183625D01*
X-251080Y-184000D01*
G01X-244700Y-183500D02*
Y-188500D01*
G01Y-181500D02*
X-244887Y-181375D01*
Y-181125D01*
X-244700Y-181000D01*
X-244513Y-181125D01*
Y-181375D01*
X-244700Y-181500D01*
G01X-238600Y-183500D02*
X-235800D01*
X-238600Y-188500D01*
X-235800D01*
G01X-231100Y-185125D02*
X-228113D01*
X-228393Y-184250D01*
X-228860Y-183750D01*
X-229513Y-183500D01*
X-230167Y-183625D01*
X-230727Y-184000D01*
X-231100Y-184875D01*
X-231287Y-185625D01*
Y-186375D01*
X-231100Y-187125D01*
X-230633Y-187875D01*
X-230073Y-188375D01*
X-229420Y-188500D01*
X-228767Y-188250D01*
X-228113Y-187500D01*
G01X-334700Y-173500D02*
Y-166000D01*
X-335820Y-167500D01*
G01Y-173500D02*
X-333580D01*
G01X-326080D02*
Y-166000D01*
X-329533Y-171375D01*
X-324867D01*
G01X-322500Y-173500D02*
Y-168500D01*
G01Y-169875D02*
X-322220Y-169250D01*
X-321753Y-168750D01*
X-321100Y-168500D01*
X-320447Y-168750D01*
X-319980Y-169250D01*
X-319700Y-169875D01*
Y-173500D01*
G01Y-169875D02*
X-319420Y-169250D01*
X-318953Y-168750D01*
X-318300Y-168500D01*
X-317647Y-168750D01*
X-317180Y-169250D01*
X-316900Y-170000D01*
Y-173500D01*
G01X-312200Y-168500D02*
Y-173500D01*
G01Y-166500D02*
X-312387Y-166375D01*
Y-166125D01*
X-312200Y-166000D01*
X-312013Y-166125D01*
Y-166375D01*
X-312200Y-166500D01*
G01X-304700Y-173500D02*
Y-166000D01*
G01X-299067Y-173500D02*
X-295333Y-171000D01*
X-299067Y-168500D01*
G01X-290913Y-172125D02*
X-288487D01*
G01Y-169875D02*
X-290913D01*
G01X-284253Y-173500D02*
Y-166000D01*
X-282387D01*
X-281640Y-166375D01*
X-281080Y-166875D01*
X-280613Y-167625D01*
X-280240Y-168500D01*
X-280147Y-169750D01*
X-280240Y-171000D01*
X-280613Y-171875D01*
X-281080Y-172625D01*
X-281640Y-173125D01*
X-282387Y-173500D01*
X-284253D01*
G01X-276007D02*
Y-168500D01*
G01Y-169500D02*
X-275540Y-169000D01*
X-275073Y-168625D01*
X-274420Y-168500D01*
X-273953Y-168625D01*
X-273393Y-169000D01*
G01X-267200Y-168500D02*
Y-173500D01*
G01Y-166500D02*
X-267387Y-166375D01*
Y-166125D01*
X-267200Y-166000D01*
X-267013Y-166125D01*
Y-166375D01*
X-267200Y-166500D01*
G01X-259700Y-173500D02*
Y-166000D01*
G01X-252200Y-173500D02*
Y-166000D01*
G01X-238600Y-172625D02*
X-238133Y-173125D01*
X-237480Y-173500D01*
X-236920D01*
X-236360Y-173250D01*
X-235987Y-172875D01*
X-235800Y-172375D01*
X-235893Y-171625D01*
X-236267Y-171250D01*
X-237947Y-170500D01*
X-238320Y-169625D01*
X-238133Y-169000D01*
X-237760Y-168625D01*
X-237200Y-168500D01*
X-236640Y-168625D01*
X-236080Y-169000D01*
G01X-229700Y-168500D02*
Y-173500D01*
G01Y-166500D02*
X-229887Y-166375D01*
Y-166125D01*
X-229700Y-166000D01*
X-229513Y-166125D01*
Y-166375D01*
X-229700Y-166500D01*
G01X-223600Y-168500D02*
X-220800D01*
X-223600Y-173500D01*
X-220800D01*
G01X-216100Y-170125D02*
X-213113D01*
X-213393Y-169250D01*
X-213860Y-168750D01*
X-214513Y-168500D01*
X-215167Y-168625D01*
X-215727Y-169000D01*
X-216100Y-169875D01*
X-216287Y-170625D01*
Y-171375D01*
X-216100Y-172125D01*
X-215633Y-172875D01*
X-215073Y-173375D01*
X-214420Y-173500D01*
X-213767Y-173250D01*
X-213113Y-172500D01*
G01X-209067Y-173500D02*
X-205333Y-171000D01*
X-209067Y-168500D01*
G01X-200913Y-172125D02*
X-198487D01*
G01Y-169875D02*
X-200913D01*
G01X-192200Y-173500D02*
X-191547Y-173375D01*
X-190800Y-173000D01*
X-190333Y-172375D01*
X-190147Y-171500D01*
X-190333Y-170625D01*
X-190893Y-169875D01*
X-191733Y-169500D01*
X-192667D01*
X-193227Y-169250D01*
X-193693Y-168625D01*
X-193880Y-167750D01*
X-193600Y-166875D01*
X-192947Y-166250D01*
X-192200Y-166000D01*
X-191453Y-166250D01*
X-190800Y-166875D01*
X-190520Y-167750D01*
X-190707Y-168625D01*
X-191173Y-169250D01*
X-191733Y-169500D01*
X-192667D01*
X-193507Y-169875D01*
X-194067Y-170625D01*
X-194253Y-171500D01*
X-194067Y-172375D01*
X-193600Y-173000D01*
X-192853Y-173375D01*
X-192200Y-173500D01*
G01X-187500D02*
Y-168500D01*
G01Y-169875D02*
X-187220Y-169250D01*
X-186753Y-168750D01*
X-186100Y-168500D01*
X-185447Y-168750D01*
X-184980Y-169250D01*
X-184700Y-169875D01*
Y-173500D01*
G01Y-169875D02*
X-184420Y-169250D01*
X-183953Y-168750D01*
X-183300Y-168500D01*
X-182647Y-168750D01*
X-182180Y-169250D01*
X-181900Y-170000D01*
Y-173500D01*
G01X-177200Y-168500D02*
Y-173500D01*
G01Y-166500D02*
X-177387Y-166375D01*
Y-166125D01*
X-177200Y-166000D01*
X-177013Y-166125D01*
Y-166375D01*
X-177200Y-166500D01*
G01X-169700Y-173500D02*
Y-166000D01*
G01X-356753Y-202375D02*
X-356193Y-203000D01*
X-355540Y-203375D01*
X-354700Y-203500D01*
X-353860Y-203250D01*
X-353207Y-202750D01*
X-352740Y-201875D01*
X-352647Y-200875D01*
X-352833Y-199875D01*
X-353300Y-199250D01*
X-353953Y-198750D01*
X-354607Y-198625D01*
X-355260Y-198750D01*
X-356100Y-199250D01*
X-355820Y-196000D01*
X-353300D01*
G01X-347200D02*
X-347947Y-196250D01*
X-348507Y-196875D01*
X-348880Y-197625D01*
X-349160Y-198625D01*
X-349253Y-199750D01*
X-349160Y-200875D01*
X-348880Y-201875D01*
X-348507Y-202625D01*
X-347947Y-203250D01*
X-347200Y-203500D01*
X-346453Y-203250D01*
X-345893Y-202625D01*
X-345520Y-201875D01*
X-345240Y-200875D01*
X-345147Y-199750D01*
X-345240Y-198625D01*
X-345520Y-197625D01*
X-345893Y-196875D01*
X-346453Y-196250D01*
X-347200Y-196000D01*
G01X-341380Y-203750D02*
X-338020Y-196000D01*
G01X-341380D02*
X-341940Y-196250D01*
X-342220Y-196625D01*
X-342407Y-197375D01*
X-342220Y-198125D01*
X-341940Y-198500D01*
X-341380Y-198750D01*
X-340820Y-198500D01*
X-340540Y-198125D01*
X-340353Y-197375D01*
X-340540Y-196625D01*
X-340820Y-196250D01*
X-341380Y-196000D01*
G01X-338020Y-201000D02*
X-338580Y-201250D01*
X-338860Y-201625D01*
X-339047Y-202375D01*
X-338860Y-203125D01*
X-338580Y-203500D01*
X-338020Y-203750D01*
X-337460Y-203500D01*
X-337180Y-203125D01*
X-336993Y-202375D01*
X-337180Y-201625D01*
X-337460Y-201250D01*
X-338020Y-201000D01*
G01X-323207Y-199125D02*
X-323860Y-198625D01*
X-324420Y-198500D01*
X-325167Y-198750D01*
X-325727Y-199250D01*
X-326100Y-200125D01*
X-326193Y-201000D01*
X-326100Y-201875D01*
X-325727Y-202625D01*
X-325167Y-203250D01*
X-324420Y-203500D01*
X-323767Y-203250D01*
X-323207Y-202750D01*
G01X-317200Y-203500D02*
X-317760Y-203375D01*
X-318320Y-202875D01*
X-318693Y-202000D01*
X-318880Y-201000D01*
X-318693Y-200000D01*
X-318320Y-199125D01*
X-317760Y-198625D01*
X-317200Y-198500D01*
X-316640Y-198625D01*
X-316080Y-199125D01*
X-315707Y-200000D01*
X-315613Y-201000D01*
X-315707Y-202000D01*
X-316080Y-202875D01*
X-316640Y-203375D01*
X-317200Y-203500D01*
G01X-311380Y-206000D02*
Y-198500D01*
G01Y-199625D02*
X-310913Y-199000D01*
X-310447Y-198625D01*
X-309700Y-198500D01*
X-309047Y-198625D01*
X-308393Y-199250D01*
X-308113Y-200125D01*
X-308020Y-201000D01*
X-308113Y-201875D01*
X-308393Y-202750D01*
X-308953Y-203250D01*
X-309700Y-203500D01*
X-310353Y-203375D01*
X-311007Y-203000D01*
X-311380Y-202500D01*
G01X-303880Y-206000D02*
Y-198500D01*
G01Y-199625D02*
X-303413Y-199000D01*
X-302947Y-198625D01*
X-302200Y-198500D01*
X-301547Y-198625D01*
X-300893Y-199250D01*
X-300613Y-200125D01*
X-300520Y-201000D01*
X-300613Y-201875D01*
X-300893Y-202750D01*
X-301453Y-203250D01*
X-302200Y-203500D01*
X-302853Y-203375D01*
X-303507Y-203000D01*
X-303880Y-202500D01*
G01X-296100Y-200125D02*
X-293113D01*
X-293393Y-199250D01*
X-293860Y-198750D01*
X-294513Y-198500D01*
X-295167Y-198625D01*
X-295727Y-199000D01*
X-296100Y-199875D01*
X-296287Y-200625D01*
Y-201375D01*
X-296100Y-202125D01*
X-295633Y-202875D01*
X-295073Y-203375D01*
X-294420Y-203500D01*
X-293767Y-203250D01*
X-293113Y-202500D01*
G01X-288507Y-203500D02*
Y-198500D01*
G01Y-199500D02*
X-288040Y-199000D01*
X-287573Y-198625D01*
X-286920Y-198500D01*
X-286453Y-198625D01*
X-285893Y-199000D01*
G01X-280913Y-201000D02*
X-278487D01*
G01X-272760Y-203500D02*
Y-197125D01*
X-272573Y-196500D01*
X-272200Y-196125D01*
X-271640Y-196000D01*
X-271080Y-196250D01*
X-270800Y-196875D01*
G01X-271920Y-199000D02*
X-273787D01*
G01X-264700Y-198500D02*
Y-203500D01*
G01Y-196500D02*
X-264887Y-196375D01*
Y-196125D01*
X-264700Y-196000D01*
X-264513Y-196125D01*
Y-196375D01*
X-264700Y-196500D01*
G01X-257200Y-203500D02*
Y-196000D01*
G01X-249700Y-203500D02*
Y-196000D01*
G01X-242200Y-198500D02*
Y-203500D01*
G01Y-196500D02*
X-242387Y-196375D01*
Y-196125D01*
X-242200Y-196000D01*
X-242013Y-196125D01*
Y-196375D01*
X-242200Y-196500D01*
G01X-236287Y-203500D02*
Y-198500D01*
G01Y-199750D02*
X-235913Y-199125D01*
X-235353Y-198625D01*
X-234607Y-198500D01*
X-233953Y-198625D01*
X-233393Y-199125D01*
X-233113Y-200000D01*
Y-203500D01*
G01X-228507Y-205375D02*
X-227853Y-205875D01*
X-227107Y-206000D01*
X-226453Y-205875D01*
X-225893Y-205250D01*
X-225520Y-204375D01*
Y-198500D01*
G01Y-199500D02*
X-225893Y-199000D01*
X-226453Y-198625D01*
X-227107Y-198500D01*
X-227853Y-198750D01*
X-228320Y-199250D01*
X-228693Y-200125D01*
X-228880Y-201000D01*
X-228787Y-201750D01*
X-228413Y-202625D01*
X-227853Y-203250D01*
X-227107Y-203500D01*
X-226547Y-203375D01*
X-225893Y-202875D01*
X-225520Y-202375D01*
G01X-212200Y-198500D02*
Y-203500D01*
G01Y-196500D02*
X-212387Y-196375D01*
Y-196125D01*
X-212200Y-196000D01*
X-212013Y-196125D01*
Y-196375D01*
X-212200Y-196500D01*
G01X-206100Y-202625D02*
X-205633Y-203125D01*
X-204980Y-203500D01*
X-204420D01*
X-203860Y-203250D01*
X-203487Y-202875D01*
X-203300Y-202375D01*
X-203393Y-201625D01*
X-203767Y-201250D01*
X-205447Y-200500D01*
X-205820Y-199625D01*
X-205633Y-199000D01*
X-205260Y-198625D01*
X-204700Y-198500D01*
X-204140Y-198625D01*
X-203580Y-199000D01*
G01X-189700Y-203500D02*
X-190260Y-203375D01*
X-190820Y-202875D01*
X-191193Y-202000D01*
X-191380Y-201000D01*
X-191193Y-200000D01*
X-190820Y-199125D01*
X-190260Y-198625D01*
X-189700Y-198500D01*
X-189140Y-198625D01*
X-188580Y-199125D01*
X-188207Y-200000D01*
X-188113Y-201000D01*
X-188207Y-202000D01*
X-188580Y-202875D01*
X-189140Y-203375D01*
X-189700Y-203500D01*
G01X-183787Y-198500D02*
Y-202000D01*
X-183413Y-202875D01*
X-182853Y-203375D01*
X-182200Y-203500D01*
X-181547Y-203375D01*
X-180987Y-202875D01*
X-180613Y-202000D01*
G01Y-203500D02*
Y-198500D01*
G01X-176007Y-203500D02*
Y-198500D01*
G01Y-199500D02*
X-175540Y-199000D01*
X-175073Y-198625D01*
X-174420Y-198500D01*
X-173953Y-198625D01*
X-173393Y-199000D01*
G01X-162500Y-203500D02*
Y-198500D01*
G01Y-199875D02*
X-162220Y-199250D01*
X-161753Y-198750D01*
X-161100Y-198500D01*
X-160447Y-198750D01*
X-159980Y-199250D01*
X-159700Y-199875D01*
Y-203500D01*
G01Y-199875D02*
X-159420Y-199250D01*
X-158953Y-198750D01*
X-158300Y-198500D01*
X-157647Y-198750D01*
X-157180Y-199250D01*
X-156900Y-200000D01*
Y-203500D01*
G01X-152200Y-198500D02*
Y-203500D01*
G01Y-196500D02*
X-152387Y-196375D01*
Y-196125D01*
X-152200Y-196000D01*
X-152013Y-196125D01*
Y-196375D01*
X-152200Y-196500D01*
G01X-146287Y-203500D02*
Y-198500D01*
G01Y-199750D02*
X-145913Y-199125D01*
X-145353Y-198625D01*
X-144607Y-198500D01*
X-143953Y-198625D01*
X-143393Y-199125D01*
X-143113Y-200000D01*
Y-203500D01*
G01X-137200Y-198500D02*
Y-203500D01*
G01Y-196500D02*
X-137387Y-196375D01*
Y-196125D01*
X-137200Y-196000D01*
X-137013Y-196125D01*
Y-196375D01*
X-137200Y-196500D01*
G01X-132500Y-203500D02*
Y-198500D01*
G01Y-199875D02*
X-132220Y-199250D01*
X-131753Y-198750D01*
X-131100Y-198500D01*
X-130447Y-198750D01*
X-129980Y-199250D01*
X-129700Y-199875D01*
Y-203500D01*
G01Y-199875D02*
X-129420Y-199250D01*
X-128953Y-198750D01*
X-128300Y-198500D01*
X-127647Y-198750D01*
X-127180Y-199250D01*
X-126900Y-200000D01*
Y-203500D01*
G01X-123787Y-198500D02*
Y-202000D01*
X-123413Y-202875D01*
X-122853Y-203375D01*
X-122200Y-203500D01*
X-121547Y-203375D01*
X-120987Y-202875D01*
X-120613Y-202000D01*
G01Y-203500D02*
Y-198500D01*
G01X-117500Y-203500D02*
Y-198500D01*
G01Y-199875D02*
X-117220Y-199250D01*
X-116753Y-198750D01*
X-116100Y-198500D01*
X-115447Y-198750D01*
X-114980Y-199250D01*
X-114700Y-199875D01*
Y-203500D01*
G01Y-199875D02*
X-114420Y-199250D01*
X-113953Y-198750D01*
X-113300Y-198500D01*
X-112647Y-198750D01*
X-112180Y-199250D01*
X-111900Y-200000D01*
Y-203500D01*
G01X-101007D02*
Y-198500D01*
G01Y-199500D02*
X-100540Y-199000D01*
X-100073Y-198625D01*
X-99420Y-198500D01*
X-98953Y-198625D01*
X-98393Y-199000D01*
G01X-93600Y-200125D02*
X-90613D01*
X-90893Y-199250D01*
X-91360Y-198750D01*
X-92013Y-198500D01*
X-92667Y-198625D01*
X-93227Y-199000D01*
X-93600Y-199875D01*
X-93787Y-200625D01*
Y-201375D01*
X-93600Y-202125D01*
X-93133Y-202875D01*
X-92573Y-203375D01*
X-91920Y-203500D01*
X-91267Y-203250D01*
X-90613Y-202500D01*
G01X-83020Y-206000D02*
Y-198500D01*
G01Y-199625D02*
X-83487Y-199000D01*
X-84047Y-198625D01*
X-84700Y-198500D01*
X-85260Y-198625D01*
X-85913Y-199250D01*
X-86287Y-200125D01*
X-86380Y-201000D01*
X-86287Y-201875D01*
X-85913Y-202750D01*
X-85260Y-203375D01*
X-84700Y-203500D01*
X-84047Y-203375D01*
X-83487Y-203000D01*
X-83020Y-202375D01*
G01X-78787Y-198500D02*
Y-202000D01*
X-78413Y-202875D01*
X-77853Y-203375D01*
X-77200Y-203500D01*
X-76547Y-203375D01*
X-75987Y-202875D01*
X-75613Y-202000D01*
G01Y-203500D02*
Y-198500D01*
G01X-71100Y-200125D02*
X-68113D01*
X-68393Y-199250D01*
X-68860Y-198750D01*
X-69513Y-198500D01*
X-70167Y-198625D01*
X-70727Y-199000D01*
X-71100Y-199875D01*
X-71287Y-200625D01*
Y-201375D01*
X-71100Y-202125D01*
X-70633Y-202875D01*
X-70073Y-203375D01*
X-69420Y-203500D01*
X-68767Y-203250D01*
X-68113Y-202500D01*
G01X-63600Y-202625D02*
X-63133Y-203125D01*
X-62480Y-203500D01*
X-61920D01*
X-61360Y-203250D01*
X-60987Y-202875D01*
X-60800Y-202375D01*
X-60893Y-201625D01*
X-61267Y-201250D01*
X-62947Y-200500D01*
X-63320Y-199625D01*
X-63133Y-199000D01*
X-62760Y-198625D01*
X-62200Y-198500D01*
X-61640Y-198625D01*
X-61080Y-199000D01*
G01X-54700Y-196000D02*
Y-203500D01*
G01X-56007Y-198500D02*
X-53393D01*
G01X-39700D02*
Y-203500D01*
G01Y-196500D02*
X-39887Y-196375D01*
Y-196125D01*
X-39700Y-196000D01*
X-39513Y-196125D01*
Y-196375D01*
X-39700Y-196500D01*
G01X-33787Y-203500D02*
Y-198500D01*
G01Y-199750D02*
X-33413Y-199125D01*
X-32853Y-198625D01*
X-32107Y-198500D01*
X-31453Y-198625D01*
X-30893Y-199125D01*
X-30613Y-200000D01*
Y-203500D01*
G01X-18880D02*
Y-196000D01*
G01Y-199750D02*
X-18413Y-199000D01*
X-17853Y-198625D01*
X-17293Y-198500D01*
X-16453Y-198750D01*
X-15893Y-199250D01*
X-15520Y-200125D01*
Y-201125D01*
X-15707Y-202125D01*
X-16080Y-202875D01*
X-16733Y-203375D01*
X-17293Y-203500D01*
X-17853Y-203375D01*
X-18413Y-203000D01*
X-18880Y-202375D01*
G01X-9700Y-203500D02*
Y-196000D01*
G01X-2200Y-198500D02*
Y-203500D01*
G01Y-196500D02*
X-2387Y-196375D01*
Y-196125D01*
X-2200Y-196000D01*
X-2013Y-196125D01*
Y-196375D01*
X-2200Y-196500D01*
G01X3713Y-203500D02*
Y-198500D01*
G01Y-199750D02*
X4087Y-199125D01*
X4647Y-198625D01*
X5393Y-198500D01*
X6047Y-198625D01*
X6607Y-199125D01*
X6887Y-200000D01*
Y-203500D01*
G01X14480Y-196000D02*
Y-203500D01*
G01Y-202375D02*
X14107Y-203000D01*
X13547Y-203375D01*
X12893Y-203500D01*
X12147Y-203250D01*
X11587Y-202625D01*
X11213Y-201875D01*
X11120Y-201000D01*
X11213Y-200125D01*
X11587Y-199375D01*
X12147Y-198750D01*
X12893Y-198500D01*
X13547Y-198625D01*
X14013Y-198875D01*
X14480Y-199375D01*
G01X26120Y-198500D02*
X27800Y-203500D01*
X29480Y-198500D01*
G01X35300D02*
Y-203500D01*
G01Y-196500D02*
X35113Y-196375D01*
Y-196125D01*
X35300Y-196000D01*
X35487Y-196125D01*
Y-196375D01*
X35300Y-196500D01*
G01X44480Y-203500D02*
Y-198500D01*
G01Y-199375D02*
X44107Y-198875D01*
X43547Y-198625D01*
X42893Y-198500D01*
X42240Y-198750D01*
X41680Y-199250D01*
X41307Y-200000D01*
X41120Y-201000D01*
X41307Y-202000D01*
X41680Y-202750D01*
X42240Y-203250D01*
X42893Y-203500D01*
X43547Y-203375D01*
X44107Y-203000D01*
X44480Y-202500D01*
G01X-334887Y-158500D02*
X-334700Y-156875D01*
X-334420Y-155500D01*
X-334047Y-154250D01*
X-333580Y-152875D01*
X-332833Y-151000D01*
X-336567D01*
G01X-328787Y-157625D02*
X-328133Y-158250D01*
X-327387Y-158500D01*
X-326640Y-158250D01*
X-325987Y-157500D01*
X-325520Y-156375D01*
X-325333Y-155250D01*
Y-153875D01*
X-325520Y-152750D01*
X-325987Y-151750D01*
X-326547Y-151250D01*
X-327200Y-151000D01*
X-327947Y-151250D01*
X-328507Y-151750D01*
X-328880Y-152500D01*
X-329067Y-153500D01*
X-328880Y-154375D01*
X-328413Y-155250D01*
X-327853Y-155750D01*
X-327200Y-155875D01*
X-326453Y-155625D01*
X-325893Y-155000D01*
X-325333Y-153875D01*
G01X-322500Y-158500D02*
Y-153500D01*
G01Y-154875D02*
X-322220Y-154250D01*
X-321753Y-153750D01*
X-321100Y-153500D01*
X-320447Y-153750D01*
X-319980Y-154250D01*
X-319700Y-154875D01*
Y-158500D01*
G01Y-154875D02*
X-319420Y-154250D01*
X-318953Y-153750D01*
X-318300Y-153500D01*
X-317647Y-153750D01*
X-317180Y-154250D01*
X-316900Y-155000D01*
Y-158500D01*
G01X-312200Y-153500D02*
Y-158500D01*
G01Y-151500D02*
X-312387Y-151375D01*
Y-151125D01*
X-312200Y-151000D01*
X-312013Y-151125D01*
Y-151375D01*
X-312200Y-151500D01*
G01X-304700Y-158500D02*
Y-151000D01*
G01X-299067Y-158500D02*
X-295333Y-156000D01*
X-299067Y-153500D01*
G01X-290913Y-157125D02*
X-288487D01*
G01Y-154875D02*
X-290913D01*
G01X-284253Y-158500D02*
Y-151000D01*
X-282387D01*
X-281640Y-151375D01*
X-281080Y-151875D01*
X-280613Y-152625D01*
X-280240Y-153500D01*
X-280147Y-154750D01*
X-280240Y-156000D01*
X-280613Y-156875D01*
X-281080Y-157625D01*
X-281640Y-158125D01*
X-282387Y-158500D01*
X-284253D01*
G01X-276007D02*
Y-153500D01*
G01Y-154500D02*
X-275540Y-154000D01*
X-275073Y-153625D01*
X-274420Y-153500D01*
X-273953Y-153625D01*
X-273393Y-154000D01*
G01X-267200Y-153500D02*
Y-158500D01*
G01Y-151500D02*
X-267387Y-151375D01*
Y-151125D01*
X-267200Y-151000D01*
X-267013Y-151125D01*
Y-151375D01*
X-267200Y-151500D01*
G01X-259700Y-158500D02*
Y-151000D01*
G01X-252200Y-158500D02*
Y-151000D01*
G01X-238600Y-157625D02*
X-238133Y-158125D01*
X-237480Y-158500D01*
X-236920D01*
X-236360Y-158250D01*
X-235987Y-157875D01*
X-235800Y-157375D01*
X-235893Y-156625D01*
X-236267Y-156250D01*
X-237947Y-155500D01*
X-238320Y-154625D01*
X-238133Y-154000D01*
X-237760Y-153625D01*
X-237200Y-153500D01*
X-236640Y-153625D01*
X-236080Y-154000D01*
G01X-229700Y-153500D02*
Y-158500D01*
G01Y-151500D02*
X-229887Y-151375D01*
Y-151125D01*
X-229700Y-151000D01*
X-229513Y-151125D01*
Y-151375D01*
X-229700Y-151500D01*
G01X-223600Y-153500D02*
X-220800D01*
X-223600Y-158500D01*
X-220800D01*
G01X-216100Y-155125D02*
X-213113D01*
X-213393Y-154250D01*
X-213860Y-153750D01*
X-214513Y-153500D01*
X-215167Y-153625D01*
X-215727Y-154000D01*
X-216100Y-154875D01*
X-216287Y-155625D01*
Y-156375D01*
X-216100Y-157125D01*
X-215633Y-157875D01*
X-215073Y-158375D01*
X-214420Y-158500D01*
X-213767Y-158250D01*
X-213113Y-157500D01*
G01X-209067Y-158500D02*
X-205333Y-156000D01*
X-209067Y-153500D01*
G01X-199700Y-158500D02*
Y-151000D01*
X-200820Y-152500D01*
G01Y-158500D02*
X-198580D01*
G01X-191080D02*
Y-151000D01*
X-194533Y-156375D01*
X-189867D01*
G01X-187500Y-158500D02*
Y-153500D01*
G01Y-154875D02*
X-187220Y-154250D01*
X-186753Y-153750D01*
X-186100Y-153500D01*
X-185447Y-153750D01*
X-184980Y-154250D01*
X-184700Y-154875D01*
Y-158500D01*
G01Y-154875D02*
X-184420Y-154250D01*
X-183953Y-153750D01*
X-183300Y-153500D01*
X-182647Y-153750D01*
X-182180Y-154250D01*
X-181900Y-155000D01*
Y-158500D01*
G01X-177200Y-153500D02*
Y-158500D01*
G01Y-151500D02*
X-177387Y-151375D01*
Y-151125D01*
X-177200Y-151000D01*
X-177013Y-151125D01*
Y-151375D01*
X-177200Y-151500D01*
G01X-169700Y-158500D02*
Y-151000D01*
G01X-118600Y-281900D02*
X-119347Y-281775D01*
X-120000Y-281275D01*
X-120560Y-280525D01*
X-120933Y-279650D01*
X-121120Y-278650D01*
Y-277650D01*
X-120933Y-276650D01*
X-120560Y-275775D01*
X-120000Y-275025D01*
X-119347Y-274525D01*
X-118600Y-274400D01*
X-117853Y-274525D01*
X-117200Y-275025D01*
X-116640Y-275775D01*
X-116267Y-276650D01*
X-116080Y-277650D01*
Y-278650D01*
X-116267Y-279650D01*
X-116640Y-280525D01*
X-117200Y-281275D01*
X-117853Y-281775D01*
X-118600Y-281900D01*
G01X-112967D02*
Y-274400D01*
X-110633D01*
X-109887Y-274775D01*
X-109420Y-275275D01*
X-109233Y-276275D01*
X-109420Y-277275D01*
X-109980Y-277900D01*
X-110633Y-278275D01*
X-112967D01*
G01X-110633D02*
X-109233Y-281900D01*
G01X-106400Y-274400D02*
X-105093Y-281900D01*
X-103600Y-274400D01*
X-102107Y-281900D01*
X-100800Y-274400D01*
G01X-97967D02*
Y-281900D01*
X-94233D01*
G01X-59533Y-282500D02*
X-63267D01*
Y-275000D01*
X-59533D01*
G01X-61027Y-278625D02*
X-63267D01*
G01X-56233Y-275000D02*
X-53900Y-282500D01*
X-51567Y-275000D01*
G01X-46400D02*
Y-282500D01*
G01X-48547Y-275000D02*
X-44253D01*
G01X-132400Y-308900D02*
X-133067Y-309067D01*
X-133567Y-309483D01*
X-133900Y-309983D01*
X-134150Y-310650D01*
X-134233Y-311400D01*
X-134150Y-312150D01*
X-133900Y-312817D01*
X-133567Y-313317D01*
X-133067Y-313733D01*
X-132400Y-313900D01*
X-131733Y-313733D01*
X-131233Y-313317D01*
X-130900Y-312817D01*
X-130650Y-312150D01*
X-130567Y-311400D01*
X-130650Y-310650D01*
X-130900Y-309983D01*
X-131233Y-309483D01*
X-131733Y-309067D01*
X-132400Y-308900D01*
G01X-126167Y-313900D02*
X-126000Y-312817D01*
X-125750Y-311900D01*
X-125417Y-311067D01*
X-125000Y-310150D01*
X-124333Y-308900D01*
X-127667D01*
G01X-121100Y-314067D02*
X-118100Y-308900D01*
G01X-114783Y-309733D02*
X-114283Y-309233D01*
X-113700Y-308983D01*
X-113033Y-308900D01*
X-112200Y-309067D01*
X-111617Y-309483D01*
X-111450Y-309983D01*
X-111533Y-310483D01*
X-111867Y-310900D01*
X-113533Y-311733D01*
X-114283Y-312317D01*
X-114783Y-313150D01*
X-114950Y-313900D01*
X-111450D01*
G01X-106800Y-308900D02*
X-107467Y-309067D01*
X-107967Y-309483D01*
X-108300Y-309983D01*
X-108550Y-310650D01*
X-108633Y-311400D01*
X-108550Y-312150D01*
X-108300Y-312817D01*
X-107967Y-313317D01*
X-107467Y-313733D01*
X-106800Y-313900D01*
X-106133Y-313733D01*
X-105633Y-313317D01*
X-105300Y-312817D01*
X-105050Y-312150D01*
X-104967Y-311400D01*
X-105050Y-310650D01*
X-105300Y-309983D01*
X-105633Y-309483D01*
X-106133Y-309067D01*
X-106800Y-308900D01*
G01X-101900Y-314067D02*
X-98900Y-308900D01*
G01X-94000Y-313900D02*
Y-308900D01*
X-95000Y-309900D01*
G01Y-313900D02*
X-93000D01*
G01X-89433Y-313150D02*
X-88933Y-313567D01*
X-88350Y-313817D01*
X-87600Y-313900D01*
X-86850Y-313733D01*
X-86267Y-313400D01*
X-85850Y-312817D01*
X-85767Y-312150D01*
X-85933Y-311483D01*
X-86350Y-311067D01*
X-86933Y-310733D01*
X-87517Y-310650D01*
X-88100Y-310733D01*
X-88850Y-311067D01*
X-88600Y-308900D01*
X-86350D01*
G01X-81200Y-310567D02*
X-80367Y-309525D01*
Y-308900D01*
X-80992D01*
Y-309525D01*
X-80367D01*
G01X-65617Y-280100D02*
Y-275100D01*
X-61783Y-280100D01*
Y-275100D01*
G01X-55467Y-275517D02*
X-55967Y-275267D01*
X-56550Y-275100D01*
X-57217D01*
X-57967Y-275350D01*
X-58550Y-275767D01*
X-58967Y-276267D01*
X-59300Y-277100D01*
X-59383Y-277850D01*
X-59217Y-278600D01*
X-58967Y-279100D01*
X-58467Y-279600D01*
X-57883Y-279933D01*
X-57300Y-280100D01*
X-56717D01*
X-56133Y-279933D01*
X-55633Y-279683D01*
X-55217Y-279350D01*
G01X-53400Y-281767D02*
X-48400D01*
G01X-46333Y-280100D02*
Y-275100D01*
X-44667D01*
X-44000Y-275350D01*
X-43500Y-275683D01*
X-43083Y-276183D01*
X-42750Y-276767D01*
X-42667Y-277600D01*
X-42750Y-278433D01*
X-43083Y-279017D01*
X-43500Y-279517D01*
X-44000Y-279850D01*
X-44667Y-280100D01*
X-46333D01*
G01X-39767D02*
Y-275100D01*
X-37683D01*
X-37017Y-275350D01*
X-36600Y-275683D01*
X-36433Y-276350D01*
X-36600Y-277017D01*
X-37100Y-277433D01*
X-37683Y-277683D01*
X-39767D01*
G01X-37683D02*
X-36433Y-280100D01*
G01X-33367Y-275100D02*
Y-280100D01*
X-30033D01*
G01X-32450Y-300100D02*
X-28950Y-295100D01*
G01X-32450D02*
X-28950Y-300100D01*
G01X-111227Y-141000D02*
X-108987D01*
G01X-110200Y-139375D02*
Y-142625D01*
G01X-104473Y-140375D02*
X-103820Y-139500D01*
X-103260Y-139000D01*
X-102513Y-138750D01*
X-101860Y-139000D01*
X-101393Y-139500D01*
X-101020Y-140250D01*
X-100927Y-141125D01*
X-101020Y-141875D01*
X-101393Y-142625D01*
X-101953Y-143250D01*
X-102607Y-143500D01*
X-103353Y-143250D01*
X-104007Y-142500D01*
X-104380Y-141375D01*
X-104473Y-140125D01*
X-104287Y-138500D01*
X-104007Y-137625D01*
X-103540Y-136750D01*
X-102887Y-136125D01*
X-102233Y-136000D01*
X-101580Y-136250D01*
X-101113Y-136875D01*
G01X-96880Y-143750D02*
X-93520Y-136000D01*
G01X-88913Y-141000D02*
X-86487D01*
G01X-80200Y-136000D02*
X-80947Y-136250D01*
X-81507Y-136875D01*
X-81880Y-137625D01*
X-82160Y-138625D01*
X-82253Y-139750D01*
X-82160Y-140875D01*
X-81880Y-141875D01*
X-81507Y-142625D01*
X-80947Y-143250D01*
X-80200Y-143500D01*
X-79453Y-143250D01*
X-78893Y-142625D01*
X-78520Y-141875D01*
X-78240Y-140875D01*
X-78147Y-139750D01*
X-78240Y-138625D01*
X-78520Y-137625D01*
X-78893Y-136875D01*
X-79453Y-136250D01*
X-80200Y-136000D01*
G01X-75500Y-143500D02*
Y-138500D01*
G01Y-139875D02*
X-75220Y-139250D01*
X-74753Y-138750D01*
X-74100Y-138500D01*
X-73447Y-138750D01*
X-72980Y-139250D01*
X-72700Y-139875D01*
Y-143500D01*
G01Y-139875D02*
X-72420Y-139250D01*
X-71953Y-138750D01*
X-71300Y-138500D01*
X-70647Y-138750D01*
X-70180Y-139250D01*
X-69900Y-140000D01*
Y-143500D01*
G01X-65200Y-138500D02*
Y-143500D01*
G01Y-136500D02*
X-65387Y-136375D01*
Y-136125D01*
X-65200Y-136000D01*
X-65013Y-136125D01*
Y-136375D01*
X-65200Y-136500D01*
G01X-57700Y-143500D02*
Y-136000D01*
G01X-13727Y-163500D02*
X-11487D01*
G01X-12700Y-161875D02*
Y-165125D01*
G01X-6880Y-166250D02*
X-3520Y-158500D01*
G01X1087Y-163500D02*
X3513D01*
G01X8027Y-159750D02*
X8587Y-159000D01*
X9240Y-158625D01*
X9987Y-158500D01*
X10920Y-158750D01*
X11573Y-159375D01*
X11760Y-160125D01*
X11667Y-160875D01*
X11293Y-161500D01*
X9427Y-162750D01*
X8587Y-163625D01*
X8027Y-164875D01*
X7840Y-166000D01*
X11760D01*
G01X14500D02*
Y-161000D01*
G01Y-162375D02*
X14780Y-161750D01*
X15247Y-161250D01*
X15900Y-161000D01*
X16553Y-161250D01*
X17020Y-161750D01*
X17300Y-162375D01*
Y-166000D01*
G01Y-162375D02*
X17580Y-161750D01*
X18047Y-161250D01*
X18700Y-161000D01*
X19353Y-161250D01*
X19820Y-161750D01*
X20100Y-162500D01*
Y-166000D01*
G01X24800Y-161000D02*
Y-166000D01*
G01Y-159000D02*
X24613Y-158875D01*
Y-158625D01*
X24800Y-158500D01*
X24987Y-158625D01*
Y-158875D01*
X24800Y-159000D01*
G01X32300Y-166000D02*
Y-158500D01*
G01X-111227Y-186000D02*
X-108987D01*
G01X-110200Y-184375D02*
Y-187625D01*
G01X-104473Y-182250D02*
X-103913Y-181500D01*
X-103260Y-181125D01*
X-102513Y-181000D01*
X-101580Y-181250D01*
X-100927Y-181875D01*
X-100740Y-182625D01*
X-100833Y-183375D01*
X-101207Y-184000D01*
X-103073Y-185250D01*
X-103913Y-186125D01*
X-104473Y-187375D01*
X-104660Y-188500D01*
X-100740D01*
G01X-96880Y-188750D02*
X-93520Y-181000D01*
G01X-88913Y-186000D02*
X-86487D01*
G01X-79080Y-188500D02*
Y-181000D01*
X-82533Y-186375D01*
X-77867D01*
G01X-75500Y-188500D02*
Y-183500D01*
G01Y-184875D02*
X-75220Y-184250D01*
X-74753Y-183750D01*
X-74100Y-183500D01*
X-73447Y-183750D01*
X-72980Y-184250D01*
X-72700Y-184875D01*
Y-188500D01*
G01Y-184875D02*
X-72420Y-184250D01*
X-71953Y-183750D01*
X-71300Y-183500D01*
X-70647Y-183750D01*
X-70180Y-184250D01*
X-69900Y-185000D01*
Y-188500D01*
G01X-65200Y-183500D02*
Y-188500D01*
G01Y-181500D02*
X-65387Y-181375D01*
Y-181125D01*
X-65200Y-181000D01*
X-65013Y-181125D01*
Y-181375D01*
X-65200Y-181500D01*
G01X-57700Y-188500D02*
Y-181000D01*
G01X-111227Y-171000D02*
X-108987D01*
G01X-110200Y-169375D02*
Y-172625D01*
G01X-104380Y-173750D02*
X-101020Y-166000D01*
G01X-96413Y-171000D02*
X-93987D01*
G01X-89753Y-172000D02*
X-89193Y-172875D01*
X-88447Y-173375D01*
X-87607Y-173500D01*
X-86860Y-173375D01*
X-86113Y-172750D01*
X-85647Y-172000D01*
X-85553Y-171250D01*
X-85740Y-170375D01*
X-86393Y-169750D01*
X-87047Y-169500D01*
X-87887D01*
G01X-87047D02*
X-86487Y-169125D01*
X-86020Y-168500D01*
X-85833Y-167750D01*
X-86020Y-167000D01*
X-86487Y-166375D01*
X-87327Y-166000D01*
X-88167Y-166125D01*
X-89007Y-166625D01*
G01X-83000Y-173500D02*
Y-168500D01*
G01Y-169875D02*
X-82720Y-169250D01*
X-82253Y-168750D01*
X-81600Y-168500D01*
X-80947Y-168750D01*
X-80480Y-169250D01*
X-80200Y-169875D01*
Y-173500D01*
G01Y-169875D02*
X-79920Y-169250D01*
X-79453Y-168750D01*
X-78800Y-168500D01*
X-78147Y-168750D01*
X-77680Y-169250D01*
X-77400Y-170000D01*
Y-173500D01*
G01X-72700Y-168500D02*
Y-173500D01*
G01Y-166500D02*
X-72887Y-166375D01*
Y-166125D01*
X-72700Y-166000D01*
X-72513Y-166125D01*
Y-166375D01*
X-72700Y-166500D01*
G01X-65200Y-173500D02*
Y-166000D01*
G01X-111227Y-156000D02*
X-108987D01*
G01X-110200Y-154375D02*
Y-157625D01*
G01X-104380Y-158750D02*
X-101020Y-151000D01*
G01X-96413Y-156000D02*
X-93987D01*
G01X-89753Y-157000D02*
X-89193Y-157875D01*
X-88447Y-158375D01*
X-87607Y-158500D01*
X-86860Y-158375D01*
X-86113Y-157750D01*
X-85647Y-157000D01*
X-85553Y-156250D01*
X-85740Y-155375D01*
X-86393Y-154750D01*
X-87047Y-154500D01*
X-87887D01*
G01X-87047D02*
X-86487Y-154125D01*
X-86020Y-153500D01*
X-85833Y-152750D01*
X-86020Y-152000D01*
X-86487Y-151375D01*
X-87327Y-151000D01*
X-88167Y-151125D01*
X-89007Y-151625D01*
G01X-83000Y-158500D02*
Y-153500D01*
G01Y-154875D02*
X-82720Y-154250D01*
X-82253Y-153750D01*
X-81600Y-153500D01*
X-80947Y-153750D01*
X-80480Y-154250D01*
X-80200Y-154875D01*
Y-158500D01*
G01Y-154875D02*
X-79920Y-154250D01*
X-79453Y-153750D01*
X-78800Y-153500D01*
X-78147Y-153750D01*
X-77680Y-154250D01*
X-77400Y-155000D01*
Y-158500D01*
G01X-72700Y-153500D02*
Y-158500D01*
G01Y-151500D02*
X-72887Y-151375D01*
Y-151125D01*
X-72700Y-151000D01*
X-72513Y-151125D01*
Y-151375D01*
X-72700Y-151500D01*
G01X-65200Y-158500D02*
Y-151000D01*
G01X-61227Y-126000D02*
X-58987D01*
G01X-60200Y-124375D02*
Y-127625D01*
G01X-54380Y-128750D02*
X-51020Y-121000D01*
G01X-46413Y-126000D02*
X-43987D01*
G01X-39753Y-127375D02*
X-39193Y-128000D01*
X-38540Y-128375D01*
X-37700Y-128500D01*
X-36860Y-128250D01*
X-36207Y-127750D01*
X-35740Y-126875D01*
X-35647Y-125875D01*
X-35833Y-124875D01*
X-36300Y-124250D01*
X-36953Y-123750D01*
X-37607Y-123625D01*
X-38260Y-123750D01*
X-39100Y-124250D01*
X-38820Y-121000D01*
X-36300D01*
G01X-33000Y-128500D02*
Y-123500D01*
G01Y-124875D02*
X-32720Y-124250D01*
X-32253Y-123750D01*
X-31600Y-123500D01*
X-30947Y-123750D01*
X-30480Y-124250D01*
X-30200Y-124875D01*
Y-128500D01*
G01Y-124875D02*
X-29920Y-124250D01*
X-29453Y-123750D01*
X-28800Y-123500D01*
X-28147Y-123750D01*
X-27680Y-124250D01*
X-27400Y-125000D01*
Y-128500D01*
G01X-22700Y-123500D02*
Y-128500D01*
G01Y-121500D02*
X-22887Y-121375D01*
Y-121125D01*
X-22700Y-121000D01*
X-22513Y-121125D01*
Y-121375D01*
X-22700Y-121500D01*
G01X-15200Y-128500D02*
Y-121000D01*
G01X-7347Y-101500D02*
Y-94000D01*
X-3053Y-101500D01*
Y-94000D01*
G01X433Y-101500D02*
Y-94000D01*
X2673D01*
X3420Y-94375D01*
X3980Y-95250D01*
X4167Y-96250D01*
X3980Y-97250D01*
X3513Y-98000D01*
X2673Y-98375D01*
X433D01*
G01X9800Y-94000D02*
Y-101500D01*
G01X7653Y-94000D02*
X11947D01*
G01X15340Y-101500D02*
Y-94000D01*
G01X19260D02*
Y-101500D01*
G01Y-97750D02*
X15340D01*
G01X-23700Y-106000D02*
Y-113500D01*
G01X-25007Y-108500D02*
X-22393D01*
G01X-16200Y-113500D02*
X-16760Y-113375D01*
X-17320Y-112875D01*
X-17693Y-112000D01*
X-17880Y-111000D01*
X-17693Y-110000D01*
X-17320Y-109125D01*
X-16760Y-108625D01*
X-16200Y-108500D01*
X-15640Y-108625D01*
X-15080Y-109125D01*
X-14707Y-110000D01*
X-14613Y-111000D01*
X-14707Y-112000D01*
X-15080Y-112875D01*
X-15640Y-113375D01*
X-16200Y-113500D01*
G01X-8700D02*
Y-106000D01*
G01X-2600Y-110125D02*
X387D01*
X107Y-109250D01*
X-360Y-108750D01*
X-1013Y-108500D01*
X-1667Y-108625D01*
X-2227Y-109000D01*
X-2600Y-109875D01*
X-2787Y-110625D01*
Y-111375D01*
X-2600Y-112125D01*
X-2133Y-112875D01*
X-1573Y-113375D01*
X-920Y-113500D01*
X-267Y-113250D01*
X387Y-112500D01*
G01X4993Y-113500D02*
Y-108500D01*
G01Y-109500D02*
X5460Y-109000D01*
X5927Y-108625D01*
X6580Y-108500D01*
X7047Y-108625D01*
X7607Y-109000D01*
G01X15480Y-113500D02*
Y-108500D01*
G01Y-109375D02*
X15107Y-108875D01*
X14547Y-108625D01*
X13893Y-108500D01*
X13240Y-108750D01*
X12680Y-109250D01*
X12307Y-110000D01*
X12120Y-111000D01*
X12307Y-112000D01*
X12680Y-112750D01*
X13240Y-113250D01*
X13893Y-113500D01*
X14547Y-113375D01*
X15107Y-113000D01*
X15480Y-112500D01*
G01X19713Y-113500D02*
Y-108500D01*
G01Y-109750D02*
X20087Y-109125D01*
X20647Y-108625D01*
X21393Y-108500D01*
X22047Y-108625D01*
X22607Y-109125D01*
X22887Y-110000D01*
Y-113500D01*
G01X30293Y-109125D02*
X29640Y-108625D01*
X29080Y-108500D01*
X28333Y-108750D01*
X27773Y-109250D01*
X27400Y-110125D01*
X27307Y-111000D01*
X27400Y-111875D01*
X27773Y-112625D01*
X28333Y-113250D01*
X29080Y-113500D01*
X29733Y-113250D01*
X30293Y-112750D01*
G01X34900Y-110125D02*
X37887D01*
X37607Y-109250D01*
X37140Y-108750D01*
X36487Y-108500D01*
X35833Y-108625D01*
X35273Y-109000D01*
X34900Y-109875D01*
X34713Y-110625D01*
Y-111375D01*
X34900Y-112125D01*
X35367Y-112875D01*
X35927Y-113375D01*
X36580Y-113500D01*
X37233Y-113250D01*
X37887Y-112500D01*
G01X-117700Y-106000D02*
Y-113500D01*
G01X-119007Y-108500D02*
X-116393D01*
G01X-110200Y-113500D02*
X-110760Y-113375D01*
X-111320Y-112875D01*
X-111693Y-112000D01*
X-111880Y-111000D01*
X-111693Y-110000D01*
X-111320Y-109125D01*
X-110760Y-108625D01*
X-110200Y-108500D01*
X-109640Y-108625D01*
X-109080Y-109125D01*
X-108707Y-110000D01*
X-108613Y-111000D01*
X-108707Y-112000D01*
X-109080Y-112875D01*
X-109640Y-113375D01*
X-110200Y-113500D01*
G01X-102700D02*
Y-106000D01*
G01X-96600Y-110125D02*
X-93613D01*
X-93893Y-109250D01*
X-94360Y-108750D01*
X-95013Y-108500D01*
X-95667Y-108625D01*
X-96227Y-109000D01*
X-96600Y-109875D01*
X-96787Y-110625D01*
Y-111375D01*
X-96600Y-112125D01*
X-96133Y-112875D01*
X-95573Y-113375D01*
X-94920Y-113500D01*
X-94267Y-113250D01*
X-93613Y-112500D01*
G01X-89007Y-113500D02*
Y-108500D01*
G01Y-109500D02*
X-88540Y-109000D01*
X-88073Y-108625D01*
X-87420Y-108500D01*
X-86953Y-108625D01*
X-86393Y-109000D01*
G01X-78520Y-113500D02*
Y-108500D01*
G01Y-109375D02*
X-78893Y-108875D01*
X-79453Y-108625D01*
X-80107Y-108500D01*
X-80760Y-108750D01*
X-81320Y-109250D01*
X-81693Y-110000D01*
X-81880Y-111000D01*
X-81693Y-112000D01*
X-81320Y-112750D01*
X-80760Y-113250D01*
X-80107Y-113500D01*
X-79453Y-113375D01*
X-78893Y-113000D01*
X-78520Y-112500D01*
G01X-74287Y-113500D02*
Y-108500D01*
G01Y-109750D02*
X-73913Y-109125D01*
X-73353Y-108625D01*
X-72607Y-108500D01*
X-71953Y-108625D01*
X-71393Y-109125D01*
X-71113Y-110000D01*
Y-113500D01*
G01X-63707Y-109125D02*
X-64360Y-108625D01*
X-64920Y-108500D01*
X-65667Y-108750D01*
X-66227Y-109250D01*
X-66600Y-110125D01*
X-66693Y-111000D01*
X-66600Y-111875D01*
X-66227Y-112625D01*
X-65667Y-113250D01*
X-64920Y-113500D01*
X-64267Y-113250D01*
X-63707Y-112750D01*
G01X-59100Y-110125D02*
X-56113D01*
X-56393Y-109250D01*
X-56860Y-108750D01*
X-57513Y-108500D01*
X-58167Y-108625D01*
X-58727Y-109000D01*
X-59100Y-109875D01*
X-59287Y-110625D01*
Y-111375D01*
X-59100Y-112125D01*
X-58633Y-112875D01*
X-58073Y-113375D01*
X-57420Y-113500D01*
X-56767Y-113250D01*
X-56113Y-112500D01*
G01X-97067Y-101500D02*
Y-94000D01*
X-94827D01*
X-94080Y-94375D01*
X-93520Y-95250D01*
X-93333Y-96250D01*
X-93520Y-97250D01*
X-93987Y-98000D01*
X-94827Y-98375D01*
X-97067D01*
G01X-87700Y-94000D02*
Y-101500D01*
G01X-89847Y-94000D02*
X-85553D01*
G01X-82160Y-101500D02*
Y-94000D01*
G01X-78240D02*
Y-101500D01*
G01Y-97750D02*
X-82160D01*
G01X640000Y0D02*
X1096000D01*
G01X904000Y35000D02*
Y-35000D01*
G01X724000Y35000D02*
Y-35000D01*
G01X640000D02*
Y95000D01*
X1096000D01*
Y-35000D01*
X640000D01*
G01Y35000D02*
X1096000D01*
G01X640000Y70000D02*
X1096000D01*
G01X1024000Y35000D02*
Y-35000D01*
G01X-540000Y-500000D02*
Y630000D01*
X1130000D01*
Y-500000D01*
X-540000D01*
G01X-365000Y-148500D02*
X-40000D01*
G01X-365000Y-118500D02*
X55000D01*
Y-133500D01*
X-365000D01*
G01Y-163500D02*
X-40000D01*
G01X-365000Y-178500D02*
X-40000D01*
G01X-365000Y-193500D02*
X55000D01*
G01X-365000Y-212500D02*
X55000D01*
Y-87500D01*
X-365000D01*
Y-212500D01*
G01X-40000Y-133500D02*
Y-193500D01*
G01Y-87500D02*
Y-118500D01*
G01X-135000Y-87500D02*
Y-193500D01*
M02*
