G04 ================== begin FILE IDENTIFICATION RECORD ==================*
G04 Layout Name:  ORWL_Design_SHIFT.brd*
G04 Film Name:    drill-3_4*
G04 File Format:  Gerber RS274X*
G04 File Origin:  Cadence Allegro 16.6-P004*
G04 Origin Date:  Sat Sep 19 15:46:53 2015*
G04 *
G04 Layer:  MANUFACTURING/PHOTOPLOT_OUTLINE*
G04 Layer:  MANUFACTURING/NCDRILL_LEGEND*
G04 Layer:  MANUFACTURING/NCLEGEND-3-4*
G04 Layer:  DRAWING FORMAT/NCDRILL_LEGEND*
G04 Layer:  BOARD GEOMETRY/OUTLINE*
G04 Layer:  BOARD GEOMETRY/DIMENSION*
G04 Layer:  BOARD GEOMETRY/LOGO*
G04 *
G04 Offset:    (0.00 0.00)*
G04 Mirror:    No*
G04 Mode:      Positive*
G04 Rotation:  0*
G04 FullContactRelief:  No*
G04 UndefLineWidth:     6.00*
G04 ================== end FILE IDENTIFICATION RECORD ====================*
%FSLAX45Y45*MOIN*%
%IR0*IPPOS*OFA0.00000B0.00000*MIA0B0*SFA1.00000B1.00000*%
%AMMACRO10*
1,1,.006,.002,0.0*
20,1,.006,.002,0.0,-.002,0.0,0.0*
1,1,.006,-.002,0.0*
1,1,.006,0.0,.002*
20,1,.006,0.0,.002,0.0,-.002,0.0*
1,1,.006,0.0,-.002*
%
%ADD10MACRO10*%
%ADD11C,.02*%
%ADD12C,.014*%
%ADD13C,.015*%
%ADD14C,.006*%
G75*
%LPD*%
G75*
G54D10*
X-379400Y235600D03*
Y236700D03*
X-345374Y186023D03*
X-378700Y240586D03*
Y242300D03*
X-367000Y240114D03*
X-345374Y182086D03*
X-359500Y180800D03*
X-345374Y184055D03*
X-359500Y185000D03*
X-345374Y187992D03*
X-362700Y184900D03*
X-345374Y189960D03*
X-353200Y144300D03*
X-364035Y207100D03*
Y203000D03*
Y195000D03*
Y199000D03*
X-363000Y180500D03*
X-359700Y172000D03*
X-340962Y166338D03*
X-359114Y176000D03*
X-350200Y169900D03*
X-340820Y164370D03*
X-362100Y172100D03*
X-290979Y295443D03*
X-289077Y202606D03*
X-302130Y216200D03*
X-290089Y189183D03*
X-290276Y190213D03*
X-354600Y279000D03*
X-353500D03*
X-352500D03*
X-354600Y277900D03*
X-353500D03*
X-351500Y279000D03*
X-319200Y279400D03*
X-365800Y283100D03*
X-299500Y286900D03*
X-286300Y241200D03*
X-308594Y215739D03*
X-281800Y252000D03*
X-290600Y197400D03*
X-305866Y193701D03*
X-380600Y244500D03*
X-283000Y185500D03*
X-286500D03*
X-279500D03*
X-276000D03*
X-310589Y188099D03*
X-309400Y218900D03*
X-357300Y287100D03*
X-283700Y201500D03*
X-340900Y134100D03*
X-297886Y175500D03*
X-310500D03*
X-297948Y167678D03*
X-318800Y103200D03*
X-373000Y139614D03*
X-376500D03*
X-313700Y103000D03*
X-315000D03*
X-314000Y104300D03*
X-312600Y103100D03*
X-316100Y103000D03*
X-312900Y104300D03*
X-316200D03*
X-315200D03*
X-319900Y104400D03*
Y103200D03*
X-318800Y104400D03*
X-275900Y104900D03*
X-284114Y120500D03*
Y117000D03*
X-290130Y156390D03*
X-291400Y164200D03*
X-290200D03*
X-279169Y142266D03*
X-283436Y143259D03*
X-298500Y147114D03*
X-285791Y141861D03*
X-295600Y81900D03*
X-294200Y81800D03*
X-298614Y212500D03*
X-295927Y215285D03*
X-369500Y139614D03*
X-380000D03*
X-297500Y363000D03*
X-283300Y339400D03*
X-230521Y5043D03*
X-181600Y-300D03*
X-181400Y900D03*
X-208205Y2550D03*
X-202300Y2500D03*
X-274600Y181600D03*
X-72614Y183500D03*
X-247100Y192500D03*
X-270300Y181300D03*
X-99700Y255100D03*
X-98700D03*
X-118900Y199100D03*
X-118600Y196900D03*
X-234000Y190386D03*
X-153200Y297200D03*
X-235800Y192600D03*
X-75200Y226900D03*
X-97671Y311084D03*
X-73562Y238000D03*
X-103500Y220600D03*
X-104600D03*
X-109600Y242000D03*
X-99100Y244900D03*
X-121440Y306338D03*
X-265894Y239553D03*
X-224994Y244553D03*
Y243453D03*
X-223994Y243353D03*
X-229394Y241953D03*
X-231394Y242953D03*
X-255994Y244453D03*
X-238894Y241653D03*
X-229394Y242953D03*
X-230394D03*
X-223968Y242331D03*
X-257994Y243453D03*
Y244453D03*
X-255994Y243453D03*
Y242453D03*
X-256994D03*
Y243453D03*
Y244453D03*
X-252800Y244400D03*
X-230394Y241953D03*
X-118400Y242900D03*
X-169480Y216240D03*
Y213040D03*
X-167810Y215090D03*
X-170270Y214770D03*
X-168440Y216260D03*
Y213060D03*
X-167400Y216290D03*
Y213090D03*
X-166086Y213100D03*
Y216300D03*
X-166186Y226000D03*
X-169480Y222740D03*
X-169580Y225940D03*
X-166086Y222800D03*
X-166186Y219500D03*
X-167500Y219490D03*
X-168440Y222760D03*
X-167400Y222790D03*
X-168540Y219460D03*
X-170410Y221220D03*
X-167910Y221550D03*
X-168540Y225960D03*
X-204694Y213439D03*
X-209194D03*
X-167500Y225990D03*
X-170380Y211820D03*
X-169480Y210240D03*
X-166086Y210300D03*
X-167400Y210290D03*
X-168440Y210260D03*
X-169580Y219440D03*
X-170080Y218240D03*
X-167860Y218300D03*
X-200194Y213439D03*
X-195694D03*
X-200194Y229667D03*
X-204694D03*
X-209194D03*
X-195694D03*
X-217598Y218053D03*
X-217442Y222489D03*
X-217749Y227121D03*
X-219430Y217999D03*
X-221660Y218092D03*
X-227548Y213866D03*
X-229506Y213873D03*
X-225587Y222468D03*
X-221699Y213835D03*
X-229427Y209244D03*
X-227524Y209267D03*
X-223602Y222499D03*
X-225590Y209244D03*
X-223626Y209275D03*
X-221644Y209290D03*
X-227506Y222441D03*
X-225513Y218092D03*
X-225490Y213820D03*
X-223634Y213804D03*
X-219564Y222473D03*
X-219294Y208053D03*
X-227380Y231220D03*
X-227544Y227121D03*
X-223603Y231154D03*
X-229494Y235653D03*
X-219660Y231127D03*
X-221649Y231158D03*
X-225594Y235553D03*
X-225552Y227121D03*
X-224001D03*
X-229498Y218170D03*
X-227510Y218069D03*
X-223586Y218108D03*
X-220501Y227225D03*
X-227494Y235653D03*
X-229570Y231185D03*
X-221860Y227221D03*
X-221656Y222504D03*
X-229545Y222527D03*
X-219394Y212753D03*
X-225571Y231142D03*
X-229694Y227153D03*
X-247602Y224418D03*
X-247556Y231054D03*
X-247589Y233220D03*
X-247602Y228856D03*
X-247494Y217753D03*
X-247602Y215630D03*
X-247622Y213438D03*
X-247602Y209041D03*
X-247601Y206821D03*
X-247570Y226636D03*
X-247596Y211240D03*
X-167230Y200460D03*
Y197510D03*
X-167250Y194510D03*
Y191510D03*
X-167230Y188510D03*
X-168340Y194510D03*
X-167260Y203480D03*
X-169310Y191550D03*
X-168320Y200510D03*
X-168370Y203510D03*
X-168290Y191530D03*
X-169410Y194530D03*
X-169350Y188450D03*
X-169460Y203510D03*
X-168320Y188500D03*
X-165886Y203500D03*
Y200500D03*
Y197500D03*
Y194500D03*
Y191500D03*
Y188500D03*
X-227123Y202217D03*
X-223323Y202117D03*
X-219494Y202039D03*
X-168370Y197480D03*
X-169430D03*
X-169370Y200510D03*
X-238794Y203653D03*
X-238523Y202217D03*
X-234723D03*
X-216094Y202153D03*
X-230923Y202217D03*
X-124500Y310614D03*
X-115500D03*
X-131412Y309290D03*
X-254800Y195700D03*
X-255900Y199600D03*
X-261367Y189284D03*
X-267300Y192300D03*
X-254000Y192000D03*
X-265800Y194700D03*
X-254300Y194100D03*
X-265300Y186300D03*
X-256100Y185000D03*
X-265100Y184000D03*
X-256100Y183500D03*
X-234800Y180300D03*
X-198338Y142433D03*
X-64900Y150700D03*
X-86000Y166886D03*
X-76000Y165114D03*
X-73000Y161886D03*
X-159350Y175550D03*
X-83000Y160114D03*
X-76000D03*
X-47500Y176900D03*
Y175500D03*
X-50200Y152200D03*
X-83000Y166886D03*
X-80386Y163500D03*
X-73114Y180000D03*
X-151300Y169300D03*
X-78600Y160000D03*
X-198374Y140511D03*
X-201038Y135128D03*
X-204119Y136706D03*
X-261300Y79900D03*
X-266800Y77300D03*
X-250407Y61780D03*
X-252713Y61935D03*
X-256236Y98764D03*
X-259400Y95900D03*
X-274000Y129386D03*
X-255100Y164100D03*
X-256300D03*
X-251900D03*
X-251118Y101323D03*
X-273300Y152000D03*
X-274500Y152500D03*
X-271000Y142101D03*
X-267386Y140941D03*
X-45600Y144300D03*
X-247105Y69366D03*
X-51600Y139000D03*
X-76400Y105500D03*
X-61700Y140100D03*
X-73700Y141000D03*
X-53386Y139000D03*
X-54100Y115400D03*
X-86535Y144000D03*
X-51600Y142500D03*
X-60800Y138000D03*
X-189114Y104000D03*
X-189016Y99543D03*
X-74500Y107614D03*
X-204083Y141708D03*
X-192047Y71815D03*
X-195984Y61185D03*
X-197953D03*
X-194016Y71815D03*
X-72167Y141700D03*
X-78900Y144500D03*
X-157700Y62786D03*
X-191700Y62600D03*
X-238323Y103882D03*
X-244000Y49500D03*
Y51000D03*
X-152400Y78600D03*
X-245700Y96200D03*
X-238323Y96205D03*
X-248559Y98764D03*
X-248700Y96200D03*
X-204300Y82300D03*
X-203400Y83900D03*
X-243900Y59300D03*
Y60400D03*
X-215800Y98500D03*
X-132617Y66081D03*
X-143335Y61118D03*
X-240882Y96205D03*
X-243441D03*
X-168100Y57400D03*
X-169100D03*
Y56400D03*
X-168100D03*
X-39600Y134600D03*
Y135900D03*
X-202500Y136555D03*
X-200000D03*
X-201000Y130640D03*
X-226300Y142700D03*
X-238500Y126000D03*
X-206600Y134600D03*
X-214100Y132500D03*
X-217600Y108700D03*
X-214500Y114114D03*
X-208000Y154100D03*
X-214600Y154200D03*
X-195500Y157000D03*
X-224900Y141200D03*
X-229800Y141300D03*
X-223900Y141200D03*
X-220400Y142700D03*
X-222400Y142800D03*
X-218600Y142700D03*
X-216500D03*
X-200000Y142445D03*
X-202500D03*
X-200000Y140555D03*
X-202500D03*
X-208280Y147516D03*
Y145547D03*
X-177500Y131035D03*
X-246000Y114118D03*
X-248300Y127600D03*
X-230800Y164400D03*
X-229700Y164500D03*
X-212600Y142700D03*
X-210600D03*
X-228400D03*
X-222200Y105200D03*
X-177500Y127965D03*
X-177360Y125810D03*
X-243441Y109000D03*
X-240882Y111559D03*
X-239500Y126000D03*
X-243000D03*
X-241907D03*
X-240500D03*
X-244000D03*
X-242300Y100100D03*
X-248559Y103882D03*
X-156700Y20900D03*
X-155700D03*
X-154200Y40500D03*
X-152100D03*
X-153200D03*
X-155200D03*
X-264000Y33000D03*
X-154700Y20900D03*
X-157700D03*
X-242694Y199653D03*
X-241294Y196253D03*
X-181984Y78500D03*
X-174614Y82500D03*
X-172386D03*
X-172400Y84300D03*
X-174600D03*
X-155300Y96700D03*
X-204800Y75100D03*
Y73500D03*
X-188016Y78500D03*
X-226390Y141217D03*
X-228358D03*
X-210642D03*
X-212610D03*
X-220484D03*
X-261500Y192500D03*
X-263500D03*
X-262114Y185400D03*
Y182600D03*
X-207500Y167035D03*
X-211500D03*
X-215500D03*
X-223000D03*
X-240035Y142500D03*
Y151000D03*
X-219500Y167035D03*
X-235000D03*
X-240035Y147000D03*
X-154100Y95700D03*
X-222453Y141217D03*
X-204000Y167035D03*
X-216547Y141217D03*
X-218516D03*
X-240035Y155000D03*
X-239000Y167035D03*
X-147817Y359423D03*
X-112563Y343000D03*
X-177114Y342000D03*
X-176000D03*
X-120437Y331563D03*
X-175400Y359900D03*
X-175500Y361000D03*
X-149886Y350500D03*
X-147800Y358400D03*
X-98400Y325800D03*
X-154700Y360100D03*
X-177814Y363487D03*
X-154594Y335457D03*
X-155400Y336700D03*
X-83400Y358000D03*
X-85000Y359000D03*
X-109100Y329000D03*
X-110200Y328000D03*
X-138100Y319700D03*
X-180114Y367000D03*
X-98610Y363346D03*
X-122406Y329594D03*
X-122400Y328000D03*
X-120437Y341406D03*
X-122406D03*
X-109100Y341400D03*
X-109110Y327950D03*
X-228200Y341700D03*
X-192900Y361600D03*
X-254600Y367300D03*
X-206300Y342200D03*
X-207400D03*
X-229600Y341700D03*
X-196420Y356010D03*
X-248800Y342600D03*
X-138100Y318500D03*
X-211500Y344200D03*
X-183600Y347200D03*
X682000Y102500D03*
G54D11*
G01X-79200Y-264100D02*
X-353200D01*
G03X-358200Y-269100I0J-5000D01*
G01Y-338100D01*
G03X-353200Y-343100I4375J-625D01*
G01X16300D01*
G01X27800Y-261100D02*
X-353200D01*
G03X-361200Y-269100I-1000J-7000D01*
G01Y-341100D01*
G03X-354200Y-346100I6667J1934D01*
G01X14300D01*
G01X-70200Y-306100D02*
X-20200D01*
G01X-70200Y-264100D02*
Y-322100D01*
G01X-140200Y-288100D02*
X-20200D01*
G01X-140200Y-322100D02*
X-20200D01*
G01X-140200Y-264100D02*
Y-343100D01*
G01X-20200Y-264100D02*
Y-343100D01*
G01X15300D02*
X28000D01*
G03X32800Y-339100I32J4842D01*
G01Y-269100D01*
G03X27800Y-264100I-6500J-1500D01*
G01X15300D01*
G01X13800Y-346100D02*
X28000D01*
G03X35800Y-339100I339J7468D01*
G01Y-270100D01*
G03X27800Y-261100I-8500J500D01*
G01X15800Y-264100D02*
X-79200D01*
G54D12*
G01X-335700Y-288900D02*
Y-278900D01*
X-331700D01*
X-330100Y-279400D01*
X-328900Y-280067D01*
X-327900Y-281067D01*
X-327100Y-282234D01*
X-326900Y-283900D01*
X-327100Y-285567D01*
X-327900Y-286733D01*
X-328900Y-287734D01*
X-330100Y-288400D01*
X-331700Y-288900D01*
X-335700D01*
G01X-322200Y-284400D02*
X-315800D01*
X-316400Y-283233D01*
X-317400Y-282567D01*
X-318800Y-282234D01*
X-320200Y-282400D01*
X-321400Y-282900D01*
X-322200Y-284067D01*
X-322600Y-285067D01*
Y-286067D01*
X-322200Y-287067D01*
X-321200Y-288067D01*
X-320000Y-288733D01*
X-318600Y-288900D01*
X-317200Y-288567D01*
X-315800Y-287567D01*
G01X-310100Y-287734D02*
X-309100Y-288400D01*
X-307700Y-288900D01*
X-306500D01*
X-305300Y-288567D01*
X-304500Y-288067D01*
X-304100Y-287400D01*
X-304300Y-286400D01*
X-305100Y-285900D01*
X-308700Y-284900D01*
X-309500Y-283733D01*
X-309100Y-282900D01*
X-308300Y-282400D01*
X-307100Y-282234D01*
X-305900Y-282400D01*
X-304700Y-282900D01*
G01X-295000Y-282234D02*
Y-288900D01*
G01Y-279567D02*
X-295400Y-279400D01*
Y-279067D01*
X-295000Y-278900D01*
X-294600Y-279067D01*
Y-279400D01*
X-295000Y-279567D01*
G01X-285700Y-291400D02*
X-284300Y-292067D01*
X-282700Y-292233D01*
X-281300Y-292067D01*
X-280100Y-291233D01*
X-279300Y-290067D01*
Y-282234D01*
G01Y-283567D02*
X-280100Y-282900D01*
X-281300Y-282400D01*
X-282700Y-282234D01*
X-284300Y-282567D01*
X-285300Y-283233D01*
X-286100Y-284400D01*
X-286500Y-285567D01*
X-286300Y-286567D01*
X-285500Y-287734D01*
X-284300Y-288567D01*
X-282700Y-288900D01*
X-281500Y-288733D01*
X-280100Y-288067D01*
X-279300Y-287400D01*
G01X-274200Y-288900D02*
Y-282234D01*
G01Y-283900D02*
X-273400Y-283067D01*
X-272200Y-282400D01*
X-270600Y-282234D01*
X-269200Y-282400D01*
X-268000Y-283067D01*
X-267400Y-284233D01*
Y-288900D01*
G01X-250800Y-287567D02*
X-249200Y-288400D01*
X-247400Y-288900D01*
X-245800D01*
X-244200Y-288400D01*
X-243000Y-287567D01*
X-242400Y-286400D01*
X-242800Y-285234D01*
X-243800Y-284233D01*
X-245600Y-283567D01*
X-248000Y-283233D01*
X-249400Y-282567D01*
X-250000Y-281400D01*
X-249600Y-280233D01*
X-248600Y-279400D01*
X-247200Y-278900D01*
X-245800D01*
X-244400Y-279233D01*
X-243200Y-280067D01*
G01X-238700Y-288900D02*
Y-278900D01*
G01X-230300D02*
Y-288900D01*
G01Y-283900D02*
X-238700D01*
G01X-224800Y-278900D02*
X-220000D01*
G01X-222400D02*
Y-288900D01*
G01X-224800D02*
X-220000D01*
G01X-214100D02*
Y-278900D01*
X-206500D01*
G01X-209300Y-283733D02*
X-214100D01*
G01X-198200Y-278900D02*
Y-288900D01*
G01X-202800Y-278900D02*
X-193600D01*
G54D13*
G01X-12200Y-316200D02*
Y-296200D01*
X-14600Y-300200D01*
G01Y-316200D02*
X-9800D01*
G01X-4000Y-307867D02*
X-2600Y-305533D01*
X-1400Y-304200D01*
X200Y-303534D01*
X1600Y-304200D01*
X2600Y-305533D01*
X3400Y-307533D01*
X3600Y-309867D01*
X3400Y-311867D01*
X2600Y-313867D01*
X1400Y-315533D01*
X0Y-316200D01*
X-1600Y-315533D01*
X-3000Y-313534D01*
X-3800Y-310533D01*
X-4000Y-307200D01*
X-3600Y-302867D01*
X-3000Y-300533D01*
X-2000Y-298200D01*
X-600Y-296533D01*
X800Y-296200D01*
X2200Y-296867D01*
X3200Y-298533D01*
G01X11800Y-316867D02*
X11400Y-316533D01*
Y-315867D01*
X11800Y-315533D01*
X12200Y-315867D01*
Y-316533D01*
X11800Y-316867D01*
G01X19400Y-313201D02*
X20600Y-314867D01*
X22000Y-315867D01*
X23800Y-316200D01*
X25600Y-315533D01*
X27000Y-314200D01*
X28000Y-311867D01*
X28200Y-309200D01*
X27800Y-306534D01*
X26800Y-304867D01*
X25400Y-303534D01*
X24000Y-303200D01*
X22600Y-303534D01*
X20800Y-304867D01*
X21400Y-296200D01*
X26800D01*
G01X804400Y92500D02*
Y112500D01*
X797000Y98167D01*
X807000D01*
G01X814000Y91833D02*
X813600Y92167D01*
Y92833D01*
X814000Y93167D01*
X814400Y92833D01*
Y92167D01*
X814000Y91833D01*
G01X826000Y112500D02*
X824400Y111833D01*
X823200Y110167D01*
X822400Y108167D01*
X821800Y105500D01*
X821600Y102500D01*
X821800Y99500D01*
X822400Y96833D01*
X823200Y94833D01*
X824400Y93167D01*
X826000Y92500D01*
X827600Y93167D01*
X828800Y94833D01*
X829600Y96833D01*
X830200Y99500D01*
X830400Y102500D01*
X830200Y105500D01*
X829600Y108167D01*
X828800Y110167D01*
X827600Y111833D01*
X826000Y112500D01*
G01X791800Y127666D02*
X793400Y126000D01*
X795200Y125000D01*
X796800D01*
X798400Y126000D01*
X799600Y127666D01*
X800200Y130000D01*
X799800Y132333D01*
X798800Y134333D01*
X797000Y135667D01*
X794600Y136333D01*
X793200Y137666D01*
X792600Y140000D01*
X793000Y142333D01*
X794000Y144000D01*
X795400Y145000D01*
X796800D01*
X798200Y144333D01*
X799400Y142667D01*
G01X805600Y145000D02*
X810400D01*
G01X808000D02*
Y125000D01*
G01X805600D02*
X810400D01*
G01X816200Y145000D02*
X823800D01*
X816200Y125000D01*
X823800D01*
G01X836000D02*
X828000D01*
Y145000D01*
X836000D01*
G01X832800Y135334D02*
X828000D01*
G01X648200Y125000D02*
Y145000D01*
X655800D01*
G01X653000Y135334D02*
X648200D01*
G01X661600Y145000D02*
X666400D01*
G01X664000D02*
Y125000D01*
G01X661600D02*
X666400D01*
G01X677200Y135000D02*
X681200D01*
Y129000D01*
X680000Y127000D01*
X678600Y125667D01*
X676600Y125000D01*
X674600Y125667D01*
X673200Y127000D01*
X672000Y129000D01*
X671200Y131333D01*
X670800Y134000D01*
Y136333D01*
X671200Y138333D01*
X672000Y140667D01*
X673200Y142667D01*
X674400Y144000D01*
X676000Y145000D01*
X677400D01*
X679000Y144333D01*
X680200Y143000D01*
G01X683600Y145000D02*
Y130667D01*
X684400Y127666D01*
X686000Y125667D01*
X688000Y125000D01*
X690000Y125667D01*
X691600Y127666D01*
X692400Y130667D01*
Y145000D01*
G01X696000Y125000D02*
Y145000D01*
X701000D01*
X702600Y144000D01*
X703600Y142667D01*
X704000Y140000D01*
X703600Y137333D01*
X702400Y135667D01*
X701000Y134666D01*
X696000D01*
G01X701000D02*
X704000Y125000D01*
G01X716000D02*
X708000D01*
Y145000D01*
X716000D01*
G01X712800Y135334D02*
X708000D01*
G01X743000Y160000D02*
X748000Y180000D01*
X753000Y160000D01*
G01X751200Y167000D02*
X744800D01*
G01X756000Y180000D02*
Y160000D01*
X764000D01*
G01X768000Y180000D02*
Y160000D01*
X776000D01*
G01X791600Y180000D02*
Y165667D01*
X792400Y162666D01*
X794000Y160667D01*
X796000Y160000D01*
X798000Y160667D01*
X799600Y162666D01*
X800400Y165667D01*
Y180000D01*
G01X803400Y160000D02*
Y180000D01*
X812600Y160000D01*
Y180000D01*
G01X817600D02*
X822400D01*
G01X820000D02*
Y160000D01*
G01X817600D02*
X822400D01*
G01X832000Y180000D02*
Y160000D01*
G01X827400Y180000D02*
X836600D01*
G01X839800Y162666D02*
X841400Y161000D01*
X843200Y160000D01*
X844800D01*
X846400Y161000D01*
X847600Y162666D01*
X848200Y165000D01*
X847800Y167333D01*
X846800Y169333D01*
X845000Y170667D01*
X842600Y171333D01*
X841200Y172666D01*
X840600Y175000D01*
X841000Y177333D01*
X842000Y179000D01*
X843400Y180000D01*
X844800D01*
X846200Y179333D01*
X847400Y177667D01*
G01X863000Y160000D02*
X868000Y180000D01*
X873000Y160000D01*
G01X871200Y167000D02*
X864800D01*
G01X876000Y160000D02*
Y180000D01*
X881000D01*
X882600Y179000D01*
X883600Y177667D01*
X884000Y175000D01*
X883600Y172333D01*
X882400Y170667D01*
X881000Y169666D01*
X876000D01*
G01X881000D02*
X884000Y160000D01*
G01X896000D02*
X888000D01*
Y180000D01*
X896000D01*
G01X892800Y170334D02*
X888000D01*
G01X913600Y180000D02*
X918400D01*
G01X916000D02*
Y160000D01*
G01X913600D02*
X918400D01*
G01X923400D02*
Y180000D01*
X932600Y160000D01*
Y180000D01*
G01X946800Y160000D02*
Y180000D01*
X952000Y163333D01*
X957200Y180000D01*
Y160000D01*
G01X961600Y180000D02*
X966400D01*
G01X964000D02*
Y160000D01*
G01X961600D02*
X966400D01*
G01X972000Y180000D02*
Y160000D01*
X980000D01*
G01X983800Y162666D02*
X985400Y161000D01*
X987200Y160000D01*
X988800D01*
X990400Y161000D01*
X991600Y162666D01*
X992200Y165000D01*
X991800Y167333D01*
X990800Y169333D01*
X989000Y170667D01*
X986600Y171333D01*
X985200Y172666D01*
X984600Y175000D01*
X985000Y177333D01*
X986000Y179000D01*
X987400Y180000D01*
X988800D01*
X990200Y179333D01*
X991400Y177667D01*
G01X725600Y185000D02*
Y205000D01*
X729600D01*
X731200Y204000D01*
X732400Y202667D01*
X733400Y200667D01*
X734200Y198333D01*
X734400Y195000D01*
X734200Y191666D01*
X733400Y189333D01*
X732400Y187333D01*
X731200Y186000D01*
X729600Y185000D01*
X725600D01*
G01X738000D02*
Y205000D01*
X743000D01*
X744600Y204000D01*
X745600Y202667D01*
X746000Y200000D01*
X745600Y197333D01*
X744400Y195667D01*
X743000Y194666D01*
X738000D01*
G01X743000D02*
X746000Y185000D01*
G01X751600Y205000D02*
X756400D01*
G01X754000D02*
Y185000D01*
G01X751600D02*
X756400D01*
G01X762000Y205000D02*
Y185000D01*
X770000D01*
G01X774000Y205000D02*
Y185000D01*
X782000D01*
G01X806400Y203333D02*
X805200Y204333D01*
X803800Y205000D01*
X802200D01*
X800400Y204000D01*
X799000Y202333D01*
X798000Y200333D01*
X797200Y197000D01*
X797000Y194000D01*
X797400Y191000D01*
X798000Y189000D01*
X799200Y187000D01*
X800600Y185667D01*
X802000Y185000D01*
X803400D01*
X804800Y185667D01*
X806000Y186666D01*
X807000Y187999D01*
G01X809800Y185000D02*
Y205000D01*
G01X818200D02*
Y185000D01*
G01Y195000D02*
X809800D01*
G01X821000Y185000D02*
X826000Y205000D01*
X831000Y185000D01*
G01X829200Y192000D02*
X822800D01*
G01X834000Y185000D02*
Y205000D01*
X839000D01*
X840600Y204000D01*
X841600Y202667D01*
X842000Y200000D01*
X841600Y197333D01*
X840400Y195667D01*
X839000Y194666D01*
X834000D01*
G01X839000D02*
X842000Y185000D01*
G01X850000Y205000D02*
Y185000D01*
G01X845400Y205000D02*
X854600D01*
G01X862000Y184333D02*
X861600Y184667D01*
Y185333D01*
X862000Y185667D01*
X862400Y185333D01*
Y184667D01*
X862000Y184333D01*
G01Y193333D02*
X861600Y193667D01*
Y194333D01*
X862000Y194666D01*
X862400Y194333D01*
Y193667D01*
X862000Y193333D01*
G01X887200Y195000D02*
X891200D01*
Y189000D01*
X890000Y187000D01*
X888600Y185667D01*
X886600Y185000D01*
X884600Y185667D01*
X883200Y187000D01*
X882000Y189000D01*
X881200Y191333D01*
X880800Y194000D01*
Y196333D01*
X881200Y198333D01*
X882000Y200667D01*
X883200Y202667D01*
X884400Y204000D01*
X886000Y205000D01*
X887400D01*
X889000Y204333D01*
X890200Y203000D01*
G01X893400Y185000D02*
Y205000D01*
X902600Y185000D01*
Y205000D01*
G01X905600Y185000D02*
Y205000D01*
X909600D01*
X911200Y204000D01*
X912400Y202667D01*
X913400Y200667D01*
X914200Y198333D01*
X914400Y195000D01*
X914200Y191666D01*
X913400Y189333D01*
X912400Y187333D01*
X911200Y186000D01*
X909600Y185000D01*
X905600D01*
G01X922000D02*
Y205000D01*
X919600Y201000D01*
G01Y185000D02*
X924400D01*
G01X946000Y205000D02*
Y185000D01*
G01X943200Y198333D02*
X948800D01*
G01X958000Y185000D02*
X956800Y185333D01*
X955600Y186666D01*
X954800Y189000D01*
X954400Y191666D01*
X954800Y194333D01*
X955600Y196667D01*
X956800Y198000D01*
X958000Y198333D01*
X959200Y198000D01*
X960400Y196667D01*
X961200Y194333D01*
X961400Y191666D01*
X961200Y189000D01*
X960400Y186666D01*
X959200Y185333D01*
X958000Y185000D01*
G01X979600Y205000D02*
X984400D01*
G01X982000D02*
Y185000D01*
G01X979600D02*
X984400D01*
G01X989400D02*
Y205000D01*
X998600Y185000D01*
Y205000D01*
G01X1002200Y201667D02*
X1003400Y203666D01*
X1004800Y204667D01*
X1006400Y205000D01*
X1008400Y204333D01*
X1009800Y202667D01*
X1010200Y200667D01*
X1010000Y198666D01*
X1009200Y197000D01*
X1005200Y193667D01*
X1003400Y191333D01*
X1002200Y187999D01*
X1001800Y185000D01*
X1010200D01*
G01X1050400Y92500D02*
Y112500D01*
X1043000Y98167D01*
X1053000D01*
G01X1060000Y92500D02*
X1061400Y92833D01*
X1063000Y93833D01*
X1064000Y95499D01*
X1064400Y97833D01*
X1064000Y100166D01*
X1062800Y102166D01*
X1061000Y103167D01*
X1059000D01*
X1057800Y103833D01*
X1056800Y105500D01*
X1056400Y107833D01*
X1057000Y110167D01*
X1058400Y111833D01*
X1060000Y112500D01*
X1061600Y111833D01*
X1063000Y110167D01*
X1063600Y107833D01*
X1063200Y105500D01*
X1062200Y103833D01*
X1061000Y103167D01*
X1059000D01*
X1057200Y102166D01*
X1056000Y100166D01*
X1055600Y97833D01*
X1056000Y95499D01*
X1057000Y93833D01*
X1058600Y92833D01*
X1060000Y92500D01*
G01X1072000D02*
Y112500D01*
X1069600Y108500D01*
G01Y92500D02*
X1074400D01*
G01X930000D02*
Y112500D01*
X934800D01*
X936400Y111500D01*
X937600Y109167D01*
X938000Y106500D01*
X937600Y103833D01*
X936600Y101833D01*
X934800Y100833D01*
X930000D01*
G01X942000Y112500D02*
Y92500D01*
X950000D01*
G01X953000D02*
X958000Y112500D01*
X963000Y92500D01*
G01X961200Y99500D02*
X954800D01*
G01X970000Y112500D02*
Y92500D01*
G01X965400Y112500D02*
X974600D01*
G01X986000Y92500D02*
X978000D01*
Y112500D01*
X986000D01*
G01X982800Y102834D02*
X978000D01*
G01X989600Y92500D02*
Y112500D01*
X993600D01*
X995200Y111500D01*
X996400Y110167D01*
X997400Y108167D01*
X998200Y105833D01*
X998400Y102500D01*
X998200Y99166D01*
X997400Y96833D01*
X996400Y94833D01*
X995200Y93500D01*
X993600Y92500D01*
X989600D01*
G01X1048000Y125000D02*
X1046400Y125333D01*
X1045000Y126666D01*
X1043800Y128666D01*
X1043000Y131000D01*
X1042600Y133667D01*
Y136333D01*
X1043000Y139000D01*
X1043800Y141334D01*
X1045000Y143333D01*
X1046400Y144667D01*
X1048000Y145000D01*
X1049600Y144667D01*
X1051000Y143333D01*
X1052200Y141334D01*
X1053000Y139000D01*
X1053400Y136333D01*
Y133667D01*
X1053000Y131000D01*
X1052200Y128666D01*
X1051000Y126666D01*
X1049600Y125333D01*
X1048000Y125000D01*
G01X1049600Y130333D02*
X1052000Y125000D01*
G01X1060000Y145000D02*
Y125000D01*
G01X1055400Y145000D02*
X1064600D01*
G01X1072000Y125000D02*
Y134000D01*
X1068000Y145000D01*
G01X1076000D02*
X1072000Y134000D01*
G01X930000Y125000D02*
Y145000D01*
X934800D01*
X936400Y144000D01*
X937600Y141667D01*
X938000Y139000D01*
X937600Y136333D01*
X936600Y134333D01*
X934800Y133333D01*
X930000D01*
G01X942000Y145000D02*
Y125000D01*
X950000D01*
G01X953000D02*
X958000Y145000D01*
X963000Y125000D01*
G01X961200Y132000D02*
X954800D01*
G01X970000Y145000D02*
Y125000D01*
G01X965400Y145000D02*
X974600D01*
G01X986000Y125000D02*
X978000D01*
Y145000D01*
X986000D01*
G01X982800Y135334D02*
X978000D01*
G01X989600Y125000D02*
Y145000D01*
X993600D01*
X995200Y144000D01*
X996400Y142667D01*
X997400Y140667D01*
X998200Y138333D01*
X998400Y135000D01*
X998200Y131666D01*
X997400Y129333D01*
X996400Y127333D01*
X995200Y126000D01*
X993600Y125000D01*
X989600D01*
G54D14*
G01X-335933Y-307400D02*
X-334813Y-312400D01*
X-333600Y-307400D01*
X-332387Y-312400D01*
X-331267Y-307400D01*
G01X-328433D02*
X-327313Y-312400D01*
X-326100Y-307400D01*
X-324887Y-312400D01*
X-323767Y-307400D01*
G01X-320933D02*
X-319813Y-312400D01*
X-318600Y-307400D01*
X-317387Y-312400D01*
X-316267Y-307400D01*
G01X-311100Y-312650D02*
X-311287Y-312525D01*
Y-312275D01*
X-311100Y-312150D01*
X-310913Y-312275D01*
Y-312525D01*
X-311100Y-312650D01*
G01X-301920Y-304900D02*
Y-312400D01*
G01Y-311275D02*
X-302293Y-311900D01*
X-302853Y-312275D01*
X-303507Y-312400D01*
X-304253Y-312150D01*
X-304813Y-311525D01*
X-305187Y-310775D01*
X-305280Y-309900D01*
X-305187Y-309025D01*
X-304813Y-308275D01*
X-304253Y-307650D01*
X-303507Y-307400D01*
X-302853Y-307525D01*
X-302387Y-307775D01*
X-301920Y-308275D01*
G01X-297500Y-309025D02*
X-294513D01*
X-294793Y-308150D01*
X-295260Y-307650D01*
X-295913Y-307400D01*
X-296567Y-307525D01*
X-297127Y-307900D01*
X-297500Y-308775D01*
X-297687Y-309525D01*
Y-310275D01*
X-297500Y-311025D01*
X-297033Y-311775D01*
X-296473Y-312275D01*
X-295820Y-312400D01*
X-295167Y-312150D01*
X-294513Y-311400D01*
G01X-290000Y-311525D02*
X-289533Y-312025D01*
X-288880Y-312400D01*
X-288320D01*
X-287760Y-312150D01*
X-287387Y-311775D01*
X-287200Y-311275D01*
X-287293Y-310525D01*
X-287667Y-310150D01*
X-289347Y-309400D01*
X-289720Y-308525D01*
X-289533Y-307900D01*
X-289160Y-307525D01*
X-288600Y-307400D01*
X-288040Y-307525D01*
X-287480Y-307900D01*
G01X-281100Y-307400D02*
Y-312400D01*
G01Y-305400D02*
X-281287Y-305275D01*
Y-305025D01*
X-281100Y-304900D01*
X-280913Y-305025D01*
Y-305275D01*
X-281100Y-305400D01*
G01X-274907Y-314275D02*
X-274253Y-314775D01*
X-273507Y-314900D01*
X-272853Y-314775D01*
X-272293Y-314150D01*
X-271920Y-313275D01*
Y-307400D01*
G01Y-308400D02*
X-272293Y-307900D01*
X-272853Y-307525D01*
X-273507Y-307400D01*
X-274253Y-307650D01*
X-274720Y-308150D01*
X-275093Y-309025D01*
X-275280Y-309900D01*
X-275187Y-310650D01*
X-274813Y-311525D01*
X-274253Y-312150D01*
X-273507Y-312400D01*
X-272947Y-312275D01*
X-272293Y-311775D01*
X-271920Y-311275D01*
G01X-267687Y-312400D02*
Y-307400D01*
G01Y-308650D02*
X-267313Y-308025D01*
X-266753Y-307525D01*
X-266007Y-307400D01*
X-265353Y-307525D01*
X-264793Y-308025D01*
X-264513Y-308900D01*
Y-312400D01*
G01X-259813Y-309900D02*
X-257387D01*
G01X-252500Y-311525D02*
X-252033Y-312025D01*
X-251380Y-312400D01*
X-250820D01*
X-250260Y-312150D01*
X-249887Y-311775D01*
X-249700Y-311275D01*
X-249793Y-310525D01*
X-250167Y-310150D01*
X-251847Y-309400D01*
X-252220Y-308525D01*
X-252033Y-307900D01*
X-251660Y-307525D01*
X-251100Y-307400D01*
X-250540Y-307525D01*
X-249980Y-307900D01*
G01X-245187Y-312400D02*
Y-304900D01*
G01Y-308525D02*
X-244720Y-307900D01*
X-244253Y-307525D01*
X-243507Y-307400D01*
X-242947Y-307525D01*
X-242293Y-308025D01*
X-242013Y-308775D01*
Y-312400D01*
G01X-236100Y-307400D02*
Y-312400D01*
G01Y-305400D02*
X-236287Y-305275D01*
Y-305025D01*
X-236100Y-304900D01*
X-235913Y-305025D01*
Y-305275D01*
X-236100Y-305400D01*
G01X-229160Y-312400D02*
Y-306025D01*
X-228973Y-305400D01*
X-228600Y-305025D01*
X-228040Y-304900D01*
X-227480Y-305150D01*
X-227200Y-305775D01*
G01X-228320Y-307900D02*
X-230187D01*
G01X-221100Y-304900D02*
Y-312400D01*
G01X-222407Y-307400D02*
X-219793D01*
G01X-213600Y-312650D02*
X-213787Y-312525D01*
Y-312275D01*
X-213600Y-312150D01*
X-213413Y-312275D01*
Y-312525D01*
X-213600Y-312650D01*
G01X-204607Y-308025D02*
X-205260Y-307525D01*
X-205820Y-307400D01*
X-206567Y-307650D01*
X-207127Y-308150D01*
X-207500Y-309025D01*
X-207593Y-309900D01*
X-207500Y-310775D01*
X-207127Y-311525D01*
X-206567Y-312150D01*
X-205820Y-312400D01*
X-205167Y-312150D01*
X-204607Y-311650D01*
G01X-198600Y-312400D02*
X-199160Y-312275D01*
X-199720Y-311775D01*
X-200093Y-310900D01*
X-200280Y-309900D01*
X-200093Y-308900D01*
X-199720Y-308025D01*
X-199160Y-307525D01*
X-198600Y-307400D01*
X-198040Y-307525D01*
X-197480Y-308025D01*
X-197107Y-308900D01*
X-197013Y-309900D01*
X-197107Y-310900D01*
X-197480Y-311775D01*
X-198040Y-312275D01*
X-198600Y-312400D01*
G01X-193900D02*
Y-307400D01*
G01Y-308775D02*
X-193620Y-308150D01*
X-193153Y-307650D01*
X-192500Y-307400D01*
X-191847Y-307650D01*
X-191380Y-308150D01*
X-191100Y-308775D01*
Y-312400D01*
G01Y-308775D02*
X-190820Y-308150D01*
X-190353Y-307650D01*
X-189700Y-307400D01*
X-189047Y-307650D01*
X-188580Y-308150D01*
X-188300Y-308900D01*
Y-312400D01*
G01X-336033Y-307400D02*
X-334913Y-312400D01*
X-333700Y-307400D01*
X-332487Y-312400D01*
X-331367Y-307400D01*
G01X-328533D02*
X-327413Y-312400D01*
X-326200Y-307400D01*
X-324987Y-312400D01*
X-323867Y-307400D01*
G01X-321033D02*
X-319913Y-312400D01*
X-318700Y-307400D01*
X-317487Y-312400D01*
X-316367Y-307400D01*
G01X-311200Y-312650D02*
X-311387Y-312525D01*
Y-312275D01*
X-311200Y-312150D01*
X-311013Y-312275D01*
Y-312525D01*
X-311200Y-312650D01*
G01X-302020Y-304900D02*
Y-312400D01*
G01Y-311275D02*
X-302393Y-311900D01*
X-302953Y-312275D01*
X-303607Y-312400D01*
X-304353Y-312150D01*
X-304913Y-311525D01*
X-305287Y-310775D01*
X-305380Y-309900D01*
X-305287Y-309025D01*
X-304913Y-308275D01*
X-304353Y-307650D01*
X-303607Y-307400D01*
X-302953Y-307525D01*
X-302487Y-307775D01*
X-302020Y-308275D01*
G01X-297600Y-309025D02*
X-294613D01*
X-294893Y-308150D01*
X-295360Y-307650D01*
X-296013Y-307400D01*
X-296667Y-307525D01*
X-297227Y-307900D01*
X-297600Y-308775D01*
X-297787Y-309525D01*
Y-310275D01*
X-297600Y-311025D01*
X-297133Y-311775D01*
X-296573Y-312275D01*
X-295920Y-312400D01*
X-295267Y-312150D01*
X-294613Y-311400D01*
G01X-290100Y-311525D02*
X-289633Y-312025D01*
X-288980Y-312400D01*
X-288420D01*
X-287860Y-312150D01*
X-287487Y-311775D01*
X-287300Y-311275D01*
X-287393Y-310525D01*
X-287767Y-310150D01*
X-289447Y-309400D01*
X-289820Y-308525D01*
X-289633Y-307900D01*
X-289260Y-307525D01*
X-288700Y-307400D01*
X-288140Y-307525D01*
X-287580Y-307900D01*
G01X-281200Y-307400D02*
Y-312400D01*
G01Y-305400D02*
X-281387Y-305275D01*
Y-305025D01*
X-281200Y-304900D01*
X-281013Y-305025D01*
Y-305275D01*
X-281200Y-305400D01*
G01X-275007Y-314275D02*
X-274353Y-314775D01*
X-273607Y-314900D01*
X-272953Y-314775D01*
X-272393Y-314150D01*
X-272020Y-313275D01*
Y-307400D01*
G01Y-308400D02*
X-272393Y-307900D01*
X-272953Y-307525D01*
X-273607Y-307400D01*
X-274353Y-307650D01*
X-274820Y-308150D01*
X-275193Y-309025D01*
X-275380Y-309900D01*
X-275287Y-310650D01*
X-274913Y-311525D01*
X-274353Y-312150D01*
X-273607Y-312400D01*
X-273047Y-312275D01*
X-272393Y-311775D01*
X-272020Y-311275D01*
G01X-267787Y-312400D02*
Y-307400D01*
G01Y-308650D02*
X-267413Y-308025D01*
X-266853Y-307525D01*
X-266107Y-307400D01*
X-265453Y-307525D01*
X-264893Y-308025D01*
X-264613Y-308900D01*
Y-312400D01*
G01X-259913Y-309900D02*
X-257487D01*
G01X-252600Y-311525D02*
X-252133Y-312025D01*
X-251480Y-312400D01*
X-250920D01*
X-250360Y-312150D01*
X-249987Y-311775D01*
X-249800Y-311275D01*
X-249893Y-310525D01*
X-250267Y-310150D01*
X-251947Y-309400D01*
X-252320Y-308525D01*
X-252133Y-307900D01*
X-251760Y-307525D01*
X-251200Y-307400D01*
X-250640Y-307525D01*
X-250080Y-307900D01*
G01X-245287Y-312400D02*
Y-304900D01*
G01Y-308525D02*
X-244820Y-307900D01*
X-244353Y-307525D01*
X-243607Y-307400D01*
X-243047Y-307525D01*
X-242393Y-308025D01*
X-242113Y-308775D01*
Y-312400D01*
G01X-236200Y-307400D02*
Y-312400D01*
G01Y-305400D02*
X-236387Y-305275D01*
Y-305025D01*
X-236200Y-304900D01*
X-236013Y-305025D01*
Y-305275D01*
X-236200Y-305400D01*
G01X-229260Y-312400D02*
Y-306025D01*
X-229073Y-305400D01*
X-228700Y-305025D01*
X-228140Y-304900D01*
X-227580Y-305150D01*
X-227300Y-305775D01*
G01X-228420Y-307900D02*
X-230287D01*
G01X-221200Y-304900D02*
Y-312400D01*
G01X-222507Y-307400D02*
X-219893D01*
G01X-213700Y-312650D02*
X-213887Y-312525D01*
Y-312275D01*
X-213700Y-312150D01*
X-213513Y-312275D01*
Y-312525D01*
X-213700Y-312650D01*
G01X-204707Y-308025D02*
X-205360Y-307525D01*
X-205920Y-307400D01*
X-206667Y-307650D01*
X-207227Y-308150D01*
X-207600Y-309025D01*
X-207693Y-309900D01*
X-207600Y-310775D01*
X-207227Y-311525D01*
X-206667Y-312150D01*
X-205920Y-312400D01*
X-205267Y-312150D01*
X-204707Y-311650D01*
G01X-198700Y-312400D02*
X-199260Y-312275D01*
X-199820Y-311775D01*
X-200193Y-310900D01*
X-200380Y-309900D01*
X-200193Y-308900D01*
X-199820Y-308025D01*
X-199260Y-307525D01*
X-198700Y-307400D01*
X-198140Y-307525D01*
X-197580Y-308025D01*
X-197207Y-308900D01*
X-197113Y-309900D01*
X-197207Y-310900D01*
X-197580Y-311775D01*
X-198140Y-312275D01*
X-198700Y-312400D01*
G01X-194000D02*
Y-307400D01*
G01Y-308775D02*
X-193720Y-308150D01*
X-193253Y-307650D01*
X-192600Y-307400D01*
X-191947Y-307650D01*
X-191480Y-308150D01*
X-191200Y-308775D01*
Y-312400D01*
G01Y-308775D02*
X-190920Y-308150D01*
X-190453Y-307650D01*
X-189800Y-307400D01*
X-189147Y-307650D01*
X-188680Y-308150D01*
X-188400Y-308900D01*
Y-312400D01*
G01X-336133Y-307400D02*
X-335013Y-312400D01*
X-333800Y-307400D01*
X-332587Y-312400D01*
X-331467Y-307400D01*
G01X-328633D02*
X-327513Y-312400D01*
X-326300Y-307400D01*
X-325087Y-312400D01*
X-323967Y-307400D01*
G01X-321133D02*
X-320013Y-312400D01*
X-318800Y-307400D01*
X-317587Y-312400D01*
X-316467Y-307400D01*
G01X-311300Y-312650D02*
X-311487Y-312525D01*
Y-312275D01*
X-311300Y-312150D01*
X-311113Y-312275D01*
Y-312525D01*
X-311300Y-312650D01*
G01X-302120Y-304900D02*
Y-312400D01*
G01Y-311275D02*
X-302493Y-311900D01*
X-303053Y-312275D01*
X-303707Y-312400D01*
X-304453Y-312150D01*
X-305013Y-311525D01*
X-305387Y-310775D01*
X-305480Y-309900D01*
X-305387Y-309025D01*
X-305013Y-308275D01*
X-304453Y-307650D01*
X-303707Y-307400D01*
X-303053Y-307525D01*
X-302587Y-307775D01*
X-302120Y-308275D01*
G01X-297700Y-309025D02*
X-294713D01*
X-294993Y-308150D01*
X-295460Y-307650D01*
X-296113Y-307400D01*
X-296767Y-307525D01*
X-297327Y-307900D01*
X-297700Y-308775D01*
X-297887Y-309525D01*
Y-310275D01*
X-297700Y-311025D01*
X-297233Y-311775D01*
X-296673Y-312275D01*
X-296020Y-312400D01*
X-295367Y-312150D01*
X-294713Y-311400D01*
G01X-290200Y-311525D02*
X-289733Y-312025D01*
X-289080Y-312400D01*
X-288520D01*
X-287960Y-312150D01*
X-287587Y-311775D01*
X-287400Y-311275D01*
X-287493Y-310525D01*
X-287867Y-310150D01*
X-289547Y-309400D01*
X-289920Y-308525D01*
X-289733Y-307900D01*
X-289360Y-307525D01*
X-288800Y-307400D01*
X-288240Y-307525D01*
X-287680Y-307900D01*
G01X-281300Y-307400D02*
Y-312400D01*
G01Y-305400D02*
X-281487Y-305275D01*
Y-305025D01*
X-281300Y-304900D01*
X-281113Y-305025D01*
Y-305275D01*
X-281300Y-305400D01*
G01X-275107Y-314275D02*
X-274453Y-314775D01*
X-273707Y-314900D01*
X-273053Y-314775D01*
X-272493Y-314150D01*
X-272120Y-313275D01*
Y-307400D01*
G01Y-308400D02*
X-272493Y-307900D01*
X-273053Y-307525D01*
X-273707Y-307400D01*
X-274453Y-307650D01*
X-274920Y-308150D01*
X-275293Y-309025D01*
X-275480Y-309900D01*
X-275387Y-310650D01*
X-275013Y-311525D01*
X-274453Y-312150D01*
X-273707Y-312400D01*
X-273147Y-312275D01*
X-272493Y-311775D01*
X-272120Y-311275D01*
G01X-267887Y-312400D02*
Y-307400D01*
G01Y-308650D02*
X-267513Y-308025D01*
X-266953Y-307525D01*
X-266207Y-307400D01*
X-265553Y-307525D01*
X-264993Y-308025D01*
X-264713Y-308900D01*
Y-312400D01*
G01X-260013Y-309900D02*
X-257587D01*
G01X-252700Y-311525D02*
X-252233Y-312025D01*
X-251580Y-312400D01*
X-251020D01*
X-250460Y-312150D01*
X-250087Y-311775D01*
X-249900Y-311275D01*
X-249993Y-310525D01*
X-250367Y-310150D01*
X-252047Y-309400D01*
X-252420Y-308525D01*
X-252233Y-307900D01*
X-251860Y-307525D01*
X-251300Y-307400D01*
X-250740Y-307525D01*
X-250180Y-307900D01*
G01X-245387Y-312400D02*
Y-304900D01*
G01Y-308525D02*
X-244920Y-307900D01*
X-244453Y-307525D01*
X-243707Y-307400D01*
X-243147Y-307525D01*
X-242493Y-308025D01*
X-242213Y-308775D01*
Y-312400D01*
G01X-236300Y-307400D02*
Y-312400D01*
G01Y-305400D02*
X-236487Y-305275D01*
Y-305025D01*
X-236300Y-304900D01*
X-236113Y-305025D01*
Y-305275D01*
X-236300Y-305400D01*
G01X-229360Y-312400D02*
Y-306025D01*
X-229173Y-305400D01*
X-228800Y-305025D01*
X-228240Y-304900D01*
X-227680Y-305150D01*
X-227400Y-305775D01*
G01X-228520Y-307900D02*
X-230387D01*
G01X-221300Y-304900D02*
Y-312400D01*
G01X-222607Y-307400D02*
X-219993D01*
G01X-213800Y-312650D02*
X-213987Y-312525D01*
Y-312275D01*
X-213800Y-312150D01*
X-213613Y-312275D01*
Y-312525D01*
X-213800Y-312650D01*
G01X-204807Y-308025D02*
X-205460Y-307525D01*
X-206020Y-307400D01*
X-206767Y-307650D01*
X-207327Y-308150D01*
X-207700Y-309025D01*
X-207793Y-309900D01*
X-207700Y-310775D01*
X-207327Y-311525D01*
X-206767Y-312150D01*
X-206020Y-312400D01*
X-205367Y-312150D01*
X-204807Y-311650D01*
G01X-198800Y-312400D02*
X-199360Y-312275D01*
X-199920Y-311775D01*
X-200293Y-310900D01*
X-200480Y-309900D01*
X-200293Y-308900D01*
X-199920Y-308025D01*
X-199360Y-307525D01*
X-198800Y-307400D01*
X-198240Y-307525D01*
X-197680Y-308025D01*
X-197307Y-308900D01*
X-197213Y-309900D01*
X-197307Y-310900D01*
X-197680Y-311775D01*
X-198240Y-312275D01*
X-198800Y-312400D01*
G01X-194100D02*
Y-307400D01*
G01Y-308775D02*
X-193820Y-308150D01*
X-193353Y-307650D01*
X-192700Y-307400D01*
X-192047Y-307650D01*
X-191580Y-308150D01*
X-191300Y-308775D01*
Y-312400D01*
G01Y-308775D02*
X-191020Y-308150D01*
X-190553Y-307650D01*
X-189900Y-307400D01*
X-189247Y-307650D01*
X-188780Y-308150D01*
X-188500Y-308900D01*
Y-312400D01*
G01X-336233Y-307400D02*
X-335113Y-312400D01*
X-333900Y-307400D01*
X-332687Y-312400D01*
X-331567Y-307400D01*
G01X-328733D02*
X-327613Y-312400D01*
X-326400Y-307400D01*
X-325187Y-312400D01*
X-324067Y-307400D01*
G01X-321233D02*
X-320113Y-312400D01*
X-318900Y-307400D01*
X-317687Y-312400D01*
X-316567Y-307400D01*
G01X-311400Y-312650D02*
X-311587Y-312525D01*
Y-312275D01*
X-311400Y-312150D01*
X-311213Y-312275D01*
Y-312525D01*
X-311400Y-312650D01*
G01X-302220Y-304900D02*
Y-312400D01*
G01Y-311275D02*
X-302593Y-311900D01*
X-303153Y-312275D01*
X-303807Y-312400D01*
X-304553Y-312150D01*
X-305113Y-311525D01*
X-305487Y-310775D01*
X-305580Y-309900D01*
X-305487Y-309025D01*
X-305113Y-308275D01*
X-304553Y-307650D01*
X-303807Y-307400D01*
X-303153Y-307525D01*
X-302687Y-307775D01*
X-302220Y-308275D01*
G01X-297800Y-309025D02*
X-294813D01*
X-295093Y-308150D01*
X-295560Y-307650D01*
X-296213Y-307400D01*
X-296867Y-307525D01*
X-297427Y-307900D01*
X-297800Y-308775D01*
X-297987Y-309525D01*
Y-310275D01*
X-297800Y-311025D01*
X-297333Y-311775D01*
X-296773Y-312275D01*
X-296120Y-312400D01*
X-295467Y-312150D01*
X-294813Y-311400D01*
G01X-290300Y-311525D02*
X-289833Y-312025D01*
X-289180Y-312400D01*
X-288620D01*
X-288060Y-312150D01*
X-287687Y-311775D01*
X-287500Y-311275D01*
X-287593Y-310525D01*
X-287967Y-310150D01*
X-289647Y-309400D01*
X-290020Y-308525D01*
X-289833Y-307900D01*
X-289460Y-307525D01*
X-288900Y-307400D01*
X-288340Y-307525D01*
X-287780Y-307900D01*
G01X-281400Y-307400D02*
Y-312400D01*
G01Y-305400D02*
X-281587Y-305275D01*
Y-305025D01*
X-281400Y-304900D01*
X-281213Y-305025D01*
Y-305275D01*
X-281400Y-305400D01*
G01X-275207Y-314275D02*
X-274553Y-314775D01*
X-273807Y-314900D01*
X-273153Y-314775D01*
X-272593Y-314150D01*
X-272220Y-313275D01*
Y-307400D01*
G01Y-308400D02*
X-272593Y-307900D01*
X-273153Y-307525D01*
X-273807Y-307400D01*
X-274553Y-307650D01*
X-275020Y-308150D01*
X-275393Y-309025D01*
X-275580Y-309900D01*
X-275487Y-310650D01*
X-275113Y-311525D01*
X-274553Y-312150D01*
X-273807Y-312400D01*
X-273247Y-312275D01*
X-272593Y-311775D01*
X-272220Y-311275D01*
G01X-267987Y-312400D02*
Y-307400D01*
G01Y-308650D02*
X-267613Y-308025D01*
X-267053Y-307525D01*
X-266307Y-307400D01*
X-265653Y-307525D01*
X-265093Y-308025D01*
X-264813Y-308900D01*
Y-312400D01*
G01X-260113Y-309900D02*
X-257687D01*
G01X-252800Y-311525D02*
X-252333Y-312025D01*
X-251680Y-312400D01*
X-251120D01*
X-250560Y-312150D01*
X-250187Y-311775D01*
X-250000Y-311275D01*
X-250093Y-310525D01*
X-250467Y-310150D01*
X-252147Y-309400D01*
X-252520Y-308525D01*
X-252333Y-307900D01*
X-251960Y-307525D01*
X-251400Y-307400D01*
X-250840Y-307525D01*
X-250280Y-307900D01*
G01X-245487Y-312400D02*
Y-304900D01*
G01Y-308525D02*
X-245020Y-307900D01*
X-244553Y-307525D01*
X-243807Y-307400D01*
X-243247Y-307525D01*
X-242593Y-308025D01*
X-242313Y-308775D01*
Y-312400D01*
G01X-236400Y-307400D02*
Y-312400D01*
G01Y-305400D02*
X-236587Y-305275D01*
Y-305025D01*
X-236400Y-304900D01*
X-236213Y-305025D01*
Y-305275D01*
X-236400Y-305400D01*
G01X-229460Y-312400D02*
Y-306025D01*
X-229273Y-305400D01*
X-228900Y-305025D01*
X-228340Y-304900D01*
X-227780Y-305150D01*
X-227500Y-305775D01*
G01X-228620Y-307900D02*
X-230487D01*
G01X-221400Y-304900D02*
Y-312400D01*
G01X-222707Y-307400D02*
X-220093D01*
G01X-213900Y-312650D02*
X-214087Y-312525D01*
Y-312275D01*
X-213900Y-312150D01*
X-213713Y-312275D01*
Y-312525D01*
X-213900Y-312650D01*
G01X-204907Y-308025D02*
X-205560Y-307525D01*
X-206120Y-307400D01*
X-206867Y-307650D01*
X-207427Y-308150D01*
X-207800Y-309025D01*
X-207893Y-309900D01*
X-207800Y-310775D01*
X-207427Y-311525D01*
X-206867Y-312150D01*
X-206120Y-312400D01*
X-205467Y-312150D01*
X-204907Y-311650D01*
G01X-198900Y-312400D02*
X-199460Y-312275D01*
X-200020Y-311775D01*
X-200393Y-310900D01*
X-200580Y-309900D01*
X-200393Y-308900D01*
X-200020Y-308025D01*
X-199460Y-307525D01*
X-198900Y-307400D01*
X-198340Y-307525D01*
X-197780Y-308025D01*
X-197407Y-308900D01*
X-197313Y-309900D01*
X-197407Y-310900D01*
X-197780Y-311775D01*
X-198340Y-312275D01*
X-198900Y-312400D01*
G01X-194200D02*
Y-307400D01*
G01Y-308775D02*
X-193920Y-308150D01*
X-193453Y-307650D01*
X-192800Y-307400D01*
X-192147Y-307650D01*
X-191680Y-308150D01*
X-191400Y-308775D01*
Y-312400D01*
G01Y-308775D02*
X-191120Y-308150D01*
X-190653Y-307650D01*
X-190000Y-307400D01*
X-189347Y-307650D01*
X-188880Y-308150D01*
X-188600Y-308900D01*
Y-312400D01*
G01X2414Y107679D02*
G03X-165856Y412946I-199265J89171D01*
G03X-168325Y410939I-308J-2143D01*
G02X-185960Y412556I-8841J555D01*
G03X-188022Y414979I-2150J259D01*
G03X-233931Y411985I-8827J-218128D01*
G03X-235498Y409536I334J-1940D01*
G01X-233035Y400343D01*
X-240641Y398305D01*
X-243299Y408226D01*
G03X-245640Y409636I-1902J-509D01*
G03X-306287Y385746I48791J-212785D01*
G03X-307039Y383119I987J-1704D01*
G01X-302217Y374050D01*
X-309169Y370353D01*
X-313637Y378756D01*
G03X-316454Y379479I-1738J-924D01*
G03X-396108Y107662I119603J-182628D01*
G03X-393274Y106559I1976J885D01*
G02X-385239Y90810I3510J-8133D01*
G03X-386009Y87868I1107J-1861D01*
G03X-364507Y57032I189157J108985D01*
G03X-363899Y55167I2139J-334D01*
G01X-338535Y29802D01*
G03X-336669Y29193I1532J1531D01*
G03X-132711Y-11822I139818J167658D01*
G03X-131388Y-9431I-579J1882D01*
G01X-134064Y556D01*
X-126458Y2594D01*
X-123978Y-6664D01*
G03X-121396Y-8002I1902J509D01*
G03X-112326Y-4430I-75440J204858D01*
G03X-111350Y-1690I-762J1815D01*
G01X-115818Y6713D01*
X-108866Y10410D01*
X-104043Y1341D01*
G03X-101445Y494I1738J924D01*
G03X-57033Y29193I-95406J196356D01*
G03X-55167Y29802I334J2139D01*
G01X-29802Y55167D01*
G03X-29194Y57032I-1531J1531D01*
G03X-7702Y87852I-167657J139818D01*
G03X-8650Y90889I-1876J1081D01*
G02X-601Y106664I3798J8003D01*
G03X2414Y107679I1039J1900D01*
G01X-336473Y-137250D02*
X-335913Y-136500D01*
X-335260Y-136125D01*
X-334513Y-136000D01*
X-333580Y-136250D01*
X-332927Y-136875D01*
X-332740Y-137625D01*
X-332833Y-138375D01*
X-333207Y-139000D01*
X-335073Y-140250D01*
X-335913Y-141125D01*
X-336473Y-142375D01*
X-336660Y-143500D01*
X-332740D01*
G01X-329253Y-142000D02*
X-328693Y-142875D01*
X-327947Y-143375D01*
X-327107Y-143500D01*
X-326360Y-143375D01*
X-325613Y-142750D01*
X-325147Y-142000D01*
X-325053Y-141250D01*
X-325240Y-140375D01*
X-325893Y-139750D01*
X-326547Y-139500D01*
X-327387D01*
G01X-326547D02*
X-325987Y-139125D01*
X-325520Y-138500D01*
X-325333Y-137750D01*
X-325520Y-137000D01*
X-325987Y-136375D01*
X-326827Y-136000D01*
X-327667Y-136125D01*
X-328507Y-136625D01*
G01X-321473Y-140375D02*
X-320820Y-139500D01*
X-320260Y-139000D01*
X-319513Y-138750D01*
X-318860Y-139000D01*
X-318393Y-139500D01*
X-318020Y-140250D01*
X-317927Y-141125D01*
X-318020Y-141875D01*
X-318393Y-142625D01*
X-318953Y-143250D01*
X-319607Y-143500D01*
X-320353Y-143250D01*
X-321007Y-142500D01*
X-321380Y-141375D01*
X-321473Y-140125D01*
X-321287Y-138500D01*
X-321007Y-137625D01*
X-320540Y-136750D01*
X-319887Y-136125D01*
X-319233Y-136000D01*
X-318580Y-136250D01*
X-318113Y-136875D01*
G01X-315000Y-143500D02*
Y-138500D01*
G01Y-139875D02*
X-314720Y-139250D01*
X-314253Y-138750D01*
X-313600Y-138500D01*
X-312947Y-138750D01*
X-312480Y-139250D01*
X-312200Y-139875D01*
Y-143500D01*
G01Y-139875D02*
X-311920Y-139250D01*
X-311453Y-138750D01*
X-310800Y-138500D01*
X-310147Y-138750D01*
X-309680Y-139250D01*
X-309400Y-140000D01*
Y-143500D01*
G01X-304700Y-138500D02*
Y-143500D01*
G01Y-136500D02*
X-304887Y-136375D01*
Y-136125D01*
X-304700Y-136000D01*
X-304513Y-136125D01*
Y-136375D01*
X-304700Y-136500D01*
G01X-297200Y-143500D02*
Y-136000D01*
G01X-291567Y-143500D02*
X-287833Y-141000D01*
X-291567Y-138500D01*
G01X-283413Y-142125D02*
X-280987D01*
G01Y-139875D02*
X-283413D01*
G01X-276753Y-143500D02*
Y-136000D01*
X-274887D01*
X-274140Y-136375D01*
X-273580Y-136875D01*
X-273113Y-137625D01*
X-272740Y-138500D01*
X-272647Y-139750D01*
X-272740Y-141000D01*
X-273113Y-141875D01*
X-273580Y-142625D01*
X-274140Y-143125D01*
X-274887Y-143500D01*
X-276753D01*
G01X-268507D02*
Y-138500D01*
G01Y-139500D02*
X-268040Y-139000D01*
X-267573Y-138625D01*
X-266920Y-138500D01*
X-266453Y-138625D01*
X-265893Y-139000D01*
G01X-259700Y-138500D02*
Y-143500D01*
G01Y-136500D02*
X-259887Y-136375D01*
Y-136125D01*
X-259700Y-136000D01*
X-259513Y-136125D01*
Y-136375D01*
X-259700Y-136500D01*
G01X-252200Y-143500D02*
Y-136000D01*
G01X-244700Y-143500D02*
Y-136000D01*
G01X-231100Y-142625D02*
X-230633Y-143125D01*
X-229980Y-143500D01*
X-229420D01*
X-228860Y-143250D01*
X-228487Y-142875D01*
X-228300Y-142375D01*
X-228393Y-141625D01*
X-228767Y-141250D01*
X-230447Y-140500D01*
X-230820Y-139625D01*
X-230633Y-139000D01*
X-230260Y-138625D01*
X-229700Y-138500D01*
X-229140Y-138625D01*
X-228580Y-139000D01*
G01X-222200Y-138500D02*
Y-143500D01*
G01Y-136500D02*
X-222387Y-136375D01*
Y-136125D01*
X-222200Y-136000D01*
X-222013Y-136125D01*
Y-136375D01*
X-222200Y-136500D01*
G01X-216100Y-138500D02*
X-213300D01*
X-216100Y-143500D01*
X-213300D01*
G01X-208600Y-140125D02*
X-205613D01*
X-205893Y-139250D01*
X-206360Y-138750D01*
X-207013Y-138500D01*
X-207667Y-138625D01*
X-208227Y-139000D01*
X-208600Y-139875D01*
X-208787Y-140625D01*
Y-141375D01*
X-208600Y-142125D01*
X-208133Y-142875D01*
X-207573Y-143375D01*
X-206920Y-143500D01*
X-206267Y-143250D01*
X-205613Y-142500D01*
G01X-201567Y-143500D02*
X-197833Y-141000D01*
X-201567Y-138500D01*
G01X-192387Y-143500D02*
X-192200Y-141875D01*
X-191920Y-140500D01*
X-191547Y-139250D01*
X-191080Y-137875D01*
X-190333Y-136000D01*
X-194067D01*
G01X-186287Y-142625D02*
X-185633Y-143250D01*
X-184887Y-143500D01*
X-184140Y-143250D01*
X-183487Y-142500D01*
X-183020Y-141375D01*
X-182833Y-140250D01*
Y-138875D01*
X-183020Y-137750D01*
X-183487Y-136750D01*
X-184047Y-136250D01*
X-184700Y-136000D01*
X-185447Y-136250D01*
X-186007Y-136750D01*
X-186380Y-137500D01*
X-186567Y-138500D01*
X-186380Y-139375D01*
X-185913Y-140250D01*
X-185353Y-140750D01*
X-184700Y-140875D01*
X-183953Y-140625D01*
X-183393Y-140000D01*
X-182833Y-138875D01*
G01X-180000Y-143500D02*
Y-138500D01*
G01Y-139875D02*
X-179720Y-139250D01*
X-179253Y-138750D01*
X-178600Y-138500D01*
X-177947Y-138750D01*
X-177480Y-139250D01*
X-177200Y-139875D01*
Y-143500D01*
G01Y-139875D02*
X-176920Y-139250D01*
X-176453Y-138750D01*
X-175800Y-138500D01*
X-175147Y-138750D01*
X-174680Y-139250D01*
X-174400Y-140000D01*
Y-143500D01*
G01X-169700Y-138500D02*
Y-143500D01*
G01Y-136500D02*
X-169887Y-136375D01*
Y-136125D01*
X-169700Y-136000D01*
X-169513Y-136125D01*
Y-136375D01*
X-169700Y-136500D01*
G01X-162200Y-143500D02*
Y-136000D01*
G01X-289253Y-107500D02*
Y-100000D01*
X-287387D01*
X-286640Y-100375D01*
X-286080Y-100875D01*
X-285613Y-101625D01*
X-285240Y-102500D01*
X-285147Y-103750D01*
X-285240Y-105000D01*
X-285613Y-105875D01*
X-286080Y-106625D01*
X-286640Y-107125D01*
X-287387Y-107500D01*
X-289253D01*
G01X-281100Y-104125D02*
X-278113D01*
X-278393Y-103250D01*
X-278860Y-102750D01*
X-279513Y-102500D01*
X-280167Y-102625D01*
X-280727Y-103000D01*
X-281100Y-103875D01*
X-281287Y-104625D01*
Y-105375D01*
X-281100Y-106125D01*
X-280633Y-106875D01*
X-280073Y-107375D01*
X-279420Y-107500D01*
X-278767Y-107250D01*
X-278113Y-106500D01*
G01X-273600Y-106625D02*
X-273133Y-107125D01*
X-272480Y-107500D01*
X-271920D01*
X-271360Y-107250D01*
X-270987Y-106875D01*
X-270800Y-106375D01*
X-270893Y-105625D01*
X-271267Y-105250D01*
X-272947Y-104500D01*
X-273320Y-103625D01*
X-273133Y-103000D01*
X-272760Y-102625D01*
X-272200Y-102500D01*
X-271640Y-102625D01*
X-271080Y-103000D01*
G01X-263207Y-103125D02*
X-263860Y-102625D01*
X-264420Y-102500D01*
X-265167Y-102750D01*
X-265727Y-103250D01*
X-266100Y-104125D01*
X-266193Y-105000D01*
X-266100Y-105875D01*
X-265727Y-106625D01*
X-265167Y-107250D01*
X-264420Y-107500D01*
X-263767Y-107250D01*
X-263207Y-106750D01*
G01X-258507Y-107500D02*
Y-102500D01*
G01Y-103500D02*
X-258040Y-103000D01*
X-257573Y-102625D01*
X-256920Y-102500D01*
X-256453Y-102625D01*
X-255893Y-103000D01*
G01X-249700Y-102500D02*
Y-107500D01*
G01Y-100500D02*
X-249887Y-100375D01*
Y-100125D01*
X-249700Y-100000D01*
X-249513Y-100125D01*
Y-100375D01*
X-249700Y-100500D01*
G01X-243880Y-110000D02*
Y-102500D01*
G01Y-103625D02*
X-243413Y-103000D01*
X-242947Y-102625D01*
X-242200Y-102500D01*
X-241547Y-102625D01*
X-240893Y-103250D01*
X-240613Y-104125D01*
X-240520Y-105000D01*
X-240613Y-105875D01*
X-240893Y-106750D01*
X-241453Y-107250D01*
X-242200Y-107500D01*
X-242853Y-107375D01*
X-243507Y-107000D01*
X-243880Y-106500D01*
G01X-234700Y-100000D02*
Y-107500D01*
G01X-236007Y-102500D02*
X-233393D01*
G01X-227200D02*
Y-107500D01*
G01Y-100500D02*
X-227387Y-100375D01*
Y-100125D01*
X-227200Y-100000D01*
X-227013Y-100125D01*
Y-100375D01*
X-227200Y-100500D01*
G01X-219700Y-107500D02*
X-220260Y-107375D01*
X-220820Y-106875D01*
X-221193Y-106000D01*
X-221380Y-105000D01*
X-221193Y-104000D01*
X-220820Y-103125D01*
X-220260Y-102625D01*
X-219700Y-102500D01*
X-219140Y-102625D01*
X-218580Y-103125D01*
X-218207Y-104000D01*
X-218113Y-105000D01*
X-218207Y-106000D01*
X-218580Y-106875D01*
X-219140Y-107375D01*
X-219700Y-107500D01*
G01X-213787D02*
Y-102500D01*
G01Y-103750D02*
X-213413Y-103125D01*
X-212853Y-102625D01*
X-212107Y-102500D01*
X-211453Y-102625D01*
X-210893Y-103125D01*
X-210613Y-104000D01*
Y-107500D01*
G01X-336753Y-128500D02*
Y-121000D01*
X-334887D01*
X-334140Y-121375D01*
X-333580Y-121875D01*
X-333113Y-122625D01*
X-332740Y-123500D01*
X-332647Y-124750D01*
X-332740Y-126000D01*
X-333113Y-126875D01*
X-333580Y-127625D01*
X-334140Y-128125D01*
X-334887Y-128500D01*
X-336753D01*
G01X-328507D02*
Y-123500D01*
G01Y-124500D02*
X-328040Y-124000D01*
X-327573Y-123625D01*
X-326920Y-123500D01*
X-326453Y-123625D01*
X-325893Y-124000D01*
G01X-319700Y-123500D02*
Y-128500D01*
G01Y-121500D02*
X-319887Y-121375D01*
Y-121125D01*
X-319700Y-121000D01*
X-319513Y-121125D01*
Y-121375D01*
X-319700Y-121500D01*
G01X-312200Y-128500D02*
Y-121000D01*
G01X-304700Y-128500D02*
Y-121000D01*
G01X-291100Y-127625D02*
X-290633Y-128125D01*
X-289980Y-128500D01*
X-289420D01*
X-288860Y-128250D01*
X-288487Y-127875D01*
X-288300Y-127375D01*
X-288393Y-126625D01*
X-288767Y-126250D01*
X-290447Y-125500D01*
X-290820Y-124625D01*
X-290633Y-124000D01*
X-290260Y-123625D01*
X-289700Y-123500D01*
X-289140Y-123625D01*
X-288580Y-124000D01*
G01X-282200Y-123500D02*
Y-128500D01*
G01Y-121500D02*
X-282387Y-121375D01*
Y-121125D01*
X-282200Y-121000D01*
X-282013Y-121125D01*
Y-121375D01*
X-282200Y-121500D01*
G01X-276100Y-123500D02*
X-273300D01*
X-276100Y-128500D01*
X-273300D01*
G01X-268600Y-125125D02*
X-265613D01*
X-265893Y-124250D01*
X-266360Y-123750D01*
X-267013Y-123500D01*
X-267667Y-123625D01*
X-268227Y-124000D01*
X-268600Y-124875D01*
X-268787Y-125625D01*
Y-126375D01*
X-268600Y-127125D01*
X-268133Y-127875D01*
X-267573Y-128375D01*
X-266920Y-128500D01*
X-266267Y-128250D01*
X-265613Y-127500D01*
G01X-261567Y-128500D02*
X-257833Y-126000D01*
X-261567Y-123500D01*
G01X-253973Y-122250D02*
X-253413Y-121500D01*
X-252760Y-121125D01*
X-252013Y-121000D01*
X-251080Y-121250D01*
X-250427Y-121875D01*
X-250240Y-122625D01*
X-250333Y-123375D01*
X-250707Y-124000D01*
X-252573Y-125250D01*
X-253413Y-126125D01*
X-253973Y-127375D01*
X-254160Y-128500D01*
X-250240D01*
G01X-246753Y-127000D02*
X-246193Y-127875D01*
X-245447Y-128375D01*
X-244607Y-128500D01*
X-243860Y-128375D01*
X-243113Y-127750D01*
X-242647Y-127000D01*
X-242553Y-126250D01*
X-242740Y-125375D01*
X-243393Y-124750D01*
X-244047Y-124500D01*
X-244887D01*
G01X-244047D02*
X-243487Y-124125D01*
X-243020Y-123500D01*
X-242833Y-122750D01*
X-243020Y-122000D01*
X-243487Y-121375D01*
X-244327Y-121000D01*
X-245167Y-121125D01*
X-246007Y-121625D01*
G01X-238973Y-125375D02*
X-238320Y-124500D01*
X-237760Y-124000D01*
X-237013Y-123750D01*
X-236360Y-124000D01*
X-235893Y-124500D01*
X-235520Y-125250D01*
X-235427Y-126125D01*
X-235520Y-126875D01*
X-235893Y-127625D01*
X-236453Y-128250D01*
X-237107Y-128500D01*
X-237853Y-128250D01*
X-238507Y-127500D01*
X-238880Y-126375D01*
X-238973Y-125125D01*
X-238787Y-123500D01*
X-238507Y-122625D01*
X-238040Y-121750D01*
X-237387Y-121125D01*
X-236733Y-121000D01*
X-236080Y-121250D01*
X-235613Y-121875D01*
G01X-232500Y-128500D02*
Y-123500D01*
G01Y-124875D02*
X-232220Y-124250D01*
X-231753Y-123750D01*
X-231100Y-123500D01*
X-230447Y-123750D01*
X-229980Y-124250D01*
X-229700Y-124875D01*
Y-128500D01*
G01Y-124875D02*
X-229420Y-124250D01*
X-228953Y-123750D01*
X-228300Y-123500D01*
X-227647Y-123750D01*
X-227180Y-124250D01*
X-226900Y-125000D01*
Y-128500D01*
G01X-222200Y-123500D02*
Y-128500D01*
G01Y-121500D02*
X-222387Y-121375D01*
Y-121125D01*
X-222200Y-121000D01*
X-222013Y-121125D01*
Y-121375D01*
X-222200Y-121500D01*
G01X-214700Y-128500D02*
Y-121000D01*
G01X-334700Y-188500D02*
X-334047Y-188375D01*
X-333300Y-188000D01*
X-332833Y-187375D01*
X-332647Y-186500D01*
X-332833Y-185625D01*
X-333393Y-184875D01*
X-334233Y-184500D01*
X-335167D01*
X-335727Y-184250D01*
X-336193Y-183625D01*
X-336380Y-182750D01*
X-336100Y-181875D01*
X-335447Y-181250D01*
X-334700Y-181000D01*
X-333953Y-181250D01*
X-333300Y-181875D01*
X-333020Y-182750D01*
X-333207Y-183625D01*
X-333673Y-184250D01*
X-334233Y-184500D01*
X-335167D01*
X-336007Y-184875D01*
X-336567Y-185625D01*
X-336753Y-186500D01*
X-336567Y-187375D01*
X-336100Y-188000D01*
X-335353Y-188375D01*
X-334700Y-188500D01*
G01X-330000D02*
Y-183500D01*
G01Y-184875D02*
X-329720Y-184250D01*
X-329253Y-183750D01*
X-328600Y-183500D01*
X-327947Y-183750D01*
X-327480Y-184250D01*
X-327200Y-184875D01*
Y-188500D01*
G01Y-184875D02*
X-326920Y-184250D01*
X-326453Y-183750D01*
X-325800Y-183500D01*
X-325147Y-183750D01*
X-324680Y-184250D01*
X-324400Y-185000D01*
Y-188500D01*
G01X-319700Y-183500D02*
Y-188500D01*
G01Y-181500D02*
X-319887Y-181375D01*
Y-181125D01*
X-319700Y-181000D01*
X-319513Y-181125D01*
Y-181375D01*
X-319700Y-181500D01*
G01X-312200Y-188500D02*
Y-181000D01*
G01X-306567Y-188500D02*
X-302833Y-186000D01*
X-306567Y-183500D01*
G01X-299253Y-188500D02*
Y-181000D01*
X-297387D01*
X-296640Y-181375D01*
X-296080Y-181875D01*
X-295613Y-182625D01*
X-295240Y-183500D01*
X-295147Y-184750D01*
X-295240Y-186000D01*
X-295613Y-186875D01*
X-296080Y-187625D01*
X-296640Y-188125D01*
X-297387Y-188500D01*
X-299253D01*
G01X-291007D02*
Y-183500D01*
G01Y-184500D02*
X-290540Y-184000D01*
X-290073Y-183625D01*
X-289420Y-183500D01*
X-288953Y-183625D01*
X-288393Y-184000D01*
G01X-282200Y-183500D02*
Y-188500D01*
G01Y-181500D02*
X-282387Y-181375D01*
Y-181125D01*
X-282200Y-181000D01*
X-282013Y-181125D01*
Y-181375D01*
X-282200Y-181500D01*
G01X-274700Y-188500D02*
Y-181000D01*
G01X-267200Y-188500D02*
Y-181000D01*
G01X-253600Y-187625D02*
X-253133Y-188125D01*
X-252480Y-188500D01*
X-251920D01*
X-251360Y-188250D01*
X-250987Y-187875D01*
X-250800Y-187375D01*
X-250893Y-186625D01*
X-251267Y-186250D01*
X-252947Y-185500D01*
X-253320Y-184625D01*
X-253133Y-184000D01*
X-252760Y-183625D01*
X-252200Y-183500D01*
X-251640Y-183625D01*
X-251080Y-184000D01*
G01X-244700Y-183500D02*
Y-188500D01*
G01Y-181500D02*
X-244887Y-181375D01*
Y-181125D01*
X-244700Y-181000D01*
X-244513Y-181125D01*
Y-181375D01*
X-244700Y-181500D01*
G01X-238600Y-183500D02*
X-235800D01*
X-238600Y-188500D01*
X-235800D01*
G01X-231100Y-185125D02*
X-228113D01*
X-228393Y-184250D01*
X-228860Y-183750D01*
X-229513Y-183500D01*
X-230167Y-183625D01*
X-230727Y-184000D01*
X-231100Y-184875D01*
X-231287Y-185625D01*
Y-186375D01*
X-231100Y-187125D01*
X-230633Y-187875D01*
X-230073Y-188375D01*
X-229420Y-188500D01*
X-228767Y-188250D01*
X-228113Y-187500D01*
G01X-334700Y-173500D02*
Y-166000D01*
X-335820Y-167500D01*
G01Y-173500D02*
X-333580D01*
G01X-326080D02*
Y-166000D01*
X-329533Y-171375D01*
X-324867D01*
G01X-322500Y-173500D02*
Y-168500D01*
G01Y-169875D02*
X-322220Y-169250D01*
X-321753Y-168750D01*
X-321100Y-168500D01*
X-320447Y-168750D01*
X-319980Y-169250D01*
X-319700Y-169875D01*
Y-173500D01*
G01Y-169875D02*
X-319420Y-169250D01*
X-318953Y-168750D01*
X-318300Y-168500D01*
X-317647Y-168750D01*
X-317180Y-169250D01*
X-316900Y-170000D01*
Y-173500D01*
G01X-312200Y-168500D02*
Y-173500D01*
G01Y-166500D02*
X-312387Y-166375D01*
Y-166125D01*
X-312200Y-166000D01*
X-312013Y-166125D01*
Y-166375D01*
X-312200Y-166500D01*
G01X-304700Y-173500D02*
Y-166000D01*
G01X-299067Y-173500D02*
X-295333Y-171000D01*
X-299067Y-168500D01*
G01X-290913Y-172125D02*
X-288487D01*
G01Y-169875D02*
X-290913D01*
G01X-284253Y-173500D02*
Y-166000D01*
X-282387D01*
X-281640Y-166375D01*
X-281080Y-166875D01*
X-280613Y-167625D01*
X-280240Y-168500D01*
X-280147Y-169750D01*
X-280240Y-171000D01*
X-280613Y-171875D01*
X-281080Y-172625D01*
X-281640Y-173125D01*
X-282387Y-173500D01*
X-284253D01*
G01X-276007D02*
Y-168500D01*
G01Y-169500D02*
X-275540Y-169000D01*
X-275073Y-168625D01*
X-274420Y-168500D01*
X-273953Y-168625D01*
X-273393Y-169000D01*
G01X-267200Y-168500D02*
Y-173500D01*
G01Y-166500D02*
X-267387Y-166375D01*
Y-166125D01*
X-267200Y-166000D01*
X-267013Y-166125D01*
Y-166375D01*
X-267200Y-166500D01*
G01X-259700Y-173500D02*
Y-166000D01*
G01X-252200Y-173500D02*
Y-166000D01*
G01X-238600Y-172625D02*
X-238133Y-173125D01*
X-237480Y-173500D01*
X-236920D01*
X-236360Y-173250D01*
X-235987Y-172875D01*
X-235800Y-172375D01*
X-235893Y-171625D01*
X-236267Y-171250D01*
X-237947Y-170500D01*
X-238320Y-169625D01*
X-238133Y-169000D01*
X-237760Y-168625D01*
X-237200Y-168500D01*
X-236640Y-168625D01*
X-236080Y-169000D01*
G01X-229700Y-168500D02*
Y-173500D01*
G01Y-166500D02*
X-229887Y-166375D01*
Y-166125D01*
X-229700Y-166000D01*
X-229513Y-166125D01*
Y-166375D01*
X-229700Y-166500D01*
G01X-223600Y-168500D02*
X-220800D01*
X-223600Y-173500D01*
X-220800D01*
G01X-216100Y-170125D02*
X-213113D01*
X-213393Y-169250D01*
X-213860Y-168750D01*
X-214513Y-168500D01*
X-215167Y-168625D01*
X-215727Y-169000D01*
X-216100Y-169875D01*
X-216287Y-170625D01*
Y-171375D01*
X-216100Y-172125D01*
X-215633Y-172875D01*
X-215073Y-173375D01*
X-214420Y-173500D01*
X-213767Y-173250D01*
X-213113Y-172500D01*
G01X-209067Y-173500D02*
X-205333Y-171000D01*
X-209067Y-168500D01*
G01X-200913Y-172125D02*
X-198487D01*
G01Y-169875D02*
X-200913D01*
G01X-192200Y-173500D02*
X-191547Y-173375D01*
X-190800Y-173000D01*
X-190333Y-172375D01*
X-190147Y-171500D01*
X-190333Y-170625D01*
X-190893Y-169875D01*
X-191733Y-169500D01*
X-192667D01*
X-193227Y-169250D01*
X-193693Y-168625D01*
X-193880Y-167750D01*
X-193600Y-166875D01*
X-192947Y-166250D01*
X-192200Y-166000D01*
X-191453Y-166250D01*
X-190800Y-166875D01*
X-190520Y-167750D01*
X-190707Y-168625D01*
X-191173Y-169250D01*
X-191733Y-169500D01*
X-192667D01*
X-193507Y-169875D01*
X-194067Y-170625D01*
X-194253Y-171500D01*
X-194067Y-172375D01*
X-193600Y-173000D01*
X-192853Y-173375D01*
X-192200Y-173500D01*
G01X-187500D02*
Y-168500D01*
G01Y-169875D02*
X-187220Y-169250D01*
X-186753Y-168750D01*
X-186100Y-168500D01*
X-185447Y-168750D01*
X-184980Y-169250D01*
X-184700Y-169875D01*
Y-173500D01*
G01Y-169875D02*
X-184420Y-169250D01*
X-183953Y-168750D01*
X-183300Y-168500D01*
X-182647Y-168750D01*
X-182180Y-169250D01*
X-181900Y-170000D01*
Y-173500D01*
G01X-177200Y-168500D02*
Y-173500D01*
G01Y-166500D02*
X-177387Y-166375D01*
Y-166125D01*
X-177200Y-166000D01*
X-177013Y-166125D01*
Y-166375D01*
X-177200Y-166500D01*
G01X-169700Y-173500D02*
Y-166000D01*
G01X-356753Y-202375D02*
X-356193Y-203000D01*
X-355540Y-203375D01*
X-354700Y-203500D01*
X-353860Y-203250D01*
X-353207Y-202750D01*
X-352740Y-201875D01*
X-352647Y-200875D01*
X-352833Y-199875D01*
X-353300Y-199250D01*
X-353953Y-198750D01*
X-354607Y-198625D01*
X-355260Y-198750D01*
X-356100Y-199250D01*
X-355820Y-196000D01*
X-353300D01*
G01X-347200D02*
X-347947Y-196250D01*
X-348507Y-196875D01*
X-348880Y-197625D01*
X-349160Y-198625D01*
X-349253Y-199750D01*
X-349160Y-200875D01*
X-348880Y-201875D01*
X-348507Y-202625D01*
X-347947Y-203250D01*
X-347200Y-203500D01*
X-346453Y-203250D01*
X-345893Y-202625D01*
X-345520Y-201875D01*
X-345240Y-200875D01*
X-345147Y-199750D01*
X-345240Y-198625D01*
X-345520Y-197625D01*
X-345893Y-196875D01*
X-346453Y-196250D01*
X-347200Y-196000D01*
G01X-341380Y-203750D02*
X-338020Y-196000D01*
G01X-341380D02*
X-341940Y-196250D01*
X-342220Y-196625D01*
X-342407Y-197375D01*
X-342220Y-198125D01*
X-341940Y-198500D01*
X-341380Y-198750D01*
X-340820Y-198500D01*
X-340540Y-198125D01*
X-340353Y-197375D01*
X-340540Y-196625D01*
X-340820Y-196250D01*
X-341380Y-196000D01*
G01X-338020Y-201000D02*
X-338580Y-201250D01*
X-338860Y-201625D01*
X-339047Y-202375D01*
X-338860Y-203125D01*
X-338580Y-203500D01*
X-338020Y-203750D01*
X-337460Y-203500D01*
X-337180Y-203125D01*
X-336993Y-202375D01*
X-337180Y-201625D01*
X-337460Y-201250D01*
X-338020Y-201000D01*
G01X-323207Y-199125D02*
X-323860Y-198625D01*
X-324420Y-198500D01*
X-325167Y-198750D01*
X-325727Y-199250D01*
X-326100Y-200125D01*
X-326193Y-201000D01*
X-326100Y-201875D01*
X-325727Y-202625D01*
X-325167Y-203250D01*
X-324420Y-203500D01*
X-323767Y-203250D01*
X-323207Y-202750D01*
G01X-317200Y-203500D02*
X-317760Y-203375D01*
X-318320Y-202875D01*
X-318693Y-202000D01*
X-318880Y-201000D01*
X-318693Y-200000D01*
X-318320Y-199125D01*
X-317760Y-198625D01*
X-317200Y-198500D01*
X-316640Y-198625D01*
X-316080Y-199125D01*
X-315707Y-200000D01*
X-315613Y-201000D01*
X-315707Y-202000D01*
X-316080Y-202875D01*
X-316640Y-203375D01*
X-317200Y-203500D01*
G01X-311380Y-206000D02*
Y-198500D01*
G01Y-199625D02*
X-310913Y-199000D01*
X-310447Y-198625D01*
X-309700Y-198500D01*
X-309047Y-198625D01*
X-308393Y-199250D01*
X-308113Y-200125D01*
X-308020Y-201000D01*
X-308113Y-201875D01*
X-308393Y-202750D01*
X-308953Y-203250D01*
X-309700Y-203500D01*
X-310353Y-203375D01*
X-311007Y-203000D01*
X-311380Y-202500D01*
G01X-303880Y-206000D02*
Y-198500D01*
G01Y-199625D02*
X-303413Y-199000D01*
X-302947Y-198625D01*
X-302200Y-198500D01*
X-301547Y-198625D01*
X-300893Y-199250D01*
X-300613Y-200125D01*
X-300520Y-201000D01*
X-300613Y-201875D01*
X-300893Y-202750D01*
X-301453Y-203250D01*
X-302200Y-203500D01*
X-302853Y-203375D01*
X-303507Y-203000D01*
X-303880Y-202500D01*
G01X-296100Y-200125D02*
X-293113D01*
X-293393Y-199250D01*
X-293860Y-198750D01*
X-294513Y-198500D01*
X-295167Y-198625D01*
X-295727Y-199000D01*
X-296100Y-199875D01*
X-296287Y-200625D01*
Y-201375D01*
X-296100Y-202125D01*
X-295633Y-202875D01*
X-295073Y-203375D01*
X-294420Y-203500D01*
X-293767Y-203250D01*
X-293113Y-202500D01*
G01X-288507Y-203500D02*
Y-198500D01*
G01Y-199500D02*
X-288040Y-199000D01*
X-287573Y-198625D01*
X-286920Y-198500D01*
X-286453Y-198625D01*
X-285893Y-199000D01*
G01X-280913Y-201000D02*
X-278487D01*
G01X-272760Y-203500D02*
Y-197125D01*
X-272573Y-196500D01*
X-272200Y-196125D01*
X-271640Y-196000D01*
X-271080Y-196250D01*
X-270800Y-196875D01*
G01X-271920Y-199000D02*
X-273787D01*
G01X-264700Y-198500D02*
Y-203500D01*
G01Y-196500D02*
X-264887Y-196375D01*
Y-196125D01*
X-264700Y-196000D01*
X-264513Y-196125D01*
Y-196375D01*
X-264700Y-196500D01*
G01X-257200Y-203500D02*
Y-196000D01*
G01X-249700Y-203500D02*
Y-196000D01*
G01X-242200Y-198500D02*
Y-203500D01*
G01Y-196500D02*
X-242387Y-196375D01*
Y-196125D01*
X-242200Y-196000D01*
X-242013Y-196125D01*
Y-196375D01*
X-242200Y-196500D01*
G01X-236287Y-203500D02*
Y-198500D01*
G01Y-199750D02*
X-235913Y-199125D01*
X-235353Y-198625D01*
X-234607Y-198500D01*
X-233953Y-198625D01*
X-233393Y-199125D01*
X-233113Y-200000D01*
Y-203500D01*
G01X-228507Y-205375D02*
X-227853Y-205875D01*
X-227107Y-206000D01*
X-226453Y-205875D01*
X-225893Y-205250D01*
X-225520Y-204375D01*
Y-198500D01*
G01Y-199500D02*
X-225893Y-199000D01*
X-226453Y-198625D01*
X-227107Y-198500D01*
X-227853Y-198750D01*
X-228320Y-199250D01*
X-228693Y-200125D01*
X-228880Y-201000D01*
X-228787Y-201750D01*
X-228413Y-202625D01*
X-227853Y-203250D01*
X-227107Y-203500D01*
X-226547Y-203375D01*
X-225893Y-202875D01*
X-225520Y-202375D01*
G01X-212200Y-198500D02*
Y-203500D01*
G01Y-196500D02*
X-212387Y-196375D01*
Y-196125D01*
X-212200Y-196000D01*
X-212013Y-196125D01*
Y-196375D01*
X-212200Y-196500D01*
G01X-206100Y-202625D02*
X-205633Y-203125D01*
X-204980Y-203500D01*
X-204420D01*
X-203860Y-203250D01*
X-203487Y-202875D01*
X-203300Y-202375D01*
X-203393Y-201625D01*
X-203767Y-201250D01*
X-205447Y-200500D01*
X-205820Y-199625D01*
X-205633Y-199000D01*
X-205260Y-198625D01*
X-204700Y-198500D01*
X-204140Y-198625D01*
X-203580Y-199000D01*
G01X-189700Y-203500D02*
X-190260Y-203375D01*
X-190820Y-202875D01*
X-191193Y-202000D01*
X-191380Y-201000D01*
X-191193Y-200000D01*
X-190820Y-199125D01*
X-190260Y-198625D01*
X-189700Y-198500D01*
X-189140Y-198625D01*
X-188580Y-199125D01*
X-188207Y-200000D01*
X-188113Y-201000D01*
X-188207Y-202000D01*
X-188580Y-202875D01*
X-189140Y-203375D01*
X-189700Y-203500D01*
G01X-183787Y-198500D02*
Y-202000D01*
X-183413Y-202875D01*
X-182853Y-203375D01*
X-182200Y-203500D01*
X-181547Y-203375D01*
X-180987Y-202875D01*
X-180613Y-202000D01*
G01Y-203500D02*
Y-198500D01*
G01X-176007Y-203500D02*
Y-198500D01*
G01Y-199500D02*
X-175540Y-199000D01*
X-175073Y-198625D01*
X-174420Y-198500D01*
X-173953Y-198625D01*
X-173393Y-199000D01*
G01X-162500Y-203500D02*
Y-198500D01*
G01Y-199875D02*
X-162220Y-199250D01*
X-161753Y-198750D01*
X-161100Y-198500D01*
X-160447Y-198750D01*
X-159980Y-199250D01*
X-159700Y-199875D01*
Y-203500D01*
G01Y-199875D02*
X-159420Y-199250D01*
X-158953Y-198750D01*
X-158300Y-198500D01*
X-157647Y-198750D01*
X-157180Y-199250D01*
X-156900Y-200000D01*
Y-203500D01*
G01X-152200Y-198500D02*
Y-203500D01*
G01Y-196500D02*
X-152387Y-196375D01*
Y-196125D01*
X-152200Y-196000D01*
X-152013Y-196125D01*
Y-196375D01*
X-152200Y-196500D01*
G01X-146287Y-203500D02*
Y-198500D01*
G01Y-199750D02*
X-145913Y-199125D01*
X-145353Y-198625D01*
X-144607Y-198500D01*
X-143953Y-198625D01*
X-143393Y-199125D01*
X-143113Y-200000D01*
Y-203500D01*
G01X-137200Y-198500D02*
Y-203500D01*
G01Y-196500D02*
X-137387Y-196375D01*
Y-196125D01*
X-137200Y-196000D01*
X-137013Y-196125D01*
Y-196375D01*
X-137200Y-196500D01*
G01X-132500Y-203500D02*
Y-198500D01*
G01Y-199875D02*
X-132220Y-199250D01*
X-131753Y-198750D01*
X-131100Y-198500D01*
X-130447Y-198750D01*
X-129980Y-199250D01*
X-129700Y-199875D01*
Y-203500D01*
G01Y-199875D02*
X-129420Y-199250D01*
X-128953Y-198750D01*
X-128300Y-198500D01*
X-127647Y-198750D01*
X-127180Y-199250D01*
X-126900Y-200000D01*
Y-203500D01*
G01X-123787Y-198500D02*
Y-202000D01*
X-123413Y-202875D01*
X-122853Y-203375D01*
X-122200Y-203500D01*
X-121547Y-203375D01*
X-120987Y-202875D01*
X-120613Y-202000D01*
G01Y-203500D02*
Y-198500D01*
G01X-117500Y-203500D02*
Y-198500D01*
G01Y-199875D02*
X-117220Y-199250D01*
X-116753Y-198750D01*
X-116100Y-198500D01*
X-115447Y-198750D01*
X-114980Y-199250D01*
X-114700Y-199875D01*
Y-203500D01*
G01Y-199875D02*
X-114420Y-199250D01*
X-113953Y-198750D01*
X-113300Y-198500D01*
X-112647Y-198750D01*
X-112180Y-199250D01*
X-111900Y-200000D01*
Y-203500D01*
G01X-101007D02*
Y-198500D01*
G01Y-199500D02*
X-100540Y-199000D01*
X-100073Y-198625D01*
X-99420Y-198500D01*
X-98953Y-198625D01*
X-98393Y-199000D01*
G01X-93600Y-200125D02*
X-90613D01*
X-90893Y-199250D01*
X-91360Y-198750D01*
X-92013Y-198500D01*
X-92667Y-198625D01*
X-93227Y-199000D01*
X-93600Y-199875D01*
X-93787Y-200625D01*
Y-201375D01*
X-93600Y-202125D01*
X-93133Y-202875D01*
X-92573Y-203375D01*
X-91920Y-203500D01*
X-91267Y-203250D01*
X-90613Y-202500D01*
G01X-83020Y-206000D02*
Y-198500D01*
G01Y-199625D02*
X-83487Y-199000D01*
X-84047Y-198625D01*
X-84700Y-198500D01*
X-85260Y-198625D01*
X-85913Y-199250D01*
X-86287Y-200125D01*
X-86380Y-201000D01*
X-86287Y-201875D01*
X-85913Y-202750D01*
X-85260Y-203375D01*
X-84700Y-203500D01*
X-84047Y-203375D01*
X-83487Y-203000D01*
X-83020Y-202375D01*
G01X-78787Y-198500D02*
Y-202000D01*
X-78413Y-202875D01*
X-77853Y-203375D01*
X-77200Y-203500D01*
X-76547Y-203375D01*
X-75987Y-202875D01*
X-75613Y-202000D01*
G01Y-203500D02*
Y-198500D01*
G01X-71100Y-200125D02*
X-68113D01*
X-68393Y-199250D01*
X-68860Y-198750D01*
X-69513Y-198500D01*
X-70167Y-198625D01*
X-70727Y-199000D01*
X-71100Y-199875D01*
X-71287Y-200625D01*
Y-201375D01*
X-71100Y-202125D01*
X-70633Y-202875D01*
X-70073Y-203375D01*
X-69420Y-203500D01*
X-68767Y-203250D01*
X-68113Y-202500D01*
G01X-63600Y-202625D02*
X-63133Y-203125D01*
X-62480Y-203500D01*
X-61920D01*
X-61360Y-203250D01*
X-60987Y-202875D01*
X-60800Y-202375D01*
X-60893Y-201625D01*
X-61267Y-201250D01*
X-62947Y-200500D01*
X-63320Y-199625D01*
X-63133Y-199000D01*
X-62760Y-198625D01*
X-62200Y-198500D01*
X-61640Y-198625D01*
X-61080Y-199000D01*
G01X-54700Y-196000D02*
Y-203500D01*
G01X-56007Y-198500D02*
X-53393D01*
G01X-39700D02*
Y-203500D01*
G01Y-196500D02*
X-39887Y-196375D01*
Y-196125D01*
X-39700Y-196000D01*
X-39513Y-196125D01*
Y-196375D01*
X-39700Y-196500D01*
G01X-33787Y-203500D02*
Y-198500D01*
G01Y-199750D02*
X-33413Y-199125D01*
X-32853Y-198625D01*
X-32107Y-198500D01*
X-31453Y-198625D01*
X-30893Y-199125D01*
X-30613Y-200000D01*
Y-203500D01*
G01X-18880D02*
Y-196000D01*
G01Y-199750D02*
X-18413Y-199000D01*
X-17853Y-198625D01*
X-17293Y-198500D01*
X-16453Y-198750D01*
X-15893Y-199250D01*
X-15520Y-200125D01*
Y-201125D01*
X-15707Y-202125D01*
X-16080Y-202875D01*
X-16733Y-203375D01*
X-17293Y-203500D01*
X-17853Y-203375D01*
X-18413Y-203000D01*
X-18880Y-202375D01*
G01X-9700Y-203500D02*
Y-196000D01*
G01X-2200Y-198500D02*
Y-203500D01*
G01Y-196500D02*
X-2387Y-196375D01*
Y-196125D01*
X-2200Y-196000D01*
X-2013Y-196125D01*
Y-196375D01*
X-2200Y-196500D01*
G01X3713Y-203500D02*
Y-198500D01*
G01Y-199750D02*
X4087Y-199125D01*
X4647Y-198625D01*
X5393Y-198500D01*
X6047Y-198625D01*
X6607Y-199125D01*
X6887Y-200000D01*
Y-203500D01*
G01X14480Y-196000D02*
Y-203500D01*
G01Y-202375D02*
X14107Y-203000D01*
X13547Y-203375D01*
X12893Y-203500D01*
X12147Y-203250D01*
X11587Y-202625D01*
X11213Y-201875D01*
X11120Y-201000D01*
X11213Y-200125D01*
X11587Y-199375D01*
X12147Y-198750D01*
X12893Y-198500D01*
X13547Y-198625D01*
X14013Y-198875D01*
X14480Y-199375D01*
G01X26120Y-198500D02*
X27800Y-203500D01*
X29480Y-198500D01*
G01X35300D02*
Y-203500D01*
G01Y-196500D02*
X35113Y-196375D01*
Y-196125D01*
X35300Y-196000D01*
X35487Y-196125D01*
Y-196375D01*
X35300Y-196500D01*
G01X44480Y-203500D02*
Y-198500D01*
G01Y-199375D02*
X44107Y-198875D01*
X43547Y-198625D01*
X42893Y-198500D01*
X42240Y-198750D01*
X41680Y-199250D01*
X41307Y-200000D01*
X41120Y-201000D01*
X41307Y-202000D01*
X41680Y-202750D01*
X42240Y-203250D01*
X42893Y-203500D01*
X43547Y-203375D01*
X44107Y-203000D01*
X44480Y-202500D01*
G01X-334887Y-158500D02*
X-334700Y-156875D01*
X-334420Y-155500D01*
X-334047Y-154250D01*
X-333580Y-152875D01*
X-332833Y-151000D01*
X-336567D01*
G01X-328787Y-157625D02*
X-328133Y-158250D01*
X-327387Y-158500D01*
X-326640Y-158250D01*
X-325987Y-157500D01*
X-325520Y-156375D01*
X-325333Y-155250D01*
Y-153875D01*
X-325520Y-152750D01*
X-325987Y-151750D01*
X-326547Y-151250D01*
X-327200Y-151000D01*
X-327947Y-151250D01*
X-328507Y-151750D01*
X-328880Y-152500D01*
X-329067Y-153500D01*
X-328880Y-154375D01*
X-328413Y-155250D01*
X-327853Y-155750D01*
X-327200Y-155875D01*
X-326453Y-155625D01*
X-325893Y-155000D01*
X-325333Y-153875D01*
G01X-322500Y-158500D02*
Y-153500D01*
G01Y-154875D02*
X-322220Y-154250D01*
X-321753Y-153750D01*
X-321100Y-153500D01*
X-320447Y-153750D01*
X-319980Y-154250D01*
X-319700Y-154875D01*
Y-158500D01*
G01Y-154875D02*
X-319420Y-154250D01*
X-318953Y-153750D01*
X-318300Y-153500D01*
X-317647Y-153750D01*
X-317180Y-154250D01*
X-316900Y-155000D01*
Y-158500D01*
G01X-312200Y-153500D02*
Y-158500D01*
G01Y-151500D02*
X-312387Y-151375D01*
Y-151125D01*
X-312200Y-151000D01*
X-312013Y-151125D01*
Y-151375D01*
X-312200Y-151500D01*
G01X-304700Y-158500D02*
Y-151000D01*
G01X-299067Y-158500D02*
X-295333Y-156000D01*
X-299067Y-153500D01*
G01X-290913Y-157125D02*
X-288487D01*
G01Y-154875D02*
X-290913D01*
G01X-284253Y-158500D02*
Y-151000D01*
X-282387D01*
X-281640Y-151375D01*
X-281080Y-151875D01*
X-280613Y-152625D01*
X-280240Y-153500D01*
X-280147Y-154750D01*
X-280240Y-156000D01*
X-280613Y-156875D01*
X-281080Y-157625D01*
X-281640Y-158125D01*
X-282387Y-158500D01*
X-284253D01*
G01X-276007D02*
Y-153500D01*
G01Y-154500D02*
X-275540Y-154000D01*
X-275073Y-153625D01*
X-274420Y-153500D01*
X-273953Y-153625D01*
X-273393Y-154000D01*
G01X-267200Y-153500D02*
Y-158500D01*
G01Y-151500D02*
X-267387Y-151375D01*
Y-151125D01*
X-267200Y-151000D01*
X-267013Y-151125D01*
Y-151375D01*
X-267200Y-151500D01*
G01X-259700Y-158500D02*
Y-151000D01*
G01X-252200Y-158500D02*
Y-151000D01*
G01X-238600Y-157625D02*
X-238133Y-158125D01*
X-237480Y-158500D01*
X-236920D01*
X-236360Y-158250D01*
X-235987Y-157875D01*
X-235800Y-157375D01*
X-235893Y-156625D01*
X-236267Y-156250D01*
X-237947Y-155500D01*
X-238320Y-154625D01*
X-238133Y-154000D01*
X-237760Y-153625D01*
X-237200Y-153500D01*
X-236640Y-153625D01*
X-236080Y-154000D01*
G01X-229700Y-153500D02*
Y-158500D01*
G01Y-151500D02*
X-229887Y-151375D01*
Y-151125D01*
X-229700Y-151000D01*
X-229513Y-151125D01*
Y-151375D01*
X-229700Y-151500D01*
G01X-223600Y-153500D02*
X-220800D01*
X-223600Y-158500D01*
X-220800D01*
G01X-216100Y-155125D02*
X-213113D01*
X-213393Y-154250D01*
X-213860Y-153750D01*
X-214513Y-153500D01*
X-215167Y-153625D01*
X-215727Y-154000D01*
X-216100Y-154875D01*
X-216287Y-155625D01*
Y-156375D01*
X-216100Y-157125D01*
X-215633Y-157875D01*
X-215073Y-158375D01*
X-214420Y-158500D01*
X-213767Y-158250D01*
X-213113Y-157500D01*
G01X-209067Y-158500D02*
X-205333Y-156000D01*
X-209067Y-153500D01*
G01X-199700Y-158500D02*
Y-151000D01*
X-200820Y-152500D01*
G01Y-158500D02*
X-198580D01*
G01X-191080D02*
Y-151000D01*
X-194533Y-156375D01*
X-189867D01*
G01X-187500Y-158500D02*
Y-153500D01*
G01Y-154875D02*
X-187220Y-154250D01*
X-186753Y-153750D01*
X-186100Y-153500D01*
X-185447Y-153750D01*
X-184980Y-154250D01*
X-184700Y-154875D01*
Y-158500D01*
G01Y-154875D02*
X-184420Y-154250D01*
X-183953Y-153750D01*
X-183300Y-153500D01*
X-182647Y-153750D01*
X-182180Y-154250D01*
X-181900Y-155000D01*
Y-158500D01*
G01X-177200Y-153500D02*
Y-158500D01*
G01Y-151500D02*
X-177387Y-151375D01*
Y-151125D01*
X-177200Y-151000D01*
X-177013Y-151125D01*
Y-151375D01*
X-177200Y-151500D01*
G01X-169700Y-158500D02*
Y-151000D01*
G01X-118600Y-281900D02*
X-119347Y-281775D01*
X-120000Y-281275D01*
X-120560Y-280525D01*
X-120933Y-279650D01*
X-121120Y-278650D01*
Y-277650D01*
X-120933Y-276650D01*
X-120560Y-275775D01*
X-120000Y-275025D01*
X-119347Y-274525D01*
X-118600Y-274400D01*
X-117853Y-274525D01*
X-117200Y-275025D01*
X-116640Y-275775D01*
X-116267Y-276650D01*
X-116080Y-277650D01*
Y-278650D01*
X-116267Y-279650D01*
X-116640Y-280525D01*
X-117200Y-281275D01*
X-117853Y-281775D01*
X-118600Y-281900D01*
G01X-112967D02*
Y-274400D01*
X-110633D01*
X-109887Y-274775D01*
X-109420Y-275275D01*
X-109233Y-276275D01*
X-109420Y-277275D01*
X-109980Y-277900D01*
X-110633Y-278275D01*
X-112967D01*
G01X-110633D02*
X-109233Y-281900D01*
G01X-106400Y-274400D02*
X-105093Y-281900D01*
X-103600Y-274400D01*
X-102107Y-281900D01*
X-100800Y-274400D01*
G01X-97967D02*
Y-281900D01*
X-94233D01*
G01X-59533Y-282500D02*
X-63267D01*
Y-275000D01*
X-59533D01*
G01X-61027Y-278625D02*
X-63267D01*
G01X-56233Y-275000D02*
X-53900Y-282500D01*
X-51567Y-275000D01*
G01X-46400D02*
Y-282500D01*
G01X-48547Y-275000D02*
X-44253D01*
G01X-132400Y-308900D02*
X-133067Y-309067D01*
X-133567Y-309483D01*
X-133900Y-309983D01*
X-134150Y-310650D01*
X-134233Y-311400D01*
X-134150Y-312150D01*
X-133900Y-312817D01*
X-133567Y-313317D01*
X-133067Y-313733D01*
X-132400Y-313900D01*
X-131733Y-313733D01*
X-131233Y-313317D01*
X-130900Y-312817D01*
X-130650Y-312150D01*
X-130567Y-311400D01*
X-130650Y-310650D01*
X-130900Y-309983D01*
X-131233Y-309483D01*
X-131733Y-309067D01*
X-132400Y-308900D01*
G01X-126167Y-313900D02*
X-126000Y-312817D01*
X-125750Y-311900D01*
X-125417Y-311067D01*
X-125000Y-310150D01*
X-124333Y-308900D01*
X-127667D01*
G01X-121100Y-314067D02*
X-118100Y-308900D01*
G01X-114783Y-309733D02*
X-114283Y-309233D01*
X-113700Y-308983D01*
X-113033Y-308900D01*
X-112200Y-309067D01*
X-111617Y-309483D01*
X-111450Y-309983D01*
X-111533Y-310483D01*
X-111867Y-310900D01*
X-113533Y-311733D01*
X-114283Y-312317D01*
X-114783Y-313150D01*
X-114950Y-313900D01*
X-111450D01*
G01X-106800Y-308900D02*
X-107467Y-309067D01*
X-107967Y-309483D01*
X-108300Y-309983D01*
X-108550Y-310650D01*
X-108633Y-311400D01*
X-108550Y-312150D01*
X-108300Y-312817D01*
X-107967Y-313317D01*
X-107467Y-313733D01*
X-106800Y-313900D01*
X-106133Y-313733D01*
X-105633Y-313317D01*
X-105300Y-312817D01*
X-105050Y-312150D01*
X-104967Y-311400D01*
X-105050Y-310650D01*
X-105300Y-309983D01*
X-105633Y-309483D01*
X-106133Y-309067D01*
X-106800Y-308900D01*
G01X-101900Y-314067D02*
X-98900Y-308900D01*
G01X-94000Y-313900D02*
Y-308900D01*
X-95000Y-309900D01*
G01Y-313900D02*
X-93000D01*
G01X-89433Y-313150D02*
X-88933Y-313567D01*
X-88350Y-313817D01*
X-87600Y-313900D01*
X-86850Y-313733D01*
X-86267Y-313400D01*
X-85850Y-312817D01*
X-85767Y-312150D01*
X-85933Y-311483D01*
X-86350Y-311067D01*
X-86933Y-310733D01*
X-87517Y-310650D01*
X-88100Y-310733D01*
X-88850Y-311067D01*
X-88600Y-308900D01*
X-86350D01*
G01X-81200Y-310567D02*
X-80367Y-309525D01*
Y-308900D01*
X-80992D01*
Y-309525D01*
X-80367D01*
G01X-65617Y-280100D02*
Y-275100D01*
X-61783Y-280100D01*
Y-275100D01*
G01X-55467Y-275517D02*
X-55967Y-275267D01*
X-56550Y-275100D01*
X-57217D01*
X-57967Y-275350D01*
X-58550Y-275767D01*
X-58967Y-276267D01*
X-59300Y-277100D01*
X-59383Y-277850D01*
X-59217Y-278600D01*
X-58967Y-279100D01*
X-58467Y-279600D01*
X-57883Y-279933D01*
X-57300Y-280100D01*
X-56717D01*
X-56133Y-279933D01*
X-55633Y-279683D01*
X-55217Y-279350D01*
G01X-53400Y-281767D02*
X-48400D01*
G01X-46333Y-280100D02*
Y-275100D01*
X-44667D01*
X-44000Y-275350D01*
X-43500Y-275683D01*
X-43083Y-276183D01*
X-42750Y-276767D01*
X-42667Y-277600D01*
X-42750Y-278433D01*
X-43083Y-279017D01*
X-43500Y-279517D01*
X-44000Y-279850D01*
X-44667Y-280100D01*
X-46333D01*
G01X-39767D02*
Y-275100D01*
X-37683D01*
X-37017Y-275350D01*
X-36600Y-275683D01*
X-36433Y-276350D01*
X-36600Y-277017D01*
X-37100Y-277433D01*
X-37683Y-277683D01*
X-39767D01*
G01X-37683D02*
X-36433Y-280100D01*
G01X-33367Y-275100D02*
Y-280100D01*
X-30033D01*
G01X-32450Y-300100D02*
X-28950Y-295100D01*
G01X-32450D02*
X-28950Y-300100D01*
G01X-111227Y-141000D02*
X-108987D01*
G01X-110200Y-139375D02*
Y-142625D01*
G01X-104473Y-140375D02*
X-103820Y-139500D01*
X-103260Y-139000D01*
X-102513Y-138750D01*
X-101860Y-139000D01*
X-101393Y-139500D01*
X-101020Y-140250D01*
X-100927Y-141125D01*
X-101020Y-141875D01*
X-101393Y-142625D01*
X-101953Y-143250D01*
X-102607Y-143500D01*
X-103353Y-143250D01*
X-104007Y-142500D01*
X-104380Y-141375D01*
X-104473Y-140125D01*
X-104287Y-138500D01*
X-104007Y-137625D01*
X-103540Y-136750D01*
X-102887Y-136125D01*
X-102233Y-136000D01*
X-101580Y-136250D01*
X-101113Y-136875D01*
G01X-96880Y-143750D02*
X-93520Y-136000D01*
G01X-88913Y-141000D02*
X-86487D01*
G01X-80200Y-136000D02*
X-80947Y-136250D01*
X-81507Y-136875D01*
X-81880Y-137625D01*
X-82160Y-138625D01*
X-82253Y-139750D01*
X-82160Y-140875D01*
X-81880Y-141875D01*
X-81507Y-142625D01*
X-80947Y-143250D01*
X-80200Y-143500D01*
X-79453Y-143250D01*
X-78893Y-142625D01*
X-78520Y-141875D01*
X-78240Y-140875D01*
X-78147Y-139750D01*
X-78240Y-138625D01*
X-78520Y-137625D01*
X-78893Y-136875D01*
X-79453Y-136250D01*
X-80200Y-136000D01*
G01X-75500Y-143500D02*
Y-138500D01*
G01Y-139875D02*
X-75220Y-139250D01*
X-74753Y-138750D01*
X-74100Y-138500D01*
X-73447Y-138750D01*
X-72980Y-139250D01*
X-72700Y-139875D01*
Y-143500D01*
G01Y-139875D02*
X-72420Y-139250D01*
X-71953Y-138750D01*
X-71300Y-138500D01*
X-70647Y-138750D01*
X-70180Y-139250D01*
X-69900Y-140000D01*
Y-143500D01*
G01X-65200Y-138500D02*
Y-143500D01*
G01Y-136500D02*
X-65387Y-136375D01*
Y-136125D01*
X-65200Y-136000D01*
X-65013Y-136125D01*
Y-136375D01*
X-65200Y-136500D01*
G01X-57700Y-143500D02*
Y-136000D01*
G01X-13727Y-163500D02*
X-11487D01*
G01X-12700Y-161875D02*
Y-165125D01*
G01X-6880Y-166250D02*
X-3520Y-158500D01*
G01X1087Y-163500D02*
X3513D01*
G01X8027Y-159750D02*
X8587Y-159000D01*
X9240Y-158625D01*
X9987Y-158500D01*
X10920Y-158750D01*
X11573Y-159375D01*
X11760Y-160125D01*
X11667Y-160875D01*
X11293Y-161500D01*
X9427Y-162750D01*
X8587Y-163625D01*
X8027Y-164875D01*
X7840Y-166000D01*
X11760D01*
G01X14500D02*
Y-161000D01*
G01Y-162375D02*
X14780Y-161750D01*
X15247Y-161250D01*
X15900Y-161000D01*
X16553Y-161250D01*
X17020Y-161750D01*
X17300Y-162375D01*
Y-166000D01*
G01Y-162375D02*
X17580Y-161750D01*
X18047Y-161250D01*
X18700Y-161000D01*
X19353Y-161250D01*
X19820Y-161750D01*
X20100Y-162500D01*
Y-166000D01*
G01X24800Y-161000D02*
Y-166000D01*
G01Y-159000D02*
X24613Y-158875D01*
Y-158625D01*
X24800Y-158500D01*
X24987Y-158625D01*
Y-158875D01*
X24800Y-159000D01*
G01X32300Y-166000D02*
Y-158500D01*
G01X-111227Y-186000D02*
X-108987D01*
G01X-110200Y-184375D02*
Y-187625D01*
G01X-104473Y-182250D02*
X-103913Y-181500D01*
X-103260Y-181125D01*
X-102513Y-181000D01*
X-101580Y-181250D01*
X-100927Y-181875D01*
X-100740Y-182625D01*
X-100833Y-183375D01*
X-101207Y-184000D01*
X-103073Y-185250D01*
X-103913Y-186125D01*
X-104473Y-187375D01*
X-104660Y-188500D01*
X-100740D01*
G01X-96880Y-188750D02*
X-93520Y-181000D01*
G01X-88913Y-186000D02*
X-86487D01*
G01X-79080Y-188500D02*
Y-181000D01*
X-82533Y-186375D01*
X-77867D01*
G01X-75500Y-188500D02*
Y-183500D01*
G01Y-184875D02*
X-75220Y-184250D01*
X-74753Y-183750D01*
X-74100Y-183500D01*
X-73447Y-183750D01*
X-72980Y-184250D01*
X-72700Y-184875D01*
Y-188500D01*
G01Y-184875D02*
X-72420Y-184250D01*
X-71953Y-183750D01*
X-71300Y-183500D01*
X-70647Y-183750D01*
X-70180Y-184250D01*
X-69900Y-185000D01*
Y-188500D01*
G01X-65200Y-183500D02*
Y-188500D01*
G01Y-181500D02*
X-65387Y-181375D01*
Y-181125D01*
X-65200Y-181000D01*
X-65013Y-181125D01*
Y-181375D01*
X-65200Y-181500D01*
G01X-57700Y-188500D02*
Y-181000D01*
G01X-111227Y-171000D02*
X-108987D01*
G01X-110200Y-169375D02*
Y-172625D01*
G01X-104380Y-173750D02*
X-101020Y-166000D01*
G01X-96413Y-171000D02*
X-93987D01*
G01X-89753Y-172000D02*
X-89193Y-172875D01*
X-88447Y-173375D01*
X-87607Y-173500D01*
X-86860Y-173375D01*
X-86113Y-172750D01*
X-85647Y-172000D01*
X-85553Y-171250D01*
X-85740Y-170375D01*
X-86393Y-169750D01*
X-87047Y-169500D01*
X-87887D01*
G01X-87047D02*
X-86487Y-169125D01*
X-86020Y-168500D01*
X-85833Y-167750D01*
X-86020Y-167000D01*
X-86487Y-166375D01*
X-87327Y-166000D01*
X-88167Y-166125D01*
X-89007Y-166625D01*
G01X-83000Y-173500D02*
Y-168500D01*
G01Y-169875D02*
X-82720Y-169250D01*
X-82253Y-168750D01*
X-81600Y-168500D01*
X-80947Y-168750D01*
X-80480Y-169250D01*
X-80200Y-169875D01*
Y-173500D01*
G01Y-169875D02*
X-79920Y-169250D01*
X-79453Y-168750D01*
X-78800Y-168500D01*
X-78147Y-168750D01*
X-77680Y-169250D01*
X-77400Y-170000D01*
Y-173500D01*
G01X-72700Y-168500D02*
Y-173500D01*
G01Y-166500D02*
X-72887Y-166375D01*
Y-166125D01*
X-72700Y-166000D01*
X-72513Y-166125D01*
Y-166375D01*
X-72700Y-166500D01*
G01X-65200Y-173500D02*
Y-166000D01*
G01X-111227Y-156000D02*
X-108987D01*
G01X-110200Y-154375D02*
Y-157625D01*
G01X-104380Y-158750D02*
X-101020Y-151000D01*
G01X-96413Y-156000D02*
X-93987D01*
G01X-89753Y-157000D02*
X-89193Y-157875D01*
X-88447Y-158375D01*
X-87607Y-158500D01*
X-86860Y-158375D01*
X-86113Y-157750D01*
X-85647Y-157000D01*
X-85553Y-156250D01*
X-85740Y-155375D01*
X-86393Y-154750D01*
X-87047Y-154500D01*
X-87887D01*
G01X-87047D02*
X-86487Y-154125D01*
X-86020Y-153500D01*
X-85833Y-152750D01*
X-86020Y-152000D01*
X-86487Y-151375D01*
X-87327Y-151000D01*
X-88167Y-151125D01*
X-89007Y-151625D01*
G01X-83000Y-158500D02*
Y-153500D01*
G01Y-154875D02*
X-82720Y-154250D01*
X-82253Y-153750D01*
X-81600Y-153500D01*
X-80947Y-153750D01*
X-80480Y-154250D01*
X-80200Y-154875D01*
Y-158500D01*
G01Y-154875D02*
X-79920Y-154250D01*
X-79453Y-153750D01*
X-78800Y-153500D01*
X-78147Y-153750D01*
X-77680Y-154250D01*
X-77400Y-155000D01*
Y-158500D01*
G01X-72700Y-153500D02*
Y-158500D01*
G01Y-151500D02*
X-72887Y-151375D01*
Y-151125D01*
X-72700Y-151000D01*
X-72513Y-151125D01*
Y-151375D01*
X-72700Y-151500D01*
G01X-65200Y-158500D02*
Y-151000D01*
G01X-61227Y-126000D02*
X-58987D01*
G01X-60200Y-124375D02*
Y-127625D01*
G01X-54380Y-128750D02*
X-51020Y-121000D01*
G01X-46413Y-126000D02*
X-43987D01*
G01X-39753Y-127375D02*
X-39193Y-128000D01*
X-38540Y-128375D01*
X-37700Y-128500D01*
X-36860Y-128250D01*
X-36207Y-127750D01*
X-35740Y-126875D01*
X-35647Y-125875D01*
X-35833Y-124875D01*
X-36300Y-124250D01*
X-36953Y-123750D01*
X-37607Y-123625D01*
X-38260Y-123750D01*
X-39100Y-124250D01*
X-38820Y-121000D01*
X-36300D01*
G01X-33000Y-128500D02*
Y-123500D01*
G01Y-124875D02*
X-32720Y-124250D01*
X-32253Y-123750D01*
X-31600Y-123500D01*
X-30947Y-123750D01*
X-30480Y-124250D01*
X-30200Y-124875D01*
Y-128500D01*
G01Y-124875D02*
X-29920Y-124250D01*
X-29453Y-123750D01*
X-28800Y-123500D01*
X-28147Y-123750D01*
X-27680Y-124250D01*
X-27400Y-125000D01*
Y-128500D01*
G01X-22700Y-123500D02*
Y-128500D01*
G01Y-121500D02*
X-22887Y-121375D01*
Y-121125D01*
X-22700Y-121000D01*
X-22513Y-121125D01*
Y-121375D01*
X-22700Y-121500D01*
G01X-15200Y-128500D02*
Y-121000D01*
G01X-7347Y-101500D02*
Y-94000D01*
X-3053Y-101500D01*
Y-94000D01*
G01X433Y-101500D02*
Y-94000D01*
X2673D01*
X3420Y-94375D01*
X3980Y-95250D01*
X4167Y-96250D01*
X3980Y-97250D01*
X3513Y-98000D01*
X2673Y-98375D01*
X433D01*
G01X9800Y-94000D02*
Y-101500D01*
G01X7653Y-94000D02*
X11947D01*
G01X15340Y-101500D02*
Y-94000D01*
G01X19260D02*
Y-101500D01*
G01Y-97750D02*
X15340D01*
G01X-23700Y-106000D02*
Y-113500D01*
G01X-25007Y-108500D02*
X-22393D01*
G01X-16200Y-113500D02*
X-16760Y-113375D01*
X-17320Y-112875D01*
X-17693Y-112000D01*
X-17880Y-111000D01*
X-17693Y-110000D01*
X-17320Y-109125D01*
X-16760Y-108625D01*
X-16200Y-108500D01*
X-15640Y-108625D01*
X-15080Y-109125D01*
X-14707Y-110000D01*
X-14613Y-111000D01*
X-14707Y-112000D01*
X-15080Y-112875D01*
X-15640Y-113375D01*
X-16200Y-113500D01*
G01X-8700D02*
Y-106000D01*
G01X-2600Y-110125D02*
X387D01*
X107Y-109250D01*
X-360Y-108750D01*
X-1013Y-108500D01*
X-1667Y-108625D01*
X-2227Y-109000D01*
X-2600Y-109875D01*
X-2787Y-110625D01*
Y-111375D01*
X-2600Y-112125D01*
X-2133Y-112875D01*
X-1573Y-113375D01*
X-920Y-113500D01*
X-267Y-113250D01*
X387Y-112500D01*
G01X4993Y-113500D02*
Y-108500D01*
G01Y-109500D02*
X5460Y-109000D01*
X5927Y-108625D01*
X6580Y-108500D01*
X7047Y-108625D01*
X7607Y-109000D01*
G01X15480Y-113500D02*
Y-108500D01*
G01Y-109375D02*
X15107Y-108875D01*
X14547Y-108625D01*
X13893Y-108500D01*
X13240Y-108750D01*
X12680Y-109250D01*
X12307Y-110000D01*
X12120Y-111000D01*
X12307Y-112000D01*
X12680Y-112750D01*
X13240Y-113250D01*
X13893Y-113500D01*
X14547Y-113375D01*
X15107Y-113000D01*
X15480Y-112500D01*
G01X19713Y-113500D02*
Y-108500D01*
G01Y-109750D02*
X20087Y-109125D01*
X20647Y-108625D01*
X21393Y-108500D01*
X22047Y-108625D01*
X22607Y-109125D01*
X22887Y-110000D01*
Y-113500D01*
G01X30293Y-109125D02*
X29640Y-108625D01*
X29080Y-108500D01*
X28333Y-108750D01*
X27773Y-109250D01*
X27400Y-110125D01*
X27307Y-111000D01*
X27400Y-111875D01*
X27773Y-112625D01*
X28333Y-113250D01*
X29080Y-113500D01*
X29733Y-113250D01*
X30293Y-112750D01*
G01X34900Y-110125D02*
X37887D01*
X37607Y-109250D01*
X37140Y-108750D01*
X36487Y-108500D01*
X35833Y-108625D01*
X35273Y-109000D01*
X34900Y-109875D01*
X34713Y-110625D01*
Y-111375D01*
X34900Y-112125D01*
X35367Y-112875D01*
X35927Y-113375D01*
X36580Y-113500D01*
X37233Y-113250D01*
X37887Y-112500D01*
G01X-117700Y-106000D02*
Y-113500D01*
G01X-119007Y-108500D02*
X-116393D01*
G01X-110200Y-113500D02*
X-110760Y-113375D01*
X-111320Y-112875D01*
X-111693Y-112000D01*
X-111880Y-111000D01*
X-111693Y-110000D01*
X-111320Y-109125D01*
X-110760Y-108625D01*
X-110200Y-108500D01*
X-109640Y-108625D01*
X-109080Y-109125D01*
X-108707Y-110000D01*
X-108613Y-111000D01*
X-108707Y-112000D01*
X-109080Y-112875D01*
X-109640Y-113375D01*
X-110200Y-113500D01*
G01X-102700D02*
Y-106000D01*
G01X-96600Y-110125D02*
X-93613D01*
X-93893Y-109250D01*
X-94360Y-108750D01*
X-95013Y-108500D01*
X-95667Y-108625D01*
X-96227Y-109000D01*
X-96600Y-109875D01*
X-96787Y-110625D01*
Y-111375D01*
X-96600Y-112125D01*
X-96133Y-112875D01*
X-95573Y-113375D01*
X-94920Y-113500D01*
X-94267Y-113250D01*
X-93613Y-112500D01*
G01X-89007Y-113500D02*
Y-108500D01*
G01Y-109500D02*
X-88540Y-109000D01*
X-88073Y-108625D01*
X-87420Y-108500D01*
X-86953Y-108625D01*
X-86393Y-109000D01*
G01X-78520Y-113500D02*
Y-108500D01*
G01Y-109375D02*
X-78893Y-108875D01*
X-79453Y-108625D01*
X-80107Y-108500D01*
X-80760Y-108750D01*
X-81320Y-109250D01*
X-81693Y-110000D01*
X-81880Y-111000D01*
X-81693Y-112000D01*
X-81320Y-112750D01*
X-80760Y-113250D01*
X-80107Y-113500D01*
X-79453Y-113375D01*
X-78893Y-113000D01*
X-78520Y-112500D01*
G01X-74287Y-113500D02*
Y-108500D01*
G01Y-109750D02*
X-73913Y-109125D01*
X-73353Y-108625D01*
X-72607Y-108500D01*
X-71953Y-108625D01*
X-71393Y-109125D01*
X-71113Y-110000D01*
Y-113500D01*
G01X-63707Y-109125D02*
X-64360Y-108625D01*
X-64920Y-108500D01*
X-65667Y-108750D01*
X-66227Y-109250D01*
X-66600Y-110125D01*
X-66693Y-111000D01*
X-66600Y-111875D01*
X-66227Y-112625D01*
X-65667Y-113250D01*
X-64920Y-113500D01*
X-64267Y-113250D01*
X-63707Y-112750D01*
G01X-59100Y-110125D02*
X-56113D01*
X-56393Y-109250D01*
X-56860Y-108750D01*
X-57513Y-108500D01*
X-58167Y-108625D01*
X-58727Y-109000D01*
X-59100Y-109875D01*
X-59287Y-110625D01*
Y-111375D01*
X-59100Y-112125D01*
X-58633Y-112875D01*
X-58073Y-113375D01*
X-57420Y-113500D01*
X-56767Y-113250D01*
X-56113Y-112500D01*
G01X-97067Y-101500D02*
Y-94000D01*
X-94827D01*
X-94080Y-94375D01*
X-93520Y-95250D01*
X-93333Y-96250D01*
X-93520Y-97250D01*
X-93987Y-98000D01*
X-94827Y-98375D01*
X-97067D01*
G01X-87700Y-94000D02*
Y-101500D01*
G01X-89847Y-94000D02*
X-85553D01*
G01X-82160Y-101500D02*
Y-94000D01*
G01X-78240D02*
Y-101500D01*
G01Y-97750D02*
X-82160D01*
G01X640000Y120000D02*
X1096000D01*
G01X904000Y155000D02*
Y85000D01*
G01X724000Y155000D02*
Y85000D01*
G01X640000Y155000D02*
X1096000D01*
G01X640000Y190000D02*
X1096000D01*
G01X640000Y85000D02*
Y215000D01*
X1096000D01*
Y85000D01*
X640000D01*
G01X1024000Y155000D02*
Y85000D01*
G01X-540000Y-500000D02*
Y630000D01*
X1130000D01*
Y-500000D01*
X-540000D01*
G01X-365000Y-148500D02*
X-40000D01*
G01X-365000Y-118500D02*
X55000D01*
Y-133500D01*
X-365000D01*
G01Y-163500D02*
X-40000D01*
G01X-365000Y-178500D02*
X-40000D01*
G01X-365000Y-193500D02*
X55000D01*
G01X-365000Y-212500D02*
X55000D01*
Y-87500D01*
X-365000D01*
Y-212500D01*
G01X-40000Y-133500D02*
Y-193500D01*
G01Y-87500D02*
Y-118500D01*
G01X-135000Y-87500D02*
Y-193500D01*
M02*
