G04 ================== begin FILE IDENTIFICATION RECORD ==================*
G04 Layout Name:  ORWL_Design_SHIFT.brd*
G04 Film Name:    drill-9_10*
G04 File Format:  Gerber RS274X*
G04 File Origin:  Cadence Allegro 16.6-P004*
G04 Origin Date:  Sat Sep 19 15:46:53 2015*
G04 *
G04 Layer:  MANUFACTURING/PHOTOPLOT_OUTLINE*
G04 Layer:  MANUFACTURING/NCDRILL_LEGEND*
G04 Layer:  MANUFACTURING/NCLEGEND-9-10*
G04 Layer:  DRAWING FORMAT/NCDRILL_LEGEND*
G04 Layer:  BOARD GEOMETRY/OUTLINE*
G04 Layer:  BOARD GEOMETRY/DIMENSION*
G04 Layer:  BOARD GEOMETRY/LOGO*
G04 *
G04 Offset:    (0.00 0.00)*
G04 Mirror:    No*
G04 Mode:      Positive*
G04 Rotation:  0*
G04 FullContactRelief:  No*
G04 UndefLineWidth:     6.00*
G04 ================== end FILE IDENTIFICATION RECORD ====================*
%FSLAX45Y45*MOIN*%
%IR0*IPPOS*OFA0.00000B0.00000*MIA0B0*SFA1.00000B1.00000*%
%AMMACRO10*
1,1,.006,.002,0.0*
20,1,.006,.002,0.0,-.002,0.0,0.0*
1,1,.006,-.002,0.0*
1,1,.006,0.0,.002*
20,1,.006,0.0,.002,0.0,-.002,0.0*
1,1,.006,0.0,-.002*
%
%ADD10MACRO10*%
%ADD11C,.02*%
%ADD12C,.014*%
%ADD13C,.015*%
%ADD14C,.006*%
G75*
%LPD*%
G75*
G54D10*
X-387962Y236000D03*
Y238000D03*
X-337700Y190000D03*
X-355893Y215918D03*
X-367814Y216464D03*
X-341150Y241510D03*
X-340150D03*
Y243510D03*
Y242510D03*
X-341150D03*
X-372198Y240273D03*
X-372217Y239241D03*
X-356900Y229100D03*
X-382298Y244094D03*
X-341000Y211100D03*
X-390445Y231258D03*
X-390403Y232594D03*
X-387879Y232508D03*
X-388946D03*
X-386812Y232526D03*
X-388964Y231368D03*
X-387860Y231386D03*
X-386800Y231399D03*
X-374162Y237048D03*
X-336967Y205300D03*
Y204300D03*
X-397760Y206313D03*
X-352400Y198700D03*
X-352500Y195700D03*
X-362600Y216600D03*
X-354800Y209800D03*
X-354900Y211300D03*
X-354800Y212700D03*
Y214200D03*
X-356223Y214558D03*
X-357582Y214908D03*
X-366714Y216464D03*
X-361752Y211396D03*
X-363010Y211364D03*
X-364164D03*
X-360547Y211406D03*
X-364061Y215197D03*
X-362700Y215200D03*
X-344484Y226457D03*
X-361383Y215072D03*
X-360158Y215062D03*
X-361455Y216268D03*
X-359272Y211488D03*
X-365565Y211385D03*
X-359117Y210128D03*
X-357700Y208900D03*
X-357954Y210252D03*
X-358170Y211488D03*
X-358860Y214970D03*
X-358715Y216288D03*
X-360137Y216433D03*
X-365214Y216364D03*
X-354554Y215361D03*
X-353600Y213700D03*
Y212100D03*
X-353700Y210600D03*
X-353600Y209000D03*
X-354800Y208300D03*
X-360236Y196850D03*
X-365343Y215042D03*
X-366643D03*
X-360200Y205600D03*
X-358931Y208398D03*
X-359100Y206600D03*
X-358900Y205000D03*
X-359900Y203800D03*
X-361400Y202900D03*
Y201200D03*
X-360000Y201700D03*
X-358900Y201000D03*
X-358600Y202500D03*
X-357600Y204100D03*
X-357700Y205500D03*
X-357800Y207100D03*
X-353700Y207600D03*
X-338320Y235310D03*
X-337320D03*
X-338090Y240370D03*
X-337090D03*
X-337100Y241600D03*
X-337150Y239350D03*
X-338250Y239150D03*
X-378200Y231800D03*
X-339000Y232700D03*
X-374232Y235869D03*
X-387962Y237000D03*
X-356200Y192800D03*
X-360200Y198600D03*
X-341150Y243510D03*
X-368900Y231814D03*
X-353500Y206200D03*
X-353600Y204700D03*
X-352900Y203400D03*
X-351700Y202300D03*
X-351000Y201200D03*
X-352400Y201000D03*
X-354000D03*
X-354200Y202400D03*
X-354800Y203700D03*
X-354900Y205300D03*
Y206900D03*
X-367943Y215142D03*
X-363800Y216600D03*
X-360456Y210108D03*
X-361300Y204700D03*
X-357314Y216227D03*
X-337312Y165680D03*
X-337780Y213770D03*
X-373389Y230819D03*
X-373407Y229770D03*
X-409230Y206766D03*
X-364338Y210046D03*
X-362999Y210066D03*
X-361836Y210190D03*
X-369303Y211364D03*
X-367964Y211384D03*
X-366801Y211508D03*
X-368273Y209943D03*
X-366934Y209963D03*
X-365771Y210087D03*
X-329902Y226502D03*
X-325530Y224780D03*
X-325310Y226890D03*
X-325300Y225800D03*
X-329750Y240570D03*
Y239570D03*
Y237570D03*
Y238570D03*
X-321400Y244090D03*
Y245090D03*
X-321600Y242100D03*
X-321400Y243090D03*
X-359500Y295000D03*
X-360200Y295800D03*
X-361000Y296400D03*
X-293194Y188667D03*
X-304914Y217496D03*
X-347673Y259922D03*
X-318300Y230400D03*
X-316300Y231300D03*
Y232400D03*
X-317300Y231300D03*
Y232400D03*
X-318300Y231400D03*
Y232400D03*
Y229300D03*
X-316200Y230300D03*
X-317300D03*
Y229200D03*
X-316200Y229300D03*
X-313220Y250820D03*
X-313100Y254900D03*
X-312030Y254930D03*
X-313100Y253900D03*
X-312070Y253920D03*
X-324000Y224886D03*
X-322700Y225980D03*
X-322680Y224930D03*
X-322650Y227010D03*
X-331320Y225360D03*
X-332330Y225420D03*
X-332390Y226470D03*
X-331300Y226400D03*
X-332400Y227500D03*
X-331300D03*
X-330200Y225500D03*
X-307400Y220600D03*
X-300372Y220314D03*
X-306494Y226400D03*
X-307114Y196000D03*
X-370160Y259170D03*
X-371210Y259200D03*
X-297410Y253500D03*
X-297460Y254530D03*
X-353300Y311500D03*
X-354200Y310800D03*
X-354173Y309744D03*
X-355102Y310186D03*
X-355009Y309117D03*
X-352266Y311503D03*
X-312000Y251870D03*
X-313010Y251830D03*
X-312050Y252890D03*
X-313100Y252880D03*
X-312150Y250820D03*
X-332886Y280000D03*
X-321500Y199114D03*
X-327500D03*
X-334800Y229800D03*
X-317400Y184900D03*
X-313230Y194770D03*
X-309886Y249500D03*
X-305886D03*
X-308350Y225153D03*
X-300394Y217853D03*
X-382298Y245094D03*
X-385800Y244635D03*
X-338900Y246800D03*
X-332000Y220386D03*
X-377325Y246066D03*
X-376325D03*
X-373000Y246100D03*
X-315740Y273990D03*
X-316900Y226900D03*
X-324000Y223114D03*
X-319700Y220386D03*
X-316200Y245000D03*
X-317114Y246500D03*
Y243500D03*
X-316800Y209410D03*
X-316786Y213400D03*
Y215800D03*
X-373962Y265900D03*
X-373924Y264800D03*
X-373962Y263800D03*
X-328000Y247000D03*
Y245500D03*
Y248500D03*
Y250000D03*
Y251500D03*
X-322500Y274000D03*
Y272500D03*
Y271000D03*
Y275500D03*
Y277000D03*
X-354310Y269157D03*
Y270157D03*
Y268157D03*
X-332886Y274000D03*
X-336780Y264410D03*
X-336140Y265200D03*
X-337440Y263600D03*
X-334820Y267230D03*
X-332350Y258740D03*
X-336285Y294185D03*
X-322500Y195886D03*
X-325500D03*
X-325930Y203390D03*
X-328500Y195886D03*
X-324500Y199114D03*
X-382371Y247390D03*
X-328500Y210000D03*
X-326000D03*
X-323500D03*
X-334500Y212114D03*
X-344430Y270808D03*
X-340150Y284396D03*
X-308249Y207553D03*
X-313300Y259600D03*
X-304114Y249500D03*
X-295593Y226866D03*
X-312600Y297100D03*
X-312500Y244886D03*
X-313000Y279886D03*
X-297800Y304400D03*
X-301500Y302200D03*
X-307000Y303300D03*
X-310300Y300800D03*
X-316600Y294700D03*
X-311614Y275500D03*
X-297044Y265218D03*
Y260988D03*
X-307114Y192500D03*
X-300340Y190050D03*
X-311614Y269500D03*
Y272500D03*
X-297685Y221687D03*
X-280154Y214124D03*
X-278114D03*
X-293194Y194653D03*
X-298795Y199002D03*
X-301867Y203017D03*
X-310000Y228114D03*
Y226686D03*
X-307617Y223735D03*
X-300700Y214497D03*
X-294294Y230953D03*
X-303194Y228267D03*
X-306400Y228100D03*
X-315214Y220500D03*
X-295040Y241905D03*
X-300200Y245900D03*
X-313000Y228114D03*
X-293456Y273317D03*
X-292421Y273505D03*
X-293062Y274273D03*
X-291100Y272300D03*
X-300500Y309500D03*
X-294400Y315200D03*
X-297900Y313100D03*
X-303010Y278200D03*
X-301810Y279400D03*
Y278200D03*
X-303010Y279400D03*
X-317500Y310500D03*
X-333285Y297185D03*
X-328015Y298115D03*
X-325015Y301115D03*
X-322015Y304015D03*
X-289326Y315480D03*
X-298475Y284342D03*
X-341120Y252520D03*
X-307300Y246000D03*
X-303694Y241953D03*
X-303800Y214300D03*
X-298300Y216433D03*
X-290500Y267614D03*
X-293500Y269386D03*
X-334700Y226300D03*
X-330500Y199114D03*
X-324000Y259886D03*
X-335600Y258850D03*
X-334000Y258886D03*
X-325930Y264100D03*
X-326930Y265100D03*
X-325930D03*
X-326930Y264100D03*
X-334270Y268090D03*
X-335650Y266640D03*
X-331114Y271000D03*
X-356400Y265586D03*
X-340119Y251000D03*
X-379500Y255000D03*
X-331114Y277000D03*
X-341130Y253980D03*
X-373641Y255103D03*
X-321400Y248500D03*
X-327500Y223465D03*
X-329000Y220386D03*
X-326000D03*
X-317000Y186614D03*
X-329390Y185570D03*
X-325000Y185500D03*
X-320670Y185460D03*
X-333500Y186614D03*
X-369530Y246070D03*
X-300300Y193000D03*
X-292439Y255120D03*
X-337386Y271000D03*
X-325500Y194114D03*
X-329000Y218614D03*
X-331100Y274500D03*
X-331110Y273490D03*
X-311050Y241330D03*
X-294437Y221656D03*
X-295951Y221679D03*
X-300894Y239753D03*
X-298170Y241900D03*
X-319500Y195886D03*
X-308300Y211600D03*
X-291400Y205500D03*
X-296251Y236200D03*
X-376090Y261670D03*
X-322901Y281063D03*
X-340600Y280700D03*
X-368000Y255000D03*
X-334500Y195886D03*
X-304600Y191800D03*
X-337386Y274000D03*
X-374000Y267500D03*
X-298580Y189553D03*
X-309560Y243300D03*
X-321300Y262700D03*
X-322000Y263800D03*
X-320800Y264900D03*
X-320000Y263800D03*
X-319200Y263100D03*
X-320300Y262700D03*
X-322300D03*
X-319800Y264900D03*
X-321000Y263800D03*
X-374400Y271300D03*
X-373400Y272300D03*
X-374400D03*
X-372400D03*
X-373400Y271300D03*
X-372400D03*
X-331750Y263910D03*
X-332750D03*
X-330750Y264910D03*
X-331750D03*
X-330750Y263910D03*
Y262910D03*
X-332750D03*
X-331750D03*
X-317700Y189700D03*
X-333100D03*
X-318300Y217000D03*
X-317300Y218000D03*
X-318700Y216000D03*
X-319300Y216980D03*
X-318300Y218000D03*
X-335800Y239400D03*
X-336009Y241426D03*
X-336090Y240370D03*
X-336320Y235310D03*
X-335998Y242455D03*
X-330500Y257200D03*
X-331500D03*
X-332550Y257210D03*
X-332000Y255200D03*
X-330900D03*
X-332500Y256100D03*
X-331500D03*
X-330500Y256200D03*
X-290460Y218770D03*
X-320700Y229200D03*
X-311260Y263980D03*
X-310160Y262880D03*
X-311260D03*
X-309060Y263980D03*
Y262880D03*
X-310160Y263980D03*
X-311260Y265080D03*
X-310160D03*
X-321800Y264800D03*
X-311800Y220700D03*
Y221700D03*
X-309800Y220000D03*
Y219000D03*
X-312800Y221100D03*
Y222100D03*
X-315700Y204500D03*
Y203500D03*
Y205500D03*
X-320360Y218000D03*
X-320300Y216970D03*
X-319200Y215100D03*
X-319300Y217990D03*
X-319800Y216000D03*
X-333100Y190700D03*
X-334100D03*
Y189700D03*
X-318700Y191700D03*
X-291630Y236600D03*
X-300040Y254550D03*
X-300150Y253540D03*
X-383822Y250686D03*
X-370401Y255071D03*
X-386386Y248100D03*
X-318700Y190700D03*
X-317700D03*
X-316700D03*
Y189700D03*
X-317700Y191700D03*
X-318700Y189700D03*
X-300000Y249500D03*
X-313700Y205500D03*
Y204500D03*
X-312700Y205500D03*
Y203500D03*
X-313100Y184000D03*
X-314700Y204500D03*
X-313700Y203500D03*
X-314700D03*
Y205500D03*
X-312700Y204500D03*
X-308886Y196000D03*
X-307808Y243553D03*
X-306694Y234939D03*
X-312800Y220100D03*
X-310700Y220700D03*
X-311800Y219600D03*
X-310700Y219500D03*
X-300570Y272770D03*
X-300870Y273780D03*
X-301230Y274720D03*
X-302240D03*
X-335570Y215960D03*
Y214890D03*
X-335590Y213860D03*
X-334530Y215980D03*
X-334560Y214870D03*
X-334500Y213800D03*
X-331017Y279600D03*
Y280600D03*
X-329790Y280370D03*
X-329810Y279340D03*
X-301494Y230053D03*
X-336700Y213730D03*
X-336660Y214860D03*
X-336640Y216030D03*
X-299950Y250540D03*
X-361500Y304500D03*
X-310000Y223614D03*
X-316986Y220500D03*
X-314700Y225800D03*
X-343500Y302900D03*
X-344400Y302000D03*
X-345102Y303102D03*
X-344300Y303900D03*
X-342527Y310707D03*
X-339519Y312641D03*
X-331300Y164100D03*
X-318636Y170857D03*
X-325000Y178800D03*
X-328700Y174514D03*
X-325700D03*
X-331700D03*
X-298491Y180333D03*
X-309343Y174507D03*
X-309533Y175694D03*
X-308200Y174600D03*
X-308400Y175700D03*
X-310696Y175694D03*
X-311658Y174542D03*
X-311943Y175670D03*
X-312762Y174483D03*
X-310518Y174530D03*
X-312999Y175468D03*
X-296332Y180142D03*
X-311767Y180211D03*
X-309129Y180331D03*
X-310733Y180191D03*
X-303150Y170723D03*
X-297000Y172900D03*
X-308632Y92990D03*
X-301672Y95165D03*
X-292809Y272500D03*
X-300803Y79505D03*
X-345128Y84480D03*
X-340700Y78200D03*
X-331500Y72200D03*
X-328500Y70800D03*
X-333900Y75900D03*
X-330900Y68200D03*
X-324500Y61700D03*
X-324200Y66500D03*
X-317000Y100500D03*
X-336741Y61136D03*
X-338800Y58900D03*
X-278465Y88500D03*
Y84000D03*
X-278295Y79701D03*
X-347070Y58220D03*
X-318163Y66539D03*
X-335830Y46940D03*
X-340100Y88500D03*
X-324800Y73400D03*
X-330900Y79400D03*
X-337300Y85800D03*
X-327600Y76200D03*
X-334100Y82500D03*
X-342700Y91300D03*
X-321600Y70100D03*
X-315161Y63539D03*
X-343375Y68472D03*
X-325400Y50400D03*
X-312163Y60539D03*
X-309663Y58139D03*
X-320900Y99600D03*
X-302915Y86085D03*
X-306215Y89285D03*
X-306118Y82890D03*
X-308648Y86903D03*
X-288100Y91300D03*
X-335000Y54500D03*
X-341473Y56404D03*
X-321900Y108100D03*
X-324000Y108200D03*
X-320000Y108000D03*
X-299000Y102114D03*
X-321300Y102500D03*
X-320400Y103200D03*
X-308200Y108000D03*
X-314000Y108100D03*
X-314100Y152200D03*
X-291500Y160700D03*
X-311035Y159500D03*
X-308000D03*
X-315000Y160400D03*
X-292400Y152200D03*
X-296500Y108300D03*
X-289800Y104800D03*
X-287800D03*
X-286300Y103200D03*
X-320400Y316500D03*
X-313285Y300885D03*
X-310285Y303885D03*
X-334513Y49444D03*
X-301927Y66843D03*
X-303459Y68375D03*
X-325927Y92343D03*
X-333459Y99375D03*
X-321026Y87506D03*
X-338703Y90099D03*
X-344257Y59188D03*
X-341203Y92599D03*
X-345649Y60579D03*
X-309459Y74375D03*
X-307927Y72843D03*
X-286635Y176800D03*
X-290965D03*
X-346500Y160186D03*
X-334000Y149514D03*
Y145014D03*
X-340081Y55012D03*
X-319494Y85974D03*
X-331927Y97843D03*
X-313494Y79974D03*
X-326270Y77730D03*
X-338689Y53620D03*
X-329270Y80730D03*
X-315026Y81506D03*
X-308203Y59599D03*
X-312103Y108083D03*
X-310134D03*
X-316461Y95092D03*
X-297395Y78708D03*
X-311115Y298715D03*
X-298500Y302900D03*
X-300100Y302800D03*
X-314315Y295615D03*
X-317315Y292615D03*
X-295815Y313915D03*
X-298815Y310915D03*
X-297985Y316085D03*
X-300985Y313085D03*
X-316485Y297785D03*
X-321860Y312070D03*
X-319485Y294785D03*
X-323368Y310800D03*
X-304185Y309985D03*
X-307185Y306985D03*
X-308115Y301715D03*
X-334000Y151286D03*
Y146786D03*
X-346500Y158414D03*
Y154414D03*
Y156186D03*
X-333122Y48052D03*
X-310703Y62099D03*
X-327459Y93875D03*
X-278314Y236947D03*
X-277100Y202400D03*
X-280354Y229339D03*
X-279084Y228071D03*
X-277342Y304284D03*
X-277600Y205300D03*
X-287894Y253553D03*
X-276100Y209300D03*
X-276400Y244400D03*
X-277230Y207650D03*
X-276574Y193311D03*
X-280154Y196891D03*
X-281600Y250900D03*
X-280154Y249108D03*
X-279237Y220917D03*
X-280154Y226803D03*
X-278100Y204000D03*
X-284100Y238000D03*
X-279084Y207784D03*
X-278114Y201544D03*
X-277342Y296410D03*
Y312159D03*
X-276574Y252688D03*
X-278464Y249308D03*
X-278100Y216300D03*
X-277342Y306253D03*
Y300347D03*
X-285461Y215461D03*
X-285394Y216753D03*
X-276400Y219400D03*
X-281300Y192700D03*
X-286060Y263310D03*
X-278114Y241919D03*
X-277044Y230153D03*
X-278201Y244559D03*
X-276375Y237248D03*
X-277144Y235679D03*
X-286494Y253553D03*
X-290294Y236853D03*
X-277208Y240882D03*
X-287700Y186500D03*
X-277900Y192900D03*
X-277122Y190800D03*
X-286100Y191100D03*
X-285661Y256119D03*
X-277170Y227980D03*
X-287500Y191000D03*
X-288400Y193000D03*
X-276174Y231875D03*
X-276774Y196691D03*
X-280154Y209052D03*
Y211689D03*
X-281294Y296153D03*
X-278834Y316053D03*
X-280100Y222100D03*
X-280300Y216400D03*
X-280154Y234411D03*
Y237047D03*
X-280500Y220400D03*
X-277144Y238215D03*
X-280154Y231775D03*
X-282100Y196200D03*
X-276774Y198381D03*
X-288330Y194270D03*
X-278464Y196691D03*
X-278114Y209052D03*
X-277300Y217900D03*
X-278314Y231775D03*
X-284600Y240000D03*
X-278310Y206290D03*
X-276430Y204074D03*
X-281500Y198200D03*
X-277100Y223300D03*
X-276600Y221700D03*
X-278114Y221732D03*
Y229339D03*
X-276174D03*
X-277100Y225500D03*
X-277800Y224300D03*
X-276100Y224000D03*
X-277200Y210500D03*
X-276100Y206500D03*
X-278114Y234411D03*
X-292415Y362915D03*
X-330700Y320700D03*
X-329900Y320000D03*
X-331500Y321500D03*
X-332300Y322200D03*
X-330000Y317800D03*
X-329900Y318900D03*
X-282694Y330653D03*
Y329353D03*
X-281394Y330653D03*
Y329353D03*
X-309500Y318500D03*
X-291126Y367626D03*
X-327693Y324353D03*
X-324353Y327693D03*
X-302500Y345000D03*
X-305200Y348500D03*
X-288898Y346188D03*
X-289380Y340945D03*
X-289540Y329228D03*
X-282194Y340153D03*
X-313500Y352000D03*
X-283055Y355562D03*
X-301100Y360500D03*
X-300800Y361600D03*
X-360862Y330688D03*
X-346753Y318298D03*
X-352625Y323383D03*
X-308400Y330223D03*
X-305715Y334019D03*
X-310262Y338387D03*
X-319000Y317300D03*
X-277342Y320033D03*
Y318180D03*
X-200423Y12800D03*
X-237309Y14494D03*
X-239870Y20090D03*
X-172850Y7155D03*
X-159438Y-2269D03*
X-235254Y12755D03*
X-233641Y18952D03*
X-223967Y13198D03*
X-246825Y6330D03*
X-207730Y-3058D03*
X-182071Y-2969D03*
X-191959Y-2997D03*
X-231808Y13023D03*
X-172400Y11900D03*
Y12900D03*
X-171400Y11900D03*
Y12900D03*
X-187947Y-987D03*
Y-1987D03*
Y-3087D03*
Y-4187D03*
X-209683Y-2861D03*
X-211595Y-2942D03*
X-190635Y12900D03*
X-182500D03*
X-189983Y-2898D03*
X-165000Y11400D03*
X-186032Y-2952D03*
X-226955Y12199D03*
X-165500Y4900D03*
X-164700Y6100D03*
X-171200Y18900D03*
X-172600Y19000D03*
X-176100Y13000D03*
X-177500Y12900D03*
X-184039Y800D03*
Y-200D03*
X-205339Y-300D03*
Y700D03*
X-187565Y12900D03*
X-193916Y-2979D03*
X-142000Y15200D03*
X-142500Y9600D03*
X-199852Y-2978D03*
X-197876Y-3505D03*
X-203751Y-3018D03*
X-165035Y19400D03*
X-137685Y17610D03*
Y19579D03*
X-201818Y-2969D03*
X-205435Y12800D03*
X-195565D03*
X-195892Y-2970D03*
X-170965Y-2197D03*
X-178214Y-13071D03*
X-164925Y17953D03*
X-216202Y12085D03*
X-252400Y86500D03*
X-254400Y88400D03*
X-255500Y91100D03*
X-251700Y84200D03*
X-217000Y52100D03*
X-219500Y54000D03*
X-233400Y71000D03*
X-235200Y68400D03*
X-231700Y67800D03*
X-230000Y65500D03*
X-225000Y81500D03*
X-225900Y83600D03*
X-229200Y86500D03*
X-247800Y81600D03*
X-244800Y76300D03*
X-247700Y75700D03*
X-222900Y75300D03*
Y78100D03*
Y80700D03*
X-249400Y66600D03*
X-249700Y69300D03*
X-249300Y71200D03*
X-219600Y26500D03*
X-218400Y29900D03*
X-218500Y35600D03*
X-214600Y45600D03*
X-218700Y41200D03*
X-219200Y48400D03*
X-231500Y28100D03*
X-227100Y27900D03*
X-222100Y31900D03*
X-221900Y34900D03*
X-221500Y41500D03*
X-221700Y45400D03*
X-221900Y48800D03*
Y53000D03*
Y56900D03*
Y60100D03*
X-254700Y100700D03*
X-255200Y96100D03*
X-249400Y82600D03*
X-273394Y274918D03*
X-249600Y187200D03*
X-70314Y237600D03*
X-104020Y293350D03*
X-105040Y293310D03*
X-109100Y290700D03*
X-106990Y296000D03*
X-105990D03*
X-104990D03*
X-110110Y290760D03*
X-104990Y290670D03*
X-106000D03*
X-108100Y290700D03*
X-107100D03*
X-109520Y295950D03*
X-108490Y295920D03*
X-104160Y297350D03*
X-103900Y295930D03*
X-107160Y297350D03*
X-106160D03*
X-110160D03*
X-109160D03*
X-105160D03*
X-108160D03*
X-106070Y293290D03*
X-172834Y183477D03*
X-171350Y183440D03*
X-169900Y183400D03*
X-168400Y183410D03*
X-174400Y183500D03*
X-184600Y181400D03*
X-252400Y180786D03*
X-255900D03*
X-164600Y241200D03*
Y242400D03*
X-66768Y297683D03*
X-178700Y183100D03*
X-176900Y181500D03*
X-198100Y180800D03*
X-193600D03*
X-151000Y248600D03*
X-152500Y248700D03*
X-135300Y224900D03*
X-144400Y237000D03*
X-63000Y229414D03*
X-62500Y253000D03*
X-190394Y253553D03*
X-191694Y274018D03*
X-210694Y269588D03*
X-242394Y275453D03*
X-48614Y208000D03*
Y205000D03*
X-70314Y253600D03*
X-58814Y214300D03*
X-65314Y223600D03*
X-121935Y237300D03*
X-66700Y231635D03*
Y239635D03*
X-119593Y241176D03*
X-70314Y245600D03*
X-109100Y258600D03*
X-63614Y258500D03*
X-102200Y206900D03*
X-102400Y209500D03*
X-88300Y276100D03*
Y277600D03*
X-179000Y191638D03*
X-217716Y282553D03*
X-228532Y289553D03*
X-217716Y310053D03*
X-229594Y316053D03*
X-176400Y183600D03*
X-177900Y192738D03*
Y191638D03*
X-179000Y192738D03*
X-221666Y211239D03*
X-231416D03*
X-229466D03*
X-227516D03*
X-225566D03*
X-223616D03*
X-266694Y269588D03*
X-189500Y192638D03*
X-188400D03*
Y191538D03*
X-189500D03*
X-180930Y183510D03*
X-221666Y220039D03*
X-227516D03*
X-225566D03*
X-223616D03*
X-219716D03*
X-231416D03*
X-229466D03*
X-184960Y183530D03*
X-189510Y183580D03*
X-183500Y191638D03*
X-184500Y192738D03*
Y191638D03*
X-183500Y192738D03*
X-219716Y211239D03*
X-225747Y215639D03*
X-229466D03*
X-221666D03*
X-219435D03*
X-231416D03*
X-223346Y215588D03*
X-227516Y215639D03*
X-196637Y302116D03*
X-139900Y223500D03*
X-140838Y224500D03*
Y225500D03*
X-139838Y224500D03*
X-127700Y216400D03*
X-128700Y215600D03*
X-127700Y215400D03*
Y217400D03*
X-126704Y216902D03*
X-132500Y218900D03*
X-131604Y219602D03*
X-131700Y217000D03*
X-132600Y216300D03*
Y213800D03*
X-131700Y214500D03*
X-121200Y208600D03*
X-120200D03*
X-114000Y192000D03*
X-153000Y210700D03*
Y207800D03*
X-153100Y204900D03*
X-152500Y214500D03*
X-151700Y213700D03*
X-171900Y191600D03*
X-173000Y192738D03*
Y191638D03*
X-171900Y192700D03*
X-48614Y211000D03*
X-139965Y181500D03*
X-168376Y274018D03*
X-242394Y271317D03*
X-54700Y218800D03*
X-57100D03*
X-54700Y219900D03*
X-54690Y220990D03*
X-57300Y220900D03*
X-134700Y234600D03*
X-135700Y233600D03*
Y234600D03*
X-133700D03*
Y233600D03*
X-134700D03*
X-141000Y234600D03*
X-140000D03*
Y233600D03*
X-139100Y234100D03*
X-141000Y233600D03*
X-139100Y233100D03*
X-111000Y219500D03*
X-115000Y192000D03*
X-110300Y213262D03*
X-111300D03*
X-128700Y216600D03*
X-139838Y225500D03*
X-116400Y213162D03*
X-115400D03*
X-114000Y193200D03*
X-115200D03*
X-114500Y196700D03*
X-115500D03*
Y197700D03*
X-115600Y201000D03*
Y202000D03*
X-114600Y201000D03*
Y202000D03*
X-121200Y209600D03*
X-120200D03*
X-122200D03*
Y208600D03*
X-110300Y212262D03*
X-111300D03*
X-115400Y212162D03*
X-116400D03*
X-114500Y197700D03*
X-107200Y269600D03*
X-108700Y268100D03*
Y269600D03*
X-107200Y268100D03*
X-151200Y223362D03*
X-152200D03*
Y224362D03*
X-150200D03*
Y223362D03*
X-151200Y224362D03*
X-150900Y263600D03*
X-149800Y267100D03*
Y268100D03*
X-150900Y267100D03*
Y269300D03*
X-149800D03*
X-150900Y268100D03*
Y257100D03*
X-149800Y258100D03*
X-150900D03*
X-149800Y257100D03*
Y263600D03*
X-57300Y219800D03*
X-128562Y298000D03*
X-127500D03*
X-129500Y297000D03*
X-128500D03*
X-127500D03*
X-134800Y295600D03*
X-131100Y298200D03*
X-132162D03*
X-135262D03*
X-134200D03*
X-78900Y294000D03*
X-80900Y296000D03*
X-79900Y295000D03*
X-78900D03*
X-79900Y294000D03*
X-80900D03*
X-80000Y301000D03*
X-81000Y299000D03*
X-80000Y300000D03*
X-93700Y275400D03*
X-98700Y276600D03*
X-97700D03*
Y275600D03*
X-103700Y276600D03*
X-102700Y275600D03*
X-103700D03*
X-102700Y276600D03*
X-159095Y194172D03*
X-159523Y223166D03*
X-159525Y248950D03*
Y269072D03*
X-159310Y311012D03*
X-156421Y191497D03*
Y215356D03*
X-156262Y248950D03*
X-156422Y269286D03*
X-143262Y305234D03*
X-116408Y305128D03*
X-173000Y206362D03*
Y207462D03*
X-174100Y206362D03*
Y207462D03*
X-137300Y298200D03*
X-138362D03*
X-139362D03*
X-135800Y295600D03*
X-132800Y293000D03*
X-133162Y298200D03*
X-134800Y293000D03*
X-93700Y281800D03*
X-104400Y284400D03*
Y288100D03*
X-104414Y280600D03*
X-97600Y301686D03*
X-90000D03*
X-67900Y270835D03*
X-136800Y295600D03*
X-133800Y295700D03*
X-103700Y277600D03*
X-89661Y305342D03*
X-57885Y304914D03*
X-53499Y284906D03*
X-44191Y220178D03*
X-44512Y204451D03*
Y188403D03*
X-94700Y281800D03*
X-91700D03*
X-97700D03*
X-96700D03*
X-90700D03*
X-92700D03*
X-95700D03*
X-190400Y226600D03*
X-189200Y226800D03*
X-188100Y226700D03*
X-185300Y226600D03*
X-184200Y226500D03*
X-183000Y226600D03*
X-185300Y225400D03*
X-184200D03*
X-183100D03*
X-189400Y225500D03*
X-190500D03*
X-188300D03*
X-185100Y212738D03*
X-184294Y207508D03*
X-185394D03*
X-184294Y206408D03*
X-185394D03*
X-189494Y211591D03*
X-190594D03*
X-184000Y211638D03*
X-185100D03*
X-102700Y277600D03*
X-98700D03*
X-97700D03*
X-92700Y275400D03*
X-93700Y276400D03*
X-92700D03*
X-138862Y295600D03*
X-136262Y298200D03*
X-137862Y293100D03*
X-139000D03*
X-136800Y293000D03*
X-135800D03*
X-131500Y295500D03*
X-133800Y293000D03*
X-180100Y206362D03*
Y207462D03*
X-189500Y206362D03*
Y207462D03*
X-190600Y206362D03*
Y207462D03*
X-190594Y212691D03*
X-189494D03*
X-184000Y212738D03*
X-190500Y227700D03*
X-185200D03*
X-184800Y230400D03*
X-183600D03*
X-186000D03*
X-184100Y227800D03*
X-183000D03*
X-189300Y227900D03*
X-188100D03*
X-179000Y206362D03*
Y207462D03*
X-107300Y258300D03*
X-71200Y263500D03*
X-93800Y301686D03*
X-132600Y295700D03*
X-126500Y297000D03*
Y296000D03*
Y298000D03*
X-129500Y296000D03*
X-128500D03*
X-127500D03*
X-124136Y291717D03*
X-123136Y292717D03*
Y291717D03*
X-124136Y292717D03*
X-137862Y295600D03*
X-127300Y294400D03*
X-128300D03*
X-131800Y293000D03*
X-130800D03*
X-98700Y275600D03*
X-79900Y296000D03*
X-78900D03*
X-80900Y295000D03*
X-80000Y299000D03*
X-81000Y300000D03*
Y301000D03*
X-79000D03*
Y299000D03*
Y300000D03*
X-34500Y188700D03*
X-198094Y263353D03*
X-195294Y248053D03*
X-116200Y241316D03*
X-66689Y216746D03*
X-72600Y263500D03*
X-60715Y247038D03*
X-68200Y246100D03*
X-166694Y238718D03*
X-70314Y249600D03*
X-245500Y185000D03*
Y183600D03*
X-21678Y248760D03*
X-121000Y193000D03*
X-122000Y194000D03*
Y193000D03*
X-162600Y182000D03*
X-124567Y191433D03*
X-124618Y196172D03*
X-250916Y220039D03*
X-88700Y263300D03*
X-89700Y260800D03*
X-90700D03*
X-88700D03*
X-89700Y265800D03*
X-90700D03*
X-92700D03*
X-91700Y260800D03*
Y263300D03*
X-92700D03*
X-93700D03*
Y265800D03*
X-91700D03*
X-88700D03*
X-87700Y263300D03*
X-86700D03*
X-90700D03*
X-89700D03*
X-63900Y270800D03*
X-62700D03*
X-121000Y192000D03*
X-122000D03*
X-123000Y195000D03*
Y193900D03*
X-120000Y192000D03*
Y195000D03*
Y194000D03*
Y193000D03*
X-121000Y195000D03*
X-122000D03*
X-121000Y194000D03*
X-114300Y184500D03*
Y185600D03*
Y186700D03*
Y187800D03*
X-113700Y188900D03*
X-114700D03*
X-115700D03*
X-116700D03*
X-114300Y183500D03*
X-116800Y182800D03*
X-115300Y184700D03*
X-120700Y187800D03*
X-117300Y186800D03*
X-118300Y187900D03*
X-117300Y187800D03*
X-116300Y183700D03*
Y184700D03*
Y185700D03*
X-117300Y183700D03*
X-118300D03*
Y184700D03*
Y185700D03*
X-117300D03*
X-116300Y187800D03*
X-118300Y186800D03*
X-117300Y184700D03*
X-116300Y186800D03*
X-62300Y211500D03*
X-141200Y241100D03*
X-136200Y238900D03*
X-135700Y238000D03*
X-138200Y241100D03*
X-140700Y238000D03*
X-139200Y241100D03*
X-142200D03*
X-140200D03*
X-138700Y238000D03*
X-137700D03*
X-138700Y242100D03*
X-147600Y243700D03*
X-148600D03*
X-143600D03*
X-145600D03*
X-137200Y238900D03*
X-136700Y238000D03*
X-145400Y239400D03*
X-146400D03*
X-148400D03*
X-147400D03*
X-149400D03*
X-144400D03*
X-141700Y242100D03*
X-139200Y238900D03*
X-138200D03*
X-141700Y238000D03*
X-142700D03*
X-142200Y238900D03*
X-115300Y186800D03*
Y185700D03*
X-117800Y182800D03*
X-115300Y187800D03*
Y183700D03*
X-117700Y188900D03*
X-70314Y229600D03*
X-66700Y236565D03*
X-70314Y220240D03*
X-139700Y238000D03*
X-144600Y243700D03*
X-140700Y242100D03*
X-139700D03*
X-142700D03*
X-137700D03*
X-146600Y243700D03*
X-143200Y241100D03*
X-140200Y238900D03*
X-141200D03*
X-143200D03*
X-57300Y247000D03*
X-147235Y230300D03*
Y229300D03*
X-148235Y230300D03*
Y229300D03*
X-147400Y227900D03*
X-148400D03*
X-146400Y226900D03*
Y227900D03*
X-147400Y226900D03*
X-148400D03*
X-64500Y253800D03*
X-237266Y215639D03*
X-112700Y263200D03*
X-115800Y221100D03*
X-59114Y247000D03*
X-180230Y216330D03*
X-188400Y221800D03*
X-189400Y221780D03*
X-190410Y221800D03*
X-190300Y219300D03*
X-182980Y215252D03*
X-184010D03*
X-185030Y215272D03*
X-182950Y216282D03*
X-184010D03*
X-185020Y216302D03*
X-188480Y215212D03*
X-189480Y215192D03*
X-190490Y215212D03*
X-188510Y216232D03*
X-189520Y216252D03*
X-190520D03*
X-179300Y221700D03*
X-180330D03*
X-181350Y221720D03*
X-179270Y222730D03*
X-180330D03*
X-181340Y222750D03*
X-181240Y216350D03*
X-175900Y215200D03*
X-179200Y215300D03*
X-180230D03*
X-181250Y215320D03*
X-179170Y216330D03*
X-188430Y222820D03*
X-189440Y222840D03*
X-190440D03*
X-183220Y221790D03*
X-184250D03*
X-185270Y221810D03*
X-183190Y222820D03*
X-184250D03*
X-185260Y222840D03*
X-188600Y219300D03*
X-178200Y222800D03*
Y221700D03*
X-176930Y215200D03*
X-177130Y222630D03*
Y221600D03*
X-176100D03*
X-177950Y215220D03*
X-177940Y216250D03*
X-176930Y216230D03*
X-172960Y202728D03*
X-173970Y202738D03*
X-171920Y202670D03*
X-175990Y186125D03*
X-205800Y187200D03*
X-171950Y196260D03*
X-173030Y195272D03*
X-174040D03*
X-173060Y196302D03*
X-174070Y196312D03*
X-171920Y195230D03*
X-171890Y201640D03*
X-172930Y201698D03*
X-173940D03*
X-179030Y195272D03*
X-180040D03*
X-179060Y196302D03*
X-180070Y196312D03*
X-179970Y202738D03*
X-179940Y201698D03*
X-190550Y202640D03*
X-188450Y201580D03*
X-188480Y202610D03*
X-189510Y201600D03*
X-189530Y195272D03*
X-190540D03*
X-188460Y195280D03*
X-188490Y196310D03*
X-184490Y186625D03*
X-185500D03*
X-188990D03*
X-190000D03*
X-181500D03*
X-180490D03*
X-190520Y201600D03*
X-189540Y202630D03*
X-184530Y195272D03*
X-185540D03*
X-184560Y196302D03*
X-185570Y196312D03*
X-183400Y195330D03*
X-183430Y196360D03*
X-189560Y196302D03*
X-190570Y196312D03*
X-178020Y195310D03*
X-178050Y196340D03*
X-177900Y201680D03*
X-177930Y202710D03*
X-178930Y201698D03*
X-178960Y202728D03*
X-177000Y186125D03*
X-184224Y201744D03*
X-185234D03*
X-184254Y202774D03*
X-185264Y202784D03*
X-183150Y201710D03*
X-183180Y202740D03*
X-107700Y263200D03*
X-67300Y267700D03*
X-242800Y184900D03*
X-247900Y185300D03*
Y183700D03*
X-230195Y23885D03*
X-164699Y23101D03*
X-227950Y20470D03*
X-203800Y179900D03*
X-252900Y178900D03*
X-255400Y179000D03*
X-245800Y174100D03*
X-190400Y180500D03*
X-216000Y176486D03*
Y179114D03*
X-264100Y179800D03*
X-187394Y170162D03*
X-211628Y170001D03*
X-226393Y169894D03*
X-265211Y170345D03*
X-212600Y174100D03*
X-205200Y179900D03*
X-155232Y168069D03*
X-44570Y148541D03*
X-165588Y28045D03*
X-163020Y26192D03*
X-11600Y153300D03*
X-38700Y153400D03*
X-61000Y150700D03*
X-165000Y176600D03*
X-145070Y160500D03*
X-79535Y153000D03*
X-51614Y147000D03*
X-70000Y152114D03*
X-66600Y152100D03*
X-73000Y152114D03*
X-76500Y162800D03*
X-75000Y162500D03*
X-82100Y165300D03*
X-69614Y180500D03*
X-83386D03*
X-123100Y178800D03*
X-124100D03*
X-121100Y178700D03*
X-123000Y177800D03*
X-123600Y179800D03*
X-71386Y180500D03*
X-78886Y156500D03*
X-78500Y162800D03*
X-76500Y176600D03*
X-245374Y30253D03*
X-245664Y37503D03*
X-233340Y73171D03*
Y76650D03*
X-251319Y71141D03*
X-259148Y77230D03*
X-93500Y151700D03*
X-60100Y146700D03*
X-64100Y152000D03*
X-77614Y180500D03*
X-130300Y175700D03*
X-129200Y176800D03*
X-130300Y176700D03*
X-92500Y155500D03*
X-129200Y174800D03*
X-129100Y175800D03*
X-137035Y165500D03*
X-37900Y166700D03*
X-142000Y160500D03*
X-64000Y149500D03*
X-73100Y155700D03*
X-121400Y179800D03*
X-122500D03*
X-122100Y178800D03*
X-121900Y177800D03*
X-124000Y177700D03*
X-83500Y167500D03*
X-10800Y152500D03*
X-37800Y152600D03*
X-129100Y173700D03*
X-130100Y173600D03*
X-130200Y174600D03*
X-78484Y176709D03*
X-79535Y149000D03*
X-221739Y75780D03*
X-221594Y79550D03*
X-244070Y24888D03*
X-240186Y24106D03*
X-202000Y106800D03*
X-235001Y22399D03*
X-235104Y26223D03*
X-21219Y93034D03*
X-19479Y120872D03*
X-111403Y55046D03*
X-94439Y77230D03*
X-57901Y85639D03*
X-83710Y49827D03*
X-44808Y100856D03*
X-178724Y167256D03*
X-255959Y98543D03*
X-250000Y53500D03*
X-259500Y68500D03*
X-253500Y82000D03*
X-254500Y83000D03*
X-263600Y68500D03*
X-250100Y59900D03*
X-272500Y60000D03*
Y62500D03*
X-252600Y57000D03*
X-252555Y64600D03*
X-272500Y55000D03*
X-250800Y54400D03*
X-257060Y60287D03*
X-252600Y59500D03*
X-273200Y75300D03*
X-250200Y51100D03*
X-261713Y50000D03*
X-267287Y48787D03*
X-272445Y57300D03*
X-252555Y62100D03*
X-260900Y124500D03*
X-263200Y136398D03*
X-267400Y125300D03*
Y137100D03*
Y131100D03*
X-251370Y102820D03*
X-253900Y103700D03*
X-250800Y109500D03*
Y108300D03*
X-254168Y137490D03*
X-258841Y158831D03*
X-235104Y29195D03*
X-270000Y159886D03*
X-267400Y142900D03*
X-274700Y152200D03*
X-263568Y140831D03*
X-250759Y149231D03*
X-256965Y147000D03*
X-258614Y151500D03*
X-259114Y143000D03*
X-263200Y90300D03*
X-74965Y105500D03*
X-249830Y101380D03*
X-251230D03*
X-249970Y102820D03*
X-261700Y90300D03*
X-255400Y93700D03*
X-61972Y46659D03*
X-102685Y44985D03*
X-142000Y90000D03*
X-55100Y104100D03*
X-133886Y107500D03*
X-86500Y106900D03*
X-83400Y104700D03*
X-63200Y138300D03*
X-75731Y142769D03*
X-63528Y127372D03*
X-81900Y142700D03*
X-52000Y135465D03*
X-49614Y125000D03*
X-70000Y87000D03*
X-66274Y83774D03*
X-67526Y85026D03*
X-64500Y110800D03*
X-67800Y114800D03*
X-78002Y105500D03*
X-78900Y115300D03*
X-82100Y115200D03*
X-55500Y135465D03*
X-145614Y107500D03*
X-95600Y144500D03*
X-59900Y143200D03*
X-49900Y143600D03*
X-49500Y113614D03*
X-53620Y55011D03*
X-59744Y58352D03*
X-55730Y54320D03*
X-58353Y59743D03*
X-90000Y105114D03*
X-50500Y121500D03*
X-59400Y104000D03*
X-53900Y124400D03*
X-49000Y137114D03*
X-49614Y128000D03*
X-51114Y108686D03*
X-63500Y135900D03*
X-73900Y143500D03*
X-56404Y52227D03*
X-63670Y77770D03*
X-90270Y51270D03*
X-87270Y54270D03*
X-72270Y69270D03*
X-69270Y72270D03*
X-51393Y66703D03*
X-46660Y61971D03*
X-84270Y57270D03*
X-81270Y60270D03*
X-78270Y63270D03*
X-75270Y66270D03*
X-71000Y104886D03*
X-56960Y61135D03*
X-68900Y53500D03*
X-66553Y74966D03*
X-88200Y80400D03*
X-94815Y48185D03*
X-52228Y56403D03*
X-61200Y57000D03*
X-52100Y131500D03*
X-60400D03*
X-90000Y109600D03*
X-81700Y110500D03*
X-236235Y77235D03*
X-220365Y87800D03*
X-216135D03*
X-230040Y77040D03*
X-203240Y79440D03*
X-80456Y142744D03*
X-160100Y70000D03*
X-182386Y73500D03*
X-206635Y67300D03*
X-158386Y48500D03*
Y45500D03*
X-156000Y45114D03*
X-156914Y74100D03*
X-158686D03*
X-197900Y74314D03*
X-194600D03*
X-180900Y59800D03*
X-178969Y61937D03*
X-81886Y113500D03*
X-94000Y106138D03*
X-95100Y105400D03*
Y106500D03*
X-245400Y59300D03*
X-249300Y80500D03*
X-242800Y86400D03*
X-237210Y86610D03*
X-238150Y87630D03*
X-231800Y51000D03*
X-230500D03*
X-216500Y49900D03*
X-236300Y55800D03*
X-237600D03*
X-230500Y55900D03*
X-237600Y51000D03*
X-230200Y60600D03*
X-236300Y60700D03*
X-176500Y77000D03*
X-162500Y77600D03*
X-173000Y78886D03*
X-198900Y60900D03*
X-200000Y62100D03*
X-197800Y60900D03*
X-200000D03*
X-173000Y74886D03*
X-196035Y67000D03*
X-196400Y71000D03*
X-189000Y77000D03*
X-185500Y79886D03*
X-193000Y56886D03*
X-178600Y75700D03*
X-194386Y63500D03*
X-244000Y87800D03*
X-184874Y58000D03*
X-201400Y59600D03*
X-172800Y50400D03*
X-179800Y49290D03*
X-156100Y66600D03*
X-182386Y79500D03*
X-156100Y70000D03*
X-160100Y66500D03*
X-233510Y81790D03*
X-239790Y82950D03*
X-216600Y48100D03*
X-229300Y100600D03*
X-238920Y81930D03*
X-234520Y82960D03*
X-231500Y60600D03*
X-237600Y60700D03*
X-231800Y55900D03*
X-236300Y51000D03*
X-167000Y74886D03*
X-170000D03*
X-191700Y74200D03*
X-249100Y51100D03*
X-248100D03*
X-251236Y51137D03*
X-141700Y45000D03*
X-144700D03*
X-206700Y79400D03*
X-143700Y45000D03*
X-142700D03*
X-156914Y77300D03*
X-124990Y64973D03*
X-142706D03*
X-208200Y64600D03*
X-180937Y50126D03*
X-208200Y79400D03*
X-172800Y72000D03*
Y73100D03*
X-191700Y70800D03*
X-193000Y67000D03*
X-154200Y78600D03*
X-191700Y71900D03*
Y73100D03*
X-19900Y145200D03*
X-19100Y144400D03*
X-146114Y144000D03*
X-133886D03*
X-235900Y138500D03*
X-206000Y131100D03*
X-204700Y138800D03*
X-234400Y122800D03*
X-227930Y111360D03*
X-236500Y125000D03*
X-229780Y137300D03*
X-226010Y131990D03*
X-210900Y107300D03*
X-203060Y117360D03*
X-207260Y108060D03*
X-236500Y118500D03*
X-215500Y137886D03*
X-221500D03*
X-218500D03*
X-212500D03*
X-234900Y138500D03*
X-227109Y148324D03*
X-226026Y148330D03*
X-233100Y158986D03*
X-233300Y162214D03*
X-205786Y80394D03*
X-98000Y99000D03*
X-228900Y164900D03*
X-228600Y160400D03*
X-230131Y144471D03*
X-212100Y141000D03*
X-208300Y140200D03*
X-235500Y145300D03*
X-208200Y146600D03*
X-207500Y145600D03*
X-229083Y144484D03*
X-218670Y148840D03*
Y147640D03*
X-238879Y160663D03*
X-246541Y140231D03*
X-245000Y123500D03*
X-246000Y125000D03*
X-245600Y114800D03*
X-247600Y114700D03*
X-248214Y162859D03*
X-230282Y149431D03*
X-223800Y148200D03*
X-230244Y148271D03*
X-229135Y148219D03*
X-229174Y149406D03*
X-223800Y149200D03*
X-227116Y149425D03*
X-226019Y149426D03*
X-220300Y140800D03*
X-221600D03*
X-220900Y139700D03*
X-222000D03*
X-227000Y160614D03*
X-219800Y160700D03*
X-229900Y164500D03*
X-248330Y101380D03*
X-248170Y102820D03*
X-208660Y104260D03*
X-200900Y106800D03*
X-246541Y144169D03*
X-242200Y114900D03*
X-243800Y106600D03*
X-240820Y118620D03*
X-241950Y119580D03*
X-241100Y108600D03*
X-149500Y92000D03*
X-218620Y146370D03*
X-215600Y147600D03*
X-185400Y34600D03*
X-184300D03*
X-183300D03*
X-182200D03*
X-182400Y39500D03*
X-183500D03*
X-184500D03*
X-185600D03*
X-175700Y38300D03*
X-147500Y93500D03*
X-218200Y160700D03*
X-183941Y30500D03*
X-140000Y36300D03*
X-237610Y30556D03*
X-232448Y30666D03*
X-99285Y30715D03*
X-90086Y38686D03*
X-91200Y39800D03*
X-140965Y39500D03*
X-140000Y37500D03*
X-141000D03*
X-164965Y41500D03*
X-156000Y42386D03*
X-159965Y34700D03*
X-235200Y32300D03*
X-193000Y39000D03*
X-188200Y42100D03*
X-229235Y36300D03*
X-238300D03*
X-216800Y44100D03*
X-195000Y37900D03*
X-197000D03*
X-195000Y39000D03*
X-197000D03*
Y40200D03*
X-194900D03*
X-193000Y37900D03*
Y40100D03*
X-178114Y37000D03*
X-161490Y33010D03*
X-164600Y37900D03*
X-185400Y35700D03*
X-184400D03*
X-183400D03*
X-182300D03*
X-185600Y38400D03*
X-184500D03*
X-183500D03*
X-182400D03*
X-147100Y44400D03*
Y42700D03*
X-189000Y28500D03*
X-178114Y34000D03*
X-148315Y25484D03*
X-151900Y37900D03*
Y36800D03*
X-153100Y38400D03*
X-152100Y39000D03*
X-148315Y23516D03*
X-176500Y41386D03*
X-163035Y34700D03*
X-268821Y36645D03*
X-259213Y43287D03*
X-271213D03*
X-265578Y31076D03*
X-249790Y28812D03*
X-224351Y28803D03*
X-272343Y94483D03*
X-245954Y75345D03*
X-220726Y37793D03*
X-220581Y51132D03*
X-85974Y75506D03*
X-87000Y155386D03*
X-87506Y73974D03*
X-84000Y155386D03*
X-164500Y27000D03*
Y29000D03*
X-137685Y29421D03*
Y31390D03*
Y21547D03*
Y25484D03*
Y27453D03*
X-165000Y21500D03*
X-137685Y23516D03*
X-177000Y61937D03*
X-175031D03*
X-79974Y81506D03*
X-97974Y63006D03*
X-91974Y69006D03*
X-61600Y74700D03*
X-93506Y67474D03*
X-160900Y60200D03*
Y61600D03*
X-160600Y53100D03*
Y51700D03*
X-59188Y49443D03*
X-259555Y71000D03*
X-263555D03*
X-263716Y139432D03*
Y137980D03*
X-259142Y128000D03*
Y131000D03*
X-267418Y133083D03*
Y135051D03*
X-262918Y93758D03*
X-91730Y52730D03*
X-48052Y60578D03*
X-73285Y85726D03*
X-99506Y61474D03*
X-62700Y73600D03*
X-49444Y59187D03*
X-75100Y83900D03*
X-221306Y62006D03*
X-81680Y79850D03*
X-88730Y55730D03*
X-60579Y48051D03*
X-258700Y92000D03*
X-245500Y35100D03*
X-245300Y41600D03*
X-245400Y44500D03*
Y46900D03*
X-250300Y62100D03*
X-248900Y58200D03*
X-245500Y61400D03*
X-211700Y157700D03*
X-251600Y75900D03*
X-256800Y80200D03*
X-258500Y84000D03*
X-260100Y81100D03*
X-253800Y79600D03*
X-254900Y72600D03*
X-250200Y64500D03*
X-246600Y77000D03*
X-251800Y68800D03*
X-248000Y61900D03*
X-245200Y56600D03*
X-245900Y49200D03*
Y52600D03*
X-246800Y55400D03*
X-247200Y32800D03*
X-247500Y37500D03*
X-216100Y156700D03*
X-238000Y27600D03*
X-236700Y33700D03*
X-247300Y28300D03*
X-241200Y28400D03*
X-243700Y31200D03*
X-259500Y95700D03*
X-237400Y46800D03*
X-237300Y44500D03*
X-237600Y42100D03*
X-237400Y39800D03*
X-229600Y40900D03*
X-229800Y43700D03*
X-230400Y47900D03*
X-234700Y35100D03*
X-235300Y39800D03*
X-234700Y47300D03*
X-258100Y87600D03*
X-232500Y34100D03*
X-235500Y43600D03*
X-229300Y38600D03*
X-255500Y76300D03*
X-272294Y221932D03*
X-272295Y224268D03*
X-275084Y247618D03*
X-274784Y193311D03*
X-273494Y245853D03*
X-274400Y186500D03*
X-275084Y196691D03*
Y250998D03*
X-272090Y201560D03*
X-273585Y302316D03*
X-273405Y304284D03*
X-271990Y226930D03*
X-273800Y227020D03*
X-274234Y214024D03*
X-273264Y233143D03*
X-274234Y201544D03*
X-275144Y207953D03*
X-273264Y207884D03*
X-273394Y247618D03*
X-275374Y302316D03*
X-274200Y218798D03*
X-275084Y198381D03*
X-273818Y203926D03*
X-275374Y312159D03*
Y296410D03*
X-273405Y312159D03*
Y296410D03*
X-273105Y308437D03*
X-273405Y306253D03*
X-273525Y300347D03*
X-275374Y316096D03*
X-273705D03*
X-275374Y298379D03*
Y314241D03*
X-273405Y314127D03*
X-273305Y294442D03*
X-275574D03*
Y292473D03*
X-273305D03*
X-273405Y310190D03*
X-275374Y306253D03*
Y310190D03*
Y308222D03*
Y300347D03*
X-273525Y298379D03*
X-274235Y241920D03*
X-274784Y252688D03*
X-275304Y230407D03*
X-273364Y240951D03*
X-272200Y236800D03*
X-275205Y243288D03*
Y212655D03*
X-275404Y240651D03*
X-274900Y215200D03*
X-272194Y250553D03*
X-272294Y242019D03*
X-273100Y225500D03*
X-273395Y250999D03*
X-273064Y202712D03*
X-275700Y189500D03*
X-275104Y228003D03*
X-275300Y192100D03*
X-273394Y198381D03*
X-274234Y234411D03*
X-275085Y249309D03*
X-272275Y244576D03*
X-273294Y212553D03*
X-275387Y290505D03*
X-273305D03*
X-275204Y200176D03*
X-275084Y195001D03*
X-272300Y209400D03*
X-275204Y217928D03*
X-272900Y223000D03*
X-275204Y238415D03*
X-274234Y231675D03*
X-211646Y250038D03*
X-212705Y251259D03*
X-273318Y243673D03*
X-272294Y203980D03*
X-273264Y238215D03*
X-275100Y220000D03*
X-274100Y221700D03*
X-273300Y205500D03*
X-274920Y205390D03*
X-272280Y206830D03*
X-275300Y202800D03*
X-252866Y211239D03*
Y206839D03*
Y215639D03*
X-244000Y190000D03*
X-250916Y206839D03*
X-266516Y228839D03*
X-268414Y229359D03*
X-184825Y290305D03*
X-202542Y308022D03*
X-171046Y306053D03*
X-261594Y290505D03*
X-245746Y308022D03*
X-260666Y235439D03*
X-89563Y240637D03*
X-215604Y200232D03*
X-218140Y200202D03*
X-219408Y201172D03*
X-214342Y201174D03*
X-214296Y199337D03*
X-216872Y199232D03*
Y201172D03*
X-211460Y199890D03*
X-209850Y200060D03*
X-212768Y200932D03*
X-210825Y201445D03*
X-210125Y198382D03*
X-213088Y196402D03*
X-218140Y198262D03*
X-219400Y199400D03*
X-223212Y200200D03*
X-251107Y200201D03*
X-251158Y198243D03*
X-251107Y196321D03*
X-251360Y194300D03*
X-270354Y221732D03*
X-269385Y222900D03*
X-270354Y224267D03*
X-108700Y235200D03*
X-267592Y242889D03*
X-266324Y249679D03*
X-101374Y242806D03*
X-91531Y225189D03*
X-94300Y226200D03*
X-86700Y222600D03*
Y221600D03*
X-92700Y253400D03*
X-91500Y254000D03*
X-97700Y251600D03*
Y252600D03*
X-98200Y221600D03*
Y222600D03*
X-78100Y226600D03*
X-79100D03*
X-81200Y253100D03*
Y252100D03*
X-104700Y252600D03*
Y251600D03*
X-104200Y222600D03*
X-105200D03*
X-107200Y230500D03*
X-225748Y251618D03*
Y200200D03*
X-212880Y194741D03*
X-268859Y194381D03*
Y196221D03*
X-268826Y197846D03*
X-239700Y199320D03*
X-239794Y200953D03*
X-271396Y247839D03*
X-270127Y246768D03*
X-212718Y199002D03*
X-210225Y196692D03*
X-215604Y198262D03*
X-215354Y196400D03*
X-89763Y243006D03*
X-99800Y244800D03*
X-94400Y243900D03*
X-99406Y237000D03*
X-98400Y240000D03*
X-98500Y232000D03*
X-96500Y234000D03*
X-95469Y242906D03*
X-80700Y224100D03*
X-98137Y241937D03*
X-110200Y235200D03*
X-107200Y229100D03*
X-86100Y216400D03*
X-72086Y229600D03*
X-87594Y231094D03*
X-208535Y247619D03*
X-240964Y249679D03*
X-230574Y253953D03*
X-271424Y220465D03*
X-271324Y207784D03*
X-269691Y300518D03*
X-269468Y314127D03*
X-78426Y211714D03*
X-94635Y211200D03*
X-98700Y211700D03*
X-89563Y237000D03*
X-87594Y248811D03*
X-93500Y237000D03*
X-81689D03*
X-103343D03*
X-91531Y238969D03*
Y235031D03*
X-105311Y242906D03*
X-81689Y244874D03*
X-87594Y243206D03*
X-94635Y215200D03*
X-87594Y237000D03*
X-87894Y229126D03*
X-97437Y238969D03*
X-85900Y245200D03*
X-176951Y296210D03*
X-177027Y300108D03*
X-176851Y315896D03*
X-176951Y290305D03*
X-263788Y242018D03*
X-258716Y238039D03*
X-261251Y238038D03*
X-259983Y242888D03*
X-260083Y240948D03*
Y248708D03*
X-267500Y290505D03*
X-267613Y296486D03*
X-267700Y304284D03*
Y300347D03*
X-267380Y310190D03*
X-263663Y298379D03*
X-252375Y246768D03*
X-255618Y290505D03*
X-265531Y298379D03*
X-211795Y202713D03*
X-213340Y202401D03*
X-249839Y246768D03*
X-208985Y221733D03*
X-219408Y197292D03*
X-259625Y316096D03*
X-234624Y246768D03*
X-206845Y239483D03*
X-247016Y220039D03*
Y233239D03*
Y224439D03*
Y228839D03*
Y215639D03*
Y206839D03*
X-245846Y304184D03*
Y296410D03*
X-238428Y202141D03*
X-245846Y298379D03*
Y294442D03*
X-207915Y243288D03*
X-212765Y239483D03*
X-211795Y230607D03*
Y228072D03*
X-221944Y246769D03*
X-219408D03*
X-216872D03*
X-239696Y246768D03*
X-265800Y238000D03*
X-263788Y245799D03*
X-254911Y239008D03*
X-257447Y240948D03*
X-253643Y238338D03*
X-254911Y246768D03*
X-257500Y246900D03*
X-268759Y243858D03*
X-221615Y233290D03*
X-237160Y244829D03*
Y242889D03*
X-207915Y235680D03*
X-237360Y239009D03*
X-234624Y239053D03*
X-237160Y246768D03*
X-216872Y240948D03*
X-229466Y233239D03*
X-223616D03*
X-225286D03*
X-227516D03*
X-248571Y251618D03*
Y249678D03*
X-242261Y238538D03*
X-248571Y247738D03*
X-249850Y238538D03*
X-217615Y235680D03*
X-248571Y245798D03*
X-247277Y238538D03*
X-244758D03*
X-211795Y235680D03*
X-239667Y238538D03*
X-232050D03*
X-231416Y233295D03*
X-224448Y238538D03*
X-216645Y236948D03*
X-219408Y237068D03*
Y239009D03*
X-221923Y238537D03*
X-226967Y238538D03*
X-218141Y240009D03*
X-229505Y238538D03*
X-209856Y235680D03*
X-213735D03*
X-214336Y246769D03*
X-237160Y248709D03*
X-219616Y233536D03*
X-223616Y206839D03*
X-227516D03*
X-229466D03*
X-231416D03*
X-221666D03*
X-225566D03*
X-213936Y197792D03*
X-218140Y202142D03*
X-209855Y202713D03*
X-208535Y198382D03*
X-216594Y206553D03*
X-208885Y209052D03*
X-210825D03*
X-206845D03*
X-214705D03*
X-212765D03*
X-242232Y246769D03*
X-265531Y315896D03*
X-265451Y312159D03*
X-255394Y306253D03*
X-255688Y314127D03*
X-253720Y300347D03*
Y312303D03*
Y302316D03*
X-255573Y312159D03*
X-255363Y308222D03*
X-267613Y298379D03*
X-251751Y312303D03*
Y292473D03*
Y296310D03*
X-249783Y292473D03*
X-254020Y298379D03*
X-257957D03*
X-255388D03*
X-251751Y294442D03*
X-251855Y316216D03*
X-267591Y250648D03*
X-259983D03*
X-258720Y253270D03*
X-259983Y246768D03*
Y244828D03*
X-266124Y245799D03*
X-230820Y202141D03*
X-220894Y202153D03*
X-225948Y201941D03*
X-206845Y221733D03*
X-210825D03*
X-211795Y225535D03*
Y223000D03*
X-212765Y221733D03*
X-216645Y224268D03*
X-213735Y215392D03*
X-207915D03*
X-211795D03*
X-215675D03*
X-209855D03*
X-214705Y221733D03*
X-216645D03*
X-235316Y215639D03*
Y217839D03*
Y211239D03*
Y206839D03*
Y209039D03*
Y213439D03*
X-239216Y215639D03*
Y217839D03*
Y206839D03*
Y209039D03*
Y213439D03*
Y211239D03*
X-208535Y196692D03*
X-211654Y197752D03*
X-208740Y201510D03*
X-202542Y311959D03*
Y298179D03*
X-198605Y309990D03*
X-200294Y309643D03*
X-235316Y224439D03*
Y222239D03*
Y226639D03*
Y233239D03*
Y228839D03*
Y231039D03*
X-247016Y211239D03*
X-208635Y252689D03*
X-240964Y202142D03*
X-225566Y228839D03*
X-229466D03*
X-219716D03*
X-217615Y228072D03*
X-216645Y229340D03*
X-231416Y228839D03*
X-223616D03*
X-221666D03*
X-216645Y226804D03*
X-227516Y228839D03*
X-227017Y246769D03*
X-232088Y246768D03*
X-210426Y252787D03*
X-243116Y231229D03*
Y233239D03*
X-243194Y226639D03*
Y228839D03*
X-243116Y222239D03*
X-243194Y224439D03*
X-243116Y209039D03*
Y217839D03*
Y213439D03*
Y211239D03*
Y215639D03*
Y206839D03*
X-233356Y202141D03*
X-235892D03*
X-259625Y312059D03*
X-221900Y197100D03*
X-216872Y197292D03*
X-196757Y315896D03*
X-194548Y298059D03*
X-194468Y290305D03*
X-192700D03*
X-245756Y312159D03*
X-245846Y315796D03*
X-239216Y222239D03*
Y224439D03*
Y231039D03*
Y228839D03*
Y226639D03*
Y233239D03*
X-221666Y224439D03*
X-229466D03*
X-231416D03*
X-225566D03*
X-223480D03*
X-227367D03*
X-219716D03*
X-178920Y303984D03*
Y302116D03*
Y300147D03*
X-192700Y313927D03*
Y308022D03*
X-179020Y313627D03*
X-180888Y313927D03*
X-179020Y312159D03*
X-184825Y300147D03*
X-180888D03*
X-192700Y302196D03*
X-179120Y309890D03*
X-188763Y313927D03*
X-182857D03*
X-191031D03*
X-186794Y312253D03*
X-192700Y311959D03*
X-181059Y297956D03*
X-182857Y292273D03*
Y294062D03*
X-184825Y294242D03*
X-190731Y300267D03*
Y296210D03*
X-247814Y294442D03*
Y290505D03*
X-198605Y308022D03*
X-198721Y292273D03*
X-202542Y315896D03*
X-198721Y290305D03*
X-202342Y294242D03*
X-171046Y296210D03*
Y312029D03*
Y300147D03*
X-174983Y315896D03*
X-202542Y306053D03*
X-271437Y316096D03*
Y304284D03*
Y310190D03*
Y296410D03*
Y290505D03*
X-270227Y250648D03*
X-186794Y290106D03*
X-211795Y233144D03*
X-217962Y253588D03*
X-224480Y246769D03*
X-205194Y229353D03*
Y232353D03*
X-180888Y290305D03*
X-192700Y315896D03*
X-194668Y311959D03*
X-196637Y308022D03*
X-91531Y233063D03*
X-93500Y231094D03*
Y248811D03*
X-89563Y235031D03*
X-99406Y248811D03*
X-270354Y226803D03*
X-264559Y213431D03*
X-268415Y211607D03*
X-264566Y228839D03*
X-264494Y230853D03*
X-264572Y217828D03*
X-264566Y222239D03*
X-262610Y217814D03*
X-258718Y220025D03*
X-258705Y222230D03*
X-258712Y217842D03*
X-260661Y217828D03*
X-260666Y231039D03*
X-262616D03*
X-266516Y233239D03*
X-266522Y217842D03*
X-270354Y239683D03*
X-82135Y217800D03*
X-81689Y231094D03*
X-105311Y229126D03*
X-85626Y225189D03*
X-99900Y221300D03*
X-95469Y233063D03*
X-83657Y240937D03*
X-81689Y238969D03*
X-95469D03*
X-91531Y237000D03*
X-95469D03*
X-93500Y235031D03*
X-95469D03*
X-89563Y233063D03*
X-93500D03*
Y238969D03*
X-105311Y237000D03*
X-271324Y233143D03*
X-264566Y226639D03*
X-254816Y228839D03*
Y226639D03*
X-266516D03*
Y222239D03*
X-268414Y221752D03*
Y226823D03*
X-258716Y228839D03*
Y231039D03*
X-254816Y224439D03*
Y231039D03*
X-262616Y233239D03*
X-266323Y202441D03*
X-265056Y205051D03*
X-267591Y203111D03*
X-242332Y197292D03*
X-237160D03*
X-239696Y197192D03*
X-247303Y197291D03*
X-244940Y197230D03*
X-234624Y197491D03*
X-232088Y197292D03*
X-229552D03*
X-224580D03*
X-253843Y202141D03*
X-258815D03*
X-257448Y205051D03*
X-262519Y197291D03*
X-262520Y205051D03*
X-265055Y197291D03*
X-263988Y202141D03*
X-266470Y191380D03*
X-250916Y228839D03*
Y213439D03*
Y211239D03*
Y215639D03*
Y235439D03*
Y230955D03*
Y226639D03*
X-98400Y245800D03*
X-89563Y231094D03*
X-100700Y243900D03*
X-80200Y243800D03*
X-97537Y229126D03*
X-270355Y219196D03*
X-224480Y201172D03*
X-261251Y247738D03*
X-265056Y248809D03*
X-261251Y249678D03*
X-262620Y248709D03*
X-254816Y211239D03*
Y209039D03*
X-255112Y205051D03*
X-254816Y206839D03*
Y213439D03*
X-262616Y209039D03*
X-250930Y233310D03*
X-250916Y224439D03*
Y217839D03*
X-246035Y202141D03*
X-212765Y236948D03*
X-213735Y238216D03*
X-214706Y236948D03*
X-178920Y315729D03*
X-208885Y244555D03*
X-215675Y238216D03*
X-211795D03*
X-242232Y248709D03*
X-245994Y247753D03*
X-213068Y249648D03*
X-205894Y240752D03*
X-87200Y250600D03*
X-99406Y227057D03*
X-99200Y215300D03*
X-101200Y215235D03*
X-95469Y225189D03*
X-266323Y243858D03*
X-271729Y246189D03*
X-270127Y248708D03*
Y244828D03*
X-233356Y198162D03*
Y200202D03*
X-261252Y245799D03*
X-212765Y242020D03*
X-182857Y315896D03*
X-213735Y240752D03*
X-177251Y312059D03*
X-208885Y236948D03*
X-174783Y311959D03*
X-172724Y312013D03*
X-176751Y309990D03*
X-210137Y249309D03*
X-209856Y240752D03*
X-174783Y310090D03*
X-208535Y250999D03*
X-174983Y303984D03*
X-210826Y236948D03*
X-172914Y303884D03*
X-177051Y302106D03*
X-209925Y247713D03*
X-208535Y249310D03*
X-174983Y302070D03*
X-211800Y248409D03*
X-173014Y302116D03*
X-188763Y315596D03*
X-209855Y245624D03*
Y243288D03*
X-211480Y243620D03*
X-186794Y315596D03*
X-214906Y239483D03*
X-214706Y229340D03*
X-212748Y229333D03*
X-192830Y298319D03*
X-212765Y234469D03*
X-196637Y292273D03*
X-213735Y233144D03*
X-194468Y294071D03*
X-181065Y292276D03*
X-208985Y226804D03*
X-215675Y230607D03*
X-194668Y296210D03*
X-213735Y230607D03*
X-192580Y296210D03*
X-194468Y292273D03*
X-215675Y233144D03*
X-214706Y234411D03*
X-196637Y294242D03*
X-188763Y296295D03*
X-208885Y234411D03*
X-190731Y292273D03*
X-207815Y233177D03*
X-188627Y294208D03*
X-207815Y230607D03*
X-188640Y292273D03*
X-209855Y230607D03*
X-190731Y294242D03*
X-209855Y233144D03*
X-188763Y298179D03*
X-210825Y234411D03*
X-178920Y296210D03*
X-210825Y224268D03*
X-176951Y298179D03*
X-209855Y223000D03*
X-213068Y247759D03*
X-172684Y305926D03*
X-177351Y304021D03*
X-180888Y315546D03*
X-203894Y241219D03*
X-208845Y239483D03*
X-174983Y308005D03*
X-210825Y242020D03*
X-210806Y239483D03*
X-172914Y308022D03*
X-208885Y242020D03*
X-177184Y306313D03*
X-209855Y238216D03*
X-213068Y243859D03*
X-175203Y305926D03*
X-194668Y304084D03*
X-219394Y244829D03*
X-198655Y306153D03*
X-219408Y242889D03*
X-215604Y245799D03*
X-200574Y302116D03*
X-196637Y304084D03*
X-218151Y241909D03*
X-218141Y243839D03*
X-200574Y304034D03*
X-218173Y245859D03*
X-200594Y306153D03*
X-215604Y241919D03*
X-198605Y302116D03*
X-215604Y243859D03*
X-198605Y304034D03*
X-213735Y222700D03*
X-173014Y294242D03*
X-215675Y223000D03*
X-172914Y292273D03*
X-178920D03*
X-210825Y226804D03*
X-214706D03*
X-173014Y296210D03*
X-212703Y226765D03*
X-174983Y296210D03*
X-214706Y224268D03*
X-174837Y292283D03*
X-212765Y224197D03*
X-174983Y294242D03*
X-213735Y228072D03*
X-174983Y298179D03*
X-215675Y228072D03*
X-173014Y298179D03*
X-190731D03*
X-213735Y225535D03*
X-192700Y294242D03*
X-214706Y231871D03*
X-186794Y298179D03*
X-208885Y231876D03*
X-182857Y298179D03*
X-209855Y225568D03*
X-186794Y294242D03*
X-208885Y229340D03*
X-186794Y292273D03*
X-210825Y229340D03*
X-181064Y294120D03*
X-207915Y228036D03*
X-224448Y250684D03*
X-224480Y248709D03*
X-220530Y253569D03*
X-223145Y251858D03*
X-180888Y296210D03*
X-209856Y228072D03*
X-223212Y247739D03*
Y249679D03*
X-220676Y247739D03*
Y249679D03*
X-194668Y300147D03*
X-219408Y248709D03*
X-194668Y302116D03*
X-219408Y250648D03*
X-196637Y300147D03*
X-218140Y251618D03*
X-198605Y298179D03*
X-214594Y253953D03*
X-200574Y298139D03*
X-218140Y249679D03*
X-196637Y298179D03*
X-218140Y247739D03*
X-178920Y298179D03*
X-207915Y223000D03*
X-200574Y296210D03*
X-215604Y249679D03*
X-198605Y296210D03*
X-215604Y247739D03*
X-194668Y315896D03*
X-224480Y242889D03*
X-224337Y244839D03*
X-194668Y313927D03*
X-223194Y245973D03*
X-198618Y314037D03*
X-220676Y245799D03*
X-200574Y311959D03*
X-196616Y314029D03*
X-223232Y243859D03*
X-223212Y241919D03*
X-200794Y313809D03*
X-220676Y243859D03*
X-198777Y311882D03*
X-196609D03*
X-220676Y241919D03*
X-178920Y294242D03*
X-208885Y224268D03*
X-252051Y306253D03*
X-238664Y251773D03*
X-250103Y306253D03*
X-246036Y245799D03*
X-249783Y300347D03*
X-247534Y300353D03*
X-238428Y249679D03*
X-251918Y298379D03*
X-244768Y250550D03*
X-249873Y298379D03*
X-246076Y251618D03*
X-247814Y298379D03*
X-247294Y248710D03*
X-210226Y250999D03*
X-194368Y307972D03*
X-184825Y298179D03*
X-200574Y315896D03*
X-221984Y250748D03*
X-200574Y300034D03*
X-216872Y248709D03*
X-196637Y310090D03*
X-221944Y242889D03*
X-216872Y244829D03*
X-196537Y306053D03*
X-176951Y292273D03*
X-215675Y225535D03*
X-212725Y231901D03*
X-192813Y292273D03*
X-186794Y296210D03*
X-210825Y231876D03*
X-182857Y296210D03*
X-207915Y225568D03*
X-198605Y315896D03*
X-221944Y248709D03*
X-198605Y300034D03*
X-216894Y250648D03*
X-194668Y310090D03*
X-221962Y244829D03*
X-194668Y306053D03*
X-216872Y242889D03*
X-176951Y294242D03*
X-244983Y248709D03*
X-251751Y302316D03*
X-243500Y251618D03*
X-249783Y302316D03*
X-239676Y244660D03*
X-255588Y296710D03*
X-246036Y241919D03*
X-255688Y294242D03*
X-255634Y292183D03*
X-241069Y246044D03*
X-257657Y296210D03*
X-239696Y242890D03*
X-246994Y244953D03*
X-257557Y294242D03*
X-263663Y294442D03*
X-243400Y241919D03*
X-263763Y292373D03*
X-242232Y244830D03*
X-238428Y241919D03*
X-265531Y296610D03*
X-238428Y243650D03*
X-265531Y294342D03*
X-238483Y245725D03*
X-265531Y292473D03*
X-240904Y251728D03*
X-252051Y308222D03*
X-242232Y250648D03*
X-249783Y308335D03*
X-247814Y308222D03*
X-240964Y247739D03*
X-238428D03*
X-258915Y251953D03*
X-254912Y248710D03*
X-269468Y312159D03*
X-254912Y250650D03*
X-269468Y310190D03*
X-251108Y247739D03*
X-271437Y292473D03*
X-253644Y247739D03*
X-271437Y294442D03*
X-251108Y249680D03*
X-253644Y251820D03*
X-233336Y245799D03*
X-269468Y296410D03*
X-253644Y249680D03*
X-249840Y248710D03*
X-269468Y294442D03*
X-251098Y253459D03*
X-249840Y250650D03*
X-269468Y292473D03*
X-227048Y244629D03*
X-269468Y308522D03*
X-228284Y243804D03*
X-230820Y243809D03*
X-228284Y241919D03*
X-271137Y308437D03*
X-228184Y245799D03*
X-230820D03*
X-235892Y241919D03*
X-233356D03*
X-243700Y247734D03*
X-247614Y302516D03*
X-261594Y292473D03*
X-263626Y296810D03*
X-252101Y300347D03*
X-247303Y250648D03*
X-259642Y294442D03*
X-244768Y244830D03*
X-247763Y304184D03*
X-239689Y250683D03*
X-259625Y292373D03*
X-244768Y242890D03*
X-249763Y304164D03*
X-239696Y248709D03*
X-246985Y246765D03*
X-261334Y296643D03*
X-243700Y245799D03*
X-261721Y294662D03*
X-256180Y241919D03*
X-259094Y245853D03*
X-263693Y316096D03*
X-254912Y242890D03*
X-263676Y314627D03*
X-255108Y244639D03*
X-253644Y241919D03*
X-253599Y243854D03*
X-255688Y315996D03*
X-251408Y243759D03*
X-251119Y246095D03*
X-253720Y314127D03*
X-251108Y241919D03*
X-253464Y246153D03*
X-232089Y242889D03*
X-271437Y300147D03*
X-249840Y242890D03*
X-251751Y314427D03*
X-250094Y244853D03*
X-253720Y315996D03*
X-267500Y314127D03*
X-235892Y247639D03*
X-267500Y315981D03*
X-235892Y249679D03*
X-233356D03*
X-232088Y248709D03*
X-265531Y314127D03*
X-236794Y255053D03*
X-233356Y247739D03*
X-269468Y316096D03*
X-233356Y251718D03*
X-232109Y250678D03*
X-232260Y244619D03*
X-269468Y298379D03*
X-247794Y314509D03*
X-230820Y247739D03*
X-228284D03*
Y249679D03*
X-249821Y314499D03*
X-230574Y255153D03*
X-227016Y248709D03*
X-247691Y316105D03*
X-230820Y249679D03*
X-227016Y250648D03*
X-228324Y251718D03*
X-258816Y250059D03*
X-258716Y247739D03*
X-235997Y243759D03*
X-255634Y253853D03*
X-271437Y312159D03*
X-256180Y249680D03*
X-271437Y314127D03*
X-256180Y247740D03*
X-84600Y226200D03*
X-271394Y249353D03*
X-240964Y241819D03*
X-261594Y309753D03*
X-269468Y304284D03*
X-261594Y316496D03*
X-257494Y243053D03*
X-257657Y316396D03*
X-252089Y244666D03*
X-234624Y248709D03*
X-229522Y250658D03*
X-257448Y248910D03*
X-252416Y250750D03*
X-271437Y306353D03*
X-229552Y244829D03*
X-271842Y302316D03*
X-234624Y244724D03*
X-261594Y314527D03*
X-257448Y244725D03*
X-257657Y314427D03*
X-252376Y242890D03*
X-234624Y250748D03*
X-229552Y248709D03*
X-257488Y250950D03*
X-252376Y248710D03*
X-229552Y242789D03*
X-269468Y306353D03*
X-234524Y242890D03*
X-269468Y302316D03*
X-227017Y242789D03*
X-230820Y241919D03*
X-233356Y243659D03*
X-271437Y298379D03*
X-258974Y243858D03*
X-258715Y241918D03*
X-256518Y246053D03*
X-256294Y243453D03*
X-235914Y245799D03*
X-80200Y231100D03*
X-109200Y230500D03*
X-112700Y237100D03*
X-95300Y240700D03*
X-100200Y232100D03*
X-253420Y292473D03*
Y294442D03*
X-247914Y310233D03*
X-249751Y310461D03*
X-173014Y314227D03*
X-174983D03*
X-263688Y247739D03*
X-266324D03*
X-263787Y251618D03*
X-84700Y241800D03*
Y232100D03*
X-91531Y229126D03*
X-98700Y250100D03*
X-110700Y230600D03*
X-105700Y250100D03*
X-108700D03*
X-91700Y250800D03*
X-91531Y243206D03*
X-269200Y238400D03*
X-271322Y243440D03*
X-219594Y195453D03*
X-269385Y235679D03*
X-268600Y236700D03*
X-270354Y236947D03*
X-271324Y235679D03*
X-265056Y246768D03*
X-268850Y247839D03*
X-101374Y240937D03*
X-78700Y231100D03*
X-269285Y217928D03*
X-97437Y235031D03*
X-97337Y243006D03*
X-89563Y238969D03*
X-98300Y230200D03*
X-71400Y247600D03*
X-92600Y241800D03*
X-91531Y240637D03*
X-96700Y230100D03*
X-103343Y229126D03*
X-85626Y237000D03*
X-87594Y233063D03*
X-263787Y243858D03*
X-207400Y190400D03*
X-94400Y245700D03*
X-271700Y199800D03*
X-271280Y198190D03*
X-271324Y205248D03*
X-270127Y201171D03*
X-270453Y199163D03*
X-259983Y203111D03*
X-267592Y240948D03*
X-101374Y233063D03*
X-271324Y238215D03*
X-267592Y244829D03*
X-265056Y242889D03*
X-106100Y243900D03*
X-87594Y227157D03*
X-89200Y252100D03*
X-85626Y238669D03*
X-87594Y235031D03*
X-87394Y244874D03*
X-80200Y238100D03*
X-92400Y245726D03*
X-80100Y228400D03*
X-101374Y235031D03*
X-84700Y253100D03*
Y252100D03*
X-101700Y252600D03*
Y251600D03*
X-101200Y221600D03*
Y222600D03*
X-266480Y240106D03*
X-262620Y246768D03*
X-218141Y238049D03*
X-217615Y230605D03*
Y233144D03*
X-205294Y242853D03*
X-206845Y247319D03*
Y244556D03*
X-267600Y246700D03*
X-265055Y244828D03*
X-267108Y238445D03*
X-225776Y240029D03*
X-223212Y239979D03*
X-240965D03*
X-233356Y240029D03*
X-235893Y239979D03*
X-248571Y239978D03*
X-246035D03*
X-243300Y239979D03*
X-251107Y239978D03*
X-253643D03*
X-264494Y300453D03*
X-267700Y302316D03*
X-269281Y240948D03*
X-268619Y239688D03*
X-270354Y204100D03*
X-269384Y205248D03*
X-266323Y200201D03*
Y198261D03*
X-266454Y196053D03*
Y194113D03*
X-246035Y198261D03*
Y200201D03*
X-268694Y192553D03*
X-269827Y195352D03*
X-247314Y242889D03*
X-242232Y242839D03*
X-214326Y250638D03*
X-213444Y245753D03*
X-204694Y314253D03*
X-182857Y300147D03*
X-188763Y300267D03*
X-265994Y289053D03*
X-192700Y309990D03*
Y304084D03*
X-198721Y294242D03*
X-202542Y296210D03*
X-246594Y288953D03*
X-249783Y294442D03*
X-257657Y312159D03*
X-220676Y239979D03*
X-230820Y240029D03*
X-228284D03*
X-238428Y239679D03*
X-169594Y301653D03*
X-251094Y255803D03*
Y254703D03*
X-243094Y255153D03*
Y253953D03*
X-223584D03*
X-213465D03*
X-212794Y254953D03*
X-233144Y253953D03*
X-245846Y300347D03*
X-176694Y286353D03*
X-196594Y288813D03*
X-223584Y255153D03*
X-233144Y255053D03*
X-258716Y235439D03*
X-262616Y224439D03*
X-260666D03*
X-268414Y224287D03*
X-256766Y211239D03*
X-262616Y215639D03*
X-266516D03*
X-258716Y206839D03*
X-260666D03*
Y211239D03*
X-258716D03*
X-262616D03*
X-96100Y256100D03*
X-258716Y215639D03*
X-256766Y228839D03*
Y231039D03*
X-256694Y232953D03*
X-256766Y226339D03*
X-266516Y206839D03*
Y209039D03*
Y211239D03*
X-262616Y220039D03*
X-260666D03*
X-264566Y235439D03*
X-98400Y226200D03*
X-252866Y226639D03*
Y220039D03*
Y222239D03*
X-256766Y220039D03*
X-254816Y222239D03*
Y217839D03*
Y220039D03*
X-256766Y217839D03*
X-252866Y233239D03*
Y235439D03*
Y224439D03*
Y228839D03*
X-251107Y238038D03*
X-249839Y237068D03*
X-237160Y237069D03*
X-221944D03*
X-234624D03*
X-242232D03*
X-239696D03*
X-229452D03*
X-226917D03*
X-224480D03*
X-247303Y237068D03*
X-244767D03*
X-81700Y211600D03*
X-86400Y211700D03*
X-254816Y233239D03*
Y235439D03*
X-260000Y192000D03*
Y190900D03*
X-259100Y192000D03*
X-259000Y190900D03*
X-260900D03*
Y192000D03*
X-95600Y253167D03*
X-95469Y229126D03*
X-266655Y237068D03*
X-106500Y242300D03*
X-266516Y220039D03*
X-107200Y246600D03*
X-257448Y237068D03*
X-258716Y226639D03*
Y224439D03*
X-266420Y231000D03*
X-260666Y226639D03*
X-241417Y231075D03*
X-241166Y233239D03*
X-241460Y226639D03*
X-241166Y224439D03*
X-241470Y228839D03*
X-237266Y213439D03*
Y211239D03*
Y206839D03*
Y209039D03*
Y217839D03*
X-241166Y213439D03*
Y211239D03*
Y217839D03*
Y206839D03*
Y209039D03*
Y215639D03*
X-100100Y251100D03*
X-101374Y227157D03*
X-247814Y292473D03*
X-200574Y292273D03*
X-171046D03*
Y294242D03*
X-237266Y224439D03*
Y233239D03*
Y228839D03*
Y231039D03*
Y226639D03*
Y222239D03*
X-241166Y222039D03*
X-219716Y217839D03*
X-229466Y222239D03*
X-209855Y220464D03*
X-229466Y213439D03*
Y209039D03*
X-231416D03*
X-227516D03*
X-225566D03*
X-213735Y220464D03*
X-217615D03*
X-224480Y205051D03*
X-227016D03*
X-223616Y209039D03*
X-221666D03*
X-229466Y217839D03*
X-223616Y222239D03*
X-211795Y217928D03*
X-213735Y212855D03*
X-211795D03*
X-209855D03*
X-223616Y217839D03*
X-215675Y212855D03*
X-221666Y222239D03*
X-219666D03*
X-231416Y213439D03*
X-225566Y217839D03*
Y222239D03*
X-207915Y217928D03*
X-207761Y220365D03*
X-227516Y222239D03*
X-219716Y213439D03*
X-223616D03*
X-225566D03*
X-221666D03*
X-211795Y220464D03*
X-215675D03*
X-221666Y217839D03*
X-215675Y217928D03*
X-217615D03*
X-231416Y222239D03*
X-213735Y217928D03*
X-217615Y212855D03*
X-219716Y231039D03*
X-231416D03*
X-221666Y226639D03*
X-227516Y217839D03*
X-231416D03*
X-219716Y209039D03*
X-209855Y217928D03*
X-227516Y213439D03*
X-207915Y212857D03*
X-225566Y231039D03*
X-223616Y226639D03*
X-231416D03*
X-219716Y235439D03*
X-223616D03*
X-227516Y231039D03*
X-219716Y226639D03*
X-247016Y235439D03*
X-248966Y228839D03*
Y235439D03*
Y217839D03*
Y231039D03*
Y224439D03*
Y226639D03*
Y233239D03*
Y222239D03*
Y209039D03*
X-247516Y213439D03*
Y217839D03*
X-248966Y206839D03*
Y220039D03*
X-247298Y205043D03*
X-247304Y203111D03*
X-262520Y237068D03*
X-219408Y205052D03*
X-229466Y226639D03*
Y235439D03*
X-231416D03*
X-221944Y205051D03*
X-227516Y226639D03*
X-225566D03*
X-223616Y231039D03*
X-221666D03*
X-225566Y235439D03*
X-229466Y231039D03*
X-221666Y235439D03*
X-227516D03*
X-87594Y240637D03*
X-248571Y204081D03*
X-247516Y222239D03*
Y231039D03*
Y226639D03*
Y209039D03*
X-248966Y213439D03*
Y211239D03*
Y215639D03*
X-245066Y209039D03*
Y211239D03*
Y217839D03*
X-245131Y231104D03*
X-245249Y226639D03*
X-245066Y235439D03*
Y233239D03*
Y220039D03*
X-221994Y203153D03*
X-224480Y203227D03*
X-245119Y222186D03*
X-245066Y206839D03*
X-233366Y209039D03*
Y211239D03*
Y213439D03*
X-239696Y205051D03*
X-233366Y206839D03*
X-238428Y204081D03*
X-239216Y235439D03*
X-235316D03*
X-233566Y235339D03*
X-243116Y235439D03*
X-241166D03*
X-233694Y226553D03*
X-233366Y228839D03*
Y233239D03*
X-237266Y235439D03*
X-233366Y231039D03*
X-233356Y204281D03*
X-237160Y205051D03*
X-230820Y204081D03*
X-232088Y205051D03*
X-233694Y222053D03*
Y224453D03*
X-233366Y217839D03*
Y215639D03*
Y220039D03*
X-227016Y203486D03*
X-229663Y203398D03*
X-245066Y215639D03*
Y213439D03*
X-245301Y228839D03*
X-245188Y224439D03*
X-246120Y196000D03*
X-249839Y205152D03*
X-218210Y206161D03*
X-85626Y242906D03*
X-95469Y248811D03*
X-92200Y222100D03*
X-86200Y213400D03*
X-93500Y229126D03*
X-98400Y237800D03*
X-93100Y251600D03*
X-108700Y246600D03*
X-212400Y187200D03*
X-214336Y193312D03*
X-269859Y242599D03*
X-270127Y197000D03*
X-79700Y236600D03*
X-256179Y200201D03*
Y198261D03*
X-254894Y199253D03*
Y201253D03*
X-256179Y194381D03*
Y196161D03*
X-254894Y195553D03*
X-254911Y193311D03*
X-242330Y199040D03*
X-242240Y201010D03*
X-242800Y183500D03*
X-269300Y220300D03*
X-271300Y223400D03*
X-271325Y202711D03*
X-218000Y196300D03*
X-217094Y192153D03*
X-220676Y196322D03*
X-225748Y198261D03*
X-221794Y199253D03*
X-220800Y198100D03*
X-221600Y201100D03*
X-220676Y200202D03*
X-246240Y194140D03*
X-253643Y200201D03*
X-252120Y201210D03*
X-253653Y198221D03*
X-252375Y199231D03*
X-253643Y196321D03*
X-252194Y193203D03*
X-253643Y194381D03*
X-252294Y195353D03*
X-232088Y201172D03*
Y199232D03*
X-227994Y200153D03*
X-229552Y201172D03*
X-227994Y198213D03*
X-229552Y199232D03*
X-234794Y201453D03*
X-234624Y199232D03*
X-248594Y199953D03*
X-243500Y198262D03*
X-248794Y198353D03*
X-243500Y200202D03*
X-244870Y195180D03*
X-243610Y196230D03*
X-244694Y193253D03*
X-243500Y194382D03*
X-263200Y194400D03*
X-169126Y54063D03*
X-167157D03*
X-184874Y61937D03*
X-186843D03*
X-184874Y63906D03*
X-186843D03*
X-178969Y58000D03*
Y56031D03*
X-177000Y58000D03*
Y56031D03*
X-178969Y54063D03*
X-180937D03*
X-184874D03*
X-178969Y59969D03*
X-186843Y67843D03*
X-182906Y50126D03*
X-167157Y67843D03*
X-175031Y59969D03*
Y58000D03*
Y56031D03*
Y54063D03*
X-173063Y61937D03*
X-177000Y59969D03*
X-173063Y56031D03*
Y58000D03*
X-180937Y56031D03*
X-173063Y54063D03*
X-180937Y58000D03*
X-177000Y54063D03*
X-173063Y59969D03*
X-184874Y65874D03*
X-182906D03*
X-175031Y48157D03*
Y50126D03*
X-275204Y223000D03*
X-244767Y203111D03*
X-242232Y203112D03*
X-238300Y184900D03*
Y183300D03*
X-237160Y199232D03*
Y201172D03*
X-170126Y59969D03*
X-167157D03*
X-180937Y67843D03*
Y65874D03*
X-240964Y200202D03*
X-215594Y190153D03*
X-221944Y193312D03*
X-232088Y193311D03*
Y195351D03*
X-229200Y193300D03*
X-229552Y195351D03*
X-233356Y194381D03*
Y196320D03*
X-230720Y194381D03*
X-230820Y196320D03*
X-223212Y198262D03*
X-265055Y199231D03*
Y201171D03*
X-275204Y225535D03*
X-263787Y196321D03*
Y198261D03*
Y200201D03*
X-271324Y210320D03*
X-264910Y192970D03*
X-265055Y195352D03*
X-274300Y206500D03*
X-249839Y193311D03*
Y195352D03*
Y201171D03*
Y199231D03*
X-240964Y198262D03*
X-72086Y233600D03*
Y225600D03*
X-227094Y195453D03*
X-224480Y195352D03*
X-224380Y193412D03*
X-228294Y195953D03*
X-225748Y194382D03*
Y196322D03*
X-228284Y194382D03*
X-227116Y193112D03*
X-153969Y349141D03*
X-175255Y353162D03*
X-145500Y329886D03*
X-117100Y331000D03*
X-117000Y332100D03*
X-148483Y357831D03*
X-139732Y389685D03*
X-134346Y388134D03*
X-129600Y386800D03*
X-120107Y385657D03*
X-127400Y395200D03*
X-134900Y345100D03*
X-141000Y342700D03*
X-133858Y337083D03*
X-141800Y337800D03*
X-133200Y348100D03*
X-149600Y337665D03*
X-161200Y352111D03*
X-173562Y361193D03*
X-126000Y361700D03*
X-126800Y357400D03*
X-126600Y360600D03*
X-127100Y359500D03*
X-134400Y354300D03*
X-133200Y354400D03*
X-132600Y355500D03*
X-130100Y350900D03*
X-129600Y352000D03*
X-132100Y358800D03*
X-131300Y357900D03*
X-130800Y359200D03*
X-130200Y360200D03*
X-129700Y361300D03*
X-129200Y362400D03*
X-132500Y346900D03*
X-133000Y345900D03*
X-125100Y362800D03*
X-134200Y367900D03*
X-121600Y370100D03*
X-122300Y368200D03*
X-123000Y366400D03*
X-123600Y364900D03*
X-124100Y363700D03*
X-129800Y354400D03*
X-127700Y355300D03*
X-135200Y350300D03*
X-134900Y355500D03*
X-135800Y349000D03*
X-136600Y348000D03*
X-138224Y348499D03*
X-138531Y347295D03*
X-131900Y350000D03*
X-131400Y351100D03*
X-133800Y347100D03*
X-134300Y346100D03*
X-137300Y346900D03*
X-131900Y347900D03*
X-133700Y353300D03*
X-134300Y352300D03*
X-133800Y355600D03*
X-135000Y351500D03*
X-134500Y342800D03*
X-135400Y344000D03*
X-135100Y353200D03*
X-133600Y356800D03*
X-130900Y352200D03*
X-132600Y349000D03*
X-138300Y345000D03*
X-134100Y343800D03*
X-133600Y344900D03*
X-139600Y345300D03*
X-139900Y343800D03*
X-135700Y342900D03*
X-129100Y353100D03*
X-128500Y354200D03*
X-131500Y360300D03*
X-127600Y358400D03*
X-132300Y356600D03*
X-123800Y377100D03*
X-130200Y378600D03*
X-156700Y407600D03*
X-128600Y363200D03*
X-131000Y364100D03*
X-124000Y362200D03*
X-125000Y361100D03*
X-125600Y359800D03*
X-126200Y358600D03*
X-141800Y339300D03*
X-137783Y334582D03*
X-133858Y338583D03*
X-162800Y363200D03*
X-166594Y339888D03*
X-171059Y341205D03*
X-145500Y328114D03*
X-129800Y363700D03*
X-130400Y362600D03*
X-131000Y361500D03*
X-130600Y349800D03*
X-131300Y348800D03*
X-129000Y355500D03*
X-128100Y357200D03*
X-137700Y345900D03*
X-139559Y346661D03*
X-130400Y353300D03*
X-143765Y347600D03*
X-136614Y351500D03*
X-179994Y323753D03*
X-153800Y330300D03*
X-153700Y331300D03*
X-149600Y340735D03*
X-173483Y358200D03*
X-180176Y361500D03*
X-153600Y337665D03*
X-170500Y335386D03*
X-166200Y360400D03*
X-133900Y365200D03*
X-125700Y366400D03*
X-135500Y366000D03*
X-127900Y367700D03*
X-125100Y364900D03*
X-127000Y370000D03*
X-126000Y372600D03*
X-125200Y374900D03*
X-132700Y357800D03*
Y364600D03*
X-274829Y346937D03*
X-275694Y340153D03*
X-267983Y352107D03*
X-264400Y352200D03*
X-257127Y366066D03*
X-235000Y341535D03*
X-214194Y341188D03*
X-226386Y342000D03*
X-203694Y342439D03*
X-209694Y341088D03*
X-248094Y340188D03*
X-262194D03*
X-266494Y340088D03*
X-271494Y340188D03*
X-221222Y346135D03*
X-261293Y346830D03*
X-238694Y342139D03*
X-48400Y338400D03*
X-55400Y345100D03*
X-221729Y333553D03*
X-226659Y327053D03*
X-243494Y343153D03*
X-185625Y356625D03*
X-71500Y324800D03*
X-251692Y367396D03*
X-234596Y372040D03*
X-51948Y341752D03*
X-262000Y363625D03*
X-229694Y327053D03*
X-214494Y338153D03*
X-144983Y351162D03*
X-138386Y351500D03*
X-138400Y353900D03*
X-144983Y354662D03*
X-174983Y321801D03*
Y319833D03*
X-171046D03*
X-178920Y321801D03*
X-176951D03*
X-178920Y319833D03*
X-180894Y320113D03*
X-183057Y320033D03*
X-169494Y321053D03*
X-173014Y319833D03*
X-275374Y320033D03*
X-273405Y318180D03*
Y320033D03*
Y321801D03*
X-275374Y318180D03*
X-259625Y322001D03*
X-188563Y321901D03*
X-173014Y317864D03*
X-171046D03*
X-257657Y318064D03*
X-259625D03*
X-258004Y319753D03*
X-255688Y322001D03*
X-251751D03*
X-262800Y323900D03*
X-269468Y322001D03*
X-192700Y321891D03*
X-196637Y321801D03*
X-184725D03*
X-198605Y319833D03*
X-194668Y317864D03*
X-200590Y318048D03*
X-196637Y317864D03*
X-198605D03*
X-194668Y319833D03*
X-196637D03*
X-184725Y319884D03*
X-184705Y317884D03*
X-182857Y317864D03*
X-188763D03*
Y319833D03*
X-186794Y317544D03*
X-180888Y317864D03*
X-178920Y317774D03*
X-190841Y319833D03*
X-190831Y317834D03*
X-267500Y320033D03*
X-251851D03*
X-267500Y318064D03*
X-251855D03*
X-263563Y318264D03*
X-261481Y320153D03*
X-265645Y318064D03*
Y319753D03*
X-261594Y318064D03*
X-263563Y320153D03*
X-255688Y320033D03*
X-253720D03*
Y318164D03*
X-255688D03*
X-269582Y318064D03*
X-271437D03*
X-269468Y320033D03*
X-271437D03*
X-247824Y318200D03*
X-249896Y320033D03*
X-249683Y318064D03*
X-247814Y320033D03*
X-200574Y319833D03*
X-174983Y317864D03*
X-271437Y322001D03*
X-245733Y318064D03*
X-198605Y321801D03*
X-249773Y316581D03*
X677000Y-387500D03*
G54D11*
G01X-79200Y-264100D02*
X-353200D01*
G03X-358200Y-269100I0J-5000D01*
G01Y-338100D01*
G03X-353200Y-343100I4375J-625D01*
G01X16300D01*
G01X27800Y-261100D02*
X-353200D01*
G03X-361200Y-269100I-1000J-7000D01*
G01Y-341100D01*
G03X-354200Y-346100I6667J1934D01*
G01X14300D01*
G01X-70200Y-306100D02*
X-20200D01*
G01X-70200Y-264100D02*
Y-322100D01*
G01X-140200Y-288100D02*
X-20200D01*
G01X-140200Y-322100D02*
X-20200D01*
G01X-140200Y-264100D02*
Y-343100D01*
G01X-20200Y-264100D02*
Y-343100D01*
G01X15300D02*
X28000D01*
G03X32800Y-339100I32J4842D01*
G01Y-269100D01*
G03X27800Y-264100I-6500J-1500D01*
G01X15300D01*
G01X13800Y-346100D02*
X28000D01*
G03X35800Y-339100I339J7468D01*
G01Y-270100D01*
G03X27800Y-261100I-8500J500D01*
G01X15800Y-264100D02*
X-79200D01*
G54D12*
G01X-335700Y-288900D02*
Y-278900D01*
X-331700D01*
X-330100Y-279400D01*
X-328900Y-280067D01*
X-327900Y-281067D01*
X-327100Y-282234D01*
X-326900Y-283900D01*
X-327100Y-285567D01*
X-327900Y-286733D01*
X-328900Y-287734D01*
X-330100Y-288400D01*
X-331700Y-288900D01*
X-335700D01*
G01X-322200Y-284400D02*
X-315800D01*
X-316400Y-283233D01*
X-317400Y-282567D01*
X-318800Y-282234D01*
X-320200Y-282400D01*
X-321400Y-282900D01*
X-322200Y-284067D01*
X-322600Y-285067D01*
Y-286067D01*
X-322200Y-287067D01*
X-321200Y-288067D01*
X-320000Y-288733D01*
X-318600Y-288900D01*
X-317200Y-288567D01*
X-315800Y-287567D01*
G01X-310100Y-287734D02*
X-309100Y-288400D01*
X-307700Y-288900D01*
X-306500D01*
X-305300Y-288567D01*
X-304500Y-288067D01*
X-304100Y-287400D01*
X-304300Y-286400D01*
X-305100Y-285900D01*
X-308700Y-284900D01*
X-309500Y-283733D01*
X-309100Y-282900D01*
X-308300Y-282400D01*
X-307100Y-282234D01*
X-305900Y-282400D01*
X-304700Y-282900D01*
G01X-295000Y-282234D02*
Y-288900D01*
G01Y-279567D02*
X-295400Y-279400D01*
Y-279067D01*
X-295000Y-278900D01*
X-294600Y-279067D01*
Y-279400D01*
X-295000Y-279567D01*
G01X-285700Y-291400D02*
X-284300Y-292067D01*
X-282700Y-292233D01*
X-281300Y-292067D01*
X-280100Y-291233D01*
X-279300Y-290067D01*
Y-282234D01*
G01Y-283567D02*
X-280100Y-282900D01*
X-281300Y-282400D01*
X-282700Y-282234D01*
X-284300Y-282567D01*
X-285300Y-283233D01*
X-286100Y-284400D01*
X-286500Y-285567D01*
X-286300Y-286567D01*
X-285500Y-287734D01*
X-284300Y-288567D01*
X-282700Y-288900D01*
X-281500Y-288733D01*
X-280100Y-288067D01*
X-279300Y-287400D01*
G01X-274200Y-288900D02*
Y-282234D01*
G01Y-283900D02*
X-273400Y-283067D01*
X-272200Y-282400D01*
X-270600Y-282234D01*
X-269200Y-282400D01*
X-268000Y-283067D01*
X-267400Y-284233D01*
Y-288900D01*
G01X-250800Y-287567D02*
X-249200Y-288400D01*
X-247400Y-288900D01*
X-245800D01*
X-244200Y-288400D01*
X-243000Y-287567D01*
X-242400Y-286400D01*
X-242800Y-285234D01*
X-243800Y-284233D01*
X-245600Y-283567D01*
X-248000Y-283233D01*
X-249400Y-282567D01*
X-250000Y-281400D01*
X-249600Y-280233D01*
X-248600Y-279400D01*
X-247200Y-278900D01*
X-245800D01*
X-244400Y-279233D01*
X-243200Y-280067D01*
G01X-238700Y-288900D02*
Y-278900D01*
G01X-230300D02*
Y-288900D01*
G01Y-283900D02*
X-238700D01*
G01X-224800Y-278900D02*
X-220000D01*
G01X-222400D02*
Y-288900D01*
G01X-224800D02*
X-220000D01*
G01X-214100D02*
Y-278900D01*
X-206500D01*
G01X-209300Y-283733D02*
X-214100D01*
G01X-198200Y-278900D02*
Y-288900D01*
G01X-202800Y-278900D02*
X-193600D01*
G54D13*
G01X-12200Y-316200D02*
Y-296200D01*
X-14600Y-300200D01*
G01Y-316200D02*
X-9800D01*
G01X-4000Y-307867D02*
X-2600Y-305533D01*
X-1400Y-304200D01*
X200Y-303534D01*
X1600Y-304200D01*
X2600Y-305533D01*
X3400Y-307533D01*
X3600Y-309867D01*
X3400Y-311867D01*
X2600Y-313867D01*
X1400Y-315533D01*
X0Y-316200D01*
X-1600Y-315533D01*
X-3000Y-313534D01*
X-3800Y-310533D01*
X-4000Y-307200D01*
X-3600Y-302867D01*
X-3000Y-300533D01*
X-2000Y-298200D01*
X-600Y-296533D01*
X800Y-296200D01*
X2200Y-296867D01*
X3200Y-298533D01*
G01X11800Y-316867D02*
X11400Y-316533D01*
Y-315867D01*
X11800Y-315533D01*
X12200Y-315867D01*
Y-316533D01*
X11800Y-316867D01*
G01X19400Y-313201D02*
X20600Y-314867D01*
X22000Y-315867D01*
X23800Y-316200D01*
X25600Y-315533D01*
X27000Y-314200D01*
X28000Y-311867D01*
X28200Y-309200D01*
X27800Y-306534D01*
X26800Y-304867D01*
X25400Y-303534D01*
X24000Y-303200D01*
X22600Y-303534D01*
X20800Y-304867D01*
X21400Y-296200D01*
X26800D01*
G01X799400Y-397500D02*
Y-377500D01*
X792000Y-391833D01*
X802000D01*
G01X809000Y-398167D02*
X808600Y-397833D01*
Y-397167D01*
X809000Y-396833D01*
X809400Y-397167D01*
Y-397833D01*
X809000Y-398167D01*
G01X821000Y-377500D02*
X819400Y-378167D01*
X818200Y-379833D01*
X817400Y-381833D01*
X816800Y-384500D01*
X816600Y-387500D01*
X816800Y-390500D01*
X817400Y-393167D01*
X818200Y-395167D01*
X819400Y-396833D01*
X821000Y-397500D01*
X822600Y-396833D01*
X823800Y-395167D01*
X824600Y-393167D01*
X825200Y-390500D01*
X825400Y-387500D01*
X825200Y-384500D01*
X824600Y-381833D01*
X823800Y-379833D01*
X822600Y-378167D01*
X821000Y-377500D01*
G01X786800Y-362334D02*
X788400Y-364000D01*
X790200Y-365000D01*
X791800D01*
X793400Y-364000D01*
X794600Y-362334D01*
X795200Y-360000D01*
X794800Y-357667D01*
X793800Y-355667D01*
X792000Y-354333D01*
X789600Y-353667D01*
X788200Y-352334D01*
X787600Y-350000D01*
X788000Y-347667D01*
X789000Y-346000D01*
X790400Y-345000D01*
X791800D01*
X793200Y-345667D01*
X794400Y-347333D01*
G01X800600Y-345000D02*
X805400D01*
G01X803000D02*
Y-365000D01*
G01X800600D02*
X805400D01*
G01X811200Y-345000D02*
X818800D01*
X811200Y-365000D01*
X818800D01*
G01X831000D02*
X823000D01*
Y-345000D01*
X831000D01*
G01X827800Y-354666D02*
X823000D01*
G01X643200Y-365000D02*
Y-345000D01*
X650800D01*
G01X648000Y-354666D02*
X643200D01*
G01X656600Y-345000D02*
X661400D01*
G01X659000D02*
Y-365000D01*
G01X656600D02*
X661400D01*
G01X672200Y-355000D02*
X676200D01*
Y-361000D01*
X675000Y-363000D01*
X673600Y-364333D01*
X671600Y-365000D01*
X669600Y-364333D01*
X668200Y-363000D01*
X667000Y-361000D01*
X666200Y-358667D01*
X665800Y-356000D01*
Y-353667D01*
X666200Y-351667D01*
X667000Y-349333D01*
X668200Y-347333D01*
X669400Y-346000D01*
X671000Y-345000D01*
X672400D01*
X674000Y-345667D01*
X675200Y-347000D01*
G01X678600Y-345000D02*
Y-359333D01*
X679400Y-362334D01*
X681000Y-364333D01*
X683000Y-365000D01*
X685000Y-364333D01*
X686600Y-362334D01*
X687400Y-359333D01*
Y-345000D01*
G01X691000Y-365000D02*
Y-345000D01*
X696000D01*
X697600Y-346000D01*
X698600Y-347333D01*
X699000Y-350000D01*
X698600Y-352667D01*
X697400Y-354333D01*
X696000Y-355334D01*
X691000D01*
G01X696000D02*
X699000Y-365000D01*
G01X711000D02*
X703000D01*
Y-345000D01*
X711000D01*
G01X707800Y-354666D02*
X703000D01*
G01X738000Y-330000D02*
X743000Y-310000D01*
X748000Y-330000D01*
G01X746200Y-323000D02*
X739800D01*
G01X751000Y-310000D02*
Y-330000D01*
X759000D01*
G01X763000Y-310000D02*
Y-330000D01*
X771000D01*
G01X786600Y-310000D02*
Y-324333D01*
X787400Y-327334D01*
X789000Y-329333D01*
X791000Y-330000D01*
X793000Y-329333D01*
X794600Y-327334D01*
X795400Y-324333D01*
Y-310000D01*
G01X798400Y-330000D02*
Y-310000D01*
X807600Y-330000D01*
Y-310000D01*
G01X812600D02*
X817400D01*
G01X815000D02*
Y-330000D01*
G01X812600D02*
X817400D01*
G01X827000Y-310000D02*
Y-330000D01*
G01X822400Y-310000D02*
X831600D01*
G01X834800Y-327334D02*
X836400Y-329000D01*
X838200Y-330000D01*
X839800D01*
X841400Y-329000D01*
X842600Y-327334D01*
X843200Y-325000D01*
X842800Y-322667D01*
X841800Y-320667D01*
X840000Y-319333D01*
X837600Y-318667D01*
X836200Y-317334D01*
X835600Y-315000D01*
X836000Y-312667D01*
X837000Y-311000D01*
X838400Y-310000D01*
X839800D01*
X841200Y-310667D01*
X842400Y-312333D01*
G01X858000Y-330000D02*
X863000Y-310000D01*
X868000Y-330000D01*
G01X866200Y-323000D02*
X859800D01*
G01X871000Y-330000D02*
Y-310000D01*
X876000D01*
X877600Y-311000D01*
X878600Y-312333D01*
X879000Y-315000D01*
X878600Y-317667D01*
X877400Y-319333D01*
X876000Y-320334D01*
X871000D01*
G01X876000D02*
X879000Y-330000D01*
G01X891000D02*
X883000D01*
Y-310000D01*
X891000D01*
G01X887800Y-319666D02*
X883000D01*
G01X908600Y-310000D02*
X913400D01*
G01X911000D02*
Y-330000D01*
G01X908600D02*
X913400D01*
G01X918400D02*
Y-310000D01*
X927600Y-330000D01*
Y-310000D01*
G01X941800Y-330000D02*
Y-310000D01*
X947000Y-326667D01*
X952200Y-310000D01*
Y-330000D01*
G01X956600Y-310000D02*
X961400D01*
G01X959000D02*
Y-330000D01*
G01X956600D02*
X961400D01*
G01X967000Y-310000D02*
Y-330000D01*
X975000D01*
G01X978800Y-327334D02*
X980400Y-329000D01*
X982200Y-330000D01*
X983800D01*
X985400Y-329000D01*
X986600Y-327334D01*
X987200Y-325000D01*
X986800Y-322667D01*
X985800Y-320667D01*
X984000Y-319333D01*
X981600Y-318667D01*
X980200Y-317334D01*
X979600Y-315000D01*
X980000Y-312667D01*
X981000Y-311000D01*
X982400Y-310000D01*
X983800D01*
X985200Y-310667D01*
X986400Y-312333D01*
G01X708600Y-305000D02*
Y-285000D01*
X712600D01*
X714200Y-286000D01*
X715400Y-287333D01*
X716400Y-289333D01*
X717200Y-291667D01*
X717400Y-295000D01*
X717200Y-298334D01*
X716400Y-300667D01*
X715400Y-302667D01*
X714200Y-304000D01*
X712600Y-305000D01*
X708600D01*
G01X721000D02*
Y-285000D01*
X726000D01*
X727600Y-286000D01*
X728600Y-287333D01*
X729000Y-290000D01*
X728600Y-292667D01*
X727400Y-294333D01*
X726000Y-295334D01*
X721000D01*
G01X726000D02*
X729000Y-305000D01*
G01X734600Y-285000D02*
X739400D01*
G01X737000D02*
Y-305000D01*
G01X734600D02*
X739400D01*
G01X745000Y-285000D02*
Y-305000D01*
X753000D01*
G01X757000Y-285000D02*
Y-305000D01*
X765000D01*
G01X789400Y-286667D02*
X788200Y-285667D01*
X786800Y-285000D01*
X785200D01*
X783400Y-286000D01*
X782000Y-287667D01*
X781000Y-289667D01*
X780200Y-293000D01*
X780000Y-296000D01*
X780400Y-299000D01*
X781000Y-301000D01*
X782200Y-303000D01*
X783600Y-304333D01*
X785000Y-305000D01*
X786400D01*
X787800Y-304333D01*
X789000Y-303334D01*
X790000Y-302001D01*
G01X792800Y-305000D02*
Y-285000D01*
G01X801200D02*
Y-305000D01*
G01Y-295000D02*
X792800D01*
G01X804000Y-305000D02*
X809000Y-285000D01*
X814000Y-305000D01*
G01X812200Y-298000D02*
X805800D01*
G01X817000Y-305000D02*
Y-285000D01*
X822000D01*
X823600Y-286000D01*
X824600Y-287333D01*
X825000Y-290000D01*
X824600Y-292667D01*
X823400Y-294333D01*
X822000Y-295334D01*
X817000D01*
G01X822000D02*
X825000Y-305000D01*
G01X833000Y-285000D02*
Y-305000D01*
G01X828400Y-285000D02*
X837600D01*
G01X845000Y-305667D02*
X844600Y-305333D01*
Y-304667D01*
X845000Y-304333D01*
X845400Y-304667D01*
Y-305333D01*
X845000Y-305667D01*
G01Y-296667D02*
X844600Y-296333D01*
Y-295667D01*
X845000Y-295334D01*
X845400Y-295667D01*
Y-296333D01*
X845000Y-296667D01*
G01X866600Y-285000D02*
X871400D01*
G01X869000D02*
Y-305000D01*
G01X866600D02*
X871400D01*
G01X876400D02*
Y-285000D01*
X885600Y-305000D01*
Y-285000D01*
G01X895400Y-305000D02*
Y-285000D01*
X888000Y-299333D01*
X898000D01*
G01X917000Y-285000D02*
Y-305000D01*
G01X914200Y-291667D02*
X919800D01*
G01X929000Y-305000D02*
X927800Y-304667D01*
X926600Y-303334D01*
X925800Y-301000D01*
X925400Y-298334D01*
X925800Y-295667D01*
X926600Y-293333D01*
X927800Y-292000D01*
X929000Y-291667D01*
X930200Y-292000D01*
X931400Y-293333D01*
X932200Y-295667D01*
X932400Y-298334D01*
X932200Y-301000D01*
X931400Y-303334D01*
X930200Y-304667D01*
X929000Y-305000D01*
G01X954600Y-294333D02*
X955400Y-293333D01*
X956000Y-291667D01*
X956400Y-289333D01*
X956000Y-287333D01*
X955200Y-286000D01*
X953800Y-285000D01*
X948400D01*
Y-305000D01*
X955000D01*
X956400Y-303667D01*
X957200Y-301667D01*
X957600Y-299333D01*
X957200Y-297000D01*
X956000Y-295000D01*
X954600Y-294333D01*
X948400D01*
G01X965000Y-305000D02*
X963400Y-304667D01*
X962000Y-303334D01*
X960800Y-301334D01*
X960000Y-299000D01*
X959600Y-296333D01*
Y-293667D01*
X960000Y-291000D01*
X960800Y-288666D01*
X962000Y-286667D01*
X963400Y-285333D01*
X965000Y-285000D01*
X966600Y-285333D01*
X968000Y-286667D01*
X969200Y-288666D01*
X970000Y-291000D01*
X970400Y-293667D01*
Y-296333D01*
X970000Y-299000D01*
X969200Y-301334D01*
X968000Y-303334D01*
X966600Y-304667D01*
X965000Y-305000D01*
G01X977000Y-285000D02*
Y-305000D01*
G01X972400Y-285000D02*
X981600D01*
G01X989000D02*
Y-305000D01*
G01X984400Y-285000D02*
X993600D01*
G01X1001000Y-305000D02*
X999400Y-304667D01*
X998000Y-303334D01*
X996800Y-301334D01*
X996000Y-299000D01*
X995600Y-296333D01*
Y-293667D01*
X996000Y-291000D01*
X996800Y-288666D01*
X998000Y-286667D01*
X999400Y-285333D01*
X1001000Y-285000D01*
X1002600Y-285333D01*
X1004000Y-286667D01*
X1005200Y-288666D01*
X1006000Y-291000D01*
X1006400Y-293667D01*
Y-296333D01*
X1006000Y-299000D01*
X1005200Y-301334D01*
X1004000Y-303334D01*
X1002600Y-304667D01*
X1001000Y-305000D01*
G01X1007800D02*
Y-285000D01*
X1013000Y-301667D01*
X1018200Y-285000D01*
Y-305000D01*
G01X1032600Y-393500D02*
X1033800Y-395834D01*
X1035400Y-397167D01*
X1037200Y-397500D01*
X1038800Y-397167D01*
X1040400Y-395500D01*
X1041400Y-393500D01*
X1041600Y-391500D01*
X1041200Y-389167D01*
X1039800Y-387500D01*
X1038400Y-386833D01*
X1036600D01*
G01X1038400D02*
X1039600Y-385833D01*
X1040600Y-384167D01*
X1041000Y-382167D01*
X1040600Y-380167D01*
X1039600Y-378500D01*
X1037800Y-377500D01*
X1036000Y-377833D01*
X1034200Y-379167D01*
G01X1048600Y-397500D02*
X1049000Y-393167D01*
X1049600Y-389500D01*
X1050400Y-386167D01*
X1051400Y-382500D01*
X1053000Y-377500D01*
X1045000D01*
G01X1063400Y-397500D02*
Y-377500D01*
X1056000Y-391833D01*
X1066000D01*
G01X1073000Y-397500D02*
X1074400Y-397167D01*
X1076000Y-396167D01*
X1077000Y-394501D01*
X1077400Y-392167D01*
X1077000Y-389834D01*
X1075800Y-387834D01*
X1074000Y-386833D01*
X1072000D01*
X1070800Y-386167D01*
X1069800Y-384500D01*
X1069400Y-382167D01*
X1070000Y-379833D01*
X1071400Y-378167D01*
X1073000Y-377500D01*
X1074600Y-378167D01*
X1076000Y-379833D01*
X1076600Y-382167D01*
X1076200Y-384500D01*
X1075200Y-386167D01*
X1074000Y-386833D01*
X1072000D01*
X1070200Y-387834D01*
X1069000Y-389834D01*
X1068600Y-392167D01*
X1069000Y-394501D01*
X1070000Y-396167D01*
X1071600Y-397167D01*
X1073000Y-397500D01*
G01X925000D02*
Y-377500D01*
X929800D01*
X931400Y-378500D01*
X932600Y-380833D01*
X933000Y-383500D01*
X932600Y-386167D01*
X931600Y-388167D01*
X929800Y-389167D01*
X925000D01*
G01X937000Y-377500D02*
Y-397500D01*
X945000D01*
G01X948000D02*
X953000Y-377500D01*
X958000Y-397500D01*
G01X956200Y-390500D02*
X949800D01*
G01X965000Y-377500D02*
Y-397500D01*
G01X960400Y-377500D02*
X969600D01*
G01X981000Y-397500D02*
X973000D01*
Y-377500D01*
X981000D01*
G01X977800Y-387166D02*
X973000D01*
G01X984600Y-397500D02*
Y-377500D01*
X988600D01*
X990200Y-378500D01*
X991400Y-379833D01*
X992400Y-381833D01*
X993200Y-384167D01*
X993400Y-387500D01*
X993200Y-390834D01*
X992400Y-393167D01*
X991400Y-395167D01*
X990200Y-396500D01*
X988600Y-397500D01*
X984600D01*
G01X1043000Y-365000D02*
X1041400Y-364667D01*
X1040000Y-363334D01*
X1038800Y-361334D01*
X1038000Y-359000D01*
X1037600Y-356333D01*
Y-353667D01*
X1038000Y-351000D01*
X1038800Y-348666D01*
X1040000Y-346667D01*
X1041400Y-345333D01*
X1043000Y-345000D01*
X1044600Y-345333D01*
X1046000Y-346667D01*
X1047200Y-348666D01*
X1048000Y-351000D01*
X1048400Y-353667D01*
Y-356333D01*
X1048000Y-359000D01*
X1047200Y-361334D01*
X1046000Y-363334D01*
X1044600Y-364667D01*
X1043000Y-365000D01*
G01X1044600Y-359667D02*
X1047000Y-365000D01*
G01X1055000Y-345000D02*
Y-365000D01*
G01X1050400Y-345000D02*
X1059600D01*
G01X1067000Y-365000D02*
Y-356000D01*
X1063000Y-345000D01*
G01X1071000D02*
X1067000Y-356000D01*
G01X925000Y-365000D02*
Y-345000D01*
X929800D01*
X931400Y-346000D01*
X932600Y-348333D01*
X933000Y-351000D01*
X932600Y-353667D01*
X931600Y-355667D01*
X929800Y-356667D01*
X925000D01*
G01X937000Y-345000D02*
Y-365000D01*
X945000D01*
G01X948000D02*
X953000Y-345000D01*
X958000Y-365000D01*
G01X956200Y-358000D02*
X949800D01*
G01X965000Y-345000D02*
Y-365000D01*
G01X960400Y-345000D02*
X969600D01*
G01X981000Y-365000D02*
X973000D01*
Y-345000D01*
X981000D01*
G01X977800Y-354666D02*
X973000D01*
G01X984600Y-365000D02*
Y-345000D01*
X988600D01*
X990200Y-346000D01*
X991400Y-347333D01*
X992400Y-349333D01*
X993200Y-351667D01*
X993400Y-355000D01*
X993200Y-358334D01*
X992400Y-360667D01*
X991400Y-362667D01*
X990200Y-364000D01*
X988600Y-365000D01*
X984600D01*
G54D14*
G01X-335933Y-307400D02*
X-334813Y-312400D01*
X-333600Y-307400D01*
X-332387Y-312400D01*
X-331267Y-307400D01*
G01X-328433D02*
X-327313Y-312400D01*
X-326100Y-307400D01*
X-324887Y-312400D01*
X-323767Y-307400D01*
G01X-320933D02*
X-319813Y-312400D01*
X-318600Y-307400D01*
X-317387Y-312400D01*
X-316267Y-307400D01*
G01X-311100Y-312650D02*
X-311287Y-312525D01*
Y-312275D01*
X-311100Y-312150D01*
X-310913Y-312275D01*
Y-312525D01*
X-311100Y-312650D01*
G01X-301920Y-304900D02*
Y-312400D01*
G01Y-311275D02*
X-302293Y-311900D01*
X-302853Y-312275D01*
X-303507Y-312400D01*
X-304253Y-312150D01*
X-304813Y-311525D01*
X-305187Y-310775D01*
X-305280Y-309900D01*
X-305187Y-309025D01*
X-304813Y-308275D01*
X-304253Y-307650D01*
X-303507Y-307400D01*
X-302853Y-307525D01*
X-302387Y-307775D01*
X-301920Y-308275D01*
G01X-297500Y-309025D02*
X-294513D01*
X-294793Y-308150D01*
X-295260Y-307650D01*
X-295913Y-307400D01*
X-296567Y-307525D01*
X-297127Y-307900D01*
X-297500Y-308775D01*
X-297687Y-309525D01*
Y-310275D01*
X-297500Y-311025D01*
X-297033Y-311775D01*
X-296473Y-312275D01*
X-295820Y-312400D01*
X-295167Y-312150D01*
X-294513Y-311400D01*
G01X-290000Y-311525D02*
X-289533Y-312025D01*
X-288880Y-312400D01*
X-288320D01*
X-287760Y-312150D01*
X-287387Y-311775D01*
X-287200Y-311275D01*
X-287293Y-310525D01*
X-287667Y-310150D01*
X-289347Y-309400D01*
X-289720Y-308525D01*
X-289533Y-307900D01*
X-289160Y-307525D01*
X-288600Y-307400D01*
X-288040Y-307525D01*
X-287480Y-307900D01*
G01X-281100Y-307400D02*
Y-312400D01*
G01Y-305400D02*
X-281287Y-305275D01*
Y-305025D01*
X-281100Y-304900D01*
X-280913Y-305025D01*
Y-305275D01*
X-281100Y-305400D01*
G01X-274907Y-314275D02*
X-274253Y-314775D01*
X-273507Y-314900D01*
X-272853Y-314775D01*
X-272293Y-314150D01*
X-271920Y-313275D01*
Y-307400D01*
G01Y-308400D02*
X-272293Y-307900D01*
X-272853Y-307525D01*
X-273507Y-307400D01*
X-274253Y-307650D01*
X-274720Y-308150D01*
X-275093Y-309025D01*
X-275280Y-309900D01*
X-275187Y-310650D01*
X-274813Y-311525D01*
X-274253Y-312150D01*
X-273507Y-312400D01*
X-272947Y-312275D01*
X-272293Y-311775D01*
X-271920Y-311275D01*
G01X-267687Y-312400D02*
Y-307400D01*
G01Y-308650D02*
X-267313Y-308025D01*
X-266753Y-307525D01*
X-266007Y-307400D01*
X-265353Y-307525D01*
X-264793Y-308025D01*
X-264513Y-308900D01*
Y-312400D01*
G01X-259813Y-309900D02*
X-257387D01*
G01X-252500Y-311525D02*
X-252033Y-312025D01*
X-251380Y-312400D01*
X-250820D01*
X-250260Y-312150D01*
X-249887Y-311775D01*
X-249700Y-311275D01*
X-249793Y-310525D01*
X-250167Y-310150D01*
X-251847Y-309400D01*
X-252220Y-308525D01*
X-252033Y-307900D01*
X-251660Y-307525D01*
X-251100Y-307400D01*
X-250540Y-307525D01*
X-249980Y-307900D01*
G01X-245187Y-312400D02*
Y-304900D01*
G01Y-308525D02*
X-244720Y-307900D01*
X-244253Y-307525D01*
X-243507Y-307400D01*
X-242947Y-307525D01*
X-242293Y-308025D01*
X-242013Y-308775D01*
Y-312400D01*
G01X-236100Y-307400D02*
Y-312400D01*
G01Y-305400D02*
X-236287Y-305275D01*
Y-305025D01*
X-236100Y-304900D01*
X-235913Y-305025D01*
Y-305275D01*
X-236100Y-305400D01*
G01X-229160Y-312400D02*
Y-306025D01*
X-228973Y-305400D01*
X-228600Y-305025D01*
X-228040Y-304900D01*
X-227480Y-305150D01*
X-227200Y-305775D01*
G01X-228320Y-307900D02*
X-230187D01*
G01X-221100Y-304900D02*
Y-312400D01*
G01X-222407Y-307400D02*
X-219793D01*
G01X-213600Y-312650D02*
X-213787Y-312525D01*
Y-312275D01*
X-213600Y-312150D01*
X-213413Y-312275D01*
Y-312525D01*
X-213600Y-312650D01*
G01X-204607Y-308025D02*
X-205260Y-307525D01*
X-205820Y-307400D01*
X-206567Y-307650D01*
X-207127Y-308150D01*
X-207500Y-309025D01*
X-207593Y-309900D01*
X-207500Y-310775D01*
X-207127Y-311525D01*
X-206567Y-312150D01*
X-205820Y-312400D01*
X-205167Y-312150D01*
X-204607Y-311650D01*
G01X-198600Y-312400D02*
X-199160Y-312275D01*
X-199720Y-311775D01*
X-200093Y-310900D01*
X-200280Y-309900D01*
X-200093Y-308900D01*
X-199720Y-308025D01*
X-199160Y-307525D01*
X-198600Y-307400D01*
X-198040Y-307525D01*
X-197480Y-308025D01*
X-197107Y-308900D01*
X-197013Y-309900D01*
X-197107Y-310900D01*
X-197480Y-311775D01*
X-198040Y-312275D01*
X-198600Y-312400D01*
G01X-193900D02*
Y-307400D01*
G01Y-308775D02*
X-193620Y-308150D01*
X-193153Y-307650D01*
X-192500Y-307400D01*
X-191847Y-307650D01*
X-191380Y-308150D01*
X-191100Y-308775D01*
Y-312400D01*
G01Y-308775D02*
X-190820Y-308150D01*
X-190353Y-307650D01*
X-189700Y-307400D01*
X-189047Y-307650D01*
X-188580Y-308150D01*
X-188300Y-308900D01*
Y-312400D01*
G01X-336033Y-307400D02*
X-334913Y-312400D01*
X-333700Y-307400D01*
X-332487Y-312400D01*
X-331367Y-307400D01*
G01X-328533D02*
X-327413Y-312400D01*
X-326200Y-307400D01*
X-324987Y-312400D01*
X-323867Y-307400D01*
G01X-321033D02*
X-319913Y-312400D01*
X-318700Y-307400D01*
X-317487Y-312400D01*
X-316367Y-307400D01*
G01X-311200Y-312650D02*
X-311387Y-312525D01*
Y-312275D01*
X-311200Y-312150D01*
X-311013Y-312275D01*
Y-312525D01*
X-311200Y-312650D01*
G01X-302020Y-304900D02*
Y-312400D01*
G01Y-311275D02*
X-302393Y-311900D01*
X-302953Y-312275D01*
X-303607Y-312400D01*
X-304353Y-312150D01*
X-304913Y-311525D01*
X-305287Y-310775D01*
X-305380Y-309900D01*
X-305287Y-309025D01*
X-304913Y-308275D01*
X-304353Y-307650D01*
X-303607Y-307400D01*
X-302953Y-307525D01*
X-302487Y-307775D01*
X-302020Y-308275D01*
G01X-297600Y-309025D02*
X-294613D01*
X-294893Y-308150D01*
X-295360Y-307650D01*
X-296013Y-307400D01*
X-296667Y-307525D01*
X-297227Y-307900D01*
X-297600Y-308775D01*
X-297787Y-309525D01*
Y-310275D01*
X-297600Y-311025D01*
X-297133Y-311775D01*
X-296573Y-312275D01*
X-295920Y-312400D01*
X-295267Y-312150D01*
X-294613Y-311400D01*
G01X-290100Y-311525D02*
X-289633Y-312025D01*
X-288980Y-312400D01*
X-288420D01*
X-287860Y-312150D01*
X-287487Y-311775D01*
X-287300Y-311275D01*
X-287393Y-310525D01*
X-287767Y-310150D01*
X-289447Y-309400D01*
X-289820Y-308525D01*
X-289633Y-307900D01*
X-289260Y-307525D01*
X-288700Y-307400D01*
X-288140Y-307525D01*
X-287580Y-307900D01*
G01X-281200Y-307400D02*
Y-312400D01*
G01Y-305400D02*
X-281387Y-305275D01*
Y-305025D01*
X-281200Y-304900D01*
X-281013Y-305025D01*
Y-305275D01*
X-281200Y-305400D01*
G01X-275007Y-314275D02*
X-274353Y-314775D01*
X-273607Y-314900D01*
X-272953Y-314775D01*
X-272393Y-314150D01*
X-272020Y-313275D01*
Y-307400D01*
G01Y-308400D02*
X-272393Y-307900D01*
X-272953Y-307525D01*
X-273607Y-307400D01*
X-274353Y-307650D01*
X-274820Y-308150D01*
X-275193Y-309025D01*
X-275380Y-309900D01*
X-275287Y-310650D01*
X-274913Y-311525D01*
X-274353Y-312150D01*
X-273607Y-312400D01*
X-273047Y-312275D01*
X-272393Y-311775D01*
X-272020Y-311275D01*
G01X-267787Y-312400D02*
Y-307400D01*
G01Y-308650D02*
X-267413Y-308025D01*
X-266853Y-307525D01*
X-266107Y-307400D01*
X-265453Y-307525D01*
X-264893Y-308025D01*
X-264613Y-308900D01*
Y-312400D01*
G01X-259913Y-309900D02*
X-257487D01*
G01X-252600Y-311525D02*
X-252133Y-312025D01*
X-251480Y-312400D01*
X-250920D01*
X-250360Y-312150D01*
X-249987Y-311775D01*
X-249800Y-311275D01*
X-249893Y-310525D01*
X-250267Y-310150D01*
X-251947Y-309400D01*
X-252320Y-308525D01*
X-252133Y-307900D01*
X-251760Y-307525D01*
X-251200Y-307400D01*
X-250640Y-307525D01*
X-250080Y-307900D01*
G01X-245287Y-312400D02*
Y-304900D01*
G01Y-308525D02*
X-244820Y-307900D01*
X-244353Y-307525D01*
X-243607Y-307400D01*
X-243047Y-307525D01*
X-242393Y-308025D01*
X-242113Y-308775D01*
Y-312400D01*
G01X-236200Y-307400D02*
Y-312400D01*
G01Y-305400D02*
X-236387Y-305275D01*
Y-305025D01*
X-236200Y-304900D01*
X-236013Y-305025D01*
Y-305275D01*
X-236200Y-305400D01*
G01X-229260Y-312400D02*
Y-306025D01*
X-229073Y-305400D01*
X-228700Y-305025D01*
X-228140Y-304900D01*
X-227580Y-305150D01*
X-227300Y-305775D01*
G01X-228420Y-307900D02*
X-230287D01*
G01X-221200Y-304900D02*
Y-312400D01*
G01X-222507Y-307400D02*
X-219893D01*
G01X-213700Y-312650D02*
X-213887Y-312525D01*
Y-312275D01*
X-213700Y-312150D01*
X-213513Y-312275D01*
Y-312525D01*
X-213700Y-312650D01*
G01X-204707Y-308025D02*
X-205360Y-307525D01*
X-205920Y-307400D01*
X-206667Y-307650D01*
X-207227Y-308150D01*
X-207600Y-309025D01*
X-207693Y-309900D01*
X-207600Y-310775D01*
X-207227Y-311525D01*
X-206667Y-312150D01*
X-205920Y-312400D01*
X-205267Y-312150D01*
X-204707Y-311650D01*
G01X-198700Y-312400D02*
X-199260Y-312275D01*
X-199820Y-311775D01*
X-200193Y-310900D01*
X-200380Y-309900D01*
X-200193Y-308900D01*
X-199820Y-308025D01*
X-199260Y-307525D01*
X-198700Y-307400D01*
X-198140Y-307525D01*
X-197580Y-308025D01*
X-197207Y-308900D01*
X-197113Y-309900D01*
X-197207Y-310900D01*
X-197580Y-311775D01*
X-198140Y-312275D01*
X-198700Y-312400D01*
G01X-194000D02*
Y-307400D01*
G01Y-308775D02*
X-193720Y-308150D01*
X-193253Y-307650D01*
X-192600Y-307400D01*
X-191947Y-307650D01*
X-191480Y-308150D01*
X-191200Y-308775D01*
Y-312400D01*
G01Y-308775D02*
X-190920Y-308150D01*
X-190453Y-307650D01*
X-189800Y-307400D01*
X-189147Y-307650D01*
X-188680Y-308150D01*
X-188400Y-308900D01*
Y-312400D01*
G01X-336133Y-307400D02*
X-335013Y-312400D01*
X-333800Y-307400D01*
X-332587Y-312400D01*
X-331467Y-307400D01*
G01X-328633D02*
X-327513Y-312400D01*
X-326300Y-307400D01*
X-325087Y-312400D01*
X-323967Y-307400D01*
G01X-321133D02*
X-320013Y-312400D01*
X-318800Y-307400D01*
X-317587Y-312400D01*
X-316467Y-307400D01*
G01X-311300Y-312650D02*
X-311487Y-312525D01*
Y-312275D01*
X-311300Y-312150D01*
X-311113Y-312275D01*
Y-312525D01*
X-311300Y-312650D01*
G01X-302120Y-304900D02*
Y-312400D01*
G01Y-311275D02*
X-302493Y-311900D01*
X-303053Y-312275D01*
X-303707Y-312400D01*
X-304453Y-312150D01*
X-305013Y-311525D01*
X-305387Y-310775D01*
X-305480Y-309900D01*
X-305387Y-309025D01*
X-305013Y-308275D01*
X-304453Y-307650D01*
X-303707Y-307400D01*
X-303053Y-307525D01*
X-302587Y-307775D01*
X-302120Y-308275D01*
G01X-297700Y-309025D02*
X-294713D01*
X-294993Y-308150D01*
X-295460Y-307650D01*
X-296113Y-307400D01*
X-296767Y-307525D01*
X-297327Y-307900D01*
X-297700Y-308775D01*
X-297887Y-309525D01*
Y-310275D01*
X-297700Y-311025D01*
X-297233Y-311775D01*
X-296673Y-312275D01*
X-296020Y-312400D01*
X-295367Y-312150D01*
X-294713Y-311400D01*
G01X-290200Y-311525D02*
X-289733Y-312025D01*
X-289080Y-312400D01*
X-288520D01*
X-287960Y-312150D01*
X-287587Y-311775D01*
X-287400Y-311275D01*
X-287493Y-310525D01*
X-287867Y-310150D01*
X-289547Y-309400D01*
X-289920Y-308525D01*
X-289733Y-307900D01*
X-289360Y-307525D01*
X-288800Y-307400D01*
X-288240Y-307525D01*
X-287680Y-307900D01*
G01X-281300Y-307400D02*
Y-312400D01*
G01Y-305400D02*
X-281487Y-305275D01*
Y-305025D01*
X-281300Y-304900D01*
X-281113Y-305025D01*
Y-305275D01*
X-281300Y-305400D01*
G01X-275107Y-314275D02*
X-274453Y-314775D01*
X-273707Y-314900D01*
X-273053Y-314775D01*
X-272493Y-314150D01*
X-272120Y-313275D01*
Y-307400D01*
G01Y-308400D02*
X-272493Y-307900D01*
X-273053Y-307525D01*
X-273707Y-307400D01*
X-274453Y-307650D01*
X-274920Y-308150D01*
X-275293Y-309025D01*
X-275480Y-309900D01*
X-275387Y-310650D01*
X-275013Y-311525D01*
X-274453Y-312150D01*
X-273707Y-312400D01*
X-273147Y-312275D01*
X-272493Y-311775D01*
X-272120Y-311275D01*
G01X-267887Y-312400D02*
Y-307400D01*
G01Y-308650D02*
X-267513Y-308025D01*
X-266953Y-307525D01*
X-266207Y-307400D01*
X-265553Y-307525D01*
X-264993Y-308025D01*
X-264713Y-308900D01*
Y-312400D01*
G01X-260013Y-309900D02*
X-257587D01*
G01X-252700Y-311525D02*
X-252233Y-312025D01*
X-251580Y-312400D01*
X-251020D01*
X-250460Y-312150D01*
X-250087Y-311775D01*
X-249900Y-311275D01*
X-249993Y-310525D01*
X-250367Y-310150D01*
X-252047Y-309400D01*
X-252420Y-308525D01*
X-252233Y-307900D01*
X-251860Y-307525D01*
X-251300Y-307400D01*
X-250740Y-307525D01*
X-250180Y-307900D01*
G01X-245387Y-312400D02*
Y-304900D01*
G01Y-308525D02*
X-244920Y-307900D01*
X-244453Y-307525D01*
X-243707Y-307400D01*
X-243147Y-307525D01*
X-242493Y-308025D01*
X-242213Y-308775D01*
Y-312400D01*
G01X-236300Y-307400D02*
Y-312400D01*
G01Y-305400D02*
X-236487Y-305275D01*
Y-305025D01*
X-236300Y-304900D01*
X-236113Y-305025D01*
Y-305275D01*
X-236300Y-305400D01*
G01X-229360Y-312400D02*
Y-306025D01*
X-229173Y-305400D01*
X-228800Y-305025D01*
X-228240Y-304900D01*
X-227680Y-305150D01*
X-227400Y-305775D01*
G01X-228520Y-307900D02*
X-230387D01*
G01X-221300Y-304900D02*
Y-312400D01*
G01X-222607Y-307400D02*
X-219993D01*
G01X-213800Y-312650D02*
X-213987Y-312525D01*
Y-312275D01*
X-213800Y-312150D01*
X-213613Y-312275D01*
Y-312525D01*
X-213800Y-312650D01*
G01X-204807Y-308025D02*
X-205460Y-307525D01*
X-206020Y-307400D01*
X-206767Y-307650D01*
X-207327Y-308150D01*
X-207700Y-309025D01*
X-207793Y-309900D01*
X-207700Y-310775D01*
X-207327Y-311525D01*
X-206767Y-312150D01*
X-206020Y-312400D01*
X-205367Y-312150D01*
X-204807Y-311650D01*
G01X-198800Y-312400D02*
X-199360Y-312275D01*
X-199920Y-311775D01*
X-200293Y-310900D01*
X-200480Y-309900D01*
X-200293Y-308900D01*
X-199920Y-308025D01*
X-199360Y-307525D01*
X-198800Y-307400D01*
X-198240Y-307525D01*
X-197680Y-308025D01*
X-197307Y-308900D01*
X-197213Y-309900D01*
X-197307Y-310900D01*
X-197680Y-311775D01*
X-198240Y-312275D01*
X-198800Y-312400D01*
G01X-194100D02*
Y-307400D01*
G01Y-308775D02*
X-193820Y-308150D01*
X-193353Y-307650D01*
X-192700Y-307400D01*
X-192047Y-307650D01*
X-191580Y-308150D01*
X-191300Y-308775D01*
Y-312400D01*
G01Y-308775D02*
X-191020Y-308150D01*
X-190553Y-307650D01*
X-189900Y-307400D01*
X-189247Y-307650D01*
X-188780Y-308150D01*
X-188500Y-308900D01*
Y-312400D01*
G01X-336233Y-307400D02*
X-335113Y-312400D01*
X-333900Y-307400D01*
X-332687Y-312400D01*
X-331567Y-307400D01*
G01X-328733D02*
X-327613Y-312400D01*
X-326400Y-307400D01*
X-325187Y-312400D01*
X-324067Y-307400D01*
G01X-321233D02*
X-320113Y-312400D01*
X-318900Y-307400D01*
X-317687Y-312400D01*
X-316567Y-307400D01*
G01X-311400Y-312650D02*
X-311587Y-312525D01*
Y-312275D01*
X-311400Y-312150D01*
X-311213Y-312275D01*
Y-312525D01*
X-311400Y-312650D01*
G01X-302220Y-304900D02*
Y-312400D01*
G01Y-311275D02*
X-302593Y-311900D01*
X-303153Y-312275D01*
X-303807Y-312400D01*
X-304553Y-312150D01*
X-305113Y-311525D01*
X-305487Y-310775D01*
X-305580Y-309900D01*
X-305487Y-309025D01*
X-305113Y-308275D01*
X-304553Y-307650D01*
X-303807Y-307400D01*
X-303153Y-307525D01*
X-302687Y-307775D01*
X-302220Y-308275D01*
G01X-297800Y-309025D02*
X-294813D01*
X-295093Y-308150D01*
X-295560Y-307650D01*
X-296213Y-307400D01*
X-296867Y-307525D01*
X-297427Y-307900D01*
X-297800Y-308775D01*
X-297987Y-309525D01*
Y-310275D01*
X-297800Y-311025D01*
X-297333Y-311775D01*
X-296773Y-312275D01*
X-296120Y-312400D01*
X-295467Y-312150D01*
X-294813Y-311400D01*
G01X-290300Y-311525D02*
X-289833Y-312025D01*
X-289180Y-312400D01*
X-288620D01*
X-288060Y-312150D01*
X-287687Y-311775D01*
X-287500Y-311275D01*
X-287593Y-310525D01*
X-287967Y-310150D01*
X-289647Y-309400D01*
X-290020Y-308525D01*
X-289833Y-307900D01*
X-289460Y-307525D01*
X-288900Y-307400D01*
X-288340Y-307525D01*
X-287780Y-307900D01*
G01X-281400Y-307400D02*
Y-312400D01*
G01Y-305400D02*
X-281587Y-305275D01*
Y-305025D01*
X-281400Y-304900D01*
X-281213Y-305025D01*
Y-305275D01*
X-281400Y-305400D01*
G01X-275207Y-314275D02*
X-274553Y-314775D01*
X-273807Y-314900D01*
X-273153Y-314775D01*
X-272593Y-314150D01*
X-272220Y-313275D01*
Y-307400D01*
G01Y-308400D02*
X-272593Y-307900D01*
X-273153Y-307525D01*
X-273807Y-307400D01*
X-274553Y-307650D01*
X-275020Y-308150D01*
X-275393Y-309025D01*
X-275580Y-309900D01*
X-275487Y-310650D01*
X-275113Y-311525D01*
X-274553Y-312150D01*
X-273807Y-312400D01*
X-273247Y-312275D01*
X-272593Y-311775D01*
X-272220Y-311275D01*
G01X-267987Y-312400D02*
Y-307400D01*
G01Y-308650D02*
X-267613Y-308025D01*
X-267053Y-307525D01*
X-266307Y-307400D01*
X-265653Y-307525D01*
X-265093Y-308025D01*
X-264813Y-308900D01*
Y-312400D01*
G01X-260113Y-309900D02*
X-257687D01*
G01X-252800Y-311525D02*
X-252333Y-312025D01*
X-251680Y-312400D01*
X-251120D01*
X-250560Y-312150D01*
X-250187Y-311775D01*
X-250000Y-311275D01*
X-250093Y-310525D01*
X-250467Y-310150D01*
X-252147Y-309400D01*
X-252520Y-308525D01*
X-252333Y-307900D01*
X-251960Y-307525D01*
X-251400Y-307400D01*
X-250840Y-307525D01*
X-250280Y-307900D01*
G01X-245487Y-312400D02*
Y-304900D01*
G01Y-308525D02*
X-245020Y-307900D01*
X-244553Y-307525D01*
X-243807Y-307400D01*
X-243247Y-307525D01*
X-242593Y-308025D01*
X-242313Y-308775D01*
Y-312400D01*
G01X-236400Y-307400D02*
Y-312400D01*
G01Y-305400D02*
X-236587Y-305275D01*
Y-305025D01*
X-236400Y-304900D01*
X-236213Y-305025D01*
Y-305275D01*
X-236400Y-305400D01*
G01X-229460Y-312400D02*
Y-306025D01*
X-229273Y-305400D01*
X-228900Y-305025D01*
X-228340Y-304900D01*
X-227780Y-305150D01*
X-227500Y-305775D01*
G01X-228620Y-307900D02*
X-230487D01*
G01X-221400Y-304900D02*
Y-312400D01*
G01X-222707Y-307400D02*
X-220093D01*
G01X-213900Y-312650D02*
X-214087Y-312525D01*
Y-312275D01*
X-213900Y-312150D01*
X-213713Y-312275D01*
Y-312525D01*
X-213900Y-312650D01*
G01X-204907Y-308025D02*
X-205560Y-307525D01*
X-206120Y-307400D01*
X-206867Y-307650D01*
X-207427Y-308150D01*
X-207800Y-309025D01*
X-207893Y-309900D01*
X-207800Y-310775D01*
X-207427Y-311525D01*
X-206867Y-312150D01*
X-206120Y-312400D01*
X-205467Y-312150D01*
X-204907Y-311650D01*
G01X-198900Y-312400D02*
X-199460Y-312275D01*
X-200020Y-311775D01*
X-200393Y-310900D01*
X-200580Y-309900D01*
X-200393Y-308900D01*
X-200020Y-308025D01*
X-199460Y-307525D01*
X-198900Y-307400D01*
X-198340Y-307525D01*
X-197780Y-308025D01*
X-197407Y-308900D01*
X-197313Y-309900D01*
X-197407Y-310900D01*
X-197780Y-311775D01*
X-198340Y-312275D01*
X-198900Y-312400D01*
G01X-194200D02*
Y-307400D01*
G01Y-308775D02*
X-193920Y-308150D01*
X-193453Y-307650D01*
X-192800Y-307400D01*
X-192147Y-307650D01*
X-191680Y-308150D01*
X-191400Y-308775D01*
Y-312400D01*
G01Y-308775D02*
X-191120Y-308150D01*
X-190653Y-307650D01*
X-190000Y-307400D01*
X-189347Y-307650D01*
X-188880Y-308150D01*
X-188600Y-308900D01*
Y-312400D01*
G01X2414Y107679D02*
G03X-165856Y412946I-199265J89171D01*
G03X-168325Y410939I-308J-2143D01*
G02X-185960Y412556I-8841J555D01*
G03X-188022Y414979I-2150J259D01*
G03X-233931Y411985I-8827J-218128D01*
G03X-235498Y409536I334J-1940D01*
G01X-233035Y400343D01*
X-240641Y398305D01*
X-243299Y408226D01*
G03X-245640Y409636I-1902J-509D01*
G03X-306287Y385746I48791J-212785D01*
G03X-307039Y383119I987J-1704D01*
G01X-302217Y374050D01*
X-309169Y370353D01*
X-313637Y378756D01*
G03X-316454Y379479I-1738J-924D01*
G03X-396108Y107662I119603J-182628D01*
G03X-393274Y106559I1976J885D01*
G02X-385239Y90810I3510J-8133D01*
G03X-386009Y87868I1107J-1861D01*
G03X-364507Y57032I189157J108985D01*
G03X-363899Y55167I2139J-334D01*
G01X-338535Y29802D01*
G03X-336669Y29193I1532J1531D01*
G03X-132711Y-11822I139818J167658D01*
G03X-131388Y-9431I-579J1882D01*
G01X-134064Y556D01*
X-126458Y2594D01*
X-123978Y-6664D01*
G03X-121396Y-8002I1902J509D01*
G03X-112326Y-4430I-75440J204858D01*
G03X-111350Y-1690I-762J1815D01*
G01X-115818Y6713D01*
X-108866Y10410D01*
X-104043Y1341D01*
G03X-101445Y494I1738J924D01*
G03X-57033Y29193I-95406J196356D01*
G03X-55167Y29802I334J2139D01*
G01X-29802Y55167D01*
G03X-29194Y57032I-1531J1531D01*
G03X-7702Y87852I-167657J139818D01*
G03X-8650Y90889I-1876J1081D01*
G02X-601Y106664I3798J8003D01*
G03X2414Y107679I1039J1900D01*
G01X-336473Y-137250D02*
X-335913Y-136500D01*
X-335260Y-136125D01*
X-334513Y-136000D01*
X-333580Y-136250D01*
X-332927Y-136875D01*
X-332740Y-137625D01*
X-332833Y-138375D01*
X-333207Y-139000D01*
X-335073Y-140250D01*
X-335913Y-141125D01*
X-336473Y-142375D01*
X-336660Y-143500D01*
X-332740D01*
G01X-329253Y-142000D02*
X-328693Y-142875D01*
X-327947Y-143375D01*
X-327107Y-143500D01*
X-326360Y-143375D01*
X-325613Y-142750D01*
X-325147Y-142000D01*
X-325053Y-141250D01*
X-325240Y-140375D01*
X-325893Y-139750D01*
X-326547Y-139500D01*
X-327387D01*
G01X-326547D02*
X-325987Y-139125D01*
X-325520Y-138500D01*
X-325333Y-137750D01*
X-325520Y-137000D01*
X-325987Y-136375D01*
X-326827Y-136000D01*
X-327667Y-136125D01*
X-328507Y-136625D01*
G01X-321473Y-140375D02*
X-320820Y-139500D01*
X-320260Y-139000D01*
X-319513Y-138750D01*
X-318860Y-139000D01*
X-318393Y-139500D01*
X-318020Y-140250D01*
X-317927Y-141125D01*
X-318020Y-141875D01*
X-318393Y-142625D01*
X-318953Y-143250D01*
X-319607Y-143500D01*
X-320353Y-143250D01*
X-321007Y-142500D01*
X-321380Y-141375D01*
X-321473Y-140125D01*
X-321287Y-138500D01*
X-321007Y-137625D01*
X-320540Y-136750D01*
X-319887Y-136125D01*
X-319233Y-136000D01*
X-318580Y-136250D01*
X-318113Y-136875D01*
G01X-315000Y-143500D02*
Y-138500D01*
G01Y-139875D02*
X-314720Y-139250D01*
X-314253Y-138750D01*
X-313600Y-138500D01*
X-312947Y-138750D01*
X-312480Y-139250D01*
X-312200Y-139875D01*
Y-143500D01*
G01Y-139875D02*
X-311920Y-139250D01*
X-311453Y-138750D01*
X-310800Y-138500D01*
X-310147Y-138750D01*
X-309680Y-139250D01*
X-309400Y-140000D01*
Y-143500D01*
G01X-304700Y-138500D02*
Y-143500D01*
G01Y-136500D02*
X-304887Y-136375D01*
Y-136125D01*
X-304700Y-136000D01*
X-304513Y-136125D01*
Y-136375D01*
X-304700Y-136500D01*
G01X-297200Y-143500D02*
Y-136000D01*
G01X-291567Y-143500D02*
X-287833Y-141000D01*
X-291567Y-138500D01*
G01X-283413Y-142125D02*
X-280987D01*
G01Y-139875D02*
X-283413D01*
G01X-276753Y-143500D02*
Y-136000D01*
X-274887D01*
X-274140Y-136375D01*
X-273580Y-136875D01*
X-273113Y-137625D01*
X-272740Y-138500D01*
X-272647Y-139750D01*
X-272740Y-141000D01*
X-273113Y-141875D01*
X-273580Y-142625D01*
X-274140Y-143125D01*
X-274887Y-143500D01*
X-276753D01*
G01X-268507D02*
Y-138500D01*
G01Y-139500D02*
X-268040Y-139000D01*
X-267573Y-138625D01*
X-266920Y-138500D01*
X-266453Y-138625D01*
X-265893Y-139000D01*
G01X-259700Y-138500D02*
Y-143500D01*
G01Y-136500D02*
X-259887Y-136375D01*
Y-136125D01*
X-259700Y-136000D01*
X-259513Y-136125D01*
Y-136375D01*
X-259700Y-136500D01*
G01X-252200Y-143500D02*
Y-136000D01*
G01X-244700Y-143500D02*
Y-136000D01*
G01X-231100Y-142625D02*
X-230633Y-143125D01*
X-229980Y-143500D01*
X-229420D01*
X-228860Y-143250D01*
X-228487Y-142875D01*
X-228300Y-142375D01*
X-228393Y-141625D01*
X-228767Y-141250D01*
X-230447Y-140500D01*
X-230820Y-139625D01*
X-230633Y-139000D01*
X-230260Y-138625D01*
X-229700Y-138500D01*
X-229140Y-138625D01*
X-228580Y-139000D01*
G01X-222200Y-138500D02*
Y-143500D01*
G01Y-136500D02*
X-222387Y-136375D01*
Y-136125D01*
X-222200Y-136000D01*
X-222013Y-136125D01*
Y-136375D01*
X-222200Y-136500D01*
G01X-216100Y-138500D02*
X-213300D01*
X-216100Y-143500D01*
X-213300D01*
G01X-208600Y-140125D02*
X-205613D01*
X-205893Y-139250D01*
X-206360Y-138750D01*
X-207013Y-138500D01*
X-207667Y-138625D01*
X-208227Y-139000D01*
X-208600Y-139875D01*
X-208787Y-140625D01*
Y-141375D01*
X-208600Y-142125D01*
X-208133Y-142875D01*
X-207573Y-143375D01*
X-206920Y-143500D01*
X-206267Y-143250D01*
X-205613Y-142500D01*
G01X-201567Y-143500D02*
X-197833Y-141000D01*
X-201567Y-138500D01*
G01X-192387Y-143500D02*
X-192200Y-141875D01*
X-191920Y-140500D01*
X-191547Y-139250D01*
X-191080Y-137875D01*
X-190333Y-136000D01*
X-194067D01*
G01X-186287Y-142625D02*
X-185633Y-143250D01*
X-184887Y-143500D01*
X-184140Y-143250D01*
X-183487Y-142500D01*
X-183020Y-141375D01*
X-182833Y-140250D01*
Y-138875D01*
X-183020Y-137750D01*
X-183487Y-136750D01*
X-184047Y-136250D01*
X-184700Y-136000D01*
X-185447Y-136250D01*
X-186007Y-136750D01*
X-186380Y-137500D01*
X-186567Y-138500D01*
X-186380Y-139375D01*
X-185913Y-140250D01*
X-185353Y-140750D01*
X-184700Y-140875D01*
X-183953Y-140625D01*
X-183393Y-140000D01*
X-182833Y-138875D01*
G01X-180000Y-143500D02*
Y-138500D01*
G01Y-139875D02*
X-179720Y-139250D01*
X-179253Y-138750D01*
X-178600Y-138500D01*
X-177947Y-138750D01*
X-177480Y-139250D01*
X-177200Y-139875D01*
Y-143500D01*
G01Y-139875D02*
X-176920Y-139250D01*
X-176453Y-138750D01*
X-175800Y-138500D01*
X-175147Y-138750D01*
X-174680Y-139250D01*
X-174400Y-140000D01*
Y-143500D01*
G01X-169700Y-138500D02*
Y-143500D01*
G01Y-136500D02*
X-169887Y-136375D01*
Y-136125D01*
X-169700Y-136000D01*
X-169513Y-136125D01*
Y-136375D01*
X-169700Y-136500D01*
G01X-162200Y-143500D02*
Y-136000D01*
G01X-289253Y-107500D02*
Y-100000D01*
X-287387D01*
X-286640Y-100375D01*
X-286080Y-100875D01*
X-285613Y-101625D01*
X-285240Y-102500D01*
X-285147Y-103750D01*
X-285240Y-105000D01*
X-285613Y-105875D01*
X-286080Y-106625D01*
X-286640Y-107125D01*
X-287387Y-107500D01*
X-289253D01*
G01X-281100Y-104125D02*
X-278113D01*
X-278393Y-103250D01*
X-278860Y-102750D01*
X-279513Y-102500D01*
X-280167Y-102625D01*
X-280727Y-103000D01*
X-281100Y-103875D01*
X-281287Y-104625D01*
Y-105375D01*
X-281100Y-106125D01*
X-280633Y-106875D01*
X-280073Y-107375D01*
X-279420Y-107500D01*
X-278767Y-107250D01*
X-278113Y-106500D01*
G01X-273600Y-106625D02*
X-273133Y-107125D01*
X-272480Y-107500D01*
X-271920D01*
X-271360Y-107250D01*
X-270987Y-106875D01*
X-270800Y-106375D01*
X-270893Y-105625D01*
X-271267Y-105250D01*
X-272947Y-104500D01*
X-273320Y-103625D01*
X-273133Y-103000D01*
X-272760Y-102625D01*
X-272200Y-102500D01*
X-271640Y-102625D01*
X-271080Y-103000D01*
G01X-263207Y-103125D02*
X-263860Y-102625D01*
X-264420Y-102500D01*
X-265167Y-102750D01*
X-265727Y-103250D01*
X-266100Y-104125D01*
X-266193Y-105000D01*
X-266100Y-105875D01*
X-265727Y-106625D01*
X-265167Y-107250D01*
X-264420Y-107500D01*
X-263767Y-107250D01*
X-263207Y-106750D01*
G01X-258507Y-107500D02*
Y-102500D01*
G01Y-103500D02*
X-258040Y-103000D01*
X-257573Y-102625D01*
X-256920Y-102500D01*
X-256453Y-102625D01*
X-255893Y-103000D01*
G01X-249700Y-102500D02*
Y-107500D01*
G01Y-100500D02*
X-249887Y-100375D01*
Y-100125D01*
X-249700Y-100000D01*
X-249513Y-100125D01*
Y-100375D01*
X-249700Y-100500D01*
G01X-243880Y-110000D02*
Y-102500D01*
G01Y-103625D02*
X-243413Y-103000D01*
X-242947Y-102625D01*
X-242200Y-102500D01*
X-241547Y-102625D01*
X-240893Y-103250D01*
X-240613Y-104125D01*
X-240520Y-105000D01*
X-240613Y-105875D01*
X-240893Y-106750D01*
X-241453Y-107250D01*
X-242200Y-107500D01*
X-242853Y-107375D01*
X-243507Y-107000D01*
X-243880Y-106500D01*
G01X-234700Y-100000D02*
Y-107500D01*
G01X-236007Y-102500D02*
X-233393D01*
G01X-227200D02*
Y-107500D01*
G01Y-100500D02*
X-227387Y-100375D01*
Y-100125D01*
X-227200Y-100000D01*
X-227013Y-100125D01*
Y-100375D01*
X-227200Y-100500D01*
G01X-219700Y-107500D02*
X-220260Y-107375D01*
X-220820Y-106875D01*
X-221193Y-106000D01*
X-221380Y-105000D01*
X-221193Y-104000D01*
X-220820Y-103125D01*
X-220260Y-102625D01*
X-219700Y-102500D01*
X-219140Y-102625D01*
X-218580Y-103125D01*
X-218207Y-104000D01*
X-218113Y-105000D01*
X-218207Y-106000D01*
X-218580Y-106875D01*
X-219140Y-107375D01*
X-219700Y-107500D01*
G01X-213787D02*
Y-102500D01*
G01Y-103750D02*
X-213413Y-103125D01*
X-212853Y-102625D01*
X-212107Y-102500D01*
X-211453Y-102625D01*
X-210893Y-103125D01*
X-210613Y-104000D01*
Y-107500D01*
G01X-336753Y-128500D02*
Y-121000D01*
X-334887D01*
X-334140Y-121375D01*
X-333580Y-121875D01*
X-333113Y-122625D01*
X-332740Y-123500D01*
X-332647Y-124750D01*
X-332740Y-126000D01*
X-333113Y-126875D01*
X-333580Y-127625D01*
X-334140Y-128125D01*
X-334887Y-128500D01*
X-336753D01*
G01X-328507D02*
Y-123500D01*
G01Y-124500D02*
X-328040Y-124000D01*
X-327573Y-123625D01*
X-326920Y-123500D01*
X-326453Y-123625D01*
X-325893Y-124000D01*
G01X-319700Y-123500D02*
Y-128500D01*
G01Y-121500D02*
X-319887Y-121375D01*
Y-121125D01*
X-319700Y-121000D01*
X-319513Y-121125D01*
Y-121375D01*
X-319700Y-121500D01*
G01X-312200Y-128500D02*
Y-121000D01*
G01X-304700Y-128500D02*
Y-121000D01*
G01X-291100Y-127625D02*
X-290633Y-128125D01*
X-289980Y-128500D01*
X-289420D01*
X-288860Y-128250D01*
X-288487Y-127875D01*
X-288300Y-127375D01*
X-288393Y-126625D01*
X-288767Y-126250D01*
X-290447Y-125500D01*
X-290820Y-124625D01*
X-290633Y-124000D01*
X-290260Y-123625D01*
X-289700Y-123500D01*
X-289140Y-123625D01*
X-288580Y-124000D01*
G01X-282200Y-123500D02*
Y-128500D01*
G01Y-121500D02*
X-282387Y-121375D01*
Y-121125D01*
X-282200Y-121000D01*
X-282013Y-121125D01*
Y-121375D01*
X-282200Y-121500D01*
G01X-276100Y-123500D02*
X-273300D01*
X-276100Y-128500D01*
X-273300D01*
G01X-268600Y-125125D02*
X-265613D01*
X-265893Y-124250D01*
X-266360Y-123750D01*
X-267013Y-123500D01*
X-267667Y-123625D01*
X-268227Y-124000D01*
X-268600Y-124875D01*
X-268787Y-125625D01*
Y-126375D01*
X-268600Y-127125D01*
X-268133Y-127875D01*
X-267573Y-128375D01*
X-266920Y-128500D01*
X-266267Y-128250D01*
X-265613Y-127500D01*
G01X-261567Y-128500D02*
X-257833Y-126000D01*
X-261567Y-123500D01*
G01X-253973Y-122250D02*
X-253413Y-121500D01*
X-252760Y-121125D01*
X-252013Y-121000D01*
X-251080Y-121250D01*
X-250427Y-121875D01*
X-250240Y-122625D01*
X-250333Y-123375D01*
X-250707Y-124000D01*
X-252573Y-125250D01*
X-253413Y-126125D01*
X-253973Y-127375D01*
X-254160Y-128500D01*
X-250240D01*
G01X-246753Y-127000D02*
X-246193Y-127875D01*
X-245447Y-128375D01*
X-244607Y-128500D01*
X-243860Y-128375D01*
X-243113Y-127750D01*
X-242647Y-127000D01*
X-242553Y-126250D01*
X-242740Y-125375D01*
X-243393Y-124750D01*
X-244047Y-124500D01*
X-244887D01*
G01X-244047D02*
X-243487Y-124125D01*
X-243020Y-123500D01*
X-242833Y-122750D01*
X-243020Y-122000D01*
X-243487Y-121375D01*
X-244327Y-121000D01*
X-245167Y-121125D01*
X-246007Y-121625D01*
G01X-238973Y-125375D02*
X-238320Y-124500D01*
X-237760Y-124000D01*
X-237013Y-123750D01*
X-236360Y-124000D01*
X-235893Y-124500D01*
X-235520Y-125250D01*
X-235427Y-126125D01*
X-235520Y-126875D01*
X-235893Y-127625D01*
X-236453Y-128250D01*
X-237107Y-128500D01*
X-237853Y-128250D01*
X-238507Y-127500D01*
X-238880Y-126375D01*
X-238973Y-125125D01*
X-238787Y-123500D01*
X-238507Y-122625D01*
X-238040Y-121750D01*
X-237387Y-121125D01*
X-236733Y-121000D01*
X-236080Y-121250D01*
X-235613Y-121875D01*
G01X-232500Y-128500D02*
Y-123500D01*
G01Y-124875D02*
X-232220Y-124250D01*
X-231753Y-123750D01*
X-231100Y-123500D01*
X-230447Y-123750D01*
X-229980Y-124250D01*
X-229700Y-124875D01*
Y-128500D01*
G01Y-124875D02*
X-229420Y-124250D01*
X-228953Y-123750D01*
X-228300Y-123500D01*
X-227647Y-123750D01*
X-227180Y-124250D01*
X-226900Y-125000D01*
Y-128500D01*
G01X-222200Y-123500D02*
Y-128500D01*
G01Y-121500D02*
X-222387Y-121375D01*
Y-121125D01*
X-222200Y-121000D01*
X-222013Y-121125D01*
Y-121375D01*
X-222200Y-121500D01*
G01X-214700Y-128500D02*
Y-121000D01*
G01X-334700Y-188500D02*
X-334047Y-188375D01*
X-333300Y-188000D01*
X-332833Y-187375D01*
X-332647Y-186500D01*
X-332833Y-185625D01*
X-333393Y-184875D01*
X-334233Y-184500D01*
X-335167D01*
X-335727Y-184250D01*
X-336193Y-183625D01*
X-336380Y-182750D01*
X-336100Y-181875D01*
X-335447Y-181250D01*
X-334700Y-181000D01*
X-333953Y-181250D01*
X-333300Y-181875D01*
X-333020Y-182750D01*
X-333207Y-183625D01*
X-333673Y-184250D01*
X-334233Y-184500D01*
X-335167D01*
X-336007Y-184875D01*
X-336567Y-185625D01*
X-336753Y-186500D01*
X-336567Y-187375D01*
X-336100Y-188000D01*
X-335353Y-188375D01*
X-334700Y-188500D01*
G01X-330000D02*
Y-183500D01*
G01Y-184875D02*
X-329720Y-184250D01*
X-329253Y-183750D01*
X-328600Y-183500D01*
X-327947Y-183750D01*
X-327480Y-184250D01*
X-327200Y-184875D01*
Y-188500D01*
G01Y-184875D02*
X-326920Y-184250D01*
X-326453Y-183750D01*
X-325800Y-183500D01*
X-325147Y-183750D01*
X-324680Y-184250D01*
X-324400Y-185000D01*
Y-188500D01*
G01X-319700Y-183500D02*
Y-188500D01*
G01Y-181500D02*
X-319887Y-181375D01*
Y-181125D01*
X-319700Y-181000D01*
X-319513Y-181125D01*
Y-181375D01*
X-319700Y-181500D01*
G01X-312200Y-188500D02*
Y-181000D01*
G01X-306567Y-188500D02*
X-302833Y-186000D01*
X-306567Y-183500D01*
G01X-299253Y-188500D02*
Y-181000D01*
X-297387D01*
X-296640Y-181375D01*
X-296080Y-181875D01*
X-295613Y-182625D01*
X-295240Y-183500D01*
X-295147Y-184750D01*
X-295240Y-186000D01*
X-295613Y-186875D01*
X-296080Y-187625D01*
X-296640Y-188125D01*
X-297387Y-188500D01*
X-299253D01*
G01X-291007D02*
Y-183500D01*
G01Y-184500D02*
X-290540Y-184000D01*
X-290073Y-183625D01*
X-289420Y-183500D01*
X-288953Y-183625D01*
X-288393Y-184000D01*
G01X-282200Y-183500D02*
Y-188500D01*
G01Y-181500D02*
X-282387Y-181375D01*
Y-181125D01*
X-282200Y-181000D01*
X-282013Y-181125D01*
Y-181375D01*
X-282200Y-181500D01*
G01X-274700Y-188500D02*
Y-181000D01*
G01X-267200Y-188500D02*
Y-181000D01*
G01X-253600Y-187625D02*
X-253133Y-188125D01*
X-252480Y-188500D01*
X-251920D01*
X-251360Y-188250D01*
X-250987Y-187875D01*
X-250800Y-187375D01*
X-250893Y-186625D01*
X-251267Y-186250D01*
X-252947Y-185500D01*
X-253320Y-184625D01*
X-253133Y-184000D01*
X-252760Y-183625D01*
X-252200Y-183500D01*
X-251640Y-183625D01*
X-251080Y-184000D01*
G01X-244700Y-183500D02*
Y-188500D01*
G01Y-181500D02*
X-244887Y-181375D01*
Y-181125D01*
X-244700Y-181000D01*
X-244513Y-181125D01*
Y-181375D01*
X-244700Y-181500D01*
G01X-238600Y-183500D02*
X-235800D01*
X-238600Y-188500D01*
X-235800D01*
G01X-231100Y-185125D02*
X-228113D01*
X-228393Y-184250D01*
X-228860Y-183750D01*
X-229513Y-183500D01*
X-230167Y-183625D01*
X-230727Y-184000D01*
X-231100Y-184875D01*
X-231287Y-185625D01*
Y-186375D01*
X-231100Y-187125D01*
X-230633Y-187875D01*
X-230073Y-188375D01*
X-229420Y-188500D01*
X-228767Y-188250D01*
X-228113Y-187500D01*
G01X-334700Y-173500D02*
Y-166000D01*
X-335820Y-167500D01*
G01Y-173500D02*
X-333580D01*
G01X-326080D02*
Y-166000D01*
X-329533Y-171375D01*
X-324867D01*
G01X-322500Y-173500D02*
Y-168500D01*
G01Y-169875D02*
X-322220Y-169250D01*
X-321753Y-168750D01*
X-321100Y-168500D01*
X-320447Y-168750D01*
X-319980Y-169250D01*
X-319700Y-169875D01*
Y-173500D01*
G01Y-169875D02*
X-319420Y-169250D01*
X-318953Y-168750D01*
X-318300Y-168500D01*
X-317647Y-168750D01*
X-317180Y-169250D01*
X-316900Y-170000D01*
Y-173500D01*
G01X-312200Y-168500D02*
Y-173500D01*
G01Y-166500D02*
X-312387Y-166375D01*
Y-166125D01*
X-312200Y-166000D01*
X-312013Y-166125D01*
Y-166375D01*
X-312200Y-166500D01*
G01X-304700Y-173500D02*
Y-166000D01*
G01X-299067Y-173500D02*
X-295333Y-171000D01*
X-299067Y-168500D01*
G01X-290913Y-172125D02*
X-288487D01*
G01Y-169875D02*
X-290913D01*
G01X-284253Y-173500D02*
Y-166000D01*
X-282387D01*
X-281640Y-166375D01*
X-281080Y-166875D01*
X-280613Y-167625D01*
X-280240Y-168500D01*
X-280147Y-169750D01*
X-280240Y-171000D01*
X-280613Y-171875D01*
X-281080Y-172625D01*
X-281640Y-173125D01*
X-282387Y-173500D01*
X-284253D01*
G01X-276007D02*
Y-168500D01*
G01Y-169500D02*
X-275540Y-169000D01*
X-275073Y-168625D01*
X-274420Y-168500D01*
X-273953Y-168625D01*
X-273393Y-169000D01*
G01X-267200Y-168500D02*
Y-173500D01*
G01Y-166500D02*
X-267387Y-166375D01*
Y-166125D01*
X-267200Y-166000D01*
X-267013Y-166125D01*
Y-166375D01*
X-267200Y-166500D01*
G01X-259700Y-173500D02*
Y-166000D01*
G01X-252200Y-173500D02*
Y-166000D01*
G01X-238600Y-172625D02*
X-238133Y-173125D01*
X-237480Y-173500D01*
X-236920D01*
X-236360Y-173250D01*
X-235987Y-172875D01*
X-235800Y-172375D01*
X-235893Y-171625D01*
X-236267Y-171250D01*
X-237947Y-170500D01*
X-238320Y-169625D01*
X-238133Y-169000D01*
X-237760Y-168625D01*
X-237200Y-168500D01*
X-236640Y-168625D01*
X-236080Y-169000D01*
G01X-229700Y-168500D02*
Y-173500D01*
G01Y-166500D02*
X-229887Y-166375D01*
Y-166125D01*
X-229700Y-166000D01*
X-229513Y-166125D01*
Y-166375D01*
X-229700Y-166500D01*
G01X-223600Y-168500D02*
X-220800D01*
X-223600Y-173500D01*
X-220800D01*
G01X-216100Y-170125D02*
X-213113D01*
X-213393Y-169250D01*
X-213860Y-168750D01*
X-214513Y-168500D01*
X-215167Y-168625D01*
X-215727Y-169000D01*
X-216100Y-169875D01*
X-216287Y-170625D01*
Y-171375D01*
X-216100Y-172125D01*
X-215633Y-172875D01*
X-215073Y-173375D01*
X-214420Y-173500D01*
X-213767Y-173250D01*
X-213113Y-172500D01*
G01X-209067Y-173500D02*
X-205333Y-171000D01*
X-209067Y-168500D01*
G01X-200913Y-172125D02*
X-198487D01*
G01Y-169875D02*
X-200913D01*
G01X-192200Y-173500D02*
X-191547Y-173375D01*
X-190800Y-173000D01*
X-190333Y-172375D01*
X-190147Y-171500D01*
X-190333Y-170625D01*
X-190893Y-169875D01*
X-191733Y-169500D01*
X-192667D01*
X-193227Y-169250D01*
X-193693Y-168625D01*
X-193880Y-167750D01*
X-193600Y-166875D01*
X-192947Y-166250D01*
X-192200Y-166000D01*
X-191453Y-166250D01*
X-190800Y-166875D01*
X-190520Y-167750D01*
X-190707Y-168625D01*
X-191173Y-169250D01*
X-191733Y-169500D01*
X-192667D01*
X-193507Y-169875D01*
X-194067Y-170625D01*
X-194253Y-171500D01*
X-194067Y-172375D01*
X-193600Y-173000D01*
X-192853Y-173375D01*
X-192200Y-173500D01*
G01X-187500D02*
Y-168500D01*
G01Y-169875D02*
X-187220Y-169250D01*
X-186753Y-168750D01*
X-186100Y-168500D01*
X-185447Y-168750D01*
X-184980Y-169250D01*
X-184700Y-169875D01*
Y-173500D01*
G01Y-169875D02*
X-184420Y-169250D01*
X-183953Y-168750D01*
X-183300Y-168500D01*
X-182647Y-168750D01*
X-182180Y-169250D01*
X-181900Y-170000D01*
Y-173500D01*
G01X-177200Y-168500D02*
Y-173500D01*
G01Y-166500D02*
X-177387Y-166375D01*
Y-166125D01*
X-177200Y-166000D01*
X-177013Y-166125D01*
Y-166375D01*
X-177200Y-166500D01*
G01X-169700Y-173500D02*
Y-166000D01*
G01X-356753Y-202375D02*
X-356193Y-203000D01*
X-355540Y-203375D01*
X-354700Y-203500D01*
X-353860Y-203250D01*
X-353207Y-202750D01*
X-352740Y-201875D01*
X-352647Y-200875D01*
X-352833Y-199875D01*
X-353300Y-199250D01*
X-353953Y-198750D01*
X-354607Y-198625D01*
X-355260Y-198750D01*
X-356100Y-199250D01*
X-355820Y-196000D01*
X-353300D01*
G01X-347200D02*
X-347947Y-196250D01*
X-348507Y-196875D01*
X-348880Y-197625D01*
X-349160Y-198625D01*
X-349253Y-199750D01*
X-349160Y-200875D01*
X-348880Y-201875D01*
X-348507Y-202625D01*
X-347947Y-203250D01*
X-347200Y-203500D01*
X-346453Y-203250D01*
X-345893Y-202625D01*
X-345520Y-201875D01*
X-345240Y-200875D01*
X-345147Y-199750D01*
X-345240Y-198625D01*
X-345520Y-197625D01*
X-345893Y-196875D01*
X-346453Y-196250D01*
X-347200Y-196000D01*
G01X-341380Y-203750D02*
X-338020Y-196000D01*
G01X-341380D02*
X-341940Y-196250D01*
X-342220Y-196625D01*
X-342407Y-197375D01*
X-342220Y-198125D01*
X-341940Y-198500D01*
X-341380Y-198750D01*
X-340820Y-198500D01*
X-340540Y-198125D01*
X-340353Y-197375D01*
X-340540Y-196625D01*
X-340820Y-196250D01*
X-341380Y-196000D01*
G01X-338020Y-201000D02*
X-338580Y-201250D01*
X-338860Y-201625D01*
X-339047Y-202375D01*
X-338860Y-203125D01*
X-338580Y-203500D01*
X-338020Y-203750D01*
X-337460Y-203500D01*
X-337180Y-203125D01*
X-336993Y-202375D01*
X-337180Y-201625D01*
X-337460Y-201250D01*
X-338020Y-201000D01*
G01X-323207Y-199125D02*
X-323860Y-198625D01*
X-324420Y-198500D01*
X-325167Y-198750D01*
X-325727Y-199250D01*
X-326100Y-200125D01*
X-326193Y-201000D01*
X-326100Y-201875D01*
X-325727Y-202625D01*
X-325167Y-203250D01*
X-324420Y-203500D01*
X-323767Y-203250D01*
X-323207Y-202750D01*
G01X-317200Y-203500D02*
X-317760Y-203375D01*
X-318320Y-202875D01*
X-318693Y-202000D01*
X-318880Y-201000D01*
X-318693Y-200000D01*
X-318320Y-199125D01*
X-317760Y-198625D01*
X-317200Y-198500D01*
X-316640Y-198625D01*
X-316080Y-199125D01*
X-315707Y-200000D01*
X-315613Y-201000D01*
X-315707Y-202000D01*
X-316080Y-202875D01*
X-316640Y-203375D01*
X-317200Y-203500D01*
G01X-311380Y-206000D02*
Y-198500D01*
G01Y-199625D02*
X-310913Y-199000D01*
X-310447Y-198625D01*
X-309700Y-198500D01*
X-309047Y-198625D01*
X-308393Y-199250D01*
X-308113Y-200125D01*
X-308020Y-201000D01*
X-308113Y-201875D01*
X-308393Y-202750D01*
X-308953Y-203250D01*
X-309700Y-203500D01*
X-310353Y-203375D01*
X-311007Y-203000D01*
X-311380Y-202500D01*
G01X-303880Y-206000D02*
Y-198500D01*
G01Y-199625D02*
X-303413Y-199000D01*
X-302947Y-198625D01*
X-302200Y-198500D01*
X-301547Y-198625D01*
X-300893Y-199250D01*
X-300613Y-200125D01*
X-300520Y-201000D01*
X-300613Y-201875D01*
X-300893Y-202750D01*
X-301453Y-203250D01*
X-302200Y-203500D01*
X-302853Y-203375D01*
X-303507Y-203000D01*
X-303880Y-202500D01*
G01X-296100Y-200125D02*
X-293113D01*
X-293393Y-199250D01*
X-293860Y-198750D01*
X-294513Y-198500D01*
X-295167Y-198625D01*
X-295727Y-199000D01*
X-296100Y-199875D01*
X-296287Y-200625D01*
Y-201375D01*
X-296100Y-202125D01*
X-295633Y-202875D01*
X-295073Y-203375D01*
X-294420Y-203500D01*
X-293767Y-203250D01*
X-293113Y-202500D01*
G01X-288507Y-203500D02*
Y-198500D01*
G01Y-199500D02*
X-288040Y-199000D01*
X-287573Y-198625D01*
X-286920Y-198500D01*
X-286453Y-198625D01*
X-285893Y-199000D01*
G01X-280913Y-201000D02*
X-278487D01*
G01X-272760Y-203500D02*
Y-197125D01*
X-272573Y-196500D01*
X-272200Y-196125D01*
X-271640Y-196000D01*
X-271080Y-196250D01*
X-270800Y-196875D01*
G01X-271920Y-199000D02*
X-273787D01*
G01X-264700Y-198500D02*
Y-203500D01*
G01Y-196500D02*
X-264887Y-196375D01*
Y-196125D01*
X-264700Y-196000D01*
X-264513Y-196125D01*
Y-196375D01*
X-264700Y-196500D01*
G01X-257200Y-203500D02*
Y-196000D01*
G01X-249700Y-203500D02*
Y-196000D01*
G01X-242200Y-198500D02*
Y-203500D01*
G01Y-196500D02*
X-242387Y-196375D01*
Y-196125D01*
X-242200Y-196000D01*
X-242013Y-196125D01*
Y-196375D01*
X-242200Y-196500D01*
G01X-236287Y-203500D02*
Y-198500D01*
G01Y-199750D02*
X-235913Y-199125D01*
X-235353Y-198625D01*
X-234607Y-198500D01*
X-233953Y-198625D01*
X-233393Y-199125D01*
X-233113Y-200000D01*
Y-203500D01*
G01X-228507Y-205375D02*
X-227853Y-205875D01*
X-227107Y-206000D01*
X-226453Y-205875D01*
X-225893Y-205250D01*
X-225520Y-204375D01*
Y-198500D01*
G01Y-199500D02*
X-225893Y-199000D01*
X-226453Y-198625D01*
X-227107Y-198500D01*
X-227853Y-198750D01*
X-228320Y-199250D01*
X-228693Y-200125D01*
X-228880Y-201000D01*
X-228787Y-201750D01*
X-228413Y-202625D01*
X-227853Y-203250D01*
X-227107Y-203500D01*
X-226547Y-203375D01*
X-225893Y-202875D01*
X-225520Y-202375D01*
G01X-212200Y-198500D02*
Y-203500D01*
G01Y-196500D02*
X-212387Y-196375D01*
Y-196125D01*
X-212200Y-196000D01*
X-212013Y-196125D01*
Y-196375D01*
X-212200Y-196500D01*
G01X-206100Y-202625D02*
X-205633Y-203125D01*
X-204980Y-203500D01*
X-204420D01*
X-203860Y-203250D01*
X-203487Y-202875D01*
X-203300Y-202375D01*
X-203393Y-201625D01*
X-203767Y-201250D01*
X-205447Y-200500D01*
X-205820Y-199625D01*
X-205633Y-199000D01*
X-205260Y-198625D01*
X-204700Y-198500D01*
X-204140Y-198625D01*
X-203580Y-199000D01*
G01X-189700Y-203500D02*
X-190260Y-203375D01*
X-190820Y-202875D01*
X-191193Y-202000D01*
X-191380Y-201000D01*
X-191193Y-200000D01*
X-190820Y-199125D01*
X-190260Y-198625D01*
X-189700Y-198500D01*
X-189140Y-198625D01*
X-188580Y-199125D01*
X-188207Y-200000D01*
X-188113Y-201000D01*
X-188207Y-202000D01*
X-188580Y-202875D01*
X-189140Y-203375D01*
X-189700Y-203500D01*
G01X-183787Y-198500D02*
Y-202000D01*
X-183413Y-202875D01*
X-182853Y-203375D01*
X-182200Y-203500D01*
X-181547Y-203375D01*
X-180987Y-202875D01*
X-180613Y-202000D01*
G01Y-203500D02*
Y-198500D01*
G01X-176007Y-203500D02*
Y-198500D01*
G01Y-199500D02*
X-175540Y-199000D01*
X-175073Y-198625D01*
X-174420Y-198500D01*
X-173953Y-198625D01*
X-173393Y-199000D01*
G01X-162500Y-203500D02*
Y-198500D01*
G01Y-199875D02*
X-162220Y-199250D01*
X-161753Y-198750D01*
X-161100Y-198500D01*
X-160447Y-198750D01*
X-159980Y-199250D01*
X-159700Y-199875D01*
Y-203500D01*
G01Y-199875D02*
X-159420Y-199250D01*
X-158953Y-198750D01*
X-158300Y-198500D01*
X-157647Y-198750D01*
X-157180Y-199250D01*
X-156900Y-200000D01*
Y-203500D01*
G01X-152200Y-198500D02*
Y-203500D01*
G01Y-196500D02*
X-152387Y-196375D01*
Y-196125D01*
X-152200Y-196000D01*
X-152013Y-196125D01*
Y-196375D01*
X-152200Y-196500D01*
G01X-146287Y-203500D02*
Y-198500D01*
G01Y-199750D02*
X-145913Y-199125D01*
X-145353Y-198625D01*
X-144607Y-198500D01*
X-143953Y-198625D01*
X-143393Y-199125D01*
X-143113Y-200000D01*
Y-203500D01*
G01X-137200Y-198500D02*
Y-203500D01*
G01Y-196500D02*
X-137387Y-196375D01*
Y-196125D01*
X-137200Y-196000D01*
X-137013Y-196125D01*
Y-196375D01*
X-137200Y-196500D01*
G01X-132500Y-203500D02*
Y-198500D01*
G01Y-199875D02*
X-132220Y-199250D01*
X-131753Y-198750D01*
X-131100Y-198500D01*
X-130447Y-198750D01*
X-129980Y-199250D01*
X-129700Y-199875D01*
Y-203500D01*
G01Y-199875D02*
X-129420Y-199250D01*
X-128953Y-198750D01*
X-128300Y-198500D01*
X-127647Y-198750D01*
X-127180Y-199250D01*
X-126900Y-200000D01*
Y-203500D01*
G01X-123787Y-198500D02*
Y-202000D01*
X-123413Y-202875D01*
X-122853Y-203375D01*
X-122200Y-203500D01*
X-121547Y-203375D01*
X-120987Y-202875D01*
X-120613Y-202000D01*
G01Y-203500D02*
Y-198500D01*
G01X-117500Y-203500D02*
Y-198500D01*
G01Y-199875D02*
X-117220Y-199250D01*
X-116753Y-198750D01*
X-116100Y-198500D01*
X-115447Y-198750D01*
X-114980Y-199250D01*
X-114700Y-199875D01*
Y-203500D01*
G01Y-199875D02*
X-114420Y-199250D01*
X-113953Y-198750D01*
X-113300Y-198500D01*
X-112647Y-198750D01*
X-112180Y-199250D01*
X-111900Y-200000D01*
Y-203500D01*
G01X-101007D02*
Y-198500D01*
G01Y-199500D02*
X-100540Y-199000D01*
X-100073Y-198625D01*
X-99420Y-198500D01*
X-98953Y-198625D01*
X-98393Y-199000D01*
G01X-93600Y-200125D02*
X-90613D01*
X-90893Y-199250D01*
X-91360Y-198750D01*
X-92013Y-198500D01*
X-92667Y-198625D01*
X-93227Y-199000D01*
X-93600Y-199875D01*
X-93787Y-200625D01*
Y-201375D01*
X-93600Y-202125D01*
X-93133Y-202875D01*
X-92573Y-203375D01*
X-91920Y-203500D01*
X-91267Y-203250D01*
X-90613Y-202500D01*
G01X-83020Y-206000D02*
Y-198500D01*
G01Y-199625D02*
X-83487Y-199000D01*
X-84047Y-198625D01*
X-84700Y-198500D01*
X-85260Y-198625D01*
X-85913Y-199250D01*
X-86287Y-200125D01*
X-86380Y-201000D01*
X-86287Y-201875D01*
X-85913Y-202750D01*
X-85260Y-203375D01*
X-84700Y-203500D01*
X-84047Y-203375D01*
X-83487Y-203000D01*
X-83020Y-202375D01*
G01X-78787Y-198500D02*
Y-202000D01*
X-78413Y-202875D01*
X-77853Y-203375D01*
X-77200Y-203500D01*
X-76547Y-203375D01*
X-75987Y-202875D01*
X-75613Y-202000D01*
G01Y-203500D02*
Y-198500D01*
G01X-71100Y-200125D02*
X-68113D01*
X-68393Y-199250D01*
X-68860Y-198750D01*
X-69513Y-198500D01*
X-70167Y-198625D01*
X-70727Y-199000D01*
X-71100Y-199875D01*
X-71287Y-200625D01*
Y-201375D01*
X-71100Y-202125D01*
X-70633Y-202875D01*
X-70073Y-203375D01*
X-69420Y-203500D01*
X-68767Y-203250D01*
X-68113Y-202500D01*
G01X-63600Y-202625D02*
X-63133Y-203125D01*
X-62480Y-203500D01*
X-61920D01*
X-61360Y-203250D01*
X-60987Y-202875D01*
X-60800Y-202375D01*
X-60893Y-201625D01*
X-61267Y-201250D01*
X-62947Y-200500D01*
X-63320Y-199625D01*
X-63133Y-199000D01*
X-62760Y-198625D01*
X-62200Y-198500D01*
X-61640Y-198625D01*
X-61080Y-199000D01*
G01X-54700Y-196000D02*
Y-203500D01*
G01X-56007Y-198500D02*
X-53393D01*
G01X-39700D02*
Y-203500D01*
G01Y-196500D02*
X-39887Y-196375D01*
Y-196125D01*
X-39700Y-196000D01*
X-39513Y-196125D01*
Y-196375D01*
X-39700Y-196500D01*
G01X-33787Y-203500D02*
Y-198500D01*
G01Y-199750D02*
X-33413Y-199125D01*
X-32853Y-198625D01*
X-32107Y-198500D01*
X-31453Y-198625D01*
X-30893Y-199125D01*
X-30613Y-200000D01*
Y-203500D01*
G01X-18880D02*
Y-196000D01*
G01Y-199750D02*
X-18413Y-199000D01*
X-17853Y-198625D01*
X-17293Y-198500D01*
X-16453Y-198750D01*
X-15893Y-199250D01*
X-15520Y-200125D01*
Y-201125D01*
X-15707Y-202125D01*
X-16080Y-202875D01*
X-16733Y-203375D01*
X-17293Y-203500D01*
X-17853Y-203375D01*
X-18413Y-203000D01*
X-18880Y-202375D01*
G01X-9700Y-203500D02*
Y-196000D01*
G01X-2200Y-198500D02*
Y-203500D01*
G01Y-196500D02*
X-2387Y-196375D01*
Y-196125D01*
X-2200Y-196000D01*
X-2013Y-196125D01*
Y-196375D01*
X-2200Y-196500D01*
G01X3713Y-203500D02*
Y-198500D01*
G01Y-199750D02*
X4087Y-199125D01*
X4647Y-198625D01*
X5393Y-198500D01*
X6047Y-198625D01*
X6607Y-199125D01*
X6887Y-200000D01*
Y-203500D01*
G01X14480Y-196000D02*
Y-203500D01*
G01Y-202375D02*
X14107Y-203000D01*
X13547Y-203375D01*
X12893Y-203500D01*
X12147Y-203250D01*
X11587Y-202625D01*
X11213Y-201875D01*
X11120Y-201000D01*
X11213Y-200125D01*
X11587Y-199375D01*
X12147Y-198750D01*
X12893Y-198500D01*
X13547Y-198625D01*
X14013Y-198875D01*
X14480Y-199375D01*
G01X26120Y-198500D02*
X27800Y-203500D01*
X29480Y-198500D01*
G01X35300D02*
Y-203500D01*
G01Y-196500D02*
X35113Y-196375D01*
Y-196125D01*
X35300Y-196000D01*
X35487Y-196125D01*
Y-196375D01*
X35300Y-196500D01*
G01X44480Y-203500D02*
Y-198500D01*
G01Y-199375D02*
X44107Y-198875D01*
X43547Y-198625D01*
X42893Y-198500D01*
X42240Y-198750D01*
X41680Y-199250D01*
X41307Y-200000D01*
X41120Y-201000D01*
X41307Y-202000D01*
X41680Y-202750D01*
X42240Y-203250D01*
X42893Y-203500D01*
X43547Y-203375D01*
X44107Y-203000D01*
X44480Y-202500D01*
G01X-334887Y-158500D02*
X-334700Y-156875D01*
X-334420Y-155500D01*
X-334047Y-154250D01*
X-333580Y-152875D01*
X-332833Y-151000D01*
X-336567D01*
G01X-328787Y-157625D02*
X-328133Y-158250D01*
X-327387Y-158500D01*
X-326640Y-158250D01*
X-325987Y-157500D01*
X-325520Y-156375D01*
X-325333Y-155250D01*
Y-153875D01*
X-325520Y-152750D01*
X-325987Y-151750D01*
X-326547Y-151250D01*
X-327200Y-151000D01*
X-327947Y-151250D01*
X-328507Y-151750D01*
X-328880Y-152500D01*
X-329067Y-153500D01*
X-328880Y-154375D01*
X-328413Y-155250D01*
X-327853Y-155750D01*
X-327200Y-155875D01*
X-326453Y-155625D01*
X-325893Y-155000D01*
X-325333Y-153875D01*
G01X-322500Y-158500D02*
Y-153500D01*
G01Y-154875D02*
X-322220Y-154250D01*
X-321753Y-153750D01*
X-321100Y-153500D01*
X-320447Y-153750D01*
X-319980Y-154250D01*
X-319700Y-154875D01*
Y-158500D01*
G01Y-154875D02*
X-319420Y-154250D01*
X-318953Y-153750D01*
X-318300Y-153500D01*
X-317647Y-153750D01*
X-317180Y-154250D01*
X-316900Y-155000D01*
Y-158500D01*
G01X-312200Y-153500D02*
Y-158500D01*
G01Y-151500D02*
X-312387Y-151375D01*
Y-151125D01*
X-312200Y-151000D01*
X-312013Y-151125D01*
Y-151375D01*
X-312200Y-151500D01*
G01X-304700Y-158500D02*
Y-151000D01*
G01X-299067Y-158500D02*
X-295333Y-156000D01*
X-299067Y-153500D01*
G01X-290913Y-157125D02*
X-288487D01*
G01Y-154875D02*
X-290913D01*
G01X-284253Y-158500D02*
Y-151000D01*
X-282387D01*
X-281640Y-151375D01*
X-281080Y-151875D01*
X-280613Y-152625D01*
X-280240Y-153500D01*
X-280147Y-154750D01*
X-280240Y-156000D01*
X-280613Y-156875D01*
X-281080Y-157625D01*
X-281640Y-158125D01*
X-282387Y-158500D01*
X-284253D01*
G01X-276007D02*
Y-153500D01*
G01Y-154500D02*
X-275540Y-154000D01*
X-275073Y-153625D01*
X-274420Y-153500D01*
X-273953Y-153625D01*
X-273393Y-154000D01*
G01X-267200Y-153500D02*
Y-158500D01*
G01Y-151500D02*
X-267387Y-151375D01*
Y-151125D01*
X-267200Y-151000D01*
X-267013Y-151125D01*
Y-151375D01*
X-267200Y-151500D01*
G01X-259700Y-158500D02*
Y-151000D01*
G01X-252200Y-158500D02*
Y-151000D01*
G01X-238600Y-157625D02*
X-238133Y-158125D01*
X-237480Y-158500D01*
X-236920D01*
X-236360Y-158250D01*
X-235987Y-157875D01*
X-235800Y-157375D01*
X-235893Y-156625D01*
X-236267Y-156250D01*
X-237947Y-155500D01*
X-238320Y-154625D01*
X-238133Y-154000D01*
X-237760Y-153625D01*
X-237200Y-153500D01*
X-236640Y-153625D01*
X-236080Y-154000D01*
G01X-229700Y-153500D02*
Y-158500D01*
G01Y-151500D02*
X-229887Y-151375D01*
Y-151125D01*
X-229700Y-151000D01*
X-229513Y-151125D01*
Y-151375D01*
X-229700Y-151500D01*
G01X-223600Y-153500D02*
X-220800D01*
X-223600Y-158500D01*
X-220800D01*
G01X-216100Y-155125D02*
X-213113D01*
X-213393Y-154250D01*
X-213860Y-153750D01*
X-214513Y-153500D01*
X-215167Y-153625D01*
X-215727Y-154000D01*
X-216100Y-154875D01*
X-216287Y-155625D01*
Y-156375D01*
X-216100Y-157125D01*
X-215633Y-157875D01*
X-215073Y-158375D01*
X-214420Y-158500D01*
X-213767Y-158250D01*
X-213113Y-157500D01*
G01X-209067Y-158500D02*
X-205333Y-156000D01*
X-209067Y-153500D01*
G01X-199700Y-158500D02*
Y-151000D01*
X-200820Y-152500D01*
G01Y-158500D02*
X-198580D01*
G01X-191080D02*
Y-151000D01*
X-194533Y-156375D01*
X-189867D01*
G01X-187500Y-158500D02*
Y-153500D01*
G01Y-154875D02*
X-187220Y-154250D01*
X-186753Y-153750D01*
X-186100Y-153500D01*
X-185447Y-153750D01*
X-184980Y-154250D01*
X-184700Y-154875D01*
Y-158500D01*
G01Y-154875D02*
X-184420Y-154250D01*
X-183953Y-153750D01*
X-183300Y-153500D01*
X-182647Y-153750D01*
X-182180Y-154250D01*
X-181900Y-155000D01*
Y-158500D01*
G01X-177200Y-153500D02*
Y-158500D01*
G01Y-151500D02*
X-177387Y-151375D01*
Y-151125D01*
X-177200Y-151000D01*
X-177013Y-151125D01*
Y-151375D01*
X-177200Y-151500D01*
G01X-169700Y-158500D02*
Y-151000D01*
G01X-118600Y-281900D02*
X-119347Y-281775D01*
X-120000Y-281275D01*
X-120560Y-280525D01*
X-120933Y-279650D01*
X-121120Y-278650D01*
Y-277650D01*
X-120933Y-276650D01*
X-120560Y-275775D01*
X-120000Y-275025D01*
X-119347Y-274525D01*
X-118600Y-274400D01*
X-117853Y-274525D01*
X-117200Y-275025D01*
X-116640Y-275775D01*
X-116267Y-276650D01*
X-116080Y-277650D01*
Y-278650D01*
X-116267Y-279650D01*
X-116640Y-280525D01*
X-117200Y-281275D01*
X-117853Y-281775D01*
X-118600Y-281900D01*
G01X-112967D02*
Y-274400D01*
X-110633D01*
X-109887Y-274775D01*
X-109420Y-275275D01*
X-109233Y-276275D01*
X-109420Y-277275D01*
X-109980Y-277900D01*
X-110633Y-278275D01*
X-112967D01*
G01X-110633D02*
X-109233Y-281900D01*
G01X-106400Y-274400D02*
X-105093Y-281900D01*
X-103600Y-274400D01*
X-102107Y-281900D01*
X-100800Y-274400D01*
G01X-97967D02*
Y-281900D01*
X-94233D01*
G01X-59533Y-282500D02*
X-63267D01*
Y-275000D01*
X-59533D01*
G01X-61027Y-278625D02*
X-63267D01*
G01X-56233Y-275000D02*
X-53900Y-282500D01*
X-51567Y-275000D01*
G01X-46400D02*
Y-282500D01*
G01X-48547Y-275000D02*
X-44253D01*
G01X-132400Y-308900D02*
X-133067Y-309067D01*
X-133567Y-309483D01*
X-133900Y-309983D01*
X-134150Y-310650D01*
X-134233Y-311400D01*
X-134150Y-312150D01*
X-133900Y-312817D01*
X-133567Y-313317D01*
X-133067Y-313733D01*
X-132400Y-313900D01*
X-131733Y-313733D01*
X-131233Y-313317D01*
X-130900Y-312817D01*
X-130650Y-312150D01*
X-130567Y-311400D01*
X-130650Y-310650D01*
X-130900Y-309983D01*
X-131233Y-309483D01*
X-131733Y-309067D01*
X-132400Y-308900D01*
G01X-126167Y-313900D02*
X-126000Y-312817D01*
X-125750Y-311900D01*
X-125417Y-311067D01*
X-125000Y-310150D01*
X-124333Y-308900D01*
X-127667D01*
G01X-121100Y-314067D02*
X-118100Y-308900D01*
G01X-114783Y-309733D02*
X-114283Y-309233D01*
X-113700Y-308983D01*
X-113033Y-308900D01*
X-112200Y-309067D01*
X-111617Y-309483D01*
X-111450Y-309983D01*
X-111533Y-310483D01*
X-111867Y-310900D01*
X-113533Y-311733D01*
X-114283Y-312317D01*
X-114783Y-313150D01*
X-114950Y-313900D01*
X-111450D01*
G01X-106800Y-308900D02*
X-107467Y-309067D01*
X-107967Y-309483D01*
X-108300Y-309983D01*
X-108550Y-310650D01*
X-108633Y-311400D01*
X-108550Y-312150D01*
X-108300Y-312817D01*
X-107967Y-313317D01*
X-107467Y-313733D01*
X-106800Y-313900D01*
X-106133Y-313733D01*
X-105633Y-313317D01*
X-105300Y-312817D01*
X-105050Y-312150D01*
X-104967Y-311400D01*
X-105050Y-310650D01*
X-105300Y-309983D01*
X-105633Y-309483D01*
X-106133Y-309067D01*
X-106800Y-308900D01*
G01X-101900Y-314067D02*
X-98900Y-308900D01*
G01X-94000Y-313900D02*
Y-308900D01*
X-95000Y-309900D01*
G01Y-313900D02*
X-93000D01*
G01X-89433Y-313150D02*
X-88933Y-313567D01*
X-88350Y-313817D01*
X-87600Y-313900D01*
X-86850Y-313733D01*
X-86267Y-313400D01*
X-85850Y-312817D01*
X-85767Y-312150D01*
X-85933Y-311483D01*
X-86350Y-311067D01*
X-86933Y-310733D01*
X-87517Y-310650D01*
X-88100Y-310733D01*
X-88850Y-311067D01*
X-88600Y-308900D01*
X-86350D01*
G01X-81200Y-310567D02*
X-80367Y-309525D01*
Y-308900D01*
X-80992D01*
Y-309525D01*
X-80367D01*
G01X-65617Y-280100D02*
Y-275100D01*
X-61783Y-280100D01*
Y-275100D01*
G01X-55467Y-275517D02*
X-55967Y-275267D01*
X-56550Y-275100D01*
X-57217D01*
X-57967Y-275350D01*
X-58550Y-275767D01*
X-58967Y-276267D01*
X-59300Y-277100D01*
X-59383Y-277850D01*
X-59217Y-278600D01*
X-58967Y-279100D01*
X-58467Y-279600D01*
X-57883Y-279933D01*
X-57300Y-280100D01*
X-56717D01*
X-56133Y-279933D01*
X-55633Y-279683D01*
X-55217Y-279350D01*
G01X-53400Y-281767D02*
X-48400D01*
G01X-46333Y-280100D02*
Y-275100D01*
X-44667D01*
X-44000Y-275350D01*
X-43500Y-275683D01*
X-43083Y-276183D01*
X-42750Y-276767D01*
X-42667Y-277600D01*
X-42750Y-278433D01*
X-43083Y-279017D01*
X-43500Y-279517D01*
X-44000Y-279850D01*
X-44667Y-280100D01*
X-46333D01*
G01X-39767D02*
Y-275100D01*
X-37683D01*
X-37017Y-275350D01*
X-36600Y-275683D01*
X-36433Y-276350D01*
X-36600Y-277017D01*
X-37100Y-277433D01*
X-37683Y-277683D01*
X-39767D01*
G01X-37683D02*
X-36433Y-280100D01*
G01X-33367Y-275100D02*
Y-280100D01*
X-30033D01*
G01X-32450Y-300100D02*
X-28950Y-295100D01*
G01X-32450D02*
X-28950Y-300100D01*
G01X-111227Y-141000D02*
X-108987D01*
G01X-110200Y-139375D02*
Y-142625D01*
G01X-104473Y-140375D02*
X-103820Y-139500D01*
X-103260Y-139000D01*
X-102513Y-138750D01*
X-101860Y-139000D01*
X-101393Y-139500D01*
X-101020Y-140250D01*
X-100927Y-141125D01*
X-101020Y-141875D01*
X-101393Y-142625D01*
X-101953Y-143250D01*
X-102607Y-143500D01*
X-103353Y-143250D01*
X-104007Y-142500D01*
X-104380Y-141375D01*
X-104473Y-140125D01*
X-104287Y-138500D01*
X-104007Y-137625D01*
X-103540Y-136750D01*
X-102887Y-136125D01*
X-102233Y-136000D01*
X-101580Y-136250D01*
X-101113Y-136875D01*
G01X-96880Y-143750D02*
X-93520Y-136000D01*
G01X-88913Y-141000D02*
X-86487D01*
G01X-80200Y-136000D02*
X-80947Y-136250D01*
X-81507Y-136875D01*
X-81880Y-137625D01*
X-82160Y-138625D01*
X-82253Y-139750D01*
X-82160Y-140875D01*
X-81880Y-141875D01*
X-81507Y-142625D01*
X-80947Y-143250D01*
X-80200Y-143500D01*
X-79453Y-143250D01*
X-78893Y-142625D01*
X-78520Y-141875D01*
X-78240Y-140875D01*
X-78147Y-139750D01*
X-78240Y-138625D01*
X-78520Y-137625D01*
X-78893Y-136875D01*
X-79453Y-136250D01*
X-80200Y-136000D01*
G01X-75500Y-143500D02*
Y-138500D01*
G01Y-139875D02*
X-75220Y-139250D01*
X-74753Y-138750D01*
X-74100Y-138500D01*
X-73447Y-138750D01*
X-72980Y-139250D01*
X-72700Y-139875D01*
Y-143500D01*
G01Y-139875D02*
X-72420Y-139250D01*
X-71953Y-138750D01*
X-71300Y-138500D01*
X-70647Y-138750D01*
X-70180Y-139250D01*
X-69900Y-140000D01*
Y-143500D01*
G01X-65200Y-138500D02*
Y-143500D01*
G01Y-136500D02*
X-65387Y-136375D01*
Y-136125D01*
X-65200Y-136000D01*
X-65013Y-136125D01*
Y-136375D01*
X-65200Y-136500D01*
G01X-57700Y-143500D02*
Y-136000D01*
G01X-13727Y-163500D02*
X-11487D01*
G01X-12700Y-161875D02*
Y-165125D01*
G01X-6880Y-166250D02*
X-3520Y-158500D01*
G01X1087Y-163500D02*
X3513D01*
G01X8027Y-159750D02*
X8587Y-159000D01*
X9240Y-158625D01*
X9987Y-158500D01*
X10920Y-158750D01*
X11573Y-159375D01*
X11760Y-160125D01*
X11667Y-160875D01*
X11293Y-161500D01*
X9427Y-162750D01*
X8587Y-163625D01*
X8027Y-164875D01*
X7840Y-166000D01*
X11760D01*
G01X14500D02*
Y-161000D01*
G01Y-162375D02*
X14780Y-161750D01*
X15247Y-161250D01*
X15900Y-161000D01*
X16553Y-161250D01*
X17020Y-161750D01*
X17300Y-162375D01*
Y-166000D01*
G01Y-162375D02*
X17580Y-161750D01*
X18047Y-161250D01*
X18700Y-161000D01*
X19353Y-161250D01*
X19820Y-161750D01*
X20100Y-162500D01*
Y-166000D01*
G01X24800Y-161000D02*
Y-166000D01*
G01Y-159000D02*
X24613Y-158875D01*
Y-158625D01*
X24800Y-158500D01*
X24987Y-158625D01*
Y-158875D01*
X24800Y-159000D01*
G01X32300Y-166000D02*
Y-158500D01*
G01X-111227Y-186000D02*
X-108987D01*
G01X-110200Y-184375D02*
Y-187625D01*
G01X-104473Y-182250D02*
X-103913Y-181500D01*
X-103260Y-181125D01*
X-102513Y-181000D01*
X-101580Y-181250D01*
X-100927Y-181875D01*
X-100740Y-182625D01*
X-100833Y-183375D01*
X-101207Y-184000D01*
X-103073Y-185250D01*
X-103913Y-186125D01*
X-104473Y-187375D01*
X-104660Y-188500D01*
X-100740D01*
G01X-96880Y-188750D02*
X-93520Y-181000D01*
G01X-88913Y-186000D02*
X-86487D01*
G01X-79080Y-188500D02*
Y-181000D01*
X-82533Y-186375D01*
X-77867D01*
G01X-75500Y-188500D02*
Y-183500D01*
G01Y-184875D02*
X-75220Y-184250D01*
X-74753Y-183750D01*
X-74100Y-183500D01*
X-73447Y-183750D01*
X-72980Y-184250D01*
X-72700Y-184875D01*
Y-188500D01*
G01Y-184875D02*
X-72420Y-184250D01*
X-71953Y-183750D01*
X-71300Y-183500D01*
X-70647Y-183750D01*
X-70180Y-184250D01*
X-69900Y-185000D01*
Y-188500D01*
G01X-65200Y-183500D02*
Y-188500D01*
G01Y-181500D02*
X-65387Y-181375D01*
Y-181125D01*
X-65200Y-181000D01*
X-65013Y-181125D01*
Y-181375D01*
X-65200Y-181500D01*
G01X-57700Y-188500D02*
Y-181000D01*
G01X-111227Y-171000D02*
X-108987D01*
G01X-110200Y-169375D02*
Y-172625D01*
G01X-104380Y-173750D02*
X-101020Y-166000D01*
G01X-96413Y-171000D02*
X-93987D01*
G01X-89753Y-172000D02*
X-89193Y-172875D01*
X-88447Y-173375D01*
X-87607Y-173500D01*
X-86860Y-173375D01*
X-86113Y-172750D01*
X-85647Y-172000D01*
X-85553Y-171250D01*
X-85740Y-170375D01*
X-86393Y-169750D01*
X-87047Y-169500D01*
X-87887D01*
G01X-87047D02*
X-86487Y-169125D01*
X-86020Y-168500D01*
X-85833Y-167750D01*
X-86020Y-167000D01*
X-86487Y-166375D01*
X-87327Y-166000D01*
X-88167Y-166125D01*
X-89007Y-166625D01*
G01X-83000Y-173500D02*
Y-168500D01*
G01Y-169875D02*
X-82720Y-169250D01*
X-82253Y-168750D01*
X-81600Y-168500D01*
X-80947Y-168750D01*
X-80480Y-169250D01*
X-80200Y-169875D01*
Y-173500D01*
G01Y-169875D02*
X-79920Y-169250D01*
X-79453Y-168750D01*
X-78800Y-168500D01*
X-78147Y-168750D01*
X-77680Y-169250D01*
X-77400Y-170000D01*
Y-173500D01*
G01X-72700Y-168500D02*
Y-173500D01*
G01Y-166500D02*
X-72887Y-166375D01*
Y-166125D01*
X-72700Y-166000D01*
X-72513Y-166125D01*
Y-166375D01*
X-72700Y-166500D01*
G01X-65200Y-173500D02*
Y-166000D01*
G01X-111227Y-156000D02*
X-108987D01*
G01X-110200Y-154375D02*
Y-157625D01*
G01X-104380Y-158750D02*
X-101020Y-151000D01*
G01X-96413Y-156000D02*
X-93987D01*
G01X-89753Y-157000D02*
X-89193Y-157875D01*
X-88447Y-158375D01*
X-87607Y-158500D01*
X-86860Y-158375D01*
X-86113Y-157750D01*
X-85647Y-157000D01*
X-85553Y-156250D01*
X-85740Y-155375D01*
X-86393Y-154750D01*
X-87047Y-154500D01*
X-87887D01*
G01X-87047D02*
X-86487Y-154125D01*
X-86020Y-153500D01*
X-85833Y-152750D01*
X-86020Y-152000D01*
X-86487Y-151375D01*
X-87327Y-151000D01*
X-88167Y-151125D01*
X-89007Y-151625D01*
G01X-83000Y-158500D02*
Y-153500D01*
G01Y-154875D02*
X-82720Y-154250D01*
X-82253Y-153750D01*
X-81600Y-153500D01*
X-80947Y-153750D01*
X-80480Y-154250D01*
X-80200Y-154875D01*
Y-158500D01*
G01Y-154875D02*
X-79920Y-154250D01*
X-79453Y-153750D01*
X-78800Y-153500D01*
X-78147Y-153750D01*
X-77680Y-154250D01*
X-77400Y-155000D01*
Y-158500D01*
G01X-72700Y-153500D02*
Y-158500D01*
G01Y-151500D02*
X-72887Y-151375D01*
Y-151125D01*
X-72700Y-151000D01*
X-72513Y-151125D01*
Y-151375D01*
X-72700Y-151500D01*
G01X-65200Y-158500D02*
Y-151000D01*
G01X-61227Y-126000D02*
X-58987D01*
G01X-60200Y-124375D02*
Y-127625D01*
G01X-54380Y-128750D02*
X-51020Y-121000D01*
G01X-46413Y-126000D02*
X-43987D01*
G01X-39753Y-127375D02*
X-39193Y-128000D01*
X-38540Y-128375D01*
X-37700Y-128500D01*
X-36860Y-128250D01*
X-36207Y-127750D01*
X-35740Y-126875D01*
X-35647Y-125875D01*
X-35833Y-124875D01*
X-36300Y-124250D01*
X-36953Y-123750D01*
X-37607Y-123625D01*
X-38260Y-123750D01*
X-39100Y-124250D01*
X-38820Y-121000D01*
X-36300D01*
G01X-33000Y-128500D02*
Y-123500D01*
G01Y-124875D02*
X-32720Y-124250D01*
X-32253Y-123750D01*
X-31600Y-123500D01*
X-30947Y-123750D01*
X-30480Y-124250D01*
X-30200Y-124875D01*
Y-128500D01*
G01Y-124875D02*
X-29920Y-124250D01*
X-29453Y-123750D01*
X-28800Y-123500D01*
X-28147Y-123750D01*
X-27680Y-124250D01*
X-27400Y-125000D01*
Y-128500D01*
G01X-22700Y-123500D02*
Y-128500D01*
G01Y-121500D02*
X-22887Y-121375D01*
Y-121125D01*
X-22700Y-121000D01*
X-22513Y-121125D01*
Y-121375D01*
X-22700Y-121500D01*
G01X-15200Y-128500D02*
Y-121000D01*
G01X-7347Y-101500D02*
Y-94000D01*
X-3053Y-101500D01*
Y-94000D01*
G01X433Y-101500D02*
Y-94000D01*
X2673D01*
X3420Y-94375D01*
X3980Y-95250D01*
X4167Y-96250D01*
X3980Y-97250D01*
X3513Y-98000D01*
X2673Y-98375D01*
X433D01*
G01X9800Y-94000D02*
Y-101500D01*
G01X7653Y-94000D02*
X11947D01*
G01X15340Y-101500D02*
Y-94000D01*
G01X19260D02*
Y-101500D01*
G01Y-97750D02*
X15340D01*
G01X-23700Y-106000D02*
Y-113500D01*
G01X-25007Y-108500D02*
X-22393D01*
G01X-16200Y-113500D02*
X-16760Y-113375D01*
X-17320Y-112875D01*
X-17693Y-112000D01*
X-17880Y-111000D01*
X-17693Y-110000D01*
X-17320Y-109125D01*
X-16760Y-108625D01*
X-16200Y-108500D01*
X-15640Y-108625D01*
X-15080Y-109125D01*
X-14707Y-110000D01*
X-14613Y-111000D01*
X-14707Y-112000D01*
X-15080Y-112875D01*
X-15640Y-113375D01*
X-16200Y-113500D01*
G01X-8700D02*
Y-106000D01*
G01X-2600Y-110125D02*
X387D01*
X107Y-109250D01*
X-360Y-108750D01*
X-1013Y-108500D01*
X-1667Y-108625D01*
X-2227Y-109000D01*
X-2600Y-109875D01*
X-2787Y-110625D01*
Y-111375D01*
X-2600Y-112125D01*
X-2133Y-112875D01*
X-1573Y-113375D01*
X-920Y-113500D01*
X-267Y-113250D01*
X387Y-112500D01*
G01X4993Y-113500D02*
Y-108500D01*
G01Y-109500D02*
X5460Y-109000D01*
X5927Y-108625D01*
X6580Y-108500D01*
X7047Y-108625D01*
X7607Y-109000D01*
G01X15480Y-113500D02*
Y-108500D01*
G01Y-109375D02*
X15107Y-108875D01*
X14547Y-108625D01*
X13893Y-108500D01*
X13240Y-108750D01*
X12680Y-109250D01*
X12307Y-110000D01*
X12120Y-111000D01*
X12307Y-112000D01*
X12680Y-112750D01*
X13240Y-113250D01*
X13893Y-113500D01*
X14547Y-113375D01*
X15107Y-113000D01*
X15480Y-112500D01*
G01X19713Y-113500D02*
Y-108500D01*
G01Y-109750D02*
X20087Y-109125D01*
X20647Y-108625D01*
X21393Y-108500D01*
X22047Y-108625D01*
X22607Y-109125D01*
X22887Y-110000D01*
Y-113500D01*
G01X30293Y-109125D02*
X29640Y-108625D01*
X29080Y-108500D01*
X28333Y-108750D01*
X27773Y-109250D01*
X27400Y-110125D01*
X27307Y-111000D01*
X27400Y-111875D01*
X27773Y-112625D01*
X28333Y-113250D01*
X29080Y-113500D01*
X29733Y-113250D01*
X30293Y-112750D01*
G01X34900Y-110125D02*
X37887D01*
X37607Y-109250D01*
X37140Y-108750D01*
X36487Y-108500D01*
X35833Y-108625D01*
X35273Y-109000D01*
X34900Y-109875D01*
X34713Y-110625D01*
Y-111375D01*
X34900Y-112125D01*
X35367Y-112875D01*
X35927Y-113375D01*
X36580Y-113500D01*
X37233Y-113250D01*
X37887Y-112500D01*
G01X-117700Y-106000D02*
Y-113500D01*
G01X-119007Y-108500D02*
X-116393D01*
G01X-110200Y-113500D02*
X-110760Y-113375D01*
X-111320Y-112875D01*
X-111693Y-112000D01*
X-111880Y-111000D01*
X-111693Y-110000D01*
X-111320Y-109125D01*
X-110760Y-108625D01*
X-110200Y-108500D01*
X-109640Y-108625D01*
X-109080Y-109125D01*
X-108707Y-110000D01*
X-108613Y-111000D01*
X-108707Y-112000D01*
X-109080Y-112875D01*
X-109640Y-113375D01*
X-110200Y-113500D01*
G01X-102700D02*
Y-106000D01*
G01X-96600Y-110125D02*
X-93613D01*
X-93893Y-109250D01*
X-94360Y-108750D01*
X-95013Y-108500D01*
X-95667Y-108625D01*
X-96227Y-109000D01*
X-96600Y-109875D01*
X-96787Y-110625D01*
Y-111375D01*
X-96600Y-112125D01*
X-96133Y-112875D01*
X-95573Y-113375D01*
X-94920Y-113500D01*
X-94267Y-113250D01*
X-93613Y-112500D01*
G01X-89007Y-113500D02*
Y-108500D01*
G01Y-109500D02*
X-88540Y-109000D01*
X-88073Y-108625D01*
X-87420Y-108500D01*
X-86953Y-108625D01*
X-86393Y-109000D01*
G01X-78520Y-113500D02*
Y-108500D01*
G01Y-109375D02*
X-78893Y-108875D01*
X-79453Y-108625D01*
X-80107Y-108500D01*
X-80760Y-108750D01*
X-81320Y-109250D01*
X-81693Y-110000D01*
X-81880Y-111000D01*
X-81693Y-112000D01*
X-81320Y-112750D01*
X-80760Y-113250D01*
X-80107Y-113500D01*
X-79453Y-113375D01*
X-78893Y-113000D01*
X-78520Y-112500D01*
G01X-74287Y-113500D02*
Y-108500D01*
G01Y-109750D02*
X-73913Y-109125D01*
X-73353Y-108625D01*
X-72607Y-108500D01*
X-71953Y-108625D01*
X-71393Y-109125D01*
X-71113Y-110000D01*
Y-113500D01*
G01X-63707Y-109125D02*
X-64360Y-108625D01*
X-64920Y-108500D01*
X-65667Y-108750D01*
X-66227Y-109250D01*
X-66600Y-110125D01*
X-66693Y-111000D01*
X-66600Y-111875D01*
X-66227Y-112625D01*
X-65667Y-113250D01*
X-64920Y-113500D01*
X-64267Y-113250D01*
X-63707Y-112750D01*
G01X-59100Y-110125D02*
X-56113D01*
X-56393Y-109250D01*
X-56860Y-108750D01*
X-57513Y-108500D01*
X-58167Y-108625D01*
X-58727Y-109000D01*
X-59100Y-109875D01*
X-59287Y-110625D01*
Y-111375D01*
X-59100Y-112125D01*
X-58633Y-112875D01*
X-58073Y-113375D01*
X-57420Y-113500D01*
X-56767Y-113250D01*
X-56113Y-112500D01*
G01X-97067Y-101500D02*
Y-94000D01*
X-94827D01*
X-94080Y-94375D01*
X-93520Y-95250D01*
X-93333Y-96250D01*
X-93520Y-97250D01*
X-93987Y-98000D01*
X-94827Y-98375D01*
X-97067D01*
G01X-87700Y-94000D02*
Y-101500D01*
G01X-89847Y-94000D02*
X-85553D01*
G01X-82160Y-101500D02*
Y-94000D01*
G01X-78240D02*
Y-101500D01*
G01Y-97750D02*
X-82160D01*
G01X635000Y-370000D02*
X1091000D01*
G01X899000Y-335000D02*
Y-405000D01*
G01X719000Y-335000D02*
Y-405000D01*
G01X635000Y-335000D02*
X1091000D01*
G01X635000Y-300000D02*
X1091000D01*
G01X635000Y-405000D02*
Y-275000D01*
X1091000D01*
Y-405000D01*
X635000D01*
G01X1019000Y-335000D02*
Y-405000D01*
G01X-540000Y-500000D02*
Y630000D01*
X1130000D01*
Y-500000D01*
X-540000D01*
G01X-365000Y-148500D02*
X-40000D01*
G01X-365000Y-118500D02*
X55000D01*
Y-133500D01*
X-365000D01*
G01Y-163500D02*
X-40000D01*
G01X-365000Y-178500D02*
X-40000D01*
G01X-365000Y-193500D02*
X55000D01*
G01X-365000Y-212500D02*
X55000D01*
Y-87500D01*
X-365000D01*
Y-212500D01*
G01X-40000Y-133500D02*
Y-193500D01*
G01Y-87500D02*
Y-118500D01*
G01X-135000Y-87500D02*
Y-193500D01*
M02*
