G04 ================== begin FILE IDENTIFICATION RECORD ==================*
G04 Layout Name:  ORWL_Design_SHIFT.brd*
G04 Film Name:    mask_top*
G04 File Format:  Gerber RS274X*
G04 File Origin:  Cadence Allegro 16.6-P004*
G04 Origin Date:  Sat Sep 19 15:46:57 2015*
G04 *
G04 Layer:  VIA CLASS/SOLDERMASK_TOP*
G04 Layer:  PIN/SOLDERMASK_TOP*
G04 Layer:  PACKAGE GEOMETRY/SOLDERMASK_TOP*
G04 Layer:  DRAWING FORMAT/SOLDERMASK_TOP*
G04 Layer:  BOARD GEOMETRY/SOLDERMASK_TOP*
G04 Layer:  BOARD GEOMETRY/LOGO*
G04 *
G04 Offset:    (0.00 0.00)*
G04 Mirror:    No*
G04 Mode:      Positive*
G04 Rotation:  0*
G04 FullContactRelief:  No*
G04 UndefLineWidth:     6.00*
G04 ================== end FILE IDENTIFICATION RECORD ====================*
%FSLAX45Y45*MOIN*%
%IR0*IPPOS*OFA0.00000B0.00000*MIA0B0*SFA1.00000B1.00000*%
%ADD56R,.112X.051*%
%AMMACRO47*
21,1,.02,.035,0.0,0.0,135.*%
%ADD47MACRO47*%
%ADD128R,.043X.102*%
%AMMACRO11*
21,1,.027,.016,0.0,0.0,135.*
1,1,.016,-.009546,.009546*
1,1,.016,.009546,-.009546*%
%ADD11MACRO11*%
%ADD122R,.102X.063*%
%ADD120R,.026X.104*%
%AMMACRO12*
21,1,.014,.028,0.0,0.0,135.*
1,1,.028,-.00495,.00495*
1,1,.028,.00495,-.00495*%
%ADD12MACRO12*%
%ADD121R,.045X.104*%
%AMMACRO10*
21,1,.015,.028,0.0,0.0,135.*
1,1,.028,-.005303,.005303*
1,1,.028,.005303,-.005303*%
%ADD10MACRO10*%
%AMMACRO48*
21,1,.016,.035,0.0,0.0,135.*%
%ADD48MACRO48*%
%ADD100C,.012*%
%AMMACRO41*
21,1,.054,.044,0.0,0.0,135.*%
%ADD41MACRO41*%
%AMMACRO33*
21,1,.135,.102,0.0,0.0,153.811*%
%ADD33MACRO33*%
%AMMACRO125*
21,1,.055,.035,0.0,0.0,135.*%
%ADD125MACRO125*%
%ADD88C,.013*%
%ADD76C,.022*%
%ADD134C,.014*%
%ADD19C,.032*%
%ADD103R,.161X.083*%
%AMMACRO80*
4,1,4,-.19072,-.01757,
.19071,-.01757,
.19071,.01757,
-.19072,.01757,
-.19072,-.01757,
0.0*
%
%ADD80MACRO80*%
%ADD32C,.024*%
%ADD97C,.016*%
%AMMACRO83*
4,1,4,-.04586,-.01757,
.04586,-.01757,
.04586,.01757,
-.04586,.01757,
-.04586,-.01757,
0.0*
%
%ADD83MACRO83*%
%ADD22C,.034*%
%AMMACRO16*
21,1,.043,.055,0.0,0.0,135.*
1,1,.043,.019445,.019445*
1,1,.043,-.019445,-.019445*%
%ADD16MACRO16*%
%AMMACRO82*
4,1,4,-.00304,-.01757,
.00304,-.01757,
.00304,.01757,
-.00304,.01757,
-.00304,-.01757,
0.0*
%
%ADD82MACRO82*%
%ADD66C,.044*%
%AMMACRO50*
21,1,.036,.067,0.0,0.0,135.*%
%ADD50MACRO50*%
%ADD109C,.018*%
%ADD55R,.02X.02*%
%AMMACRO89*
21,1,.135,.102,0.0,0.0,153.98*%
%ADD89MACRO89*%
%ADD119R,.022X.022*%
%ADD18C,.047*%
%AMMACRO127*
4,1,23,.11878,-.04368,
.117916,-.063757,
.113578,-.083379,
.105899,-.101949,
.095112,-.118904,
.081545,-.133728,
.065609,-.145971,
.04779,-.155261,
.028628,-.161316,
.008706,-.163951,
-.011371,-.163086,
-.030993,-.158749,
-.049563,-.15107,
-.066518,-.140283,
-.081343,-.126715,
-.093586,-.11078,
-.102876,-.092961,
-.10893,-.073799,
-.111565,-.053877,
-.11164,-.05173,
-.11888,.15556,
.000667,.162963,
.11154,.16361,
.11878,-.04368,
0.0*
%
%ADD127MACRO127*%
%ADD126C,.039*%
%ADD123R,.099X.115*%
%AMMACRO77*
21,1,.043,.102,0.0,0.0,24.847*%
%ADD77MACRO77*%
%ADD92R,.024X.024*%
%ADD17C,.067*%
%ADD30R,.043X.043*%
%ADD37R,.035X.035*%
%ADD45R,.036X.036*%
%ADD112R,.028X.028*%
%AMMACRO90*
21,1,.135,.102,0.0,0.0,168.189*%
%ADD90MACRO90*%
%ADD59C,.089*%
%AMMACRO43*
4,1,40,-.01184,.00551,
-.01175,.006541,
-.011483,.007541,
-.011046,.008479,
-.010453,.009327,
-.009722,.010059,
-.008875,.010653,
-.007937,.011091,
-.006938,.011359,
-.00591,.01145,
.00591,.01145,
.006941,.011359,
.00794,.01109,
.008877,.010651,
.009724,.010057,
.010455,.009324,
.011048,.008476,
.011484,.007538,
.011751,.006538,
.01184,.00551,
.01184,-.00551,
.01175,-.006541,
.011483,-.007541,
.011046,-.008479,
.010453,-.009327,
.009722,-.010059,
.008875,-.010653,
.007937,-.011091,
.006938,-.011359,
.00591,-.01145,
-.00591,-.01145,
-.006941,-.011359,
-.00794,-.01109,
-.008877,-.010651,
-.009724,-.010057,
-.010455,-.009324,
-.011048,-.008476,
-.011484,-.007538,
-.011751,-.006538,
-.01184,-.00551,
-.01184,.00551,
0.0*
%
%ADD43MACRO43*%
%AMMACRO42*
4,1,40,.01227,.00448,
.012933,.003685,
.013451,.002789,
.013806,.001817,
.013986,.000798,
.013987,-.000237,
.013809,-.001256,
.013455,-.002229,
.012939,-.003125,
.01228,-.00392,
.00392,-.01228,
.003123,-.01294,
.002226,-.013457,
.001253,-.013809,
.000234,-.013988,
-.000801,-.013986,
-.00182,-.013805,
-.002792,-.01345,
-.003687,-.012931,
-.00448,-.01227,
-.01227,-.00448,
-.012933,-.003685,
-.013451,-.002789,
-.013806,-.001817,
-.013986,-.000798,
-.013987,.000237,
-.013809,.001256,
-.013455,.002229,
-.012939,.003125,
-.01228,.00392,
-.00392,.01228,
-.003123,.01294,
-.002226,.013457,
-.001253,.013809,
-.000234,.013988,
.000801,.013986,
.00182,.013805,
.002792,.01345,
.003687,.012931,
.00448,.01227,
.01227,.00448,
0.0*
%
%ADD42MACRO42*%
%AMMACRO39*
4,1,40,-.00448,.01227,
-.003685,.012933,
-.002789,.013451,
-.001817,.013806,
-.000798,.013986,
.000237,.013987,
.001256,.013809,
.002229,.013455,
.003125,.012939,
.00392,.01228,
.01228,.00392,
.01294,.003123,
.013457,.002226,
.013809,.001253,
.013988,.000234,
.013986,-.000801,
.013805,-.00182,
.01345,-.002792,
.012931,-.003687,
.01227,-.00448,
.00448,-.01227,
.003685,-.012933,
.002789,-.013451,
.001817,-.013806,
.000798,-.013986,
-.000237,-.013987,
-.001256,-.013809,
-.002229,-.013455,
-.003125,-.012939,
-.00392,-.01228,
-.01228,-.00392,
-.01294,-.003123,
-.013457,-.002226,
-.013809,-.001253,
-.013988,-.000234,
-.013986,.000801,
-.013805,.00182,
-.01345,.002792,
-.012931,.003687,
-.01227,.00448,
-.00448,.01227,
0.0*
%
%ADD39MACRO39*%
%AMMACRO38*
4,1,40,-.01227,-.00448,
-.012933,-.003685,
-.013451,-.002789,
-.013806,-.001817,
-.013986,-.000798,
-.013987,.000237,
-.013809,.001256,
-.013455,.002229,
-.012939,.003125,
-.01228,.00392,
-.00392,.01228,
-.003123,.01294,
-.002226,.013457,
-.001253,.013809,
-.000234,.013988,
.000801,.013986,
.00182,.013805,
.002792,.01345,
.003687,.012931,
.00448,.01227,
.01227,.00448,
.012933,.003685,
.013451,.002789,
.013806,.001817,
.013986,.000798,
.013987,-.000237,
.013809,-.001256,
.013455,-.002229,
.012939,-.003125,
.01228,-.00392,
.00392,-.01228,
.003123,-.01294,
.002226,-.013457,
.001253,-.013809,
.000234,-.013988,
-.000801,-.013986,
-.00182,-.013805,
-.002792,-.01345,
-.003687,-.012931,
-.00448,-.01227,
-.01227,-.00448,
0.0*
%
%ADD38MACRO38*%
%AMMACRO36*
4,1,40,.00551,.01184,
.006541,.01175,
.007541,.011483,
.008479,.011046,
.009327,.010453,
.010059,.009722,
.010653,.008875,
.011091,.007937,
.011359,.006938,
.01145,.00591,
.01145,-.00591,
.011359,-.006941,
.01109,-.00794,
.010651,-.008877,
.010057,-.009724,
.009324,-.010455,
.008476,-.011048,
.007538,-.011484,
.006538,-.011751,
.00551,-.01184,
-.00551,-.01184,
-.006541,-.01175,
-.007541,-.011483,
-.008479,-.011046,
-.009327,-.010453,
-.010059,-.009722,
-.010653,-.008875,
-.011091,-.007937,
-.011359,-.006938,
-.01145,-.00591,
-.01145,.00591,
-.011359,.006941,
-.01109,.00794,
-.010651,.008877,
-.010057,.009724,
-.009324,.010455,
-.008476,.011048,
-.007538,.011484,
-.006538,.011751,
-.00551,.01184,
.00551,.01184,
0.0*
%
%ADD36MACRO36*%
%AMMACRO95*
4,1,22,-.01873,.00889,
.00984,.00889,
.011384,.008755,
.012881,.008355,
.014285,.0077,
.015555,.006812,
.016651,.005716,
.01754,.004447,
.018196,.003043,
.018597,.001546,
.018733,.000003,
.018598,-.001541,
.018197,-.003038,
.017543,-.004443,
.016654,-.005712,
.015559,-.006809,
.01429,-.007698,
.012885,-.008353,
.011389,-.008755,
.009845,-.00889,
.00984,-.00889,
-.01873,-.00889,
-.01873,.00889,
0.0*
%
%ADD95MACRO95*%
%ADD116R,.02X.032*%
%ADD115R,.02X.014*%
%ADD53R,.02X.024*%
%ADD51R,.024X.02*%
%ADD132R,.032X.014*%
%ADD131R,.014X.032*%
%AMMACRO69*
21,1,.027,.016,0.0,0.0,45.*
1,1,.016,.009546,.009546*
1,1,.016,-.009546,-.009546*%
%ADD69MACRO69*%
%ADD108R,.012X.017*%
%ADD107R,.017X.012*%
%AMMACRO64*
21,1,.012,.089,0.0,0.0,118.*
1,1,.089,-.002817,.005298*
1,1,.089,.002817,-.005298*%
%ADD64MACRO64*%
%AMMACRO60*
21,1,.028,.004,0.0,0.0,45.*
1,1,.028,.001414,-.001414*
1,1,.028,-.001414,.001414*%
%ADD60MACRO60*%
%ADD54R,.022X.016*%
%ADD87R,.014X.016*%
%AMMACRO70*
21,1,.014,.028,0.0,0.0,45.*
1,1,.028,.00495,.00495*
1,1,.028,-.00495,-.00495*%
%ADD70MACRO70*%
%ADD23R,.019X.012*%
%ADD117R,.016X.024*%
%ADD98R,.016X.051*%
%ADD91R,.032X.036*%
%ADD86R,.018X.014*%
%AMMACRO68*
21,1,.015,.028,0.0,0.0,45.*
1,1,.028,.005303,.005303*
1,1,.028,-.005303,-.005303*%
%ADD68MACRO68*%
%ADD67R,.044X.032*%
%ADD62R,.043X.051*%
%ADD24R,.012X.019*%
%AMMACRO13*
21,1,.043,.048,0.0,0.0,45.*
1,1,.043,.016971,-.016971*
1,1,.043,-.016971,.016971*%
%ADD13MACRO13*%
%ADD129R,.063X.024*%
%ADD102R,.016X.043*%
%ADD101R,.043X.016*%
%ADD93R,.014X.018*%
%ADD61R,.018X.015*%
%AMMACRO58*
21,1,.043,.04,0.0,0.0,45.*
1,1,.043,.014142,-.014142*
1,1,.043,-.014142,.014142*%
%ADD58MACRO58*%
%ADD52R,.053X.015*%
%AMMACRO49*
21,1,.087,.122,0.0,0.0,135.*%
%ADD49MACRO49*%
%ADD104R,.015X.063*%
%ADD99R,.067X.012*%
%AMMACRO96*
4,1,22,.01873,-.00889,
-.00984,-.00889,
-.011384,-.008755,
-.012881,-.008355,
-.014285,-.0077,
-.015555,-.006812,
-.016651,-.005716,
-.01754,-.004447,
-.018196,-.003043,
-.018597,-.001546,
-.018733,-.000003,
-.018598,.001541,
-.018197,.003038,
-.017543,.004443,
-.016654,.005712,
-.015559,.006809,
-.01429,.007698,
-.012885,.008353,
-.011389,.008755,
-.009845,.00889,
-.00984,.00889,
.01873,.00889,
.01873,-.00889,
0.0*
%
%ADD96MACRO96*%
%AMMACRO94*
4,1,20,-.03153,.03645,
-.02031,.03645,
-.02031,.0768,
-.00528,.0768,
-.00528,.03645,
.00528,.03645,
.00528,.0768,
.02031,.0768,
.02031,.03645,
.03153,.03645,
.03153,-.03645,
.02031,-.03645,
.02031,-.0768,
.00528,-.0768,
.00528,-.03645,
-.00528,-.03645,
-.00528,-.0768,
-.02031,-.0768,
-.02031,-.03645,
-.03153,-.03645,
-.03153,.03645,
0.0*
%
%ADD94MACRO94*%
%ADD74C,.26*%
%ADD130R,.138X.173*%
%ADD57R,.065X.016*%
%ADD31R,.024X.093*%
%AMMACRO110*
21,1,.135,.102,0.0,0.0,44.841*%
%ADD110MACRO110*%
%ADD105R,.075X.043*%
%ADD34R,.043X.047*%
%ADD29R,.093X.024*%
%ADD21C,.181*%
%ADD111R,.035X.083*%
%ADD106R,.043X.039*%
%AMMACRO84*
4,1,4,-.00304,-.01757,
.00304,-.01757,
.00304,.01757,
-.00304,.01757,
-.00304,-.01757,
0.0*
%
%ADD84MACRO84*%
%AMMACRO63*
21,1,.012,.089,0.0,0.0,107.424*
1,1,.089,-.001797,.005725*
1,1,.089,.001797,-.005725*%
%ADD63MACRO63*%
%AMMACRO85*
4,1,4,-.04586,-.01757,
.04586,-.01757,
.04586,.01757,
-.04586,.01757,
-.04586,-.01757,
0.0*
%
%ADD85MACRO85*%
%AMMACRO73*
21,1,.043,.055,0.0,0.0,45.*
1,1,.043,.019445,-.019445*
1,1,.043,-.019445,.019445*%
%ADD73MACRO73*%
%ADD35R,.028X.037*%
%ADD113R,.052X.068*%
%AMMACRO81*
4,1,4,-.2104,-.01757,
.2104,-.01757,
.2104,.01757,
-.2104,.01757,
-.2104,-.01757,
0.0*
%
%ADD81MACRO81*%
%ADD118R,.055X.039*%
%AMMACRO79*
4,1,4,-.03534,-.01757,
.03535,-.01757,
.03535,.01757,
-.03534,.01757,
-.03534,-.01757,
0.0*
%
%ADD79MACRO79*%
%AMMACRO28*
4,1,4,-.01355,-.01757,
.01355,-.01757,
.01355,.01757,
-.01355,.01757,
-.01355,-.01757,
0.0*
%
%ADD28MACRO28*%
%ADD114R,.038X.058*%
%AMMACRO65*
4,1,23,-.1264,-.00626,
-.13346,.012554,
-.137143,.032309,
-.13734,.052404,
-.134044,.072227,
-.127356,.091177,
-.117479,.108678,
-.104713,.124198,
-.089446,.137265,
-.072142,.147483,
-.053327,.15454,
-.033572,.158223,
-.013477,.15842,
.006346,.155124,
.025296,.148436,
.042797,.138559,
.058317,.125793,
.071384,.110527,
.081602,.093222,
.08251,.09128,
.17026,-.09666,
.063135,-.150238,
-.03865,-.1942,
-.1264,-.00626,
0.0*
%
%ADD65MACRO65*%
%AMMACRO26*
4,1,6,.05292,.18087,
-.05292,.18087,
-.05292,-.18087,
-.01777,-.18087,
-.01777,.14573,
.05292,.14573,
.05292,.18087,
0.0*
%
%ADD26MACRO26*%
%ADD124R,0.0X0.0*%
%AMMACRO25*
4,1,6,-.05292,.18087,
-.01777,.18087,
-.01777,-.14573,
.05292,-.14573,
.05292,-.18087,
-.05292,-.18087,
-.05292,.18087,
0.0*
%
%ADD25MACRO25*%
%ADD133R,.146X.146*%
%AMMACRO27*
4,1,4,-.05292,-.01757,
.05292,-.01757,
.05292,.01757,
-.05292,.01757,
-.05292,-.01757,
0.0*
%
%ADD27MACRO27*%
%AMMACRO78*
4,1,4,-.03534,-.01757,
.03535,-.01757,
.03535,.01757,
-.03534,.01757,
-.03534,-.01757,
0.0*
%
%ADD78MACRO78*%
%AMMACRO75*
4,1,23,.00627,-.1264,
-.012544,-.13346,
-.032299,-.137145,
-.052394,-.137343,
-.072218,-.134049,
-.091168,-.127362,
-.10867,-.117487,
-.12419,-.104722,
-.137259,-.089456,
-.147478,-.072153,
-.154537,-.053338,
-.158221,-.033583,
-.15842,-.013488,
-.155125,.006335,
-.148439,.025286,
-.138563,.042787,
-.125799,.058308,
-.110533,.071377,
-.093229,.081596,
-.09128,.0825,
.09665,.17026,
.150236,.06314,
.19421,-.03864,
.00627,-.1264,
0.0*
%
%ADD75MACRO75*%
%AMMACRO20*
4,1,23,-.00597,.12642,
.012863,.133431,
.032627,.137069,
.052722,.137219,
.072537,.133877,
.091472,.127145,
.10895,.117228,
.12444,.104426,
.137472,.089129,
.147649,.071801,
.154663,.052969,
.1583,.033206,
.158451,.013111,
.155109,-.006705,
.148377,-.02564,
.13846,-.043117,
.125658,-.058608,
.110361,-.071639,
.093033,-.081817,
.09109,-.08272,
-.09706,-.17003,
-.150387,-.06278,
-.19411,.0391,
-.00597,.12642,
0.0*
%
%ADD20MACRO20*%
%AMMACRO44*
4,1,40,.01184,-.00551,
.01175,-.006541,
.011483,-.007541,
.011046,-.008479,
.010453,-.009327,
.009722,-.010059,
.008875,-.010653,
.007937,-.011091,
.006938,-.011359,
.00591,-.01145,
-.00591,-.01145,
-.006941,-.011359,
-.00794,-.01109,
-.008877,-.010651,
-.009724,-.010057,
-.010455,-.009324,
-.011048,-.008476,
-.011484,-.007538,
-.011751,-.006538,
-.01184,-.00551,
-.01184,.00551,
-.01175,.006541,
-.011483,.007541,
-.011046,.008479,
-.010453,.009327,
-.009722,.010059,
-.008875,.010653,
-.007937,.011091,
-.006938,.011359,
-.00591,.01145,
.00591,.01145,
.006941,.011359,
.00794,.01109,
.008877,.010651,
.009724,.010057,
.010455,.009324,
.011048,.008476,
.011484,.007538,
.011751,.006538,
.01184,.00551,
.01184,-.00551,
0.0*
%
%ADD44MACRO44*%
%AMMACRO40*
4,1,40,.00448,-.01227,
.003685,-.012933,
.002789,-.013451,
.001817,-.013806,
.000798,-.013986,
-.000237,-.013987,
-.001256,-.013809,
-.002229,-.013455,
-.003125,-.012939,
-.00392,-.01228,
-.01228,-.00392,
-.01294,-.003123,
-.013457,-.002226,
-.013809,-.001253,
-.013988,-.000234,
-.013986,.000801,
-.013805,.00182,
-.01345,.002792,
-.012931,.003687,
-.01227,.00448,
-.00448,.01227,
-.003685,.012933,
-.002789,.013451,
-.001817,.013806,
-.000798,.013986,
.000237,.013987,
.001256,.013809,
.002229,.013455,
.003125,.012939,
.00392,.01228,
.01228,.00392,
.01294,.003123,
.013457,.002226,
.013809,.001253,
.013988,.000234,
.013986,-.000801,
.013805,-.00182,
.01345,-.002792,
.012931,-.003687,
.01227,-.00448,
.00448,-.01227,
0.0*
%
%ADD40MACRO40*%
%AMMACRO46*
4,1,40,-.00551,-.01184,
-.006541,-.01175,
-.007541,-.011483,
-.008479,-.011046,
-.009327,-.010453,
-.010059,-.009722,
-.010653,-.008875,
-.011091,-.007937,
-.011359,-.006938,
-.01145,-.00591,
-.01145,.00591,
-.011359,.006941,
-.01109,.00794,
-.010651,.008877,
-.010057,.009724,
-.009324,.010455,
-.008476,.011048,
-.007538,.011484,
-.006538,.011751,
-.00551,.01184,
.00551,.01184,
.006541,.01175,
.007541,.011483,
.008479,.011046,
.009327,.010453,
.010059,.009722,
.010653,.008875,
.011091,.007937,
.011359,.006938,
.01145,.00591,
.01145,-.00591,
.011359,-.006941,
.01109,-.00794,
.010651,-.008877,
.010057,-.009724,
.009324,-.010455,
.008476,-.011048,
.007538,-.011484,
.006538,-.011751,
.00551,-.01184,
-.00551,-.01184,
0.0*
%
%ADD46MACRO46*%
%ADD135C,.02*%
%ADD136C,.015*%
%ADD137C,.006*%
G75*
%LPD*%
G75*
G36*
G01X-188897Y-6362D02*
X-188774Y-6890D01*
X-189780Y-6803D01*
X-189918Y-6445D01*
X-190223Y-6073D01*
X-190711Y-5858D01*
X-191717Y-5770D01*
X-192235Y-5897D01*
X-192769Y-6196D01*
X-192981Y-6695D01*
X-193011Y-7038D01*
X-192888Y-7566D01*
X-192415Y-7952D01*
X-191927Y-8168D01*
X-190921Y-8256D01*
X-190098Y-8500D01*
X-189457Y-8901D01*
X-188846Y-9645D01*
X-188571Y-10359D01*
X-188646Y-11215D01*
X-189041Y-11871D01*
X-189772Y-12497D01*
X-190472Y-12781D01*
X-191326Y-12879D01*
X-192667Y-12762D01*
X-193490Y-12517D01*
X-194284Y-11930D01*
X-194712Y-11030D01*
X-194820Y-10330D01*
X-193813Y-10418D01*
X-193691Y-10947D01*
X-193233Y-11504D01*
X-192577Y-11734D01*
X-191236Y-11851D01*
X-190550Y-11739D01*
X-190017Y-11440D01*
X-189637Y-10956D01*
X-189592Y-10442D01*
X-189882Y-9899D01*
X-190356Y-9513D01*
X-191011Y-9283D01*
X-192017Y-9195D01*
X-192673Y-8965D01*
X-193313Y-8564D01*
X-193924Y-7820D01*
X-194032Y-7121D01*
X-193972Y-6436D01*
X-193744Y-5766D01*
X-193014Y-5139D01*
X-192313Y-4855D01*
X-191628Y-4743D01*
X-190789Y-4816D01*
X-189966Y-5061D01*
X-189340Y-5633D01*
X-188897Y-6362D01*
G37*
G36*
G01X-167014Y-15006D02*
X-166008Y-15094D01*
X-165379Y-7902D01*
X-162696Y-8137D01*
X-162621Y-7281D01*
X-168993Y-6723D01*
X-169067Y-7579D01*
X-166385Y-7814D01*
X-167014Y-15006D01*
G37*
G36*
G01X-177074Y-14126D02*
X-176068Y-14214D01*
X-175739Y-10447D01*
X-171379Y-10828D01*
X-171289Y-9801D01*
X-175648Y-9419D01*
X-175454Y-7193D01*
X-170424Y-7633D01*
X-170334Y-6606D01*
X-176370Y-6078D01*
X-177074Y-14126D01*
G37*
G36*
G01X-179421Y-13920D02*
X-178415Y-14008D01*
X-177711Y-5960D01*
X-178717Y-5872D01*
X-179421Y-13920D01*
G37*
G36*
G01X-181769Y-13715D02*
X-180763Y-13803D01*
X-180059Y-5755D01*
X-181065Y-5667D01*
X-181349Y-8920D01*
X-186044Y-8510D01*
X-185759Y-5256D01*
X-186765Y-5168D01*
X-187469Y-13216D01*
X-186463Y-13304D01*
X-186134Y-9537D01*
X-181439Y-9948D01*
X-181769Y-13715D01*
G37*
G36*
G01X-227271Y-3522D02*
X-227546Y-2808D01*
X-228157Y-2064D01*
X-228798Y-1664D01*
X-229621Y-1419D01*
X-233645Y-1067D01*
X-234349Y-9115D01*
X-230325Y-9467D01*
X-229472Y-9369D01*
X-228771Y-9085D01*
X-228041Y-8459D01*
X-227646Y-7803D01*
X-227403Y-6962D01*
X-227178Y-4393D01*
X-227271Y-3522D01*
G37*
G36*
G01X-226062Y-7079D02*
X-225804Y-6066D01*
X-225409Y-5411D01*
X-225044Y-5098D01*
X-224511Y-4799D01*
X-223993Y-4672D01*
X-222972Y-4589D01*
X-221981Y-4848D01*
X-221187Y-5435D01*
X-220744Y-6164D01*
X-220636Y-6864D01*
X-220696Y-7549D01*
X-225223Y-7153D01*
X-225253Y-7495D01*
X-225131Y-8023D01*
X-224993Y-8381D01*
X-224535Y-8938D01*
X-224215Y-9139D01*
X-223559Y-9369D01*
X-222370Y-9300D01*
X-221837Y-9002D01*
X-221624Y-8503D01*
X-220786Y-8576D01*
X-221014Y-9246D01*
X-221562Y-9716D01*
X-222262Y-10000D01*
X-223451Y-10068D01*
X-224442Y-9809D01*
X-224930Y-9594D01*
X-225403Y-9207D01*
X-225709Y-8836D01*
X-225984Y-8121D01*
X-226062Y-7079D01*
G37*
G36*
G01X-219235Y-6296D02*
X-218960Y-7010D01*
X-218334Y-7582D01*
X-215559Y-8688D01*
X-215085Y-9075D01*
X-214948Y-9432D01*
X-215145Y-9760D01*
X-215496Y-9901D01*
X-216181Y-10014D01*
X-217187Y-9926D01*
X-218178Y-9667D01*
X-218499Y-9466D01*
X-218637Y-9109D01*
X-219475Y-9036D01*
X-219200Y-9750D01*
X-218726Y-10136D01*
X-218238Y-10352D01*
X-217247Y-10611D01*
X-216241Y-10699D01*
X-215220Y-10616D01*
X-214520Y-10332D01*
X-214139Y-9847D01*
X-214109Y-9505D01*
X-214385Y-8791D01*
X-215011Y-8218D01*
X-217786Y-7113D01*
X-218259Y-6727D01*
X-218397Y-6370D01*
X-218199Y-6042D01*
X-217849Y-5900D01*
X-217163Y-5787D01*
X-216157Y-5875D01*
X-215166Y-6134D01*
X-214846Y-6335D01*
X-214708Y-6692D01*
X-213870Y-6766D01*
X-214145Y-6051D01*
X-214618Y-5665D01*
X-215106Y-5449D01*
X-216097Y-5190D01*
X-217103Y-5102D01*
X-218124Y-5185D01*
X-218825Y-5469D01*
X-219205Y-5953D01*
X-219235Y-6296D01*
G37*
G36*
G01X-209825Y-10743D02*
X-209352Y-11129D01*
X-208696Y-11359D01*
X-207691Y-11447D01*
X-207005Y-11334D01*
X-206654Y-11193D01*
X-206289Y-10880D01*
X-206091Y-10552D01*
X-206211Y-11921D01*
X-206439Y-12592D01*
X-206637Y-12920D01*
X-207185Y-13389D01*
X-207870Y-13502D01*
X-208876Y-13414D01*
X-209517Y-13013D01*
X-209807Y-12470D01*
X-209930Y-11942D01*
X-210768Y-11868D01*
X-210523Y-12925D01*
X-210065Y-13482D01*
X-209592Y-13869D01*
X-208936Y-14099D01*
X-207930Y-14187D01*
X-207244Y-14074D01*
X-206726Y-13947D01*
X-206193Y-13649D01*
X-205813Y-13164D01*
X-205373Y-11995D01*
X-204864Y-6173D01*
X-205702Y-6100D01*
X-205792Y-7127D01*
X-205930Y-6770D01*
X-206235Y-6398D01*
X-206555Y-6197D01*
X-207211Y-5968D01*
X-208217Y-5880D01*
X-208903Y-5992D01*
X-209435Y-6291D01*
X-209983Y-6760D01*
X-210181Y-7088D01*
X-210409Y-7758D01*
X-210529Y-9128D01*
X-210421Y-9828D01*
X-210283Y-10185D01*
X-209825Y-10743D01*
G37*
G36*
G01X-199115Y-8056D02*
X-199238Y-7528D01*
X-199543Y-7156D01*
X-200016Y-6770D01*
X-200504Y-6555D01*
X-201175Y-6496D01*
X-201861Y-6608D01*
X-202394Y-6907D01*
X-202759Y-7220D01*
X-202684Y-6364D01*
X-203522Y-6290D01*
X-204002Y-11770D01*
X-203163Y-11843D01*
X-202819Y-7905D01*
X-202454Y-7592D01*
X-201920Y-7293D01*
X-201235Y-7181D01*
X-200579Y-7410D01*
X-200259Y-7611D01*
X-199954Y-7983D01*
X-199861Y-8854D01*
X-200145Y-12107D01*
X-199307Y-12181D01*
X-199022Y-8927D01*
X-199115Y-8056D01*
G37*
G36*
G01X-212888Y-10992D02*
X-212050Y-11066D01*
X-211570Y-5586D01*
X-212409Y-5513D01*
X-212888Y-10992D01*
G37*
G36*
G01X-212259Y-3801D02*
X-211420Y-3874D01*
X-211346Y-3018D01*
X-212184Y-2944D01*
X-212259Y-3801D01*
G37*
G36*
G01X-244007Y2658D02*
G02X-238727Y-3635I-1943J-6992D01*
G01X-241064Y-3431D01*
G03X-241664Y-1821I-4885J-904D01*
G02X-242741Y-542I-980J268D01*
G03X-244212Y320I-3210J-3791D01*
G01X-244007Y2658D01*
G37*
G36*
G01X-246648Y2889D02*
G03X-252941Y-2392I699J-7223D01*
G01X-250604Y-2596D01*
G02X-249742Y-1125I4654J-1739D01*
G03X-248462Y-48I1011J97D01*
G02X-246853Y551I2512J-4286D01*
G01X-246648Y2889D01*
G37*
G36*
G01X-247687Y-8988D02*
G02X-249159Y-8127I1735J4655D01*
G03X-250236Y-6846I-97J1012D01*
G02X-250835Y-5237I4286J2512D01*
G01X-253172Y-5032D01*
G03X-247892Y-11326I7222J697D01*
G01X-247687Y-8988D01*
G37*
G36*
G01X-245047Y-9220D02*
G03X-243437Y-8620I-904J4886D01*
G02X-242157Y-7543I268J980D01*
G03X-241295Y-6071I-3793J3209D01*
G01X-238958Y-6276D01*
G02X-245251Y-11557I-6992J1942D01*
G01X-245047Y-9220D01*
G37*
G36*
G01X-247635Y-7664D02*
G03X-244859Y-7903I1685J3330D01*
G02X-242620Y-6020I1690J263D01*
G03X-242381Y-3243I-3330J1685D01*
G02X-244264Y-1005I-263J1690D01*
G03X-247041Y-765I-1687J-3329D01*
G02X-249279Y-2648I-1690J-263D01*
G03X-249519Y-5425I3329J-1687D01*
G02X-247635Y-7664I264J-1690D01*
G37*
G36*
G01X-253200Y20100D02*
G02I-4000J0D01*
G37*
G36*
G01X-27400Y96900D02*
G02I-4000J0D01*
G37*
G36*
G01X-243500Y382700D02*
G02I-4000J0D01*
G37*
%LPC*%
G75*
G36*
G01X-228184Y-4305D02*
X-228292Y-3606D01*
X-228582Y-3063D01*
X-229056Y-2676D01*
X-229711Y-2446D01*
X-232729Y-2182D01*
X-233254Y-8175D01*
X-230235Y-8440D01*
X-229550Y-8327D01*
X-229017Y-8029D01*
X-228637Y-7544D01*
X-228409Y-6874D01*
X-228184Y-4305D01*
G37*
G36*
G01X-221445Y-6448D02*
X-221735Y-5905D01*
X-222208Y-5518D01*
X-223199Y-5259D01*
X-223885Y-5371D01*
X-224235Y-5514D01*
X-224783Y-5983D01*
X-224981Y-6311D01*
X-224996Y-6482D01*
X-221475Y-6790D01*
X-221445Y-6448D01*
G37*
G36*
G01X-209415Y-9916D02*
X-208942Y-10302D01*
X-208286Y-10532D01*
X-207615Y-10591D01*
X-206930Y-10479D01*
X-206397Y-10180D01*
X-206017Y-9695D01*
X-205867Y-7983D01*
X-206157Y-7440D01*
X-206630Y-7054D01*
X-207286Y-6824D01*
X-208292Y-6736D01*
X-208993Y-7020D01*
X-209373Y-7504D01*
X-209585Y-8003D01*
X-209675Y-9031D01*
X-209552Y-9559D01*
X-209415Y-9916D01*
G37*
%LPD*%
G75*
G54D100*
X-142225Y40725D03*
X-145375D03*
X-143800D03*
X-142225Y43875D03*
Y42300D03*
X-145375Y43875D03*
X-143800D03*
X-145375Y42300D03*
X-143800D03*
G54D110*
X-79733Y313973D03*
G54D101*
X-230720Y147516D03*
Y145547D03*
Y149484D03*
Y151453D03*
X-208280Y147516D03*
Y145547D03*
Y149484D03*
Y151453D03*
G54D111*
X-197437Y46000D03*
X-189563D03*
G54D102*
X-228358Y141217D03*
Y155783D03*
X-224421Y141217D03*
X-226390D03*
X-224421Y155783D03*
X-226390D03*
X-222453Y141217D03*
Y155783D03*
X-220484Y141217D03*
Y155783D03*
X-216547Y141217D03*
X-218516D03*
X-216547Y155783D03*
X-218516D03*
X-214579Y141217D03*
Y155783D03*
X-212610Y141217D03*
Y155783D03*
X-210642Y141217D03*
Y155783D03*
G54D120*
X-185354Y113000D03*
G54D130*
X-198000Y357500D03*
G54D112*
X-182000Y43831D03*
Y35169D03*
G54D103*
X-219500Y148500D03*
G54D10*
X-345650Y65591D03*
G54D121*
X-189705Y113000D03*
G54D20*
X-368631Y116548D03*
G54D113*
X-221682Y35950D03*
X-210658D03*
G54D104*
X-46563Y304555D03*
Y286445D03*
X-50500Y304555D03*
X-48531D03*
X-50500Y286445D03*
X-48531D03*
X-52469Y304555D03*
Y286445D03*
X-54437Y304555D03*
Y286445D03*
G54D131*
X-170390Y360049D03*
X-166453D03*
X-168421D03*
X-164484D03*
X-162516D03*
X-158579D03*
X-160547D03*
X-156610D03*
X-170390Y341151D03*
X-168421D03*
X-166453D03*
X-164484D03*
X-162516D03*
X-160547D03*
X-158579D03*
X-156610D03*
G54D122*
X-189185Y125023D03*
Y139589D03*
G54D11*
X-343074Y72759D03*
X-320942Y50627D03*
G54D114*
X-204205Y44450D03*
X-211135D03*
G54D21*
X-393957Y264719D03*
X-268149Y958D03*
X-958Y125551D03*
X-98982Y380914D03*
G54D105*
X-219000Y92921D03*
Y83079D03*
G54D132*
X-172949Y357490D03*
X-154051D03*
X-172949Y355521D03*
X-154051D03*
X-172949Y353553D03*
X-154051Y351584D03*
Y353553D03*
X-172949Y351584D03*
Y349616D03*
X-154051D03*
X-172949Y347647D03*
X-154051D03*
X-172949Y345679D03*
X-154051Y343710D03*
Y345679D03*
X-172949Y343710D03*
G54D30*
X-330700Y147600D03*
X-354330Y196900D03*
X-330700Y246070D03*
X-177150Y147620D03*
Y246100D03*
X-39370Y147620D03*
Y246058D03*
G54D123*
X-98598Y87000D03*
X-73402D03*
G54D12*
X-334792Y64477D03*
X-329224Y58909D03*
G54D40*
X-364685Y296315D03*
X-362515Y298485D03*
X-304244Y52034D03*
X-302074Y54204D03*
X-298224Y57663D03*
X-296054Y59833D03*
X-298741Y62534D03*
X-300911Y60364D03*
G54D133*
X-163500Y350600D03*
G54D124*
X-143800Y276900D03*
G54D106*
X-247142Y79949D03*
Y86051D03*
X-239858Y79949D03*
Y86051D03*
G54D31*
X-354330Y188534D03*
Y205266D03*
G54D13*
X-336184Y318924D03*
X-318924Y336184D03*
G54D115*
X-60088Y314794D03*
X-52998Y314824D03*
X-60088Y316566D03*
X-52998Y316596D03*
G54D22*
X-350089Y62959D03*
X-330742Y43612D03*
X-273750Y359775D03*
X-281406Y367431D03*
X-280513Y362100D03*
X-62959Y43611D03*
X-43612Y62958D03*
X-269687Y362100D03*
G54D23*
X-360000Y232914D03*
Y234686D03*
X-291500Y243614D03*
Y245386D03*
X-294600Y239886D03*
Y238114D03*
X-295400Y217114D03*
Y218886D03*
X-277500Y127614D03*
Y129386D03*
X-286100Y207014D03*
Y208786D03*
X-280100Y134186D03*
Y132414D03*
X-276800Y134186D03*
Y132414D03*
X-277700Y221886D03*
Y220114D03*
Y215714D03*
Y217486D03*
Y224514D03*
Y226286D03*
X-283000Y208786D03*
Y207014D03*
X-282500Y112000D03*
Y113772D03*
X-369500Y139614D03*
Y141386D03*
X-380000Y139614D03*
Y141386D03*
X-376500Y139614D03*
Y141386D03*
X-373000Y139614D03*
Y141386D03*
X-298500Y154386D03*
Y152614D03*
Y148886D03*
Y147114D03*
X-363300Y234686D03*
Y232914D03*
Y238986D03*
Y237214D03*
X-375300Y240586D03*
Y238814D03*
X-378700Y240586D03*
Y238814D03*
X-367000Y240114D03*
Y241886D03*
X-289000Y208786D03*
Y207014D03*
X-295500Y213886D03*
Y212114D03*
X-308594Y213967D03*
Y215739D03*
X-290694Y233167D03*
Y234939D03*
Y239939D03*
Y238167D03*
X-284394Y246467D03*
Y248239D03*
X-294994Y245439D03*
Y243667D03*
X-283700Y240214D03*
Y241986D03*
X-280400Y240214D03*
Y241986D03*
X-294500Y234886D03*
Y233114D03*
X-298694Y233167D03*
Y234939D03*
X-302694Y233167D03*
Y234939D03*
X-302000Y238614D03*
Y240386D03*
X-311500Y239014D03*
Y240786D03*
X-277200Y238614D03*
Y240386D03*
X-360400Y262286D03*
Y260514D03*
X-298194Y243667D03*
Y245439D03*
X-280194Y272039D03*
Y270267D03*
X-294000Y364686D03*
Y362914D03*
X-297300Y364686D03*
Y362914D03*
X-290700D03*
Y364686D03*
X-288000Y368114D03*
Y369886D03*
X-269757Y91859D03*
X-188000Y52614D03*
Y54386D03*
X-168600Y56400D03*
Y54628D03*
X-143800Y31814D03*
Y33586D03*
X-147100Y31714D03*
Y33486D03*
X-274000Y127614D03*
Y129386D03*
X-269900Y134186D03*
Y132414D03*
X-273400Y134186D03*
Y132414D03*
X-273700Y221886D03*
Y220114D03*
Y215714D03*
Y217486D03*
Y224514D03*
Y226286D03*
X-98200Y247214D03*
Y248986D03*
X-189185Y135220D03*
Y136992D03*
Y129392D03*
Y127620D03*
X-269757Y93631D03*
X-266000Y130386D03*
Y128614D03*
X-254500Y133886D03*
Y132114D03*
X-257500Y133886D03*
Y132114D03*
X-251500Y133886D03*
Y132114D03*
X-258000Y88114D03*
Y89886D03*
X-261000Y88114D03*
Y89886D03*
X-264000Y88114D03*
Y89886D03*
X-262500Y50886D03*
Y49114D03*
X-182000Y30886D03*
Y29114D03*
X-232000Y79614D03*
Y81386D03*
Y83614D03*
Y85386D03*
X-220500Y106386D03*
Y104614D03*
X-227500Y83614D03*
Y85386D03*
X-235000Y83614D03*
Y85386D03*
X-217600Y116386D03*
Y114614D03*
X-115500Y305386D03*
Y303614D03*
X-251500Y50614D03*
Y52386D03*
X-254500Y50614D03*
Y52386D03*
X-266500Y125886D03*
Y124114D03*
X-226500Y108714D03*
Y110486D03*
Y106386D03*
Y104614D03*
X-248000Y127614D03*
Y129386D03*
X-214500Y114114D03*
Y115886D03*
X-223500Y104614D03*
Y106386D03*
X-226000Y88114D03*
Y89886D03*
Y93886D03*
Y92114D03*
X-121500Y306614D03*
Y308386D03*
X-171500Y54614D03*
Y56386D03*
X-174500Y54614D03*
Y56386D03*
X-195500Y54114D03*
Y55886D03*
X-192500Y54114D03*
Y55886D03*
X-198500Y54114D03*
Y55886D03*
X-256000Y152114D03*
Y153886D03*
X-121500Y312386D03*
Y310614D03*
X-112500Y312386D03*
Y310614D03*
X-115500D03*
Y312386D03*
X-124500D03*
Y310614D03*
X-50000Y278614D03*
Y280386D03*
X-53000Y278614D03*
Y280386D03*
X-56000Y278614D03*
Y280386D03*
X-77700Y257486D03*
Y255714D03*
X-88700Y231714D03*
Y233486D03*
X-81700Y255714D03*
Y257486D03*
X-101700D03*
Y255714D03*
X-103000Y242114D03*
Y243886D03*
X-96700Y233486D03*
Y231714D03*
X-120700Y198714D03*
Y200486D03*
X-100700Y233486D03*
Y231714D03*
X-79200Y244214D03*
Y245986D03*
X-113000Y232386D03*
Y230614D03*
X-73000Y165114D03*
Y166886D03*
X-76000Y165114D03*
Y166886D03*
X-86000D03*
Y165114D03*
X-83000Y160114D03*
Y161886D03*
X-73000Y160114D03*
Y161886D03*
X-76000Y160114D03*
Y161886D03*
X-83000Y166886D03*
Y165114D03*
X-66000Y107114D03*
Y108886D03*
X-74500Y109386D03*
Y107614D03*
X-59700Y113614D03*
Y115386D03*
X-250000Y206886D03*
Y205114D03*
X-247000Y206886D03*
Y205114D03*
X-92700Y233486D03*
Y231714D03*
X-100700Y237214D03*
Y238986D03*
X-97700Y257486D03*
Y255714D03*
X-104700Y237214D03*
Y238986D03*
Y231714D03*
Y233486D03*
X-108700Y237214D03*
Y238986D03*
X-83200Y244214D03*
Y245986D03*
X-96918Y238986D03*
Y237214D03*
X-85700Y257486D03*
Y255714D03*
X-89700Y257486D03*
Y255714D03*
X-93700Y257486D03*
Y255714D03*
X-106800Y243986D03*
Y242214D03*
X-83700Y233486D03*
Y231714D03*
X-71200Y245986D03*
Y244214D03*
X-75200D03*
Y245986D03*
X-83700Y237214D03*
Y238986D03*
X-105700Y257486D03*
Y255714D03*
X-65700D03*
Y257486D03*
X-109700D03*
Y255714D03*
X-69700D03*
Y257486D03*
X-73700Y255714D03*
Y257486D03*
X-113700Y255714D03*
Y257486D03*
X-103900Y222214D03*
Y223986D03*
X-256000Y158386D03*
Y156614D03*
X-243500Y156728D03*
Y158500D03*
X-270000Y159614D03*
Y161386D03*
X-63000Y108886D03*
Y107114D03*
X-57000Y113614D03*
Y115386D03*
X-54000Y113614D03*
Y115386D03*
X-172000Y119386D03*
Y117614D03*
X-178500Y119386D03*
Y117614D03*
X-175500Y119386D03*
Y117614D03*
X-194000Y76614D03*
Y78386D03*
X-118500Y312386D03*
Y310614D03*
X-259600Y233986D03*
Y232214D03*
X-234000Y193014D03*
Y194786D03*
X-237400Y188614D03*
Y190386D03*
X-209100Y188014D03*
Y189786D03*
X-212500Y189886D03*
Y188114D03*
Y194286D03*
Y192514D03*
X-268194Y200167D03*
Y201939D03*
X-211894Y200239D03*
Y198467D03*
X-217694Y195439D03*
Y193667D03*
X-257500Y210386D03*
Y208614D03*
X-204600Y183714D03*
Y185486D03*
X-240900Y190386D03*
Y188614D03*
X-234000D03*
Y190386D03*
X-270394Y216439D03*
Y214667D03*
X-225100Y195386D03*
Y193614D03*
X-240000Y247986D03*
Y246214D03*
X-207594Y242767D03*
Y244539D03*
X-221694Y193667D03*
Y195439D03*
X-245594Y312567D03*
Y314339D03*
X-249294D03*
Y312567D03*
X-213194Y210939D03*
Y209167D03*
X-242594Y201439D03*
Y199667D03*
X-157700Y61014D03*
Y62786D03*
X-208694Y200439D03*
Y198667D03*
X-204694Y213439D03*
Y211667D03*
X-209194Y213439D03*
Y211667D03*
X-199494Y292367D03*
Y294139D03*
X-176594Y284067D03*
Y285839D03*
X-182994Y297867D03*
Y299639D03*
X-196594Y284067D03*
Y285839D03*
X-175494Y297767D03*
Y299539D03*
X-188994Y297867D03*
Y299639D03*
X-267394Y285567D03*
Y287339D03*
X-243894Y294567D03*
Y296339D03*
Y292339D03*
Y290567D03*
X-200194Y213439D03*
Y211667D03*
X-233694Y257867D03*
Y259639D03*
X-241194Y257867D03*
Y259639D03*
X-248194Y242267D03*
Y244039D03*
X-213494Y259839D03*
Y258067D03*
X-252694Y257867D03*
Y259639D03*
X-223194Y257867D03*
Y259639D03*
X-245394Y242267D03*
Y244039D03*
X-251094Y242267D03*
Y244039D03*
X-242594Y242267D03*
Y244039D03*
X-241000Y237814D03*
Y239586D03*
X-237300Y236386D03*
Y234614D03*
X-231200Y238114D03*
Y239886D03*
X-228400Y238114D03*
Y239886D03*
X-225600Y238114D03*
Y239886D03*
X-222800Y238114D03*
Y239886D03*
X-243800Y237814D03*
Y239586D03*
X-238523Y200445D03*
Y202217D03*
X-234723Y200445D03*
Y202217D03*
X-229900Y235286D03*
Y233514D03*
X-195694Y213439D03*
Y211667D03*
X-209194Y229667D03*
Y231439D03*
X-200194Y229667D03*
Y231439D03*
X-204694Y229667D03*
Y231439D03*
X-195694Y229667D03*
Y231439D03*
X-223723Y217817D03*
Y216045D03*
X-226700Y209086D03*
Y207314D03*
X-250000Y239586D03*
Y237814D03*
X-246823Y239617D03*
Y237845D03*
X-219500Y239886D03*
Y238114D03*
X-253900Y217314D03*
Y219086D03*
X-253600Y203714D03*
Y205486D03*
X-253594Y208567D03*
Y210339D03*
X-265394Y211667D03*
Y213439D03*
Y207667D03*
Y209439D03*
X-259694Y238439D03*
Y236667D03*
X-240100Y214014D03*
Y215786D03*
X-219594Y207839D03*
Y206067D03*
X-220094Y227267D03*
Y229039D03*
X-223494Y227267D03*
Y229039D03*
X-219694Y222267D03*
Y224039D03*
X-219594Y216167D03*
Y217939D03*
X-223794Y232767D03*
Y234539D03*
X-219594Y211067D03*
Y212839D03*
X-223494Y224139D03*
Y222367D03*
X-230923Y200445D03*
Y202217D03*
X-227123Y200445D03*
Y202217D03*
X-223323Y202117D03*
Y200345D03*
X-219494Y202139D03*
Y200367D03*
X-215694Y202139D03*
Y200367D03*
X-248594Y285167D03*
Y286939D03*
X-186994Y315167D03*
X-257894Y314339D03*
Y312567D03*
X-263394Y314339D03*
Y312567D03*
X-262394Y287439D03*
Y285667D03*
X-184794Y290567D03*
Y292339D03*
X-229600Y230686D03*
Y228914D03*
X-229200Y226686D03*
Y224914D03*
X-229300Y222186D03*
Y220414D03*
X-226900Y235286D03*
Y233514D03*
X-223423Y213317D03*
Y211545D03*
Y209117D03*
Y207345D03*
X-253594Y214339D03*
Y212567D03*
X-226700Y230686D03*
Y228914D03*
X-226300Y226686D03*
Y224914D03*
X-226500Y222186D03*
Y220414D03*
X-226623Y217717D03*
Y215945D03*
Y213317D03*
Y211545D03*
X-229523Y217717D03*
Y215945D03*
Y213317D03*
Y211545D03*
Y209117D03*
Y207345D03*
X-215000Y352886D03*
Y351114D03*
X-181500Y354614D03*
Y356386D03*
X-115500Y368386D03*
Y366614D03*
X-112700Y368386D03*
Y366614D03*
X-177000Y358886D03*
Y357114D03*
X-120900Y358114D03*
Y359886D03*
X-103300Y357914D03*
Y359686D03*
X-119500Y362414D03*
Y364186D03*
X-116700D03*
Y362414D03*
X-149500Y354886D03*
Y353114D03*
X-142900Y355914D03*
Y357686D03*
X-118000Y358114D03*
Y359886D03*
X-116300Y373614D03*
Y375386D03*
X-113900Y364186D03*
Y362414D03*
X-106500Y359886D03*
Y358114D03*
X-109500D03*
Y359886D03*
X-112300Y358114D03*
Y359886D03*
X-115200Y358114D03*
Y359886D03*
X-118400Y368386D03*
Y366614D03*
X-149500Y359886D03*
Y358114D03*
X-103300Y361814D03*
Y363586D03*
X-106100Y362514D03*
Y364286D03*
X-92000Y358686D03*
Y356914D03*
X-143000Y348614D03*
Y350386D03*
X-140000Y348614D03*
Y350386D03*
X-146100Y357686D03*
Y355914D03*
X-171994Y318939D03*
Y317167D03*
X-175694Y318939D03*
Y317167D03*
X-181500Y364386D03*
Y362614D03*
Y350614D03*
Y352386D03*
X-218000Y356886D03*
Y355114D03*
X-181500Y358614D03*
Y360386D03*
Y346614D03*
Y348386D03*
X-178500Y352386D03*
Y350614D03*
X-218000Y352886D03*
Y351114D03*
X-187000Y345386D03*
Y343614D03*
X-232194Y318167D03*
Y319939D03*
X-215000Y355114D03*
Y356886D03*
X-172094Y323249D03*
Y321477D03*
X-186994Y316939D03*
X-226500Y330614D03*
Y332386D03*
X-236000Y330614D03*
Y332386D03*
X-251394Y319467D03*
Y321239D03*
X-259000Y322386D03*
Y320614D03*
X-209500Y344886D03*
Y343114D03*
X-251500Y327886D03*
Y326114D03*
X-188594Y324767D03*
Y326539D03*
X-232194Y323167D03*
Y324939D03*
X-240194Y324439D03*
Y322667D03*
G54D107*
X-257896Y40325D03*
Y43475D03*
Y41900D03*
X-251104Y40325D03*
Y41900D03*
Y43475D03*
G54D116*
X-57332Y315680D03*
X-50242Y315710D03*
G36*
G01X-320522Y52995D02*
G03X-323310Y50207I-1394J-1394D01*
G01X-323034Y49931D01*
X-325677Y47289D01*
G03X-322609Y44221I1534J-1534D01*
G01X-318712Y48118D01*
G03X-318642Y48192I-1543J1524D01*
G03X-318573Y51046I-1325J1460D01*
G01X-320522Y52995D01*
G37*
G54D50*
X-288788Y54385D03*
X-285308Y50905D03*
G54D32*
X-280400Y221300D03*
X-284200Y42200D03*
X-289600Y215200D03*
X-363500Y230300D03*
X-360300Y230400D03*
X-360200Y190600D03*
X-361400Y187000D03*
X-363700Y183000D03*
X-359500Y182900D03*
X-364000Y178500D03*
X-359500Y178700D03*
X-359800Y169700D03*
X-289700Y212400D03*
X-290700Y222700D03*
X-290900Y219500D03*
X-279500Y185500D03*
X-308441Y169501D03*
X-276000Y185500D03*
X-280700Y232300D03*
X-284100Y252200D03*
X-286500Y185500D03*
X-283000D03*
X-280000Y121500D03*
X-278500Y112000D03*
X-280200Y216300D03*
X-286300Y241200D03*
X-299007Y83155D03*
X-306440Y104714D03*
X-284000Y204600D03*
X-302007Y89371D03*
X-364120Y170080D03*
X-275194Y247353D03*
X-300572Y96672D03*
X-304787Y93783D03*
X-305743Y99195D03*
X-278500Y117000D03*
X-280500Y126000D03*
X-263600Y240900D03*
X-270000Y221600D03*
X-269900Y218800D03*
X-258100Y188200D03*
X-254900Y189800D03*
X-270300Y181300D03*
X-274600Y181600D03*
X-266700Y196600D03*
X-269300Y197500D03*
X-265500Y205100D03*
X-265400Y201300D03*
X-258300Y199500D03*
X-256300Y197400D03*
X-266600Y188600D03*
X-263100Y188100D03*
X-233100Y128100D03*
X-229300Y128000D03*
X-178600Y159500D03*
X-188000Y163500D03*
X-186000Y159400D03*
X-204200Y199300D03*
X-190000Y160000D03*
X-182600Y162900D03*
X-199400Y187300D03*
X-266498Y242813D03*
X-119800Y302700D03*
X-177000Y165100D03*
X-193000Y163500D03*
X-253700Y76500D03*
X-223600Y127000D03*
X-252800Y137300D03*
X-262700Y132800D03*
X-243700Y137900D03*
X-218800Y127000D03*
X-248500Y137500D03*
X-213200Y126700D03*
X-257200Y136700D03*
X-252298Y128238D03*
X-262600Y127900D03*
X-247500Y74700D03*
X-213900Y96800D03*
Y100900D03*
X-271100Y244600D03*
X-262000Y43000D03*
X-245500Y38500D03*
Y43500D03*
X-226600Y114100D03*
X-223450Y118000D03*
X-240400Y128400D03*
X-236500Y128200D03*
X-209194Y248053D03*
X-259591Y243710D03*
X-256600Y245500D03*
X-211694Y244553D03*
X-256210Y240290D03*
X-244894Y249053D03*
X-265400Y246600D03*
X-102100Y312200D03*
X-97300Y312300D03*
X-106700Y306500D03*
X-97200Y308500D03*
X-107000Y312100D03*
X-102100Y306600D03*
X-112000Y305700D03*
X-118500Y307000D03*
X-209500Y192700D03*
X-218900Y191300D03*
X-228200Y194000D03*
X-215400Y189700D03*
X-253800Y81900D03*
X-251100Y74000D03*
X-256900Y79600D03*
X-234000Y90000D03*
X-257900Y128200D03*
X-254500Y34000D03*
X-259000Y33500D03*
X-139600Y352600D03*
X-140600Y329400D03*
X-88200Y323900D03*
X-152000Y334700D03*
X-84100Y325600D03*
X-86900Y319600D03*
X-83300Y321500D03*
X-93100Y329800D03*
X-88200Y329700D03*
X-93000Y326500D03*
X-140100Y356400D03*
G54D134*
G01X-335700Y-288900D02*
Y-278900D01*
X-331700D01*
X-330100Y-279400D01*
X-328900Y-280067D01*
X-327900Y-281067D01*
X-327100Y-282234D01*
X-326900Y-283900D01*
X-327100Y-285567D01*
X-327900Y-286733D01*
X-328900Y-287734D01*
X-330100Y-288400D01*
X-331700Y-288900D01*
X-335700D01*
G01X-322200Y-284400D02*
X-315800D01*
X-316400Y-283233D01*
X-317400Y-282567D01*
X-318800Y-282234D01*
X-320200Y-282400D01*
X-321400Y-282900D01*
X-322200Y-284067D01*
X-322600Y-285067D01*
Y-286067D01*
X-322200Y-287067D01*
X-321200Y-288067D01*
X-320000Y-288733D01*
X-318600Y-288900D01*
X-317200Y-288567D01*
X-315800Y-287567D01*
G01X-310100Y-287734D02*
X-309100Y-288400D01*
X-307700Y-288900D01*
X-306500D01*
X-305300Y-288567D01*
X-304500Y-288067D01*
X-304100Y-287400D01*
X-304300Y-286400D01*
X-305100Y-285900D01*
X-308700Y-284900D01*
X-309500Y-283733D01*
X-309100Y-282900D01*
X-308300Y-282400D01*
X-307100Y-282234D01*
X-305900Y-282400D01*
X-304700Y-282900D01*
G01X-295000Y-282234D02*
Y-288900D01*
G01Y-279567D02*
X-295400Y-279400D01*
Y-279067D01*
X-295000Y-278900D01*
X-294600Y-279067D01*
Y-279400D01*
X-295000Y-279567D01*
G01X-285700Y-291400D02*
X-284300Y-292067D01*
X-282700Y-292233D01*
X-281300Y-292067D01*
X-280100Y-291233D01*
X-279300Y-290067D01*
Y-282234D01*
G01Y-283567D02*
X-280100Y-282900D01*
X-281300Y-282400D01*
X-282700Y-282234D01*
X-284300Y-282567D01*
X-285300Y-283233D01*
X-286100Y-284400D01*
X-286500Y-285567D01*
X-286300Y-286567D01*
X-285500Y-287734D01*
X-284300Y-288567D01*
X-282700Y-288900D01*
X-281500Y-288733D01*
X-280100Y-288067D01*
X-279300Y-287400D01*
G01X-274200Y-288900D02*
Y-282234D01*
G01Y-283900D02*
X-273400Y-283067D01*
X-272200Y-282400D01*
X-270600Y-282234D01*
X-269200Y-282400D01*
X-268000Y-283067D01*
X-267400Y-284233D01*
Y-288900D01*
G01X-250800Y-287567D02*
X-249200Y-288400D01*
X-247400Y-288900D01*
X-245800D01*
X-244200Y-288400D01*
X-243000Y-287567D01*
X-242400Y-286400D01*
X-242800Y-285234D01*
X-243800Y-284233D01*
X-245600Y-283567D01*
X-248000Y-283233D01*
X-249400Y-282567D01*
X-250000Y-281400D01*
X-249600Y-280233D01*
X-248600Y-279400D01*
X-247200Y-278900D01*
X-245800D01*
X-244400Y-279233D01*
X-243200Y-280067D01*
G01X-238700Y-288900D02*
Y-278900D01*
G01X-230300D02*
Y-288900D01*
G01Y-283900D02*
X-238700D01*
G01X-224800Y-278900D02*
X-220000D01*
G01X-222400D02*
Y-288900D01*
G01X-224800D02*
X-220000D01*
G01X-214100D02*
Y-278900D01*
X-206500D01*
G01X-209300Y-283733D02*
X-214100D01*
G01X-198200Y-278900D02*
Y-288900D01*
G01X-202800Y-278900D02*
X-193600D01*
X-128311Y325657D03*
Y323689D03*
Y329594D03*
Y327626D03*
Y333531D03*
Y331563D03*
Y337469D03*
Y335500D03*
Y341406D03*
Y339437D03*
Y345343D03*
Y343374D03*
Y347311D03*
X-124374Y323689D03*
X-126343D03*
Y325657D03*
X-124374D03*
X-126343Y329594D03*
Y327626D03*
Y333531D03*
Y331563D03*
Y337469D03*
Y335500D03*
Y341406D03*
Y339437D03*
Y345343D03*
X-124374D03*
X-126343Y343374D03*
X-124374Y347311D03*
X-126343D03*
X-120437Y323689D03*
X-122406D03*
Y325657D03*
X-120437D03*
Y329594D03*
X-122406D03*
Y331563D03*
Y333531D03*
X-120437D03*
Y331563D03*
X-122406Y335500D03*
Y337469D03*
X-120437D03*
Y335500D03*
X-122406Y339437D03*
X-120437Y341406D03*
X-122406D03*
X-120437Y339437D03*
X-122406Y345343D03*
X-120437D03*
Y347311D03*
X-122406D03*
X-116500Y323689D03*
X-118469D03*
Y325657D03*
X-116500D03*
X-114531D03*
Y323689D03*
X-116500Y329594D03*
X-118469D03*
X-114531D03*
X-118469Y331563D03*
X-116500D03*
X-114531D03*
X-116500Y341406D03*
X-118469D03*
X-114531D03*
X-118469Y339437D03*
X-116500D03*
X-114531D03*
X-118469Y345343D03*
X-116500D03*
X-114531D03*
X-116500Y347311D03*
X-118469D03*
X-114531D03*
X-112563Y323689D03*
Y325657D03*
X-110594D03*
Y323689D03*
X-112563Y329594D03*
X-110594D03*
X-112563Y333531D03*
X-110594D03*
X-112563Y331563D03*
X-110594D03*
X-112563Y337469D03*
X-110594D03*
X-112563Y335500D03*
X-110594D03*
X-112563Y341406D03*
X-110594D03*
X-112563Y339437D03*
X-110594D03*
X-112563Y345343D03*
X-110594D03*
X-112563Y347311D03*
X-110594D03*
X-108626Y323689D03*
Y325657D03*
X-106657D03*
Y323689D03*
Y329594D03*
Y327626D03*
Y333531D03*
Y331563D03*
Y337469D03*
Y335500D03*
Y341406D03*
Y339437D03*
X-108626Y345343D03*
X-106657D03*
Y343374D03*
X-108626Y347311D03*
X-106657D03*
X-104689Y323689D03*
Y325657D03*
Y327626D03*
Y329594D03*
Y331563D03*
Y333531D03*
Y335500D03*
Y337469D03*
Y339437D03*
Y341406D03*
Y343374D03*
Y345343D03*
Y347311D03*
G54D125*
X-51531Y352470D03*
X-41230Y342169D03*
G54D41*
X-352272Y289572D03*
X-355100Y298057D03*
X-360757Y292400D03*
X-298228Y45128D03*
X-295400Y36643D03*
X-289743Y42300D03*
X-294972Y340372D03*
X-297800Y348857D03*
X-303457Y343200D03*
G54D135*
G01X-79200Y-264100D02*
X-353200D01*
G03X-358200Y-269100I0J-5000D01*
G01Y-338100D01*
G03X-353200Y-343100I4375J-625D01*
G01X16300D01*
G01X27800Y-261100D02*
X-353200D01*
G03X-361200Y-269100I-1000J-7000D01*
G01Y-341100D01*
G03X-354200Y-346100I6667J1934D01*
G01X14300D01*
G01X-70200Y-306100D02*
X-20200D01*
G01X-70200Y-264100D02*
Y-322100D01*
G01X-140200Y-288100D02*
X-20200D01*
G01X-140200Y-322100D02*
X-20200D01*
G01X-140200Y-264100D02*
Y-343100D01*
G01X-20200Y-264100D02*
Y-343100D01*
G01X15300D02*
X28000D01*
G03X32800Y-339100I32J4842D01*
G01Y-269100D01*
G03X27800Y-264100I-6500J-1500D01*
G01X15300D01*
G01X13800Y-346100D02*
X28000D01*
G03X35800Y-339100I339J7468D01*
G01Y-270100D01*
G03X27800Y-261100I-8500J500D01*
G01X15800Y-264100D02*
X-79200D01*
G54D24*
X-287386Y193000D03*
X-285614D03*
X-282086Y193100D03*
X-280314D03*
X-284114Y117000D03*
X-285886D03*
X-284114Y120500D03*
X-285886D03*
X-289386Y226700D03*
X-287614D03*
X-298086Y227900D03*
X-296314D03*
X-280086Y205400D03*
X-278314D03*
X-280086Y208700D03*
X-278314D03*
X-376114Y235000D03*
X-377886D03*
X-297886Y175500D03*
X-296114D03*
X-359114Y176000D03*
X-360886D03*
X-293814Y189600D03*
X-295586D03*
X-276886Y189000D03*
X-276905Y192895D03*
X-285614Y189000D03*
X-287386D03*
X-280614D03*
X-298614Y216800D03*
X-300386D03*
X-298614Y212500D03*
X-300386D03*
X-282386Y197500D03*
X-280614D03*
X-287386D03*
X-285614D03*
X-309386Y224500D03*
X-307614D03*
X-307638Y197001D03*
X-305866D03*
X-307686Y187400D03*
X-305914D03*
X-286886Y152500D03*
X-285114D03*
X-307638Y190701D03*
X-305866D03*
X-307638Y193701D03*
X-305866D03*
X-277886Y149500D03*
X-370414Y240100D03*
X-372186D03*
X-277886Y152500D03*
X-296586Y164000D03*
X-294814D03*
X-306866Y163501D03*
X-308638D03*
X-298086Y221500D03*
X-296314D03*
X-303114Y221200D03*
X-304886D03*
Y224500D03*
X-303114D03*
X-301308Y244553D03*
X-303080D03*
X-306808Y232553D03*
X-308580D03*
X-278808Y261953D03*
X-280580D03*
Y254053D03*
X-278808D03*
X-280580Y250053D03*
X-278808D03*
X-306808Y244823D03*
X-308580D03*
X-309386Y222000D03*
X-307614D03*
X-285280Y267153D03*
X-283508D03*
X-280080Y267053D03*
X-278308D03*
X-284980Y271053D03*
X-283208D03*
X-280580Y258053D03*
X-278808D03*
Y246053D03*
X-280580D03*
X-292014Y230000D03*
X-293786D03*
X-282386Y189000D03*
X-289386Y230000D03*
X-287614D03*
X-296314Y224800D03*
X-298086D03*
X-309386Y219500D03*
X-307614D03*
X-306814Y237200D03*
X-308586D03*
X-306808Y240553D03*
X-308580D03*
X-283580Y295753D03*
X-281808D03*
X-283080Y313053D03*
X-281308D03*
X-279080Y290053D03*
X-277308D03*
X-283408Y234853D03*
X-285180D03*
X-283408Y237353D03*
X-285180D03*
X-283208Y222653D03*
X-284980D03*
X-283208Y220053D03*
X-284980D03*
X-282614Y215200D03*
X-284386D03*
X-283408Y232353D03*
X-285180D03*
X-280086Y211900D03*
X-278314D03*
X-284386Y212400D03*
X-282614D03*
X-285180Y229853D03*
X-283408D03*
Y226353D03*
X-285180D03*
X-277080Y304253D03*
X-156616Y5540D03*
X-154844D03*
X-273614Y105000D03*
X-275386D03*
X-271486Y240200D03*
X-269714D03*
X-218614Y46000D03*
X-220386D03*
X-218614Y42500D03*
X-220386D03*
X-274186Y236700D03*
X-272414D03*
X-269886Y233300D03*
X-268114D03*
X-273814Y212000D03*
X-275586D03*
X-273914Y205400D03*
X-275686D03*
X-275586Y208700D03*
X-273814D03*
X-74386Y183500D03*
X-72614D03*
X-180886Y50000D03*
X-179114D03*
X-185386D03*
X-183614D03*
X-185386Y53000D03*
X-183614D03*
X-180886D03*
X-179114D03*
X-180886Y56000D03*
X-179114D03*
X-183614D03*
X-185386D03*
X-176886Y50000D03*
X-175114D03*
X-275386Y124500D03*
X-273614D03*
X-267886Y108500D03*
X-266114D03*
X-239114Y137500D03*
X-240886D03*
X-233686Y136800D03*
X-231914D03*
X-219914Y123800D03*
X-221686D03*
X-224114D03*
X-225886D03*
X-215514Y123700D03*
X-217286D03*
X-273614Y109000D03*
X-275386D03*
X-266114Y112500D03*
X-267886D03*
X-273614Y113000D03*
X-275386D03*
X-266114Y116500D03*
X-267886D03*
X-273614Y117000D03*
X-275386D03*
X-266886Y97500D03*
X-265114D03*
X-266886Y94500D03*
X-265114D03*
X-266386Y38500D03*
X-264614D03*
X-243114Y128500D03*
X-244886D03*
X-273614Y121000D03*
X-275386D03*
X-263886Y191100D03*
X-262114D03*
X-263886Y193900D03*
X-262114D03*
X-263886Y185400D03*
X-262114D03*
X-263886Y182600D03*
X-262114D03*
X-258114Y191100D03*
X-259886D03*
X-258114Y193900D03*
X-259886D03*
X-258214Y185400D03*
X-259986D03*
X-258214Y182600D03*
X-259986D03*
X-275114Y189000D03*
X-271886D03*
X-270114D03*
X-275133Y192895D03*
X-270114Y193000D03*
X-271886D03*
X-67886Y263000D03*
X-66114D03*
X-260114Y206000D03*
X-261886D03*
X-260114Y203000D03*
X-261886D03*
X-264614Y42000D03*
X-266386D03*
X-264614Y45000D03*
X-266386D03*
X-160786Y21300D03*
X-159014D03*
X-242386Y89500D03*
X-240614D03*
X-246886D03*
X-245114D03*
X-183386Y74800D03*
X-181614D03*
X-185614D03*
X-187386D03*
X-171886Y75000D03*
X-170114D03*
X-174114D03*
X-175886D03*
X-198386Y77000D03*
X-196614D03*
X-274186Y233300D03*
X-272414D03*
Y229900D03*
X-274186D03*
X-270386Y149500D03*
X-268614D03*
Y152500D03*
X-270386D03*
X-276114Y149500D03*
X-136886Y309000D03*
X-135114D03*
X-88114Y226600D03*
X-89886D03*
X-77814Y218100D03*
X-79586D03*
X-120314Y195100D03*
X-122086D03*
X-90086Y222100D03*
X-88314D03*
X-82814Y226600D03*
X-84586D03*
X-112314Y252100D03*
X-114086D03*
X-112314Y236100D03*
X-114086D03*
X-107314Y220100D03*
X-109086D03*
X-107314Y224100D03*
X-109086D03*
X-51614Y142500D03*
X-53386D03*
X-80386Y160500D03*
X-78614D03*
X-189114Y104000D03*
X-190886D03*
X-64114Y113500D03*
X-65886D03*
X-56614Y142500D03*
X-58386D03*
X-56614Y139000D03*
X-58386D03*
X-51614D03*
X-53386D03*
X-68114Y140600D03*
X-69886D03*
X-84114Y151500D03*
X-85886D03*
X-79586Y226600D03*
X-77814D03*
X-79586Y222100D03*
X-77814D03*
X-82814D03*
X-84586D03*
X-79586Y230600D03*
X-77814D03*
X-112314Y248100D03*
X-114086D03*
X-79586Y234300D03*
X-77814D03*
X-111386Y228000D03*
X-109614D03*
X-114086Y224100D03*
X-112314D03*
Y244100D03*
X-114086D03*
X-112314Y240600D03*
X-114086D03*
Y220100D03*
X-112314D03*
X-60914Y262900D03*
X-62686D03*
X-72114Y226900D03*
X-73886D03*
X-71514Y238400D03*
X-73286D03*
X-59114Y250000D03*
X-60886D03*
X-104486Y228000D03*
X-102714D03*
X-72114Y230600D03*
X-73886D03*
X-72114Y234700D03*
X-73886D03*
X-94786Y226600D03*
X-93014D03*
X-97914Y226400D03*
X-99686D03*
X-70886Y177500D03*
X-69114D03*
X-71386Y180000D03*
X-69614D03*
X-74886Y177500D03*
X-73114D03*
Y180000D03*
X-74886D03*
X-80386Y163500D03*
X-78614D03*
X-93586Y237700D03*
X-91814D03*
X-104086Y217600D03*
X-102314D03*
X-77814Y238600D03*
X-79586D03*
X-103714Y248200D03*
X-105486D03*
X-93814Y222100D03*
X-95586D03*
X-100486D03*
X-98714D03*
X-276114Y152500D03*
X-248886Y148000D03*
X-247114D03*
X-78614Y166500D03*
X-80386D03*
X-268614Y155500D03*
X-270386D03*
X-77114Y144500D03*
X-78886D03*
X-164414Y219500D03*
X-166186D03*
X-164314Y210300D03*
X-166086D03*
X-164314Y216300D03*
X-166086D03*
X-164314Y222800D03*
X-166086D03*
X-164314Y213100D03*
X-166086D03*
X-164414Y226000D03*
X-166186D03*
X-164114Y188500D03*
X-165886D03*
X-164114Y194500D03*
X-165886D03*
X-164114Y203500D03*
X-165886D03*
X-164114Y200500D03*
X-165886D03*
X-164114Y197500D03*
X-165886D03*
X-164114Y191500D03*
X-165886D03*
X-122886Y98000D03*
X-121114D03*
X-122886Y95000D03*
X-121114D03*
X-122886Y101000D03*
X-121114D03*
X-118886Y153000D03*
X-117114D03*
X-118886Y150000D03*
X-117114D03*
X-118886Y156000D03*
X-117114D03*
X-174614Y86000D03*
X-176386D03*
X-172386D03*
X-170614D03*
X-172386Y82500D03*
X-170614D03*
X-174614D03*
X-176386D03*
X-136886Y312000D03*
X-135114D03*
X-93386Y314500D03*
X-91614D03*
X-261114Y200100D03*
X-262886D03*
X-261114Y197100D03*
X-262886D03*
X-246614Y54000D03*
X-248386D03*
X-246614Y51000D03*
X-248386D03*
X-165608Y283753D03*
X-167380D03*
X-202408Y241853D03*
X-204180D03*
Y251353D03*
X-202408D03*
X-273786Y201900D03*
X-272014D03*
X-275580Y258053D03*
X-273808D03*
X-275580Y254053D03*
X-273808D03*
Y262053D03*
X-275580D03*
Y250053D03*
X-273808D03*
X-209386Y185000D03*
X-207614D03*
X-202408Y247353D03*
X-204180D03*
X-173880Y287253D03*
X-172108D03*
Y283253D03*
X-173880D03*
X-172580Y279053D03*
X-170808D03*
X-247008Y295653D03*
X-248780D03*
X-247008Y291953D03*
X-248780D03*
X-207808Y208053D03*
X-209580D03*
X-239508Y196153D03*
X-241280D03*
X-196614Y80000D03*
X-198386D03*
X-216580Y206053D03*
X-214808D03*
X-242114Y220500D03*
X-243886D03*
X-242714Y217500D03*
X-244486D03*
X-166108Y300253D03*
X-167880D03*
X-166108Y295553D03*
X-167880D03*
X-209480Y313753D03*
X-207708D03*
X-209980Y296753D03*
X-208208D03*
X-194680Y309853D03*
X-192908D03*
X-194680Y304153D03*
X-192908D03*
X-242208Y288153D03*
X-243980D03*
X-262908Y237353D03*
X-264680D03*
X-230086Y245100D03*
X-228314D03*
X-226137Y242331D03*
X-227909D03*
X-223909D03*
X-222137D03*
X-219886Y242800D03*
X-218114D03*
X-219886Y245700D03*
X-218114D03*
X-241814Y235400D03*
X-243586D03*
X-238286Y205500D03*
X-236514D03*
X-248014Y223100D03*
X-249786D03*
X-248014Y226200D03*
X-249786D03*
X-248014Y229100D03*
X-249786D03*
X-248014Y232000D03*
X-249786D03*
X-248014Y234900D03*
X-249786D03*
X-247308Y199153D03*
X-249080D03*
X-234008Y239553D03*
X-235780D03*
X-264686Y231000D03*
X-262914D03*
X-262580Y218053D03*
X-260808D03*
X-262908Y227853D03*
X-264680D03*
X-262908Y234153D03*
X-264680D03*
X-271186Y205400D03*
X-269414D03*
X-264580Y224353D03*
X-262808D03*
X-255608Y223353D03*
X-257380D03*
X-269986Y236700D03*
X-268214D03*
X-269580Y229853D03*
X-267808D03*
X-269580Y227053D03*
X-267808D03*
X-271186Y211900D03*
X-269414D03*
X-271180Y208653D03*
X-269408D03*
X-264580Y221853D03*
X-262808D03*
X-269580Y224053D03*
X-267808D03*
X-240437Y211231D03*
X-242209D03*
X-237586Y212100D03*
X-235814D03*
X-237509Y229031D03*
X-235737D03*
X-239737Y226331D03*
X-241509D03*
X-237580Y220653D03*
X-235808D03*
X-237586Y217800D03*
X-235814D03*
X-240437Y208431D03*
X-242209D03*
X-239637Y232031D03*
X-241409D03*
X-237586Y208800D03*
X-235814D03*
X-237509Y232031D03*
X-235737D03*
X-239737Y229031D03*
X-241509D03*
X-237586Y215000D03*
X-235814D03*
X-237509Y226331D03*
X-235737D03*
X-239737Y223431D03*
X-241509D03*
X-237509Y223531D03*
X-235737D03*
X-247614Y213000D03*
X-249386D03*
X-247608Y209653D03*
X-249380D03*
X-247614Y216200D03*
X-249386D03*
X-244509Y214231D03*
X-242737D03*
X-245409Y223431D03*
X-243637D03*
X-250508Y307553D03*
X-252280D03*
X-269780Y302453D03*
X-268008D03*
X-269780Y308453D03*
X-268008D03*
X-269780Y315153D03*
X-268008D03*
X-275308Y304253D03*
X-242880Y308053D03*
X-241108D03*
X-167380Y287253D03*
X-165608D03*
X-204808Y306153D03*
X-206580D03*
X-167980Y305153D03*
X-166208D03*
X-167580Y279053D03*
X-165808D03*
X-234386Y234900D03*
X-232614D03*
X-245380Y229053D03*
X-243608D03*
X-245386Y232000D03*
X-243614D03*
X-242186Y205500D03*
X-240414D03*
X-233580Y212053D03*
X-231808D03*
X-233580Y216853D03*
X-231808D03*
X-233580Y221653D03*
X-231808D03*
X-233580Y226453D03*
X-231808D03*
X-245409Y226331D03*
X-243637D03*
X-233558Y231224D03*
X-231786D03*
X-189614Y342000D03*
X-191386D03*
X-214614Y368000D03*
X-216386D03*
X-145886Y353000D03*
X-144114D03*
X-91614Y344500D03*
X-93386D03*
X-145386Y333000D03*
X-143614D03*
X-145386Y324500D03*
X-143614D03*
X-171686Y365400D03*
X-169914D03*
X-173914D03*
X-175686D03*
X-178886Y345500D03*
X-177114D03*
X-98614Y361500D03*
X-100386D03*
X-149386Y341800D03*
X-147614D03*
X-149386Y338600D03*
X-147614D03*
X-87886Y338500D03*
X-86114D03*
X-79314Y349200D03*
X-81086D03*
X-91614Y341500D03*
X-93386D03*
X-87114Y327000D03*
X-88886D03*
X-91614Y332500D03*
X-93386D03*
X-139614Y336000D03*
X-141386D03*
Y339000D03*
X-139614D03*
X-91614Y323500D03*
X-93386D03*
X-91614Y320500D03*
X-93386D03*
X-86114Y335500D03*
X-87886D03*
X-86114Y332500D03*
X-87886D03*
X-91614Y338500D03*
X-93386D03*
Y335500D03*
X-91614D03*
X-143614Y345000D03*
X-145386D03*
X-141286Y325900D03*
X-139514D03*
X-115214Y371100D03*
X-116986D03*
X-87886Y341500D03*
X-86114D03*
X-145386Y327500D03*
X-143614D03*
X-145386Y330000D03*
X-143614D03*
X-145386Y342000D03*
X-143614D03*
X-141386Y333000D03*
X-139614D03*
X-149886Y350500D03*
X-148114D03*
X-177114Y342000D03*
X-178886D03*
X-75486Y336900D03*
X-73714D03*
X-86114Y344500D03*
X-87886D03*
X-141286Y322600D03*
X-139514D03*
X-100386Y358500D03*
X-98614D03*
X-139514Y319100D03*
X-141286D03*
X-93386Y317500D03*
X-91614D03*
X-92086Y361400D03*
X-90314D03*
X-193108Y322053D03*
X-194880D03*
Y318353D03*
X-193108D03*
X-145386Y339000D03*
X-143614D03*
X-145386Y336000D03*
X-143614D03*
X-214614Y341500D03*
X-216386D03*
Y365000D03*
X-214614D03*
X-189614Y345000D03*
X-191386D03*
X-214614Y344500D03*
X-216386D03*
X-214614Y347500D03*
X-216386D03*
X-214614Y338500D03*
X-216386D03*
X-180114Y367000D03*
X-181886D03*
X-214614Y362000D03*
X-216386D03*
X-245080Y325053D03*
X-243308D03*
Y321053D03*
X-245080D03*
X-235308Y325053D03*
X-237080D03*
X-175008Y323753D03*
X-176780D03*
X-160114Y329000D03*
X-161886D03*
X-167580Y319053D03*
X-165808D03*
G54D117*
X-187047Y99543D03*
Y92457D03*
X-189016Y99543D03*
Y92457D03*
X-190984Y99543D03*
Y92457D03*
X-192953Y99543D03*
Y92457D03*
G54D60*
X-332982Y326301D03*
X-330756Y328528D03*
X-328528Y330756D03*
X-326301Y332982D03*
X-338133Y329225D03*
X-335906Y331451D03*
X-333679Y333679D03*
X-331451Y335906D03*
X-329225Y338133D03*
G54D108*
X-256862Y45296D03*
Y38504D03*
X-255287Y45296D03*
Y38504D03*
X-253713D03*
Y45296D03*
X-252138Y38504D03*
Y45296D03*
G54D51*
X-372058Y234952D03*
X-366940Y232983D03*
Y236921D03*
X-256441Y144000D03*
X-261559Y145969D03*
Y142031D03*
X-77041Y330400D03*
X-82159Y332369D03*
Y328431D03*
X-76741Y343500D03*
X-81859Y345469D03*
Y341531D03*
G36*
G01X-340706Y73179D02*
G02X-343494Y70391I-1394J-1394D01*
G01X-343770Y70667D01*
X-346412Y68024D01*
G02X-349480Y71092I-1534J1534D01*
G01X-345583Y74989D01*
G02X-345509Y75059I1524J-1543D01*
G02X-342655Y75128I1460J-1325D01*
G01X-340706Y73179D01*
G37*
G54D42*
X-336515Y298815D03*
X-338685Y300985D03*
X-303585Y356085D03*
X-301415Y353915D03*
G54D126*
X-43527Y338341D03*
X-55359Y350173D03*
G54D33*
X-336627Y264983D03*
G54D136*
G01X-12200Y-316200D02*
Y-296200D01*
X-14600Y-300200D01*
G01Y-316200D02*
X-9800D01*
G01X-4000Y-307867D02*
X-2600Y-305533D01*
X-1400Y-304200D01*
X200Y-303534D01*
X1600Y-304200D01*
X2600Y-305533D01*
X3400Y-307533D01*
X3600Y-309867D01*
X3400Y-311867D01*
X2600Y-313867D01*
X1400Y-315533D01*
X0Y-316200D01*
X-1600Y-315533D01*
X-3000Y-313534D01*
X-3800Y-310533D01*
X-4000Y-307200D01*
X-3600Y-302867D01*
X-3000Y-300533D01*
X-2000Y-298200D01*
X-600Y-296533D01*
X800Y-296200D01*
X2200Y-296867D01*
X3200Y-298533D01*
G01X11800Y-316867D02*
X11400Y-316533D01*
Y-315867D01*
X11800Y-315533D01*
X12200Y-315867D01*
Y-316533D01*
X11800Y-316867D01*
G01X19400Y-313201D02*
X20600Y-314867D01*
X22000Y-315867D01*
X23800Y-316200D01*
X25600Y-315533D01*
X27000Y-314200D01*
X28000Y-311867D01*
X28200Y-309200D01*
X27800Y-306534D01*
X26800Y-304867D01*
X25400Y-303534D01*
X24000Y-303200D01*
X22600Y-303534D01*
X20800Y-304867D01*
X21400Y-296200D01*
X26800D01*
G54D25*
X-350789Y163979D03*
G54D118*
X-190000Y96000D03*
G54D34*
X-358795Y165299D03*
X-383205D03*
G54D52*
X-290614Y140941D03*
Y146059D03*
X-282386Y140941D03*
Y143500D03*
Y146059D03*
X-275614Y140941D03*
Y146059D03*
X-267386Y140941D03*
Y143500D03*
Y146059D03*
G54D61*
X-287000Y362467D03*
Y364533D03*
X-109400Y363067D03*
Y365133D03*
G54D70*
X-64477Y58908D03*
X-58909Y64476D03*
G54D43*
X-330600Y284335D03*
Y281265D03*
X-327100Y274265D03*
Y284335D03*
Y281265D03*
Y277335D03*
X-176500Y30035D03*
Y26965D03*
X-222000Y97465D03*
Y100535D03*
X-226000Y97465D03*
Y100535D03*
X-258500Y53535D03*
X-212670Y29485D03*
Y26415D03*
X-131500Y311535D03*
Y308465D03*
X-177500Y131035D03*
Y127965D03*
X-203000Y112465D03*
Y115535D03*
X-173500Y109965D03*
Y113035D03*
X-135200Y37765D03*
Y40835D03*
X-144500Y308965D03*
Y312035D03*
X-227500Y163965D03*
Y167035D03*
X-231000Y163965D03*
Y167035D03*
X-258500Y50465D03*
X-148500Y328035D03*
Y324965D03*
X-95500Y362535D03*
Y359465D03*
X-140500Y345535D03*
Y342465D03*
X-201000Y344035D03*
Y340965D03*
X-205500Y344035D03*
Y340965D03*
G54D127*
X-203658Y386352D03*
G54D109*
X-235764Y96205D03*
X-233205D03*
X-238323D03*
X-240882D03*
X-243441D03*
X-246000D03*
X-251118D03*
X-248559D03*
X-253677D03*
X-256236D03*
X-258795D03*
X-235764Y98764D03*
X-233205D03*
X-238323D03*
X-240882D03*
X-243441D03*
X-246000D03*
X-251118D03*
X-248559D03*
X-253677D03*
X-256236D03*
X-258795D03*
X-235764Y101323D03*
X-233205D03*
X-238323D03*
X-240882D03*
X-243441D03*
X-246000D03*
X-251118D03*
X-248559D03*
X-253677D03*
X-256236D03*
X-258795D03*
X-235764Y106441D03*
X-233205D03*
X-235764Y103882D03*
X-233205D03*
X-238323Y106441D03*
Y103882D03*
X-240882Y106441D03*
Y103882D03*
X-243441Y106441D03*
Y103882D03*
X-246000Y106441D03*
Y103882D03*
X-251118Y106441D03*
X-248559D03*
X-251118Y103882D03*
X-248559D03*
X-253677Y106441D03*
Y103882D03*
X-256236Y106441D03*
Y103882D03*
X-258795Y106441D03*
Y103882D03*
X-235764Y109000D03*
X-233205D03*
X-238323D03*
X-240882D03*
X-243441D03*
X-246000D03*
X-251118D03*
X-248559D03*
X-253677D03*
X-256236D03*
X-258795D03*
X-235764Y111559D03*
X-233205D03*
X-238323D03*
X-240882D03*
X-243441D03*
X-246000D03*
X-251118D03*
X-248559D03*
X-253677D03*
X-256236D03*
X-258795D03*
X-235764Y114118D03*
X-233205D03*
X-238323D03*
X-240882D03*
X-243441D03*
X-246000D03*
X-251118D03*
X-248559D03*
X-253677D03*
X-256236D03*
X-258795D03*
X-235764Y119236D03*
X-233205D03*
X-235764Y116677D03*
X-233205D03*
X-238323Y119236D03*
Y116677D03*
X-240882Y119236D03*
Y116677D03*
X-243441Y119236D03*
Y116677D03*
X-246000Y119236D03*
Y116677D03*
X-251118Y119236D03*
X-248559D03*
X-251118Y116677D03*
X-248559D03*
X-253677Y119236D03*
Y116677D03*
X-256236Y119236D03*
Y116677D03*
X-258795Y119236D03*
Y116677D03*
X-235764Y121795D03*
X-233205D03*
X-238323D03*
X-240882D03*
X-243441D03*
X-246000D03*
X-251118D03*
X-248559D03*
X-253677D03*
X-256236D03*
X-258795D03*
G54D16*
X-358596Y60161D03*
X-333540Y35105D03*
G54D137*
G01X-335933Y-307400D02*
X-334813Y-312400D01*
X-333600Y-307400D01*
X-332387Y-312400D01*
X-331267Y-307400D01*
G01X-328433D02*
X-327313Y-312400D01*
X-326100Y-307400D01*
X-324887Y-312400D01*
X-323767Y-307400D01*
G01X-320933D02*
X-319813Y-312400D01*
X-318600Y-307400D01*
X-317387Y-312400D01*
X-316267Y-307400D01*
G01X-311100Y-312650D02*
X-311287Y-312525D01*
Y-312275D01*
X-311100Y-312150D01*
X-310913Y-312275D01*
Y-312525D01*
X-311100Y-312650D01*
G01X-301920Y-304900D02*
Y-312400D01*
G01Y-311275D02*
X-302293Y-311900D01*
X-302853Y-312275D01*
X-303507Y-312400D01*
X-304253Y-312150D01*
X-304813Y-311525D01*
X-305187Y-310775D01*
X-305280Y-309900D01*
X-305187Y-309025D01*
X-304813Y-308275D01*
X-304253Y-307650D01*
X-303507Y-307400D01*
X-302853Y-307525D01*
X-302387Y-307775D01*
X-301920Y-308275D01*
G01X-297500Y-309025D02*
X-294513D01*
X-294793Y-308150D01*
X-295260Y-307650D01*
X-295913Y-307400D01*
X-296567Y-307525D01*
X-297127Y-307900D01*
X-297500Y-308775D01*
X-297687Y-309525D01*
Y-310275D01*
X-297500Y-311025D01*
X-297033Y-311775D01*
X-296473Y-312275D01*
X-295820Y-312400D01*
X-295167Y-312150D01*
X-294513Y-311400D01*
G01X-290000Y-311525D02*
X-289533Y-312025D01*
X-288880Y-312400D01*
X-288320D01*
X-287760Y-312150D01*
X-287387Y-311775D01*
X-287200Y-311275D01*
X-287293Y-310525D01*
X-287667Y-310150D01*
X-289347Y-309400D01*
X-289720Y-308525D01*
X-289533Y-307900D01*
X-289160Y-307525D01*
X-288600Y-307400D01*
X-288040Y-307525D01*
X-287480Y-307900D01*
G01X-281100Y-307400D02*
Y-312400D01*
G01Y-305400D02*
X-281287Y-305275D01*
Y-305025D01*
X-281100Y-304900D01*
X-280913Y-305025D01*
Y-305275D01*
X-281100Y-305400D01*
G01X-274907Y-314275D02*
X-274253Y-314775D01*
X-273507Y-314900D01*
X-272853Y-314775D01*
X-272293Y-314150D01*
X-271920Y-313275D01*
Y-307400D01*
G01Y-308400D02*
X-272293Y-307900D01*
X-272853Y-307525D01*
X-273507Y-307400D01*
X-274253Y-307650D01*
X-274720Y-308150D01*
X-275093Y-309025D01*
X-275280Y-309900D01*
X-275187Y-310650D01*
X-274813Y-311525D01*
X-274253Y-312150D01*
X-273507Y-312400D01*
X-272947Y-312275D01*
X-272293Y-311775D01*
X-271920Y-311275D01*
G01X-267687Y-312400D02*
Y-307400D01*
G01Y-308650D02*
X-267313Y-308025D01*
X-266753Y-307525D01*
X-266007Y-307400D01*
X-265353Y-307525D01*
X-264793Y-308025D01*
X-264513Y-308900D01*
Y-312400D01*
G01X-259813Y-309900D02*
X-257387D01*
G01X-252500Y-311525D02*
X-252033Y-312025D01*
X-251380Y-312400D01*
X-250820D01*
X-250260Y-312150D01*
X-249887Y-311775D01*
X-249700Y-311275D01*
X-249793Y-310525D01*
X-250167Y-310150D01*
X-251847Y-309400D01*
X-252220Y-308525D01*
X-252033Y-307900D01*
X-251660Y-307525D01*
X-251100Y-307400D01*
X-250540Y-307525D01*
X-249980Y-307900D01*
G01X-245187Y-312400D02*
Y-304900D01*
G01Y-308525D02*
X-244720Y-307900D01*
X-244253Y-307525D01*
X-243507Y-307400D01*
X-242947Y-307525D01*
X-242293Y-308025D01*
X-242013Y-308775D01*
Y-312400D01*
G01X-236100Y-307400D02*
Y-312400D01*
G01Y-305400D02*
X-236287Y-305275D01*
Y-305025D01*
X-236100Y-304900D01*
X-235913Y-305025D01*
Y-305275D01*
X-236100Y-305400D01*
G01X-229160Y-312400D02*
Y-306025D01*
X-228973Y-305400D01*
X-228600Y-305025D01*
X-228040Y-304900D01*
X-227480Y-305150D01*
X-227200Y-305775D01*
G01X-228320Y-307900D02*
X-230187D01*
G01X-221100Y-304900D02*
Y-312400D01*
G01X-222407Y-307400D02*
X-219793D01*
G01X-213600Y-312650D02*
X-213787Y-312525D01*
Y-312275D01*
X-213600Y-312150D01*
X-213413Y-312275D01*
Y-312525D01*
X-213600Y-312650D01*
G01X-204607Y-308025D02*
X-205260Y-307525D01*
X-205820Y-307400D01*
X-206567Y-307650D01*
X-207127Y-308150D01*
X-207500Y-309025D01*
X-207593Y-309900D01*
X-207500Y-310775D01*
X-207127Y-311525D01*
X-206567Y-312150D01*
X-205820Y-312400D01*
X-205167Y-312150D01*
X-204607Y-311650D01*
G01X-198600Y-312400D02*
X-199160Y-312275D01*
X-199720Y-311775D01*
X-200093Y-310900D01*
X-200280Y-309900D01*
X-200093Y-308900D01*
X-199720Y-308025D01*
X-199160Y-307525D01*
X-198600Y-307400D01*
X-198040Y-307525D01*
X-197480Y-308025D01*
X-197107Y-308900D01*
X-197013Y-309900D01*
X-197107Y-310900D01*
X-197480Y-311775D01*
X-198040Y-312275D01*
X-198600Y-312400D01*
G01X-193900D02*
Y-307400D01*
G01Y-308775D02*
X-193620Y-308150D01*
X-193153Y-307650D01*
X-192500Y-307400D01*
X-191847Y-307650D01*
X-191380Y-308150D01*
X-191100Y-308775D01*
Y-312400D01*
G01Y-308775D02*
X-190820Y-308150D01*
X-190353Y-307650D01*
X-189700Y-307400D01*
X-189047Y-307650D01*
X-188580Y-308150D01*
X-188300Y-308900D01*
Y-312400D01*
G01X-336033Y-307400D02*
X-334913Y-312400D01*
X-333700Y-307400D01*
X-332487Y-312400D01*
X-331367Y-307400D01*
G01X-328533D02*
X-327413Y-312400D01*
X-326200Y-307400D01*
X-324987Y-312400D01*
X-323867Y-307400D01*
G01X-321033D02*
X-319913Y-312400D01*
X-318700Y-307400D01*
X-317487Y-312400D01*
X-316367Y-307400D01*
G01X-311200Y-312650D02*
X-311387Y-312525D01*
Y-312275D01*
X-311200Y-312150D01*
X-311013Y-312275D01*
Y-312525D01*
X-311200Y-312650D01*
G01X-302020Y-304900D02*
Y-312400D01*
G01Y-311275D02*
X-302393Y-311900D01*
X-302953Y-312275D01*
X-303607Y-312400D01*
X-304353Y-312150D01*
X-304913Y-311525D01*
X-305287Y-310775D01*
X-305380Y-309900D01*
X-305287Y-309025D01*
X-304913Y-308275D01*
X-304353Y-307650D01*
X-303607Y-307400D01*
X-302953Y-307525D01*
X-302487Y-307775D01*
X-302020Y-308275D01*
G01X-297600Y-309025D02*
X-294613D01*
X-294893Y-308150D01*
X-295360Y-307650D01*
X-296013Y-307400D01*
X-296667Y-307525D01*
X-297227Y-307900D01*
X-297600Y-308775D01*
X-297787Y-309525D01*
Y-310275D01*
X-297600Y-311025D01*
X-297133Y-311775D01*
X-296573Y-312275D01*
X-295920Y-312400D01*
X-295267Y-312150D01*
X-294613Y-311400D01*
G01X-290100Y-311525D02*
X-289633Y-312025D01*
X-288980Y-312400D01*
X-288420D01*
X-287860Y-312150D01*
X-287487Y-311775D01*
X-287300Y-311275D01*
X-287393Y-310525D01*
X-287767Y-310150D01*
X-289447Y-309400D01*
X-289820Y-308525D01*
X-289633Y-307900D01*
X-289260Y-307525D01*
X-288700Y-307400D01*
X-288140Y-307525D01*
X-287580Y-307900D01*
G01X-281200Y-307400D02*
Y-312400D01*
G01Y-305400D02*
X-281387Y-305275D01*
Y-305025D01*
X-281200Y-304900D01*
X-281013Y-305025D01*
Y-305275D01*
X-281200Y-305400D01*
G01X-275007Y-314275D02*
X-274353Y-314775D01*
X-273607Y-314900D01*
X-272953Y-314775D01*
X-272393Y-314150D01*
X-272020Y-313275D01*
Y-307400D01*
G01Y-308400D02*
X-272393Y-307900D01*
X-272953Y-307525D01*
X-273607Y-307400D01*
X-274353Y-307650D01*
X-274820Y-308150D01*
X-275193Y-309025D01*
X-275380Y-309900D01*
X-275287Y-310650D01*
X-274913Y-311525D01*
X-274353Y-312150D01*
X-273607Y-312400D01*
X-273047Y-312275D01*
X-272393Y-311775D01*
X-272020Y-311275D01*
G01X-267787Y-312400D02*
Y-307400D01*
G01Y-308650D02*
X-267413Y-308025D01*
X-266853Y-307525D01*
X-266107Y-307400D01*
X-265453Y-307525D01*
X-264893Y-308025D01*
X-264613Y-308900D01*
Y-312400D01*
G01X-259913Y-309900D02*
X-257487D01*
G01X-252600Y-311525D02*
X-252133Y-312025D01*
X-251480Y-312400D01*
X-250920D01*
X-250360Y-312150D01*
X-249987Y-311775D01*
X-249800Y-311275D01*
X-249893Y-310525D01*
X-250267Y-310150D01*
X-251947Y-309400D01*
X-252320Y-308525D01*
X-252133Y-307900D01*
X-251760Y-307525D01*
X-251200Y-307400D01*
X-250640Y-307525D01*
X-250080Y-307900D01*
G01X-245287Y-312400D02*
Y-304900D01*
G01Y-308525D02*
X-244820Y-307900D01*
X-244353Y-307525D01*
X-243607Y-307400D01*
X-243047Y-307525D01*
X-242393Y-308025D01*
X-242113Y-308775D01*
Y-312400D01*
G01X-236200Y-307400D02*
Y-312400D01*
G01Y-305400D02*
X-236387Y-305275D01*
Y-305025D01*
X-236200Y-304900D01*
X-236013Y-305025D01*
Y-305275D01*
X-236200Y-305400D01*
G01X-229260Y-312400D02*
Y-306025D01*
X-229073Y-305400D01*
X-228700Y-305025D01*
X-228140Y-304900D01*
X-227580Y-305150D01*
X-227300Y-305775D01*
G01X-228420Y-307900D02*
X-230287D01*
G01X-221200Y-304900D02*
Y-312400D01*
G01X-222507Y-307400D02*
X-219893D01*
G01X-213700Y-312650D02*
X-213887Y-312525D01*
Y-312275D01*
X-213700Y-312150D01*
X-213513Y-312275D01*
Y-312525D01*
X-213700Y-312650D01*
G01X-204707Y-308025D02*
X-205360Y-307525D01*
X-205920Y-307400D01*
X-206667Y-307650D01*
X-207227Y-308150D01*
X-207600Y-309025D01*
X-207693Y-309900D01*
X-207600Y-310775D01*
X-207227Y-311525D01*
X-206667Y-312150D01*
X-205920Y-312400D01*
X-205267Y-312150D01*
X-204707Y-311650D01*
G01X-198700Y-312400D02*
X-199260Y-312275D01*
X-199820Y-311775D01*
X-200193Y-310900D01*
X-200380Y-309900D01*
X-200193Y-308900D01*
X-199820Y-308025D01*
X-199260Y-307525D01*
X-198700Y-307400D01*
X-198140Y-307525D01*
X-197580Y-308025D01*
X-197207Y-308900D01*
X-197113Y-309900D01*
X-197207Y-310900D01*
X-197580Y-311775D01*
X-198140Y-312275D01*
X-198700Y-312400D01*
G01X-194000D02*
Y-307400D01*
G01Y-308775D02*
X-193720Y-308150D01*
X-193253Y-307650D01*
X-192600Y-307400D01*
X-191947Y-307650D01*
X-191480Y-308150D01*
X-191200Y-308775D01*
Y-312400D01*
G01Y-308775D02*
X-190920Y-308150D01*
X-190453Y-307650D01*
X-189800Y-307400D01*
X-189147Y-307650D01*
X-188680Y-308150D01*
X-188400Y-308900D01*
Y-312400D01*
G01X-336133Y-307400D02*
X-335013Y-312400D01*
X-333800Y-307400D01*
X-332587Y-312400D01*
X-331467Y-307400D01*
G01X-328633D02*
X-327513Y-312400D01*
X-326300Y-307400D01*
X-325087Y-312400D01*
X-323967Y-307400D01*
G01X-321133D02*
X-320013Y-312400D01*
X-318800Y-307400D01*
X-317587Y-312400D01*
X-316467Y-307400D01*
G01X-311300Y-312650D02*
X-311487Y-312525D01*
Y-312275D01*
X-311300Y-312150D01*
X-311113Y-312275D01*
Y-312525D01*
X-311300Y-312650D01*
G01X-302120Y-304900D02*
Y-312400D01*
G01Y-311275D02*
X-302493Y-311900D01*
X-303053Y-312275D01*
X-303707Y-312400D01*
X-304453Y-312150D01*
X-305013Y-311525D01*
X-305387Y-310775D01*
X-305480Y-309900D01*
X-305387Y-309025D01*
X-305013Y-308275D01*
X-304453Y-307650D01*
X-303707Y-307400D01*
X-303053Y-307525D01*
X-302587Y-307775D01*
X-302120Y-308275D01*
G01X-297700Y-309025D02*
X-294713D01*
X-294993Y-308150D01*
X-295460Y-307650D01*
X-296113Y-307400D01*
X-296767Y-307525D01*
X-297327Y-307900D01*
X-297700Y-308775D01*
X-297887Y-309525D01*
Y-310275D01*
X-297700Y-311025D01*
X-297233Y-311775D01*
X-296673Y-312275D01*
X-296020Y-312400D01*
X-295367Y-312150D01*
X-294713Y-311400D01*
G01X-290200Y-311525D02*
X-289733Y-312025D01*
X-289080Y-312400D01*
X-288520D01*
X-287960Y-312150D01*
X-287587Y-311775D01*
X-287400Y-311275D01*
X-287493Y-310525D01*
X-287867Y-310150D01*
X-289547Y-309400D01*
X-289920Y-308525D01*
X-289733Y-307900D01*
X-289360Y-307525D01*
X-288800Y-307400D01*
X-288240Y-307525D01*
X-287680Y-307900D01*
G01X-281300Y-307400D02*
Y-312400D01*
G01Y-305400D02*
X-281487Y-305275D01*
Y-305025D01*
X-281300Y-304900D01*
X-281113Y-305025D01*
Y-305275D01*
X-281300Y-305400D01*
G01X-275107Y-314275D02*
X-274453Y-314775D01*
X-273707Y-314900D01*
X-273053Y-314775D01*
X-272493Y-314150D01*
X-272120Y-313275D01*
Y-307400D01*
G01Y-308400D02*
X-272493Y-307900D01*
X-273053Y-307525D01*
X-273707Y-307400D01*
X-274453Y-307650D01*
X-274920Y-308150D01*
X-275293Y-309025D01*
X-275480Y-309900D01*
X-275387Y-310650D01*
X-275013Y-311525D01*
X-274453Y-312150D01*
X-273707Y-312400D01*
X-273147Y-312275D01*
X-272493Y-311775D01*
X-272120Y-311275D01*
G01X-267887Y-312400D02*
Y-307400D01*
G01Y-308650D02*
X-267513Y-308025D01*
X-266953Y-307525D01*
X-266207Y-307400D01*
X-265553Y-307525D01*
X-264993Y-308025D01*
X-264713Y-308900D01*
Y-312400D01*
G01X-260013Y-309900D02*
X-257587D01*
G01X-252700Y-311525D02*
X-252233Y-312025D01*
X-251580Y-312400D01*
X-251020D01*
X-250460Y-312150D01*
X-250087Y-311775D01*
X-249900Y-311275D01*
X-249993Y-310525D01*
X-250367Y-310150D01*
X-252047Y-309400D01*
X-252420Y-308525D01*
X-252233Y-307900D01*
X-251860Y-307525D01*
X-251300Y-307400D01*
X-250740Y-307525D01*
X-250180Y-307900D01*
G01X-245387Y-312400D02*
Y-304900D01*
G01Y-308525D02*
X-244920Y-307900D01*
X-244453Y-307525D01*
X-243707Y-307400D01*
X-243147Y-307525D01*
X-242493Y-308025D01*
X-242213Y-308775D01*
Y-312400D01*
G01X-236300Y-307400D02*
Y-312400D01*
G01Y-305400D02*
X-236487Y-305275D01*
Y-305025D01*
X-236300Y-304900D01*
X-236113Y-305025D01*
Y-305275D01*
X-236300Y-305400D01*
G01X-229360Y-312400D02*
Y-306025D01*
X-229173Y-305400D01*
X-228800Y-305025D01*
X-228240Y-304900D01*
X-227680Y-305150D01*
X-227400Y-305775D01*
G01X-228520Y-307900D02*
X-230387D01*
G01X-221300Y-304900D02*
Y-312400D01*
G01X-222607Y-307400D02*
X-219993D01*
G01X-213800Y-312650D02*
X-213987Y-312525D01*
Y-312275D01*
X-213800Y-312150D01*
X-213613Y-312275D01*
Y-312525D01*
X-213800Y-312650D01*
G01X-204807Y-308025D02*
X-205460Y-307525D01*
X-206020Y-307400D01*
X-206767Y-307650D01*
X-207327Y-308150D01*
X-207700Y-309025D01*
X-207793Y-309900D01*
X-207700Y-310775D01*
X-207327Y-311525D01*
X-206767Y-312150D01*
X-206020Y-312400D01*
X-205367Y-312150D01*
X-204807Y-311650D01*
G01X-198800Y-312400D02*
X-199360Y-312275D01*
X-199920Y-311775D01*
X-200293Y-310900D01*
X-200480Y-309900D01*
X-200293Y-308900D01*
X-199920Y-308025D01*
X-199360Y-307525D01*
X-198800Y-307400D01*
X-198240Y-307525D01*
X-197680Y-308025D01*
X-197307Y-308900D01*
X-197213Y-309900D01*
X-197307Y-310900D01*
X-197680Y-311775D01*
X-198240Y-312275D01*
X-198800Y-312400D01*
G01X-194100D02*
Y-307400D01*
G01Y-308775D02*
X-193820Y-308150D01*
X-193353Y-307650D01*
X-192700Y-307400D01*
X-192047Y-307650D01*
X-191580Y-308150D01*
X-191300Y-308775D01*
Y-312400D01*
G01Y-308775D02*
X-191020Y-308150D01*
X-190553Y-307650D01*
X-189900Y-307400D01*
X-189247Y-307650D01*
X-188780Y-308150D01*
X-188500Y-308900D01*
Y-312400D01*
G01X-336233Y-307400D02*
X-335113Y-312400D01*
X-333900Y-307400D01*
X-332687Y-312400D01*
X-331567Y-307400D01*
G01X-328733D02*
X-327613Y-312400D01*
X-326400Y-307400D01*
X-325187Y-312400D01*
X-324067Y-307400D01*
G01X-321233D02*
X-320113Y-312400D01*
X-318900Y-307400D01*
X-317687Y-312400D01*
X-316567Y-307400D01*
G01X-311400Y-312650D02*
X-311587Y-312525D01*
Y-312275D01*
X-311400Y-312150D01*
X-311213Y-312275D01*
Y-312525D01*
X-311400Y-312650D01*
G01X-302220Y-304900D02*
Y-312400D01*
G01Y-311275D02*
X-302593Y-311900D01*
X-303153Y-312275D01*
X-303807Y-312400D01*
X-304553Y-312150D01*
X-305113Y-311525D01*
X-305487Y-310775D01*
X-305580Y-309900D01*
X-305487Y-309025D01*
X-305113Y-308275D01*
X-304553Y-307650D01*
X-303807Y-307400D01*
X-303153Y-307525D01*
X-302687Y-307775D01*
X-302220Y-308275D01*
G01X-297800Y-309025D02*
X-294813D01*
X-295093Y-308150D01*
X-295560Y-307650D01*
X-296213Y-307400D01*
X-296867Y-307525D01*
X-297427Y-307900D01*
X-297800Y-308775D01*
X-297987Y-309525D01*
Y-310275D01*
X-297800Y-311025D01*
X-297333Y-311775D01*
X-296773Y-312275D01*
X-296120Y-312400D01*
X-295467Y-312150D01*
X-294813Y-311400D01*
G01X-290300Y-311525D02*
X-289833Y-312025D01*
X-289180Y-312400D01*
X-288620D01*
X-288060Y-312150D01*
X-287687Y-311775D01*
X-287500Y-311275D01*
X-287593Y-310525D01*
X-287967Y-310150D01*
X-289647Y-309400D01*
X-290020Y-308525D01*
X-289833Y-307900D01*
X-289460Y-307525D01*
X-288900Y-307400D01*
X-288340Y-307525D01*
X-287780Y-307900D01*
G01X-281400Y-307400D02*
Y-312400D01*
G01Y-305400D02*
X-281587Y-305275D01*
Y-305025D01*
X-281400Y-304900D01*
X-281213Y-305025D01*
Y-305275D01*
X-281400Y-305400D01*
G01X-275207Y-314275D02*
X-274553Y-314775D01*
X-273807Y-314900D01*
X-273153Y-314775D01*
X-272593Y-314150D01*
X-272220Y-313275D01*
Y-307400D01*
G01Y-308400D02*
X-272593Y-307900D01*
X-273153Y-307525D01*
X-273807Y-307400D01*
X-274553Y-307650D01*
X-275020Y-308150D01*
X-275393Y-309025D01*
X-275580Y-309900D01*
X-275487Y-310650D01*
X-275113Y-311525D01*
X-274553Y-312150D01*
X-273807Y-312400D01*
X-273247Y-312275D01*
X-272593Y-311775D01*
X-272220Y-311275D01*
G01X-267987Y-312400D02*
Y-307400D01*
G01Y-308650D02*
X-267613Y-308025D01*
X-267053Y-307525D01*
X-266307Y-307400D01*
X-265653Y-307525D01*
X-265093Y-308025D01*
X-264813Y-308900D01*
Y-312400D01*
G01X-260113Y-309900D02*
X-257687D01*
G01X-252800Y-311525D02*
X-252333Y-312025D01*
X-251680Y-312400D01*
X-251120D01*
X-250560Y-312150D01*
X-250187Y-311775D01*
X-250000Y-311275D01*
X-250093Y-310525D01*
X-250467Y-310150D01*
X-252147Y-309400D01*
X-252520Y-308525D01*
X-252333Y-307900D01*
X-251960Y-307525D01*
X-251400Y-307400D01*
X-250840Y-307525D01*
X-250280Y-307900D01*
G01X-245487Y-312400D02*
Y-304900D01*
G01Y-308525D02*
X-245020Y-307900D01*
X-244553Y-307525D01*
X-243807Y-307400D01*
X-243247Y-307525D01*
X-242593Y-308025D01*
X-242313Y-308775D01*
Y-312400D01*
G01X-236400Y-307400D02*
Y-312400D01*
G01Y-305400D02*
X-236587Y-305275D01*
Y-305025D01*
X-236400Y-304900D01*
X-236213Y-305025D01*
Y-305275D01*
X-236400Y-305400D01*
G01X-229460Y-312400D02*
Y-306025D01*
X-229273Y-305400D01*
X-228900Y-305025D01*
X-228340Y-304900D01*
X-227780Y-305150D01*
X-227500Y-305775D01*
G01X-228620Y-307900D02*
X-230487D01*
G01X-221400Y-304900D02*
Y-312400D01*
G01X-222707Y-307400D02*
X-220093D01*
G01X-213900Y-312650D02*
X-214087Y-312525D01*
Y-312275D01*
X-213900Y-312150D01*
X-213713Y-312275D01*
Y-312525D01*
X-213900Y-312650D01*
G01X-204907Y-308025D02*
X-205560Y-307525D01*
X-206120Y-307400D01*
X-206867Y-307650D01*
X-207427Y-308150D01*
X-207800Y-309025D01*
X-207893Y-309900D01*
X-207800Y-310775D01*
X-207427Y-311525D01*
X-206867Y-312150D01*
X-206120Y-312400D01*
X-205467Y-312150D01*
X-204907Y-311650D01*
G01X-198900Y-312400D02*
X-199460Y-312275D01*
X-200020Y-311775D01*
X-200393Y-310900D01*
X-200580Y-309900D01*
X-200393Y-308900D01*
X-200020Y-308025D01*
X-199460Y-307525D01*
X-198900Y-307400D01*
X-198340Y-307525D01*
X-197780Y-308025D01*
X-197407Y-308900D01*
X-197313Y-309900D01*
X-197407Y-310900D01*
X-197780Y-311775D01*
X-198340Y-312275D01*
X-198900Y-312400D01*
G01X-194200D02*
Y-307400D01*
G01Y-308775D02*
X-193920Y-308150D01*
X-193453Y-307650D01*
X-192800Y-307400D01*
X-192147Y-307650D01*
X-191680Y-308150D01*
X-191400Y-308775D01*
Y-312400D01*
G01Y-308775D02*
X-191120Y-308150D01*
X-190653Y-307650D01*
X-190000Y-307400D01*
X-189347Y-307650D01*
X-188880Y-308150D01*
X-188600Y-308900D01*
Y-312400D01*
G01X-118600Y-281900D02*
X-119347Y-281775D01*
X-120000Y-281275D01*
X-120560Y-280525D01*
X-120933Y-279650D01*
X-121120Y-278650D01*
Y-277650D01*
X-120933Y-276650D01*
X-120560Y-275775D01*
X-120000Y-275025D01*
X-119347Y-274525D01*
X-118600Y-274400D01*
X-117853Y-274525D01*
X-117200Y-275025D01*
X-116640Y-275775D01*
X-116267Y-276650D01*
X-116080Y-277650D01*
Y-278650D01*
X-116267Y-279650D01*
X-116640Y-280525D01*
X-117200Y-281275D01*
X-117853Y-281775D01*
X-118600Y-281900D01*
G01X-112967D02*
Y-274400D01*
X-110633D01*
X-109887Y-274775D01*
X-109420Y-275275D01*
X-109233Y-276275D01*
X-109420Y-277275D01*
X-109980Y-277900D01*
X-110633Y-278275D01*
X-112967D01*
G01X-110633D02*
X-109233Y-281900D01*
G01X-106400Y-274400D02*
X-105093Y-281900D01*
X-103600Y-274400D01*
X-102107Y-281900D01*
X-100800Y-274400D01*
G01X-97967D02*
Y-281900D01*
X-94233D01*
G01X-59533Y-282500D02*
X-63267D01*
Y-275000D01*
X-59533D01*
G01X-61027Y-278625D02*
X-63267D01*
G01X-56233Y-275000D02*
X-53900Y-282500D01*
X-51567Y-275000D01*
G01X-46400D02*
Y-282500D01*
G01X-48547Y-275000D02*
X-44253D01*
G01X-132400Y-308900D02*
X-133067Y-309067D01*
X-133567Y-309483D01*
X-133900Y-309983D01*
X-134150Y-310650D01*
X-134233Y-311400D01*
X-134150Y-312150D01*
X-133900Y-312817D01*
X-133567Y-313317D01*
X-133067Y-313733D01*
X-132400Y-313900D01*
X-131733Y-313733D01*
X-131233Y-313317D01*
X-130900Y-312817D01*
X-130650Y-312150D01*
X-130567Y-311400D01*
X-130650Y-310650D01*
X-130900Y-309983D01*
X-131233Y-309483D01*
X-131733Y-309067D01*
X-132400Y-308900D01*
G01X-126167Y-313900D02*
X-126000Y-312817D01*
X-125750Y-311900D01*
X-125417Y-311067D01*
X-125000Y-310150D01*
X-124333Y-308900D01*
X-127667D01*
G01X-121100Y-314067D02*
X-118100Y-308900D01*
G01X-114783Y-309733D02*
X-114283Y-309233D01*
X-113700Y-308983D01*
X-113033Y-308900D01*
X-112200Y-309067D01*
X-111617Y-309483D01*
X-111450Y-309983D01*
X-111533Y-310483D01*
X-111867Y-310900D01*
X-113533Y-311733D01*
X-114283Y-312317D01*
X-114783Y-313150D01*
X-114950Y-313900D01*
X-111450D01*
G01X-106800Y-308900D02*
X-107467Y-309067D01*
X-107967Y-309483D01*
X-108300Y-309983D01*
X-108550Y-310650D01*
X-108633Y-311400D01*
X-108550Y-312150D01*
X-108300Y-312817D01*
X-107967Y-313317D01*
X-107467Y-313733D01*
X-106800Y-313900D01*
X-106133Y-313733D01*
X-105633Y-313317D01*
X-105300Y-312817D01*
X-105050Y-312150D01*
X-104967Y-311400D01*
X-105050Y-310650D01*
X-105300Y-309983D01*
X-105633Y-309483D01*
X-106133Y-309067D01*
X-106800Y-308900D01*
G01X-101900Y-314067D02*
X-98900Y-308900D01*
G01X-94000Y-313900D02*
Y-308900D01*
X-95000Y-309900D01*
G01Y-313900D02*
X-93000D01*
G01X-89433Y-313150D02*
X-88933Y-313567D01*
X-88350Y-313817D01*
X-87600Y-313900D01*
X-86850Y-313733D01*
X-86267Y-313400D01*
X-85850Y-312817D01*
X-85767Y-312150D01*
X-85933Y-311483D01*
X-86350Y-311067D01*
X-86933Y-310733D01*
X-87517Y-310650D01*
X-88100Y-310733D01*
X-88850Y-311067D01*
X-88600Y-308900D01*
X-86350D01*
G01X-81200Y-310567D02*
X-80367Y-309525D01*
Y-308900D01*
X-80992D01*
Y-309525D01*
X-80367D01*
G01X-65867Y-279100D02*
Y-274100D01*
X-63700Y-278267D01*
X-61533Y-274100D01*
Y-279100D01*
G01X-59133D02*
Y-274100D01*
G01X-55967D02*
X-59133Y-277183D01*
G01X-55467Y-279100D02*
X-57717Y-275767D01*
G01X-53400Y-280767D02*
X-48400D01*
G01X-44500Y-274100D02*
Y-279100D01*
G01X-46417Y-274100D02*
X-42583D01*
G01X-38100Y-279100D02*
X-38767Y-279017D01*
X-39350Y-278683D01*
X-39850Y-278183D01*
X-40183Y-277600D01*
X-40350Y-276933D01*
Y-276267D01*
X-40183Y-275600D01*
X-39850Y-275017D01*
X-39350Y-274517D01*
X-38767Y-274183D01*
X-38100Y-274100D01*
X-37433Y-274183D01*
X-36850Y-274517D01*
X-36350Y-275017D01*
X-36017Y-275600D01*
X-35850Y-276267D01*
Y-276933D01*
X-36017Y-277600D01*
X-36350Y-278183D01*
X-36850Y-278683D01*
X-37433Y-279017D01*
X-38100Y-279100D01*
G01X-33367D02*
Y-274100D01*
X-31367D01*
X-30700Y-274350D01*
X-30200Y-274933D01*
X-30033Y-275600D01*
X-30200Y-276267D01*
X-30617Y-276767D01*
X-31367Y-277017D01*
X-33367D01*
G54D44*
X-330600Y274265D03*
Y277335D03*
X-334600Y274265D03*
Y277335D03*
X-224000Y131965D03*
Y135035D03*
X-220000Y131965D03*
Y135035D03*
X-182000Y22465D03*
Y25535D03*
X-208670Y26415D03*
Y29485D03*
X-216670Y26415D03*
X-266000Y101465D03*
Y104535D03*
X-270000Y101465D03*
Y104535D03*
Y124965D03*
Y128035D03*
X-205170Y38485D03*
Y35415D03*
X-220670Y29485D03*
Y26415D03*
X-254500Y89035D03*
Y85965D03*
X-148500Y308965D03*
Y312035D03*
X-178000Y113035D03*
Y109965D03*
X-169000Y113035D03*
Y109965D03*
X-215500Y167035D03*
Y163965D03*
X-219500Y167035D03*
Y163965D03*
X-223000Y167035D03*
Y163965D03*
X-211500Y167035D03*
Y163965D03*
X-239000Y167035D03*
Y163965D03*
X-204000Y167035D03*
Y163965D03*
X-207500Y167035D03*
Y163965D03*
X-235000Y167035D03*
Y163965D03*
X-128000Y311535D03*
Y308465D03*
X-216670Y29485D03*
X-140500Y308465D03*
Y311535D03*
X-148500Y335035D03*
Y331965D03*
G54D26*
X-350789Y229744D03*
G54D35*
X-363913Y151028D03*
X-368638D03*
X-373362D03*
X-378087D03*
G54D62*
X-278446Y351076D03*
Y373124D03*
X-271754Y351076D03*
Y373124D03*
G54D53*
X-277469Y155941D03*
X-284000Y161059D03*
X-285969Y155941D03*
X-282031D03*
X-148469Y315941D03*
X-144531D03*
X-275500Y161059D03*
X-273531Y155941D03*
X-249000Y160559D03*
X-250969Y155441D03*
X-247031D03*
X-146500Y321059D03*
G54D17*
X-324606Y236220D03*
G54D119*
X-182567Y109161D03*
X-193433D03*
X-182567Y111720D03*
X-193433D03*
X-182567Y114280D03*
X-193433D03*
X-182567Y116839D03*
X-193433D03*
G54D80*
X-143291Y147649D03*
G54D128*
X-231284Y352551D03*
X-237189D03*
X-243095D03*
X-249000D03*
G36*
G01X-52995Y73178D02*
G03X-50207Y70390I1394J-1394D01*
G01X-49931Y70666D01*
X-47289Y68023D01*
G03X-44221Y71091I1534J1534D01*
G01X-48118Y74988D01*
G03X-48192Y75058I-1524J-1543D01*
G03X-51046Y75127I-1460J-1325D01*
G01X-52995Y73178D01*
G37*
G54D27*
X-310614Y147649D03*
G54D81*
X-141323Y246074D03*
G54D63*
X-142400Y-6400D03*
G54D129*
X-186780Y350000D03*
X-209220D03*
X-186780Y355000D03*
X-209220D03*
X-186780Y360000D03*
X-209220D03*
X-186780Y365000D03*
X-209220D03*
G54D54*
X-289843Y154469D03*
Y152500D03*
Y150531D03*
X-295157Y154469D03*
Y152500D03*
Y150531D03*
X-259843Y153969D03*
Y152000D03*
Y150031D03*
X-265157Y153969D03*
Y152000D03*
Y150031D03*
G54D36*
X-368965Y145500D03*
X-372035D03*
X-377465D03*
X-380535D03*
X-364035Y207100D03*
X-360965Y203000D03*
X-364035D03*
X-360965Y199000D03*
X-364035D03*
X-360965Y195000D03*
X-364035D03*
X-360965Y207100D03*
X-162965Y36000D03*
X-166035D03*
X-163030Y40233D03*
X-166100D03*
X-196965Y164000D03*
X-200035D03*
X-211965Y135000D03*
X-215035D03*
X-198965Y158000D03*
X-202035D03*
X-198965Y154000D03*
X-202035D03*
X-269535Y121000D03*
X-266465D03*
X-147325Y23840D03*
X-144255D03*
X-223035Y109600D03*
X-219965D03*
X-155494Y53548D03*
X-158564D03*
X-162301Y58471D03*
X-165371D03*
X-41945Y315790D03*
X-45015D03*
X-76465Y148000D03*
X-79535D03*
X-69465D03*
X-72535D03*
X-81535Y113500D03*
X-78465D03*
X-74035D03*
X-70965D03*
X-86535Y144000D03*
X-83465D03*
X-44915Y311790D03*
X-41845D03*
X-240035Y155000D03*
X-236965D03*
X-240035Y151000D03*
X-236965D03*
X-247965Y151500D03*
X-251035D03*
X-228735Y181200D03*
X-225665D03*
X-256235Y232400D03*
X-253165D03*
X-256235Y236200D03*
X-253165D03*
X-250435Y219600D03*
X-247365D03*
X-89365Y347800D03*
X-92435D03*
X-85365Y357100D03*
X-88435D03*
X-82255Y352300D03*
X-79185D03*
G54D90*
X-224634Y57882D03*
G54D45*
X-295362Y159500D03*
X-290638D03*
X-101900Y146138D03*
Y150862D03*
X-165638Y49500D03*
X-170362D03*
X-176362Y43500D03*
X-171638D03*
X-215000Y105638D03*
Y110362D03*
X-82862Y172500D03*
X-78138D03*
X-202500Y125362D03*
Y120638D03*
X-182500Y101362D03*
Y96638D03*
X-247138Y144000D03*
X-251862D03*
X-264862Y159000D03*
X-260138D03*
X-197000Y94138D03*
Y98862D03*
X-171944Y141053D03*
X-176668D03*
X-171944Y136053D03*
X-176668D03*
X-189362Y86500D03*
X-184638D03*
X-168000Y123862D03*
Y119138D03*
X-88500Y120638D03*
Y125362D03*
X-111000Y104862D03*
Y100138D03*
X-117000Y104862D03*
Y100138D03*
X-88500Y134638D03*
Y139362D03*
X-113000Y146138D03*
Y150862D03*
X-108000Y146138D03*
Y150862D03*
X-162500Y111362D03*
Y106638D03*
X-105162Y100200D03*
X-100438D03*
X-224538Y186300D03*
X-229262D03*
X-258962Y227800D03*
X-254238D03*
X-250762Y185700D03*
X-246038D03*
X-91762Y352300D03*
X-87038D03*
G54D18*
X-324606Y157480D03*
X-149016Y72244D03*
X-145947Y51822D03*
X-124629Y77836D03*
X-118701Y57677D03*
X-255315Y345276D03*
X-259689Y372803D03*
X-226637Y366578D03*
X-225000Y359843D03*
G36*
G01X-73179Y52994D02*
G02X-70391Y50206I1394J-1394D01*
G01X-70667Y49930D01*
X-68024Y47288D01*
G02X-71092Y44220I-1534J-1534D01*
G01X-74989Y48117D01*
G02X-75059Y48191I1543J1524D01*
G02X-75128Y51045I1325J1460D01*
G01X-73179Y52994D01*
G37*
G54D46*
X-304717Y159501D03*
X-307787D03*
X-163135Y5500D03*
X-160065D03*
X-158265Y17400D03*
X-161335D03*
X-158564Y49305D03*
X-155494D03*
X-165364Y54590D03*
X-162294D03*
X-166035Y44500D03*
X-162965D03*
X-147325Y28340D03*
X-144255D03*
X-244465Y133000D03*
X-247535D03*
X-203363Y195658D03*
X-200293D03*
X-203535Y191000D03*
X-200465D03*
X-240035Y147000D03*
X-236965D03*
X-240035Y143000D03*
X-236965D03*
X-172965Y36000D03*
X-176035D03*
X-158549Y57576D03*
X-155479D03*
X-66035Y117500D03*
X-62965D03*
X-81535Y105500D03*
X-78465D03*
X-81535Y109500D03*
X-78465D03*
X-89035Y130000D03*
X-85965D03*
X-70465Y172500D03*
X-73535D03*
X-162465Y98500D03*
X-165535D03*
X-69465Y144000D03*
X-72535D03*
X-83465Y148000D03*
X-86535D03*
X-57175Y311180D03*
X-60245D03*
X-50085Y311210D03*
X-53155D03*
X-262965Y35000D03*
X-266035D03*
X-246765Y180800D03*
X-249835D03*
X-82135Y336900D03*
X-79065D03*
G54D28*
X-314551Y246074D03*
G54D73*
X-60161Y35104D03*
X-35105Y60160D03*
G54D91*
X-170000Y25600D03*
Y31400D03*
G54D64*
X-98060Y11047D03*
G54D37*
X-297047Y170500D03*
X-302953D03*
G54D55*
X-334600Y281544D03*
Y287056D03*
G54D82*
X-24264Y147648D03*
G54D19*
X-327554Y47495D03*
X-47495Y66146D03*
G54D65*
X-116538Y25074D03*
G54D29*
X-339066Y147600D03*
X-322334D03*
X-339066Y246070D03*
X-322334D03*
X-185516Y147620D03*
X-168784D03*
X-185516Y246100D03*
X-168784D03*
X-47736Y147620D03*
X-31004D03*
Y246058D03*
X-47736D03*
G54D74*
X-16535Y196851D03*
G54D38*
X-319685Y307885D03*
X-317515Y305715D03*
X-316685Y310885D03*
X-314515Y308715D03*
X-313585Y313985D03*
X-311415Y311815D03*
X-308415Y314815D03*
X-325785Y301785D03*
X-323615Y299615D03*
X-322785Y304785D03*
X-320615Y302615D03*
X-347685Y291985D03*
X-345515Y289815D03*
X-344685Y294985D03*
X-342515Y292815D03*
X-339515Y295815D03*
X-341685Y297985D03*
X-306585Y353085D03*
X-304415Y350915D03*
X-310585Y316985D03*
X-307485Y320085D03*
X-305315Y317915D03*
X-304485Y323085D03*
X-302315Y320915D03*
G54D92*
X-230146Y133800D03*
X-233454D03*
X-240354Y134100D03*
X-237046D03*
X-220800Y113046D03*
Y116354D03*
G54D83*
X-58744Y147649D03*
G54D47*
X-323002Y82717D03*
X-304908Y64623D03*
G54D56*
X-342323Y156102D03*
Y237598D03*
G54D75*
X-25074Y277163D03*
G54D84*
X-24264Y246074D03*
G54D57*
X-345374Y160433D03*
X-315649Y163385D03*
Y161417D03*
X-345374Y164370D03*
Y162401D03*
X-315649Y169291D03*
Y167322D03*
Y165354D03*
X-345374Y168307D03*
Y166338D03*
Y170275D03*
X-315649Y181102D03*
Y179133D03*
Y183070D03*
X-345374Y180118D03*
Y182086D03*
X-315649Y185039D03*
Y187007D03*
X-345374Y186023D03*
Y184055D03*
X-315649Y188976D03*
Y190944D03*
X-345374Y189960D03*
Y187992D03*
X-315649Y192913D03*
Y194881D03*
X-345374Y193897D03*
Y191929D03*
X-315649Y196850D03*
Y198819D03*
X-345374Y197834D03*
Y195866D03*
Y199803D03*
X-315649Y202756D03*
Y200787D03*
X-345374Y201771D03*
Y203740D03*
X-315649Y206693D03*
Y204724D03*
X-345374Y205708D03*
Y207677D03*
X-315649Y210630D03*
Y208661D03*
X-345374Y209645D03*
Y211614D03*
X-315649Y214567D03*
Y212598D03*
Y216535D03*
X-345374Y213582D03*
Y215551D03*
X-315649Y218504D03*
Y220472D03*
X-345374Y219488D03*
Y217519D03*
X-315649Y222441D03*
Y224409D03*
X-345374Y223425D03*
Y221456D03*
X-315649Y226378D03*
Y228346D03*
X-345374Y227362D03*
Y225393D03*
Y229330D03*
X-315649Y232283D03*
Y230315D03*
X-345374Y231299D03*
Y233267D03*
G54D93*
X-232745Y130800D03*
X-230855D03*
X-237755Y131100D03*
X-239645D03*
X-271945Y185500D03*
X-270055D03*
G54D39*
X-357015Y303985D03*
X-359185Y301815D03*
X-299287Y51600D03*
X-301457Y49430D03*
X-293287Y57100D03*
X-295457Y54930D03*
G54D66*
X-257200Y20100D03*
X-31400Y96900D03*
X-247500Y382700D03*
G54D48*
X-313258Y86894D03*
X-311867Y85502D03*
X-310475Y84110D03*
X-309083Y82718D03*
X-307691Y81326D03*
X-306299Y79934D03*
X-304907Y78542D03*
X-303515Y77150D03*
X-302123Y75758D03*
X-300731Y74367D03*
G54D85*
X-58744Y246074D03*
G54D94*
X-193500Y32500D03*
G54D49*
X-287814Y69557D03*
X-270136Y51879D03*
G54D58*
X-345928Y328668D03*
X-328668Y345928D03*
G54D67*
X-143126Y17350D03*
Y9870D03*
X-152574Y17350D03*
Y9870D03*
Y13610D03*
G54D76*
X-193500Y32500D03*
X-191925Y34469D03*
Y30531D03*
X-195075D03*
Y34469D03*
G54D68*
X-65591Y48050D03*
G54D86*
X-200000Y136555D03*
Y138445D03*
X-202500Y136555D03*
Y138445D03*
X-200000Y142445D03*
Y140555D03*
X-202500D03*
Y142445D03*
X-223700Y115645D03*
Y113755D03*
G54D95*
X-199307Y36339D03*
Y33780D03*
Y31220D03*
Y28661D03*
G54D59*
X-295641Y382651D03*
X-251314Y400113D03*
G54D77*
X-127259Y68562D03*
X-132617Y66081D03*
X-137977Y63599D03*
X-143335Y61118D03*
G54D78*
X-195489Y147649D03*
G54D96*
X-187693Y36339D03*
Y33780D03*
Y31220D03*
Y28661D03*
G54D87*
X-174516Y78500D03*
X-176484D03*
X-181984D03*
X-180016D03*
X-168516D03*
X-170484D03*
X-189984D03*
X-188016D03*
G54D69*
X-72759Y50626D03*
X-50627Y72758D03*
G54D79*
X-195489Y246074D03*
G54D97*
X-185484Y68453D03*
X-183516D03*
X-185484Y66484D03*
X-183516D03*
X-185484Y64516D03*
X-183516D03*
X-185484Y62547D03*
X-183516D03*
X-173984Y68453D03*
X-172016D03*
X-173984Y66484D03*
X-172016D03*
X-173984Y64516D03*
X-172016D03*
X-173984Y62547D03*
X-172016D03*
G54D88*
X-218307Y100969D03*
X-216693D03*
X-218307Y97031D03*
X-216693D03*
G54D98*
X-197953Y61185D03*
Y71815D03*
X-195984Y61185D03*
Y71815D03*
X-194016Y61185D03*
Y71815D03*
X-192047Y61185D03*
Y71815D03*
G54D89*
X-57121Y128701D03*
G54D99*
X-195000Y66500D03*
M02*
