M48
INCH,TZ
T01C.004
T02C.008
T03C.01
T04C.014
T05C.016
T06C.018
T07C.075
T08C.146
T09C.028
T10C.03
T11C.035
T12C.043
T13C.063
T14C.085
;LEADER: 12 
;HEADER: 
;CODE  : ASCII 
;FILE  : ORWL_Design_SHIFT-3-4.drl for  ... layers GND1 and IN2
;T01 Holesize 1. = 4.000000 Tolerance = +0.000000/-0.000000 PLATED MILS Quantity = 481
%
G90
T01
X-362700Y184900
X-345374Y187992
X-359500Y185000
X-363000Y180500
X-345374Y184055
X-359500Y180800
X-345374Y182086
X-340962Y166338
X-359700Y172000
X-359114Y176000
X-350200Y169900
X-362100Y172100
X-340820Y164370
X-369500Y139614
X-380000Y139614
X-310589Y188099
X-376500Y139614
X-373000Y139614
X-340900Y134100
X-353200Y144300
X-345374Y186023
X-313700Y103000
X-315000Y103000
X-314000Y104300
X-318800Y104400
X-319900Y103200
X-319900Y104400
X-315200Y104300
X-316200Y104300
X-312900Y104300
X-316100Y103000
X-312600Y103100
X-318800Y103200
X-310500Y175500
X-364035Y207100
X-364035Y203000
X-364035Y195000
X-364035Y199000
X-345374Y189960
X-357300Y287100
X-309400Y218900
X-308594Y215739
X-305866Y193701
X-378700Y242300
X-378700Y240586
X-380600Y244500
X-367000Y240114
X-299500Y286900
X-319200Y279400
X-365800Y283100
X-379400Y235600
X-379400Y236700
X-354600Y279000
X-353500Y279000
X-352500Y279000
X-354600Y277900
X-353500Y277900
X-351500Y279000
X-302130Y216200
X-297500Y363000
X-211500Y344200
X-248800Y342600
X-229600Y341700
X-283300Y339400
X-206300Y342200
X-207400Y342200
X-254600Y367300
X-228200Y341700
X-290979Y295443
X-267300Y192300
X-254000Y192000
X-265800Y194700
X-254300Y194100
X-283700Y201500
X-295927Y215285
X-298614Y212500
X-261500Y192500
X-263500Y192500
X-254800Y195700
X-255900Y199600
X-261367Y189284
X-241294Y196253
X-227123Y202217
X-223323Y202117
X-219494Y202039
X-238523Y202217
X-230923Y202217
X-216094Y202153
X-234723Y202217
X-238794Y203653
X-242694Y199653
X-247622Y213438
X-247602Y209041
X-247601Y206821
X-247570Y226636
X-247596Y211240
X-247602Y215630
X-247494Y217753
X-247602Y228856
X-247589Y233220
X-247556Y231054
X-247602Y224418
X-221660Y218092
X-219430Y217999
X-223626Y209275
X-223586Y218108
X-221656Y222504
X-227510Y218069
X-229498Y218170
X-219394Y212753
X-229694Y227153
X-224001Y227121
X-225552Y227121
X-225571Y231142
X-223603Y231154
X-229570Y231185
X-229545Y222527
X-221860Y227221
X-227494Y235653
X-220501Y227225
X-225594Y235553
X-221649Y231158
X-219660Y231127
X-229494Y235653
X-227544Y227121
X-227380Y231220
X-219294Y208053
X-219564Y222473
X-223634Y213804
X-225490Y213820
X-225513Y218092
X-227506Y222441
X-221644Y209290
X-225590Y209244
X-223602Y222499
X-227524Y209267
X-229427Y209244
X-221699Y213835
X-225587Y222468
X-229506Y213873
X-227548Y213866
X-204694Y213439
X-209194Y213439
X-200194Y213439
X-200194Y229667
X-204694Y229667
X-209194Y229667
X-217598Y218053
X-217442Y222489
X-217749Y227121
X-224994Y244553
X-224994Y243453
X-223994Y243353
X-229394Y241953
X-231394Y242953
X-255994Y244453
X-252800Y244400
X-230394Y241953
X-256994Y244453
X-256994Y243453
X-256994Y242453
X-255994Y242453
X-255994Y243453
X-257994Y244453
X-257994Y243453
X-223968Y242331
X-230394Y242953
X-229394Y242953
X-238894Y241653
X-265894Y239553
X-281800Y252000
X-290600Y197400
X-286300Y241200
X-235800Y192600
X-234000Y190386
X-247100Y192500
X-289077Y202606
X-290089Y189183
X-290276Y190213
X-230800Y164400
X-229700Y164500
X-256236Y98764
X-284114Y120500
X-192047Y71815
X-195984Y61185
X-197953Y61185
X-194016Y71815
X-251118Y101323
X-284114Y117000
X-240882Y96205
X-243441Y96205
X-208280Y145547
X-202500Y136555
X-208280Y147516
X-200000Y136555
X-212610Y141217
X-210642Y141217
X-228358Y141217
X-226390Y141217
X-200000Y140555
X-202500Y140555
X-181984Y78500
X-174600Y84300
X-172400Y84300
X-188016Y78500
X-201000Y130640
X-265300Y186300
X-256100Y185000
X-265100Y184000
X-256100Y183500
X-214600Y154200
X-208000Y154100
X-262114Y185400
X-262114Y182600
X-143335Y61118
X-132617Y66081
X-156700Y20900
X-155700Y20900
X-154700Y20900
X-157700Y20900
X-242300Y100100
X-240882Y111559
X-246000Y114118
X-238500Y126000
X-222200Y105200
X-214500Y114114
X-239500Y126000
X-243000Y126000
X-241907Y126000
X-240500Y126000
X-244000Y126000
X-238323Y103882
X-181600Y-300
X-181400Y900
X-217600Y108700
X-215800Y98500
X-155200Y40500
X-153200Y40500
X-152100Y40500
X-154200Y40500
X-169100Y56400
X-168100Y56400
X-169100Y57400
X-168100Y57400
X-274000Y129386
X-273300Y152000
X-274500Y152500
X-298500Y147114
X-157700Y62786
X-283000Y185500
X-240035Y151000
X-286500Y185500
X-240035Y155000
X-279500Y185500
X-240035Y142500
X-276000Y185500
X-240035Y147000
X-248700Y96200
X-248559Y98764
X-238323Y96205
X-245700Y96200
X-218516Y141217
X-216547Y141217
X-222453Y141217
X-220484Y141217
X-152400Y78600
X-275900Y104900
X-248559Y103882
X-214100Y132500
X-206600Y134600
X-174614Y82500
X-172386Y82500
X-271000Y142101
X-279169Y142266
X-267386Y140941
X-283436Y143259
X-259400Y95900
X-248300Y127600
X-290130Y156390
X-297948Y167678
X-285791Y141861
X-234800Y180300
X-191700Y62600
X-228400Y142700
X-210600Y142700
X-212600Y142700
X-216500Y142700
X-218600Y142700
X-222400Y142800
X-220400Y142700
X-223900Y141200
X-229800Y141300
X-224900Y141200
X-226300Y142700
X-204083Y141708
X-204119Y136706
X-201038Y135128
X-251900Y164100
X-239000Y167035
X-235000Y167035
X-223000Y167035
X-219500Y167035
X-215500Y167035
X-211500Y167035
X-207500Y167035
X-204000Y167035
X-200000Y142445
X-202500Y142445
X-243441Y109000
X-270300Y181300
X-274600Y181600
X-291400Y164200
X-290200Y164200
X-256300Y164100
X-255100Y164100
X-297886Y175500
X-204800Y75100
X-204800Y73500
X-203400Y83900
X-252713Y61935
X-204300Y82300
X-250407Y61780
X-295600Y81900
X-294200Y81800
X-165886Y188500
X-168320Y188500
X-169350Y188450
X-167230Y188510
X-244000Y51000
X-244000Y49500
X-159350Y175550
X-243900Y59300
X-243900Y60400
X-261300Y79900
X-266800Y77300
X-264000Y33000
X-195500Y157000
X-177360Y125810
X-189016Y99543
X-208205Y2550
X-202300Y2500
X-177500Y127965
X-230521Y5043
X-198374Y140511
X-198338Y142433
X-189114Y104000
X-177500Y131035
X-247105Y69366
X-154100Y95700
X-155300Y96700
X-151300Y169300
X-169460Y203510
X-165886Y203500
X-165886Y200500
X-165886Y197500
X-165886Y194500
X-165886Y191500
X-169370Y200510
X-169430Y197480
X-168370Y197480
X-169410Y194530
X-168290Y191530
X-168370Y203510
X-168320Y200510
X-169310Y191550
X-167260Y203480
X-168340Y194510
X-167250Y191510
X-167250Y194510
X-167230Y197510
X-167230Y200460
X-167860Y218300
X-169480Y216240
X-169480Y213040
X-167810Y215090
X-170270Y214770
X-168440Y216260
X-168440Y213060
X-167400Y216290
X-167400Y213090
X-166086Y213100
X-166086Y216300
X-166186Y226000
X-169480Y222740
X-169580Y225940
X-166086Y222800
X-166186Y219500
X-167500Y219490
X-168440Y222760
X-167400Y222790
X-168540Y219460
X-170410Y221220
X-167910Y221550
X-168540Y225960
X-167500Y225990
X-170380Y211820
X-169480Y210240
X-166086Y210300
X-167400Y210290
X-168440Y210260
X-169580Y219440
X-170080Y218240
X-195694Y213439
X-195694Y229667
X-118400Y242900
X-103500Y220600
X-104600Y220600
X-99100Y244900
X-109600Y242000
X-118900Y199100
X-118600Y196900
X-99700Y255100
X-122406Y341406
X-138100Y318500
X-124500Y310614
X-115500Y310614
X-131412Y309290
X-109110Y327950
X-109100Y341400
X-120437Y341406
X-122400Y328000
X-122406Y329594
X-138100Y319700
X-110200Y328000
X-109100Y329000
X-183600Y347200
X-180114Y367000
X-121440Y306338
X-196420Y356010
X-154594Y335457
X-155400Y336700
X-177814Y363487
X-154700Y360100
X-153200Y297200
X-112563Y343000
X-192900Y361600
X-120437Y331563
X-175400Y359900
X-147800Y358400
X-149886Y350500
X-175500Y361000
X-176000Y342000
X-177114Y342000
X-147817Y359423
X-98610Y363346
X-97671Y311084
X-98400Y325800
X-83400Y358000
X-85000Y359000
X-73562Y238000
X-75200Y226900
X-98700Y255100
X-60800Y138000
X-72167Y141700
X-61700Y140100
X-45600Y144300
X-73000Y161886
X-76000Y165114
X-39600Y134600
X-39600Y135900
X-76000Y160114
X-83000Y160114
X-47500Y175500
X-47500Y176900
X-76400Y105500
X-80386Y163500
X-83000Y166886
X-50200Y152200
X-73114Y180000
X-78600Y160000
X-86000Y166886
X-73700Y141000
X-53386Y139000
X-78900Y144500
X-64900Y150700
X-51600Y142500
X-74500Y107614
X-54100Y115400
X-86535Y144000
X-72614Y183500
X-51600Y139000
M30
