M48
INCH,TZ
T01C.004
T02C.008
T03C.01
T04C.014
T05C.016
T06C.018
T07C.075
T08C.146
T09C.028
T10C.03
T11C.035
T12C.043
T13C.063
T14C.085
;LEADER: 12 
;HEADER: 
;CODE  : ASCII 
;FILE  : ORWL_Design_SHIFT-1-2.drl for  ... layers TOP and IN1
;T01 Holesize 1. = 4.000000 Tolerance = +0.000000/-0.000000 PLATED MILS Quantity = 2031
%
G90
T01
X-299955Y75170
X-300755Y74370
X-304855Y64670
X-323002Y82717
X-307576Y26193
X-300724Y60313
X-299287Y51600
X-313258Y86894
X-359100Y187200
X-362700Y184900
X-345374Y187992
X-359500Y185000
X-363000Y180500
X-345374Y184055
X-359500Y180800
X-345374Y182086
X-340962Y166338
X-359700Y172000
X-359114Y176000
X-350200Y169900
X-362100Y172100
X-340820Y164370
X-369500Y139614
X-380000Y139614
X-310589Y188099
X-376500Y139614
X-373000Y139614
X-353200Y144300
X-372035Y145500
X-322300Y147500
X-310700Y147700
X-309605Y114202
X-299311Y124207
X-301341Y140301
X-305836Y128846
X-329469Y130441
X-329324Y115942
X-342518Y116087
X-330700Y147600
X-348463Y134211
X-354200Y180700
X-345374Y180118
X-358467Y153495
X-346400Y147600
X-354200Y147800
X-354300Y162000
X-380535Y145500
X-377362Y151028
X-382087Y151028
X-387205Y165299
X-362795Y165299
X-345374Y160433
X-345374Y162401
X-339066Y147600
X-354320Y185984
X-354320Y188484
X-345374Y186023
X-304717Y159501
X-306866Y163501
X-360886Y176000
X-318800Y103200
X-318800Y104400
X-319900Y103200
X-319900Y104400
X-305914Y187400
X-311300Y159800
X-310100Y160900
X-310000Y159800
X-311400Y162200
X-311300Y160900
X-310100Y162200
X-310100Y163500
X-311400Y163400
X-364035Y207100
X-364035Y203000
X-364035Y195000
X-364035Y199000
X-363500Y230300
X-345374Y213582
X-345374Y211614
X-360300Y230400
X-345374Y193897
X-359100Y188700
X-345374Y195866
X-345374Y189960
X-357300Y287100
X-303114Y221200
X-304886Y224500
X-334600Y287056
X-303394Y227553
X-321900Y213700
X-334500Y213800
X-336570Y214270
X-336590Y215590
X-335610Y216330
X-334530Y216120
X-335590Y214930
X-335560Y213770
X-335580Y212450
X-334510Y214940
X-334500Y212500
X-309400Y218900
X-360400Y260514
X-334000Y261100
X-299994Y245953
X-311590Y233960
X-303798Y240661
X-308580Y244823
X-345374Y227362
X-360099Y233066
X-304900Y275100
X-308594Y215739
X-315100Y266380
X-311500Y240786
X-311500Y259050
X-360965Y207200
X-345374Y207677
X-360965Y203000
X-345374Y205708
X-360965Y195000
X-345374Y199803
X-345374Y201771
X-360965Y199000
X-302000Y190400
X-305866Y193701
X-378700Y242300
X-378700Y240586
X-380600Y244500
X-308300Y275200
X-302694Y233167
X-306800Y207400
X-374500Y234460
X-374510Y235550
X-367000Y240114
X-305800Y243200
X-339600Y273561
X-327100Y281265
X-300700Y269700
X-305700Y269700
X-300100Y264200
X-302600Y264200
X-302600Y266700
X-300100Y266700
X-303200Y269700
X-302600Y261700
X-305100Y261700
X-300100Y261700
X-300100Y259200
X-302600Y259200
X-305100Y259200
X-300100Y256700
X-305100Y256700
X-302600Y256700
X-314600Y246100
X-347300Y246300
X-354700Y246000
X-322334Y246100
X-327100Y274265
X-334600Y274265
X-360400Y262286
X-330700Y246100
X-336566Y246100
X-339066Y246100
X-341566Y246100
X-345374Y215551
X-345374Y209645
X-345374Y203740
X-345374Y197834
X-354320Y208750
X-354320Y205050
X-354320Y202716
X-345374Y231299
X-345374Y229330
X-345374Y233267
X-367000Y241886
X-354320Y190984
X-354320Y198150
X-354320Y195650
X-345374Y191929
X-354300Y213100
X-354300Y230700
X-309386Y222000
X-313200Y234200
X-305866Y197001
X-303200Y199100
X-300700Y199100
X-300700Y201600
X-300700Y196600
X-303200Y196600
X-303200Y204100
X-300700Y204100
X-303200Y201600
X-360000Y234686
X-366940Y236921
X-362000Y197100
X-304000Y191500
X-308600Y276700
X-308580Y240553
X-365800Y283100
X-302025Y242351
X-308480Y232553
X-379400Y235600
X-379400Y236700
X-354600Y279000
X-353500Y279000
X-352500Y279000
X-354600Y277900
X-353500Y277900
X-351500Y279000
X-319700Y255100
X-316200Y256200
X-318600Y255100
X-317600Y255100
X-319700Y252900
X-319700Y254000
X-317600Y254000
X-318600Y254000
X-318600Y252900
X-321533Y226352
X-320570Y226927
X-320382Y228679
X-321230Y229830
X-321466Y228786
X-322270Y229700
X-322469Y227020
X-323350Y229270
X-322496Y225870
X-321466Y227609
X-322455Y228211
X-320170Y229810
X-350600Y234300
X-363300Y234686
X-302130Y216200
X-314200Y237500
X-315400Y237500
X-313100Y237500
X-316500Y237500
X-301420Y318320
X-302620Y317020
X-318490Y299010
X-319560Y297950
X-306900Y311000
X-308346Y309554
X-312500Y304900
X-313700Y303900
X-338685Y300985
X-305600Y310300
X-321030Y297860
X-311500Y305900
X-314700Y302900
X-317400Y299900
X-299800Y317200
X-301200Y315700
X-336515Y298815
X-307600Y308300
X-339515Y295815
X-303300Y343600
X-304300Y344700
X-302200Y342400
X-306585Y353085
X-303585Y356085
X-309200Y298300
X-302200Y359800
X-301400Y360600
X-358400Y298100
X-359300Y299000
X-357400Y297100
X-231400Y352551
X-243100Y352551
X-297500Y363000
X-273594Y319553
X-271994Y319553
X-271994Y320853
X-273594Y320853
X-277094Y290253
X-275694Y290253
X-243894Y290508
X-241349Y290508
X-201394Y295053
X-201394Y293453
X-211500Y344200
X-201600Y341500
X-200500Y341500
X-281694Y295753
X-257739Y312332
X-267685Y308286
X-267685Y302386
X-263539Y312332
X-207649Y313753
X-208149Y296753
X-281249Y313053
X-270694Y327053
X-243894Y296353
X-237000Y382700
X-225662Y354881
X-218000Y356886
X-229600Y341700
X-248780Y291953
X-248780Y295653
X-247494Y312553
X-249694Y312567
X-295490Y291880
X-206300Y342200
X-207400Y342200
X-208694Y330667
X-200694Y330667
X-283139Y313053
X-271700Y374100
X-260694Y330667
X-256694Y330667
X-264694Y330667
X-268694Y330667
X-268749Y327053
X-232994Y330667
X-236694Y330667
X-244694Y330667
X-240694Y330667
X-226500Y330614
X-252694Y330667
X-248694Y330667
X-204694Y330667
X-272694Y330667
X-287000Y362500
X-280694Y330667
X-276694Y330667
X-275100Y306800
X-283639Y296253
X-269839Y302453
X-269839Y308453
X-269839Y315153
X-207800Y306200
X-199494Y292308
X-209539Y313753
X-240194Y322608
X-249294Y314339
X-245594Y314339
X-243894Y294353
X-240649Y308053
X-210039Y296753
X-263594Y314198
X-257794Y314198
X-251394Y319408
X-288000Y369886
X-209500Y343114
X-245080Y325053
X-216386Y347500
X-215000Y356886
X-214300Y360300
X-257200Y322100
X-251500Y326114
X-294000Y363000
X-218700Y350100
X-220800Y350200
X-264300Y366000
X-228200Y341700
X-277194Y304284
X-261400Y325300
X-261394Y324153
X-204694Y306253
X-242994Y308053
X-290979Y295443
X-289700Y244900
X-285717Y193599
X-287042Y191182
X-292800Y242100
X-273700Y224514
X-277700Y224514
X-273700Y217486
X-277700Y217486
X-263600Y240900
X-269900Y218900
X-270000Y221700
X-279800Y213800
X-272414Y236700
X-268114Y233300
X-277500Y207100
X-286100Y208786
X-281700Y210300
X-273914Y205400
X-283000Y207014
X-275586Y208700
X-273814Y212000
X-267300Y192300
X-254000Y192000
X-265800Y194700
X-254300Y194100
X-281700Y218400
X-295927Y215285
X-298614Y212500
X-270800Y242100
X-293814Y189600
X-262114Y191100
X-262114Y193900
X-261114Y200100
X-261114Y197100
X-258800Y201900
X-258200Y204500
X-254800Y195700
X-255900Y199600
X-261367Y189284
X-278294Y196853
X-272500Y195300
X-225100Y195386
X-224300Y191600
X-216300Y191600
X-241294Y196253
X-249700Y202500
X-211794Y207453
X-212500Y189886
X-209100Y189786
X-243994Y206653
X-233675Y228880
X-233649Y231201
X-233801Y226421
X-234400Y234800
X-227123Y202217
X-223323Y202117
X-219494Y202039
X-238523Y202217
X-230923Y202217
X-216094Y202153
X-234723Y202217
X-238794Y203653
X-245356Y224462
X-245456Y228862
X-245356Y231062
X-245456Y226662
X-233738Y222043
X-233894Y213953
X-233594Y218953
X-233594Y224353
X-244168Y214231
X-242694Y199653
X-249700Y200900
X-247602Y228856
X-247570Y226636
X-247589Y233220
X-247494Y217753
X-247556Y231054
X-247602Y224418
X-247622Y213438
X-247602Y209041
X-262908Y237353
X-213194Y207453
X-219430Y217999
X-227506Y222441
X-227548Y213866
X-229506Y213873
X-229427Y209244
X-223626Y209275
X-229545Y222527
X-223586Y218108
X-219564Y222473
X-227510Y218069
X-229498Y218170
X-219394Y212753
X-219294Y208053
X-223602Y222499
X-229694Y227153
X-227544Y227121
X-229570Y231185
X-227380Y231220
X-227494Y235653
X-220501Y227225
X-229494Y235653
X-225594Y235553
X-223634Y213804
X-227524Y209267
X-204694Y213439
X-209194Y213439
X-200194Y213439
X-200194Y229667
X-204694Y229667
X-209194Y229667
X-224001Y227121
X-237428Y231025
X-237460Y228848
X-237446Y226627
X-237550Y224418
X-239244Y223680
X-239208Y226398
X-239195Y228822
X-239096Y231551
X-237794Y209003
X-239283Y212108
X-238004Y212101
X-238400Y215500
X-239228Y218893
X-237976Y218879
X-237976Y216677
X-239294Y208753
X-275694Y288453
X-277100Y288400
X-283349Y232353
X-262580Y218053
X-283149Y222653
X-282614Y215200
X-283149Y220053
X-296314Y224800
X-294600Y238114
X-295400Y218886
X-270394Y216439
X-259694Y236608
X-265900Y230800
X-262908Y227853
X-283349Y234853
X-277094Y238553
X-283349Y237353
X-267849Y236853
X-280287Y238700
X-287320Y239190
X-247322Y237416
X-249893Y237369
X-240894Y237653
X-239494Y236953
X-225823Y238186
X-228394Y237953
X-223323Y238086
X-230568Y237953
X-243294Y237653
X-254400Y233200
X-254300Y230800
X-253300Y229300
X-255300Y227700
X-254700Y229000
X-254700Y226600
X-253200Y230700
X-252900Y233300
X-253200Y235700
X-252600Y236500
X-280086Y211900
X-257439Y223353
X-269414Y205400
X-269408Y208653
X-269414Y211900
X-262749Y219908
X-282700Y212400
X-267194Y222053
X-266594Y225653
X-263894Y210453
X-266794Y215453
X-253694Y219253
X-245394Y242208
X-251200Y242300
X-219968Y242331
X-226078Y242331
X-242894Y242208
X-252694Y246298
X-252800Y244400
X-250194Y246298
X-247194Y242208
X-213465Y257824
X-233694Y257808
X-224900Y257500
X-242594Y256653
X-233594Y252853
X-213594Y252353
X-230394Y242953
X-229394Y242953
X-229394Y241953
X-242694Y246298
X-224694Y252653
X-242594Y252753
X-224694Y248653
X-233594Y248253
X-230394Y241953
X-231394Y242953
X-223968Y242331
X-252694Y257808
X-252494Y253153
X-247694Y246298
X-267394Y287398
X-235894Y239854
X-243994Y288153
X-265894Y239553
X-281900Y230500
X-288600Y221800
X-288700Y220100
X-287100Y211200
X-287200Y214502
X-274600Y215700
X-276200Y215700
X-298074Y221575
X-298800Y214800
X-275764Y227600
X-275793Y229000
X-254200Y243000
X-240794Y244553
X-211294Y248153
X-214094Y244553
X-276800Y196700
X-204180Y241853
X-204180Y247353
X-202408Y251353
X-270394Y214667
X-281800Y252000
X-289000Y208700
X-263494Y244953
X-207400Y193200
X-272094Y227620
X-268700Y203700
X-262400Y208200
X-272400Y235000
X-290479Y246949
X-280400Y241986
X-274800Y238500
X-292851Y249305
X-297800Y206800
X-294694Y234939
X-298694Y233167
X-221100Y191700
X-269886Y233300
X-298086Y227900
X-289286Y226925
X-274900Y235100
X-287080Y250553
X-278530Y260170
X-297625Y239200
X-293400Y207800
X-288900Y206900
X-290300Y200100
X-261503Y241329
X-277094Y240353
X-286300Y241200
X-242694Y249153
X-253794Y241653
X-283700Y241986
X-258410Y240935
X-223100Y198700
X-235800Y192600
X-293100Y262500
X-293700Y265600
X-288390Y260630
X-253494Y239353
X-256100Y232500
X-259500Y228500
X-259400Y227100
X-251049Y259698
X-221394Y260053
X-211594Y260153
X-231994Y259953
X-202408Y247353
X-203394Y239553
X-209280Y242767
X-252494Y238353
X-204180Y251353
X-262394Y285408
X-267394Y285508
X-238294Y261453
X-253494Y238353
X-218033Y245654
X-219640Y239640
X-218100Y242687
X-252494Y239353
X-282386Y189000
X-287700Y197500
X-278314Y211900
X-284386Y211900
X-284386Y215200
X-275580Y262053
X-285239Y234853
X-285180Y229853
X-285039Y222653
X-285180Y226353
X-285039Y220053
X-285180Y232353
X-285239Y237353
X-280194Y270267
X-280580Y258053
X-275580Y250053
X-275133Y192895
X-278808Y246053
X-298194Y245439
X-298200Y199100
X-298200Y204100
X-298200Y201600
X-298200Y196600
X-235274Y228845
X-235253Y231061
X-235233Y226573
X-229525Y228825
X-227418Y233211
X-241794Y228829
X-243105Y228915
X-243110Y224183
X-241953Y211150
X-241890Y209031
X-229794Y205353
X-228494Y205553
X-229494Y206853
X-229594Y211053
X-235307Y224349
X-223594Y211053
X-223369Y215627
X-235294Y208953
X-219394Y206053
X-216694Y206053
X-221394Y205353
X-223594Y206853
X-222794Y205553
X-251094Y211453
X-250601Y216321
X-250394Y220653
X-249694Y217853
X-250094Y233853
X-250094Y231653
X-250094Y226853
X-250394Y219653
X-250194Y229153
X-251094Y208153
X-243148Y226572
X-243063Y231319
X-219480Y228984
X-229494Y233253
X-227000Y228900
X-223497Y228787
X-223662Y233161
X-242394Y214353
X-241643Y226610
X-227494Y206853
X-219394Y215853
X-219594Y224253
X-223235Y224222
X-229610Y215579
X-227590Y215625
X-229494Y220170
X-227594Y220053
X-221625Y224344
X-229440Y224577
X-227259Y224372
X-227094Y211053
X-219594Y211067
X-226694Y205553
X-224494Y205553
X-250701Y214021
X-250194Y224153
X-253594Y208508
X-253594Y212508
X-241944Y231349
X-241818Y224307
X-221655Y233392
X-242206Y233678
X-237514Y234480
X-271200Y208300
X-264700Y237100
X-264639Y221853
X-228049Y244753
X-242894Y244039
X-245394Y244039
X-265394Y211608
X-219494Y200367
X-215694Y200367
X-230923Y200445
X-234723Y200445
X-238523Y200445
X-245794Y198053
X-245094Y196753
X-227123Y200445
X-239508Y196153
X-245794Y199353
X-265394Y207608
X-268194Y200167
X-270114Y189000
X-253900Y202300
X-264680Y227853
X-264639Y224353
X-264700Y233800
X-248594Y287039
X-200194Y231439
X-227968Y242331
X-204694Y231439
X-239494Y247739
X-221300Y200400
X-208694Y198667
X-205794Y209253
X-204694Y211667
X-206894Y211653
X-207794Y208453
X-202494Y209253
X-200194Y211667
X-200294Y209153
X-204594Y209253
X-201394Y209153
X-203594Y209253
X-202494Y211653
X-269739Y236853
X-271186Y205400
X-269639Y224053
X-269639Y227053
X-269629Y228471
X-271186Y211900
X-251100Y244100
X-260694Y218053
X-259694Y238498
X-255694Y223253
X-262914Y231000
X-211994Y198467
X-215694Y194953
X-247794Y244039
X-209194Y231439
X-222078Y242331
X-233844Y239203
X-281500Y204500
X-277320Y247730
X-221694Y193667
X-278900Y191200
X-234000Y190386
X-291900Y284000
X-288340Y257190
X-290694Y239939
X-225994Y197653
X-212500Y194286
X-281500Y213800
X-295294Y245439
X-297894Y241853
X-214400Y192500
X-211994Y200239
X-203363Y195658
X-293986Y229700
X-253594Y210398
X-247100Y192500
X-253600Y205700
X-253594Y214398
X-250500Y199000
X-245300Y192400
X-267749Y229853
X-283408Y226353
X-283349Y229853
X-262494Y287398
X-261408Y232167
X-289077Y202606
X-290089Y189183
X-290276Y190213
X-149600Y36700
X-149600Y26900
X-187100Y56700
X-188200Y56700
X-182500Y56000
X-183614Y56000
X-230800Y164400
X-229700Y164500
X-289471Y115921
X-296903Y116952
X-256236Y98764
X-284114Y120500
X-192047Y71815
X-195984Y61185
X-197953Y61185
X-194016Y71815
X-251118Y101323
X-284114Y117000
X-240882Y96205
X-243441Y96205
X-246753Y139028
X-240882Y119236
X-257900Y130300
X-273392Y130750
X-279500Y132414
X-260300Y122700
X-276813Y130750
X-253677Y119236
X-208280Y145547
X-202500Y136555
X-208280Y147516
X-200000Y136555
X-269900Y136559
X-272545Y137000
X-288772Y131890
X-276800Y137500
X-167900Y51800
X-212610Y141217
X-210642Y141217
X-228358Y141217
X-226390Y141217
X-200000Y140555
X-202500Y140555
X-181984Y78500
X-174600Y84300
X-172400Y84300
X-188016Y78500
X-201000Y130640
X-168600Y39400
X-168600Y40500
X-168600Y38400
X-168600Y37400
X-169700Y39400
X-169600Y38400
X-169600Y37300
X-168900Y36400
X-170000Y36300
X-170700Y37300
X-170700Y38400
X-170700Y39600
X-168900Y35200
X-170200Y35200
X-170900Y40700
X-169700Y40500
X-265300Y186300
X-256100Y185000
X-265100Y184000
X-256100Y183500
X-175100Y50000
X-214600Y154200
X-208000Y154100
X-171500Y56386
X-174500Y56386
X-179114Y50000
X-182300Y50000
X-281620Y95019
X-279359Y96560
X-277200Y124500
X-277700Y121500
X-262114Y185400
X-262114Y182600
X-143335Y61118
X-132617Y66081
X-243441Y116677
X-254500Y132000
X-248559Y114118
X-257500Y132000
X-213800Y126700
X-235764Y119236
X-237800Y123300
X-223600Y127000
X-240882Y116677
X-250600Y137300
X-246000Y109000
X-263500Y119700
X-239700Y120400
X-245800Y137300
X-218900Y127200
X-235764Y121795
X-239500Y118000
X-247400Y135400
X-239600Y123800
X-238323Y114118
X-243441Y111559
X-254975Y136000
X-253000Y123700
X-246000Y111559
X-248559Y111559
X-263300Y123000
X-248559Y109000
X-278500Y119500
X-248559Y106441
X-278500Y112000
X-246000Y106441
X-243441Y106441
X-213900Y96800
X-240882Y106441
X-213300Y98900
X-223200Y122000
X-230300Y112600
X-229550Y118250
X-233205Y111559
X-218600Y120800
X-231600Y110500
X-253500Y111700
X-269535Y121000
X-267300Y186300
X-217600Y114614
X-229200Y110500
X-242900Y93000
X-243441Y101323
X-243441Y103882
X-280500Y126000
X-251118Y111559
X-156700Y20900
X-155700Y20900
X-154700Y20900
X-157700Y20900
X-242300Y100100
X-240882Y111559
X-246000Y114118
X-214900Y111900
X-213700Y111800
X-222200Y105200
X-214500Y114114
X-212800Y118000
X-239114Y137500
X-282670Y123670
X-282000Y129500
X-238323Y103882
X-165800Y3700
X-166400Y4800
X-165200Y4900
X-204600Y185486
X-246000Y184700
X-246765Y180800
X-246038Y185700
X-229300Y185200
X-229262Y186300
X-228735Y181200
X-223000Y110500
X-215800Y98500
X-155200Y40500
X-153200Y40500
X-152100Y40500
X-154200Y40500
X-169100Y56400
X-168100Y56400
X-169100Y57400
X-168100Y57400
X-274000Y129386
X-147100Y33486
X-273300Y152000
X-274500Y152500
X-298500Y147114
X-164764Y54190
X-165800Y54000
X-199600Y97600
X-199600Y101900
X-199600Y98600
X-199600Y99700
X-199600Y100800
X-269100Y163500
X-267900Y163600
X-268600Y164400
X-269700Y164400
X-157700Y62786
X-251035Y151500
X-244100Y160200
X-245500Y161400
X-244200Y161500
X-245500Y160200
X-283000Y185500
X-240035Y151000
X-286500Y185500
X-240035Y155000
X-279500Y185500
X-240035Y142500
X-276000Y185500
X-240035Y147000
X-248700Y96200
X-248559Y98764
X-238323Y96205
X-245700Y96200
X-218516Y141217
X-216547Y141217
X-222453Y141217
X-220484Y141217
X-235764Y103882
X-243441Y114118
X-240882Y109000
X-251118Y106441
X-237200Y110300
X-246000Y103882
X-248559Y103882
X-240882Y103882
X-214100Y132500
X-206600Y134600
X-174614Y82500
X-172386Y82500
X-271000Y142101
X-267386Y140941
X-253677Y114118
X-263600Y118100
X-246300Y98800
X-248300Y127600
X-248559Y119236
X-254500Y89035
X-163135Y5500
X-266886Y94500
X-251500Y134000
X-266886Y97500
X-234800Y180300
X-176400Y29900
X-183516Y64516
X-183516Y66484
X-172800Y70200
X-183386Y70400
X-272000Y100200
X-254940Y105128
X-272000Y101700
X-257500Y102600
X-272000Y103100
X-253677Y103882
X-271000Y98800
X-258795Y101323
X-266400Y124200
X-251118Y114118
X-253677Y109000
X-273536Y97880
X-251118Y96205
X-253677Y94600
X-244800Y93100
X-246000Y101323
X-199100Y117800
X-199100Y113400
X-199100Y112300
X-132900Y49400
X-135100Y49400
X-134000Y50462
X-135100Y51400
X-132900Y51600
X-107040Y70518
X-201038Y135128
X-204119Y136706
X-204083Y141708
X-154844Y5540
X-147300Y24500
X-147300Y23400
X-161335Y17400
X-160786Y21300
X-151574Y13610
X-153574Y13610
X-152574Y13610
X-276114Y152500
X-296600Y164100
X-295157Y154469
X-298500Y154386
X-282386Y146059
X-289843Y150531
X-275386Y113000
X-275386Y109000
X-231450Y167550
X-227500Y167035
X-226000Y92000
X-225900Y89900
X-218307Y100969
X-216693Y100969
X-240882Y114118
X-243500Y156728
X-215100Y105600
X-247500Y133000
X-248400Y129400
X-246000Y119236
X-244800Y128500
X-248886Y148000
X-226500Y110600
X-219965Y110000
X-214500Y115886
X-223500Y106386
X-226500Y106386
X-238323Y106441
X-202500Y112000
X-203300Y112900
X-158564Y53548
X-158549Y57576
X-165700Y49200
X-165700Y50500
X-176886Y50000
X-246900Y89800
X-192047Y61185
X-194000Y78386
X-240614Y90000
X-195000Y66500
X-196614Y80000
X-173984Y66484
X-185484Y66484
X-170600Y86100
X-176400Y85900
X-157700Y61014
X-170600Y82400
X-176400Y82600
X-267386Y146059
X-265157Y153969
X-259843Y150031
X-268614Y155500
X-253700Y158400
X-261559Y142031
X-252200Y105200
X-257500Y134000
X-266500Y125886
X-266400Y121000
X-266000Y130386
X-267886Y112500
X-266000Y104535
X-162900Y36100
X-135200Y37765
X-143800Y40725
X-172900Y36000
X-186600Y33800
X-188900Y33800
X-187693Y33780
X-187693Y31220
X-188800Y31200
X-186600Y31200
X-169500Y32600
X-170800Y32600
X-172000Y43900
X-171000Y43100
X-181990Y31056
X-143800Y42300
X-270386Y149500
X-270000Y159614
X-224500Y185300
X-224538Y186300
X-249700Y184100
X-250700Y184500
X-270055Y185500
X-225665Y181200
X-249835Y180800
X-190200Y20300
X-200700Y166100
X-239000Y167035
X-235000Y167035
X-223000Y167035
X-219500Y167035
X-215500Y167035
X-211500Y167035
X-207500Y167035
X-204000Y167035
X-238323Y109000
X-278500Y117000
X-251118Y109000
X-200000Y142445
X-202500Y142445
X-243441Y109000
X-179114Y53000
X-182300Y53000
X-218000Y188400
X-254000Y181400
X-255900Y181600
X-270300Y181300
X-274600Y181600
X-287290Y94768
X-99700Y87600
X-100800Y87600
X-133300Y87600
X-134500Y87600
X-132200Y87600
X-131000Y87600
X-135700Y87500
X-135700Y86300
X-134500Y86400
X-133300Y86500
X-132100Y86500
X-131000Y86500
X-291400Y164200
X-290200Y164200
X-248300Y188300
X-256300Y164100
X-255100Y164100
X-297886Y175500
X-187463Y52678
X-188569Y52642
X-204800Y75100
X-204800Y73500
X-203400Y83900
X-252713Y61935
X-204300Y82300
X-250407Y61780
X-249500Y49000
X-249500Y48000
X-263000Y39900
X-259000Y53000
X-258000Y54000
X-266400Y34600
X-265700Y35400
X-249600Y75800
X-281100Y59000
X-280000Y42000
X-295600Y81900
X-294200Y81800
X-180800Y165800
X-193500Y165500
X-176900Y99700
X-187047Y99543
X-165886Y188500
X-169350Y188450
X-168320Y188500
X-167230Y188510
X-244000Y51000
X-244000Y49500
X-164000Y180200
X-179300Y138400
X-180200Y141400
X-182400Y141400
X-181300Y141400
X-179200Y141400
X-179400Y140400
X-180500Y140400
X-179300Y139400
X-180400Y139400
X-180400Y138400
X-179300Y137400
X-179300Y136300
X-179300Y135200
X-180400Y137400
X-180400Y136400
X-180500Y135300
X-181600Y135300
X-228300Y28100
X-228311Y29474
X-197891Y98182
X-197860Y99209
X-198982Y102845
X-197891Y100299
X-197844Y101422
X-197875Y102544
X-198784Y96925
X-197638Y96964
X-261300Y79900
X-257200Y81900
X-266800Y77300
X-264000Y33000
X-280000Y40300
X-247984Y61118
X-195500Y157000
X-177360Y125810
X-189016Y99543
X-250566Y68736
X-258700Y88114
X-259061Y84400
X-261231Y84524
X-177500Y127965
X-223800Y29300
X-193000Y91800
X-193000Y92900
X-193700Y109700
X-193700Y108600
X-200400Y55000
X-201400Y55000
X-228985Y47383
X-254793Y64377
X-268400Y43200
X-269600Y42000
X-195600Y112300
X-230300Y22100
X-195500Y116600
X-195600Y113400
X-168883Y147800
X-196800Y113400
X-196700Y116600
X-198000Y117800
X-196800Y117800
X-197900Y116600
X-199000Y116600
X-198000Y113400
X-196800Y112300
X-198000Y112300
X-195600Y117800
X-173500Y107900
X-174700Y107900
X-196000Y95200
X-171200Y107900
X-175900Y107900
X-170000Y107900
X-177100Y123900
X-175300Y120800
X-178800Y120800
X-172400Y107900
X-177100Y107900
X-178200Y107900
X-177700Y120800
X-176500Y120800
X-173600Y123900
X-174800Y123900
X-176000Y123900
X-197000Y94138
X-198000Y95200
X-198000Y93100
X-196000Y93100
X-111330Y104851
X-116913Y105214
X-122948Y101063
X-122930Y98031
X-237110Y24091
X-213591Y11071
X-238240Y11216
X-286552Y14594
X-143300Y147900
X-287900Y55200
X-287100Y56000
X-288788Y54385
X-172800Y142000
X-172800Y140600
X-172800Y135400
X-172800Y136800
X-287814Y69557
X-198374Y140511
X-198338Y142433
X-246500Y85500
X-240500Y80500
X-239000Y79500
X-248000Y86500
X-221596Y88249
X-220218Y79441
X-195600Y147700
X-185517Y147800
X-177200Y147800
X-254500Y85900
X-254500Y52386
X-251500Y52386
X-223000Y38300
X-220400Y33700
X-220500Y36300
X-220400Y38300
X-222900Y33700
X-222900Y36300
X-204800Y38000
X-205700Y38900
X-212670Y29485
X-209900Y43000
X-211200Y43000
X-212400Y43000
X-212400Y44400
X-209900Y44500
X-211135Y44450
X-165200Y98200
X-166000Y99000
X-270100Y50500
X-270136Y51879
X-231600Y35691
X-231745Y27281
X-213900Y75900
X-158200Y165890
X-189114Y104000
X-177500Y131035
X-247105Y69366
X-191300Y165700
X-184800Y166000
X-182700Y166000
X-189300Y165700
X-186800Y165900
X-279468Y28749
X-279468Y27587
X-279468Y26394
X-280692Y28842
X-280661Y27618
X-280661Y26394
X-280600Y25201
X-279223Y25140
X-99700Y88900
X-100798Y88900
X-233513Y35116
X-234890Y35177
X-234951Y36370
X-234951Y37594
X-234982Y38818
X-233758Y36370
X-233758Y37563
X-161400Y92600
X-164000Y93800
X-163700Y96100
X-162400Y96100
X-162400Y95000
X-161000Y95000
X-161000Y96100
X-163900Y95000
X-161300Y93800
X-162600Y93800
X-233758Y38725
X-166000Y179900
X-205900Y50900
X-204800Y50900
X-110700Y248100
X-169460Y203510
X-165886Y203500
X-165886Y200500
X-165886Y197500
X-165886Y194500
X-165886Y191500
X-168370Y197480
X-169430Y197480
X-169370Y200510
X-169410Y194530
X-168290Y191530
X-168370Y203510
X-168320Y200510
X-169310Y191550
X-167260Y203480
X-168340Y194510
X-167250Y191510
X-167250Y194510
X-167230Y197510
X-167230Y200460
X-167860Y218300
X-169480Y216240
X-169480Y213040
X-167810Y215090
X-170270Y214770
X-168440Y216260
X-168440Y213060
X-167400Y216290
X-167400Y213090
X-166086Y213100
X-166086Y216300
X-166186Y226000
X-169480Y222740
X-169580Y225940
X-166086Y222800
X-166186Y219500
X-167500Y219490
X-168440Y222760
X-167400Y222790
X-168540Y219460
X-170410Y221220
X-167910Y221550
X-168540Y225960
X-167500Y225990
X-170380Y211820
X-169480Y210240
X-166086Y210300
X-167400Y210290
X-168440Y210260
X-169580Y219440
X-170080Y218240
X-195694Y213439
X-195694Y229667
X-106500Y242000
X-147450Y225680
X-159400Y224300
X-145300Y224800
X-145300Y226800
X-146400Y226800
X-146500Y223600
X-146400Y224800
X-147450Y226790
X-145400Y223600
X-146400Y225800
X-145300Y225800
X-106700Y246600
X-113100Y246000
X-107600Y250800
X-110600Y222000
X-99700Y226600
X-109400Y217600
X-114086Y221900
X-176294Y285953
X-196594Y285953
X-113400Y238800
X-120700Y200486
X-101400Y235600
X-99100Y244900
X-109600Y242000
X-109600Y231700
X-108200Y246200
X-115998Y223898
X-102700Y237600
X-104486Y228000
X-107200Y233600
X-111000Y232600
X-103000Y229900
X-111200Y225600
X-105200Y250600
X-108700Y254100
X-101400Y224100
X-99500Y218500
X-101200Y247000
X-99600Y230000
X-177200Y246000
X-197000Y245900
X-188600Y246000
X-182200Y246200
X-141323Y246074
X-113700Y257486
X-172200Y246200
X-165200Y246200
X-122086Y195100
X-165549Y287253
X-164400Y226000
X-164300Y222800
X-164300Y213100
X-164100Y194500
X-100900Y219500
X-103600Y256700
X-196594Y284008
X-176794Y284008
X-195694Y231439
X-195694Y211667
X-196694Y209153
X-198994Y209153
X-195594Y209153
X-197894Y211653
X-197894Y209153
X-172580Y279053
X-103900Y222214
X-100700Y233486
X-164100Y191600
X-164100Y188600
X-164300Y210300
X-164100Y203500
X-164100Y200500
X-164100Y197500
X-164400Y219500
X-164300Y216300
X-173880Y287253
X-118900Y199100
X-118600Y196900
X-112414Y236200
X-108100Y226800
X-113175Y234575
X-108200Y235100
X-162700Y278800
X-162700Y279900
X-106700Y238986
X-108700Y238986
X-122406Y341406
X-138100Y318500
X-124500Y310614
X-115500Y310614
X-131412Y309290
X-109100Y341400
X-120437Y341406
X-122400Y328000
X-122406Y329594
X-138100Y319700
X-110200Y328000
X-109100Y329000
X-109110Y327950
X-112300Y368500
X-144359Y356539
X-144500Y348400
X-169494Y295553
X-167894Y295553
X-183600Y347200
X-180114Y367000
X-149400Y338100
X-149400Y339100
X-148100Y309300
X-149000Y308500
X-188827Y299962
X-192873Y309908
X-192873Y304108
X-182927Y299962
X-167939Y300253
X-176894Y323753
X-172094Y321418
X-141286Y325900
X-104689Y347311
X-112563Y345343
X-138300Y304300
X-110594Y345343
X-122848Y309499
X-122406Y337469
X-121440Y306338
X-126343Y327626
X-128200Y315300
X-109200Y306200
X-164200Y363600
X-126343Y335500
X-112700Y366614
X-116500Y339437
X-126343Y343374
X-121500Y312386
X-116500Y331563
X-112563Y337469
X-113900Y362414
X-116500Y341406
X-116300Y375386
X-114531Y339437
X-106657Y339437
X-156900Y338300
X-124093Y321300
X-178875Y347250
X-116700Y362414
X-119200Y343700
X-183700Y352600
X-181886Y367000
X-192600Y346200
X-133900Y324600
X-118400Y361600
X-139614Y336000
X-132300Y326800
X-110594Y333531
X-112563Y333531
X-113600Y307600
X-114531Y331563
X-118900Y309200
X-114531Y329594
X-171994Y317167
X-175694Y317167
X-193094Y320153
X-193108Y318353
X-118469Y339437
X-124500Y312386
X-118469Y329594
X-144114Y353000
X-142900Y357686
X-129400Y334500
X-151100Y356143
X-154594Y335457
X-155400Y336700
X-147900Y348647
X-126343Y333531
X-151700Y351584
X-132000Y334600
X-154700Y360100
X-126343Y331563
X-160547Y363539
X-130800Y329200
X-110594Y339437
X-128311Y339437
X-122406Y347311
X-171994Y318939
X-175694Y318939
X-192694Y330667
X-184694Y330667
X-188694Y330667
X-194880Y318353
X-194880Y322053
X-182994Y297808
X-188994Y297808
X-115600Y303600
X-144500Y308965
X-140500Y308465
X-128000Y308465
X-166049Y295553
X-165849Y305253
X-166049Y300253
X-175494Y297353
X-186780Y365000
X-188594Y326853
X-196694Y330667
X-167580Y319053
X-180694Y330667
X-176694Y330667
X-174894Y323753
X-168694Y330667
X-167580Y327053
X-172694Y330667
X-172094Y323308
X-167580Y323053
X-118500Y310614
X-188000Y292400
X-194739Y309853
X-194739Y304053
X-135114Y312000
X-141286Y319100
X-139514Y322600
X-118469Y341406
X-141386Y333000
X-144114Y359000
X-170000Y350500
X-170000Y357100
X-170100Y344000
X-163400Y344000
X-163500Y350600
X-157000Y350700
X-163200Y357100
X-157000Y357100
X-156900Y344100
X-178886Y342000
X-148114Y350500
X-140000Y350386
X-143000Y350386
X-109400Y365133
X-106100Y364286
X-103300Y363586
X-151300Y359300
X-170390Y363590
X-120437Y333531
X-122406Y335500
X-120437Y337469
X-120437Y335500
X-147900Y335500
X-146500Y317453
X-143614Y330000
X-143614Y327500
X-153200Y297200
X-118000Y359886
X-139614Y333000
X-122406Y333531
X-135114Y309000
X-140500Y345535
X-120900Y358114
X-112000Y359900
X-178300Y348600
X-115200Y359886
X-115600Y307600
X-187000Y343614
X-109500Y359886
X-117400Y332700
X-106657Y345343
X-110594Y347311
X-112563Y343000
X-131500Y311535
X-149500Y353114
X-124900Y327600
X-148000Y325400
X-115600Y342800
X-126343Y345343
X-118400Y366614
X-124374Y345343
X-116986Y371100
X-109800Y351200
X-110594Y337469
X-136200Y332900
X-148500Y336900
X-103300Y361814
X-132600Y315400
X-109400Y363067
X-106100Y362514
X-113100Y350300
X-104800Y290600
X-102600Y290600
X-102500Y291700
X-103100Y294900
X-110000Y293200
X-107200Y293500
X-107100Y290600
X-103700Y290600
X-102500Y294000
X-102500Y292800
X-103500Y293300
X-108800Y293400
X-105700Y293400
X-104600Y293300
X-105900Y290600
X-108200Y290700
X-184825Y290453
X-167939Y305153
X-188594Y324653
X-122406Y339437
X-181000Y358600
X-197000Y347800
X-195900Y347800
X-182000Y358600
X-112563Y339437
X-120437Y331563
X-175400Y359900
X-136886Y312000
X-147800Y358400
X-149886Y350500
X-175500Y361000
X-176000Y342000
X-177114Y342000
X-147817Y359423
X-116700Y364186
X-98610Y363346
X-95900Y362100
X-95000Y363000
X-47922Y299178
X-82300Y352300
X-88886Y327000
X-86114Y341500
X-98400Y325800
X-89200Y321000
X-85500Y322900
X-83400Y358000
X-85000Y359000
X-92300Y351800
X-82135Y336900
X-91614Y314500
X-54745Y292953
X-91614Y317500
X-79400Y337000
X-73800Y338600
X-98614Y358500
X-79300Y352700
X-86600Y353400
X-92000Y356914
X-90314Y361400
X-82200Y328500
X-91614Y335500
X-87886Y344500
X-98900Y344800
X-86114Y344500
X-66252Y304392
X-48400Y291800
X-48300Y294000
X-93386Y344500
X-79300Y349200
X-98614Y361500
X-87886Y332500
X-84100Y343400
X-93386Y341500
X-92000Y358800
X-19800Y257400
X-60000Y261092
X-83600Y240300
X-95700Y247600
X-92900Y218600
X-96700Y233486
X-85200Y240100
X-62300Y231100
X-96200Y252600
X-71200Y244214
X-97900Y226200
X-95700Y224800
X-76200Y229600
X-87600Y255600
X-89300Y220200
X-62800Y227400
X-84900Y245986
X-83200Y245986
X-58402Y260444
X-92600Y251000
X-59114Y250000
X-76700Y252100
X-80200Y254100
X-73700Y257486
X-77200Y243600
X-81200Y239100
X-81700Y228400
X-77814Y218100
X-86000Y219100
X-97200Y259600
X-94700Y246600
X-53000Y278614
X-86700Y227400
X-89200Y252600
X-82200Y240200
X-86200Y237100
X-89300Y246200
X-76200Y238600
X-89500Y247600
X-90400Y249000
X-95200Y243600
X-79600Y232300
X-96700Y237200
X-58376Y262901
X-89300Y237100
X-73562Y238000
X-60886Y250000
X-73886Y230600
X-83800Y231714
X-79200Y228600
X-92700Y242000
X-84700Y228600
X-93700Y230100
X-98200Y250600
X-83200Y249100
X-81100Y214700
X-94500Y228300
X-90200Y230100
X-75200Y226900
X-51978Y276857
X-39400Y246100
X-31034Y246100
X-47766Y246100
X-58744Y246074
X-24264Y246074
X-95500Y221600
X-83800Y233386
X-88700Y233486
X-82814Y226600
X-72114Y230600
X-78014Y226900
X-97500Y245100
X-80700Y220600
X-98200Y241700
X-89700Y217600
X-56000Y278614
X-89200Y240000
X-77800Y262600
X-60800Y138000
X-72167Y141700
X-61700Y140100
X-45600Y144300
X-83000Y165114
X-35600Y153800
X-73000Y161886
X-76000Y165114
X-76000Y160114
X-83000Y160114
X-47500Y175500
X-47500Y176900
X-57121Y128701
X-76400Y105500
X-80386Y163500
X-83000Y166886
X-50200Y152200
X-73114Y180000
X-78600Y160000
X-86000Y166886
X-73700Y141000
X-53386Y139000
X-78900Y144500
X-64900Y150700
X-62900Y117700
X-59700Y115400
X-77200Y144500
X-83500Y144100
X-71000Y113700
X-69400Y144000
X-63500Y89700
X-64500Y89700
X-62400Y91800
X-65600Y91800
X-62400Y90800
X-73000Y90400
X-72300Y91200
X-73800Y89700
X-63400Y90800
X-74700Y88900
X-65500Y90700
X-65500Y89700
X-64400Y90800
X-64500Y91800
X-62500Y89700
X-63500Y91800
X-54000Y113700
X-32644Y135472
X-17783Y142068
X-38661Y141633
X-45903Y141860
X-68165Y170400
X-68265Y172100
X-69565Y170400
X-68265Y173300
X-70165Y169300
X-68665Y169300
X-76400Y148200
X-80386Y166500
X-73000Y166886
X-85800Y151600
X-86000Y165114
X-69400Y148000
X-76000Y166886
X-70465Y172500
X-74886Y177500
X-47500Y147600
X-30100Y147500
X-39100Y147400
X-58300Y147500
X-24300Y147700
X-70865Y170400
X-64114Y113500
X-51600Y142500
X-66000Y117400
X-81535Y105500
X-78881Y114056
X-82030Y114056
X-74500Y107614
X-54100Y115400
X-86535Y144000
X-95800Y88900
X-97200Y88900
X-98400Y88900
X-72614Y183500
X-51600Y139000
X-75436Y88166
X-77000Y86600
X-76200Y87400
X-86609Y48805
X-95800Y87700
X-97300Y87700
X-98500Y87600
M30
