M48
INCH,TZ
T01C.004
T02C.008
T03C.01
T04C.014
T05C.016
T06C.018
T07C.075
T08C.146
T09C.028
T10C.03
T11C.035
T12C.043
T13C.063
T14C.085
;LEADER: 12 
;HEADER: 
;CODE  : ASCII 
;FILE  : ORWL_Design_SHIFT-3-8.drl for  ... layers GND1 and GND2
;T02 Holesize 1. = 8.000000 Tolerance = +0.000000/-0.000000 PLATED MILS Quantity = 1484
%
G90
T02
X-404100Y210400
X-401600Y222700
X-300700Y69300
X-302500Y70900
X-306200Y73400
X-308300Y75300
X-309800Y53000
X-331800Y77800
X-324800Y76500
X-307100Y70900
X-299200Y67700
X-307900Y77400
X-304400Y74700
X-342800Y58100
X-347500Y60500
X-340800Y53300
X-331800Y46800
X-335900Y50800
X-303800Y66100
X-320600Y83700
X-330600Y87100
X-305800Y43900
X-328400Y92900
X-326900Y91400
X-349500Y115100
X-337200Y141900
X-349500Y117400
X-335100Y142000
X-329100Y100200
X-330900Y100200
X-331400Y101900
X-329500Y102100
X-372100Y159400
X-342900Y165200
X-346100Y166000
X-344400Y166000
X-344400Y164200
X-346200Y164300
X-334600Y98600
X-333100Y97100
X-299300Y171400
X-354600Y144300
X-320500Y146800
X-311200Y106300
X-349400Y111900
X-349100Y119600
X-326200Y89400
X-330500Y93000
X-336500Y99800
X-335200Y96600
X-337500Y88700
X-342600Y93800
X-310800Y138300
X-334700Y117900
X-323400Y118100
X-335000Y136300
X-325100Y134900
X-318300Y129900
X-302200Y110600
X-372700Y123900
X-357300Y128200
X-367500Y138100
X-329700Y143400
X-358200Y146200
X-318800Y184900
X-316000Y165000
X-302800Y223000
X-304850Y226250
X-301900Y272700
X-303400Y274100
X-304600Y229300
X-335983Y217669
X-322900Y214900
X-339522Y214667
X-339388Y216428
X-337600Y217100
X-338000Y215300
X-310000Y223780
X-311440Y222960
X-312990Y223510
X-307740Y220740
X-307990Y218990
X-307500Y242200
X-301200Y250100
X-306100Y236100
X-310000Y189500
X-301300Y254200
X-386386Y246700
X-385000Y250100
X-370000Y253500
X-332100Y203900
X-333700Y203900
X-335300Y203900
X-330200Y203800
X-328000Y205900
X-329800Y205925
X-334600Y205925
X-333000Y205925
X-331400Y205925
X-336200Y205925
X-334900Y238400
X-334900Y236600
X-336700Y236600
X-336500Y238200
X-338000Y237600
X-371700Y230200
X-371600Y232500
X-337879Y256744
X-337900Y255100
X-339300Y254100
X-339269Y255940
X-338600Y252600
X-350600Y235000
X-349700Y233500
X-352300Y235200
X-351500Y233500
X-349400Y231600
X-320660Y261350
X-319000Y261770
X-319020Y260140
X-319350Y258530
X-320710Y259690
X-357400Y260800
X-353300Y260800
X-355000Y260800
X-329400Y260800
X-331200Y261600
X-331060Y259940
X-329400Y264300
X-329400Y262600
X-299609Y221827
X-300400Y226250
X-306600Y278300
X-311594Y235353
X-302400Y241300
X-304895Y276500
X-307190Y216740
X-375500Y262900
X-319000Y268500
X-334500Y263500
X-333300Y195100
X-368000Y256319
X-335520Y244680
X-304750Y282490
X-311500Y260410
X-301700Y189000
X-318900Y212100
X-318800Y210000
X-306715Y275200
X-302594Y231453
X-313400Y272800
X-337600Y266300
X-375490Y236845
X-368227Y246069
X-305800Y244700
X-338690Y271040
X-328900Y274900
X-302400Y197800
X-300100Y200300
X-302500Y200300
X-300100Y197900
X-314864Y198563
X-301400Y258600
X-319694Y286053
X-319694Y283553
X-304200Y268400
X-303900Y263700
X-301300Y263600
X-301300Y261100
X-301700Y268400
X-352100Y244900
X-358100Y245500
X-363700Y252200
X-352500Y252500
X-352800Y271300
X-376400Y278700
X-371700Y286200
X-371400Y249500
X-344300Y284600
X-364700Y243700
X-363700Y240400
X-357200Y240200
X-352300Y240800
X-372000Y216900
X-362000Y234300
X-376800Y216700
X-376654Y211653
X-395300Y222800
X-320000Y280500
X-309000Y278300
X-313300Y193400
X-305900Y250800
X-307950Y233763
X-370700Y260500
X-314300Y251600
X-316300Y254900
X-316100Y253100
X-314500Y255100
X-314400Y253300
X-324000Y227900
X-324000Y226200
X-325800Y228170
X-327510Y228190
X-326600Y226220
X-314800Y238700
X-315400Y240600
X-334700Y249100
X-331400Y248600
X-333100Y248600
X-335900Y250300
X-345300Y259700
X-303660Y216610
X-361500Y303000
X-302620Y319940
X-304100Y318500
X-317860Y297830
X-320900Y311100
X-319385Y296400
X-322500Y309700
X-307894Y311900
X-309500Y310275
X-311600Y303800
X-319700Y318700
X-312985Y302300
X-321500Y317500
X-222800Y390033
X-305294Y305700
X-344200Y304600
X-355100Y316300
X-322000Y306900
X-367600Y312900
X-362700Y306700
X-376900Y307600
X-319694Y289053
X-321700Y315400
X-320500Y309100
X-305294Y293206
X-371400Y299900
X-299712Y320311
X-364000Y321000
X-318000Y320000
X-334500Y341100
X-342000Y333700
X-360100Y324400
X-318300Y346900
X-352900Y310200
X-351200Y310200
X-352900Y308500
X-358600Y296100
X-359900Y297500
X-302600Y361200
X-305040Y288570
X-291600Y361800
X-298900Y363000
X-277800Y329200
X-279400Y329300
X-229694Y325053
X-278444Y290253
X-246694Y291853
X-202594Y292253
X-212894Y337053
X-199700Y340400
X-270000Y329100
X-265794Y300453
X-257194Y309773
X-206094Y296753
X-206094Y313653
X-282794Y294653
X-279694Y313053
X-247894Y288953
X-243894Y297653
X-273900Y332200
X-262900Y363500
X-289950Y369000
X-238600Y383100
X-226996Y354884
X-218000Y355500
X-293600Y347726
X-251939Y290286
X-251879Y292486
X-246934Y311153
X-248924Y311453
X-264094Y305653
X-256794Y300453
X-261054Y302053
X-260364Y295453
X-260564Y293213
X-260780Y299167
X-262694Y299653
X-259894Y305418
X-261994Y305653
X-256694Y297453
X-254694Y293453
X-257394Y291033
X-256594Y295553
X-256994Y292903
X-262784Y293553
X-263224Y291153
X-264641Y295660
X-266594Y295153
X-266594Y293153
X-253044Y308953
X-250826Y309153
X-246894Y309073
X-252794Y305253
X-250889Y305253
X-250744Y301153
X-248474Y301153
X-252794Y297453
X-250694Y297453
X-248644Y297453
X-267900Y372000
X-274320Y371020
X-277000Y375500
X-280080Y375500
X-274550Y375500
X-243894Y292953
X-249994Y288965
X-201994Y323753
X-233794Y317853
X-213994Y321053
X-264100Y325900
X-266500Y358269
X-219500Y362400
X-231200Y359800
X-280894Y343453
X-282894Y343453
X-277494Y343053
X-297200Y327800
X-293400Y343400
X-288000Y327423
X-253200Y367200
X-218200Y348900
X-241700Y363800
X-220800Y348900
X-257300Y360300
X-262900Y365900
X-249600Y363800
X-277294Y302953
X-259894Y324153
X-204694Y307753
X-260194Y290453
X-244324Y308022
X-246800Y347700
X-272400Y349600
X-272300Y351300
X-274000Y349600
X-274000Y351300
X-288300Y244600
X-283794Y194953
X-274700Y225400
X-276700Y225400
X-276300Y220000
X-278400Y219700
X-264275Y238832
X-272900Y216100
X-273000Y218900
X-272569Y204400
X-281518Y207093
X-277100Y205390
X-272470Y209350
X-257694Y198053
X-251794Y202453
X-257694Y196053
X-252994Y204053
X-255660Y190400
X-250494Y191653
X-250494Y189053
X-276000Y201500
X-294700Y213900
X-296900Y213200
X-269600Y241300
X-259700Y200500
X-259700Y198500
X-257694Y201053
X-257694Y203153
X-259159Y192520
X-259210Y194550
X-259170Y190410
X-285864Y191703
X-288330Y192900
X-278894Y198053
X-278700Y194900
X-283350Y203550
X-286100Y202700
X-278400Y215900
X-279400Y217728
X-274300Y203180
X-224194Y196953
X-222900Y191600
X-217400Y190400
X-291560Y232690
X-243194Y201853
X-250094Y203853
X-210894Y206061
X-213100Y188700
X-208100Y188900
X-244479Y207931
X-244479Y210132
X-244495Y214538
X-244495Y216739
X-244479Y218950
X-244484Y212328
X-244684Y227736
X-244579Y225536
X-244679Y229937
X-244594Y223335
X-232757Y212329
X-232763Y210144
X-232754Y207949
X-233094Y220253
X-232894Y223153
X-232694Y225453
X-232190Y203785
X-232772Y234345
X-232894Y227653
X-238245Y234661
X-236295Y234671
X-240195Y234671
X-232761Y232151
X-232794Y229978
X-242130Y234656
X-244093Y234662
X-237198Y203808
X-220738Y203655
X-225715Y203651
X-228309Y203675
X-223164Y203634
X-232694Y214553
X-232694Y216753
X-243294Y203853
X-247794Y202553
X-248347Y214547
X-248354Y210144
X-248334Y212329
X-248330Y207935
X-248327Y225528
X-248340Y229951
X-248366Y232134
X-248354Y223316
X-248308Y227727
X-248334Y218919
X-248354Y216733
X-262194Y235853
X-212194Y204453
X-220696Y217049
X-228495Y212665
X-224591Y208272
X-224591Y217072
X-220644Y221453
X-228495Y217065
X-220696Y212649
X-220686Y208059
X-228495Y230265
X-228495Y225865
X-230494Y225753
X-224591Y225872
X-224591Y230272
X-220704Y234648
X-230494Y230153
X-228494Y221453
X-224599Y234671
X-228507Y234468
X-220696Y225849
X-230512Y208035
X-224591Y212672
X-224594Y221453
X-220696Y230249
X-228495Y208265
X-230394Y234553
X-230494Y221353
X-212760Y219672
X-210826Y219649
X-208892Y219657
X-212761Y217085
X-210818Y217101
X-208869Y217085
X-216626Y211819
X-214626Y211819
X-210626Y211819
X-208626Y211819
X-218094Y209153
X-212626Y211819
X-214710Y217093
X-214709Y219665
X-230512Y212535
X-230512Y216935
X-240556Y232132
X-236650Y232132
X-236670Y223331
X-240556Y223135
X-236676Y212343
X-236675Y207936
X-236644Y218953
X-240587Y212343
X-240594Y218953
X-240587Y207936
X-267780Y220039
X-281594Y232253
X-281773Y221953
X-281587Y216660
X-281594Y234453
X-281694Y236953
X-281780Y219853
X-298000Y225400
X-294300Y240300
X-294200Y219900
X-268794Y217553
X-256794Y238153
X-267360Y231940
X-261494Y227653
X-261494Y229353
X-266100Y235700
X-277100Y232900
X-288394Y238353
X-298100Y266680
X-257494Y234453
X-256194Y236053
X-289194Y218053
X-253794Y223253
X-253694Y234353
X-253694Y225553
X-253694Y227753
X-253650Y232070
X-245994Y237553
X-248594Y237753
X-235870Y236890
X-233141Y236828
X-231532Y237074
X-243494Y237553
X-281593Y209252
X-257480Y215639
X-257494Y227653
X-257494Y225053
X-268066Y207053
X-267808Y209039
X-267780Y211239
X-262794Y221353
X-260666Y221381
X-264894Y232153
X-281630Y211589
X-258694Y232753
X-261594Y223253
X-267194Y223853
X-262616Y212953
X-260666Y213025
X-259294Y209053
X-264780Y215639
X-258716Y212553
X-256766Y212481
X-252526Y218419
X-264694Y286553
X-222894Y256953
X-241294Y256653
X-212594Y256453
X-233739Y256453
X-252594Y256453
X-249794Y240153
X-247294Y240153
X-224494Y240153
X-237594Y240653
X-234819Y240653
X-221944Y240153
X-232094Y240153
X-229544Y240153
X-227044Y240153
X-239694Y240153
X-265132Y241125
X-286620Y235880
X-287000Y220800
X-287000Y218708
X-287100Y212800
X-287200Y215900
X-275800Y213900
X-277900Y213900
X-278294Y230746
X-276149Y230797
X-248494Y242053
X-244694Y240653
X-213294Y248153
X-212768Y244553
X-298794Y247053
X-276774Y198053
X-217193Y238849
X-216794Y231653
X-216946Y234185
X-204194Y243483
X-205469Y248553
X-201994Y249723
X-271900Y214300
X-280100Y251900
X-272600Y229600
X-271894Y240353
X-262694Y243053
X-207400Y191800
X-271994Y226153
X-270530Y200850
X-269494Y202653
X-262894Y206953
X-272089Y236948
X-291894Y246453
X-281694Y245253
X-274194Y239753
X-293600Y233600
X-297500Y236800
X-219800Y191700
X-270505Y235095
X-297814Y230086
X-289294Y228653
X-274000Y236312
X-288494Y250553
X-286200Y255800
X-288894Y236253
X-261737Y239661
X-241894Y242753
X-245494Y254943
X-247303Y253453
X-247294Y257653
X-244794Y246553
X-246094Y249253
X-245594Y251353
X-249894Y269953
X-254294Y267453
X-252194Y267353
X-251994Y270053
X-254094Y270653
X-249894Y267253
X-249894Y265153
X-241494Y253653
X-236994Y250653
X-243094Y262053
X-238194Y257353
X-238194Y254953
X-238194Y252853
X-242369Y258858
X-238194Y259453
X-241194Y264253
X-240294Y261753
X-244394Y264453
X-245794Y268753
X-244294Y267253
X-202694Y257253
X-200794Y256353
X-203494Y253513
X-200494Y248253
X-200204Y251693
X-200484Y242953
X-199994Y254353
X-212094Y246353
X-213464Y240853
X-212761Y242620
X-206294Y239653
X-208194Y239553
X-201594Y238100
X-215494Y235953
X-202694Y244953
X-205469Y245153
X-201794Y241253
X-276994Y241700
X-285000Y240500
X-242132Y250653
X-252394Y241053
X-284194Y248053
X-258294Y239553
X-223100Y200300
X-292500Y261200
X-293700Y264300
X-289080Y259430
X-254400Y237000
X-255700Y192400
X-260494Y215753
X-251516Y227744
X-251536Y225539
X-251607Y229912
X-251570Y223130
X-251560Y232250
X-201475Y207434
X-207794Y207053
X-209694Y207753
X-216194Y207953
X-222694Y207853
X-248400Y196200
X-226594Y207853
X-236044Y210153
X-239994Y210153
X-239944Y214553
X-220538Y214926
X-224548Y215075
X-236044Y214553
X-236105Y225530
X-222644Y221103
X-226544Y212303
X-222644Y212303
X-212794Y214253
X-210894Y214253
X-222619Y216698
X-226544Y216703
X-216794Y214253
X-240347Y227629
X-240209Y225201
X-226544Y225503
X-222644Y225503
X-226544Y221103
X-228444Y223717
X-224527Y223739
X-235994Y216753
X-239944Y216753
X-242557Y230100
X-242486Y227721
X-242403Y225496
X-240363Y229858
X-236107Y229941
X-236120Y227751
X-226296Y232521
X-226594Y229853
X-222694Y229853
X-226594Y234253
X-222694Y234253
X-230511Y232417
X-228485Y232387
X-222578Y232418
X-220516Y232623
X-262800Y201500
X-279135Y202653
X-297500Y200400
X-295300Y202000
X-295500Y197200
X-297400Y197900
X-279594Y204653
X-276180Y248440
X-220094Y193853
X-278900Y192600
X-288394Y255853
X-225794Y241953
X-224920Y199190
X-212400Y192900
X-278600Y209800
X-294694Y247053
X-297300Y243653
X-214094Y191053
X-213915Y200232
X-206100Y194700
X-219200Y189100
X-293600Y244700
X-254920Y211210
X-254700Y206400
X-254880Y213870
X-251394Y205453
X-245300Y190600
X-269100Y230400
X-296200Y254100
X-280994Y228071
X-260666Y234081
X-287542Y200798
X-291400Y188667
X-153300Y37000
X-149615Y25484
X-153200Y35300
X-230500Y166100
X-189770Y69840
X-195890Y62600
X-198070Y62750
X-194240Y69840
X-241147Y97540
X-243332Y97609
X-169300Y52200
X-181984Y76700
X-187400Y75800
X-158500Y75500
X-185371Y37000
X-183700Y37000
X-182100Y37000
X-180900Y41700
X-179100Y41800
X-181000Y39800
X-179100Y40000
X-181000Y38200
X-255660Y188400
X-173700Y49400
X-293900Y186900
X-266600Y185100
X-292300Y159600
X-170200Y10700
X-170100Y12600
X-229200Y128000
X-229300Y125800
X-201500Y108100
X-182700Y400
X-204300Y186800
X-244330Y184710
X-245800Y182100
X-230800Y186300
X-230500Y181200
X-154100Y42000
X-234600Y136900
X-108500Y73600
X-165700Y52600
X-270100Y165700
X-268100Y165700
X-157500Y64400
X-284000Y184500
X-271375Y170200
X-286200Y184200
X-268875Y170200
X-278700Y184400
X-276386Y165600
X-276600Y184200
X-274100Y165500
X-247500Y97200
X-246894Y100054
X-236264Y101043
X-244327Y100592
X-284400Y186700
X-153000Y77100
X-212500Y132000
X-184610Y70650
X-186900Y70150
X-298500Y188200
X-173830Y76680
X-171230Y76540
X-255032Y142255
X-245200Y142600
X-255546Y137612
X-195686Y-1500
X-197618Y-5000
X-178600Y74400
X-193270Y62600
X-229400Y156900
X-296520Y171260
X-210100Y177100
X-136100Y30500
X-136100Y26500
X-139200Y22500
X-136200Y18700
X-166200Y29700
X-166500Y20500
X-164700Y25000
X-239500Y148700
X-242000Y142500
X-218750Y104670
X-218900Y165000
X-206056Y164017
X-238600Y156200
X-160700Y58400
X-223100Y96690
X-223580Y101960
X-229000Y92160
X-224680Y89360
X-218440Y91410
X-218310Y99190
X-160400Y63500
X-168100Y61400
X-168700Y76500
X-175100Y78300
X-171000Y71800
X-160600Y49600
X-160300Y54800
X-101300Y60900
X-272100Y165500
X-278500Y165700
X-260700Y129500
X-265600Y133400
X-269100Y131600
X-297200Y115700
X-171800Y39900
X-177400Y29200
X-231200Y96900
X-221000Y172000
X-215800Y169300
X-266800Y170300
X-224800Y166300
X-266800Y178300
X-273700Y170300
X-272100Y180200
X-288600Y178800
X-291600Y178600
X-254986Y186417
X-277700Y181300
X-283000Y181500
X-277400Y186600
X-221900Y174900
X-201800Y167100
X-219300Y170700
X-217300Y170800
X-223000Y165100
X-221000Y165000
X-213700Y168100
X-213700Y170100
X-207494Y165491
X-204618Y165408
X-203600Y145200
X-204800Y143400
X-234200Y121100
X-253300Y180200
X-255400Y180300
X-266500Y180400
X-266500Y182800
X-288618Y94632
X-255800Y145500
X-249500Y185800
X-247100Y174000
X-239700Y45800
X-239200Y44200
X-206100Y74900
X-206130Y72800
X-265987Y48787
X-263013Y50000
X-294500Y53100
X-297100Y53300
X-231600Y43100
X-231600Y45200
X-231700Y38800
X-231600Y41100
X-211398Y-1500
X-209901Y-4200
X-180700Y167300
X-193500Y166800
X-173200Y168000
X-175600Y163250
X-176450Y187440
X-189500Y187880
X-184940Y187900
X-180980Y187980
X-166430Y187230
X-168740Y187240
X-206800Y0
X-175500Y167900
X-173334Y164600
X-181800Y138400
X-181800Y140000
X-183400Y140000
X-184600Y135200
X-183400Y138400
X-181800Y136800
X-183400Y136800
X-183000Y135200
X-203100Y57200
X-203100Y59200
X-196292Y97319
X-196292Y102119
X-196292Y98919
X-194692Y97219
X-196292Y100519
X-194692Y100519
X-194692Y102119
X-194692Y98919
X-126300Y180800
X-123600Y181100
X-121900Y181100
X-125400Y178400
X-124900Y180000
X-233232Y49381
X-235297Y49408
X-274000Y57300
X-262000Y31000
X-204500Y79000
X-247800Y20400
X-273200Y76600
X-175720Y125950
X-133886Y105314
X-176190Y96760
X-201726Y-1608
X-206700Y2200
X-200600Y2000
X-199587Y-1500
X-175830Y127965
X-228923Y45960
X-161512Y168905
X-240400Y78910
X-233400Y42100
X-233400Y37400
X-171500Y136100
X-171400Y141200
X-194800Y115000
X-196400Y115000
X-198000Y115000
X-193200Y114900
X-246370Y87060
X-173900Y122300
X-175600Y122400
X-177300Y122400
X-247530Y79320
X-238970Y86370
X-237400Y49700
X-233700Y45600
X-171500Y106400
X-176500Y106400
X-173200Y106400
X-174900Y106400
X-231100Y49500
X-295900Y51000
X-296500Y40900
X-285500Y37400
X-199100Y30200
X-217000Y81200
X-194764Y91446
X-189900Y146600
X-189500Y124600
X-182900Y113000
X-146300Y94900
X-123600Y94400
X-99800Y108800
X-163600Y142800
X-146100Y154800
X-135600Y155500
X-156900Y165890
X-177210Y99020
X-175820Y131100
X-145614Y105586
X-191300Y167000
X-184800Y167300
X-182700Y167300
X-189300Y167000
X-186800Y167200
X-153500Y97300
X-155200Y99000
X-151000Y167500
X-99300Y238700
X-109200Y247900
X-176940Y197540
X-176750Y204070
X-178490Y203990
X-178660Y197550
X-189160Y203990
X-190800Y203950
X-180410Y197620
X-187570Y197600
X-182440Y197570
X-190970Y197650
X-189220Y197580
X-185270Y204140
X-187290Y204060
X-181870Y204050
X-183520Y204070
X-180240Y204060
X-184150Y197550
X-185900Y197620
X-168780Y192790
X-166560Y192640
X-168900Y189690
X-166560Y189650
X-175120Y197740
X-173370Y197670
X-171760Y197690
X-168860Y195740
X-166530Y195710
X-170950Y204070
X-172600Y204020
X-174350Y204090
X-168860Y201770
X-166570Y201670
X-168930Y198690
X-166580Y198790
X-176300Y217700
X-177950Y217750
X-176300Y220300
X-177950Y220350
X-182790Y217590
X-184410Y217610
X-186040Y217640
X-187750Y217640
X-189370Y217610
X-191000Y217590
X-191030Y220450
X-189400Y220470
X-187780Y220500
X-186070Y220500
X-184440Y220470
X-182820Y220450
X-181200Y220400
X-179570Y220370
X-181200Y217800
X-179570Y217770
X-166720Y211460
X-168980Y211500
X-174700Y219800
X-174700Y217700
X-174500Y215700
X-174700Y222200
X-166750Y214240
X-168980Y214260
X-168950Y217470
X-170820Y213310
X-166820Y227200
X-170870Y222600
X-168980Y223980
X-166730Y223960
X-169070Y220670
X-166840Y220660
X-166780Y217440
X-169100Y227220
X-101200Y250100
X-107900Y242600
X-159600Y225700
X-144000Y226900
X-142300Y223300
X-144000Y223400
X-142300Y226900
X-144000Y225100
X-107200Y247900
X-130900Y238200
X-134300Y238200
X-132600Y238200
X-146200Y238100
X-147900Y238100
X-146400Y240700
X-148100Y240700
X-144700Y240700
X-144900Y242400
X-149800Y242400
X-148100Y242400
X-146500Y242400
X-149800Y240700
X-136700Y240700
X-135100Y239700
X-99700Y223700
X-118700Y194800
X-118700Y193100
X-118700Y191300
X-117000Y191400
X-117000Y193200
X-117000Y194800
X-120500Y218000
X-121500Y190700
X-196594Y287253
X-175194Y284853
X-161100Y281900
X-161100Y283600
X-161100Y285300
X-161100Y287000
X-102631Y235031
X-102400Y253800
X-102200Y220600
X-164694Y237053
X-102663Y232963
X-107200Y244900
X-117200Y223400
X-102700Y239600
X-99300Y243200
X-104200Y230200
X-109300Y231800
X-113200Y234600
X-101800Y230600
X-112200Y227600
X-107000Y249900
X-110000Y250100
X-196464Y261753
X-193694Y266783
X-197794Y255753
X-197784Y257853
X-197794Y259953
X-192294Y258353
X-196564Y252253
X-194694Y247353
X-198094Y250813
X-195019Y254463
X-101100Y225500
X-116200Y243100
X-100100Y212900
X-101200Y245700
X-99200Y228600
X-198775Y207414
X-196463Y207373
X-122357Y197683
X-124357Y197683
X-123457Y199383
X-121300Y199400
X-120257Y197683
X-117100Y280500
X-145100Y287900
X-136200Y283400
X-136100Y269700
X-139600Y258800
X-126000Y259700
X-116597Y246668
X-117200Y199000
X-117200Y196900
X-111200Y234300
X-107200Y227800
X-106500Y252100
X-106700Y223100
X-107200Y231800
X-109200Y233900
X-102700Y244100
X-161200Y279500
X-163400Y241700
X-112700Y243100
X-111300Y369500
X-146806Y356920
X-145700Y347700
X-137130Y350073
X-170500Y333500
X-168494Y294242
X-152400Y331300
X-148300Y340700
X-147700Y308000
X-178194Y323753
X-168294Y301653
X-182857Y301447
X-191400Y304084
X-191482Y309653
X-188763Y301507
X-161100Y288700
X-161100Y290300
X-161100Y291900
X-169494Y319753
X-141700Y327200
X-103800Y346300
X-111898Y352302
X-125845Y342172
X-185100Y352600
X-183186Y367000
X-191800Y347300
X-194400Y372100
X-122000Y360200
X-134500Y325800
X-117000Y362100
X-170827Y315708
X-173027Y315768
X-191794Y320653
X-191794Y318623
X-119800Y339437
X-186094Y304253
X-180994Y310853
X-182594Y306593
X-179694Y306853
X-180194Y304953
X-186194Y306353
X-184594Y307853
X-177994Y310953
X-173994Y312953
X-171574Y310253
X-176094Y311053
X-173444Y310653
X-174094Y304863
X-171694Y304423
X-176201Y303006
X-175694Y301053
X-173694Y301053
X-189494Y314603
X-189594Y316921
X-189614Y320753
X-185794Y314853
X-185794Y316758
X-181694Y316903
X-181694Y319173
X-177994Y314853
X-177994Y316953
X-177994Y319003
X-145600Y352500
X-143600Y354662
X-121500Y346200
X-131400Y296900
X-131300Y294200
X-133000Y294300
X-133100Y296900
X-138300Y296900
X-136600Y296900
X-138400Y294300
X-136600Y294300
X-134900Y294300
X-134900Y296900
X-185320Y331980
X-105400Y319000
X-169506Y317653
X-180320Y331980
X-182820Y331980
X-177820Y331980
X-175320Y331980
X-173494Y323753
X-117800Y347100
X-139614Y334400
X-122800Y332200
X-141500Y344400
X-155202Y304302
X-120000Y357100
X-112300Y358586
X-115200Y358586
X-179600Y348200
X-114009Y309190
X-185700Y343614
X-109500Y358586
X-106300Y344000
X-110900Y348700
X-150800Y352200
X-192800Y363700
X-115500Y344200
X-128000Y344500
X-124600Y344000
X-104600Y360500
X-109100Y292000
X-107500Y292000
X-105800Y292000
X-109700Y294500
X-108000Y294600
X-106300Y294600
X-104600Y294700
X-104100Y291900
X-183494Y290353
X-168894Y304233
X-188563Y323323
X-123706Y339437
X-118400Y331800
X-182750Y343390
X-180950Y343390
X-180950Y341590
X-182750Y341590
X-137806Y311080
X-148900Y297000
X-115400Y365000
X-51400Y340500
X-96500Y363500
X-87500Y311200
X-80900Y303100
X-70200Y324800
X-81300Y351300
X-84700Y343000
X-51600Y303900
X-23600Y308000
X-35000Y288600
X-87100Y314200
X-59400Y296600
X-89600Y297600
X-81100Y334400
X-91800Y326900
X-83200Y324300
X-86114Y346900
X-49817Y291812
X-49500Y295100
X-94766Y344554
X-66200Y299100
X-78400Y236600
X-84306Y243600
X-95469Y250100
X-92600Y220000
X-92100Y227600
X-84900Y213400
X-68700Y267765
X-94400Y251800
X-86637Y241600
X-58200Y248100
X-46300Y283500
X-95600Y254400
X-71200Y242100
X-96900Y227600
X-68700Y229600
X-77400Y228600
X-66700Y234600
X-89900Y254400
X-62800Y226100
X-82200Y247600
X-55610Y260519
X-91200Y252300
X-80700Y227200
X-84200Y254600
X-75700Y262100
X-68700Y249600
X-43909Y242897
X-69700Y247600
X-93500Y247100
X-68900Y232700
X-70800Y225600
X-87200Y225700
X-89700Y250900
X-84200Y238100
X-86000Y235031
X-88700Y244974
X-78200Y238600
X-91126Y246700
X-91700Y249500
X-92488Y244100
X-77400Y231100
X-28700Y225300
X-98600Y234100
X-55626Y263017
X-88189Y238413
X-90800Y241800
X-96300Y231300
X-83700Y235100
X-86037Y232963
X-80700Y229900
X-94137Y241437
X-82200Y243400
X-83390Y230000
X-92100Y230400
X-97700Y249100
X-96100Y213200
X-86000Y250200
X-96400Y223100
X-90600Y231800
X-79200Y244600
X-56000Y221300
X-53380Y221290
X-92500Y238000
X-92500Y234000
X-90500Y234000
X-92500Y236000
X-94500Y236000
X-94500Y238000
X-97200Y280600
X-91200Y280600
X-93200Y280600
X-95200Y280600
X-55980Y219600
X-53390Y219550
X-75200Y271100
X-89000Y261600
X-97300Y272500
X-9700Y274200
X-20000Y261200
X-25400Y244600
X-34600Y244700
X-44300Y250200
X-52600Y259800
X-50600Y254100
X-32300Y210600
X-84700Y285100
X-96200Y245600
X-80700Y222800
X-96700Y241474
X-87500Y216000
X-73700Y229600
X-56000Y277300
X-52800Y256100
X-85380Y230200
X-85500Y222100
X-92400Y254900
X-97700Y254100
X-98200Y220100
X-78700Y225300
X-80700Y254600
X-92000Y224000
X-88700Y241800
X-35600Y230200
X-51114Y106953
X-61898Y137064
X-72167Y143500
X-63200Y140033
X-83000Y163700
X-73714Y163100
X-77100Y164300
X-84458Y160800
X-88900Y99800
X-76590Y177960
X-78614Y161500
X-84800Y167600
X-75731Y141000
X-80456Y144477
X-59627Y150700
X-67908Y89211
X-56000Y127600
X-33500Y115700
X-40400Y180600
X-89300Y150800
X-31300Y183600
X-64114Y112100
X-50300Y141900
X-66267Y114737
X-79735Y105500
X-78881Y116900
X-82030Y117100
X-63528Y125639
X-85105Y142570
X-57900Y50700
X-56300Y60000
X-86560Y73030
X-85050Y74590
X-90900Y70800
X-85000Y71600
X-83400Y73300
X-82200Y77800
X-60400Y76200
X-87400Y57000
X-93100Y51600
X-96200Y62500
X-95000Y66300
X-72300Y87200
X-76500Y82500
X-79100Y83200
X-47500Y58900
X-60000Y60400
X-55000Y56300
X-64100Y72400
X3100Y247500
M30
