M48
INCH,TZ
T01C.004
T02C.008
T03C.01
T04C.014
T05C.016
T06C.018
T07C.075
T08C.146
T09C.028
T10C.03
T11C.035
T12C.043
T13C.063
T14C.085
;LEADER: 12 
;HEADER: 
;CODE  : ASCII 
;FILE  : ORWL_Design_SHIFT-1-10.drl for  ... layers TOP and BOTTOM
;T03 Holesize 1. = 10.000000 Tolerance = +0.000000/-0.000000 PLATED MILS Quantity = 538
;T04 Holesize 2. = 14.000000 Tolerance = +0.000000/-0.000000 PLATED MILS Quantity = 68
;T05 Holesize 3. = 16.000000 Tolerance = +0.000000/-0.000000 PLATED MILS Quantity = 9
;T06 Holesize 4. = 18.000000 Tolerance = +0.000000/-0.000000 PLATED MILS Quantity = 4
;T07 Holesize 5. = 75.000000 Tolerance = +0.000000/-0.000000 PLATED MILS Quantity = 8
;T08 Holesize 6. = 146.000000 Tolerance = +0.000000/-0.000000 PLATED MILS Quantity = 1
%
G90
T03
X-402300Y250600
X-410900Y211400
X-407300Y228200
X-403800Y240500
X-404545Y217033
X-345400Y55500
X-340400Y60200
X-347200Y53900
X-333600Y53200
X-338600Y48600
X-340500Y47000
X-351100Y58800
X-334800Y43700
X-363700Y63300
X-380500Y88500
X-350800Y77500
X-358000Y72000
X-365200Y80600
X-327100Y30200
X-317500Y21100
X-307200Y13500
X-353600Y51000
X-345700Y43200
X-406400Y166100
X-410632Y172202
X-407934Y173995
X-400100Y179300
X-400227Y173933
X-403000Y148500
X-405737Y178794
X-380100Y130000
X-382600Y132500
X-380200Y132600
X-380200Y135100
X-382600Y135100
X-362600Y158700
X-371900Y133600
X-369700Y90900
X-365170Y99641
X-354100Y105100
X-386900Y126500
X-388800Y135200
X-397600Y129500
X-391500Y112100
X-381725Y169610
X-380500Y179300
X-387391Y181970
X-387390Y174510
X-373400Y173900
X-393819Y174140
X-393300Y153600
X-381181Y159483
X-394005Y184180
X-387000Y186800
X-380900Y187900
X-393830Y180030
X-372800Y183500
X-373300Y169100
X-373200Y166700
X-370717Y168037
X-336500Y113700
X-391100Y282400
X-383400Y277000
X-371700Y282300
X-392100Y248500
X-392688Y201494
X-388020Y204669
X-393974Y188847
X-380700Y197300
X-379800Y205400
X-387721Y197835
X-392396Y192910
X-388256Y207109
X-386702Y218018
X-394901Y208089
X-373000Y201500
X-376195Y208914
X-372700Y211300
X-372700Y192100
X-387638Y190294
X-395000Y237800
X-396300Y227800
X-396677Y216880
X-391461Y216946
X-394983Y199125
X-396939Y188693
X-349200Y299400
X-382567Y304735
X-367752Y326816
X-372570Y320640
X-370900Y313200
X-384100Y298100
X-374300Y295200
X-207300Y408000
X-221200Y402200
X-216500Y408200
X-227600Y407000
X-227600Y398600
X-244800Y394200
X-262000Y396400
X-361500Y317600
X-276500Y393500
X-289500Y389500
X-316900Y343400
X-320800Y347500
X-321100Y362400
X-317500Y372900
X-223394Y322153
X-223394Y319753
X-225794Y322153
X-208194Y327353
X-212994Y327453
X-205794Y327353
X-210594Y327453
X-250794Y323953
X-253394Y323953
X-216194Y324553
X-216194Y329053
X-297500Y374800
X-225194Y324553
X-262694Y333553
X-206700Y336600
X-204100Y336500
X-229994Y330753
X-204694Y215553
X-199694Y215553
X-164700Y-13000
X-184500Y-16500
X-196900Y-16200
X-202194Y215553
X-195075Y34469
X-195075Y30531
X-191925Y30531
X-191925Y34469
X-193500Y32500
X-147700Y6800
X-150100Y6800
X-196600Y16400
X-148700Y15400
X-148600Y12900
X-291348Y102463
X-132400Y42300
X-129800Y42300
X-130700Y45100
X-128200Y45200
X-103600Y48100
X-185000Y20100
X-182400Y20000
X-179800Y20000
X-179800Y17500
X-182200Y17500
X-184700Y17500
X-181600Y61700
X-181400Y64100
X-165980Y69450
X-151900Y59700
X-149400Y59700
X-131300Y13300
X-216300Y119000
X-142200Y26100
X-142200Y21200
X-219600Y151800
X-225800Y151800
X-223300Y151800
X-221200Y126000
X-220900Y121500
X-216400Y121500
X-220900Y119100
X-216300Y126100
X-226100Y126100
X-225900Y121500
X-225900Y119000
X-119200Y-100
X-129700Y6300
X-150800Y-11000
X-208600Y135500
X-266829Y89000
X-201500Y16300
X-199100Y16400
X-206300Y16300
X-203900Y16300
X-207800Y53200
X-205300Y53400
X-205500Y55800
X-208000Y55800
X-205300Y58200
X-210200Y53300
X-159690Y153830
X-167090Y153760
X-164560Y153830
X-162055Y156292
X-167400Y161500
X-169800Y161400
X-162110Y153780
X-169830Y156300
X-169630Y153730
X-167120Y156340
X-164550Y156340
X-167300Y159000
X-169800Y159000
X-171900Y157600
X-171900Y154800
X-169800Y151300
X-159660Y156460
X-154700Y156800
X-165000Y161500
X-162100Y159090
X-164560Y158930
X-162600Y161500
X-154500Y151900
X-157000Y152000
X-157200Y156900
X-152000Y151900
X-152200Y156700
X-157200Y154400
X-154600Y154300
X-152100Y154300
X-157800Y161500
X-156400Y159400
X-160200Y161500
X-159700Y159100
X-283300Y47100
X-163800Y125700
X-160830Y128380
X-143500Y111500
X-160730Y125660
X-160620Y123010
X-163800Y123100
X-163900Y128400
X-140000Y112100
X-136500Y112100
X-136400Y125700
X-136400Y128300
X-136500Y123000
X-139900Y125700
X-157700Y128400
X-152400Y125800
X-149700Y128400
X-149800Y123100
X-136500Y114500
X-136400Y119800
X-136400Y117200
X-140000Y114500
X-149400Y119800
X-149400Y117200
X-140000Y109700
X-136500Y109700
X-155490Y119770
X-152830Y116870
X-152820Y119690
X-157840Y122980
X-155630Y116960
X-140000Y123000
X-143400Y125700
X-143400Y128300
X-139900Y128300
X-146400Y128300
X-143500Y123000
X-146500Y123000
X-146400Y125700
X-139900Y119800
X-139900Y117200
X-143000Y114500
X-142900Y119800
X-142900Y117200
X-145900Y119800
X-145900Y117200
X-152300Y128400
X-149700Y125800
X-152400Y123100
X-154970Y125750
X-154950Y122960
X-155010Y128450
X-157760Y125640
X-145400Y114300
X-145900Y110400
X-134100Y124400
X-134000Y121500
X-134000Y118500
X-134100Y115700
X-279600Y53000
X-281700Y81900
X-283100Y84100
X-268700Y68600
X-271100Y68600
X-163100Y184100
X-216000Y58800
X-214800Y56600
X-211000Y58800
X-213500Y58800
X-212300Y56600
X-202200Y63200
X-124761Y155161
X-253700Y47800
X-188200Y96000
X-248200Y44600
X-248400Y41400
X-258200Y36100
X-221700Y1500
X-189500Y156800
X-186900Y154200
X-189400Y154100
X-191860Y154170
X-192000Y156700
X-184500Y154100
X-184500Y156700
X-186900Y156700
X-236200Y65700
X-233400Y65700
X-190800Y95800
X-178860Y102830
X-178900Y105840
X-254500Y-8400
X-283400Y2100
X-121100Y163700
X-126500Y169500
X-126700Y167000
X-126600Y172200
X-126600Y174700
X-123800Y163600
X-114500Y177400
X-266829Y86400
X-266729Y83900
X-264629Y85400
X-264629Y82700
X-293800Y76900
X-194694Y215553
X-124400Y210400
X-122600Y276700
X-138200Y205700
X-120200Y213100
X-240200Y-12000
X-211600Y-16100
X-223300Y-14200
X-235400Y-13500
X-197194Y215553
X-102700Y282100
X-131800Y208100
X-143200Y207100
X-110735Y276065
X-100388Y355520
X-153500Y311200
X-153300Y321500
X-185800Y375700
X-186600Y385900
X-128000Y385500
X-120300Y382700
X-145100Y384400
X-139000Y362300
X-134200Y360900
X-133300Y371300
X-112137Y379540
X-116200Y381500
X-174900Y376700
X-139100Y383100
X-149300Y386700
X-141000Y372700
X-149700Y376500
X-156300Y378300
X-166800Y381700
X-134300Y380600
X-147600Y364200
X-154600Y366200
X-160800Y367700
X-170200Y371200
X-127700Y289100
X-100200Y295600
X-123200Y289300
X-89700Y340000
X-74947Y308637
X-38900Y312600
X-185452Y390348
X-40100Y309300
X-30000Y306800
X-36800Y290800
X-38100Y302700
X-23100Y299400
X-11800Y299300
X-20400Y313800
X-34600Y317000
X-187600Y400400
X-192300Y408700
X-28400Y325500
X-62800Y347100
X-35600Y333800
X-44400Y326700
X-70100Y363300
X-66400Y351500
X-61700Y359900
X-147800Y395800
X-141500Y402600
X-136000Y389100
X-142000Y391200
X-123900Y392400
X-90876Y370331
X-124800Y398300
X-154700Y394800
X-160100Y400900
X-116900Y395200
X-108705Y390826
X-112600Y388800
X-173800Y390800
X-83900Y376300
X-75800Y369900
X-154000Y403000
X-163900Y407200
X-168700Y398600
X-157600Y389900
X-164500Y392900
X-151688Y391787
X-152100Y397400
X-67700Y289000
X-62400Y326300
X-84000Y277600
X-38800Y212600
X-69200Y223100
X-40800Y229200
X-6700Y221700
X-61200Y214400
X-1000Y210000
X-23600Y216200
X-7900Y247500
X-17700Y240100
X-31300Y253300
X-38500Y260900
X-13400Y264300
X-1300Y283100
X-68600Y209900
X-88900Y211600
X-88800Y209000
X-67700Y281000
X-67700Y286300
X-67700Y283600
X-65600Y285100
X-65600Y279800
X-65600Y282400
X-65600Y287700
X-17500Y132500
X-19900Y132500
X-17500Y137800
X-19900Y137800
X-17100Y135100
X-19980Y135189
X-96500Y125800
X-31000Y172500
X-26000Y170000
X-26100Y172500
X-33500Y170000
X-28500Y170100
X-23500Y170000
X-28500Y175000
X-23700Y172500
X-31000Y170100
X-28600Y172500
X-23500Y175200
X-25900Y175100
X-92500Y122000
X-92500Y135500
X-92800Y163900
X-95200Y163900
X-90400Y164000
X-91600Y166300
X-89200Y166300
X-91600Y168700
X-91800Y128900
X-98200Y156300
X-82800Y128900
X-77300Y123100
X-71600Y128800
X-71600Y135000
X-77300Y134900
X-71600Y123100
X-77306Y128947
X-82500Y123100
X-82700Y134900
X-8700Y113100
X-67800Y166600
X-70700Y166300
X-65900Y164500
X-62600Y164500
X-60900Y167500
X-59100Y165500
X-8700Y156300
X100Y152300
X-3300Y179200
X-56300Y182600
X-91000Y116500
X-91400Y142000
X-36300Y121800
X-33800Y121700
X-30900Y121500
X-33800Y124300
X-30900Y126800
X-36300Y124400
X-36400Y127000
X-33800Y126700
X-30900Y124300
X-59000Y161700
X-55600Y158100
X-53000Y158100
X-54200Y160500
X-56600Y160500
X-56600Y163000
X-51800Y160500
X-51800Y162900
X-54200Y163000
X-97300Y37200
X-98700Y34900
X-95500Y34900
X-94400Y32700
X-53600Y46800
X-86300Y42600
X-88700Y42600
X-86900Y40000
X-84500Y40500
X-60200Y53300
X-55500Y48600
X-48600Y55500
X-53300Y60300
X-46700Y53900
X7800Y141100
X-14700Y88200
X-23200Y75800
X-36900Y73500
X-30800Y65600
X-64200Y29800
X-83900Y29600
X-77000Y22700
X-88200Y16300
X-95200Y22300
X11400Y165100
X14000Y185900
X14900Y206400
X1800Y222200
X13200Y229700
X3500Y239800
X7300Y253800
X3100Y267200
T04
X-110900Y88400
X-113900Y88400
X-116900Y88400
X-119900Y88400
X-124500Y133000
X-125000Y127500
X-119500Y125900
X-128000Y129000
X-128000Y126000
X-128000Y123000
X-107500Y120000
X-119400Y128700
X-125000Y121500
X-122500Y123000
X-119500Y120000
X-122500Y120000
X-125000Y124500
X-116600Y128700
X-113500Y128800
X-110500Y128700
X-110600Y125800
X-113500Y123000
X-107500Y126000
X-110500Y120000
X-110500Y123000
X-113600Y125800
X-122400Y128800
X-122500Y126000
X-119500Y123000
X-116500Y120000
X-113500Y120000
X-116500Y123000
X-125000Y118000
X-107500Y123000
X-107500Y128800
X-116600Y125800
X-102000Y158400
X-105000Y158400
X-117000Y158400
X-114000Y158400
X-111000Y158400
X-108000Y158400
X-119900Y91200
X-116900Y91200
X-113900Y91200
X-110900Y91200
X-148200Y191900
X-97000Y317300
X-48340Y190372
X-50320Y192405
X-53637Y195990
X-56552Y195990
X-52727Y190265
X-52300Y226500
X-49300Y226500
X-52000Y223500
X-49100Y223500
X-55400Y226500
X-55400Y229500
X-52300Y229500
X-49200Y229500
X-94000Y133000
X-50561Y188473
X-51818Y182427
X-50454Y184995
X-52754Y186654
X-48207Y186814
X-48688Y182615
T05
X-329086Y337994
X-331312Y335767
X-333540Y333540
X-335767Y331312
X-337994Y329086
X-326162Y332843
X-328389Y330617
X-330617Y328389
X-332843Y326162
T06
X-330742Y43612
X-350089Y62959
X-43612Y62958
X-62959Y43611
T07
X-364374Y118733
X-393957Y264719
X-203301Y381580
X-118733Y29326
X-268149Y958
X-98982Y380914
X-29326Y274968
X-958Y125551
T08
X-16535Y196851
M30
