M48
INCH,TZ
T01C.016
T02C.02
T03C.024
T04C.085
;EXTENTS: -62.000 -62.000 238.000 2938.000 
;LEADER: 12 
;HEADER: 
;CODE  : ASCII 
;FILE  : C:/Users/mac/Documents/project/ORWL_X86/SCH/EVT version/layout/out/ORWL_Design_SHIFT.rou for board #Taaaaba06364.tmp
%
G90
F1
M16
T03
M16
G00X-327289Y344549
G40
M15
G01X-330047Y347307
M16
G00X-344549Y327289
G40
M15
G01X-347307Y330047
M16
G00X-317262Y334522
G40
M15
G01X-320586Y337846
M16
G00X-334522Y317262
G40
M15
G01X-337846Y320586
M16
T01
M16
G00X-50439Y351378
G40
M15
G01X-52065Y353004
M16
G00X-40696Y341635
G40
M15
G01X-42322Y343261
M16
T04
M16
G00X-97778Y10517
G40
M15
G01X-98342Y11577
M16
G00X-142220Y-6972
G40
M15
G01X-142580Y-5828
M16
T02
M16
G00X-335475Y33170
G40
M15
G01X-332717Y35928
M16
G00X-323297Y46601
G40
M15
G01X-320257Y49641
M16
T01
M16
G00X-319987Y49672
G40
M15
G01X-321897Y51582
M16
G00X-328729Y58414
G40
M15
G01X-329719Y59404
M16
G00X-334297Y63982
G40
M15
G01X-335287Y64972
M16
T03
M16
G00X-345120Y65061
G40
M15
G01X-346180Y66121
M16
T02
M16
G00X-360531Y58225
G40
M15
G01X-357773Y60983
M16
G00X-347100Y70404
G40
M15
G01X-344060Y73444
M16
T01
M16
G00X-342119Y71804
G40
M15
G01X-344029Y73714
M16
T02
M16
G00X-33170Y58224
G40
M15
G01X-35928Y60982
M16
G00X-46601Y70403
G40
M15
G01X-49641Y73443
M16
T01
M16
G00X-51582Y71803
G40
M15
G01X-49672Y73713
M16
G00X-59404Y63981
G40
M15
G01X-58414Y64971
M16
G00X-64972Y58413
G40
M15
G01X-63982Y59403
M16
T03
M16
G00X-66121Y47520
G40
M15
G01X-65061Y48580
M16
T02
M16
G00X-58225Y33169
G40
M15
G01X-60983Y35927
M16
G00X-70404Y46600
G40
M15
G01X-73444Y49640
M16
T01
M16
G00X-73714Y49671
G40
M15
G01X-71804Y51581
M16
G40
M30
