M48
INCH,TZ
T01C.004
T02C.008
T03C.01
T04C.014
T05C.016
T06C.018
T07C.075
T08C.146
T09C.028
T10C.03
T11C.035
T12C.043
T13C.063
T14C.085
;LEADER: 12 
;HEADER: 
;CODE  : ASCII 
;FILE  : ORWL_Design_SHIFT-2-3.drl for  ... layers IN1 and GND1
;T01 Holesize 1. = 4.000000 Tolerance = +0.000000/-0.000000 PLATED MILS Quantity = 1892
%
G90
T01
X-304855Y64670
X-323002Y82717
X-307576Y26193
X-300724Y60313
X-299287Y51600
X-313258Y86894
X-362700Y184900
X-345374Y187992
X-359500Y185000
X-363000Y180500
X-345374Y184055
X-359500Y180800
X-345374Y182086
X-340962Y166338
X-359700Y172000
X-359114Y176000
X-350200Y169900
X-362100Y172100
X-340820Y164370
X-369500Y139614
X-380000Y139614
X-310589Y188099
X-327700Y99300
X-326600Y99300
X-327600Y98100
X-326500Y98200
X-327400Y96900
X-326300Y97000
X-327700Y100500
X-326500Y100500
X-347400Y165600
X-343800Y167500
X-346200Y167400
X-345100Y167400
X-342900Y166700
X-347300Y166700
X-348400Y166700
X-348400Y165600
X-347600Y164500
X-348700Y164400
X-376500Y139614
X-373000Y139614
X-340900Y134100
X-353200Y144300
X-322300Y147500
X-310700Y147700
X-309605Y114202
X-299311Y124207
X-301341Y140301
X-305836Y128846
X-329469Y130441
X-329324Y115942
X-342518Y116087
X-330700Y147600
X-348463Y134211
X-354200Y180700
X-345374Y180118
X-358467Y153495
X-346400Y147600
X-354200Y147800
X-354300Y162000
X-372035Y145500
X-380535Y145500
X-377362Y151028
X-382087Y151028
X-387205Y165299
X-362795Y165299
X-345374Y160433
X-345374Y162401
X-339066Y147600
X-354320Y185984
X-354320Y188484
X-345374Y186023
X-304717Y159501
X-306866Y163501
X-360886Y176000
X-313700Y103000
X-315000Y103000
X-314000Y104300
X-318800Y104400
X-319900Y103200
X-319900Y104400
X-315200Y104300
X-316200Y104300
X-312900Y104300
X-316100Y103000
X-312600Y103100
X-318800Y103200
X-310500Y175500
X-364035Y207100
X-364035Y203000
X-364035Y195000
X-364035Y199000
X-345374Y189960
X-357300Y287100
X-303114Y221200
X-304886Y224500
X-303394Y227553
X-321900Y213700
X-334500Y213800
X-336570Y214270
X-336590Y215590
X-335610Y216330
X-334530Y216120
X-335590Y214930
X-335560Y213770
X-335580Y212450
X-334510Y214940
X-334500Y212500
X-309400Y218900
X-328900Y258100
X-331200Y255700
X-330000Y255800
X-331200Y256900
X-330000Y257000
X-328800Y256900
X-329800Y259300
X-328700Y259300
X-331300Y258100
X-330100Y258100
X-300400Y224800
X-299994Y245953
X-311590Y233960
X-303798Y240661
X-304900Y275100
X-308594Y215739
X-375500Y264300
X-320000Y267500
X-334300Y265100
X-334600Y245600
X-304730Y284100
X-315100Y266380
X-311500Y259050
X-302000Y190400
X-305866Y193701
X-378700Y242300
X-378700Y240586
X-380600Y244500
X-308300Y275200
X-302694Y233167
X-315180Y271570
X-336400Y266800
X-374500Y234460
X-374510Y235550
X-367000Y240114
X-305800Y243200
X-339600Y273561
X-330200Y274700
X-330000Y275800
X-327100Y281265
X-300700Y269700
X-305700Y269700
X-300100Y264200
X-302600Y264200
X-302600Y266700
X-300100Y266700
X-303200Y269700
X-302600Y261700
X-305100Y261700
X-300100Y261700
X-300100Y259200
X-302600Y259200
X-305100Y259200
X-300100Y256700
X-305100Y256700
X-302600Y256700
X-299500Y286900
X-314600Y246100
X-347300Y246300
X-354700Y246000
X-322334Y246100
X-327100Y274265
X-334600Y274265
X-360400Y262286
X-330700Y246100
X-336566Y246100
X-341566Y246100
X-339066Y246100
X-345374Y215551
X-345374Y209645
X-345374Y203740
X-345374Y197834
X-354320Y202716
X-354320Y208750
X-354320Y205050
X-345374Y231299
X-345374Y229330
X-345374Y233267
X-367000Y241886
X-354320Y190984
X-354320Y198150
X-354320Y195650
X-345374Y191929
X-354300Y213100
X-354300Y230700
X-309386Y222000
X-313200Y234200
X-305866Y197001
X-303200Y199100
X-300700Y199100
X-300700Y201600
X-300700Y196600
X-303200Y196600
X-303200Y204100
X-300700Y204100
X-303200Y201600
X-360000Y234686
X-366940Y236921
X-362000Y197100
X-319200Y279400
X-308600Y276700
X-365800Y283100
X-309855Y194770
X-305880Y252160
X-308480Y232553
X-379400Y235600
X-379400Y236700
X-354600Y279000
X-353500Y279000
X-352500Y279000
X-354600Y277900
X-353500Y277900
X-351500Y279000
X-319700Y255100
X-318600Y254000
X-317600Y254000
X-318600Y255100
X-317600Y255100
X-317600Y251800
X-319700Y252900
X-318600Y252900
X-317600Y252900
X-319700Y254000
X-321533Y226352
X-320570Y226927
X-320382Y228679
X-321230Y229830
X-321466Y228786
X-322270Y229700
X-322469Y227020
X-323350Y229270
X-322496Y225870
X-321466Y227609
X-322455Y228211
X-320170Y229810
X-302130Y216200
X-314200Y237500
X-315400Y237500
X-313100Y237500
X-316500Y237500
X-301420Y318320
X-302620Y317020
X-318490Y299010
X-319560Y297950
X-306900Y311000
X-308346Y309554
X-312500Y304900
X-313700Y303900
X-224100Y390033
X-305600Y310300
X-321030Y297860
X-311500Y305900
X-314700Y302900
X-317400Y299900
X-299800Y317200
X-301200Y315700
X-336515Y298815
X-307600Y308300
X-339515Y295815
X-304300Y344700
X-303300Y343600
X-302200Y342400
X-306585Y353085
X-303585Y356085
X-302200Y359800
X-301400Y360600
X-358400Y298100
X-359300Y299000
X-357400Y297100
X-302200Y290600
X-297500Y363000
X-273594Y319553
X-271994Y319553
X-271994Y320853
X-273594Y320853
X-277094Y290253
X-243894Y290508
X-201394Y295053
X-201394Y293453
X-212800Y334600
X-230694Y324053
X-211500Y344200
X-201600Y341500
X-200500Y341500
X-208149Y296753
X-207649Y313753
X-257739Y312332
X-265794Y301853
X-279694Y314453
X-281249Y313053
X-281694Y295753
X-270694Y327053
X-243894Y296353
X-248800Y342600
X-264400Y363400
X-289500Y370500
X-237000Y382700
X-225662Y354881
X-218000Y356886
X-229600Y341700
X-283300Y339400
X-248780Y291953
X-248780Y295653
X-247494Y312553
X-249694Y312567
X-268000Y373400
X-206300Y342200
X-207400Y342200
X-273200Y371900
X-277000Y374000
X-280080Y374000
X-274550Y377000
X-208694Y330667
X-200694Y330667
X-283139Y313053
X-271700Y374100
X-264694Y330667
X-256694Y330667
X-260694Y330667
X-268694Y330667
X-268749Y327053
X-232994Y330667
X-236694Y330667
X-244694Y330667
X-240694Y330667
X-226500Y330614
X-252694Y330667
X-248694Y330667
X-204694Y330667
X-272694Y330667
X-287000Y362500
X-280694Y330667
X-276694Y330667
X-275100Y306800
X-283639Y296253
X-269839Y302453
X-269839Y308453
X-269839Y315153
X-207800Y306200
X-199494Y292308
X-209539Y313753
X-240194Y322608
X-249294Y314339
X-245594Y314339
X-243894Y294353
X-240649Y308053
X-210039Y296753
X-263594Y314198
X-257794Y314198
X-251394Y319408
X-288000Y369886
X-209500Y343114
X-245080Y325053
X-216386Y347500
X-215000Y356886
X-214300Y360300
X-257200Y322100
X-251500Y326114
X-254600Y367300
X-218700Y350100
X-243100Y363500
X-220800Y350200
X-258700Y360200
X-264300Y366000
X-228200Y341700
X-249800Y362100
X-277194Y304284
X-261400Y325300
X-261394Y324153
X-204694Y306253
X-242994Y308053
X-290979Y295443
X-289700Y244900
X-285717Y193599
X-273700Y224514
X-277700Y224514
X-273700Y217486
X-277700Y217486
X-263600Y240900
X-269900Y218900
X-270000Y221700
X-273914Y205400
X-283000Y207014
X-275586Y208700
X-273814Y212000
X-267300Y192300
X-254000Y192000
X-265800Y194700
X-254300Y194100
X-283700Y201500
X-295927Y215285
X-298614Y212500
X-270800Y242100
X-293814Y189600
X-261500Y192500
X-263500Y192500
X-261114Y200100
X-261114Y197100
X-258800Y201900
X-258200Y204500
X-254800Y195700
X-255900Y199600
X-261367Y189284
X-278294Y196853
X-272500Y195300
X-284800Y204000
X-287700Y202900
X-225100Y195386
X-224300Y191600
X-216300Y191600
X-290200Y231700
X-241294Y196253
X-249700Y202500
X-211794Y207453
X-212500Y189886
X-209100Y189786
X-243994Y206653
X-233675Y228880
X-233649Y231201
X-233801Y226421
X-234400Y234800
X-227123Y202217
X-223323Y202117
X-219494Y202039
X-238523Y202217
X-230923Y202217
X-216094Y202153
X-234723Y202217
X-238794Y203653
X-245226Y222140
X-245105Y233517
X-245242Y215637
X-245239Y213443
X-245356Y224462
X-245456Y228862
X-245356Y231062
X-245456Y226662
X-245203Y217857
X-245206Y220035
X-245228Y211224
X-245208Y209037
X-233738Y222043
X-233894Y213953
X-233594Y218953
X-233594Y224353
X-233909Y209441
X-242694Y199653
X-249700Y200900
X-247622Y213438
X-247602Y209041
X-247601Y206821
X-247570Y226636
X-247596Y211240
X-247602Y215630
X-247494Y217753
X-247602Y228856
X-247589Y233220
X-247556Y231054
X-247602Y224418
X-262908Y237353
X-213194Y207453
X-221660Y218092
X-219430Y217999
X-227506Y222441
X-227548Y213866
X-229506Y213873
X-229427Y209244
X-223626Y209275
X-229545Y222527
X-223586Y218108
X-219564Y222473
X-227510Y218069
X-229498Y218170
X-219394Y212753
X-221699Y213835
X-221644Y209290
X-219294Y208053
X-223602Y222499
X-229694Y227153
X-227544Y227121
X-225552Y227121
X-229570Y231185
X-223603Y231154
X-225571Y231142
X-227380Y231220
X-227494Y235653
X-220501Y227225
X-225587Y222468
X-229494Y235653
X-221860Y227221
X-225594Y235553
X-223634Y213804
X-221649Y231158
X-219660Y231127
X-225513Y218092
X-221656Y222504
X-227524Y209267
X-225590Y209244
X-225490Y213820
X-204694Y213439
X-209194Y213439
X-200194Y213439
X-200194Y229667
X-204694Y229667
X-209194Y229667
X-217598Y218053
X-217442Y222489
X-217749Y227121
X-237428Y231025
X-237460Y228848
X-237446Y226627
X-237550Y224418
X-239244Y223680
X-239208Y226398
X-239195Y228822
X-239096Y231551
X-239601Y222021
X-237601Y222021
X-237794Y209003
X-239283Y212108
X-238004Y212101
X-238400Y215500
X-239228Y218893
X-237976Y218879
X-237976Y216677
X-239401Y206821
X-238001Y206821
X-237744Y214153
X-237594Y210453
X-238644Y211103
X-238844Y213403
X-239294Y208753
X-283349Y232353
X-262580Y218053
X-283149Y222653
X-282614Y215200
X-283149Y220053
X-296314Y224800
X-294600Y238114
X-295400Y218886
X-270394Y216439
X-259694Y236608
X-265900Y230800
X-262908Y227853
X-283349Y234853
X-277094Y238553
X-283349Y237353
X-267849Y236853
X-279050Y234430
X-287320Y239190
X-247322Y237416
X-249893Y237369
X-240894Y237653
X-239494Y236953
X-225823Y238186
X-228394Y237953
X-223323Y238086
X-230568Y237953
X-254472Y222126
X-254400Y233200
X-254300Y230800
X-253300Y229300
X-255300Y227700
X-254700Y229000
X-254700Y226600
X-253200Y230700
X-252900Y233300
X-253200Y235700
X-252600Y236500
X-254472Y224424
X-280086Y211900
X-257439Y223353
X-269414Y205400
X-269408Y208653
X-269414Y211900
X-262749Y219908
X-282700Y212400
X-267194Y222053
X-266594Y225653
X-263894Y210453
X-266794Y215453
X-253694Y219253
X-224994Y244553
X-224994Y243453
X-223994Y243353
X-229394Y241953
X-231394Y242953
X-255994Y244453
X-242594Y256653
X-213465Y257824
X-233694Y257808
X-224900Y257500
X-252694Y257808
X-267394Y287398
X-252800Y244400
X-230394Y241953
X-256994Y244453
X-256994Y243453
X-256994Y242453
X-255994Y242453
X-255994Y243453
X-257994Y244453
X-257994Y243453
X-223968Y242331
X-230394Y242953
X-229394Y242953
X-245394Y242208
X-235894Y239854
X-243994Y288153
X-265894Y239553
X-284300Y236100
X-288600Y221800
X-288700Y220100
X-287100Y211200
X-287200Y214502
X-274600Y215700
X-276200Y215700
X-298074Y221575
X-275764Y227600
X-275793Y229000
X-254200Y243000
X-240794Y244553
X-211294Y248153
X-214094Y244553
X-276800Y196700
X-204180Y241853
X-204180Y247353
X-202408Y251353
X-270394Y214667
X-281800Y252000
X-273100Y230900
X-272494Y239053
X-290600Y197400
X-263494Y244953
X-207400Y193200
X-272094Y227620
X-268700Y203700
X-262400Y208200
X-272400Y235000
X-290479Y246949
X-281520Y243920
X-274800Y238500
X-294694Y234939
X-298694Y233167
X-221100Y191700
X-269886Y233300
X-298086Y227900
X-289286Y226925
X-274900Y235100
X-287080Y250553
X-286200Y257100
X-290300Y236253
X-261503Y241329
X-277094Y240353
X-286300Y241200
X-242694Y249153
X-253794Y241653
X-286044Y246840
X-258410Y240935
X-223100Y198700
X-235800Y192600
X-293100Y262500
X-293700Y265600
X-288390Y260630
X-253494Y238353
X-253494Y239353
X-256100Y232500
X-259500Y228500
X-259400Y227100
X-251049Y259698
X-218100Y242687
X-231994Y259953
X-221394Y260053
X-211594Y260153
X-203394Y239553
X-209280Y242767
X-218033Y245654
X-252494Y238353
X-204180Y251353
X-262394Y285408
X-267394Y285508
X-238294Y261453
X-219640Y239640
X-202408Y247353
X-252494Y239353
X-282386Y189000
X-287700Y197500
X-278314Y211900
X-284386Y211900
X-284386Y215200
X-275580Y262053
X-285239Y234853
X-285180Y229853
X-285039Y222653
X-285180Y226353
X-285039Y220053
X-285180Y232353
X-285239Y237353
X-280194Y270267
X-280580Y258053
X-275580Y250053
X-275133Y192895
X-278808Y246053
X-298194Y245439
X-298200Y199100
X-298200Y204100
X-298200Y201600
X-298200Y196600
X-235274Y228845
X-235253Y231061
X-235233Y226573
X-229525Y228825
X-227418Y233211
X-241794Y228829
X-243105Y228915
X-243110Y224183
X-241953Y211150
X-241890Y209031
X-229794Y205353
X-228494Y205553
X-229494Y206853
X-229594Y211053
X-235307Y224349
X-223594Y211053
X-223369Y215627
X-235294Y208953
X-219394Y206053
X-216694Y206053
X-221394Y205353
X-223594Y206853
X-222794Y205553
X-251094Y211453
X-250601Y216321
X-250394Y220653
X-249694Y217853
X-250094Y233853
X-250094Y231653
X-250094Y226853
X-250394Y219653
X-250194Y229153
X-251094Y208153
X-243148Y226572
X-243063Y231319
X-219480Y228984
X-229494Y233253
X-223497Y228787
X-223662Y233161
X-221655Y233392
X-242394Y214353
X-241643Y226610
X-242801Y221421
X-241503Y221432
X-242394Y216653
X-242394Y219053
X-227494Y206853
X-235405Y206719
X-230801Y206221
X-235401Y220721
X-219394Y215853
X-219594Y224253
X-225824Y215464
X-231076Y215463
X-235401Y222021
X-235305Y215635
X-223235Y224222
X-221625Y224344
X-229610Y215579
X-227590Y215625
X-229494Y220170
X-227594Y220053
X-227094Y211053
X-229440Y224577
X-227259Y224372
X-217485Y225017
X-225394Y219803
X-223744Y219853
X-230926Y219219
X-221787Y215548
X-217486Y215929
X-231031Y224219
X-221694Y219803
X-219426Y220019
X-217626Y220019
X-235271Y213431
X-235285Y211248
X-225701Y224387
X-206401Y205821
X-214794Y206153
X-209194Y205953
X-221632Y206677
X-219594Y211067
X-226694Y205553
X-225571Y206668
X-224494Y205553
X-250601Y212521
X-250501Y210321
X-250701Y214021
X-250194Y224153
X-250401Y207021
X-249994Y209053
X-253594Y208508
X-253594Y212508
X-241944Y231349
X-225183Y233218
X-225601Y228764
X-217555Y228979
X-221716Y228757
X-219401Y233421
X-241818Y224307
X-271200Y208300
X-264700Y237100
X-264639Y221853
X-228049Y244753
X-242894Y244039
X-245394Y244039
X-265394Y211608
X-219494Y200367
X-215694Y200367
X-230923Y200445
X-234723Y200445
X-238523Y200445
X-245794Y198053
X-245094Y196753
X-227123Y200445
X-239508Y196153
X-245794Y199353
X-270114Y189000
X-268194Y200167
X-265394Y207608
X-253900Y202300
X-264680Y227853
X-264639Y224353
X-264700Y233800
X-248594Y287039
X-200194Y231439
X-227968Y242331
X-204694Y231439
X-239494Y247739
X-221300Y200400
X-208694Y198667
X-205794Y209253
X-204694Y211667
X-206894Y211653
X-207794Y208453
X-202494Y209253
X-200194Y211667
X-200294Y209153
X-204594Y209253
X-201394Y209153
X-203594Y209253
X-202494Y211653
X-269739Y236853
X-271186Y205400
X-269639Y224053
X-269639Y227053
X-269629Y228471
X-271186Y211900
X-251100Y244100
X-260694Y218053
X-259694Y238498
X-255694Y223253
X-262914Y231000
X-211994Y198467
X-215694Y194953
X-247794Y244039
X-209194Y231439
X-222078Y242331
X-233844Y239203
X-228200Y228700
X-281500Y204500
X-277320Y247730
X-221694Y193667
X-278900Y191200
X-234000Y190386
X-288340Y257190
X-225994Y197653
X-212500Y194286
X-279600Y208800
X-295294Y245439
X-297894Y241853
X-214400Y192500
X-211994Y200239
X-203363Y195658
X-292100Y244300
X-253594Y210398
X-247100Y192500
X-253600Y205700
X-253594Y214398
X-249994Y205653
X-245300Y192400
X-267749Y229853
X-283408Y226353
X-283349Y229853
X-262494Y287398
X-261408Y232167
X-289077Y202606
X-290089Y189183
X-290276Y190213
X-149600Y36700
X-149600Y26900
X-230800Y164400
X-229700Y164500
X-256236Y98764
X-284114Y120500
X-192047Y71815
X-195984Y61185
X-197953Y61185
X-194016Y71815
X-251118Y101323
X-284114Y117000
X-240882Y96205
X-243441Y96205
X-208280Y145547
X-202500Y136555
X-208280Y147516
X-200000Y136555
X-167900Y51800
X-212610Y141217
X-210642Y141217
X-228358Y141217
X-226390Y141217
X-200000Y140555
X-202500Y140555
X-181984Y78500
X-174600Y84300
X-172400Y84300
X-188016Y78500
X-201000Y130640
X-184600Y39600
X-185771Y38429
X-185700Y39500
X-183600Y38500
X-184700Y38500
X-183500Y39600
X-182400Y39600
X-182500Y38500
X-182400Y40700
X-182300Y41800
X-183400Y41800
X-184600Y40700
X-183500Y40700
X-185600Y41700
X-185671Y40629
X-184500Y41800
X-265300Y186300
X-256100Y185000
X-265100Y184000
X-256100Y183500
X-175100Y50000
X-214600Y154200
X-208000Y154100
X-262114Y185400
X-262114Y182600
X-143335Y61118
X-132617Y66081
X-267300Y186300
X-293200Y160600
X-156700Y20900
X-155700Y20900
X-154700Y20900
X-157700Y20900
X-200900Y109400
X-202000Y109400
X-242300Y100100
X-240882Y111559
X-246000Y114118
X-238500Y126000
X-222200Y105200
X-214500Y114114
X-239500Y126000
X-243000Y126000
X-241907Y126000
X-240500Y126000
X-244000Y126000
X-238323Y103882
X-181600Y-300
X-181400Y900
X-204600Y185486
X-246000Y184700
X-246038Y185700
X-246765Y180800
X-229300Y185200
X-229262Y186300
X-228735Y181200
X-217600Y108700
X-215800Y98500
X-155200Y40500
X-153200Y40500
X-152100Y40500
X-154200Y40500
X-169100Y56400
X-168100Y56400
X-169100Y57400
X-168100Y57400
X-274000Y129386
X-273300Y152000
X-274500Y152500
X-298500Y147114
X-164764Y54190
X-165800Y54000
X-199600Y97600
X-199600Y101900
X-199600Y98600
X-199600Y99700
X-199600Y100800
X-269100Y163500
X-267900Y163600
X-268600Y164400
X-269700Y164400
X-157700Y62786
X-283000Y185500
X-240035Y151000
X-286500Y185500
X-240035Y155000
X-279500Y185500
X-240035Y142500
X-276000Y185500
X-240035Y147000
X-248700Y96200
X-248559Y98764
X-238323Y96205
X-245700Y96200
X-218516Y141217
X-216547Y141217
X-222453Y141217
X-220484Y141217
X-286400Y187300
X-152400Y78600
X-275900Y104900
X-248559Y103882
X-214100Y132500
X-206600Y134600
X-174614Y82500
X-172386Y82500
X-271000Y142101
X-279169Y142266
X-267386Y140941
X-283436Y143259
X-259400Y95900
X-248300Y127600
X-290130Y156390
X-297948Y167678
X-285791Y141861
X-197200Y-1700
X-197618Y-6400
X-234800Y180300
X-178600Y73100
X-191700Y62600
X-210600Y142700
X-212600Y142700
X-216500Y142700
X-218600Y142700
X-222400Y142800
X-220400Y142700
X-223900Y141200
X-229800Y141300
X-224900Y141200
X-226300Y142700
X-228400Y142700
X-199100Y117800
X-199100Y113400
X-199100Y112300
X-132900Y49400
X-135100Y49400
X-134000Y50462
X-135100Y51400
X-132900Y51600
X-107040Y70518
X-204083Y141708
X-204119Y136706
X-201038Y135128
X-154844Y5540
X-147300Y24500
X-147300Y23400
X-161335Y17400
X-160786Y21300
X-153574Y13610
X-152574Y13610
X-151574Y13610
X-276114Y152500
X-296600Y164100
X-295157Y154469
X-298500Y154386
X-282386Y146059
X-289843Y150531
X-275386Y113000
X-275386Y109000
X-231450Y167550
X-227500Y167035
X-217900Y89320
X-226000Y92000
X-225900Y89900
X-218307Y100969
X-216693Y100969
X-240882Y114118
X-243500Y156728
X-215100Y105600
X-247500Y133000
X-248400Y129400
X-246000Y119236
X-244800Y128500
X-248886Y148000
X-226500Y110600
X-219965Y110000
X-214500Y115886
X-223500Y106386
X-226500Y106386
X-238323Y106441
X-202500Y112000
X-203300Y112900
X-158564Y53548
X-158549Y57576
X-165700Y49200
X-165700Y50500
X-176886Y50000
X-246900Y89800
X-192047Y61185
X-194000Y78386
X-240614Y90000
X-195000Y66500
X-196614Y80000
X-173984Y66484
X-185484Y66484
X-170600Y86100
X-176400Y85900
X-157700Y61014
X-170600Y82400
X-176400Y82600
X-267386Y146059
X-265157Y153969
X-259843Y150031
X-251900Y164100
X-268614Y155500
X-253700Y158400
X-261559Y142031
X-252200Y105200
X-257500Y134000
X-266500Y125886
X-266400Y121000
X-266000Y130386
X-267886Y112500
X-266000Y104535
X-162900Y36100
X-135200Y37765
X-143800Y40725
X-172900Y36000
X-186600Y33800
X-188900Y33800
X-187693Y33780
X-186600Y31200
X-188800Y31200
X-187693Y31220
X-169500Y32600
X-170800Y32600
X-172000Y43900
X-171000Y43100
X-181990Y31056
X-143800Y42300
X-270386Y149500
X-270000Y159614
X-224500Y185300
X-224538Y186300
X-249700Y184100
X-250700Y184500
X-270055Y185500
X-225665Y181200
X-249835Y180800
X-200700Y166100
X-239000Y167035
X-235000Y167035
X-223000Y167035
X-219500Y167035
X-215500Y167035
X-211500Y167035
X-207500Y167035
X-204000Y167035
X-200000Y142445
X-202500Y142445
X-243441Y109000
X-218000Y188400
X-254000Y181400
X-255900Y181600
X-270300Y181300
X-274600Y181600
X-287290Y94768
X-291400Y164200
X-290200Y164200
X-248300Y188300
X-256300Y164100
X-255100Y164100
X-297886Y175500
X-204800Y75100
X-204800Y73500
X-203400Y83900
X-252713Y61935
X-204300Y82300
X-250407Y61780
X-230100Y43200
X-230202Y44700
X-230000Y39400
X-230100Y41400
X-295600Y81900
X-294200Y81800
X-211398Y-200
X-209901Y-5600
X-180800Y165800
X-193500Y165500
X-165886Y188500
X-169350Y188450
X-168320Y188500
X-167230Y188510
X-244000Y51000
X-244000Y49500
X-159350Y175550
X-181600Y135300
X-180200Y141400
X-182400Y141400
X-181300Y141400
X-179200Y141400
X-179400Y140400
X-180500Y140400
X-179300Y139400
X-180400Y139400
X-180400Y138400
X-179300Y138400
X-179300Y137400
X-179300Y136300
X-179300Y135200
X-180400Y137400
X-180400Y136400
X-180500Y135300
X-243900Y59300
X-243900Y60400
X-197891Y98182
X-197860Y99209
X-198982Y102845
X-197891Y100299
X-197844Y101422
X-197875Y102544
X-198784Y96925
X-197638Y96964
X-127700Y181600
X-128800Y181600
X-126800Y178300
X-128000Y178300
X-129100Y178300
X-126900Y179400
X-128000Y179400
X-128800Y180400
X-127700Y180500
X-129100Y179400
X-261300Y79900
X-266800Y77300
X-264000Y33000
X-204993Y80350
X-246500Y21200
X-273200Y77900
X-195500Y157000
X-177360Y125810
X-189016Y99543
X-201555Y-300
X-208205Y2550
X-202300Y2500
X-200300Y-3700
X-177500Y127965
X-200400Y55000
X-201400Y55000
X-228985Y47383
X-230521Y5043
X-195600Y112300
X-230300Y22100
X-195500Y116600
X-195600Y113400
X-168883Y147800
X-195600Y117800
X-196700Y116600
X-198000Y117800
X-196800Y117800
X-197900Y116600
X-199000Y116600
X-198000Y113400
X-196800Y112300
X-198000Y112300
X-196800Y113400
X-173500Y107900
X-174700Y107900
X-196000Y95200
X-171200Y107900
X-175900Y107900
X-170000Y107900
X-175300Y120800
X-178800Y120800
X-172400Y107900
X-177100Y107900
X-178200Y107900
X-177700Y120800
X-176500Y120800
X-173600Y123900
X-174800Y123900
X-176000Y123900
X-177100Y123900
X-197000Y94138
X-196000Y93100
X-198000Y95200
X-198000Y93100
X-111330Y104851
X-116913Y105214
X-122948Y101063
X-122930Y98031
X-237110Y24091
X-213591Y11071
X-238240Y11216
X-286552Y14594
X-143300Y147900
X-287900Y55200
X-287100Y56000
X-288788Y54385
X-172800Y142000
X-172800Y140600
X-172800Y135400
X-172800Y136800
X-287814Y69557
X-198374Y140511
X-198338Y142433
X-249040Y79180
X-240500Y80500
X-239000Y79500
X-246500Y85500
X-248000Y86500
X-238330Y87660
X-221596Y88249
X-220218Y79441
X-195600Y147700
X-185517Y147800
X-177200Y147800
X-254500Y85900
X-254500Y52386
X-251500Y52386
X-220400Y33700
X-220500Y36300
X-220400Y38300
X-222900Y33700
X-223000Y38300
X-222900Y36300
X-204800Y38000
X-205700Y38900
X-212670Y29485
X-209900Y43000
X-211200Y43000
X-212400Y43000
X-212400Y44400
X-209900Y44500
X-211135Y44450
X-165200Y98200
X-166000Y99000
X-270100Y50500
X-270136Y51879
X-231600Y35691
X-231745Y27281
X-158200Y165890
X-189114Y104000
X-177500Y131035
X-247105Y69366
X-191300Y165700
X-184800Y166000
X-182700Y166000
X-189300Y165700
X-186800Y165900
X-154100Y95700
X-155300Y96700
X-151300Y169300
X-110700Y248100
X-169460Y203510
X-165886Y203500
X-165886Y200500
X-165886Y197500
X-165886Y194500
X-165886Y191500
X-169370Y200510
X-169430Y197480
X-168370Y197480
X-169410Y194530
X-168290Y191530
X-168370Y203510
X-168320Y200510
X-169310Y191550
X-167260Y203480
X-168340Y194510
X-167250Y191510
X-167250Y194510
X-167230Y197510
X-167230Y200460
X-167860Y218300
X-169480Y216240
X-169480Y213040
X-167810Y215090
X-170270Y214770
X-168440Y216260
X-168440Y213060
X-167400Y216290
X-167400Y213090
X-166086Y213100
X-166086Y216300
X-166186Y226000
X-169480Y222740
X-169580Y225940
X-166086Y222800
X-166186Y219500
X-167500Y219490
X-168440Y222760
X-167400Y222790
X-168540Y219460
X-170410Y221220
X-167910Y221550
X-168540Y225960
X-167500Y225990
X-170380Y211820
X-169480Y210240
X-166086Y210300
X-167400Y210290
X-168440Y210260
X-169580Y219440
X-170080Y218240
X-195694Y213439
X-195694Y229667
X-106500Y242000
X-147450Y225680
X-159400Y224300
X-145300Y224800
X-145300Y226800
X-146400Y226800
X-146500Y223600
X-146400Y224800
X-147450Y226790
X-145400Y223600
X-146400Y225800
X-145300Y225800
X-106700Y246600
X-118400Y242900
X-99700Y226600
X-119200Y218000
X-196594Y285953
X-176294Y285953
X-162400Y281800
X-162400Y287100
X-162400Y285000
X-162400Y286000
X-162400Y283900
X-162400Y282900
X-162400Y288100
X-101400Y235600
X-103500Y220600
X-104600Y220600
X-99100Y244900
X-109600Y242000
X-103200Y231600
X-108200Y246200
X-115998Y223898
X-102700Y237600
X-104486Y228000
X-107200Y233600
X-111000Y232600
X-101300Y229200
X-111200Y225600
X-105200Y250600
X-108700Y254100
X-101400Y224100
X-114696Y245900
X-100100Y210400
X-101200Y247000
X-99600Y230000
X-177200Y246000
X-197000Y245900
X-188600Y246000
X-182200Y246200
X-165200Y246200
X-122086Y195100
X-141323Y246074
X-113700Y257486
X-172200Y246200
X-165549Y287253
X-164400Y226000
X-164300Y222800
X-164300Y213100
X-164100Y194500
X-100900Y219500
X-103600Y256700
X-196594Y284008
X-176794Y284008
X-195694Y231439
X-195694Y211667
X-196694Y209153
X-198994Y209153
X-195594Y209153
X-197894Y211653
X-197894Y209153
X-172580Y279053
X-103900Y222214
X-100700Y233486
X-164100Y191600
X-164100Y188600
X-164300Y210300
X-164100Y203500
X-164100Y200500
X-164100Y197500
X-164400Y219500
X-164300Y216300
X-173880Y287253
X-118900Y199100
X-118600Y196900
X-112414Y236200
X-108100Y226800
X-99700Y255100
X-108000Y230600
X-108200Y235100
X-101700Y243100
X-162700Y278800
X-162700Y279900
X-108700Y238986
X-106700Y238986
X-122406Y341406
X-138100Y318500
X-124500Y310614
X-115500Y310614
X-131412Y309290
X-109110Y327950
X-109100Y341400
X-120437Y341406
X-122400Y328000
X-122406Y329594
X-138100Y319700
X-110200Y328000
X-109100Y329000
X-112300Y368500
X-144359Y356539
X-144500Y348400
X-169200Y333500
X-169494Y295553
X-167894Y295553
X-183600Y347200
X-180114Y367000
X-149400Y338100
X-149400Y339100
X-148100Y309300
X-149000Y308500
X-176894Y323753
X-192873Y304108
X-167939Y300253
X-192873Y309908
X-182927Y299962
X-188827Y299962
X-162400Y290300
X-162400Y289200
X-162400Y291400
X-162400Y292500
X-172094Y321418
X-141286Y325900
X-104689Y347311
X-111400Y351100
X-121440Y306338
X-126343Y343374
X-183700Y352600
X-181886Y367000
X-192600Y346200
X-196420Y356010
X-133900Y324600
X-118400Y361600
X-171994Y317167
X-175694Y317167
X-193094Y320153
X-193108Y318353
X-118469Y339437
X-144114Y353000
X-142900Y357686
X-154594Y335457
X-155400Y336700
X-177814Y363487
X-154700Y360100
X-122406Y347311
X-171994Y318939
X-175694Y318939
X-192694Y330667
X-184694Y330667
X-188694Y330667
X-194880Y318353
X-194880Y322053
X-182994Y297808
X-188994Y297808
X-115600Y303600
X-144500Y308965
X-140500Y308465
X-128000Y308465
X-166049Y295553
X-165849Y305253
X-166049Y300253
X-175494Y297353
X-186780Y365000
X-188594Y326853
X-196694Y330667
X-167580Y319053
X-180694Y330667
X-176694Y330667
X-174894Y323753
X-168694Y330667
X-167580Y327053
X-172694Y330667
X-172094Y323308
X-167580Y323053
X-118500Y310614
X-188000Y292400
X-194739Y309853
X-194739Y304053
X-135114Y312000
X-141286Y319100
X-139514Y322600
X-118469Y341406
X-141386Y333000
X-144114Y359000
X-170000Y357100
X-157000Y350700
X-163200Y357100
X-163500Y350600
X-170000Y350500
X-157000Y357100
X-170100Y344000
X-163400Y344000
X-156900Y344100
X-178886Y342000
X-148114Y350500
X-140000Y350386
X-143000Y350386
X-109400Y365133
X-106100Y364286
X-103300Y363586
X-151300Y359300
X-170390Y363590
X-120437Y333531
X-122406Y335500
X-120437Y337469
X-120437Y335500
X-147900Y335500
X-153200Y297200
X-119800Y346700
X-139614Y333000
X-122406Y333531
X-140500Y345535
X-120900Y358114
X-112000Y359900
X-178300Y348600
X-115200Y359886
X-115600Y307600
X-187000Y343614
X-109500Y359886
X-106657Y345343
X-110594Y347311
X-112563Y343000
X-149500Y353114
X-192900Y361600
X-115600Y342800
X-126343Y345343
X-124374Y345343
X-103300Y361814
X-104800Y290600
X-102600Y290600
X-102500Y291700
X-103100Y294900
X-110000Y293200
X-107200Y293500
X-107100Y290600
X-103700Y290600
X-102500Y294000
X-102500Y292800
X-103500Y293300
X-108800Y293400
X-105700Y293400
X-104600Y293300
X-105900Y290600
X-108200Y290700
X-184825Y290453
X-167939Y305153
X-188594Y324653
X-122406Y339437
X-120437Y331563
X-175400Y359900
X-136886Y312000
X-147800Y358400
X-149886Y350500
X-175500Y361000
X-176000Y342000
X-177114Y342000
X-147817Y359423
X-116700Y364186
X-51300Y339100
X-98610Y363346
X-95900Y362100
X-95000Y363000
X-86200Y311200
X-79253Y303939
X-68900Y324800
X-82300Y352300
X-86114Y341500
X-97671Y311084
X-98400Y325800
X-83400Y358000
X-85000Y359000
X-91614Y314500
X-54745Y292953
X-91614Y317500
X-79400Y337000
X-73800Y338600
X-98614Y358500
X-79300Y352700
X-86600Y353400
X-92000Y356914
X-90314Y361400
X-82200Y328500
X-91614Y335500
X-87886Y344500
X-86114Y344500
X-48400Y291800
X-48300Y294000
X-93386Y344500
X-76700Y236600
X-83600Y240300
X-95700Y247600
X-92900Y218600
X-98200Y237600
X-94000Y253100
X-68800Y266200
X-85200Y240100
X-96200Y252600
X-71200Y244214
X-97900Y226200
X-95700Y224800
X-76200Y229600
X-87600Y255600
X-62800Y227400
X-83200Y245986
X-84900Y245986
X-58402Y260444
X-92600Y251000
X-81700Y228400
X-74900Y260800
X-66900Y248600
X-94700Y246600
X-67600Y231600
X-68600Y226300
X-86700Y227400
X-89200Y252600
X-82200Y240200
X-86200Y237100
X-89300Y246200
X-76200Y238600
X-89500Y247600
X-90400Y249000
X-95200Y243600
X-79600Y232300
X-96700Y237200
X-58376Y262901
X-89300Y237100
X-73562Y238000
X-95700Y229600
X-80900Y231700
X-83800Y231714
X-79200Y228600
X-92700Y242000
X-84700Y228600
X-93700Y230100
X-98200Y250600
X-98000Y213200
X-83200Y249100
X-86700Y252100
X-93600Y225500
X-90200Y230100
X-75200Y226900
X-39400Y246100
X-31034Y246100
X-47766Y246100
X-58744Y246074
X-24264Y246074
X-95500Y221600
X-87300Y231700
X-88700Y233486
X-82814Y226600
X-72114Y230600
X-78014Y226900
X-97500Y245100
X-80700Y220600
X-98200Y241700
X-89700Y217600
X-56000Y278614
X-52800Y254800
X-86100Y228700
X-98700Y255100
X-89200Y240000
X-60800Y138000
X-72167Y141700
X-61700Y140100
X-45600Y144300
X-83000Y165114
X-73000Y161886
X-76000Y165114
X-39600Y134600
X-39600Y135900
X-76000Y160114
X-83000Y160114
X-47500Y175500
X-47500Y176900
X-76400Y105500
X-80386Y163500
X-83000Y166886
X-50200Y152200
X-73114Y180000
X-78600Y160000
X-86000Y166886
X-73700Y141000
X-53386Y139000
X-78900Y144500
X-64900Y150700
X-77200Y144500
X-83500Y144100
X-71000Y113700
X-59700Y115400
X-62900Y117700
X-69400Y144000
X-63500Y89700
X-64500Y89700
X-62400Y91800
X-72300Y91200
X-73000Y90400
X-73800Y89700
X-74700Y88900
X-62400Y90800
X-63400Y90800
X-65600Y91800
X-65500Y90700
X-65500Y89700
X-64400Y90800
X-64500Y91800
X-62500Y89700
X-63500Y91800
X-54000Y113700
X-32644Y135472
X-17783Y142068
X-38661Y141633
X-45903Y141860
X-70865Y170400
X-68165Y170400
X-68265Y172100
X-69565Y170400
X-68265Y173300
X-74886Y177500
X-70465Y172500
X-76000Y166886
X-70165Y169300
X-69400Y148000
X-76400Y148200
X-68665Y169300
X-86000Y165114
X-85800Y151600
X-80386Y166500
X-73000Y166886
X-47500Y147600
X-30100Y147500
X-39100Y147400
X-58300Y147500
X-24300Y147700
X-64114Y113500
X-51600Y142500
X-66000Y117400
X-81535Y105500
X-78881Y114056
X-82030Y114056
X-74500Y107614
X-54100Y115400
X-86535Y144000
X-72614Y183500
X-51600Y139000
X-77000Y86600
X-75436Y88166
X-76200Y87400
X-86609Y48805
M30
