M48
INCH,TZ
T01C.004
T02C.008
T03C.01
T04C.014
T05C.016
T06C.018
T07C.075
T08C.146
T09C.028
T10C.03
T11C.035
T12C.043
T13C.063
T14C.085
;LEADER: 12 
;HEADER: 
;CODE  : ASCII 
;FILE  : ORWL_Design_SHIFT-9-10.drl for  ... layers IN4 and BOTTOM
;T01 Holesize 1. = 4.000000 Tolerance = +0.000000/-0.000000 PLATED MILS Quantity = 3748
%
G90
T01
X-409230Y206766
X-301927Y66843
X-303459Y68375
X-308648Y86903
X-338800Y58900
X-336741Y61136
X-306118Y82890
X-341473Y56404
X-335000Y54500
X-338689Y53620
X-326270Y77730
X-340081Y55012
X-329270Y80730
X-315026Y81506
X-319494Y85974
X-313494Y79974
X-321026Y87506
X-345649Y60579
X-344257Y59188
X-307927Y72843
X-309459Y74375
X-308203Y59599
X-333122Y48052
X-334513Y49444
X-310703Y62099
X-331500Y72200
X-328500Y70800
X-333900Y75900
X-330900Y68200
X-324500Y61700
X-324200Y66500
X-309663Y58139
X-312163Y60539
X-335830Y46940
X-325400Y50400
X-343375Y68472
X-315161Y63539
X-334100Y82500
X-321600Y70100
X-327600Y76200
X-302915Y86085
X-337300Y85800
X-330900Y79400
X-324800Y73400
X-340100Y88500
X-318163Y66539
X-347070Y58220
X-340700Y78200
X-300803Y79505
X-345128Y84480
X-327459Y93875
X-325927Y92343
X-346500Y158414
X-334000Y151286
X-334000Y149514
X-346500Y156186
X-346500Y154414
X-334000Y146786
X-334000Y145014
X-346500Y160186
X-331300Y164100
X-313100Y184000
X-310134Y108083
X-312103Y108083
X-341203Y92599
X-333459Y99375
X-338703Y90099
X-331927Y97843
X-337312Y165680
X-342700Y91300
X-306215Y89285
X-321900Y108100
X-324000Y108200
X-320000Y108000
X-314000Y108100
X-314100Y152200
X-308200Y108000
X-320900Y99600
X-317000Y100500
X-301672Y95165
X-316461Y95092
X-308632Y92990
X-303150Y170723
X-318636Y170857
X-320670Y185460
X-325000Y185500
X-329390Y185570
X-317000Y186614
X-333500Y186614
X-325000Y178800
X-328700Y174514
X-325700Y174514
X-310733Y180191
X-309129Y180331
X-311767Y180211
X-315000Y160400
X-308000Y159500
X-331700Y174514
X-317400Y184900
X-311943Y175670
X-311658Y174542
X-310518Y174530
X-312762Y174483
X-312999Y175468
X-320400Y103200
X-321300Y102500
X-311035Y159500
X-310696Y175694
X-308400Y175700
X-308200Y174600
X-309533Y175694
X-309343Y174507
X-310000Y223614
X-316986Y220500
X-314700Y225800
X-300570Y272770
X-300870Y273780
X-301230Y274720
X-302240Y274720
X-335570Y215960
X-335570Y214890
X-335590Y213860
X-334530Y215980
X-334560Y214870
X-334500Y213800
X-336700Y213730
X-336660Y214860
X-336640Y216030
X-301494Y230053
X-331017Y280600
X-331017Y279600
X-329790Y280370
X-329810Y279340
X-337780Y213770
X-311800Y220700
X-311800Y221700
X-309800Y220000
X-309800Y219000
X-312800Y221100
X-312800Y222100
X-306694Y234939
X-308886Y196000
X-312700Y204500
X-314700Y203500
X-314700Y205500
X-313700Y203500
X-314700Y204500
X-312700Y203500
X-312700Y205500
X-313700Y204500
X-313700Y205500
X-315700Y205500
X-315700Y203500
X-315700Y204500
X-300000Y249500
X-299950Y250540
X-312800Y220100
X-310700Y220700
X-311800Y219600
X-310700Y219500
X-307808Y243553
X-300150Y253540
X-300040Y254550
X-386386Y248100
X-383822Y250686
X-370401Y255071
X-333100Y189700
X-333100Y190700
X-334100Y190700
X-334100Y189700
X-317700Y189700
X-318700Y191700
X-318700Y190700
X-317700Y190700
X-316700Y190700
X-316700Y189700
X-317700Y191700
X-318700Y189700
X-318300Y217000
X-317300Y218000
X-318700Y216000
X-319300Y216980
X-318300Y218000
X-320360Y218000
X-320300Y216970
X-319200Y215100
X-319300Y217990
X-319800Y216000
X-335800Y239400
X-336009Y241426
X-336090Y240370
X-336320Y235310
X-335998Y242455
X-338250Y239150
X-337150Y239350
X-337100Y241600
X-337090Y240370
X-338090Y240370
X-337320Y235310
X-338320Y235310
X-373389Y230819
X-373407Y229770
X-330500Y257200
X-331500Y257200
X-332550Y257210
X-332000Y255200
X-330900Y255200
X-332500Y256100
X-331500Y256100
X-330500Y256200
X-320700Y229200
X-310160Y265080
X-311260Y265080
X-310160Y263980
X-309060Y262880
X-309060Y263980
X-311260Y262880
X-310160Y262880
X-311260Y263980
X-320300Y262700
X-322300Y262700
X-319800Y264900
X-321000Y263800
X-321800Y264800
X-320000Y263800
X-320800Y264900
X-322000Y263800
X-321300Y262700
X-319200Y263100
X-378200Y231800
X-374400Y271300
X-373400Y272300
X-374400Y272300
X-372400Y272300
X-373400Y271300
X-372400Y271300
X-331750Y262910
X-332750Y262910
X-330750Y262910
X-330750Y263910
X-331750Y264910
X-330750Y264910
X-332750Y263910
X-331750Y263910
X-337386Y274000
X-374000Y267500
X-309560Y243300
X-376090Y261670
X-339000Y232700
X-340600Y280700
X-322901Y281063
X-334500Y195886
X-368000Y255000
X-304600Y191800
X-311050Y241330
X-300894Y239753
X-319500Y195886
X-308300Y211600
X-374162Y237048
X-374232Y235869
X-369530Y246070
X-300300Y193000
X-337386Y271000
X-331100Y274500
X-331110Y273490
X-341120Y252520
X-329000Y218614
X-325500Y194114
X-307300Y246000
X-303694Y241953
X-303800Y214300
X-387962Y237000
X-356200Y192800
X-360200Y198600
X-303010Y279400
X-301810Y278200
X-301810Y279400
X-303010Y278200
X-340150Y284396
X-344430Y270808
X-354310Y268157
X-354310Y270157
X-354310Y269157
X-365771Y210087
X-366934Y209963
X-368273Y209943
X-366801Y211508
X-367964Y211384
X-369303Y211364
X-361836Y210190
X-362999Y210066
X-364338Y210046
X-357314Y216227
X-361300Y204700
X-360456Y210108
X-363800Y216600
X-367943Y215142
X-354900Y206900
X-354900Y205300
X-354800Y203700
X-354200Y202400
X-354000Y201000
X-352400Y201000
X-351000Y201200
X-351700Y202300
X-352900Y203400
X-353600Y204700
X-353500Y206200
X-353700Y207600
X-357800Y207100
X-357700Y205500
X-357600Y204100
X-358600Y202500
X-358900Y201000
X-360000Y201700
X-361400Y201200
X-361400Y202900
X-359900Y203800
X-358900Y205000
X-359100Y206600
X-358931Y208398
X-360200Y205600
X-366643Y215042
X-365343Y215042
X-360236Y196850
X-354800Y208300
X-353600Y209000
X-353700Y210600
X-353600Y212100
X-353600Y213700
X-354554Y215361
X-365214Y216364
X-360137Y216433
X-358715Y216288
X-358860Y214970
X-358170Y211488
X-357954Y210252
X-357700Y208900
X-359117Y210128
X-365565Y211385
X-359272Y211488
X-361455Y216268
X-360158Y215062
X-361383Y215072
X-344484Y226457
X-362700Y215200
X-364061Y215197
X-360547Y211406
X-364164Y211364
X-363010Y211364
X-361752Y211396
X-366714Y216464
X-357582Y214908
X-356223Y214558
X-354800Y214200
X-354800Y212700
X-354900Y211300
X-354800Y209800
X-362600Y216600
X-352500Y195700
X-352400Y198700
X-397760Y206313
X-367814Y216464
X-355893Y215918
X-387962Y238000
X-387962Y236000
X-337700Y190000
X-341150Y243510
X-341150Y242510
X-340150Y242510
X-340150Y243510
X-340150Y241510
X-341150Y241510
X-372217Y239241
X-372198Y240273
X-356900Y229100
X-382298Y245094
X-382298Y244094
X-368900Y231814
X-356400Y265586
X-332886Y280000
X-321500Y199114
X-327500Y199114
X-334800Y229800
X-385800Y244635
X-338900Y246800
X-332000Y220386
X-373000Y246100
X-376325Y246066
X-377325Y246066
X-315740Y273990
X-316900Y226900
X-324000Y223114
X-319700Y220386
X-316200Y245000
X-317114Y246500
X-317114Y243500
X-316800Y209410
X-316786Y213400
X-316786Y215800
X-373962Y263800
X-373924Y264800
X-373962Y265900
X-328000Y251500
X-328000Y250000
X-328000Y248500
X-328000Y245500
X-328000Y247000
X-322500Y277000
X-322500Y275500
X-322500Y271000
X-322500Y272500
X-322500Y274000
X-334820Y267230
X-335650Y266640
X-334270Y268090
X-337440Y263600
X-336140Y265200
X-336780Y264410
X-326930Y265100
X-326930Y264100
X-325930Y265100
X-325930Y264100
X-332350Y258740
X-334000Y258886
X-335600Y258850
X-332886Y274000
X-322500Y195886
X-325500Y195886
X-325930Y203390
X-328500Y195886
X-324500Y199114
X-382371Y247390
X-334500Y212114
X-323500Y210000
X-326000Y210000
X-328500Y210000
X-308249Y207553
X-313300Y259600
X-304114Y249500
X-312500Y244886
X-313000Y279886
X-311614Y275500
X-307114Y192500
X-300340Y190050
X-311614Y269500
X-311614Y272500
X-301867Y203017
X-310000Y228114
X-310000Y226686
X-307617Y223735
X-300700Y214497
X-306400Y228100
X-303194Y228267
X-315214Y220500
X-300200Y245900
X-313000Y228114
X-334700Y226300
X-330500Y199114
X-324000Y259886
X-331114Y271000
X-340119Y251000
X-379500Y255000
X-331114Y277000
X-341130Y253980
X-373641Y255103
X-321400Y248500
X-327500Y223465
X-329000Y220386
X-326000Y220386
X-341000Y211100
X-313230Y194770
X-309886Y249500
X-305886Y249500
X-308350Y225153
X-300394Y217853
X-307400Y220600
X-300372Y220314
X-306494Y226400
X-307114Y196000
X-390445Y231258
X-390403Y232594
X-387879Y232508
X-388946Y232508
X-386812Y232526
X-388964Y231368
X-387860Y231386
X-386800Y231399
X-370160Y259170
X-371210Y259200
X-313220Y250820
X-312070Y253920
X-313100Y253900
X-312030Y254930
X-313100Y254900
X-312000Y251870
X-313010Y251830
X-312050Y252890
X-313100Y252880
X-312150Y250820
X-329902Y226502
X-325530Y224780
X-325310Y226890
X-325300Y225800
X-324000Y224886
X-322700Y225980
X-322680Y224930
X-322650Y227010
X-331320Y225360
X-332330Y225420
X-332390Y226470
X-331300Y226400
X-332400Y227500
X-331300Y227500
X-330200Y225500
X-329750Y240570
X-329750Y239570
X-329750Y237570
X-329750Y238570
X-321400Y244090
X-321400Y245090
X-321600Y242100
X-321400Y243090
X-347673Y259922
X-304914Y217496
X-318300Y230400
X-316300Y231300
X-316300Y232400
X-317300Y231300
X-317300Y232400
X-318300Y231400
X-318300Y232400
X-318300Y229300
X-316200Y229300
X-317300Y229200
X-317300Y230300
X-316200Y230300
X-336967Y204300
X-336967Y205300
X-361500Y304500
X-300985Y313085
X-316485Y297785
X-321860Y312070
X-323368Y310800
X-319485Y294785
X-304185Y309985
X-307185Y306985
X-310285Y303885
X-319000Y317300
X-313285Y300885
X-320400Y316500
X-332300Y322200
X-331500Y321500
X-329900Y320000
X-330700Y320700
X-330000Y317800
X-329900Y318900
X-344300Y303900
X-345102Y303102
X-344400Y302000
X-343500Y302900
X-328015Y298115
X-325015Y301115
X-339519Y312641
X-342527Y310707
X-310262Y338387
X-305715Y334019
X-308400Y330223
X-352625Y323383
X-346753Y318298
X-360862Y330688
X-322015Y304015
X-333285Y297185
X-317500Y310500
X-300500Y309500
X-301500Y302200
X-305200Y348500
X-302500Y345000
X-324353Y327693
X-327693Y324353
X-309500Y318500
X-336285Y294185
X-312600Y297100
X-307000Y303300
X-310300Y300800
X-316600Y294700
X-313500Y352000
X-308115Y301715
X-311115Y298715
X-300100Y302800
X-314315Y295615
X-317315Y292615
X-352266Y311503
X-355009Y309117
X-355102Y310186
X-354173Y309744
X-354200Y310800
X-353300Y311500
X-361000Y296400
X-360200Y295800
X-359500Y295000
X-301100Y360500
X-300800Y361600
X-234596Y372040
X-251692Y367396
X-297985Y316085
X-292415Y362915
X-262000Y363625
X-282694Y330653
X-282694Y329353
X-281394Y330653
X-281394Y329353
X-275374Y320033
X-229694Y327053
X-245733Y318064
X-275387Y290505
X-273305Y290505
X-247814Y292473
X-200574Y292273
X-214494Y338153
X-271437Y322001
X-273405Y318180
X-264494Y300453
X-267700Y302316
X-257657Y312159
X-204694Y314253
X-265994Y289053
X-202542Y296210
X-281294Y296153
X-278834Y316053
X-249783Y294442
X-246594Y288953
X-245846Y300347
X-253420Y292473
X-253420Y294442
X-247914Y310233
X-249751Y310461
X-269468Y304284
X-261594Y309753
X-261594Y316496
X-257657Y316396
X-267500Y320033
X-251851Y320033
X-275374Y312159
X-275374Y296410
X-271437Y306353
X-271842Y302316
X-261594Y314527
X-257657Y314427
X-267500Y318064
X-251855Y318064
X-273405Y312159
X-273405Y296410
X-269468Y306353
X-269468Y302316
X-273105Y308437
X-273405Y306253
X-271437Y298379
X-263563Y318264
X-261481Y320153
X-265645Y318064
X-265645Y319753
X-273525Y300347
X-261594Y318064
X-263563Y320153
X-263693Y316096
X-263676Y314627
X-255688Y320033
X-253720Y320033
X-255688Y315996
X-253720Y318164
X-253720Y314127
X-255688Y318164
X-271437Y300147
X-251751Y314427
X-253720Y315996
X-267500Y314127
X-267500Y315981
X-269582Y318064
X-271437Y318064
X-265531Y314127
X-269468Y316096
X-269468Y320033
X-271437Y320033
X-269468Y298379
X-247794Y314509
X-249773Y316581
X-247824Y318200
X-249821Y314499
X-249896Y320033
X-247691Y316105
X-249683Y318064
X-247814Y320033
X-275374Y316096
X-273705Y316096
X-275374Y298379
X-271437Y312159
X-271437Y314127
X-275374Y314241
X-273405Y314127
X-269468Y312159
X-269468Y310190
X-271437Y292473
X-271437Y294442
X-273305Y294442
X-275574Y294442
X-269468Y296410
X-275574Y292473
X-269468Y294442
X-273305Y292473
X-269468Y292473
X-269468Y308522
X-273405Y310190
X-275374Y306253
X-271137Y308437
X-275374Y310190
X-275374Y308222
X-275374Y300347
X-273525Y298379
X-261594Y292473
X-247614Y302516
X-252101Y300347
X-263626Y296810
X-259642Y294442
X-247763Y304184
X-259625Y292373
X-249763Y304164
X-261334Y296643
X-261721Y294662
X-251751Y302316
X-249783Y302316
X-255588Y296710
X-255688Y294242
X-255634Y292183
X-257657Y296210
X-257557Y294242
X-263663Y294442
X-263763Y292373
X-265531Y296610
X-265531Y294342
X-265531Y292473
X-252051Y308222
X-249783Y308335
X-247814Y308222
X-252051Y306253
X-250103Y306253
X-249783Y300347
X-247534Y300353
X-251918Y298379
X-249873Y298379
X-247814Y298379
X-200574Y315896
X-200574Y300034
X-200574Y319833
X-200590Y318048
X-200574Y298139
X-200574Y296210
X-200574Y311959
X-200794Y313809
X-200574Y302116
X-200574Y304034
X-200594Y306153
X-277342Y320033
X-221729Y333553
X-289326Y315480
X-297900Y313100
X-294400Y315200
X-243494Y343153
X-226659Y327053
X-238694Y342139
X-261293Y346830
X-221222Y346135
X-271494Y340188
X-266494Y340088
X-262194Y340188
X-248094Y340188
X-209694Y341088
X-203694Y342439
X-226386Y342000
X-214194Y341188
X-235000Y341535
X-282194Y340153
X-275694Y340153
X-289540Y329228
X-289380Y340945
X-288898Y346188
X-274829Y346937
X-291126Y367626
X-273405Y321801
X-273405Y320033
X-297800Y304400
X-277342Y296410
X-277342Y312159
X-277342Y306253
X-277342Y300347
X-202542Y306053
X-269691Y300518
X-269468Y314127
X-267500Y290505
X-267613Y296486
X-267700Y304284
X-267700Y300347
X-267380Y310190
X-263663Y298379
X-255618Y290505
X-265531Y298379
X-259625Y316096
X-228532Y289553
X-217716Y310053
X-229594Y316053
X-245846Y304184
X-245846Y296410
X-245846Y298379
X-245846Y294442
X-265531Y315896
X-265451Y312159
X-255394Y306253
X-255688Y314127
X-253720Y300347
X-253720Y312303
X-253720Y302316
X-255573Y312159
X-255363Y308222
X-267613Y298379
X-251751Y312303
X-251751Y292473
X-255388Y298379
X-251751Y294442
X-257957Y298379
X-254020Y298379
X-249783Y292473
X-251751Y296310
X-251855Y316216
X-202542Y311959
X-202542Y298179
X-200294Y309643
X-259625Y312059
X-245756Y312159
X-245846Y315796
X-247814Y294442
X-247814Y290505
X-202542Y315896
X-202342Y294242
X-271437Y316096
X-271437Y304284
X-271437Y310190
X-271437Y296410
X-271437Y290505
X-273585Y302316
X-273405Y304284
X-275374Y302316
X-283055Y355562
X-277342Y318180
X-258004Y319753
X-267983Y352107
X-255688Y322001
X-251751Y322001
X-262800Y323900
X-269468Y322001
X-264400Y352200
X-257657Y318064
X-259625Y318064
X-275374Y318180
X-257127Y366066
X-298500Y302900
X-295815Y313915
X-298815Y310915
X-277342Y304284
X-259625Y322001
X-202542Y308022
X-261594Y290505
X-245746Y308022
X-273318Y243673
X-272294Y203980
X-276600Y221700
X-278114Y221732
X-273264Y238215
X-275100Y220000
X-274100Y221700
X-273300Y205500
X-278310Y206290
X-274920Y205390
X-272280Y206830
X-253643Y200201
X-252120Y201210
X-253653Y198221
X-252375Y199231
X-253643Y196321
X-252194Y193203
X-253643Y194381
X-252294Y195353
X-276430Y204074
X-281500Y198200
X-275300Y202800
X-274300Y206500
X-276100Y206500
X-232088Y201172
X-232088Y199232
X-227994Y200153
X-229552Y201172
X-227994Y198213
X-229552Y199232
X-234794Y201453
X-234624Y199232
X-248594Y199953
X-243500Y198262
X-248794Y198353
X-243500Y200202
X-244870Y195180
X-243610Y196230
X-244694Y193253
X-243500Y194382
X-269859Y242599
X-270127Y197000
X-256179Y200201
X-256179Y198261
X-254894Y199253
X-254894Y201253
X-256179Y194381
X-256179Y196161
X-254894Y195553
X-254911Y193311
X-275204Y200176
X-282100Y196200
X-276774Y198381
X-288330Y194270
X-242330Y199040
X-242240Y201010
X-278464Y196691
X-275084Y195001
X-272300Y209400
X-278114Y209052
X-277200Y210500
X-275204Y217928
X-271324Y210320
X-277300Y217900
X-269300Y220300
X-271300Y223400
X-272900Y223000
X-271325Y202711
X-217094Y192153
X-218000Y196300
X-220676Y196322
X-225748Y198261
X-221794Y199253
X-220800Y198100
X-221600Y201100
X-220676Y200202
X-249839Y201171
X-249839Y199231
X-249839Y193311
X-249839Y195352
X-275204Y238415
X-278314Y231775
X-274234Y231675
X-246240Y194140
X-246120Y196000
X-244767Y203111
X-249839Y205152
X-218210Y206161
X-284600Y240000
X-277144Y238215
X-214336Y193312
X-235316Y235439
X-224480Y203227
X-245066Y217839
X-245066Y211239
X-245066Y209039
X-233356Y204281
X-233694Y222053
X-233694Y224453
X-233366Y213439
X-233366Y211239
X-233366Y209039
X-233366Y215639
X-233366Y217839
X-245066Y235439
X-245066Y206839
X-245249Y226639
X-245131Y231104
X-245119Y222186
X-245188Y224439
X-245301Y228839
X-245066Y213439
X-245066Y215639
X-229663Y203398
X-227016Y203486
X-232088Y205051
X-230820Y204081
X-237266Y235439
X-233366Y233239
X-233694Y226553
X-233566Y235339
X-243116Y235439
X-241166Y235439
X-239216Y235439
X-233366Y228839
X-238428Y204081
X-233366Y206839
X-239696Y205051
X-245066Y233239
X-245066Y220039
X-221994Y203153
X-233366Y231039
X-237160Y205051
X-233366Y220039
X-242232Y203112
X-248571Y204081
X-247016Y235439
X-248966Y235439
X-248966Y228839
X-248966Y217839
X-248966Y231039
X-248966Y224439
X-248966Y226639
X-248966Y233239
X-248966Y222239
X-248966Y209039
X-247516Y213439
X-247516Y217839
X-248966Y206839
X-248966Y220039
X-247298Y205043
X-247304Y203111
X-247516Y222239
X-247516Y231039
X-247516Y226639
X-247516Y209039
X-248966Y213439
X-248966Y211239
X-248966Y215639
X-262520Y237068
X-219408Y205052
X-221666Y217839
X-231416Y217839
X-227516Y213439
X-223616Y209039
X-227516Y226639
X-227516Y231039
X-229466Y231039
X-229466Y226639
X-231416Y226639
X-223616Y226639
X-225566Y231039
X-219716Y235439
X-221666Y226639
X-219716Y226639
X-223616Y235439
X-227516Y235439
X-231416Y235439
X-225566Y235439
X-229466Y235439
X-221666Y235439
X-231416Y231039
X-221666Y231039
X-223616Y231039
X-225566Y226639
X-219716Y231039
X-221666Y213439
X-225566Y213439
X-223616Y213439
X-219716Y213439
X-231416Y222239
X-227516Y222239
X-225566Y222239
X-225566Y217839
X-219666Y222239
X-221666Y222239
X-223616Y217839
X-223616Y222239
X-227516Y217839
X-229466Y217839
X-219716Y209039
X-221666Y209039
X-225566Y209039
X-231416Y209039
X-227516Y209039
X-229466Y209039
X-229466Y213439
X-231416Y213439
X-229466Y222239
X-219716Y217839
X-217615Y212855
X-224480Y205051
X-227016Y205051
X-221944Y205051
X-211795Y217928
X-213735Y212855
X-211795Y212855
X-209855Y212855
X-207915Y217928
X-215675Y212855
X-215675Y217928
X-217615Y217928
X-213735Y217928
X-209855Y217928
X-207915Y212857
X-209855Y220464
X-213735Y220464
X-217615Y220464
X-207761Y220365
X-211795Y220464
X-215675Y220464
X-241417Y231075
X-241166Y233239
X-241460Y226639
X-241166Y224439
X-241470Y228839
X-237266Y224439
X-237266Y233239
X-237266Y228839
X-237266Y231039
X-237266Y226639
X-237266Y222239
X-241166Y222039
X-237266Y211239
X-237266Y213439
X-237266Y209039
X-237266Y206839
X-237266Y217839
X-241166Y211239
X-241166Y213439
X-241166Y217839
X-241166Y209039
X-241166Y206839
X-241166Y215639
X-237266Y215639
X-266516Y220039
X-280154Y231775
X-280100Y222100
X-280300Y216400
X-280154Y234411
X-280154Y237047
X-280500Y220400
X-260900Y192000
X-260900Y190900
X-259000Y190900
X-259100Y192000
X-260000Y190900
X-260000Y192000
X-257448Y237068
X-258716Y226639
X-258716Y224439
X-266420Y231000
X-260666Y226639
X-266655Y237068
X-291630Y236600
X-254816Y233239
X-254816Y235439
X-290460Y218770
X-252866Y220039
X-252866Y222239
X-256766Y220039
X-254816Y222239
X-254816Y217839
X-254816Y220039
X-256766Y217839
X-252866Y233239
X-252866Y235439
X-252866Y224439
X-252866Y228839
X-251107Y238038
X-249839Y237068
X-237160Y237069
X-221944Y237069
X-234624Y237069
X-242232Y237069
X-239696Y237069
X-229452Y237069
X-226917Y237069
X-224480Y237069
X-247303Y237068
X-244767Y237068
X-252866Y226639
X-280154Y209052
X-258716Y215639
X-256766Y228839
X-256766Y231039
X-256694Y232953
X-256766Y226339
X-266516Y206839
X-266516Y209039
X-266516Y211239
X-262616Y220039
X-260666Y220039
X-264566Y235439
X-280154Y211689
X-258716Y235439
X-260666Y224439
X-262616Y224439
X-268414Y224287
X-262616Y211239
X-260666Y211239
X-258716Y206839
X-260666Y206839
X-262616Y215639
X-266516Y215639
X-258716Y211239
X-256766Y211239
X-250916Y220039
X-225776Y240029
X-223212Y239979
X-240965Y239979
X-233356Y240029
X-235893Y239979
X-248571Y239978
X-246035Y239978
X-243300Y239979
X-251107Y239978
X-253643Y239978
X-220676Y239979
X-230820Y240029
X-228284Y240029
X-238428Y239679
X-233144Y253953
X-233144Y255053
X-243094Y255153
X-243094Y253953
X-213465Y253953
X-212794Y254953
X-223584Y253953
X-223584Y255153
X-251094Y255803
X-251094Y254703
X-269281Y240948
X-268619Y239688
X-277170Y227980
X-275104Y228003
X-275204Y223000
X-277100Y223300
X-276100Y224000
X-277800Y224300
X-275204Y225535
X-277100Y225500
X-273394Y198381
X-275300Y192100
X-270354Y204100
X-287500Y191000
X-269384Y205248
X-288400Y193000
X-263787Y200201
X-266323Y200201
X-265055Y201171
X-263787Y198261
X-266323Y198261
X-265055Y199231
X-263787Y196321
X-266454Y196053
X-264910Y192970
X-263200Y194400
X-266454Y194113
X-265055Y195352
X-276174Y231875
X-274234Y234411
X-246035Y198261
X-246035Y200201
X-269827Y195352
X-268694Y192553
X-278114Y229339
X-276174Y229339
X-247314Y242889
X-242232Y242839
X-214326Y250638
X-213444Y245753
X-298580Y189553
X-275085Y249309
X-266480Y240106
X-272275Y244576
X-262620Y246768
X-276774Y196691
X-218141Y238049
X-217615Y230605
X-217615Y233144
X-205294Y242853
X-206845Y247319
X-206845Y244556
X-273294Y212553
X-275404Y240651
X-274900Y215200
X-272194Y250553
X-267600Y246700
X-265055Y244828
X-267108Y238445
X-272294Y242019
X-263787Y243858
X-207400Y190400
X-273100Y225500
X-273395Y250999
X-273064Y202712
X-277900Y192900
X-271700Y199800
X-277122Y190800
X-271280Y198190
X-271324Y205248
X-286100Y191100
X-270127Y201171
X-275700Y189500
X-270453Y199163
X-285661Y256119
X-259983Y203111
X-267592Y240948
X-277044Y230153
X-294437Y221656
X-275304Y230407
X-295951Y221679
X-271324Y238215
X-267592Y244829
X-265056Y242889
X-273364Y240951
X-278201Y244559
X-269200Y238400
X-272200Y236800
X-276375Y237248
X-271322Y243440
X-275205Y243288
X-298170Y241900
X-219594Y195453
X-269385Y235679
X-278114Y234411
X-268600Y236700
X-270354Y236947
X-277144Y235679
X-271324Y235679
X-265056Y246768
X-268850Y247839
X-286494Y253553
X-290294Y236853
X-275205Y212655
X-269285Y217928
X-291400Y205500
X-296251Y236200
X-277208Y240882
X-274200Y218798
X-285461Y215461
X-285394Y216753
X-276400Y219400
X-281300Y192700
X-275084Y198381
X-273818Y203926
X-263688Y247739
X-266324Y247739
X-292439Y255120
X-263787Y251618
X-286060Y263310
X-271394Y249353
X-240964Y241819
X-257494Y243053
X-252089Y244666
X-234624Y248709
X-229522Y250658
X-257448Y248910
X-252416Y250750
X-229552Y244829
X-234624Y244724
X-257448Y244725
X-252376Y242890
X-234624Y250748
X-229552Y248709
X-257488Y250950
X-252376Y248710
X-229552Y242789
X-234524Y242890
X-227017Y242789
X-230820Y241919
X-233356Y243659
X-258974Y243858
X-258715Y241918
X-256518Y246053
X-256294Y243453
X-235914Y245799
X-256180Y241919
X-259094Y245853
X-254912Y242890
X-255108Y244639
X-253644Y241919
X-253599Y243854
X-251408Y243759
X-251119Y246095
X-251108Y241919
X-253464Y246153
X-232089Y242889
X-249840Y242890
X-250094Y244853
X-235892Y247639
X-235892Y249679
X-233356Y249679
X-232088Y248709
X-236794Y255053
X-233356Y247739
X-233356Y251718
X-232109Y250678
X-232260Y244619
X-230820Y247739
X-228284Y247739
X-228284Y249679
X-230574Y255153
X-227016Y248709
X-230820Y249679
X-227016Y250648
X-228324Y251718
X-258816Y250059
X-258716Y247739
X-235997Y243759
X-255634Y253853
X-256180Y249680
X-256180Y247740
X-258915Y251953
X-254912Y248710
X-254912Y250650
X-251108Y247739
X-253644Y247739
X-251108Y249680
X-253644Y251820
X-233336Y245799
X-253644Y249680
X-249840Y248710
X-251098Y253459
X-249840Y250650
X-227048Y244629
X-228284Y243804
X-230820Y243809
X-228284Y241919
X-228184Y245799
X-230820Y245799
X-235892Y241919
X-233356Y241919
X-243700Y247734
X-247303Y250648
X-244768Y244830
X-239689Y250683
X-244768Y242890
X-239696Y248709
X-246985Y246765
X-243700Y245799
X-244983Y248709
X-243500Y251618
X-239676Y244660
X-246036Y241919
X-241069Y246044
X-239696Y242890
X-246994Y244953
X-243400Y241919
X-242232Y244830
X-238428Y241919
X-238428Y243650
X-238483Y245725
X-240904Y251728
X-242232Y250648
X-240964Y247739
X-238428Y247739
X-238664Y251773
X-246036Y245799
X-238428Y249679
X-244768Y250550
X-246076Y251618
X-247294Y248710
X-210226Y250999
X-221984Y250748
X-216872Y248709
X-221944Y242889
X-216872Y244829
X-215675Y225535
X-212725Y231901
X-210825Y231876
X-207915Y225568
X-221944Y248709
X-216894Y250648
X-221962Y244829
X-216872Y242889
X-213735Y225535
X-214706Y231871
X-208885Y231876
X-209855Y225568
X-208885Y229340
X-210825Y229340
X-207915Y228036
X-224448Y250684
X-224480Y248709
X-220530Y253569
X-223145Y251858
X-209856Y228072
X-223212Y247739
X-223212Y249679
X-220676Y247739
X-220676Y249679
X-219408Y248709
X-219408Y250648
X-218140Y251618
X-214594Y253953
X-218140Y249679
X-218140Y247739
X-207915Y223000
X-215604Y249679
X-215604Y247739
X-224480Y242889
X-224337Y244839
X-223194Y245973
X-220676Y245799
X-223232Y243859
X-223212Y241919
X-220676Y243859
X-220676Y241919
X-208885Y224268
X-219394Y244829
X-219408Y242889
X-215604Y245799
X-218151Y241909
X-218141Y243839
X-218173Y245859
X-215604Y241919
X-215604Y243859
X-213735Y222700
X-215675Y223000
X-210825Y226804
X-214706Y226804
X-212703Y226765
X-214706Y224268
X-212765Y224197
X-213735Y228072
X-215675Y228072
X-214706Y229340
X-212748Y229333
X-212765Y234469
X-213735Y233144
X-208985Y226804
X-215675Y230607
X-213735Y230607
X-215675Y233144
X-214706Y234411
X-208885Y234411
X-207815Y233177
X-207815Y230607
X-209855Y230607
X-209855Y233144
X-210825Y234411
X-210825Y224268
X-209855Y223000
X-213068Y247759
X-203894Y241219
X-208845Y239483
X-210825Y242020
X-210806Y239483
X-208885Y242020
X-209855Y238216
X-213068Y243859
X-212765Y242020
X-213735Y240752
X-208885Y236948
X-212705Y251259
X-211646Y250038
X-210137Y249309
X-209856Y240752
X-208535Y250999
X-210826Y236948
X-209925Y247713
X-208535Y249310
X-211800Y248409
X-209855Y245624
X-209855Y243288
X-211480Y243620
X-214906Y239483
X-212765Y236948
X-213735Y238216
X-214706Y236948
X-208885Y244555
X-215675Y238216
X-211795Y238216
X-274235Y241920
X-278114Y241919
X-242232Y248709
X-245994Y247753
X-213068Y249648
X-205894Y240752
X-274784Y252688
X-266323Y243858
X-276574Y252688
X-271729Y246189
X-273394Y247618
X-270127Y248708
X-278464Y249308
X-270127Y244828
X-233356Y198162
X-233356Y200202
X-261252Y245799
X-270355Y219196
X-298300Y216433
X-278100Y216300
X-224480Y201172
X-261251Y247738
X-265056Y248809
X-290500Y267614
X-261251Y249678
X-262620Y248709
X-293500Y269386
X-250916Y228839
X-250916Y213439
X-250916Y211239
X-250916Y215639
X-250916Y235439
X-250916Y230955
X-250916Y226639
X-178214Y-13071
X-250916Y217839
X-250916Y224439
X-250930Y233310
X-262616Y209039
X-266470Y191380
X-246035Y202141
X-263988Y202141
X-265055Y197291
X-262520Y205051
X-262519Y197291
X-257448Y205051
X-258815Y202141
X-253843Y202141
X-224580Y197292
X-229552Y197292
X-232088Y197292
X-234624Y197491
X-244940Y197230
X-247303Y197291
X-239696Y197192
X-237160Y197292
X-242332Y197292
X-267591Y203111
X-265056Y205051
X-266323Y202441
X-298475Y284342
X-291100Y272300
X-293062Y274273
X-292421Y273505
X-293456Y273317
X-254816Y211239
X-254816Y209039
X-255112Y205051
X-254816Y206839
X-254816Y213439
X-292809Y272500
X-278114Y201544
X-277230Y207650
X-295593Y226866
X-276574Y193311
X-280154Y196891
X-281600Y250900
X-297044Y265218
X-297044Y260988
X-280154Y249108
X-297685Y221687
X-279237Y220917
X-271990Y226930
X-273800Y227020
X-280154Y214124
X-280154Y226803
X-270354Y226803
X-268414Y221752
X-268414Y226823
X-258716Y228839
X-258716Y231039
X-254816Y224439
X-254816Y231039
X-262616Y233239
X-266516Y222239
X-266516Y226639
X-254816Y226639
X-254816Y228839
X-264566Y226639
X-274234Y214024
X-273264Y233143
X-278114Y214124
X-264559Y213431
X-268415Y211607
X-264566Y228839
X-264494Y230853
X-264572Y217828
X-264566Y222239
X-262610Y217814
X-258718Y220025
X-258705Y222230
X-258712Y217842
X-260661Y217828
X-260666Y231039
X-262616Y231039
X-266516Y233239
X-266522Y217842
X-271324Y233143
X-278100Y204000
X-298795Y199002
X-293194Y194653
X-270354Y239683
X-284100Y238000
X-279084Y207784
X-294294Y230953
X-295040Y241905
X-272090Y201560
X-208535Y247619
X-240964Y249679
X-230574Y253953
X-210694Y269588
X-242394Y275453
X-271424Y220465
X-271324Y207784
X-263788Y242018
X-261251Y238038
X-258716Y238039
X-259983Y242888
X-260083Y240948
X-260083Y248708
X-252375Y246768
X-213340Y202401
X-211795Y202713
X-249839Y246768
X-208985Y221733
X-219408Y197292
X-234624Y246768
X-206845Y239483
X-247016Y220039
X-247016Y233239
X-247016Y224439
X-247016Y228839
X-247016Y215639
X-247016Y206839
X-217716Y282553
X-238428Y202141
X-207915Y243288
X-212765Y239483
X-211795Y230607
X-211795Y228072
X-221944Y246769
X-219408Y246769
X-216872Y246769
X-239696Y246768
X-263788Y245799
X-253643Y238338
X-257447Y240948
X-254911Y239008
X-254911Y246768
X-257500Y246900
X-268759Y243858
X-219616Y233536
X-248571Y245798
X-247277Y238538
X-244758Y238538
X-211795Y235680
X-239667Y238538
X-218141Y240009
X-232050Y238538
X-231416Y233295
X-224448Y238538
X-216645Y236948
X-219408Y237068
X-219408Y239009
X-221923Y238537
X-226967Y238538
X-229505Y238538
X-209856Y235680
X-213735Y235680
X-214336Y246769
X-237160Y248709
X-217615Y235680
X-249850Y238538
X-248571Y247738
X-242261Y238538
X-248571Y249678
X-248571Y251618
X-227516Y233239
X-225286Y233239
X-223616Y233239
X-229466Y233239
X-216872Y240948
X-237160Y246768
X-234624Y239053
X-237360Y239009
X-207915Y235680
X-237160Y242889
X-237160Y244829
X-221615Y233290
X-231416Y211239
X-229466Y211239
X-227516Y211239
X-225566Y211239
X-223616Y211239
X-219716Y211239
X-221666Y211239
X-221666Y206839
X-225566Y206839
X-231416Y206839
X-229466Y206839
X-227516Y206839
X-223616Y206839
X-213936Y197792
X-218140Y202142
X-209855Y202713
X-208535Y198382
X-212765Y209052
X-214705Y209052
X-206845Y209052
X-210825Y209052
X-208885Y209052
X-216594Y206553
X-242232Y246769
X-266694Y269588
X-267591Y250648
X-259983Y250648
X-258720Y253270
X-259983Y246768
X-259983Y244828
X-266124Y245799
X-265800Y238000
X-225948Y201941
X-220894Y202153
X-230820Y202141
X-227516Y220039
X-225566Y220039
X-223616Y220039
X-219716Y220039
X-231416Y220039
X-229466Y220039
X-221666Y220039
X-206845Y221733
X-210825Y221733
X-211795Y225535
X-211795Y223000
X-212765Y221733
X-216645Y224268
X-209855Y215392
X-215675Y215392
X-211795Y215392
X-207915Y215392
X-213735Y215392
X-214705Y221733
X-216645Y221733
X-235316Y209039
X-235316Y213439
X-235316Y206839
X-235316Y211239
X-235316Y217839
X-235316Y215639
X-239216Y209039
X-239216Y213439
X-239216Y211239
X-239216Y206839
X-239216Y217839
X-239216Y215639
X-208535Y196692
X-211654Y197752
X-208740Y201510
X-219435Y215639
X-231416Y215639
X-223346Y215588
X-227516Y215639
X-221666Y215639
X-229466Y215639
X-225747Y215639
X-235316Y222239
X-235316Y226639
X-235316Y233239
X-235316Y228839
X-235316Y231039
X-235316Y224439
X-247016Y211239
X-208635Y252689
X-240964Y202142
X-227516Y228839
X-216645Y226804
X-221666Y228839
X-223616Y228839
X-231416Y228839
X-216645Y229340
X-217615Y228072
X-219716Y228839
X-229466Y228839
X-225566Y228839
X-232088Y246768
X-227017Y246769
X-210426Y252787
X-243194Y226639
X-243194Y228839
X-243116Y222239
X-243194Y224439
X-243116Y233239
X-243116Y231229
X-243116Y211239
X-243116Y215639
X-243116Y206839
X-243116Y213439
X-243116Y217839
X-243116Y209039
X-233356Y202141
X-235892Y202141
X-221900Y197100
X-216872Y197292
X-239216Y226639
X-239216Y228839
X-239216Y231039
X-239216Y224439
X-239216Y222239
X-239216Y233239
X-221666Y224439
X-229466Y224439
X-231416Y224439
X-225566Y224439
X-223480Y224439
X-227367Y224439
X-219716Y224439
X-270227Y250648
X-242394Y271317
X-211795Y233144
X-217962Y253588
X-224480Y246769
X-205194Y229353
X-205194Y232353
X-273494Y245853
X-275084Y196691
X-275084Y250998
X-273394Y274918
X-274234Y201544
X-275144Y207953
X-273264Y207884
X-277600Y205300
X-275084Y247618
X-221944Y193312
X-274784Y193311
X-223212Y198262
X-287894Y253553
X-225748Y251618
X-230820Y196320
X-230720Y194381
X-233356Y196320
X-233356Y194381
X-229552Y195351
X-229200Y193300
X-232088Y195351
X-232088Y193311
X-225748Y196322
X-225748Y194382
X-228294Y195953
X-228284Y194382
X-224380Y193412
X-224480Y195352
X-227094Y195453
X-227116Y193112
X-225748Y200200
X-212880Y194741
X-276100Y209300
X-268859Y194381
X-268859Y196221
X-268826Y197846
X-276400Y244400
X-240964Y198262
X-240964Y200202
X-237160Y199232
X-237160Y201172
X-239700Y199320
X-239794Y200953
X-271396Y247839
X-270127Y246768
X-215594Y190153
X-212718Y199002
X-210225Y196692
X-215604Y198262
X-215354Y196400
X-215604Y200232
X-218140Y200202
X-219408Y201172
X-214342Y201174
X-214296Y199337
X-216872Y199232
X-216872Y201172
X-211460Y199890
X-209850Y200060
X-212768Y200932
X-210825Y201445
X-210125Y198382
X-213088Y196402
X-218140Y198262
X-219400Y199400
X-223212Y200200
X-251107Y200201
X-251158Y198243
X-251107Y196321
X-251360Y194300
X-270354Y221732
X-272294Y221932
X-269385Y222900
X-270354Y224267
X-272295Y224268
X-267592Y242889
X-278314Y236947
X-266324Y249679
X-277100Y202400
X-252866Y211239
X-252866Y206839
X-252866Y215639
X-250916Y206839
X-244000Y190000
X-297460Y254530
X-297410Y253500
X-266516Y228839
X-268414Y229359
X-279084Y228071
X-280354Y229339
X-260666Y235439
X-293194Y188667
X-148315Y25484
X-152100Y39000
X-153100Y38400
X-151900Y37900
X-151900Y36800
X-228900Y164900
X-229900Y164500
X-178114Y37000
X-184874Y61937
X-186843Y61937
X-184874Y63906
X-186843Y63906
X-180900Y59800
X-197900Y74314
X-178969Y61937
X-194600Y74314
X-180937Y56031
X-173063Y58000
X-179800Y49290
X-137685Y25484
X-99506Y61474
X-137685Y27453
X-137685Y17610
X-137685Y19579
X-147100Y42700
X-147100Y44400
X-180937Y67843
X-180937Y65874
X-158686Y74100
X-185400Y34600
X-184300Y34600
X-183300Y34600
X-182200Y34600
X-182400Y39500
X-183500Y39500
X-184500Y39500
X-185600Y39500
X-185400Y35700
X-184400Y35700
X-183400Y35700
X-185600Y38400
X-184500Y38400
X-183500Y38400
X-182300Y35700
X-182400Y38400
X-172800Y50400
X-184874Y58000
X-290965Y176800
X-286635Y176800
X-208200Y146600
X-207500Y145600
X-250800Y108300
X-250800Y109500
X-165000Y11400
X-186032Y-2952
X-189983Y-2898
X-182500Y12900
X-187565Y12900
X-193916Y-2979
X-142706Y64973
X-124990Y64973
X-242800Y184900
X-242800Y183500
X-205200Y179900
X-259142Y128000
X-259142Y131000
X-267418Y133083
X-267418Y135051
X-291500Y160700
X-247900Y185300
X-247900Y183700
X-212400Y187200
X-187947Y-1987
X-187947Y-3087
X-187947Y-4187
X-187947Y-987
X-172400Y12900
X-171400Y12900
X-171400Y11900
X-172400Y11900
X-222000Y139700
X-220900Y139700
X-221600Y140800
X-220300Y140800
X-200900Y106800
X-202000Y106800
X-184039Y800
X-184039Y-200
X-205800Y187200
X-178114Y34000
X-191700Y74200
X-191700Y70800
X-191700Y71900
X-191700Y73100
X-172800Y72000
X-172800Y73100
X-228600Y160400
X-227000Y160614
X-235900Y138500
X-234900Y138500
X-170126Y59969
X-167157Y59969
X-165035Y19400
X-165000Y21500
X-164500Y27000
X-164500Y29000
X-160900Y60200
X-160600Y53100
X-160900Y61600
X-160600Y51700
X-245500Y185000
X-245500Y183600
X-212500Y137886
X-218500Y137886
X-221500Y137886
X-215500Y137886
X-137685Y29421
X-137685Y31390
X-137685Y21547
X-137685Y23516
X-183941Y30500
X-154200Y78600
X-164600Y37900
X-175031Y50126
X-161490Y33010
X-175031Y48157
X-180937Y50126
X-182906Y65874
X-184874Y65874
X-177000Y61937
X-175031Y61937
X-238879Y160663
X-287700Y186500
X-259114Y143000
X-246541Y140231
X-254168Y137490
X-195565Y12800
X-195892Y-2970
X-197876Y-3505
X-163035Y34700
X-173063Y56031
X-178600Y75700
X-194386Y63500
X-218200Y160700
X-219800Y160700
X-143700Y45000
X-142700Y45000
X-144700Y45000
X-141700Y45000
X-176500Y41386
X-193000Y67000
X-170000Y74886
X-167000Y74886
X-212600Y174100
X-297000Y172900
X-165588Y28045
X-260900Y124500
X-263200Y136398
X-267400Y131100
X-253900Y103700
X-263200Y90300
X-261700Y90300
X-255400Y93700
X-206000Y131100
X-204700Y138800
X-236500Y118500
X-227930Y111360
X-245600Y114800
X-247600Y114700
X-248214Y162859
X-248170Y102820
X-208660Y104260
X-241100Y108600
X-148315Y23516
X-142500Y9600
X-142000Y15200
X-177500Y12900
X-176100Y13000
X-172600Y19000
X-171200Y18900
X-164700Y6100
X-165500Y4900
X-190635Y12900
X-193000Y40100
X-193000Y37900
X-194900Y40200
X-197000Y40200
X-197000Y39000
X-195000Y39000
X-197000Y37900
X-195000Y37900
X-188200Y42100
X-193000Y39000
X-191959Y-2997
X-182071Y-2969
X-241950Y119580
X-240820Y118620
X-243800Y106600
X-242200Y114900
X-248330Y101380
X-246000Y125000
X-245000Y123500
X-229083Y144484
X-208300Y140200
X-212100Y141000
X-230131Y144471
X-207260Y108060
X-203060Y117360
X-210900Y107300
X-226010Y131990
X-229780Y137300
X-236500Y125000
X-229300Y100600
X-249970Y102820
X-251230Y101380
X-249830Y101380
X-263568Y140831
X-296500Y108300
X-292400Y152200
X-274700Y152200
X-267400Y142900
X-258841Y158831
X-251370Y102820
X-267400Y137100
X-267400Y125300
X-99285Y30715
X-102685Y44985
X-140000Y37500
X-141000Y37500
X-140965Y39500
X-140000Y36300
X-170965Y-2197
X-159438Y-2269
X-172850Y7155
X-111403Y55046
X-255959Y98543
X-272343Y94483
X-262918Y93758
X-265211Y170345
X-226393Y169894
X-211628Y170001
X-163020Y26192
X-164925Y17953
X-164699Y23101
X-211700Y157700
X-216100Y156700
X-255500Y91100
X-255200Y96100
X-254700Y100700
X-259500Y95700
X-258700Y92000
X-296332Y180142
X-215600Y147600
X-218620Y146370
X-218670Y147640
X-218670Y148840
X-233100Y158986
X-156914Y77300
X-160100Y66500
X-156100Y70000
X-182386Y79500
X-156100Y66600
X-193000Y56886
X-185500Y79886
X-189000Y77000
X-167157Y67843
X-173000Y74886
X-196400Y71000
X-196035Y67000
X-197800Y60900
X-198900Y60900
X-173000Y78886
X-162500Y77600
X-176500Y77000
X-156914Y74100
X-158386Y48500
X-182386Y73500
X-160100Y70000
X-186843Y67843
X-178969Y56031
X-177000Y58000
X-177000Y56031
X-178969Y54063
X-180937Y54063
X-184874Y54063
X-178969Y59969
X-173063Y59969
X-177000Y59969
X-177000Y54063
X-180937Y58000
X-173063Y54063
X-173063Y61937
X-175031Y54063
X-175031Y56031
X-175031Y58000
X-175031Y59969
X-178969Y58000
X-159965Y34700
X-164965Y41500
X-175700Y38300
X-156000Y45114
X-158386Y45500
X-156000Y42386
X-264100Y179800
X-216000Y179114
X-216000Y176486
X-274400Y186500
X-235500Y145300
X-189000Y28500
X-182906Y50126
X-167157Y54063
X-169126Y54063
X-289800Y104800
X-287800Y104800
X-286300Y103200
X-234400Y122800
X-263716Y137980
X-263716Y139432
X-238300Y184900
X-238300Y183300
X-203800Y179900
X-252400Y180786
X-252900Y178900
X-255900Y180786
X-255400Y179000
X-288100Y91300
X-270000Y159886
X-250759Y149231
X-256965Y147000
X-258614Y151500
X-233300Y162214
X-246541Y144169
X-299000Y102114
X-249600Y187200
X-245800Y174100
X-226019Y149426
X-227116Y149425
X-223800Y149200
X-229174Y149406
X-229135Y148219
X-230244Y148271
X-223800Y148200
X-230282Y149431
X-226026Y148330
X-227109Y148324
X-298491Y180333
X-248100Y51100
X-249100Y51100
X-251236Y51137
X-250200Y51100
X-268821Y36645
X-265578Y31076
X-263555Y71000
X-259555Y71000
X-267287Y48787
X-261713Y50000
X-201400Y59600
X-211595Y-2942
X-209683Y-2861
X-175990Y186125
X-177000Y186125
X-185500Y186625
X-184490Y186625
X-190000Y186625
X-188990Y186625
X-181500Y186625
X-180490Y186625
X-205339Y-300
X-205339Y700
X-252555Y62100
X-115300Y183700
X-115300Y187800
X-117800Y182800
X-115300Y185700
X-115300Y186800
X-116300Y186800
X-117300Y184700
X-118300Y186800
X-116300Y187800
X-117300Y185700
X-118300Y185700
X-118300Y184700
X-118300Y183700
X-117300Y183700
X-116300Y185700
X-116300Y184700
X-116300Y183700
X-117300Y187800
X-118300Y187900
X-117300Y186800
X-120700Y187800
X-115300Y184700
X-116800Y182800
X-114300Y183500
X-114300Y187800
X-114300Y186700
X-114300Y185600
X-114300Y184500
X-122500Y179800
X-121400Y179800
X-123100Y178800
X-124100Y178800
X-121100Y178700
X-124000Y177700
X-121900Y177800
X-122100Y178800
X-123000Y177800
X-123600Y179800
X-162600Y182000
X-272445Y57300
X-203240Y79440
X-273200Y75300
X-208200Y64600
X-208200Y79400
X-133886Y107500
X-133886Y144000
X-201818Y-2969
X-205435Y12800
X-203751Y-3018
X-200423Y12800
X-199852Y-2978
X-147500Y93500
X-145070Y160500
X-206700Y79400
X-205786Y80394
X-249790Y28812
X-165000Y176600
X-250800Y54400
X-250000Y53500
X-252600Y59500
X-257060Y60287
X-252555Y64600
X-252600Y57000
X-272500Y60000
X-272500Y62500
X-272500Y55000
X-250100Y59900
X-278295Y79701
X-249300Y80500
X-238150Y87630
X-244000Y87800
X-234520Y82960
X-238920Y81930
X-239790Y82950
X-216800Y44100
X-271213Y43287
X-259213Y43287
X-238300Y36300
X-229235Y36300
X-235200Y32300
X-207730Y-3058
X-216600Y48100
X-233510Y81790
X-236300Y60700
X-237600Y60700
X-230200Y60600
X-231500Y60600
X-237600Y51000
X-236300Y51000
X-230500Y55900
X-231800Y55900
X-237600Y55800
X-236300Y55800
X-216500Y49900
X-230500Y51000
X-231800Y51000
X-237210Y86610
X-242800Y86400
X-245400Y59300
X-142000Y90000
X-278465Y84000
X-278465Y88500
X-263600Y68500
X-254500Y83000
X-253500Y82000
X-259500Y68500
X-178724Y167256
X-216202Y12085
X-244070Y24888
X-246825Y6330
X-221594Y79550
X-221739Y75780
X-259148Y77230
X-251319Y71141
X-233340Y76650
X-233340Y73171
X-245664Y37503
X-245374Y30253
X-221306Y62006
X-224351Y28803
X-220726Y37793
X-220581Y51132
X-245954Y75345
X-297395Y78708
X-187394Y170162
X-155232Y168069
X-235104Y29195
X-235104Y26223
X-235001Y22399
X-233641Y18952
X-235254Y12755
X-237309Y14494
X-239870Y20090
X-240186Y24106
X-227950Y20470
X-230195Y23885
X-223967Y13198
X-254400Y88400
X-252400Y86500
X-251700Y84200
X-249400Y82600
X-258100Y87600
X-258500Y84000
X-256800Y80200
X-254900Y72600
X-253800Y79600
X-260100Y81100
X-251600Y75900
X-246600Y77000
X-255500Y76300
X-251800Y68800
X-250200Y64500
X-248000Y61900
X-246800Y55400
X-245900Y52600
X-245900Y49200
X-245200Y56600
X-245500Y61400
X-248900Y58200
X-250300Y62100
X-245400Y46900
X-245400Y44500
X-245300Y41600
X-245500Y35100
X-247500Y37500
X-247200Y32800
X-243700Y31200
X-241200Y28400
X-238000Y27600
X-247300Y28300
X-236700Y33700
X-237400Y39800
X-237600Y42100
X-237300Y44500
X-237400Y46800
X-230400Y47900
X-229800Y43700
X-229600Y40900
X-229300Y38600
X-235500Y43600
X-234700Y47300
X-235300Y39800
X-234700Y35100
X-232500Y34100
X-221900Y60100
X-221900Y56900
X-221900Y53000
X-221900Y48800
X-221700Y45400
X-221500Y41500
X-221900Y34900
X-222100Y31900
X-227100Y27900
X-231500Y28100
X-219200Y48400
X-218700Y41200
X-214600Y45600
X-218500Y35600
X-218400Y29900
X-219600Y26500
X-249300Y71200
X-249700Y69300
X-249400Y66600
X-222900Y80700
X-222900Y78100
X-222900Y75300
X-247700Y75700
X-244800Y76300
X-247800Y81600
X-229200Y86500
X-225900Y83600
X-225000Y81500
X-230000Y65500
X-231700Y67800
X-235200Y68400
X-233400Y71000
X-219500Y54000
X-217000Y52100
X-176400Y183600
X-180930Y183510
X-184960Y183530
X-189510Y183580
X-139965Y181500
X-200000Y60900
X-200000Y62100
X-206635Y67300
X-130100Y173600
X-129100Y173700
X-130200Y174600
X-129200Y174800
X-129100Y175800
X-130300Y175700
X-129200Y176800
X-130300Y176700
X-137035Y165500
X-145614Y107500
X-146114Y144000
X-142000Y160500
X-149500Y92000
X-230040Y77040
X-216135Y87800
X-220365Y87800
X-236235Y77235
X-226955Y12199
X-232448Y30666
X-231808Y13023
X-237610Y30556
X-178700Y183100
X-176900Y181500
X-198100Y180800
X-193600Y180800
X-190400Y180500
X-172834Y183477
X-171350Y183440
X-169900Y183400
X-168400Y183410
X-174400Y183500
X-184600Y181400
X-107700Y263200
X-108700Y246600
X-172960Y202728
X-173970Y202738
X-171920Y202670
X-172930Y201698
X-173940Y201698
X-171890Y201640
X-171950Y196260
X-173030Y195272
X-174040Y195272
X-173060Y196302
X-174070Y196312
X-171920Y195230
X-179030Y195272
X-180040Y195272
X-179060Y196302
X-180070Y196312
X-178020Y195310
X-178050Y196340
X-179940Y201698
X-177900Y201680
X-177930Y202710
X-178930Y201698
X-178960Y202728
X-179970Y202738
X-188450Y201580
X-188480Y202610
X-189510Y201600
X-190520Y201600
X-189540Y202630
X-190550Y202640
X-189530Y195272
X-190540Y195272
X-188460Y195280
X-188490Y196310
X-189560Y196302
X-190570Y196312
X-184530Y195272
X-185540Y195272
X-184560Y196302
X-185570Y196312
X-183400Y195330
X-183430Y196360
X-184224Y201744
X-185234Y201744
X-184254Y202774
X-185264Y202784
X-183150Y201710
X-183180Y202740
X-188400Y221800
X-189400Y221780
X-190410Y221800
X-188430Y222820
X-189440Y222840
X-190440Y222840
X-188600Y219300
X-190300Y219300
X-182980Y215252
X-184010Y215252
X-185030Y215272
X-182950Y216282
X-184010Y216282
X-185020Y216302
X-188480Y215212
X-189480Y215192
X-190490Y215212
X-188510Y216232
X-189520Y216252
X-190520Y216252
X-179300Y221700
X-180330Y221700
X-181350Y221720
X-179270Y222730
X-180330Y222730
X-181340Y222750
X-181240Y216350
X-175900Y215200
X-179200Y215300
X-180230Y215300
X-181250Y215320
X-179170Y216330
X-180230Y216330
X-183220Y221790
X-184250Y221790
X-185270Y221810
X-183190Y222820
X-184250Y222820
X-185260Y222840
X-178200Y222800
X-178200Y221700
X-176930Y215200
X-177130Y222630
X-177130Y221600
X-176100Y221600
X-177950Y215220
X-177940Y216250
X-176930Y216230
X-112700Y263200
X-100100Y251100
X-101374Y227157
X-115800Y221100
X-106500Y242300
X-148400Y226900
X-147400Y226900
X-146400Y227900
X-146400Y226900
X-148400Y227900
X-147400Y227900
X-147235Y230300
X-147235Y229300
X-148235Y229300
X-148235Y230300
X-107200Y246600
X-141200Y241100
X-136200Y238900
X-135700Y238000
X-138200Y241100
X-140700Y238000
X-139200Y241100
X-142200Y241100
X-140200Y241100
X-138700Y238000
X-137700Y238000
X-138700Y242100
X-147600Y243700
X-148600Y243700
X-143600Y243700
X-145600Y243700
X-137200Y238900
X-136700Y238000
X-147400Y239400
X-149400Y239400
X-144400Y239400
X-148400Y239400
X-146400Y239400
X-145400Y239400
X-141700Y242100
X-139200Y238900
X-138200Y238900
X-141700Y238000
X-142700Y238000
X-142200Y238900
X-139700Y238000
X-144600Y243700
X-140700Y242100
X-139700Y242100
X-142700Y242100
X-137700Y242100
X-146600Y243700
X-143200Y241100
X-140200Y238900
X-141200Y238900
X-143200Y238900
X-117700Y188900
X-116700Y188900
X-115700Y188900
X-114700Y188900
X-113700Y188900
X-121000Y193000
X-122000Y194000
X-122000Y193000
X-120000Y193000
X-121000Y195000
X-122000Y195000
X-121000Y194000
X-120000Y194000
X-120000Y195000
X-124567Y191433
X-124618Y196172
X-121000Y192000
X-122000Y192000
X-123000Y195000
X-123000Y193900
X-120000Y192000
X-176694Y286353
X-101374Y235031
X-101700Y252600
X-101700Y251600
X-101200Y221600
X-101200Y222600
X-166694Y238718
X-101374Y233063
X-106100Y243900
X-101374Y240937
X-103343Y229126
X-109200Y230500
X-112700Y237100
X-100200Y232100
X-110700Y230600
X-105700Y250100
X-108700Y250100
X-198094Y263353
X-195294Y248053
X-99200Y215300
X-99406Y227057
X-116200Y241316
X-101200Y215235
X-107300Y258300
X-100700Y243900
X-99406Y248811
X-128700Y216600
X-139838Y225500
X-115200Y193200
X-114600Y202000
X-114600Y201000
X-115600Y202000
X-115600Y201000
X-122200Y208600
X-122200Y209600
X-120200Y209600
X-121200Y209600
X-114500Y197700
X-115500Y197700
X-115500Y196700
X-114500Y196700
X-151200Y224362
X-105311Y229126
X-99900Y221300
X-149800Y257100
X-150900Y258100
X-149800Y258100
X-150900Y257100
X-149800Y263600
X-105311Y237000
X-174100Y207462
X-174100Y206362
X-173000Y207462
X-173000Y206362
X-104400Y284400
X-104400Y288100
X-104414Y280600
X-103700Y277600
X-102700Y277600
X-186000Y230400
X-183600Y230400
X-179000Y207462
X-179000Y206362
X-189300Y227900
X-188100Y227900
X-183000Y227800
X-184100Y227800
X-184800Y230400
X-185200Y227700
X-190500Y227700
X-184000Y212738
X-189494Y212691
X-190594Y212691
X-190600Y207462
X-190600Y206362
X-189500Y207462
X-189500Y206362
X-180100Y207462
X-180100Y206362
X-185100Y211638
X-184000Y211638
X-190594Y211591
X-189494Y211591
X-184294Y206408
X-185394Y206408
X-185394Y207508
X-184294Y207508
X-185100Y212738
X-188300Y225500
X-190500Y225500
X-189400Y225500
X-183100Y225400
X-184200Y225400
X-185300Y225400
X-183000Y226600
X-184200Y226500
X-185300Y226600
X-188100Y226700
X-189200Y226800
X-190400Y226600
X-156422Y269286
X-156262Y248950
X-156421Y215356
X-156421Y191497
X-159525Y269072
X-159525Y248950
X-159523Y223166
X-159095Y194172
X-102700Y276600
X-103700Y275600
X-102700Y275600
X-103700Y276600
X-150900Y268100
X-149800Y269300
X-150900Y269300
X-150900Y267100
X-149800Y268100
X-149800Y267100
X-150900Y263600
X-150200Y223362
X-150200Y224362
X-152200Y224362
X-152200Y223362
X-151200Y223362
X-116400Y212162
X-115400Y212162
X-111300Y212262
X-110300Y212262
X-114000Y193200
X-115400Y213162
X-116400Y213162
X-111300Y213262
X-110300Y213262
X-115000Y192000
X-111000Y219500
X-139100Y233100
X-141000Y233600
X-139100Y234100
X-140000Y233600
X-140000Y234600
X-141000Y234600
X-134700Y233600
X-133700Y233600
X-133700Y234600
X-135700Y234600
X-135700Y233600
X-134700Y234600
X-151700Y213700
X-152500Y214500
X-153100Y204900
X-153000Y207800
X-153000Y210700
X-114000Y192000
X-120200Y208600
X-121200Y208600
X-131700Y214500
X-132600Y213800
X-132600Y216300
X-131700Y217000
X-131604Y219602
X-132500Y218900
X-126704Y216902
X-127700Y217400
X-127700Y215400
X-128700Y215600
X-127700Y216400
X-139838Y224500
X-140838Y225500
X-140838Y224500
X-139900Y223500
X-119593Y241176
X-105311Y242906
X-103343Y237000
X-121935Y237300
X-190394Y253553
X-191694Y274018
X-109100Y258600
X-179000Y192738
X-177900Y191638
X-177900Y192738
X-179000Y191638
X-189500Y191538
X-188400Y191538
X-188400Y192638
X-189500Y192638
X-183500Y192738
X-184500Y191638
X-184500Y192738
X-183500Y191638
X-171900Y192700
X-173000Y191638
X-173000Y192738
X-171900Y191600
X-168376Y274018
X-107200Y268100
X-108700Y269600
X-108700Y268100
X-107200Y269600
X-102200Y206900
X-102400Y209500
X-151000Y248600
X-99800Y244800
X-152500Y248700
X-135300Y224900
X-99406Y237000
X-144400Y237000
X-110200Y235200
X-107200Y229100
X-104700Y252600
X-104700Y251600
X-104200Y222600
X-105200Y222600
X-107200Y230500
X-108700Y235200
X-101374Y242806
X-164600Y241200
X-164600Y242400
X-148483Y357831
X-143765Y347600
X-136614Y351500
X-166200Y360400
X-171046Y292273
X-171046Y294242
X-198605Y321801
X-170500Y335386
X-173014Y319833
X-153600Y337665
X-153800Y330300
X-153700Y331300
X-169594Y301653
X-192700Y304084
X-196594Y288813
X-198721Y294242
X-192700Y309990
X-188763Y300267
X-182857Y300147
X-174983Y317864
X-169494Y321053
X-179994Y323753
X-185625Y356625
X-180176Y361500
X-173483Y358200
X-173014Y314227
X-174983Y314227
X-190841Y319833
X-190831Y317834
X-149600Y340735
X-194368Y307972
X-184825Y298179
X-196637Y310090
X-196537Y306053
X-176951Y292273
X-192813Y292273
X-186794Y296210
X-182857Y296210
X-198605Y315896
X-198605Y300034
X-194668Y310090
X-194668Y306053
X-176951Y294242
X-192700Y294242
X-186794Y298179
X-182857Y298179
X-186794Y294242
X-186794Y292273
X-181064Y294120
X-198605Y319833
X-194668Y317864
X-180888Y296210
X-196637Y317864
X-198605Y317864
X-194668Y319833
X-196637Y319833
X-194668Y300147
X-194668Y302116
X-196637Y300147
X-198605Y298179
X-196637Y298179
X-178920Y298179
X-198605Y296210
X-194668Y315896
X-194668Y313927
X-198618Y314037
X-196616Y314029
X-198777Y311882
X-196609Y311882
X-178920Y294242
X-194668Y304084
X-198655Y306153
X-196637Y304084
X-198605Y302116
X-198605Y304034
X-173014Y294242
X-172914Y292273
X-178920Y292273
X-173014Y296210
X-174983Y296210
X-174837Y292283
X-174983Y294242
X-174983Y298179
X-173014Y298179
X-190731Y298179
X-192830Y298319
X-196637Y292273
X-194468Y294071
X-181065Y292276
X-194668Y296210
X-192580Y296210
X-194468Y292273
X-196637Y294242
X-188763Y296295
X-190731Y292273
X-188627Y294208
X-188640Y292273
X-190731Y294242
X-188763Y298179
X-178920Y296210
X-176951Y298179
X-172684Y305926
X-183057Y320033
X-180888Y315546
X-177351Y304021
X-174983Y308005
X-184725Y319884
X-172914Y308022
X-184705Y317884
X-177184Y306313
X-175203Y305926
X-182857Y315896
X-182857Y317864
X-177251Y312059
X-174783Y311959
X-172724Y312013
X-176751Y309990
X-174783Y310090
X-174983Y303984
X-172914Y303884
X-177051Y302106
X-174983Y302070
X-173014Y302116
X-188763Y315596
X-188763Y317864
X-188763Y319833
X-186794Y315596
X-186794Y317544
X-180888Y317864
X-180894Y320113
X-178920Y315729
X-178920Y317774
X-178920Y319833
X-144983Y351162
X-144983Y354662
X-134200Y367900
X-141800Y339300
X-137783Y334582
X-133858Y338583
X-162800Y363200
X-166594Y339888
X-171059Y341205
X-145500Y328114
X-137300Y298200
X-138362Y298200
X-139362Y298200
X-135800Y295600
X-132800Y293000
X-133162Y298200
X-134800Y293000
X-136800Y295600
X-133800Y295700
X-138862Y295600
X-136262Y298200
X-137862Y293100
X-139000Y293100
X-136800Y293000
X-135800Y293000
X-131500Y295500
X-133800Y293000
X-130800Y293000
X-131800Y293000
X-128300Y294400
X-127300Y294400
X-137862Y295600
X-124136Y292717
X-123136Y291717
X-123136Y292717
X-124136Y291717
X-127500Y296000
X-128500Y296000
X-129500Y296000
X-126500Y298000
X-126500Y296000
X-126500Y297000
X-132600Y295700
X-116408Y305128
X-143262Y305234
X-159310Y311012
X-134200Y298200
X-135262Y298200
X-132162Y298200
X-131100Y298200
X-134800Y295600
X-127500Y297000
X-128500Y297000
X-129500Y297000
X-127500Y298000
X-128562Y298000
X-184725Y321801
X-196637Y321801
X-192700Y321891
X-132700Y364600
X-132700Y357800
X-125200Y374900
X-126000Y372600
X-127000Y370000
X-125100Y364900
X-127900Y367700
X-135500Y366000
X-125700Y366400
X-133900Y365200
X-130400Y353300
X-139559Y346661
X-137700Y345900
X-128100Y357200
X-129000Y355500
X-131300Y348800
X-130600Y349800
X-131000Y361500
X-130400Y362600
X-129800Y363700
X-176951Y321801
X-178920Y321801
X-126200Y358600
X-125600Y359800
X-125000Y361100
X-124000Y362200
X-131000Y364100
X-128600Y363200
X-130200Y378600
X-123800Y377100
X-132300Y356600
X-127600Y358400
X-131500Y360300
X-128500Y354200
X-129100Y353100
X-135700Y342900
X-139900Y343800
X-139600Y345300
X-133600Y344900
X-134100Y343800
X-138300Y345000
X-132600Y349000
X-130900Y352200
X-133600Y356800
X-135100Y353200
X-135400Y344000
X-134500Y342800
X-135000Y351500
X-133800Y355600
X-134300Y352300
X-133700Y353300
X-131900Y347900
X-137300Y346900
X-134300Y346100
X-133800Y347100
X-131400Y351100
X-131900Y350000
X-138531Y347295
X-138224Y348499
X-136600Y348000
X-135800Y349000
X-134900Y355500
X-135200Y350300
X-127700Y355300
X-129800Y354400
X-124100Y363700
X-123600Y364900
X-123000Y366400
X-122300Y368200
X-121600Y370100
X-125100Y362800
X-133000Y345900
X-132500Y346900
X-129200Y362400
X-129700Y361300
X-130200Y360200
X-130800Y359200
X-131300Y357900
X-132100Y358800
X-129600Y352000
X-130100Y350900
X-132600Y355500
X-133200Y354400
X-134400Y354300
X-127100Y359500
X-126600Y360600
X-126800Y357400
X-126000Y361700
X-133200Y348100
X-141800Y337800
X-133858Y337083
X-141000Y342700
X-134900Y345100
X-174983Y321801
X-120107Y385657
X-129600Y386800
X-134346Y388134
X-176951Y296210
X-177027Y300108
X-176851Y315896
X-176951Y290305
X-198605Y309990
X-196637Y308022
X-196757Y315896
X-194548Y298059
X-194468Y290305
X-192700Y290305
X-196637Y302116
X-178920Y300147
X-184825Y300147
X-180888Y300147
X-192700Y302196
X-179120Y309890
X-192700Y311959
X-186794Y312253
X-191031Y313927
X-182857Y313927
X-179020Y312159
X-180888Y313927
X-179020Y313627
X-192700Y308022
X-192700Y313927
X-178920Y302116
X-178920Y303984
X-188763Y313927
X-181059Y297956
X-182857Y294062
X-182857Y292273
X-184825Y294242
X-190731Y300267
X-190731Y296210
X-198605Y308022
X-198721Y292273
X-198721Y290305
X-171046Y296210
X-171046Y312029
X-171046Y300147
X-174983Y315896
X-186794Y290106
X-180888Y290305
X-192700Y315896
X-194668Y311959
X-174983Y319833
X-171046Y319833
X-149600Y337665
X-161200Y352111
X-173562Y361193
X-173014Y317864
X-171046Y317864
X-138386Y351500
X-138400Y353900
X-104020Y293350
X-105040Y293310
X-109100Y290700
X-106990Y296000
X-105990Y296000
X-104990Y296000
X-110110Y290760
X-104990Y290670
X-106000Y290670
X-108100Y290700
X-107100Y290700
X-108490Y295920
X-109520Y295950
X-104160Y297350
X-103900Y295930
X-107160Y297350
X-106160Y297350
X-110160Y297350
X-109160Y297350
X-105160Y297350
X-108160Y297350
X-106070Y293290
X-184825Y290305
X-188563Y321901
X-171046Y306053
X-145500Y329886
X-175255Y353162
X-153969Y349141
X-117000Y332100
X-117100Y331000
X-51948Y341752
X-71500Y324800
X-48400Y338400
X-55400Y345100
X-97600Y301686
X-90000Y301686
X-79000Y300000
X-79000Y299000
X-79000Y301000
X-81000Y301000
X-81000Y300000
X-80000Y299000
X-80900Y295000
X-78900Y296000
X-79900Y296000
X-93800Y301686
X-57885Y304914
X-89661Y305342
X-80000Y300000
X-81000Y299000
X-80000Y301000
X-80900Y294000
X-79900Y294000
X-78900Y295000
X-79900Y295000
X-80900Y296000
X-78900Y294000
X-156700Y407600
X-127400Y395200
X-139732Y389685
X-66768Y297683
X-79700Y236600
X-85626Y242906
X-95469Y248811
X-92200Y222100
X-93500Y229126
X-86200Y213400
X-98400Y237800
X-93100Y251600
X-67300Y267700
X-87594Y240637
X-57300Y247000
X-59114Y247000
X-64500Y253800
X-95600Y253167
X-95469Y229126
X-70314Y229600
X-70314Y220240
X-66700Y236565
X-81700Y211600
X-86400Y211700
X-62300Y211500
X-96100Y256100
X-98400Y226200
X-88700Y263300
X-89700Y260800
X-90700Y260800
X-88700Y260800
X-89700Y265800
X-90700Y265800
X-91700Y265800
X-93700Y265800
X-93700Y263300
X-92700Y263300
X-91700Y263300
X-91700Y260800
X-92700Y265800
X-88700Y265800
X-87700Y263300
X-86700Y263300
X-90700Y263300
X-89700Y263300
X-62700Y270800
X-63900Y270800
X-21678Y248760
X-80100Y228400
X-84700Y253100
X-84700Y252100
X-70314Y249600
X-68200Y246100
X-94400Y245700
X-72086Y233600
X-72086Y225600
X-87594Y227157
X-89200Y252100
X-85626Y238669
X-87594Y235031
X-87394Y244874
X-80200Y238100
X-92400Y245726
X-91700Y250800
X-91531Y243206
X-78700Y231100
X-97437Y235031
X-97337Y243006
X-89563Y238969
X-60715Y247038
X-98300Y230200
X-92600Y241800
X-71400Y247600
X-91531Y240637
X-96700Y230100
X-85626Y237000
X-87594Y233063
X-80200Y231100
X-95300Y240700
X-72600Y263500
X-84700Y241800
X-84700Y232100
X-91531Y229126
X-98700Y250100
X-66689Y216746
X-84600Y226200
X-87200Y250600
X-95469Y225189
X-98400Y245800
X-89563Y231094
X-80200Y243800
X-71200Y263500
X-97537Y229126
X-48614Y211000
X-57300Y219800
X-93500Y231094
X-93500Y248811
X-89563Y235031
X-82135Y217800
X-81689Y231094
X-85626Y225189
X-95469Y233063
X-83657Y240937
X-81689Y238969
X-95469Y238969
X-91531Y237000
X-95469Y237000
X-93500Y235031
X-95469Y235031
X-89563Y233063
X-93500Y233063
X-93500Y238969
X-96700Y281800
X-97700Y281800
X-90700Y281800
X-92700Y281800
X-91700Y281800
X-95700Y281800
X-94700Y281800
X-93700Y281800
X-67900Y270835
X-98700Y277600
X-97700Y277600
X-92700Y276400
X-93700Y276400
X-92700Y275400
X-34500Y188700
X-98700Y275600
X-44512Y204451
X-44191Y220178
X-53499Y284906
X-97700Y275600
X-97700Y276600
X-98700Y276600
X-93700Y275400
X-91531Y233063
X-57300Y220900
X-54690Y220990
X-54700Y219900
X-57100Y218800
X-54700Y218800
X-94635Y215200
X-70314Y245600
X-87594Y243206
X-81689Y244874
X-91531Y235031
X-91531Y238969
X-81689Y237000
X-66700Y239635
X-66700Y231635
X-65314Y223600
X-58814Y214300
X-93500Y237000
X-70314Y253600
X-87594Y248811
X-89563Y237000
X-98700Y211700
X-94635Y211200
X-78426Y211714
X-48614Y205000
X-48614Y208000
X-63614Y258500
X-87594Y237000
X-87894Y229126
X-88300Y276100
X-85900Y245200
X-97437Y238969
X-88300Y277600
X-89763Y243006
X-94400Y243900
X-98400Y240000
X-98500Y232000
X-96500Y234000
X-95469Y242906
X-80700Y224100
X-98137Y241937
X-86100Y216400
X-63000Y229414
X-72086Y229600
X-62500Y253000
X-87594Y231094
X-86700Y222600
X-86700Y221600
X-92700Y253400
X-91500Y254000
X-97700Y251600
X-97700Y252600
X-98200Y221600
X-98200Y222600
X-78100Y226600
X-79100Y226600
X-81200Y253100
X-81200Y252100
X-94300Y226200
X-91531Y225189
X-89563Y240637
X-70314Y237600
X-84000Y155386
X-49614Y128000
X-51114Y108686
X-63500Y135900
X-73900Y143500
X-63200Y138300
X-73000Y152114
X-66600Y152100
X-70000Y152114
X-87000Y155386
X-49614Y125000
X-82100Y165300
X-75000Y162500
X-76500Y162800
X-49500Y113614
X-69614Y180500
X-83386Y180500
X-94000Y106138
X-95100Y105400
X-95100Y106500
X-81886Y113500
X-71386Y180500
X-49000Y137114
X-78886Y156500
X-51614Y147000
X-76500Y176600
X-78500Y162800
X-83500Y167500
X-74965Y105500
X-52000Y135465
X-79535Y153000
X-75731Y142769
X-80456Y142744
X-61000Y150700
X-38700Y153400
X-11600Y153300
X-81700Y110500
X-60400Y131500
X-44808Y100856
X-19100Y144400
X-19900Y145200
X-59400Y104000
X-55100Y104100
X-21219Y93034
X-19479Y120872
X-44570Y148541
X-37800Y152600
X-10800Y152500
X-44512Y188403
X-92500Y155500
X-37900Y166700
X-77614Y180500
X-78484Y176709
X-64100Y152000
X-90000Y109600
X-86500Y106900
X-98000Y99000
X-52100Y131500
X-53900Y124400
X-49900Y143600
X-59900Y143200
X-95600Y144500
X-83400Y104700
X-50500Y121500
X-93500Y151700
X-60100Y146700
X-64500Y110800
X-64000Y149500
X-67800Y114800
X-78002Y105500
X-78900Y115300
X-82100Y115200
X-55500Y135465
X-79535Y149000
X-71000Y104886
X-63528Y127372
X-81900Y142700
X-90000Y105114
X-73100Y155700
X-97974Y63006
X-79974Y81506
X-81680Y79850
X-56404Y52227
X-56960Y61135
X-59744Y58352
X-53620Y55011
X-87506Y73974
X-55730Y54320
X-58353Y59743
X-85974Y75506
X-91730Y52730
X-60579Y48051
X-88730Y55730
X-59188Y49443
X-52228Y56403
X-66274Y83774
X-61200Y57000
X-70000Y87000
X-93506Y67474
X-91974Y69006
X-61600Y74700
X-48052Y60578
X-73285Y85726
X-62700Y73600
X-49444Y59187
X-75100Y83900
X-67526Y85026
X-94815Y48185
X-84270Y57270
X-81270Y60270
X-78270Y63270
X-75270Y66270
X-68900Y53500
X-91200Y39800
X-90086Y38686
X-66553Y74966
X-46660Y61971
X-51393Y66703
X-69270Y72270
X-72270Y69270
X-87270Y54270
X-90270Y51270
X-63670Y77770
X-61972Y46659
X-88200Y80400
X-83710Y49827
X-57901Y85639
X-94439Y77230
M30
