M48
INCH,TZ
T01C.004
T02C.008
T03C.01
T04C.014
T05C.016
T06C.018
T07C.075
T08C.146
T09C.028
T10C.03
T11C.035
T12C.043
T13C.063
T14C.085
;LEADER: 12 
;HEADER: 
;CODE  : ASCII 
;FILE  : ORWL_Design_SHIFT-1-10-np.drl for  ... layers TOP and BOTTOM
;T09 Holesize 1. = 28.000000 Tolerance = +0.000000/-0.000000 NON_PLATED MILS Quantity = 2
;T10 Holesize 2. = 30.000000 Tolerance = +0.000000/-0.000000 NON_PLATED MILS Quantity = 4
;T11 Holesize 3. = 35.000000 Tolerance = +0.000000/-0.000000 NON_PLATED MILS Quantity = 2
;T12 Holesize 4. = 43.000000 Tolerance = +0.000000/-0.000000 NON_PLATED MILS Quantity = 9
;T13 Holesize 5. = 63.000000 Tolerance = +0.000000/-0.000000 NON_PLATED MILS Quantity = 1
;T14 Holesize 6. = 85.000000 Tolerance = +0.000000/-0.000000 NON_PLATED MILS Quantity = 2
%
G90
T09
X-327554Y47495
X-47495Y66146
T10
X-280513Y362100
X-269687Y362100
X-281406Y367431
X-273750Y359775
T11
X-55359Y350173
X-43527Y338341
T12
X-324606Y157480
X-225000Y359843
X-226637Y366578
X-259689Y372803
X-255315Y345276
X-118701Y57677
X-124629Y77836
X-145947Y51822
X-149016Y72244
T13
X-324606Y236220
T14
X-251314Y400113
X-295641Y382651
M30
