M48
INCH,TZ
T01C.004
T02C.008
T03C.01
T04C.014
T05C.016
T06C.018
T07C.075
T08C.146
T09C.028
T10C.03
T11C.035
T12C.043
T13C.063
T14C.085
;LEADER: 12 
;HEADER: 
;CODE  : ASCII 
;FILE  : ORWL_Design_SHIFT-7-8.drl for  ... layers IN3 and GND2
;T01 Holesize 1. = 4.000000 Tolerance = +0.000000/-0.000000 PLATED MILS Quantity = 1007
%
G90
T01
X-301927Y66843
X-303459Y68375
X-308648Y86903
X-338800Y58900
X-336741Y61136
X-306118Y82890
X-341473Y56404
X-335000Y54500
X-338689Y53620
X-326270Y77730
X-340081Y55012
X-329270Y80730
X-315026Y81506
X-319494Y85974
X-313494Y79974
X-321026Y87506
X-345649Y60579
X-344257Y59188
X-307927Y72843
X-309459Y74375
X-308203Y59599
X-333122Y48052
X-310703Y62099
X-334513Y49444
X-343375Y68472
X-347070Y58220
X-335830Y46940
X-325400Y50400
X-327459Y93875
X-325927Y92343
X-346500Y158414
X-334000Y151286
X-334000Y149514
X-346500Y156186
X-346500Y154414
X-334000Y146786
X-334000Y145014
X-346500Y160186
X-331300Y164100
X-313100Y184000
X-310134Y108083
X-312103Y108083
X-341203Y92599
X-333459Y99375
X-338703Y90099
X-331927Y97843
X-337312Y165680
X-300500Y125100
X-300500Y135650
X-300480Y148915
X-308200Y108000
X-302298Y116437
X-307900Y117700
X-317400Y184900
X-311943Y175670
X-310518Y174530
X-312762Y174483
X-312999Y175468
X-312743Y164170
X-311318Y163030
X-309000Y163100
X-311496Y164194
X-310143Y163007
X-310333Y164194
X-312458Y163042
X-313799Y163968
X-313562Y162983
X-309200Y164200
X-311658Y174542
X-310696Y175694
X-308400Y175700
X-308200Y174600
X-309533Y175694
X-309343Y174507
X-305800Y218600
X-314700Y225800
X-320000Y223300
X-318600Y223300
X-336900Y278600
X-336100Y279400
X-335600Y278300
X-336600Y277500
X-308886Y196000
X-312700Y204500
X-314700Y203500
X-313700Y203500
X-313700Y205500
X-314700Y204500
X-312700Y203500
X-312700Y205500
X-313700Y204500
X-314700Y205500
X-315700Y205500
X-315700Y203500
X-315700Y204500
X-333100Y189700
X-333100Y190700
X-334100Y190700
X-334100Y189700
X-317700Y189700
X-318700Y191700
X-318700Y190700
X-317700Y190700
X-316700Y190700
X-316700Y189700
X-317700Y191700
X-318700Y189700
X-318300Y217000
X-317300Y218000
X-318700Y216000
X-319300Y216980
X-318300Y218000
X-320360Y218000
X-320300Y216970
X-319200Y215100
X-319300Y217990
X-319800Y216000
X-373389Y230819
X-373407Y229770
X-320700Y229200
X-378200Y231800
X-374400Y271300
X-373400Y272300
X-374400Y272300
X-372400Y272300
X-373400Y271300
X-372400Y271300
X-374000Y267500
X-309560Y243300
X-340600Y280700
X-322901Y281063
X-320400Y266900
X-311050Y241330
X-329000Y218614
X-331892Y211200
X-341000Y211100
X-309886Y249500
X-390445Y231258
X-390403Y232594
X-387879Y232508
X-388946Y232508
X-386812Y232526
X-388964Y231368
X-387860Y231386
X-386800Y231399
X-347673Y259922
X-304914Y217496
X-305700Y283900
X-301000Y364500
X-324400Y354900
X-321900Y353800
X-312100Y346200
X-313600Y353900
X-311042Y350242
X-306600Y346500
X-311200Y352300
X-245733Y318064
X-249783Y294442
X-246594Y288953
X-288000Y332600
X-261594Y316496
X-257657Y316396
X-271437Y306353
X-271842Y302316
X-261594Y314527
X-257657Y314427
X-269468Y306353
X-269468Y302316
X-273105Y308437
X-273405Y306253
X-271437Y298379
X-263563Y318264
X-261481Y320153
X-265645Y318064
X-265645Y319753
X-273525Y300347
X-261594Y318064
X-263563Y320153
X-263693Y316096
X-263676Y314627
X-255688Y320033
X-253720Y320033
X-255688Y315996
X-253720Y318164
X-253720Y314127
X-255688Y318164
X-271437Y300147
X-251751Y314427
X-253720Y315996
X-269468Y298379
X-275374Y298379
X-269468Y296410
X-269468Y308522
X-273405Y310190
X-275374Y306253
X-271137Y308437
X-275374Y310190
X-275374Y308222
X-275374Y300347
X-273525Y298379
X-200574Y311959
X-200794Y313809
X-200574Y302116
X-200574Y304034
X-200594Y306153
X-227194Y298853
X-250194Y326453
X-222294Y342153
X-284240Y340793
X-257127Y366066
X-282641Y193800
X-276600Y221700
X-278114Y221732
X-274300Y206500
X-276100Y206500
X-232088Y201172
X-232088Y199232
X-227994Y200153
X-229552Y201172
X-227994Y198213
X-229552Y199232
X-234794Y201453
X-234624Y199232
X-248594Y199953
X-248794Y198353
X-284421Y192222
X-277200Y210500
X-276100Y211000
X-271300Y223400
X-269600Y227800
X-217094Y192153
X-218000Y196300
X-221794Y199253
X-220800Y198100
X-221600Y201100
X-220676Y200202
X-249839Y201171
X-249839Y199231
X-249839Y193311
X-249839Y195352
X-218210Y206161
X-214336Y193312
X-235316Y235439
X-224480Y203227
X-245066Y217839
X-245066Y211239
X-245066Y209039
X-233356Y204281
X-233694Y222053
X-233694Y224453
X-233366Y213439
X-233366Y211239
X-233366Y209039
X-233366Y215639
X-233366Y217839
X-245066Y235439
X-245066Y206839
X-245249Y226639
X-245131Y231104
X-245119Y222186
X-245188Y224439
X-245301Y228839
X-245066Y213439
X-245066Y215639
X-229663Y203398
X-227016Y203486
X-232088Y205051
X-230820Y204081
X-237266Y235439
X-233366Y233239
X-233694Y226553
X-233566Y235339
X-243116Y235439
X-241166Y235439
X-239216Y235439
X-233366Y228839
X-238428Y204081
X-233366Y206839
X-239696Y205051
X-247016Y235439
X-248966Y235439
X-248966Y228839
X-248966Y217839
X-248966Y231039
X-248966Y224439
X-248966Y226639
X-248966Y233239
X-248966Y222239
X-248966Y209039
X-247516Y213439
X-247516Y217839
X-247516Y222239
X-247516Y231039
X-247516Y226639
X-247516Y209039
X-248966Y213439
X-248966Y211239
X-248966Y215639
X-219408Y205052
X-231416Y217839
X-221666Y217839
X-227516Y213439
X-229466Y213439
X-223616Y209039
X-223616Y217839
X-225566Y217839
X-221666Y222239
X-229466Y217839
X-221666Y209039
X-227516Y231039
X-229466Y231039
X-229466Y226639
X-231416Y226639
X-223616Y226639
X-225566Y226639
X-225566Y231039
X-223616Y231039
X-221666Y235439
X-219716Y235439
X-231416Y231039
X-223616Y235439
X-227516Y235439
X-221666Y226639
X-219716Y231039
X-219716Y226639
X-225566Y235439
X-231416Y235439
X-229466Y235439
X-221666Y231039
X-227516Y226639
X-223616Y213439
X-225566Y213439
X-221666Y213439
X-219716Y213439
X-227516Y222239
X-231416Y222239
X-229466Y222239
X-219666Y222239
X-223616Y222239
X-227516Y217839
X-225566Y222239
X-219716Y209039
X-225566Y209039
X-231416Y209039
X-227516Y209039
X-229466Y209039
X-231416Y213439
X-219716Y217839
X-217615Y212855
X-224480Y205051
X-227016Y205051
X-221944Y205051
X-211795Y217928
X-213735Y212855
X-211795Y212855
X-209855Y212855
X-207915Y217928
X-215675Y212855
X-215675Y217928
X-217615Y217928
X-213735Y217928
X-209855Y217928
X-207915Y212857
X-257448Y237068
X-252866Y220039
X-252866Y222239
X-256766Y220039
X-254816Y222239
X-254816Y217839
X-254816Y220039
X-256766Y217839
X-252866Y233239
X-252866Y235439
X-252866Y224439
X-252866Y228839
X-251107Y238038
X-249839Y237068
X-237160Y237069
X-221944Y237069
X-234624Y237069
X-242232Y237069
X-239696Y237069
X-229452Y237069
X-226917Y237069
X-224480Y237069
X-247303Y237068
X-244767Y237068
X-252375Y237068
X-252866Y226639
X-256766Y228839
X-256766Y231039
X-256694Y232953
X-256766Y226339
X-250916Y220039
X-225776Y240029
X-223212Y239979
X-240965Y239979
X-233356Y240029
X-248571Y239978
X-246035Y239978
X-243300Y239979
X-251107Y239978
X-220676Y239979
X-230820Y240029
X-228284Y240029
X-238428Y239679
X-266402Y241615
X-286680Y237400
X-277170Y227980
X-275104Y228003
X-278700Y222900
X-279994Y223362
X-276100Y224000
X-277800Y224300
X-273400Y224000
X-274586Y223921
X-263787Y200201
X-265055Y201171
X-263787Y198261
X-265055Y199231
X-263787Y196321
X-264910Y192970
X-263200Y194400
X-265055Y195352
X-266480Y240106
X-218141Y238049
X-217615Y230605
X-217615Y233144
X-270700Y213700
X-275404Y240651
X-267600Y246700
X-271280Y198190
X-270453Y199163
X-267592Y240948
X-267592Y244829
X-265056Y242889
X-269200Y238400
X-275205Y243288
X-298170Y241900
X-219594Y195453
X-269385Y235679
X-268600Y236700
X-270354Y236947
X-240964Y241819
X-257494Y243053
X-252089Y244666
X-229552Y244829
X-234624Y244724
X-257448Y244725
X-252376Y242890
X-229552Y242789
X-234524Y242890
X-227017Y242789
X-230820Y241919
X-233356Y243659
X-258974Y243858
X-258715Y241918
X-256518Y246053
X-256294Y243453
X-235914Y245799
X-256180Y241919
X-259094Y245853
X-254912Y242890
X-255108Y244639
X-253644Y241919
X-253599Y243854
X-251408Y243759
X-251119Y246095
X-251108Y241919
X-253464Y246153
X-232089Y242889
X-249840Y242890
X-250094Y244853
X-232260Y244619
X-235997Y243759
X-233336Y245799
X-227048Y244629
X-228284Y243804
X-230820Y243809
X-228284Y241919
X-228184Y245799
X-230408Y247246
X-235892Y241919
X-233356Y241919
X-243700Y247734
X-244768Y244830
X-244768Y242890
X-246985Y246765
X-243700Y245799
X-239676Y244660
X-246036Y241919
X-241069Y246044
X-239696Y242890
X-246994Y244953
X-243400Y241919
X-242232Y244830
X-238428Y241919
X-238428Y243650
X-238483Y245725
X-221944Y242889
X-216872Y244829
X-215675Y225535
X-212725Y231901
X-221962Y244829
X-216872Y242889
X-213735Y225535
X-214706Y231871
X-224480Y242889
X-224337Y244839
X-223194Y245973
X-220766Y247628
X-223232Y243859
X-223212Y241919
X-220676Y243859
X-220676Y241919
X-219394Y244829
X-219408Y242889
X-215604Y245799
X-218151Y241909
X-218141Y243839
X-218173Y245859
X-215604Y241919
X-215604Y243859
X-213735Y222700
X-215675Y223000
X-214706Y226804
X-212703Y226765
X-214706Y224268
X-212765Y224197
X-213735Y228072
X-215675Y228072
X-214706Y229340
X-212748Y229333
X-212765Y234469
X-213735Y233144
X-215675Y230607
X-213735Y230607
X-215675Y233144
X-214706Y234411
X-203894Y241219
X-208885Y236948
X-212705Y251259
X-211646Y250038
X-210137Y249309
X-209856Y240752
X-208535Y250999
X-210826Y236948
X-209925Y247713
X-208535Y249310
X-211800Y248409
X-209855Y245624
X-209855Y243288
X-211480Y243620
X-214906Y239483
X-212765Y236948
X-213735Y238216
X-214706Y236948
X-208885Y244555
X-215675Y238216
X-211795Y238216
X-274235Y241920
X-274784Y252688
X-266323Y243858
X-282694Y248053
X-276574Y252688
X-271729Y246189
X-273394Y247618
X-270127Y248708
X-233356Y198162
X-233356Y200202
X-239696Y197192
X-251000Y208300
X-270800Y196900
X-276000Y199800
X-280800Y204000
X-225748Y196322
X-225748Y194382
X-228294Y195953
X-228284Y194382
X-224380Y193412
X-224480Y195352
X-227094Y195453
X-227116Y193112
X-268859Y194381
X-268859Y196221
X-268826Y197846
X-276400Y244400
X-240964Y198262
X-240964Y200202
X-239700Y199320
X-239794Y200953
X-218140Y200202
X-219408Y201172
X-214852Y201987
X-216872Y199232
X-216872Y201172
X-219400Y199400
X-267592Y242889
X-244000Y190000
X-266516Y228839
X-268414Y229359
X-293194Y188667
X-228900Y164900
X-229900Y164500
X-178100Y51500
X-184874Y61937
X-186843Y61937
X-184874Y63906
X-186843Y63906
X-180937Y56031
X-173063Y58000
X-137685Y25484
X-99506Y61474
X-137685Y27453
X-137685Y17610
X-137685Y19579
X-147100Y42700
X-147100Y44400
X-180937Y67843
X-180937Y65874
X-290965Y176800
X-286635Y176800
X-165000Y11400
X-186032Y-2952
X-189983Y-2898
X-182500Y12900
X-187565Y12900
X-193916Y-2979
X-142706Y64973
X-124990Y64973
X-265200Y185200
X-259142Y128000
X-259142Y131000
X-267418Y133083
X-267418Y135051
X-187947Y-4187
X-187947Y-3087
X-187947Y-1987
X-187947Y-987
X-172400Y12900
X-171400Y12900
X-171400Y11900
X-172400Y11900
X-222000Y139700
X-220900Y139700
X-221600Y140800
X-220300Y140800
X-184039Y800
X-184039Y-200
X-191700Y74200
X-191700Y70800
X-191700Y71900
X-191700Y73100
X-235900Y138500
X-234900Y138500
X-170126Y59969
X-167157Y59969
X-165035Y19400
X-284200Y183200
X-165000Y21500
X-285600Y183000
X-164500Y27000
X-278400Y183100
X-164500Y29000
X-276900Y182900
X-160900Y60200
X-160600Y53100
X-160900Y61600
X-160600Y51700
X-212500Y137886
X-218500Y137886
X-221500Y137886
X-215500Y137886
X-137685Y29421
X-137685Y31390
X-137685Y21547
X-137685Y23516
X-285900Y186100
X-154200Y78600
X-180937Y50126
X-182906Y65874
X-184874Y65874
X-173900Y66700
X-173600Y65200
X-238879Y160663
X-259114Y143000
X-246541Y140231
X-254168Y137490
X-195565Y12800
X-194386Y63500
X-212800Y147200
X-214000Y147200
X-193000Y67000
X-176500Y52200
X-170000Y74886
X-167000Y74886
X-142500Y9600
X-142000Y15200
X-214500Y148800
X-209250Y150850
X-248557Y165152
X-233200Y165500
X-222200Y160300
X-208400Y154800
X-213800Y159700
X-261700Y90300
X-263200Y90300
X-272103Y141309
X-263568Y140831
X-295470Y123265
X-290295Y152305
X-295470Y134840
X-293300Y156095
X-254450Y128750
X-269350Y129250
X-263200Y136398
X-233600Y173100
X-246092Y172400
X-283500Y166600
X-288290Y168000
X-251200Y183500
X-251200Y186500
X-158386Y48500
X-158386Y45500
X-208200Y163700
X-167157Y54063
X-169126Y54063
X-289800Y104800
X-287800Y104800
X-286300Y103200
X-234400Y122800
X-263716Y137980
X-263716Y139432
X-252900Y178900
X-255400Y179000
X-265200Y181100
X-265100Y183000
X-288100Y91300
X-254900Y147900
X-255800Y147200
X-249600Y187200
X-245800Y174100
X-226019Y149426
X-227116Y149425
X-223800Y149200
X-229174Y149406
X-229135Y148219
X-230244Y148271
X-223800Y148200
X-230282Y149431
X-226026Y148330
X-227109Y148324
X-298491Y180333
X-249100Y51100
X-248100Y51100
X-251236Y51137
X-250200Y51100
X-268821Y36645
X-265578Y31076
X-263555Y71000
X-259555Y71000
X-205339Y-300
X-205339Y700
X-252555Y62100
X-120700Y187800
X-214100Y15900
X-203240Y79440
X-208200Y64600
X-208200Y79400
X-174370Y125910
X-133886Y107500
X-133886Y144000
X-173000Y96500
X-205435Y12800
X-203751Y-3018
X-200423Y12800
X-174420Y127990
X-206700Y79400
X-205786Y80394
X-249790Y28812
X-165000Y176600
X-235200Y32300
X-216800Y44100
X-216600Y48100
X-216500Y49900
X-235104Y29195
X-235104Y26223
X-235001Y22399
X-233641Y18952
X-235254Y12755
X-237309Y14494
X-239870Y20090
X-240186Y24106
X-227950Y20470
X-230195Y23885
X-223967Y13198
X-175000Y98400
X-174470Y131050
X-145614Y107500
X-146114Y144000
X-216135Y87800
X-230040Y77040
X-220365Y87800
X-236235Y77235
X-226955Y12199
X-232448Y30666
X-231808Y13023
X-237610Y30556
X-107700Y263200
X-188600Y219300
X-190300Y219300
X-112700Y263200
X-101374Y227157
X-115800Y221100
X-148400Y226900
X-147400Y226900
X-146400Y227900
X-146400Y226900
X-148400Y227900
X-147400Y227900
X-147235Y230300
X-147235Y229300
X-148235Y229300
X-148235Y230300
X-141200Y241100
X-136200Y238900
X-135700Y238000
X-138200Y241100
X-140700Y238000
X-139200Y241100
X-142200Y241100
X-140200Y241100
X-138700Y238000
X-137700Y238000
X-138700Y242100
X-147600Y243700
X-148600Y243700
X-143600Y243700
X-145600Y243700
X-137200Y238900
X-136700Y238000
X-147400Y239400
X-149400Y239400
X-144400Y239400
X-148400Y239400
X-146400Y239400
X-145400Y239400
X-141700Y242100
X-139200Y238900
X-138200Y238900
X-141700Y238000
X-142700Y238000
X-142200Y238900
X-139700Y238000
X-144600Y243700
X-140700Y242100
X-139700Y242100
X-142700Y242100
X-137700Y242100
X-146600Y243700
X-143200Y241100
X-140200Y238900
X-141200Y238900
X-143200Y238900
X-154500Y235000
X-107300Y258300
X-113200Y265400
X-99400Y258500
X-102200Y206900
X-102400Y209500
X-151000Y248600
X-99800Y244800
X-152500Y248700
X-135300Y224900
X-99406Y237000
X-144400Y237000
X-198605Y321801
X-170500Y335386
X-173014Y319833
X-153600Y337665
X-174983Y317864
X-169494Y321053
X-194368Y307972
X-184825Y298179
X-196637Y310090
X-196537Y306053
X-176951Y292273
X-192813Y292273
X-194668Y310090
X-194668Y306053
X-176951Y294242
X-192700Y294242
X-194668Y315896
X-194668Y313927
X-198618Y314037
X-196616Y314029
X-198777Y311882
X-196609Y311882
X-194668Y304084
X-198655Y306153
X-196637Y304084
X-198605Y302116
X-198605Y304034
X-173014Y294242
X-172914Y292273
X-173014Y296210
X-174983Y296210
X-174837Y292283
X-174983Y294242
X-174983Y298179
X-173014Y298179
X-190731Y298179
X-192830Y298319
X-196637Y292273
X-194468Y294071
X-194668Y296210
X-192580Y296210
X-194468Y292273
X-196637Y294242
X-172684Y305926
X-183057Y320033
X-180888Y315546
X-177351Y304021
X-138386Y351500
X-138400Y353900
X-51948Y341752
X-82500Y317100
X-71500Y324800
X-91500Y363200
X-64500Y253800
X-70314Y220240
X-81700Y211600
X-86400Y211700
X-62300Y211500
X-96100Y256100
X-21678Y248760
X-60715Y247038
X-98300Y230200
X-92600Y241800
X-71400Y247600
X-72600Y263500
X-66689Y216746
X-84600Y226200
X-98400Y245800
X-71200Y263500
X-85100Y258600
X-66486Y243614
X-87594Y237000
X-87894Y229126
X-88300Y276100
X-85900Y245200
X-97437Y238969
X-89763Y243006
X-88300Y277600
X-94400Y243900
X-98400Y240000
X-98500Y232000
X-96500Y234000
X-63000Y229414
X-62500Y253000
X-70314Y237600
X-73000Y152114
X-66600Y152100
X-70000Y152114
X-49614Y125000
X-82100Y165300
X-75000Y162500
X-76500Y162800
X-49500Y113614
X-69614Y180500
X-83386Y180500
X-95100Y105400
X-94000Y106138
X-95100Y106500
X-78886Y156500
X-76500Y176600
X-78500Y162800
X-83500Y167500
X-79535Y149000
X-73100Y155700
X-97974Y63006
X-79974Y81506
X-81680Y79850
X-59744Y58352
X-53620Y55011
X-87506Y73974
X-55730Y54320
X-58353Y59743
X-85974Y75506
X-91730Y52730
X-60579Y48051
X-88730Y55730
X-59188Y49443
X-52228Y56403
X-66274Y83774
X-61200Y57000
X-70000Y87000
X-93506Y67474
X-91974Y69006
X-61600Y74700
X-48052Y60578
X-73285Y85726
X-62700Y73600
X-49444Y59187
X-75100Y83900
X-46660Y61971
X-61972Y46659
M30
