G04 ================== begin FILE IDENTIFICATION RECORD ==================*
G04 Layout Name:  ORWL_Design_SHIFT.brd*
G04 Film Name:    outline*
G04 File Format:  Gerber RS274X*
G04 File Origin:  Cadence Allegro 16.6-P004*
G04 Origin Date:  Sat Sep 19 15:46:42 2015*
G04 *
G04 Layer:  BOARD GEOMETRY/OUTLINE*
G04 *
G04 Offset:    (0.00 0.00)*
G04 Mirror:    No*
G04 Mode:      Positive*
G04 Rotation:  0*
G04 FullContactRelief:  No*
G04 UndefLineWidth:     6.00*
G04 ================== end FILE IDENTIFICATION RECORD ====================*
%FSLAX45Y45*MOIN*%
%IR0*IPPOS*OFA0.00000B0.00000*MIA0B0*SFA1.00000B1.00000*%
%ADD10C,.006*%
G75*
%LPD*%
G75*
G54D10*
G01X2414Y107679D02*
G03X-165856Y412946I-199265J89171D01*
G03X-168325Y410939I-308J-2143D01*
G02X-185960Y412556I-8841J555D01*
G03X-188022Y414979I-2150J259D01*
G03X-233931Y411985I-8827J-218128D01*
G03X-235498Y409536I334J-1940D01*
G01X-233035Y400343D01*
X-240641Y398305D01*
X-243299Y408226D01*
G03X-245640Y409636I-1902J-509D01*
G03X-306287Y385746I48791J-212785D01*
G03X-307039Y383119I987J-1704D01*
G01X-302217Y374050D01*
X-309169Y370353D01*
X-313637Y378756D01*
G03X-316454Y379479I-1738J-924D01*
G03X-396108Y107662I119603J-182628D01*
G03X-393274Y106559I1976J885D01*
G02X-385239Y90810I3510J-8133D01*
G03X-386009Y87868I1107J-1861D01*
G03X-364507Y57032I189157J108985D01*
G03X-363899Y55167I2139J-334D01*
G01X-338535Y29802D01*
G03X-336669Y29193I1532J1531D01*
G03X-132711Y-11822I139818J167658D01*
G03X-131388Y-9431I-579J1882D01*
G01X-134064Y556D01*
X-126458Y2594D01*
X-123978Y-6664D01*
G03X-121396Y-8002I1902J509D01*
G03X-112326Y-4430I-75440J204858D01*
G03X-111350Y-1690I-762J1815D01*
G01X-115818Y6713D01*
X-108866Y10410D01*
X-104043Y1341D01*
G03X-101445Y494I1738J924D01*
G03X-57033Y29193I-95406J196356D01*
G03X-55167Y29802I334J2139D01*
G01X-29802Y55167D01*
G03X-29194Y57032I-1531J1531D01*
G03X-7702Y87852I-167657J139818D01*
G03X-8650Y90889I-1876J1081D01*
G02X-601Y106664I3798J8003D01*
G03X2414Y107679I1039J1900D01*
M02*
