G04 ================== begin FILE IDENTIFICATION RECORD ==================*
G04 Layout Name:  ORWL_Design_SHIFT.brd*
G04 Film Name:    past_bot*
G04 File Format:  Gerber RS274X*
G04 File Origin:  Cadence Allegro 16.6-P004*
G04 Origin Date:  Sat Sep 19 15:46:57 2015*
G04 *
G04 Layer:  VIA CLASS/PASTEMASK_BOTTOM*
G04 Layer:  PIN/PASTEMASK_BOTTOM*
G04 Layer:  PACKAGE GEOMETRY/PASTEMASK_BOTTOM*
G04 Layer:  DRAWING FORMAT/PASTEMASK_BOTTOM*
G04 Layer:  BOARD GEOMETRY/LOGO*
G04 Layer:  BOARD GEOMETRY/PASTEMASK_BOTTOM*
G04 *
G04 Offset:    (0.00 0.00)*
G04 Mirror:    No*
G04 Mode:      Positive*
G04 Rotation:  0*
G04 FullContactRelief:  No*
G04 UndefLineWidth:     6.00*
G04 ================== end FILE IDENTIFICATION RECORD ====================*
%FSLAX45Y45*MOIN*%
%IR0*IPPOS*OFA0.00000B0.00000*MIA0B0*SFA1.00000B1.00000*%
%ADD150R,.022X.1*%
%AMMACRO68*
4,1,22,-.01378,-.00394,
.00984,-.00394,
.010524,-.003881,
.011188,-.003703,
.01181,-.003413,
.012373,-.00302,
.012859,-.002535,
.013253,-.001972,
.013544,-.00135,
.013722,-.000687,
.013783,-.000003,
.013723,.000682,
.013546,.001345,
.013256,.001968,
.012862,.002531,
.012377,.003017,
.011815,.003411,
.011192,.003702,
.010529,.00388,
.009845,.00394,
.00984,.00394,
-.01378,.00394,
-.01378,-.00394,
0.0*
%
%ADD68MACRO68*%
%AMMACRO63*
4,1,22,-.00394,.01378,
-.00394,-.00984,
-.003881,-.010524,
-.003703,-.011188,
-.003413,-.01181,
-.00302,-.012373,
-.002535,-.012859,
-.001972,-.013253,
-.00135,-.013544,
-.000687,-.013722,
-.000003,-.013783,
.000682,-.013723,
.001345,-.013546,
.001968,-.013256,
.002531,-.012862,
.003017,-.012377,
.003411,-.011815,
.003702,-.011192,
.00388,-.010529,
.00394,-.009845,
.00394,-.00984,
.00394,.01378,
-.00394,.01378,
0.0*
%
%ADD63MACRO63*%
%ADD151R,.041X.1*%
%ADD142R,.1X.022*%
%ADD143R,.1X.041*%
%AMMACRO127*
21,1,.011,.014,0.0,0.0,135.*%
%ADD127MACRO127*%
%AMMACRO71*
21,1,.012,.031,0.0,0.0,135.*%
%ADD71MACRO71*%
%AMMACRO41*
21,1,.05,.04,0.0,0.0,135.*%
%ADD41MACRO41*%
%AMMACRO160*
21,1,.051,.031,0.0,0.0,135.*%
%ADD160MACRO160*%
%AMMACRO10*
21,1,.027,.016,0.0,0.0,135.*
1,1,.016,-.009546,.009546*
1,1,.016,.009546,-.009546*%
%ADD10MACRO10*%
%AMMACRO106*
4,1,6,-.04646,-.04508,
-.04646,.04508,
.04646,.04508,
.04646,.03169,
.02087,.03169,
.02087,-.04508,
-.04646,-.04508,
0.0*
%
%ADD106MACRO106*%
%AMMACRO149*
4,1,6,-.04508,.04646,
.04508,.04646,
.04508,-.04646,
.03169,-.04646,
.03169,-.02087,
-.04508,-.02087,
-.04508,.04646,
0.0*
%
%ADD149MACRO149*%
%AMMACRO128*
21,1,.028,.012,0.0,0.0,135.*%
%ADD128MACRO128*%
%AMMACRO170*
21,1,.024,.071,0.0,0.0,135.*%
%ADD170MACRO170*%
%AMMACRO11*
21,1,.014,.024,0.0,0.0,135.*
1,1,.024,-.00495,.00495*
1,1,.024,.00495,-.00495*%
%ADD11MACRO11*%
%ADD60C,.02*%
%ADD52C,.011*%
%AMMACRO146*
4,1,18,-.08327,-.03819,
.07421,-.03819,
.07421,.00512,
.08327,.00512,
.08327,.03819,
.05768,.03819,
.05768,.01496,
.03327,.01496,
.03327,.03819,
.00768,.03819,
.00768,.01496,
-.01673,.01496,
-.01673,.03819,
-.04232,.03819,
-.04232,.01496,
-.05098,.01496,
-.05098,-.00197,
-.08327,-.00197,
-.08327,-.03819,
0.0*
%
%ADD146MACRO146*%
%ADD18C,.03*%
%ADD158R,.095X.111*%
%ADD118C,.01102*%
%ADD110R,.008X.031*%
%ADD82C,.04*%
%AMMACRO58*
4,1,5,-.05906,.03937,
-.05906,-.05906,
.05906,-.05906,
.05906,.05906,
-.03937,.05906,
-.05906,.03937,
0.0*
%
%ADD58MACRO58*%
%ADD37R,.015X.008*%
%AMMACRO24*
21,1,.008,.015,0.0,0.0,45.*%
%ADD24MACRO24*%
%ADD119C,.015*%
%ADD109R,.024X.008*%
%AMMACRO77*
21,1,.008,.043,0.0,0.0,45.*%
%ADD77MACRO77*%
%AMMACRO42*
21,1,.039,.071,0.0,0.0,135.*%
%ADD42MACRO42*%
%ADD38R,.008X.015*%
%ADD155R,.066X.134*%
%ADD133R,.008X.025*%
%ADD131R,.025X.008*%
%ADD89R,.039X.118*%
%AMMACRO69*
4,1,22,.01378,.00394,
-.00984,.00394,
-.010524,.003881,
-.011188,.003703,
-.01181,.003413,
-.012373,.00302,
-.012859,.002535,
-.013253,.001972,
-.013544,.00135,
-.013722,.000687,
-.013783,.000003,
-.013723,-.000682,
-.013546,-.001345,
-.013256,-.001968,
-.012862,-.002531,
-.012377,-.003017,
-.011815,-.003411,
-.011192,-.003702,
-.010529,-.00388,
-.009845,-.00394,
-.00984,-.00394,
.01378,-.00394,
.01378,.00394,
0.0*
%
%ADD69MACRO69*%
%AMMACRO64*
4,1,22,.00394,-.01378,
.00394,.00984,
.003881,.010524,
.003703,.011188,
.003413,.01181,
.00302,.012373,
.002535,.012859,
.001972,.013253,
.00135,.013544,
.000687,.013722,
.000003,.013783,
-.000682,.013723,
-.001345,.013546,
-.001968,.013256,
-.002531,.012862,
-.003017,.012377,
-.003411,.011815,
-.003702,.011192,
-.00388,.010529,
-.00394,.009845,
-.00394,.00984,
-.00394,-.01378,
.00394,-.01378,
0.0*
%
%ADD64MACRO64*%
%AMMACRO45*
21,1,.008,.027,0.0,0.0,45.*%
%ADD45MACRO45*%
%AMMACRO15*
21,1,.039,.055,0.0,0.0,135.*
1,1,.039,.019445,.019445*
1,1,.039,-.019445,-.019445*%
%ADD15MACRO15*%
%ADD120C,.0144*%
%AMMACRO78*
21,1,.039,.047,0.0,0.0,135.*%
%ADD78MACRO78*%
%ADD31R,.02X.02*%
%ADD154R,.138X.093*%
%ADD153R,.093X.138*%
%ADD117C,.0128*%
%AMMACRO161*
4,1,23,.11281,-.04588,
.10563,.15975,
-.014023,.158457,
-.11292,.15212,
-.10574,-.05351,
-.103598,-.07245,
-.0982,-.09073,
-.08971,-.107795,
-.078385,-.123126,
-.06457,-.136258,
-.048685,-.146791,
-.031212,-.154406,
-.012682,-.158872,
.006342,-.160051,
.025281,-.157909,
.043561,-.152511,
.060626,-.144021,
.075958,-.132696,
.08909,-.118882,
.099623,-.102996,
.107238,-.085523,
.111703,-.066993,
.112883,-.047969,
.11281,-.04588,
0.0*
%
%ADD161MACRO161*%
%ADD145R,.157X.085*%
%AMMACRO134*
4,1,5,-.00394,.0124,
-.00394,-.0124,
.00394,-.0124,
.00394,.00689,
.00039,.0124,
-.00394,.0124,
0.0*
%
%ADD134MACRO134*%
%AMMACRO130*
4,1,5,-.0124,.00394,
.0124,.00394,
.0124,-.00394,
-.00689,-.00394,
-.0124,-.00039,
-.0124,.00394,
0.0*
%
%ADD130MACRO130*%
%ADD47R,.032X.032*%
%AMMACRO101*
4,1,20,.75099,-.93219,
.17519,-1.08584,
-.751,-1.08584,
-.751,-.74127,
-.78248,-.74127,
-.78248,-1.11732,
.17932,-1.11732,
.78248,-.95638,
.78248,.51349,
.64521,1.11732,
-.36595,1.11732,
-.36595,-.26536,
-.78248,-.26536,
-.78248,-.74124,
-.751,-.74124,
-.751,-.29684,
-.33446,-.29684,
-.33446,1.08584,
.62008,1.08584,
.75099,.50995,
.75099,-.93219,
0.0*
%
%ADD101MACRO101*%
%AMMACRO80*
21,1,.012,.085,0.0,0.0,118.*
1,1,.085,-.002817,.005298*
1,1,.085,.002817,-.005298*%
%ADD80MACRO80*%
%ADD73C,.085*%
%ADD177R,.016X.016*%
%AMMACRO164*
21,1,.02,.02,0.0,0.0,70.262*%
%ADD164MACRO164*%
%AMMACRO163*
21,1,.02,.02,0.0,0.0,71.216*%
%ADD163MACRO163*%
%ADD141R,.018X.018*%
%AMMACRO90*
21,1,.047,.063,0.0,0.0,170.363*%
%ADD90MACRO90*%
%ADD55R,.028X.028*%
%AMMACRO138*
4,1,5,.0124,.00394,
-.0124,.00394,
-.0124,-.00394,
.00689,-.00394,
.0124,-.00039,
.0124,.00394,
0.0*
%
%ADD138MACRO138*%
%AMMACRO137*
4,1,5,.00394,.0124,
.00394,-.0124,
-.00394,-.0124,
-.00394,.00689,
-.00039,.0124,
.00394,.0124,
0.0*
%
%ADD137MACRO137*%
%AMMACRO113*
21,1,.131,.098,0.0,0.0,16.354*%
%ADD113MACRO113*%
%AMMACRO168*
21,1,.02,.02,0.0,0.0,70.634*%
%ADD168MACRO168*%
%AMMACRO91*
21,1,.028,.057,0.0,0.0,170.363*%
%ADD91MACRO91*%
%AMMACRO35*
21,1,.131,.098,0.0,0.0,16.284*%
%ADD35MACRO35*%
%AMMACRO165*
21,1,.016,.063,0.0,0.0,161.983*%
%ADD165MACRO165*%
%AMMACRO79*
21,1,.012,.085,0.0,0.0,107.424*
1,1,.085,-.001797,.005725*
1,1,.085,.001797,-.005725*%
%ADD79MACRO79*%
%AMMACRO36*
21,1,.131,.098,0.0,0.0,56.282*%
%ADD36MACRO36*%
%AMMACRO166*
21,1,.02,.02,0.0,0.0,70.298*%
%ADD166MACRO166*%
%AMMACRO167*
21,1,.02,.02,0.0,0.0,71.983*%
%ADD167MACRO167*%
%AMMACRO136*
4,1,5,-.00394,-.0124,
-.00394,.0124,
.00394,.0124,
.00394,-.00689,
.00039,-.0124,
-.00394,-.0124,
0.0*
%
%ADD136MACRO136*%
%AMMACRO132*
4,1,5,-.0124,-.00394,
.0124,-.00394,
.0124,.00394,
-.00689,.00394,
-.0124,.00039,
-.0124,-.00394,
0.0*
%
%ADD132MACRO132*%
%AMMACRO48*
4,1,40,-.00984,-.00551,
-.009781,-.006194,
-.009604,-.006857,
-.009314,-.007479,
-.008921,-.008041,
-.008436,-.008527,
-.007875,-.008921,
-.007253,-.009211,
-.00659,-.00939,
-.00591,-.00945,
.00591,-.00945,
.006593,-.009389,
.007256,-.00921,
.007877,-.008919,
.008439,-.008525,
.008923,-.008039,
.009316,-.007476,
.009605,-.006854,
.009781,-.006191,
.00984,-.00551,
.00984,.00551,
.009781,.006194,
.009604,.006857,
.009314,.007479,
.008921,.008041,
.008436,.008527,
.007875,.008921,
.007253,.009211,
.00659,.00939,
.00591,.00945,
-.00591,.00945,
-.006593,.009389,
-.007256,.00921,
-.007877,.008919,
-.008439,.008525,
-.008923,.008039,
-.009316,.007476,
-.009605,.006854,
-.009781,.006191,
-.00984,.00551,
-.00984,-.00551,
0.0*
%
%ADD48MACRO48*%
%AMMACRO44*
4,1,40,.00306,.01085,
.002538,.011295,
.001944,.011639,
.0013,.011874,
.000624,.011994,
-.000062,.011995,
-.000738,.011877,
-.001383,.011643,
-.001978,.011301,
-.0025,.01086,
-.01086,.0025,
-.011302,.001976,
-.011644,.001381,
-.011877,.000735,
-.011995,.000059,
-.011994,-.000627,
-.011873,-.001302,
-.011637,-.001947,
-.011293,-.00254,
-.01085,-.00306,
-.00306,-.01085,
-.002538,-.011295,
-.001944,-.011639,
-.0013,-.011874,
-.000624,-.011994,
.000062,-.011995,
.000738,-.011877,
.001383,-.011643,
.001978,-.011301,
.0025,-.01086,
.01086,-.0025,
.011302,-.001976,
.011644,-.001381,
.011877,-.000735,
.011995,-.000059,
.011994,.000627,
.011873,.001302,
.011637,.001947,
.011293,.00254,
.01085,.00306,
.00306,.01085,
0.0*
%
%ADD44MACRO44*%
%AMMACRO43*
4,1,40,-.00306,-.01085,
-.002538,-.011295,
-.001944,-.011639,
-.0013,-.011874,
-.000624,-.011994,
.000062,-.011995,
.000738,-.011877,
.001383,-.011643,
.001978,-.011301,
.0025,-.01086,
.01086,-.0025,
.011302,-.001976,
.011644,-.001381,
.011877,-.000735,
.011995,-.000059,
.011994,.000627,
.011873,.001302,
.011637,.001947,
.011293,.00254,
.01085,.00306,
.00306,.01085,
.002538,.011295,
.001944,.011639,
.0013,.011874,
.000624,.011994,
-.000062,.011995,
-.000738,.011877,
-.001383,.011643,
-.001978,.011301,
-.0025,.01086,
-.01086,.0025,
-.011302,.001976,
-.011644,.001381,
-.011877,.000735,
-.011995,.000059,
-.011994,-.000627,
-.011873,-.001302,
-.011637,-.001947,
-.011293,-.00254,
-.01085,-.00306,
-.00306,-.01085,
0.0*
%
%ADD43MACRO43*%
%AMMACRO40*
4,1,40,-.01085,.00306,
-.011295,.002538,
-.011639,.001944,
-.011874,.0013,
-.011994,.000624,
-.011995,-.000062,
-.011877,-.000738,
-.011643,-.001383,
-.011301,-.001978,
-.01086,-.0025,
-.0025,-.01086,
-.001976,-.011302,
-.001381,-.011644,
-.000735,-.011877,
-.000059,-.011995,
.000627,-.011994,
.001302,-.011873,
.001947,-.011637,
.00254,-.011293,
.00306,-.01085,
.01085,-.00306,
.011295,-.002538,
.011639,-.001944,
.011874,-.0013,
.011994,-.000624,
.011995,.000062,
.011877,.000738,
.011643,.001383,
.011301,.001978,
.01086,.0025,
.0025,.01086,
.001976,.011302,
.001381,.011644,
.000735,.011877,
.000059,.011995,
-.000627,.011994,
-.001302,.011873,
-.001947,.011637,
-.00254,.011293,
-.00306,.01085,
-.01085,.00306,
0.0*
%
%ADD40MACRO40*%
%AMMACRO22*
4,1,40,-.00551,.00984,
-.006194,.009781,
-.006857,.009604,
-.007479,.009314,
-.008041,.008921,
-.008527,.008436,
-.008921,.007875,
-.009211,.007253,
-.00939,.00659,
-.00945,.00591,
-.00945,-.00591,
-.009389,-.006593,
-.00921,-.007256,
-.008919,-.007877,
-.008525,-.008439,
-.008039,-.008923,
-.007476,-.009316,
-.006854,-.009605,
-.006191,-.009781,
-.00551,-.00984,
.00551,-.00984,
.006194,-.009781,
.006857,-.009604,
.007479,-.009314,
.008041,-.008921,
.008527,-.008436,
.008921,-.007875,
.009211,-.007253,
.00939,-.00659,
.00945,-.00591,
.00945,.00591,
.009389,.006593,
.00921,.007256,
.008919,.007877,
.008525,.008439,
.008039,.008923,
.007476,.009316,
.006854,.009605,
.006191,.009781,
.00551,.00984,
-.00551,.00984,
0.0*
%
%ADD22MACRO22*%
%AMMACRO19*
4,1,16,-.00129,.89996,
-.00129,.86846,
.90846,.86846,
.90846,-.86847,
-.90847,-.86847,
-.90847,.24327,
-.3569,.24327,
-.3569,.86846,
-.06484,.86846,
-.06484,.89996,
-.38839,.89996,
-.38839,.27476,
-.93997,.27476,
-.93997,-.89996,
.93996,-.89996,
.93996,.89996,
-.00129,.89996,
0.0*
%
%ADD19MACRO19*%
%AMMACRO30*
21,1,.02,.02,0.0,0.0,89.953*%
%ADD30MACRO30*%
%AMMACRO140*
4,1,5,.00394,-.0124,
.00394,.0124,
-.00394,.0124,
-.00394,-.00689,
-.00039,-.0124,
.00394,-.0124,
0.0*
%
%ADD140MACRO140*%
%AMMACRO139*
4,1,5,.0124,-.00394,
-.0124,-.00394,
-.0124,.00394,
.00689,.00394,
.0124,.00039,
.0124,-.00394,
0.0*
%
%ADD139MACRO139*%
%ADD114R,.01X.012*%
%ADD57R,.012X.02*%
%ADD56R,.02X.012*%
%ADD157R,.02X.04*%
%ADD99R,.014X.01*%
%ADD175R,.014X.011*%
%AMMACRO159*
21,1,.012,.031,0.0,0.0,45.*%
%ADD159MACRO159*%
%AMMACRO148*
4,1,6,.04646,.04508,
.04646,-.04508,
-.04646,-.04508,
-.04646,-.03169,
-.02087,-.03169,
-.02087,.04508,
.04646,.04508,
0.0*
%
%ADD148MACRO148*%
%ADD112R,.01X.014*%
%AMMACRO103*
4,1,6,.04508,-.04646,
-.04508,-.04646,
-.04508,.04646,
-.03169,.04646,
-.03169,.02087,
.04508,.02087,
.04508,-.04646,
0.0*
%
%ADD103MACRO103*%
%ADD29R,.02X.022*%
%AMMACRO21*
21,1,.011,.014,0.0,0.0,45.*%
%ADD21MACRO21*%
%ADD105R,.013X.031*%
%ADD84R,.012X.031*%
%ADD176R,.016X.02*%
%ADD122R,.016X.01*%
%ADD108R,.031X.013*%
%AMMACRO76*
21,1,.05,.04,0.0,0.0,45.*%
%ADD76MACRO76*%
%ADD50R,.03X.033*%
%ADD129R,.02X.016*%
%ADD62R,.011X.044*%
%ADD174R,.037X.01*%
%AMMACRO92*
21,1,.027,.016,0.0,0.0,45.*
1,1,.016,.009546,.009546*
1,1,.016,-.009546,-.009546*%
%ADD92MACRO92*%
%ADD67R,.028X.01*%
%ADD65R,.01X.028*%
%ADD61R,.044X.011*%
%ADD28R,.02X.026*%
%ADD104R,.013X.026*%
%ADD83R,.016X.031*%
%ADD173R,.037X.012*%
%ADD107R,.026X.013*%
%ADD102R,.014X.035*%
%AMMACRO74*
21,1,.024,.004,0.0,0.0,45.*
1,1,.024,.001414,-.001414*
1,1,.024,-.001414,.001414*%
%ADD74MACRO74*%
%AMMACRO25*
21,1,.028,.012,0.0,0.0,45.*%
%ADD25MACRO25*%
%AMMACRO93*
21,1,.014,.024,0.0,0.0,45.*
1,1,.024,.00495,.00495*
1,1,.024,-.00495,-.00495*%
%ADD93MACRO93*%
%AMMACRO75*
21,1,.008,.015,0.0,0.0,135.*%
%ADD75MACRO75*%
%AMMACRO46*
21,1,.016,.061,0.0,0.0,45.*%
%ADD46MACRO46*%
%ADD144R,.026X.025*%
%ADD88R,.039X.012*%
%ADD87R,.012X.039*%
%ADD85R,.028X.032*%
%ADD66R,.059X.01*%
%ADD53R,.011X.049*%
%ADD126R,.054X.034*%
%ADD121R,.033X.037*%
%ADD116R,.049X.011*%
%ADD86R,.032X.028*%
%ADD125R,.034X.054*%
%AMMACRO147*
4,1,18,.08327,.03819,
-.07421,.03819,
-.07421,-.00512,
-.08327,-.00512,
-.08327,-.03819,
-.05768,-.03819,
-.05768,-.01496,
-.03327,-.01496,
-.03327,-.03819,
-.00768,-.03819,
-.00768,-.01496,
.01673,-.01496,
.01673,-.03819,
.04232,-.03819,
.04232,-.01496,
.05098,-.01496,
.05098,.00197,
.08327,.00197,
.08327,.03819,
0.0*
%
%ADD147MACRO147*%
%ADD123R,.024X.039*%
%ADD51R,.071X.039*%
%ADD124R,.122X.122*%
%ADD27R,.024X.059*%
%ADD115C,.008*%
%ADD97C,.256*%
%AMMACRO96*
21,1,.039,.055,0.0,0.0,45.*
1,1,.039,.019445,-.019445*
1,1,.039,-.019445,.019445*%
%ADD96MACRO96*%
%ADD111C,.009*%
%ADD17C,.177*%
%AMMACRO12*
21,1,.039,.048,0.0,0.0,45.*
1,1,.039,.016971,-.016971*
1,1,.039,-.016971,.016971*%
%ADD12MACRO12*%
%AMMACRO81*
4,1,23,-.12177,-.0019,
-.03472,-.18834,
.074892,-.140344,
.16343,-.09583,
.07638,.09061,
.067002,.107203,
.054883,.121915,
.040394,.134299,
.023974,.143978,
.006123,.150659,
-.012617,.154139,
-.031676,.154312,
-.050476,.151173,
-.068446,.144816,
-.085038,.135436,
-.09975,.123318,
-.112133,.108828,
-.121813,.092408,
-.128494,.074557,
-.131974,.055817,
-.132147,.036758,
-.129007,.017958,
-.122651,-.000011,
-.12177,-.0019,
0.0*
%
%ADD81MACRO81*%
%AMMACRO72*
21,1,.039,.04,0.0,0.0,45.*
1,1,.039,.014142,-.014142*
1,1,.039,-.014142,.014142*%
%ADD72MACRO72*%
%ADD59R,.118X.118*%
%AMMACRO26*
21,1,.02,.02,0.0,0.0,.045*%
%ADD26MACRO26*%
%AMMACRO169*
4,1,15,.03549,.01462,
-.01462,-.03549,
-.03549,-.01462,
.00495,.02582,
.006353,.026152,
.007735,.026562,
.00909,.027052,
.010415,.02762,
.011705,.028263,
.012955,.028981,
.014161,.02977,
.015319,.030628,
.016426,.031552,
.017477,.032538,
.01752,.03258,
.03549,.01462,
0.0*
%
%ADD169MACRO169*%
%AMMACRO98*
4,1,23,.00191,-.12177,
.18834,-.03472,
.140344,.074892,
.09582,.16343,
-.09061,.07638,
-.107202,.067,
-.121914,.054881,
-.134298,.040391,
-.143977,.023972,
-.150658,.006121,
-.154138,-.012619,
-.154311,-.031679,
-.151172,-.050479,
-.144815,-.068448,
-.135435,-.085041,
-.123316,-.099752,
-.108827,-.112136,
-.092407,-.121815,
-.074556,-.128497,
-.055816,-.131976,
-.036757,-.132149,
-.017957,-.12901,
.000013,-.122653,
.00191,-.12177,
0.0*
%
%ADD98MACRO98*%
%AMMACRO20*
21,1,.02,.02,0.0,0.0,2.517*%
%ADD20MACRO20*%
%AMMACRO33*
21,1,.02,.02,0.0,0.0,2.851*%
%ADD33MACRO33*%
%ADD156R,.049X.079*%
%ADD100R,.039X.098*%
%ADD70R,.098X.059*%
%ADD152R,.059X.098*%
%ADD135R,.187X.187*%
%AMMACRO32*
21,1,.02,.02,0.0,0.0,2.549*%
%ADD32MACRO32*%
%AMMACRO171*
4,1,15,.01462,.03549,
-.03549,-.01462,
-.01462,-.03549,
.02582,.00495,
.026152,.006353,
.026562,.007735,
.027052,.00909,
.02762,.010415,
.028263,.011705,
.028981,.012955,
.02977,.014161,
.030628,.015319,
.031552,.016426,
.032538,.017477,
.03258,.01752,
.01462,.03549,
0.0*
%
%ADD171MACRO171*%
%AMMACRO34*
21,1,.016,.063,0.0,0.0,92.764*%
%ADD34MACRO34*%
%ADD54C,.00985*%
%AMMACRO16*
4,1,23,-.00162,.12177,
-.18826,.03516,
-.140519,-.074563,
-.09621,-.16321,
.09043,-.07659,
.107046,-.067251,
.121785,-.055167,
.134203,-.040706,
.143921,-.02431,
.150644,-.006474,
.154168,.012258,
.154385,.031317,
.15129,.050124,
.144975,.068108,
.135634,.084723,
.12355,.099463,
.109089,.11188,
.092693,.121598,
.074857,.128321,
.056125,.131845,
.037066,.132062,
.018259,.128967,
.000275,.122653,
-.00162,.12177,
0.0*
%
%ADD16MACRO16*%
%AMMACRO172*
21,1,.131,.098,0.0,0.0,147.927*%
%ADD172MACRO172*%
%AMMACRO49*
4,1,40,.00984,.00551,
.009781,.006194,
.009604,.006857,
.009314,.007479,
.008921,.008041,
.008436,.008527,
.007875,.008921,
.007253,.009211,
.00659,.00939,
.00591,.00945,
-.00591,.00945,
-.006593,.009389,
-.007256,.00921,
-.007877,.008919,
-.008439,.008525,
-.008923,.008039,
-.009316,.007476,
-.009605,.006854,
-.009781,.006191,
-.00984,.00551,
-.00984,-.00551,
-.009781,-.006194,
-.009604,-.006857,
-.009314,-.007479,
-.008921,-.008041,
-.008436,-.008527,
-.007875,-.008921,
-.007253,-.009211,
-.00659,-.00939,
-.00591,-.00945,
.00591,-.00945,
.006593,-.009389,
.007256,-.00921,
.007877,-.008919,
.008439,-.008525,
.008923,-.008039,
.009316,-.007476,
.009605,-.006854,
.009781,-.006191,
.00984,-.00551,
.00984,.00551,
0.0*
%
%ADD49MACRO49*%
%AMMACRO39*
4,1,40,.01085,-.00306,
.011295,-.002538,
.011639,-.001944,
.011874,-.0013,
.011994,-.000624,
.011995,.000062,
.011877,.000738,
.011643,.001383,
.011301,.001978,
.01086,.0025,
.0025,.01086,
.001976,.011302,
.001381,.011644,
.000735,.011877,
.000059,.011995,
-.000627,.011994,
-.001302,.011873,
-.001947,.011637,
-.00254,.011293,
-.00306,.01085,
-.01085,.00306,
-.011295,.002538,
-.011639,.001944,
-.011874,.0013,
-.011994,.000624,
-.011995,-.000062,
-.011877,-.000738,
-.011643,-.001383,
-.011301,-.001978,
-.01086,-.0025,
-.0025,-.01086,
-.001976,-.011302,
-.001381,-.011644,
-.000735,-.011877,
-.000059,-.011995,
.000627,-.011994,
.001302,-.011873,
.001947,-.011637,
.00254,-.011293,
.00306,-.01085,
.01085,-.00306,
0.0*
%
%ADD39MACRO39*%
%AMMACRO162*
21,1,.039,.098,0.0,0.0,15.199*%
%ADD162MACRO162*%
%AMMACRO23*
4,1,40,.00551,-.00984,
.006194,-.009781,
.006857,-.009604,
.007479,-.009314,
.008041,-.008921,
.008527,-.008436,
.008921,-.007875,
.009211,-.007253,
.00939,-.00659,
.00945,-.00591,
.00945,.00591,
.009389,.006593,
.00921,.007256,
.008919,.007877,
.008525,.008439,
.008039,.008923,
.007476,.009316,
.006854,.009605,
.006191,.009781,
.00551,.00984,
-.00551,.00984,
-.006194,.009781,
-.006857,.009604,
-.007479,.009314,
-.008041,.008921,
-.008527,.008436,
-.008921,.007875,
-.009211,.007253,
-.00939,.00659,
-.00945,.00591,
-.00945,-.00591,
-.009389,-.006593,
-.00921,-.007256,
-.008919,-.007877,
-.008525,-.008439,
-.008039,-.008923,
-.007476,-.009316,
-.006854,-.009605,
-.006191,-.009781,
-.00551,-.00984,
.00551,-.00984,
0.0*
%
%ADD23MACRO23*%
%ADD178C,.014*%
%ADD179C,.006*%
G75*
%LPD*%
G75*
G36*
G01X-325508Y211476D02*
X-321571D01*
Y208524D01*
X-325508D01*
Y211476D01*
G37*
G36*
G01X-330429D02*
X-326492D01*
Y208524D01*
X-330429D01*
Y211476D01*
G37*
G36*
G01X-329476Y248992D02*
Y252929D01*
X-326524D01*
Y248992D01*
X-329476D01*
G37*
G36*
G01Y244071D02*
Y248008D01*
X-326524D01*
Y244071D01*
X-329476D01*
G37*
G36*
G01X-323976Y274492D02*
Y278429D01*
X-321024D01*
Y274492D01*
X-323976D01*
G37*
G36*
G01Y269571D02*
Y273508D01*
X-321024D01*
Y269571D01*
X-323976D01*
G37*
G36*
G01X-324508Y186976D02*
X-320571D01*
Y184024D01*
X-324508D01*
Y186976D01*
G37*
G36*
G01X-329429D02*
X-325492D01*
Y184024D01*
X-329429D01*
Y186976D01*
G37*
G54D100*
X-142706Y64973D03*
X-136801D03*
X-130895D03*
X-124990D03*
G54D101*
X-121240Y194882D03*
G54D110*
X-261713Y56744D03*
Y62256D03*
X-263287Y56744D03*
Y62256D03*
G54D111*
X-272787Y43287D03*
Y41713D03*
X-271213Y43287D03*
Y41713D03*
X-260787Y43287D03*
Y41713D03*
X-259213Y43287D03*
Y41713D03*
X-186843Y67843D03*
Y65874D03*
Y63906D03*
Y61937D03*
Y59969D03*
Y58000D03*
Y56031D03*
Y54063D03*
Y52094D03*
Y50126D03*
Y48157D03*
X-184874Y67843D03*
Y65874D03*
X-182906Y67843D03*
Y65874D03*
X-184874Y63906D03*
Y61937D03*
Y59969D03*
Y58000D03*
Y56031D03*
Y54063D03*
Y52094D03*
Y50126D03*
X-182906D03*
X-184874Y48157D03*
X-182906D03*
X-180937Y67843D03*
Y65874D03*
Y59969D03*
Y58000D03*
Y56031D03*
Y54063D03*
Y50126D03*
Y48157D03*
X-178969Y67843D03*
Y65874D03*
X-177000Y67843D03*
Y65874D03*
X-178969Y61937D03*
Y59969D03*
X-177000Y61937D03*
Y59969D03*
X-178969Y58000D03*
Y56031D03*
X-177000Y58000D03*
Y56031D03*
X-178969Y54063D03*
X-177000D03*
X-178969Y50126D03*
X-177000D03*
X-178969Y48157D03*
X-177000D03*
X-175031Y67843D03*
Y65874D03*
Y61937D03*
Y59969D03*
Y58000D03*
Y56031D03*
Y54063D03*
Y50126D03*
Y48157D03*
X-173063Y67843D03*
Y65874D03*
X-171094Y67843D03*
Y65874D03*
X-173063Y61937D03*
Y59969D03*
Y58000D03*
Y56031D03*
Y54063D03*
Y50126D03*
X-171094D03*
X-173063Y48157D03*
X-171094D03*
X-169126Y67843D03*
Y65874D03*
X-167157Y67843D03*
Y65874D03*
X-169126Y63906D03*
X-167157D03*
X-169126Y61937D03*
Y59969D03*
X-167157Y61937D03*
Y59969D03*
X-169126Y58000D03*
Y56031D03*
X-167157Y58000D03*
Y56031D03*
X-169126Y54063D03*
X-167157D03*
X-169126Y52094D03*
Y50126D03*
X-167157Y52094D03*
Y50126D03*
X-169126Y48157D03*
X-167157D03*
X-81689Y248811D03*
Y246843D03*
X-87594Y248811D03*
Y246843D03*
X-83657Y248811D03*
X-85626D03*
Y246843D03*
X-91531Y248811D03*
Y246843D03*
X-89563Y248811D03*
Y246843D03*
X-95469Y248811D03*
Y246843D03*
X-93500Y248811D03*
Y246843D03*
X-99406Y244874D03*
Y248811D03*
Y246843D03*
X-97437Y248811D03*
Y246843D03*
X-103343Y244874D03*
X-101374D03*
X-103343Y248811D03*
Y246843D03*
X-101374Y248811D03*
Y246843D03*
X-105311Y244874D03*
Y248811D03*
Y246843D03*
X-81689Y240937D03*
Y244874D03*
Y242906D03*
X-87594Y240937D03*
X-83657D03*
X-85626D03*
X-87594Y244874D03*
Y242906D03*
X-83657Y244874D03*
X-85626D03*
X-83657Y242906D03*
X-85626D03*
X-91531Y240937D03*
X-89563D03*
X-91531Y244874D03*
Y242906D03*
X-89563Y244874D03*
Y242906D03*
X-95469Y240937D03*
X-93500D03*
X-95469Y244874D03*
Y242906D03*
X-93500Y244874D03*
Y242906D03*
X-99406Y240937D03*
X-97437D03*
X-99406Y242906D03*
X-97437Y244874D03*
Y242906D03*
X-103343Y240937D03*
X-101374D03*
X-103343Y242906D03*
X-101374D03*
X-105311Y240937D03*
Y242906D03*
X-81689Y237000D03*
Y238969D03*
X-87594Y237000D03*
X-83657D03*
X-85626D03*
X-87594Y238969D03*
X-83657D03*
X-85626D03*
X-91531Y237000D03*
X-89563D03*
X-91531Y238969D03*
X-89563D03*
X-95469Y237000D03*
X-93500D03*
X-95469Y238969D03*
X-93500D03*
X-99406Y237000D03*
X-97437D03*
X-99406Y238969D03*
X-97437D03*
X-103343Y237000D03*
X-101374D03*
X-103343Y238969D03*
X-101374D03*
X-105311Y237000D03*
Y238969D03*
X-81689Y233063D03*
Y235031D03*
X-87594Y233063D03*
X-83657D03*
X-85626D03*
X-87594Y235031D03*
X-83657D03*
X-85626D03*
X-91531Y233063D03*
X-89563D03*
X-91531Y235031D03*
X-89563D03*
X-95469Y233063D03*
X-93500D03*
X-95469Y235031D03*
X-93500D03*
X-99406Y233063D03*
X-97437D03*
X-99406Y235031D03*
X-97437D03*
X-103343Y233063D03*
X-101374D03*
X-103343Y235031D03*
X-101374D03*
X-105311Y233063D03*
Y235031D03*
X-81689Y229126D03*
Y231094D03*
X-87594Y229126D03*
X-83657D03*
X-85626D03*
X-87594Y231094D03*
X-83657D03*
X-85626D03*
X-91531Y229126D03*
X-89563D03*
X-91531Y231094D03*
X-89563D03*
X-95469Y229126D03*
X-93500D03*
X-95469Y231094D03*
X-93500D03*
X-99406Y229126D03*
X-97437D03*
X-99406Y231094D03*
X-97437D03*
X-103343Y229126D03*
X-101374D03*
X-103343Y231094D03*
X-101374D03*
X-105311Y229126D03*
Y231094D03*
X-81689Y225189D03*
Y227157D03*
X-87594Y225189D03*
X-83657D03*
X-85626D03*
X-87594Y227157D03*
X-83657D03*
X-85626D03*
X-91531Y225189D03*
X-89563D03*
X-91531Y227157D03*
X-89563D03*
X-95469Y225189D03*
X-93500D03*
X-95469Y227157D03*
X-93500D03*
X-99406Y225189D03*
X-97437D03*
X-99406Y227157D03*
X-97437D03*
X-103343Y225189D03*
X-101374D03*
X-103343Y227157D03*
X-101374D03*
X-105311Y225189D03*
Y227157D03*
G54D102*
X-33541Y180450D03*
X-36100D03*
X-38659D03*
X-33541Y174150D03*
X-36100D03*
X-38659D03*
G54D120*
X-179500Y44000D03*
X-175500D03*
G54D121*
X-245664Y118646D03*
X-241136D03*
X-245664Y124354D03*
X-241136D03*
G54D103*
X-29000Y144735D03*
G54D112*
X-252555Y59500D03*
X-254445D03*
X-252555Y62100D03*
X-254445D03*
X-252555Y64600D03*
X-254445D03*
X-259555Y71000D03*
X-261445D03*
X-270555Y57300D03*
X-272445D03*
X-263555Y71000D03*
X-265445D03*
X-272445Y65000D03*
X-270555D03*
X-272445Y60000D03*
X-270555D03*
X-272445Y54800D03*
X-270555D03*
X-276445D03*
X-274555D03*
X-276445Y60000D03*
X-274555D03*
X-263555Y68500D03*
X-265445D03*
X-272445Y62500D03*
X-259555Y68500D03*
X-261445D03*
X-252555Y57000D03*
X-254445D03*
X-270555Y62500D03*
G54D130*
X-65948Y119498D03*
G54D10*
X-343074Y72759D03*
X-320942Y50627D03*
G54D20*
X-409084Y203462D03*
X-409230Y206766D03*
G54D104*
X-25161Y148101D03*
X-27720D03*
X-30280D03*
X-137955Y278050D03*
X-135396D03*
X-132836D03*
G54D122*
X-221750Y149569D03*
Y147600D03*
Y145631D03*
X-215450Y149569D03*
Y147600D03*
Y145631D03*
G54D140*
X-86755Y140305D03*
G54D113*
X-21678Y248760D03*
G54D131*
X-65948Y121073D03*
Y122648D03*
Y124223D03*
Y125797D03*
Y127372D03*
Y128947D03*
Y130522D03*
Y132097D03*
Y133671D03*
Y135246D03*
Y136821D03*
X-88664Y121073D03*
Y122648D03*
Y124223D03*
Y127372D03*
Y125797D03*
Y128947D03*
Y130522D03*
Y132097D03*
Y135246D03*
Y133671D03*
Y136821D03*
G54D11*
X-334792Y64477D03*
X-329224Y58909D03*
G54D12*
X-336184Y318924D03*
X-318924Y336184D03*
G54D123*
X-218600Y147600D03*
G54D105*
X-25161Y135994D03*
X-27720D03*
X-30280D03*
X-32839D03*
X-137955Y290157D03*
X-135396D03*
X-132836D03*
X-130277D03*
G54D21*
X-329270Y80730D03*
X-330730Y79270D03*
X-326270Y77730D03*
X-327730Y76270D03*
X-320270Y71730D03*
X-321730Y70270D03*
X-323270Y74730D03*
X-324730Y73270D03*
X-335703Y87099D03*
X-337163Y85639D03*
X-332703Y84099D03*
X-334163Y82639D03*
X-316703Y68099D03*
X-318163Y66639D03*
X-313703Y64999D03*
X-315163Y63539D03*
X-308203Y59599D03*
X-309663Y58139D03*
X-310703Y62099D03*
X-312163Y60639D03*
X-338703Y90099D03*
X-340163Y88639D03*
X-341203Y92599D03*
X-342663Y91139D03*
G54D114*
X-251516Y50500D03*
X-253484D03*
G54D30*
X-392558Y213284D03*
X-392560Y209976D03*
G54D132*
X-65948Y138396D03*
G54D141*
X-100039Y293033D03*
Y282167D03*
X-97480Y293033D03*
Y282167D03*
X-94920Y293033D03*
Y282167D03*
X-92361Y293033D03*
Y282167D03*
X-143033Y211547D03*
X-132167D03*
X-143033Y214106D03*
X-132167D03*
X-143033Y216666D03*
X-132167D03*
X-143033Y219225D03*
X-132167D03*
G54D150*
X-140246Y215386D03*
G54D115*
X-91200Y37573D03*
X-88973Y39800D03*
X-90086Y38686D03*
X-93427Y39800D03*
X-92314Y38686D03*
X-91200Y42027D03*
X-92314Y40914D03*
X-90086D03*
X-91200Y39800D03*
G54D124*
X-221100Y121600D03*
G36*
G01X-325535Y47147D02*
G03X-322751Y44363I1392J-1392D01*
G01X-318854Y48259D01*
G03X-318784Y48334I-1397J1388D01*
G03X-318715Y50905I-1183J1318D01*
G01X-320663Y52853D01*
G03X-323169Y50348I-1253J-1252D01*
G01X-322751Y49931D01*
X-325535Y47147D01*
G37*
G54D22*
X-294035Y176800D03*
X-290965D03*
X-342435Y159000D03*
X-339365D03*
X-342435Y155000D03*
X-339365D03*
X-307965Y159500D03*
X-311035D03*
X-300035Y254000D03*
X-296965D03*
X-300035Y250000D03*
X-296965D03*
X-202365Y12800D03*
X-205435D03*
X-14235Y152900D03*
X-11165D03*
X-157035Y30500D03*
X-153965D03*
X-157035Y26500D03*
X-153965D03*
X-211035Y146000D03*
X-207965D03*
X-229235Y36300D03*
X-226165D03*
X-221365Y104100D03*
X-224435D03*
X-221365Y99700D03*
X-224435D03*
X-213065Y87800D03*
X-216135D03*
X-201235Y51900D03*
X-198165D03*
X-129535Y237500D03*
X-126465D03*
X-89535Y180000D03*
X-86465D03*
X-95570Y155500D03*
X-92500D03*
X-53035Y143000D03*
X-49965D03*
X-55035Y131500D03*
X-51965D03*
X-79535Y153000D03*
X-76465D03*
X-228955Y180109D03*
X-225885D03*
X-80043Y260100D03*
X-83113D03*
X-115565Y273582D03*
X-118635D03*
X-79065Y217800D03*
X-82135D03*
X-65065Y214800D03*
X-68135D03*
X-74965Y109500D03*
X-78035D03*
X-120565Y292224D03*
X-123635D03*
X-149065Y214100D03*
X-152135D03*
X-236335Y180100D03*
X-233265D03*
X-228935Y175500D03*
X-225865D03*
X-35165Y153000D03*
X-38235D03*
X-159965Y34700D03*
X-163035D03*
X-217659Y310053D03*
X-220729D03*
X-217759Y282553D03*
X-220829D03*
X-146835Y347600D03*
X-143765D03*
X-171059Y341205D03*
X-174129D03*
X-226659Y327053D03*
X-229729D03*
G54D40*
X-364785Y296115D03*
X-362615Y298285D03*
X-308385Y87115D03*
X-306215Y89285D03*
X-305085Y83915D03*
X-302915Y86085D03*
X-99885Y48915D03*
X-97715Y51085D03*
X-96985Y46015D03*
X-94815Y48185D03*
G54D31*
X-381172Y213309D03*
Y210001D03*
X-250346Y54000D03*
X-253654D03*
G54D133*
X-69432Y117589D03*
Y140305D03*
X-71007Y117589D03*
X-72582D03*
X-71007Y140305D03*
X-72582D03*
X-74156Y117589D03*
Y140305D03*
X-75731Y117589D03*
X-77306D03*
X-75731Y140305D03*
X-77306D03*
X-78881Y117589D03*
X-80456D03*
X-78881Y140305D03*
X-80456D03*
X-82030Y117589D03*
Y140305D03*
X-85180Y117589D03*
X-83605D03*
Y140305D03*
X-85180D03*
G54D106*
X-20165Y163400D03*
X-59165Y203800D03*
X-114365Y282865D03*
G54D160*
X-51531Y352470D03*
X-41230Y342169D03*
G54D142*
X-96200Y290246D03*
G54D151*
X-135895Y215386D03*
G54D23*
X-283565Y176800D03*
X-286635D03*
X-337965Y150400D03*
X-341035D03*
X-337965Y145900D03*
X-341035D03*
X-369365Y269300D03*
X-372435D03*
X-335035Y229500D03*
X-331965D03*
X-316835Y209600D03*
X-313765D03*
X-355435Y227200D03*
X-352365D03*
X-335035Y226000D03*
X-331965D03*
X-301029Y207453D03*
X-297959D03*
X-187565Y12900D03*
X-190635D03*
X-198635Y12800D03*
X-195565D03*
X-157035Y18000D03*
X-153965D03*
X-145535Y9500D03*
X-142465D03*
X-34665Y166900D03*
X-37735D03*
X-226465Y145000D03*
X-229535D03*
X-214965Y141000D03*
X-218035D03*
X-225035D03*
X-221965D03*
X-238265Y36300D03*
X-241335D03*
X-218235Y99700D03*
X-215165D03*
X-218235Y104100D03*
X-215165D03*
X-223435Y87800D03*
X-220365D03*
X-206135Y117400D03*
X-203065D03*
X-211235Y103600D03*
X-208165D03*
X-256965Y147000D03*
X-260035D03*
X-107565Y273582D03*
X-110635D03*
X-61465Y263000D03*
X-64535D03*
X-144565Y229900D03*
X-147635D03*
X-146430Y90000D03*
X-149500D03*
X-74965Y105500D03*
X-78035D03*
X-94930Y99000D03*
X-98000D03*
X-56965Y147000D03*
X-60035D03*
X-142000Y160500D03*
X-145070D03*
X-94635Y211700D03*
X-91565D03*
X-94635Y215700D03*
X-91565D03*
X-121935Y237300D03*
X-118865D03*
X-123035Y216500D03*
X-119965D03*
X-143035Y181500D03*
X-139965D03*
X-67535Y111000D03*
X-64465D03*
X-59035D03*
X-55965D03*
X-60035Y143000D03*
X-56965D03*
X-142035Y90000D03*
X-138965D03*
X-137035Y165500D03*
X-133965D03*
X-79535Y149000D03*
X-76465D03*
X-79535Y145000D03*
X-76465D03*
X-196035Y67000D03*
X-192965D03*
X-206635Y67300D03*
X-203565D03*
X-157035Y22000D03*
X-153965D03*
X-144035Y39500D03*
X-140965D03*
X-233265Y175600D03*
X-236335D03*
X-196035Y71000D03*
X-192965D03*
X-164965Y41500D03*
X-168035D03*
X-228629Y289553D03*
X-225559D03*
X-242229Y275453D03*
X-239159D03*
X-218659Y329053D03*
X-221729D03*
X-218659Y324553D03*
X-221729D03*
X-229529Y316153D03*
X-226459D03*
X-221729Y333553D03*
X-218659D03*
G54D32*
X-397709Y203547D03*
X-397857Y206851D03*
G54D152*
X-143483Y199540D03*
X-128917D03*
X-96217Y170500D03*
X-110783D03*
G54D125*
X-208235Y94100D03*
X-215165D03*
X-228265D03*
X-221335D03*
X-250965Y94400D03*
X-244035D03*
X-110235Y185600D03*
X-117165D03*
X-100165Y263100D03*
X-93235D03*
G54D116*
X-239986Y157741D03*
Y162859D03*
X-248214Y157741D03*
Y160300D03*
Y162859D03*
G54D107*
X-16799Y159561D03*
Y162120D03*
Y164680D03*
X-68250Y193039D03*
Y190480D03*
Y187920D03*
X-55799Y199961D03*
Y202520D03*
Y205080D03*
X-110999Y279026D03*
Y281585D03*
Y284145D03*
G54D50*
X-302261Y198096D03*
X-298127D03*
X-302261Y203410D03*
X-298127D03*
G36*
G01X-346554Y68166D02*
G02X-349338Y70950I-1392J1392D01*
G01X-345442Y74847D01*
G02X-345367Y74917I1388J-1397D01*
G02X-342796Y74986I1318J-1183D01*
G01X-340848Y73038D01*
G02X-343353Y70532I-1252J-1253D01*
G01X-343770Y70950D01*
X-346554Y68166D01*
G37*
G54D134*
X-67857Y117589D03*
G54D161*
X-203655Y386550D03*
G54D170*
X-51948Y341752D03*
G54D41*
X-352372Y289372D03*
X-360857Y292200D03*
X-355200Y297857D03*
G54D143*
X-96200Y285895D03*
G54D162*
X-251692Y367396D03*
X-245994Y368944D03*
X-240294Y370492D03*
X-234596Y372040D03*
G54D171*
X-48538Y338341D03*
G54D135*
X-77306Y128947D03*
G54D33*
X-410682Y178287D03*
X-410518Y174983D03*
G54D51*
X-302894Y268074D03*
Y258232D03*
G54D126*
X-236000Y93035D03*
Y99965D03*
X-249800Y102135D03*
Y109065D03*
X-147000Y247365D03*
Y240435D03*
X-195500Y45965D03*
Y39035D03*
G54D144*
X-121000Y132839D03*
X-116000D03*
X-111000D03*
X-106000D03*
X-121000Y155161D03*
X-105500Y116661D03*
X-110500D03*
X-115500D03*
X-120500D03*
X-105500Y94339D03*
G54D108*
X-28906Y164680D03*
Y162120D03*
Y159561D03*
Y167239D03*
X-56143Y193039D03*
Y190480D03*
Y187920D03*
Y185361D03*
X-67906Y199961D03*
Y202520D03*
Y205080D03*
Y207639D03*
X-123106Y279026D03*
Y281585D03*
Y284145D03*
Y286704D03*
G54D117*
X-207915Y200177D03*
Y202713D03*
X-209855Y207785D03*
X-211795D03*
X-208885Y206517D03*
X-210825D03*
X-209855Y205249D03*
X-211795D03*
X-208885Y203981D03*
X-210825D03*
X-207915Y207785D03*
Y205249D03*
X-208885Y211589D03*
X-210825D03*
X-209855Y210321D03*
X-211795D03*
X-208885Y209053D03*
X-210825D03*
X-209855Y212857D03*
X-211795D03*
X-207915Y210321D03*
Y212857D03*
X-209855Y217929D03*
X-211795D03*
X-208885Y216661D03*
X-210825D03*
X-209855Y215393D03*
X-211795D03*
X-208885Y214125D03*
X-210825D03*
X-207915Y217929D03*
Y215393D03*
X-209855Y220465D03*
X-211795D03*
X-208885Y219197D03*
X-210825D03*
X-207915Y220465D03*
G54D153*
X-77350Y195800D03*
X-101168D03*
G54D15*
X-358596Y60161D03*
X-333540Y35105D03*
G54D42*
X-345102Y303102D03*
X-352898Y310898D03*
G54D24*
X-318126Y79874D03*
X-316874Y81126D03*
X-315126Y76874D03*
X-313874Y78126D03*
X-321126Y82874D03*
X-319874Y84126D03*
X-324126Y85874D03*
X-322874Y87126D03*
X-303559Y64243D03*
X-302307Y65495D03*
X-306059Y66743D03*
X-304807Y67995D03*
X-334059Y95243D03*
X-332807Y96495D03*
X-336059Y97243D03*
X-334807Y98495D03*
X-330059Y91743D03*
X-328807Y92995D03*
X-328059Y89743D03*
X-326807Y90995D03*
X-312059Y72243D03*
X-310807Y73495D03*
X-310059Y70243D03*
X-308807Y71495D03*
X-86874Y81626D03*
X-88126Y80374D03*
G54D60*
G01X-79200Y-264100D02*
X-353200D01*
G03X-358200Y-269100I0J-5000D01*
G01Y-338100D01*
G03X-353200Y-343100I4375J-625D01*
G01X16300D01*
G01X27800Y-261100D02*
X-353200D01*
G03X-361200Y-269100I-1000J-7000D01*
G01Y-341100D01*
G03X-354200Y-346100I6667J1934D01*
G01X14300D01*
G01X-70200Y-306100D02*
X-20200D01*
G01X-70200Y-264100D02*
Y-322100D01*
G01X-140200Y-288100D02*
X-20200D01*
G01X-140200Y-322100D02*
X-20200D01*
G01X-140200Y-264100D02*
Y-343100D01*
G01X-20200Y-264100D02*
Y-343100D01*
G01X15300D02*
X28000D01*
G03X32800Y-339100I32J4842D01*
G01Y-269100D01*
G03X27800Y-264100I-6500J-1500D01*
G01X15300D01*
G01X13800Y-346100D02*
X28000D01*
G03X35800Y-339100I339J7468D01*
G01Y-270100D01*
G03X27800Y-261100I-8500J500D01*
G01X15800Y-264100D02*
X-79200D01*
X-292694Y240753D03*
Y249053D03*
X-292394Y216353D03*
Y222353D03*
X-296500Y159000D03*
X-307000Y103500D03*
X-302000D03*
X-274200Y67700D03*
X-63400Y85400D03*
X-84000Y84000D03*
X-212600Y176800D03*
X-240200Y180700D03*
X-239800Y176300D03*
X-244200Y178300D03*
Y175500D03*
X-244300Y181100D03*
X-248400Y175400D03*
Y178300D03*
Y181100D03*
X-187600Y180600D03*
X-169700Y176800D03*
X-172500Y181200D03*
X-167100D03*
X-174600Y176200D03*
X-166400Y186200D03*
X-184900Y176200D03*
X-181700Y180300D03*
X-195190Y176420D03*
X-179700Y176100D03*
X-211500Y181000D03*
X-190000Y176200D03*
X-207300Y177100D03*
X-207400Y180900D03*
X-219000Y181000D03*
X-228640Y30470D03*
X-240100Y31800D03*
X-189694Y249553D03*
X-273000Y265000D03*
X-197294Y265553D03*
X-205800Y121500D03*
X-218100Y107100D03*
X-214800Y106900D03*
G54D172*
X-103885Y343076D03*
G54D16*
X-368815Y116473D03*
G54D34*
X-409311Y195184D03*
X-408703Y182600D03*
G54D70*
X-357500Y243917D03*
Y258483D03*
X-80200Y282383D03*
Y267817D03*
G54D25*
X-315026Y81506D03*
X-318506Y78026D03*
X-313494Y79974D03*
X-316974Y76494D03*
X-321026Y87506D03*
X-324506Y84026D03*
X-319494Y85974D03*
X-322974Y82494D03*
X-301927Y66843D03*
X-303459Y68375D03*
X-306939Y64895D03*
X-305407Y63363D03*
X-331927Y97843D03*
X-333459Y99375D03*
X-336939Y95895D03*
X-335407Y94363D03*
X-325927Y92343D03*
X-327459Y93875D03*
X-330939Y90395D03*
X-329407Y88863D03*
X-307927Y72843D03*
X-309459Y74375D03*
X-312939Y70895D03*
X-311407Y69363D03*
G54D61*
X-281307Y159531D03*
Y163469D03*
X-274693Y161500D03*
X-180176Y363162D03*
X-173562Y365131D03*
Y361193D03*
G54D43*
X-324815Y301215D03*
X-326985Y303385D03*
X-313285Y300885D03*
X-311115Y298715D03*
X-310285Y303885D03*
X-308115Y301715D03*
X-307185Y306985D03*
X-305015Y304815D03*
X-304185Y309985D03*
X-302015Y307815D03*
X-297985Y316085D03*
X-295815Y313915D03*
X-319485Y294785D03*
X-317315Y292615D03*
X-316485Y297785D03*
X-314315Y295615D03*
X-300985Y313085D03*
X-298815Y310915D03*
X-330185Y300285D03*
X-328015Y298115D03*
X-336285Y294185D03*
X-334115Y292015D03*
X-323985Y306285D03*
X-321815Y304115D03*
G54D136*
X-67857Y140305D03*
G54D163*
X-130566Y396333D03*
X-127434Y395267D03*
G54D145*
X-113500Y141933D03*
X-113000Y107567D03*
G54D154*
X-129200Y268950D03*
Y245132D03*
G54D109*
X-259350Y57138D03*
Y58713D03*
Y60287D03*
Y61862D03*
X-265650Y57138D03*
Y58713D03*
Y60287D03*
Y61862D03*
G54D118*
X-266516Y206839D03*
X-262616D03*
X-264566D03*
X-256766D03*
X-258716D03*
X-260666D03*
X-250916D03*
X-252866D03*
X-254816D03*
X-247016D03*
X-248966D03*
X-241166D03*
X-243116D03*
X-245066D03*
X-235316D03*
X-237266D03*
X-239216D03*
X-231416D03*
X-233366D03*
X-225566D03*
X-227516D03*
X-229466D03*
X-219716D03*
X-221666D03*
X-223616D03*
X-266516Y211239D03*
Y209039D03*
X-219716Y211239D03*
Y209039D03*
X-266516Y217839D03*
Y215639D03*
Y213439D03*
X-219716Y217839D03*
Y215639D03*
Y213439D03*
X-266516Y220039D03*
Y222239D03*
X-219716Y220039D03*
Y222239D03*
X-266516Y228839D03*
Y226639D03*
Y224439D03*
X-219716Y228839D03*
Y226639D03*
Y224439D03*
X-266516Y231039D03*
Y233239D03*
X-219716Y231039D03*
Y233239D03*
X-266516Y235439D03*
X-262616D03*
X-264566D03*
X-256766D03*
X-258716D03*
X-260666D03*
X-250916D03*
X-252866D03*
X-254816D03*
X-247016D03*
X-248966D03*
X-241166D03*
X-243116D03*
X-245066D03*
X-235316D03*
X-237266D03*
X-239216D03*
X-231416D03*
X-233366D03*
X-225566D03*
X-227516D03*
X-229466D03*
X-219716D03*
X-221666D03*
X-223616D03*
G54D52*
X-277342Y290505D03*
Y292473D03*
Y294442D03*
Y296410D03*
Y298379D03*
Y300347D03*
Y302316D03*
Y304284D03*
Y306253D03*
Y308222D03*
Y310190D03*
Y312159D03*
Y314127D03*
Y316096D03*
Y318064D03*
Y320033D03*
Y322001D03*
X-275374Y290505D03*
Y292473D03*
X-269468Y290505D03*
Y292473D03*
X-271437Y290505D03*
Y292473D03*
X-273405Y290505D03*
Y292473D03*
X-263563Y290505D03*
Y292473D03*
X-265531Y290505D03*
Y292473D03*
X-267500Y290505D03*
Y292473D03*
X-259625Y290505D03*
Y292473D03*
X-261594Y290505D03*
Y292473D03*
X-253720Y290505D03*
Y292473D03*
X-255688Y290505D03*
Y292473D03*
X-257657Y290505D03*
Y292473D03*
X-247814Y290505D03*
Y292473D03*
X-249783Y290505D03*
Y292473D03*
X-251751Y290505D03*
Y292473D03*
X-245846Y290505D03*
Y292473D03*
X-275374Y294442D03*
Y296410D03*
X-269468Y294442D03*
Y296410D03*
X-271437Y294442D03*
Y296410D03*
X-273405Y294442D03*
Y296410D03*
X-263563Y294442D03*
Y296410D03*
X-265531Y294442D03*
Y296410D03*
X-267500Y294442D03*
Y296410D03*
X-259625Y294442D03*
Y296410D03*
X-261594Y294442D03*
Y296410D03*
X-253720Y294442D03*
Y296410D03*
X-255688Y294442D03*
Y296410D03*
X-257657Y294442D03*
Y296410D03*
X-247814Y294442D03*
Y296410D03*
X-249783Y294442D03*
Y296410D03*
X-251751Y294442D03*
Y296410D03*
X-245846Y294442D03*
Y296410D03*
X-275374Y298379D03*
Y300347D03*
Y302316D03*
X-269468Y298379D03*
Y300347D03*
Y302316D03*
X-271437Y298379D03*
Y300347D03*
Y302316D03*
X-273405Y298379D03*
Y300347D03*
Y302316D03*
X-263563Y298379D03*
X-265531D03*
X-267500D03*
Y300347D03*
Y302316D03*
X-259625Y298379D03*
X-261594D03*
X-253720D03*
Y300347D03*
Y302316D03*
X-255688Y298379D03*
X-257657D03*
X-247814D03*
Y300347D03*
Y302316D03*
X-249783Y298379D03*
Y300347D03*
Y302316D03*
X-251751Y298379D03*
Y300347D03*
Y302316D03*
X-245846Y298379D03*
Y300347D03*
Y302316D03*
X-275374Y304284D03*
Y306253D03*
Y308222D03*
X-269468Y304284D03*
Y306253D03*
Y308222D03*
X-271437Y304284D03*
Y306253D03*
Y308222D03*
X-273405Y304284D03*
Y306253D03*
Y308222D03*
X-267500Y304284D03*
Y306253D03*
Y308222D03*
X-253720Y304284D03*
Y306253D03*
Y308222D03*
X-247814Y304284D03*
Y306253D03*
Y308222D03*
X-249783Y304284D03*
Y306253D03*
Y308222D03*
X-251751Y304284D03*
Y306253D03*
Y308222D03*
X-245846Y304284D03*
Y306253D03*
Y308222D03*
X-275374Y310190D03*
Y312159D03*
Y314127D03*
X-269468Y310190D03*
Y312159D03*
Y314127D03*
X-271437Y310190D03*
Y312159D03*
Y314127D03*
X-273405Y310190D03*
Y312159D03*
Y314127D03*
X-263563Y312159D03*
Y314127D03*
X-265531Y312159D03*
Y314127D03*
X-267500Y310190D03*
Y312159D03*
Y314127D03*
X-259625Y312159D03*
Y314127D03*
X-261594Y312159D03*
Y314127D03*
X-253720Y310190D03*
Y312159D03*
Y314127D03*
X-255688Y312159D03*
Y314127D03*
X-257657Y312159D03*
Y314127D03*
X-247814Y310190D03*
Y312159D03*
Y314127D03*
X-249783Y310190D03*
Y312159D03*
Y314127D03*
X-251751Y310190D03*
Y312159D03*
Y314127D03*
X-245846Y310190D03*
Y312159D03*
Y314127D03*
X-171046Y292273D03*
X-173014D03*
X-171046Y290305D03*
X-173014D03*
X-171046Y298179D03*
X-173014D03*
X-171046Y296210D03*
X-173014D03*
X-171046Y294242D03*
X-173014D03*
X-171046Y304084D03*
X-173014D03*
X-171046Y302116D03*
X-173014D03*
X-171046Y300147D03*
X-173014D03*
X-171046Y308022D03*
X-173014D03*
X-171046Y306053D03*
X-173014D03*
X-171046Y313927D03*
X-173014D03*
X-171046Y311959D03*
X-173014D03*
X-171046Y309990D03*
X-173014D03*
X-174983Y292273D03*
X-176951D03*
X-174983Y290305D03*
X-176951D03*
X-174983Y298179D03*
X-176951D03*
X-174983Y296210D03*
X-176951D03*
X-174983Y294242D03*
X-176951D03*
X-174983Y304084D03*
X-176951D03*
X-174983Y302116D03*
X-176951D03*
X-174983Y300147D03*
X-176951D03*
X-174983Y308022D03*
X-176951D03*
X-174983Y306053D03*
X-176951D03*
X-174983Y313927D03*
X-176951D03*
X-174983Y311959D03*
X-176951D03*
X-174983Y309990D03*
X-176951D03*
X-178920Y292273D03*
X-180888D03*
X-182857D03*
X-178920Y290305D03*
X-180888D03*
X-182857D03*
X-178920Y298179D03*
X-180888D03*
X-182857D03*
X-178920Y296210D03*
X-180888D03*
X-182857D03*
X-178920Y294242D03*
X-180888D03*
X-182857D03*
X-178920Y304084D03*
Y302116D03*
Y300147D03*
X-180888D03*
X-182857D03*
X-178920Y308022D03*
Y306053D03*
Y313927D03*
X-180888D03*
X-182857D03*
X-178920Y311959D03*
Y309990D03*
X-184825Y292273D03*
X-186794D03*
X-188763D03*
X-184825Y290305D03*
X-186794D03*
X-188763D03*
X-184825Y298179D03*
X-186794D03*
X-188763D03*
X-184825Y296210D03*
X-186794D03*
X-188763D03*
X-184825Y294242D03*
X-186794D03*
X-188763D03*
X-184825Y300147D03*
X-186794D03*
X-188763D03*
X-184825Y313927D03*
X-186794D03*
X-188763D03*
X-190731Y292273D03*
X-192700D03*
X-194668D03*
X-190731Y290305D03*
X-192700D03*
X-194668D03*
X-190731Y298179D03*
X-192700D03*
X-194668D03*
X-190731Y296210D03*
X-192700D03*
X-194668D03*
X-190731Y294242D03*
X-192700D03*
X-194668D03*
X-192700Y304084D03*
X-194668D03*
X-192700Y302116D03*
X-194668D03*
X-190731Y300147D03*
X-192700D03*
X-194668D03*
X-192700Y308022D03*
X-194668D03*
X-192700Y306053D03*
X-194668D03*
X-190731Y313927D03*
X-192700D03*
X-194668D03*
X-192700Y311959D03*
X-194668D03*
X-192700Y309990D03*
X-194668D03*
X-196637Y292273D03*
X-198605D03*
X-196637Y290305D03*
X-198605D03*
X-196637Y298179D03*
X-198605D03*
X-196637Y296210D03*
X-198605D03*
X-196637Y294242D03*
X-198605D03*
X-196637Y304084D03*
X-198605D03*
X-196637Y302116D03*
X-198605D03*
X-196637Y300147D03*
X-198605D03*
X-196637Y308022D03*
X-198605D03*
X-196637Y306053D03*
X-198605D03*
X-196637Y313927D03*
X-198605D03*
X-196637Y311959D03*
X-198605D03*
X-196637Y309990D03*
X-198605D03*
X-200574Y292273D03*
X-202542D03*
X-200574Y290305D03*
X-202542D03*
X-200574Y298179D03*
X-202542D03*
X-200574Y296210D03*
X-202542D03*
X-200574Y294242D03*
X-202542D03*
X-200574Y304084D03*
X-202542D03*
X-200574Y302116D03*
X-202542D03*
X-200574Y300147D03*
X-202542D03*
X-200574Y308022D03*
X-202542D03*
X-200574Y306053D03*
X-202542D03*
X-200574Y313927D03*
X-202542D03*
X-200574Y311959D03*
X-202542D03*
X-200574Y309990D03*
X-202542D03*
X-275374Y316096D03*
Y318064D03*
X-269468Y316096D03*
Y318064D03*
X-271437Y316096D03*
Y318064D03*
X-273405Y316096D03*
Y318064D03*
X-263563Y316096D03*
Y318064D03*
X-265531Y316096D03*
Y318064D03*
X-267500Y316096D03*
Y318064D03*
X-259625Y316096D03*
Y318064D03*
X-261594Y316096D03*
Y318064D03*
X-253720Y316096D03*
Y318064D03*
X-255688Y316096D03*
Y318064D03*
X-257657Y316096D03*
Y318064D03*
X-247814Y316096D03*
Y318064D03*
X-249783Y316096D03*
Y318064D03*
X-251751Y316096D03*
Y318064D03*
X-245846Y316096D03*
Y318064D03*
X-275374Y320033D03*
Y322001D03*
X-269468Y320033D03*
Y322001D03*
X-271437Y320033D03*
Y322001D03*
X-273405Y320033D03*
Y322001D03*
X-263563Y320033D03*
Y322001D03*
X-265531Y320033D03*
Y322001D03*
X-267500Y320033D03*
Y322001D03*
X-259625Y320033D03*
Y322001D03*
X-261594Y320033D03*
Y322001D03*
X-253720Y320033D03*
Y322001D03*
X-255688Y320033D03*
Y322001D03*
X-257657Y320033D03*
Y322001D03*
X-247814Y320033D03*
Y322001D03*
X-249783Y320033D03*
Y322001D03*
X-251751Y320033D03*
Y322001D03*
X-245846Y320033D03*
Y322001D03*
X-171046Y319833D03*
X-173014D03*
X-171046Y317864D03*
X-173014D03*
X-171046Y315896D03*
X-173014D03*
X-171046Y321801D03*
X-173014D03*
X-174983Y319833D03*
X-176951D03*
X-174983Y317864D03*
X-176951D03*
X-174983Y315896D03*
X-176951D03*
X-174983Y321801D03*
X-176951D03*
X-178920Y319833D03*
X-180888D03*
X-182857D03*
X-178920Y317864D03*
X-180888D03*
X-182857D03*
X-178920Y315896D03*
X-180888D03*
X-182857D03*
X-178920Y321801D03*
X-180888D03*
X-182857D03*
X-184825Y319833D03*
X-186794D03*
X-188763D03*
X-184825Y317864D03*
X-186794D03*
X-188763D03*
X-184825Y315896D03*
X-186794D03*
X-188763D03*
X-184825Y321801D03*
X-186794D03*
X-188763D03*
X-190731Y319833D03*
X-192700D03*
X-194668D03*
X-190731Y317864D03*
X-192700D03*
X-194668D03*
X-190731Y315896D03*
X-192700D03*
X-194668D03*
X-190731Y321801D03*
X-192700D03*
X-194668D03*
X-196637Y319833D03*
X-198605D03*
X-196637Y317864D03*
X-198605D03*
X-196637Y315896D03*
X-198605D03*
X-196637Y321801D03*
X-198605D03*
X-200574Y319833D03*
X-202542D03*
X-200574Y317864D03*
X-202542D03*
X-200574Y315896D03*
X-202542D03*
X-200574Y321801D03*
X-202542D03*
G54D127*
X-79730Y64730D03*
X-78270Y63270D03*
X-89030Y55430D03*
X-87570Y53970D03*
X-91730Y52730D03*
X-90270Y51270D03*
X-76730Y67730D03*
X-75270Y66270D03*
X-85730Y58730D03*
X-84270Y57270D03*
X-82730Y61730D03*
X-81270Y60270D03*
X-70730Y73730D03*
X-69270Y72270D03*
X-73730Y70730D03*
X-72270Y69270D03*
X-65130Y79230D03*
X-63670Y77770D03*
X-68013Y76426D03*
X-66553Y74966D03*
G54D26*
X-388514Y213367D03*
X-385206Y213369D03*
G54D17*
X-393957Y264719D03*
X-268149Y958D03*
X-958Y125551D03*
X-98982Y380914D03*
G54D53*
X-302441Y187614D03*
X-307559D03*
X-302441Y179386D03*
X-305000D03*
X-307559D03*
G54D173*
X-169330Y358213D03*
X-164408Y352111D03*
X-169330D03*
G54D62*
X-293500Y102307D03*
X-291531Y95693D03*
X-295469D03*
G54D44*
X-333285Y297185D03*
X-331115Y295015D03*
X-294585Y365085D03*
X-292415Y362915D03*
X-102985Y38985D03*
X-100815Y36815D03*
X-102685Y44985D03*
X-100515Y42815D03*
G54D35*
X-372071Y144949D03*
G54D137*
X-86755Y117589D03*
G54D164*
X-128441Y373557D03*
X-129559Y370443D03*
G54D80*
X-98060Y11047D03*
G54D155*
X-128862Y143606D03*
X-151244D03*
X-128462Y107306D03*
X-150844D03*
G54D119*
G01X-12200Y-316200D02*
Y-296200D01*
X-14600Y-300200D01*
G01Y-316200D02*
X-9800D01*
G01X-4000Y-307867D02*
X-2600Y-305533D01*
X-1400Y-304200D01*
X200Y-303534D01*
X1600Y-304200D01*
X2600Y-305533D01*
X3400Y-307533D01*
X3600Y-309867D01*
X3400Y-311867D01*
X2600Y-313867D01*
X1400Y-315533D01*
X0Y-316200D01*
X-1600Y-315533D01*
X-3000Y-313534D01*
X-3800Y-310533D01*
X-4000Y-307200D01*
X-3600Y-302867D01*
X-3000Y-300533D01*
X-2000Y-298200D01*
X-600Y-296533D01*
X800Y-296200D01*
X2200Y-296867D01*
X3200Y-298533D01*
G01X11800Y-316867D02*
X11400Y-316533D01*
Y-315867D01*
X11800Y-315533D01*
X12200Y-315867D01*
Y-316533D01*
X11800Y-316867D01*
G01X19400Y-313201D02*
X20600Y-314867D01*
X22000Y-315867D01*
X23800Y-316200D01*
X25600Y-315533D01*
X27000Y-314200D01*
X28000Y-311867D01*
X28200Y-309200D01*
X27800Y-306534D01*
X26800Y-304867D01*
X25400Y-303534D01*
X24000Y-303200D01*
X22600Y-303534D01*
X20800Y-304867D01*
X21400Y-296200D01*
X26800D01*
X-262616Y211239D03*
X-264566D03*
X-262616Y209039D03*
X-264566D03*
X-256766Y211239D03*
X-258716D03*
X-260666D03*
X-256766Y209039D03*
X-258716D03*
X-260666D03*
X-250916Y211239D03*
Y209039D03*
X-252866Y211239D03*
X-254816D03*
X-252866Y209039D03*
X-254816D03*
X-247016Y211239D03*
X-248966D03*
X-247016Y209039D03*
X-248966D03*
X-241166Y211239D03*
Y209039D03*
X-243116Y211239D03*
X-245066D03*
X-243116Y209039D03*
X-245066D03*
X-235316Y211239D03*
X-237266D03*
X-239216D03*
X-235316Y209039D03*
X-237266D03*
X-239216D03*
X-231416Y211239D03*
Y209039D03*
X-233366Y211239D03*
Y209039D03*
X-225566Y211239D03*
X-227516D03*
X-229466D03*
X-225566Y209039D03*
X-227516D03*
X-229466D03*
X-221666Y211239D03*
Y209039D03*
X-223616Y211239D03*
Y209039D03*
X-262616Y217839D03*
X-264566D03*
X-262616Y215639D03*
X-264566D03*
X-262616Y213439D03*
X-264566D03*
X-256766Y217839D03*
X-258716D03*
X-260666D03*
X-256766Y215639D03*
X-258716D03*
X-260666D03*
X-256766Y213439D03*
X-258716D03*
X-260666D03*
X-250916Y217839D03*
Y215639D03*
X-252866Y217839D03*
X-254816D03*
X-252866Y215639D03*
X-254816D03*
X-250916Y213439D03*
X-252866D03*
X-254816D03*
X-247016Y217839D03*
X-248966D03*
X-247016Y215639D03*
X-248966D03*
X-247016Y213439D03*
X-248966D03*
X-241166Y217839D03*
Y215639D03*
X-243116Y217839D03*
X-245066D03*
X-243116Y215639D03*
X-245066D03*
X-241166Y213439D03*
X-243116D03*
X-245066D03*
X-235316Y217839D03*
X-237266D03*
X-239216D03*
X-235316Y215639D03*
X-237266D03*
X-239216D03*
X-235316Y213439D03*
X-237266D03*
X-239216D03*
X-231416Y217839D03*
Y215639D03*
X-233366Y217839D03*
Y215639D03*
X-231416Y213439D03*
X-233366D03*
X-225566Y217839D03*
X-227516D03*
X-229466D03*
X-225566Y215639D03*
X-227516D03*
X-229466D03*
X-225566Y213439D03*
X-227516D03*
X-229466D03*
X-221666Y217839D03*
Y215639D03*
X-223616Y217839D03*
Y215639D03*
X-221666Y213439D03*
X-223616D03*
X-262616Y220039D03*
X-264566D03*
X-262616Y222239D03*
X-264566D03*
X-256766Y220039D03*
X-258716D03*
X-260666D03*
X-256766Y222239D03*
X-258716D03*
X-260666D03*
X-250916Y220039D03*
Y222239D03*
X-252866Y220039D03*
X-254816D03*
X-252866Y222239D03*
X-254816D03*
X-247016Y220039D03*
X-248966D03*
X-247016Y222239D03*
X-248966D03*
X-241166Y220039D03*
Y222239D03*
X-243116Y220039D03*
X-245066D03*
X-243116Y222239D03*
X-245066D03*
X-235316Y220039D03*
X-237266D03*
X-239216D03*
X-235316Y222239D03*
X-237266D03*
X-239216D03*
X-231416Y220039D03*
Y222239D03*
X-233366Y220039D03*
Y222239D03*
X-225566Y220039D03*
X-227516D03*
X-229466D03*
X-225566Y222239D03*
X-227516D03*
X-229466D03*
X-221666Y220039D03*
Y222239D03*
X-223616Y220039D03*
Y222239D03*
X-262616Y228839D03*
X-264566D03*
X-262616Y226639D03*
X-264566D03*
X-262616Y224439D03*
X-264566D03*
X-256766Y228839D03*
X-258716D03*
X-260666D03*
X-256766Y226639D03*
X-258716D03*
X-260666D03*
X-256766Y224439D03*
X-258716D03*
X-260666D03*
X-250916Y228839D03*
Y226639D03*
Y224439D03*
X-252866Y228839D03*
X-254816D03*
X-252866Y226639D03*
X-254816D03*
X-252866Y224439D03*
X-254816D03*
X-247016Y228839D03*
X-248966D03*
X-247016Y226639D03*
X-248966D03*
X-247016Y224439D03*
X-248966D03*
X-241166Y228839D03*
Y226639D03*
Y224439D03*
X-243116Y228839D03*
X-245066D03*
X-243116Y226639D03*
X-245066D03*
X-243116Y224439D03*
X-245066D03*
X-235316Y228839D03*
X-237266D03*
X-239216D03*
X-235316Y226639D03*
X-237266D03*
X-239216D03*
X-235316Y224439D03*
X-237266D03*
X-239216D03*
X-231416Y228839D03*
Y226639D03*
Y224439D03*
X-233366Y228839D03*
Y226639D03*
Y224439D03*
X-225566Y228839D03*
X-227516D03*
X-229466D03*
X-225566Y226639D03*
X-227516D03*
X-229466D03*
X-225566Y224439D03*
X-227516D03*
X-229466D03*
X-221666Y228839D03*
Y226639D03*
Y224439D03*
X-223616Y228839D03*
Y226639D03*
Y224439D03*
X-262616Y231039D03*
X-264566D03*
X-262616Y233239D03*
X-264566D03*
X-256766Y231039D03*
X-258716D03*
X-260666D03*
X-256766Y233239D03*
X-258716D03*
X-260666D03*
X-250916Y231039D03*
Y233239D03*
X-252866Y231039D03*
X-254816D03*
X-252866Y233239D03*
X-254816D03*
X-247016Y231039D03*
X-248966D03*
X-247016Y233239D03*
X-248966D03*
X-241166Y231039D03*
Y233239D03*
X-243116Y231039D03*
X-245066D03*
X-243116Y233239D03*
X-245066D03*
X-235316Y231039D03*
X-237266D03*
X-239216D03*
X-235316Y233239D03*
X-237266D03*
X-239216D03*
X-231416Y231039D03*
Y233239D03*
X-233366Y231039D03*
Y233239D03*
X-225566Y231039D03*
X-227516D03*
X-229466D03*
X-225566Y233239D03*
X-227516D03*
X-229466D03*
X-221666Y231039D03*
Y233239D03*
X-223616Y231039D03*
Y233239D03*
G54D146*
X-113047Y152583D03*
G54D128*
X-91974Y69006D03*
X-93506Y67474D03*
X-90026Y63994D03*
X-88494Y65526D03*
X-79974Y81506D03*
X-81506Y79974D03*
X-78026Y76494D03*
X-76494Y78026D03*
X-73285Y85726D03*
X-74817Y84194D03*
X-71337Y80714D03*
X-69805Y82246D03*
X-97974Y63006D03*
X-99506Y61474D03*
X-96026Y57994D03*
X-94494Y59526D03*
X-85974Y75506D03*
X-87506Y73974D03*
X-84026Y70494D03*
X-82494Y72026D03*
G54D71*
X-333122Y48052D03*
X-331729Y46660D03*
X-326997Y51393D03*
X-334513Y49444D03*
X-328389Y52785D03*
X-329781Y54176D03*
X-337297Y52228D03*
X-335906Y50836D03*
X-331173Y55569D03*
X-332565Y56960D03*
X-340081Y55012D03*
X-338689Y53620D03*
X-333957Y58353D03*
X-335348Y59744D03*
X-342865Y57795D03*
X-341473Y56404D03*
X-336741Y61136D03*
X-338132Y62528D03*
X-339525Y63920D03*
X-345649Y60579D03*
X-344257Y59188D03*
X-340916Y65312D03*
X-342308Y66704D03*
X-347041Y61972D03*
G54D54*
X-278464Y196691D03*
X-280154Y196891D03*
X-278464Y195001D03*
X-278114Y201444D03*
X-280154D03*
X-277144Y200176D03*
X-279084D03*
X-278464Y198381D03*
X-280154Y198681D03*
X-277144Y207784D03*
X-279084D03*
X-278114Y206517D03*
X-280154D03*
X-277144Y205248D03*
X-279084D03*
X-278114Y203980D03*
X-280154D03*
X-277144Y202712D03*
X-279084D03*
X-278114Y211589D03*
X-280154D03*
X-277144Y210320D03*
X-279084D03*
X-278114Y209052D03*
X-280154D03*
X-277144Y212856D03*
X-279084D03*
X-277144Y217928D03*
X-279084D03*
X-278114Y216660D03*
X-280154D03*
X-277144Y215393D03*
X-279084D03*
X-278114Y214124D03*
X-280154D03*
X-277144Y220465D03*
X-279084D03*
X-278114Y219196D03*
X-280154D03*
X-277144Y223000D03*
X-279084D03*
X-278114Y221732D03*
X-280154D03*
X-277144Y228071D03*
X-279084D03*
X-278114Y226803D03*
X-280154D03*
X-277144Y225535D03*
X-279084D03*
X-278114Y224267D03*
X-280154D03*
X-277144Y230607D03*
X-279084D03*
X-278114Y229339D03*
X-280154D03*
X-277144Y233143D03*
X-279084D03*
X-278114Y231875D03*
X-280154D03*
X-277144Y238215D03*
X-279084D03*
X-278114Y236947D03*
X-280154D03*
X-277144Y235679D03*
X-279084D03*
X-278114Y234411D03*
X-280154D03*
X-278114Y244555D03*
X-280154D03*
X-277144Y240751D03*
X-279084D03*
X-278114Y239483D03*
X-280154D03*
X-277144Y243287D03*
X-279084D03*
X-278114Y242019D03*
X-280154D03*
X-278464Y249308D03*
X-280154Y249108D03*
X-278464Y247618D03*
X-280154Y247318D03*
X-277144Y245823D03*
X-279084D03*
X-278464Y250998D03*
X-280154Y250898D03*
X-278364Y252688D03*
X-280154D03*
X-273394Y196691D03*
X-275084D03*
X-276774D03*
X-273394Y195001D03*
X-275084D03*
X-276774D03*
X-272663Y193311D03*
X-274784D03*
X-276574D03*
X-267591Y197291D03*
X-270127D03*
X-268859Y196321D03*
X-271395D03*
X-267591Y195352D03*
X-270127D03*
X-268859Y194381D03*
X-271395D03*
X-267591Y193311D03*
X-270127D03*
X-261251Y196321D03*
Y194381D03*
X-262519Y197291D03*
X-265055D03*
X-263787Y196321D03*
X-266323D03*
X-262519Y195352D03*
X-265055D03*
X-263787Y194381D03*
X-266323D03*
X-262519Y193311D03*
X-265055D03*
X-257447Y197291D03*
X-259983D03*
X-256179Y196321D03*
X-258715D03*
X-257447Y195352D03*
X-259983D03*
X-256179Y194381D03*
X-258715D03*
X-257447Y193311D03*
X-259983D03*
X-251107Y196321D03*
Y194381D03*
X-252375Y197291D03*
X-254911D03*
X-253643Y196321D03*
X-252375Y195352D03*
X-254911D03*
X-253643Y194381D03*
X-252375Y193311D03*
X-254911D03*
X-247303Y197291D03*
X-249839D03*
X-246035Y196321D03*
X-248571D03*
X-247303Y195352D03*
X-249839D03*
X-246035Y194381D03*
X-248571D03*
X-247303Y193311D03*
X-249839D03*
X-240964Y196322D03*
Y194382D03*
X-242232Y197292D03*
X-244767Y197291D03*
X-243500Y196322D03*
X-242232Y195352D03*
X-244767D03*
X-243500Y194382D03*
X-242232Y193312D03*
X-244767Y193311D03*
X-237160Y197292D03*
X-239696D03*
X-235892Y196322D03*
X-238428D03*
X-237160Y195352D03*
X-239696D03*
X-235892Y194382D03*
X-238428D03*
X-237160Y193312D03*
X-239696D03*
X-232088Y197292D03*
X-230820Y196322D03*
X-232088Y195352D03*
X-230820Y194382D03*
X-234624Y197292D03*
X-233356Y196322D03*
X-234624Y195352D03*
X-233356Y194382D03*
X-232088Y193312D03*
X-234624D03*
X-227016Y197292D03*
X-229552D03*
X-225748Y196322D03*
X-228284D03*
X-227016Y195352D03*
X-229552D03*
X-225748Y194382D03*
X-228284D03*
X-227016Y193312D03*
X-229552D03*
X-219408Y197292D03*
X-221944D03*
X-220676Y196322D03*
X-219408Y195352D03*
X-221944D03*
X-220676Y194382D03*
X-224480Y197292D03*
X-223212Y196322D03*
X-224480Y195352D03*
X-223212Y194382D03*
X-219408Y193312D03*
X-221944D03*
X-224480D03*
X-216872Y197292D03*
X-215354Y196672D03*
X-218140Y196322D03*
X-214354Y195352D03*
X-216872D03*
X-215604Y194382D03*
X-218140D03*
X-214336Y193312D03*
X-216872D03*
X-210225Y196692D03*
X-211570Y195764D03*
X-210115Y195002D03*
X-213088Y196402D03*
X-212880Y194741D03*
X-210425Y193312D03*
X-212189D03*
X-206845Y196892D03*
X-208535Y196692D03*
X-206845Y195102D03*
X-208535Y195002D03*
X-206845Y193312D03*
X-208635D03*
X-272294Y201444D03*
X-274234D03*
X-276174D03*
X-273264Y200176D03*
X-275204D03*
X-273394Y198381D03*
X-275084D03*
X-276774D03*
X-267591Y201171D03*
X-270127D03*
X-268859Y200201D03*
X-271729Y199810D03*
X-267591Y199231D03*
X-270127D03*
X-268859Y198261D03*
X-271395D03*
X-271324Y202712D03*
X-268859Y202141D03*
X-261251Y200201D03*
Y198261D03*
Y202141D03*
X-262519Y201171D03*
X-265055D03*
X-263787Y200201D03*
X-266323D03*
X-262519Y199231D03*
X-265055D03*
X-263787Y198261D03*
X-266323D03*
X-263787Y202141D03*
X-266323D03*
X-257447Y201171D03*
X-259983D03*
X-256179Y200201D03*
X-258715D03*
X-257447Y199231D03*
X-259983D03*
X-256179Y198261D03*
X-258715D03*
X-256179Y202141D03*
X-258715D03*
X-251107Y200201D03*
Y198261D03*
Y202141D03*
X-252375Y201171D03*
X-254911D03*
X-253643Y200201D03*
X-252375Y199231D03*
X-254911D03*
X-253643Y198261D03*
Y202141D03*
X-247303Y201171D03*
X-249839D03*
X-246035Y200201D03*
X-248571D03*
X-247303Y199231D03*
X-249839D03*
X-246035Y198261D03*
X-248571D03*
X-246035Y202141D03*
X-248571D03*
X-240964Y200202D03*
Y198262D03*
Y202142D03*
X-242232Y201172D03*
X-244767Y201171D03*
X-243500Y200202D03*
X-242232Y199232D03*
X-244767Y199231D03*
X-243500Y198262D03*
Y202142D03*
X-237160Y201172D03*
X-239696D03*
X-235892Y200202D03*
X-238428D03*
X-237160Y199232D03*
X-239696D03*
X-235892Y198262D03*
X-238428D03*
X-235892Y202142D03*
X-238428D03*
X-232088Y201172D03*
X-230820Y200202D03*
X-232088Y199232D03*
X-230820Y198262D03*
Y202142D03*
X-234624Y201172D03*
X-233356Y200202D03*
X-234624Y199232D03*
X-233356Y198262D03*
Y202142D03*
X-227016Y201172D03*
X-229552D03*
X-225748Y200202D03*
X-228284D03*
X-227016Y199232D03*
X-229552D03*
X-225748Y198262D03*
X-228284D03*
X-225748Y202142D03*
X-228284D03*
X-219408Y201172D03*
X-221944D03*
X-220676Y200202D03*
X-219408Y199232D03*
X-221944D03*
X-220676Y198262D03*
Y202142D03*
X-224480Y201172D03*
X-223212Y200202D03*
X-224480Y199232D03*
X-223212Y198262D03*
Y202142D03*
X-214336Y201172D03*
X-216872D03*
X-215604Y200232D03*
X-218140Y200202D03*
X-214296Y199337D03*
X-216872Y199232D03*
X-215604Y198262D03*
X-218140D03*
X-215604Y202142D03*
X-218140D03*
X-208885Y201445D03*
X-210825D03*
X-209855Y200177D03*
X-211489Y200012D03*
X-210125Y198382D03*
X-211654Y197752D03*
X-209855Y202713D03*
X-211795D03*
X-212768Y200932D03*
X-212718Y199002D03*
X-213936Y197792D03*
X-213340Y202401D03*
X-206845Y201445D03*
Y198706D03*
X-208535Y198382D03*
X-273264Y207784D03*
X-275204D03*
X-272294Y206517D03*
X-274234D03*
X-276174D03*
X-273264Y205248D03*
X-275204D03*
X-272294Y203980D03*
X-274234D03*
X-276174D03*
X-273264Y202712D03*
X-275204D03*
X-269384Y207784D03*
X-271324D03*
X-268414Y206536D03*
X-270354Y206517D03*
X-267591Y205052D03*
X-269384Y205248D03*
X-271324D03*
X-270354Y203980D03*
X-267591Y203111D03*
X-262519Y205052D03*
X-265055D03*
X-261251Y204081D03*
X-263787D03*
X-266323D03*
X-262519Y203111D03*
X-265055D03*
X-257447Y205052D03*
X-259983D03*
X-256179Y204081D03*
X-258715D03*
X-257447Y203111D03*
X-259983D03*
X-252375Y205052D03*
X-254911D03*
X-251107Y204081D03*
X-253643D03*
X-252375Y203111D03*
X-254911D03*
X-247303Y205052D03*
X-249839D03*
X-246035Y204081D03*
X-248571D03*
X-247303Y203111D03*
X-249839D03*
X-242232Y205052D03*
X-244767D03*
X-240964Y204082D03*
X-243500D03*
X-242232Y203112D03*
X-244767Y203111D03*
X-237160Y205052D03*
X-239696D03*
X-235892Y204082D03*
X-238428D03*
X-237160Y203112D03*
X-239696D03*
X-232088Y205052D03*
X-234624D03*
X-230820Y204082D03*
X-232088Y203112D03*
X-233356Y204082D03*
X-234624Y203112D03*
X-227016Y205052D03*
X-229552D03*
X-225748Y204082D03*
X-228284D03*
X-227016Y203112D03*
X-229552D03*
X-219408Y205052D03*
X-221944D03*
X-224480D03*
X-220676Y204082D03*
X-219408Y203112D03*
X-221944D03*
X-223212Y204082D03*
X-224480Y203112D03*
X-215675Y207785D03*
X-217615D03*
X-214705Y206517D03*
X-216645D03*
X-218210Y206161D03*
X-215245Y204791D03*
X-216817Y204942D03*
X-214595Y203356D03*
X-218140Y204082D03*
X-216872Y203112D03*
X-213735Y207785D03*
X-212765Y206517D03*
X-213735Y205249D03*
X-212765Y203981D03*
X-206845Y206517D03*
Y203981D03*
X-272294Y211589D03*
X-274234D03*
X-276174D03*
X-273264Y210320D03*
X-275204D03*
X-272294Y209052D03*
X-274234D03*
X-276174D03*
X-273264Y212856D03*
X-275204D03*
X-268414Y211608D03*
X-270354Y211589D03*
X-269384Y210320D03*
X-271324D03*
X-268414Y209072D03*
X-270354Y209052D03*
X-269384Y212856D03*
X-271324D03*
X-214705Y211589D03*
X-216645D03*
X-215675Y210321D03*
X-217615D03*
X-214705Y209053D03*
X-216645D03*
X-215675Y212857D03*
X-217615D03*
X-212765Y211589D03*
X-213735Y210321D03*
X-212765Y209053D03*
X-213735Y212857D03*
X-206845Y211589D03*
Y209053D03*
X-273264Y217928D03*
X-275204D03*
X-272294Y216660D03*
X-274234D03*
X-276174D03*
X-273264Y215393D03*
X-275204D03*
X-272294Y214124D03*
X-274234D03*
X-276174D03*
X-269384Y217928D03*
X-271324D03*
X-268414Y216680D03*
X-270354Y216660D03*
X-269384Y215393D03*
X-271324D03*
X-268414Y214144D03*
X-270354Y214124D03*
X-215675Y217929D03*
X-217615D03*
X-214705Y216661D03*
X-216645D03*
X-215675Y215393D03*
X-217615D03*
X-214705Y214125D03*
X-216645D03*
X-213735Y217929D03*
X-212765Y216661D03*
X-213735Y215393D03*
X-212765Y214125D03*
X-206845Y216661D03*
Y214125D03*
X-273264Y220465D03*
X-275204D03*
X-272294Y219196D03*
X-274234D03*
X-276174D03*
X-273264Y223000D03*
X-275204D03*
X-272294Y221732D03*
X-274234D03*
X-276174D03*
X-269384Y220465D03*
X-271324D03*
X-268414Y219217D03*
X-270354Y219196D03*
X-269384Y223000D03*
X-271324D03*
X-268414Y221752D03*
X-270354Y221732D03*
X-215675Y220465D03*
X-217615D03*
X-214705Y219197D03*
X-216645D03*
X-215675Y223000D03*
X-217615D03*
X-214705Y221733D03*
X-216645D03*
X-209855Y223000D03*
X-211795D03*
X-208885Y221733D03*
X-210825D03*
X-213735Y220465D03*
X-212765Y219197D03*
X-213735Y223000D03*
X-212765Y221733D03*
X-206845Y219197D03*
X-207915Y223000D03*
X-206845Y221733D03*
X-273264Y228071D03*
X-275204D03*
X-272294Y226803D03*
X-274234D03*
X-276174D03*
X-273264Y225535D03*
X-275204D03*
X-272294Y224267D03*
X-274234D03*
X-276174D03*
X-269384Y228071D03*
X-271324D03*
X-268414Y226823D03*
X-270354Y226803D03*
X-269384Y225535D03*
X-271324D03*
X-268414Y224287D03*
X-270354Y224267D03*
X-215675Y228072D03*
X-217615D03*
X-214706Y226804D03*
X-216645D03*
X-215675Y225535D03*
X-217615D03*
X-214706Y224268D03*
X-216645D03*
X-209856Y228072D03*
X-211795D03*
X-208885Y226804D03*
X-210826D03*
X-209856Y225535D03*
X-211795D03*
X-213735Y228072D03*
X-212765Y226804D03*
X-213735Y225535D03*
X-208885Y224268D03*
X-210826D03*
X-212765D03*
X-207915Y228072D03*
X-206845Y226804D03*
X-207915Y225535D03*
X-206845Y224268D03*
X-273264Y230607D03*
X-275204D03*
X-272294Y229339D03*
X-274234D03*
X-276174D03*
X-273264Y233143D03*
X-275204D03*
X-272294Y231875D03*
X-274234D03*
X-276174D03*
X-268414Y234431D03*
X-270354Y234411D03*
X-269384Y230607D03*
X-271324D03*
X-268414Y229359D03*
X-270354Y229339D03*
X-269384Y233143D03*
X-271324D03*
X-268414Y231895D03*
X-270354Y231875D03*
X-214706Y234411D03*
X-216645D03*
X-215675Y230607D03*
X-217615D03*
X-214706Y229340D03*
X-216645D03*
X-215675Y233144D03*
X-217615D03*
X-214706Y231876D03*
X-216645D03*
X-210826Y234411D03*
X-212765D03*
X-209856Y230607D03*
X-211795D03*
X-208885Y229340D03*
X-210826D03*
X-209856Y233144D03*
X-211795D03*
X-208885Y231876D03*
X-210826D03*
X-213735Y230607D03*
X-212765Y229340D03*
X-213735Y233144D03*
X-212765Y231876D03*
X-206845Y234411D03*
X-208885D03*
X-207915Y230607D03*
X-206845Y229340D03*
X-207915Y233144D03*
X-206845Y231876D03*
X-273264Y238215D03*
X-275204D03*
X-272294Y236947D03*
X-274234D03*
X-276174D03*
X-273264Y235679D03*
X-275204D03*
X-272294Y234411D03*
X-274234D03*
X-276174D03*
X-268414Y239483D03*
X-270354D03*
X-267099Y238589D03*
X-269384Y238215D03*
X-271324D03*
X-266655Y237068D03*
X-268414Y236947D03*
X-270354D03*
X-269384Y235679D03*
X-271324D03*
X-261251Y238038D03*
X-262519Y239008D03*
X-265055D03*
X-263787Y238038D03*
X-262519Y237068D03*
X-265055D03*
X-257447Y239008D03*
X-259983D03*
X-256179Y238038D03*
X-258715D03*
X-257447Y237068D03*
X-259983D03*
X-251107Y238038D03*
X-252375Y239008D03*
X-254911D03*
X-253643Y238038D03*
X-252375Y237068D03*
X-254911D03*
X-247303Y239008D03*
X-249839D03*
X-246035Y238038D03*
X-248571D03*
X-247303Y237068D03*
X-249839D03*
X-240965Y238039D03*
X-242232Y239009D03*
X-244767Y239008D03*
X-243500Y238039D03*
X-242232Y237069D03*
X-244767Y237068D03*
X-237160Y239009D03*
X-239696D03*
X-235893Y238039D03*
X-238428D03*
X-237160Y237069D03*
X-239696D03*
X-232089Y239009D03*
X-230820Y238039D03*
X-232089Y237069D03*
X-234624Y239009D03*
X-233356Y238039D03*
X-234624Y237069D03*
X-227017Y239009D03*
X-229552D03*
X-225748Y238039D03*
X-228284D03*
X-227017Y237069D03*
X-229552D03*
X-219408Y239009D03*
X-221944D03*
X-220676Y238039D03*
X-219408Y237069D03*
X-221944D03*
X-224480Y239009D03*
X-223212Y238039D03*
X-224480Y237069D03*
X-214706Y239483D03*
X-215675Y238216D03*
X-218141Y238069D03*
X-214706Y236948D03*
X-216645D03*
X-215675Y235680D03*
X-217615D03*
X-210826Y239483D03*
X-209856Y238216D03*
X-211795D03*
X-208885Y236948D03*
X-210826D03*
X-209856Y235680D03*
X-211795D03*
X-212765Y239483D03*
X-213735Y238216D03*
X-212765Y236948D03*
X-213735Y235680D03*
X-206845Y239483D03*
X-208885D03*
X-207915Y238216D03*
X-206845Y236948D03*
X-207915Y235680D03*
X-272274Y244575D03*
X-274234Y244555D03*
X-276174D03*
X-273264Y240751D03*
X-275204D03*
X-272294Y239483D03*
X-274234D03*
X-276174D03*
X-273264Y243287D03*
X-275204D03*
X-272294Y242019D03*
X-274234D03*
X-276174D03*
X-267591Y244828D03*
X-270127D03*
X-267591Y240948D03*
X-269281D03*
X-271324Y240751D03*
X-268859Y243858D03*
X-267591Y242888D03*
X-271324Y243269D03*
X-269859Y242599D03*
X-262519Y244828D03*
X-265055D03*
X-261251Y239978D03*
Y243858D03*
Y241918D03*
X-262519Y240948D03*
X-265055D03*
X-263787Y239978D03*
X-266323D03*
X-263787Y243858D03*
X-266323D03*
X-262519Y242888D03*
X-265055D03*
X-263787Y241918D03*
X-266323D03*
X-257447Y244828D03*
X-259983D03*
X-257447Y240948D03*
X-259983D03*
X-256179Y239978D03*
X-258715D03*
X-256179Y243858D03*
X-258715D03*
X-257447Y242888D03*
X-259983D03*
X-256179Y241918D03*
X-258715D03*
X-252375Y244828D03*
X-254911D03*
X-251107Y239978D03*
Y243858D03*
Y241918D03*
X-252375Y240948D03*
X-254911D03*
X-253643Y239978D03*
Y243858D03*
X-252375Y242888D03*
X-254911D03*
X-253643Y241918D03*
X-247303Y244828D03*
X-249839D03*
X-247303Y240948D03*
X-249839D03*
X-246035Y239978D03*
X-248571D03*
X-246035Y243858D03*
X-248571D03*
X-247303Y242888D03*
X-249839D03*
X-246035Y241918D03*
X-248571D03*
X-242232Y244829D03*
X-244767Y244828D03*
X-240965Y239979D03*
Y243859D03*
Y241919D03*
X-242232Y240948D03*
X-244767D03*
X-243500Y239979D03*
Y243859D03*
X-242232Y242889D03*
X-244767Y242888D03*
X-243500Y241919D03*
X-237160Y244829D03*
X-239696D03*
X-237160Y240948D03*
X-239696D03*
X-235893Y239979D03*
X-238428D03*
X-235893Y243859D03*
X-238428D03*
X-237160Y242889D03*
X-239696D03*
X-235893Y241919D03*
X-238428D03*
X-232089Y244829D03*
X-234624D03*
X-232089Y240948D03*
X-230820Y239979D03*
Y243859D03*
X-232089Y242889D03*
X-230820Y241919D03*
X-234624Y240948D03*
X-233356Y239979D03*
Y243859D03*
X-234624Y242889D03*
X-233356Y241919D03*
X-227017Y244829D03*
X-229552D03*
X-227017Y240948D03*
X-229552D03*
X-225748Y239979D03*
X-228284D03*
X-225748Y243859D03*
X-228284D03*
X-227017Y242889D03*
X-229552D03*
X-225748Y241919D03*
X-228284D03*
X-221944Y244829D03*
X-224480D03*
X-219408Y240948D03*
X-221944D03*
X-220676Y239979D03*
Y243859D03*
X-219408Y242889D03*
X-221944D03*
X-220676Y241919D03*
X-224480Y240948D03*
X-223212Y239979D03*
Y243859D03*
X-224480Y242889D03*
X-223212Y241919D03*
X-214336Y244829D03*
X-216872D03*
X-219408D03*
X-216872Y240948D03*
X-218141Y240009D03*
X-215604Y243859D03*
X-218141D03*
X-214336Y242889D03*
X-216872D03*
X-215604Y241919D03*
X-218141D03*
X-208885Y244556D03*
X-209856Y240752D03*
X-211795D03*
X-209856Y243288D03*
X-211480Y243620D03*
X-208885Y242020D03*
X-210826D03*
X-213735Y240752D03*
X-213069Y243859D03*
X-212765Y242020D03*
X-206845Y244556D03*
X-207915Y240752D03*
Y243288D03*
X-206845Y242020D03*
X-273394Y249308D03*
X-275084D03*
X-276774D03*
X-273394Y247618D03*
X-275084D03*
X-276774D03*
X-273264Y245823D03*
X-275204D03*
X-268859Y249678D03*
X-271395D03*
X-267591Y248708D03*
X-270127D03*
X-268859Y247738D03*
X-271395D03*
X-267591Y246768D03*
X-270127D03*
X-268859Y245798D03*
X-271729Y246189D03*
X-261251Y249678D03*
Y247738D03*
Y245798D03*
X-263787Y249678D03*
X-266323D03*
X-262519Y248708D03*
X-265055D03*
X-263787Y247738D03*
X-266323D03*
X-262519Y246768D03*
X-265055D03*
X-263787Y245798D03*
X-266323D03*
X-256179Y249678D03*
X-258715D03*
X-257447Y248708D03*
X-259983D03*
X-256179Y247738D03*
X-258715D03*
X-257447Y246768D03*
X-259983D03*
X-256179Y245798D03*
X-258715D03*
X-251107Y249678D03*
Y247738D03*
Y245798D03*
X-253643Y249678D03*
X-252375Y248708D03*
X-254911D03*
X-253643Y247738D03*
X-252375Y246768D03*
X-254911D03*
X-253643Y245798D03*
X-246035Y249678D03*
X-248571D03*
X-247303Y248708D03*
X-249839D03*
X-246035Y247738D03*
X-248571D03*
X-247303Y246768D03*
X-249839D03*
X-246035Y245798D03*
X-248571D03*
X-240965Y249679D03*
Y247739D03*
Y245799D03*
X-243500Y249679D03*
X-242232Y248709D03*
X-244767Y248708D03*
X-243500Y247739D03*
X-242232Y246769D03*
X-244767Y246768D03*
X-243500Y245799D03*
X-235893Y249679D03*
X-238428D03*
X-237160Y248709D03*
X-239696D03*
X-235893Y247739D03*
X-238428D03*
X-237160Y246769D03*
X-239696D03*
X-235893Y245799D03*
X-238428D03*
X-230820Y249679D03*
X-232089Y248709D03*
X-230820Y247739D03*
X-232089Y246769D03*
X-230820Y245799D03*
X-233356Y249679D03*
X-234624Y248709D03*
X-233356Y247739D03*
X-234624Y246769D03*
X-233356Y245799D03*
X-225748Y249679D03*
X-228284D03*
X-227017Y248709D03*
X-229552D03*
X-225748Y247739D03*
X-228284D03*
X-227017Y246769D03*
X-229552D03*
X-225748Y245799D03*
X-228284D03*
X-220676Y249679D03*
X-219408Y248709D03*
X-221944D03*
X-220676Y247739D03*
X-219408Y246769D03*
X-221944D03*
X-220676Y245799D03*
X-223212Y249679D03*
X-224480Y248709D03*
X-223212Y247739D03*
X-224480Y246769D03*
X-223212Y245799D03*
X-215604Y249679D03*
X-218141D03*
X-214336Y248709D03*
X-216872D03*
X-215604Y247739D03*
X-218141D03*
X-214336Y246769D03*
X-216872D03*
X-215604Y245799D03*
X-218141D03*
X-210226Y249309D03*
X-211600Y248409D03*
X-210226Y247619D03*
X-211800Y246769D03*
X-209856Y245824D03*
X-211360Y245200D03*
X-213069Y249648D03*
Y247739D03*
Y245799D03*
X-206845Y249109D03*
X-208535Y249309D03*
X-206845Y247319D03*
X-208535Y247619D03*
X-207915Y245824D03*
X-273394Y250998D03*
X-275084D03*
X-276774D03*
X-272663Y252688D03*
X-274784D03*
X-276574D03*
X-268859Y251618D03*
X-271395D03*
X-267591Y250648D03*
X-270127D03*
X-267591Y252688D03*
X-270127D03*
X-261251Y251618D03*
X-263787D03*
X-266323D03*
X-262519Y250648D03*
X-265055D03*
X-262519Y252688D03*
X-265055D03*
X-256179Y251618D03*
X-258715D03*
X-257447Y250648D03*
X-259983D03*
X-257447Y252688D03*
X-259983D03*
X-251107Y251618D03*
X-253643D03*
X-252375Y250648D03*
X-254911D03*
X-252375Y252688D03*
X-254911D03*
X-246035Y251618D03*
X-248571D03*
X-247303Y250648D03*
X-249839D03*
X-247303Y252688D03*
X-249839D03*
X-240965Y251619D03*
X-243500D03*
X-242232Y250648D03*
X-244767D03*
X-242232Y252689D03*
X-244767Y252688D03*
X-235893Y251619D03*
X-238428D03*
X-237160Y250648D03*
X-239696D03*
X-237160Y252689D03*
X-239696D03*
X-230820Y251619D03*
X-232089Y250648D03*
Y252689D03*
X-233356Y251619D03*
X-234624Y250648D03*
Y252689D03*
X-225748Y251619D03*
X-228284D03*
X-227017Y250648D03*
X-229552D03*
X-227017Y252689D03*
X-229552D03*
X-220676Y251619D03*
X-219408Y250648D03*
X-221944D03*
X-219408Y252689D03*
X-221944D03*
X-223212Y251619D03*
X-224480Y250648D03*
Y252689D03*
X-215604Y251619D03*
X-218141D03*
X-214336Y250648D03*
X-216872D03*
X-214336Y252689D03*
X-216872D03*
X-210226Y250999D03*
X-211615Y250257D03*
X-210426Y252689D03*
X-212215D03*
X-212880Y251259D03*
X-206845Y250899D03*
X-208535Y250999D03*
X-206845Y252689D03*
X-208635D03*
G54D156*
X-118180Y229100D03*
X-128220D03*
G54D72*
X-345928Y328668D03*
X-328668Y345928D03*
G54D81*
X-116463Y24890D03*
G54D27*
X-360236Y196850D03*
X-352362D03*
X-141732Y338583D03*
X-133858D03*
G54D147*
X-113453Y96917D03*
G54D174*
X-164408Y356146D03*
X-169330D03*
X-164408Y354178D03*
X-169330D03*
G54D129*
X-183941Y30500D03*
X-189059Y28531D03*
Y32469D03*
X-263959Y160800D03*
X-258841Y162769D03*
Y158831D03*
X-251659Y142200D03*
X-246541Y144169D03*
Y140231D03*
X-245641Y151200D03*
X-250759Y149231D03*
Y153169D03*
G54D36*
X-284959Y66108D03*
G54D165*
X-138110Y399352D03*
X-150090Y403248D03*
G54D138*
X-88664Y119498D03*
G54D90*
X-241512Y-1802D03*
X-222688Y-4998D03*
G54D45*
X-321302Y309034D03*
X-318866Y306598D03*
X-319910Y310425D03*
X-317475Y307990D03*
X-317125Y313210D03*
X-314690Y310775D03*
X-315734Y314602D03*
X-313298Y312166D03*
X-310866Y314598D03*
X-309475Y315990D03*
X-313302Y317034D03*
X-311910Y318425D03*
X-309125Y321210D03*
X-306690Y318775D03*
X-307734Y322602D03*
X-305298Y320166D03*
G54D18*
X-350089Y62959D03*
X-330742Y43612D03*
X-62959Y43611D03*
X-43612Y62958D03*
G54D63*
X-330724Y214035D03*
X-327575D03*
X-329150D03*
X-326000D03*
X-324425D03*
X-321276D03*
X-322850D03*
X-329724Y189535D03*
X-326575D03*
X-328150D03*
X-325000D03*
X-323425D03*
X-320276D03*
X-321850D03*
G54D46*
X-317300Y310600D03*
X-309300Y318600D03*
G54D28*
X-356299Y200689D03*
X-137795Y342422D03*
G54D148*
X-64884Y189200D03*
G54D175*
X-267996Y352076D03*
Y354142D03*
G54D157*
X-129700Y185518D03*
Y175200D03*
G54D139*
X-88664Y138396D03*
G54D19*
X-252027Y258507D03*
G54D166*
X-130257Y378558D03*
X-127143Y377442D03*
G54D91*
X-231808Y13023D03*
X-226955Y12199D03*
G54D55*
X-326867Y151784D03*
Y108476D03*
X-267811Y151784D03*
Y108476D03*
G54D73*
X-295641Y382651D03*
X-251314Y400113D03*
G54D64*
X-330724Y205965D03*
X-329150D03*
X-327575D03*
X-326000D03*
X-324425D03*
X-321276D03*
X-322850D03*
X-329724Y181465D03*
X-328150D03*
X-326575D03*
X-325000D03*
X-323425D03*
X-320276D03*
X-321850D03*
G54D37*
X-346500Y158414D03*
Y160186D03*
Y154414D03*
Y156186D03*
X-334000Y149514D03*
Y151286D03*
Y145014D03*
Y146786D03*
X-310000Y223614D03*
Y225386D03*
X-313000Y229886D03*
Y228114D03*
Y223614D03*
Y225386D03*
Y234886D03*
Y233114D03*
X-306694Y217339D03*
Y215567D03*
X-302794Y217339D03*
Y215567D03*
X-331500Y195886D03*
Y194114D03*
X-299000Y102114D03*
Y103886D03*
X-334500Y195886D03*
Y194114D03*
X-316500D03*
Y195886D03*
X-319500Y194114D03*
Y195886D03*
X-306694Y239939D03*
Y238167D03*
X-296200Y89414D03*
Y91186D03*
X-287000Y160114D03*
Y161886D03*
X-320600Y223114D03*
Y224886D03*
X-335000Y220386D03*
Y218614D03*
X-378100Y231814D03*
Y233586D03*
X-377500Y253614D03*
Y255386D03*
X-370800Y255086D03*
Y253314D03*
X-368000Y255086D03*
Y253314D03*
X-376000Y259886D03*
Y258114D03*
X-371900Y231814D03*
Y233586D03*
X-374900D03*
Y231814D03*
X-373000Y259886D03*
Y258114D03*
X-323000Y218614D03*
Y220386D03*
X-373700Y253314D03*
Y255086D03*
X-313000Y278114D03*
Y279886D03*
X-325700Y176286D03*
Y174514D03*
X-328700Y176286D03*
Y174514D03*
X-322500Y194114D03*
Y195886D03*
X-328500Y194114D03*
Y195886D03*
X-325500D03*
Y194114D03*
X-331700Y176286D03*
Y174514D03*
X-317000Y188386D03*
Y186614D03*
X-333500Y188386D03*
Y186614D03*
X-324500Y200886D03*
Y199114D03*
X-327500Y200886D03*
Y199114D03*
X-326000Y218614D03*
Y220386D03*
X-332000Y218614D03*
Y220386D03*
X-329000D03*
Y218614D03*
X-324000Y258114D03*
Y259886D03*
X-321500Y200886D03*
Y199114D03*
X-330500Y200886D03*
Y199114D03*
X-334000Y257114D03*
Y258886D03*
X-319700Y218614D03*
Y220386D03*
X-334500Y213886D03*
Y212114D03*
X-356400Y265586D03*
Y263814D03*
X-368900Y233586D03*
Y231814D03*
X-317000Y100614D03*
Y102386D03*
X-315000Y160386D03*
Y158614D03*
X-324000Y223114D03*
Y224886D03*
X-293500Y269386D03*
Y267614D03*
X-310000Y229886D03*
Y228114D03*
X-309694Y234939D03*
Y233167D03*
X-298594Y218567D03*
Y220339D03*
X-307500Y220614D03*
Y222386D03*
X-306500Y229886D03*
Y228114D03*
X-303194Y229939D03*
Y228167D03*
X-302694Y234939D03*
Y233167D03*
X-306694Y234939D03*
Y233167D03*
X-298694Y238167D03*
Y239939D03*
X-293194Y211367D03*
Y213139D03*
X-290500Y269386D03*
Y267614D03*
X-293194Y188667D03*
Y190439D03*
X-279300Y178714D03*
Y180486D03*
Y174414D03*
Y176186D03*
X-302694Y238167D03*
Y239939D03*
X-310694D03*
Y238167D03*
X-298294Y231467D03*
Y233239D03*
X-309494Y202867D03*
Y204639D03*
X-306694Y210767D03*
Y212539D03*
X-302994D03*
Y210767D03*
X-312500Y244886D03*
Y243114D03*
X-149000Y10386D03*
Y8614D03*
X-143000Y44886D03*
Y43114D03*
X-223500Y162386D03*
Y160614D03*
X-227000Y162386D03*
Y160614D03*
X-89200Y272214D03*
Y273986D03*
X-152200Y251986D03*
Y250214D03*
X-29200Y180014D03*
Y181786D03*
X-38600Y184714D03*
Y186486D03*
X-212500Y136114D03*
Y137886D03*
X-215500Y136114D03*
Y137886D03*
X-218500Y136114D03*
Y137886D03*
X-221500Y136114D03*
Y137886D03*
X-224500Y136114D03*
Y137886D03*
X-236400Y123114D03*
Y124886D03*
Y120386D03*
Y118614D03*
X-210900Y109086D03*
Y107314D03*
X-241000Y110386D03*
Y108614D03*
X-185500Y78114D03*
Y79886D03*
Y75886D03*
Y74114D03*
X-179500Y39614D03*
Y41386D03*
X-176500D03*
Y39614D03*
X-173000Y77114D03*
Y78886D03*
X-242200Y151086D03*
Y149314D03*
X-260500Y115614D03*
Y113842D03*
X-255200Y142086D03*
Y140314D03*
X-270000Y159886D03*
Y158114D03*
X-254900Y160214D03*
Y161986D03*
X-233300Y163986D03*
Y162214D03*
X-78426Y211714D03*
Y213486D03*
X-86300Y211614D03*
Y213386D03*
X-144500Y235086D03*
Y233314D03*
X-64000Y103614D03*
Y105386D03*
X-71000Y104886D03*
Y103114D03*
X-49500Y113614D03*
Y115386D03*
X-54000Y122614D03*
Y124386D03*
Y120386D03*
Y118614D03*
X-90000Y106886D03*
Y105114D03*
X-67000Y146114D03*
Y147886D03*
X-73000D03*
Y146114D03*
X-70000Y147886D03*
Y146114D03*
X-64000Y147886D03*
Y146114D03*
X-49000Y137114D03*
Y138886D03*
X-58000Y126614D03*
Y128386D03*
X-61000Y153886D03*
Y152114D03*
X-67000Y153886D03*
Y152114D03*
X-70000Y153886D03*
Y152114D03*
X-73000D03*
Y153886D03*
X-84000Y155386D03*
Y153614D03*
X-87000Y155386D03*
Y153614D03*
X-91000Y146114D03*
Y147886D03*
X-63000Y229414D03*
Y231186D03*
X-82300Y211614D03*
Y213386D03*
X-66500Y243614D03*
Y245386D03*
X-216000Y176486D03*
Y174714D03*
X-52500Y115386D03*
Y113614D03*
X-90000Y111386D03*
Y109614D03*
X-60500Y128386D03*
Y126614D03*
X-54500D03*
Y128386D03*
X-61000Y121114D03*
Y122886D03*
X-64000Y152114D03*
Y153886D03*
X-93800Y301686D03*
Y299914D03*
X-97600Y301686D03*
Y299914D03*
X-90000Y301686D03*
Y299914D03*
X-167000Y74886D03*
Y73114D03*
X-170000Y74886D03*
Y73114D03*
X-233100Y157214D03*
Y158986D03*
X-197900Y74314D03*
Y76086D03*
X-216000Y180886D03*
Y179114D03*
X-269494Y181159D03*
Y179387D03*
X-219400Y176486D03*
Y174714D03*
X-200800Y180986D03*
Y179214D03*
X-275994Y178667D03*
Y180439D03*
X-272000Y174614D03*
Y176386D03*
X-276000Y174614D03*
Y176386D03*
X-222000Y179114D03*
Y180886D03*
X-265694Y179387D03*
Y181159D03*
X-194600Y74314D03*
Y76086D03*
X-173000Y73114D03*
Y74886D03*
X-156000Y42386D03*
Y40614D03*
Y45114D03*
Y46886D03*
X-193000Y55114D03*
Y56886D03*
X-252400Y180786D03*
Y179014D03*
X-255900Y180786D03*
Y179014D03*
X-154400Y345986D03*
Y344214D03*
X-151400D03*
Y345986D03*
X-166200Y362714D03*
Y364486D03*
X-162800Y363186D03*
Y361414D03*
X-264386Y363881D03*
Y362109D03*
X-145500Y329886D03*
Y328114D03*
X-264385Y353927D03*
Y352155D03*
X-238694Y342139D03*
Y340367D03*
Y338239D03*
Y336467D03*
X-203694Y342439D03*
Y340667D03*
G54D82*
X-257200Y20100D03*
X-34600Y93300D03*
X-263668Y379078D03*
G54D74*
X-332982Y326301D03*
X-330756Y328528D03*
X-328528Y330756D03*
X-326301Y332982D03*
X-338133Y329225D03*
X-335906Y331451D03*
X-333679Y333679D03*
X-331451Y335906D03*
X-329225Y338133D03*
G54D83*
X-178149Y-13071D03*
X-215551D03*
G54D65*
X-376153Y238391D03*
X-374184D03*
X-372216D03*
X-370247D03*
X-376153Y249809D03*
X-374184D03*
X-372216D03*
X-370247D03*
X-74547Y176709D03*
X-76516D03*
X-78484D03*
X-80453D03*
X-74547Y165291D03*
X-76516D03*
X-78484D03*
X-80453D03*
G54D92*
X-72759Y50626D03*
X-50627Y72758D03*
G54D176*
X-152000Y354259D03*
X-150031Y349141D03*
X-153969D03*
G54D29*
X-356299Y192815D03*
X-137795Y334548D03*
G54D56*
X-327260Y144894D03*
Y146862D03*
Y148831D03*
Y138988D03*
Y140957D03*
Y142925D03*
Y135051D03*
Y137020D03*
Y129146D03*
Y131114D03*
Y133083D03*
Y123240D03*
Y125209D03*
Y127177D03*
Y119303D03*
Y121272D03*
Y113398D03*
Y115366D03*
Y117335D03*
Y111429D03*
X-267418Y148831D03*
Y146862D03*
Y144894D03*
Y142925D03*
Y140957D03*
Y138988D03*
Y137020D03*
Y135051D03*
Y133083D03*
Y131114D03*
Y129146D03*
Y127177D03*
Y125209D03*
Y123240D03*
Y121272D03*
Y119303D03*
Y117335D03*
Y115366D03*
Y113398D03*
Y111429D03*
G54D167*
X-131327Y384488D03*
X-134473Y385512D03*
X-153527Y406588D03*
X-156673Y407612D03*
G54D47*
X-308000Y273638D03*
Y278362D03*
X-310138Y264000D03*
X-314862D03*
X-352400Y236562D03*
Y231838D03*
X-332500Y238862D03*
Y234138D03*
X-383138Y231500D03*
X-387862D03*
X-314500Y204362D03*
Y199638D03*
X-337000D03*
Y204362D03*
X-317500Y253638D03*
Y258362D03*
Y239362D03*
Y234638D03*
X-316338Y176100D03*
X-321062D03*
X-337000Y176138D03*
Y180862D03*
X-336362Y264000D03*
X-331638D03*
X-302000Y278362D03*
Y273638D03*
X-325862Y264000D03*
X-321138D03*
X-360000Y269862D03*
Y265138D03*
X-373962Y264800D03*
X-369238D03*
X-358400Y236562D03*
Y231838D03*
X-386862Y237000D03*
X-382138D03*
X-289862Y273500D03*
X-285138D03*
X-188862Y37000D03*
X-184138D03*
X-241340Y42362D03*
Y47086D03*
X-226214Y42421D03*
Y47145D03*
X-226141Y61607D03*
X-230865D03*
X-236638Y61600D03*
X-241362D03*
X-229138Y82300D03*
X-233862D03*
X-239338D03*
X-244062D03*
X-221300Y66538D03*
Y71262D03*
X-226100Y66538D03*
Y71262D03*
X-226138Y56800D03*
X-230862D03*
X-226138Y52000D03*
X-230862D03*
X-232738Y87100D03*
X-237462D03*
X-236638Y56800D03*
X-241362D03*
X-236638Y52000D03*
X-241362D03*
X-243438Y87100D03*
X-248162D03*
X-246200Y66438D03*
Y71162D03*
X-241400Y66438D03*
Y71162D03*
X-66862Y219500D03*
X-62138D03*
X-50500Y215138D03*
Y219862D03*
X-70116Y260100D03*
X-74840D03*
X-102738Y299950D03*
X-107462D03*
X-112700Y263738D03*
Y268462D03*
X-114262Y294850D03*
X-109538D03*
X-116538Y221000D03*
X-121262D03*
X-121200Y198462D03*
Y193738D03*
X-150500Y196138D03*
Y200862D03*
X-94000Y106138D03*
Y110862D03*
X-128638Y90000D03*
X-133362D03*
X-99500Y106138D03*
Y110862D03*
X-129138Y161000D03*
X-133862D03*
X-99500Y148862D03*
Y144138D03*
X-74000Y217162D03*
Y212438D03*
X-84562Y290100D03*
X-79838D03*
X-144200Y279238D03*
Y283962D03*
X-139138Y187000D03*
X-143862D03*
X-118138Y179000D03*
X-122862D03*
X-107700Y268462D03*
Y263738D03*
X-110300Y212262D03*
Y207538D03*
X-114462Y197100D03*
X-109738D03*
X-114462Y202100D03*
X-109738D03*
X-115400Y212162D03*
Y207438D03*
X-114462Y192100D03*
X-109738D03*
X-50200Y195738D03*
Y200462D03*
X-56000Y219862D03*
Y215138D03*
X-79838Y295100D03*
X-84562D03*
X-92700Y275962D03*
Y271238D03*
X-97700Y275962D03*
Y271238D03*
X-102700Y275962D03*
Y271238D03*
X-79838Y300100D03*
X-84562D03*
X-150562Y253100D03*
X-145838D03*
X-150562Y258100D03*
X-145838D03*
X-150562Y263100D03*
X-145838D03*
X-150562Y268100D03*
X-145838D03*
X-150562Y273100D03*
X-145838D03*
X-117872Y300080D03*
X-113148D03*
X-128362Y297000D03*
X-123638D03*
X-140000Y233862D03*
Y229138D03*
X-134500Y233862D03*
Y229138D03*
X-121200Y208962D03*
Y204238D03*
X-127683Y216352D03*
Y211628D03*
X-151200Y223862D03*
Y219138D03*
X-140938Y224300D03*
X-145662D03*
X-122862Y173500D03*
X-118138D03*
X-122862Y168000D03*
X-118138D03*
X-88500Y170638D03*
Y175362D03*
X-64500Y167638D03*
Y172362D03*
X-100362Y129000D03*
X-95638D03*
X-179000Y206362D03*
Y201638D03*
X-20638Y153400D03*
X-25362D03*
X-14400Y141938D03*
Y146662D03*
X-55000Y172362D03*
Y167638D03*
X-199000Y61862D03*
Y57138D03*
X-173000Y206362D03*
Y201638D03*
Y191638D03*
Y196362D03*
X-184000Y211638D03*
Y216362D03*
X-184294Y206408D03*
Y201684D03*
X-184832Y231553D03*
X-189556D03*
X-189500Y206362D03*
Y201638D03*
X-189394Y226515D03*
Y221791D03*
X-184194Y226515D03*
Y221791D03*
X-189494Y211591D03*
Y216315D03*
X-179000Y191638D03*
Y196362D03*
X-189500Y191638D03*
Y196362D03*
X-184500Y191638D03*
Y196362D03*
X-243294Y342015D03*
Y337291D03*
G54D38*
X-316986Y220500D03*
X-315214D03*
X-315914Y223400D03*
X-317686D03*
X-308886Y196000D03*
X-307114D03*
Y192500D03*
X-308886D03*
X-337386Y274000D03*
X-335614D03*
X-337386Y277000D03*
X-335614D03*
Y271000D03*
X-337386D03*
X-337114Y257000D03*
X-338886D03*
Y245000D03*
X-337114D03*
X-380614Y248100D03*
X-382386D03*
X-386386D03*
X-384614D03*
X-381386Y251000D03*
X-379614D03*
X-313386Y275500D03*
X-311614D03*
X-313386Y272500D03*
X-311614D03*
X-332886Y277000D03*
X-331114D03*
X-332886Y271000D03*
X-331114D03*
X-332886Y274000D03*
X-331114D03*
X-313386Y269500D03*
X-311614D03*
X-331114Y280000D03*
X-332886D03*
X-331114Y268000D03*
X-332886D03*
X-316986Y180500D03*
X-315214D03*
X-318886Y249500D03*
X-317114D03*
X-318886Y246500D03*
X-317114D03*
X-337114Y254000D03*
X-338886D03*
X-337114Y248000D03*
X-338886D03*
Y251000D03*
X-337114D03*
X-318886Y243500D03*
X-317114D03*
X-337114Y242000D03*
X-338886D03*
X-315014Y213400D03*
X-316786D03*
X-315014Y215800D03*
X-316786D03*
X-294280Y225853D03*
X-292508D03*
X-294280Y230553D03*
X-292508D03*
X-304580Y224553D03*
X-302808D03*
X-299380Y223753D03*
X-297608D03*
X-299380Y227453D03*
X-297608D03*
X-304580Y220753D03*
X-302808D03*
X-296808Y189553D03*
X-298580D03*
X-296808Y193553D03*
X-298580D03*
X-309886Y249500D03*
X-308114D03*
X-298772Y186500D03*
X-297000D03*
X-294280Y238153D03*
X-292508D03*
X-298886Y243500D03*
X-297114D03*
X-294580Y180553D03*
X-292808D03*
X-284486Y180700D03*
X-282714D03*
X-297508Y176453D03*
X-299280D03*
X-297000Y183500D03*
X-298772D03*
X-294580Y185053D03*
X-292808D03*
X-292508Y234453D03*
X-294280D03*
X-294580Y243553D03*
X-292808D03*
X-298886Y246500D03*
X-297114D03*
X-307808Y243553D03*
X-309580D03*
X-308880Y199353D03*
X-307108D03*
X-290086Y180700D03*
X-288314D03*
X-303880Y193553D03*
X-302108D03*
X-310080Y207553D03*
X-308308D03*
X-305886Y249500D03*
X-304114D03*
X-153114Y14000D03*
X-154886D03*
X-104214Y210200D03*
X-105986D03*
X-104214Y206000D03*
X-105986D03*
X-91586Y277600D03*
X-89814D03*
X-149514Y246100D03*
X-151286D03*
X-145614Y107500D03*
X-147386D03*
X-133886D03*
X-132114D03*
X-146114Y144000D03*
X-147886D03*
X-133886D03*
X-132114D03*
X-182386Y76500D03*
X-180614D03*
X-161386Y38000D03*
X-159614D03*
X-161386Y44000D03*
X-159614D03*
X-192614Y79000D03*
X-194386D03*
X-206386Y63500D03*
X-204614D03*
X-186614Y42000D03*
X-188386D03*
X-179886Y37000D03*
X-178114D03*
X-179886Y28000D03*
X-178114D03*
X-228114Y137500D03*
X-229886D03*
X-180614Y73500D03*
X-182386D03*
X-192614Y60500D03*
X-194386D03*
X-192614Y63500D03*
X-194386D03*
X-180614Y79500D03*
X-182386D03*
X-179886Y34000D03*
X-178114D03*
X-157886Y66500D03*
X-156114D03*
X-161886D03*
X-160114D03*
X-157886Y70000D03*
X-156114D03*
X-161886D03*
X-160114D03*
X-158686Y77300D03*
X-156914D03*
X-158686Y74100D03*
X-156914D03*
X-161386Y41000D03*
X-159614D03*
X-161386Y47000D03*
X-159614D03*
X-238086Y150700D03*
X-236314D03*
X-260914Y118500D03*
X-259142D03*
X-260914Y121500D03*
X-259142D03*
X-260886Y143000D03*
X-259114D03*
X-260386Y151500D03*
X-258614D03*
X-153614Y34000D03*
X-155386D03*
X-65386Y258500D03*
X-63614D03*
X-70314Y249600D03*
X-72086D03*
X-109086Y258600D03*
X-107314D03*
X-135314Y224500D03*
X-137086D03*
X-72086Y241600D03*
X-70314D03*
Y233600D03*
X-72086D03*
X-70314Y225600D03*
X-72086D03*
X-73614Y180500D03*
X-75386D03*
X-83386D03*
X-81614D03*
X-95386Y151500D03*
X-93614D03*
X-81614Y104500D03*
X-83386D03*
X-95386Y148000D03*
X-93614D03*
X-81614Y107500D03*
X-83386D03*
X-58886Y114500D03*
X-57114D03*
X-51114Y110500D03*
X-52886D03*
X-81886Y113500D03*
X-80114D03*
X-51614Y147000D03*
X-53386D03*
X-49614Y128000D03*
X-51386D03*
X-49614Y125000D03*
X-51386D03*
X-98386Y133500D03*
X-96614D03*
X-77114Y156500D03*
X-78886D03*
X-82614Y147500D03*
X-84386D03*
X-88386Y144500D03*
X-86614D03*
X-72086Y229600D03*
X-70314D03*
X-72014Y221900D03*
X-73786D03*
X-113886Y258600D03*
X-112114D03*
X-59114Y247000D03*
X-60886D03*
X-71386Y180500D03*
X-69614D03*
X-70314Y237600D03*
X-72086D03*
X-67086Y223600D03*
X-65314D03*
X-72086Y245600D03*
X-70314D03*
X-72086Y253600D03*
X-70314D03*
X-119593Y241176D03*
X-117821D03*
X-118886Y164000D03*
X-117114D03*
X-79386Y180500D03*
X-77614D03*
X-77386Y113500D03*
X-75614D03*
X-83386Y110500D03*
X-81614D03*
X-60386Y131500D03*
X-58614D03*
X-93614Y144500D03*
X-95386D03*
X-84386D03*
X-82614D03*
X-86386Y150500D03*
X-84614D03*
X-86614Y147500D03*
X-88386D03*
X-259142Y124500D03*
X-260914D03*
X-48614Y205000D03*
X-50386D03*
X-48614Y208000D03*
X-50386D03*
X-48614Y211000D03*
X-50386D03*
X-104414Y288200D03*
X-106186D03*
X-104414Y284400D03*
X-106186D03*
X-104414Y280600D03*
X-106186D03*
X-152855Y210744D03*
X-151083D03*
X-152855Y207944D03*
X-151083D03*
X-152855Y205044D03*
X-151083D03*
X-260914Y128000D03*
X-259142D03*
X-260914Y131000D03*
X-259142D03*
X-268280Y175853D03*
X-266508D03*
X-263886Y176000D03*
X-262114D03*
X-136614Y351500D03*
X-138386D03*
X-140614Y354500D03*
X-142386D03*
X-140614Y351500D03*
X-142386D03*
X-144983Y351162D03*
X-146755D03*
X-144983Y354662D03*
X-146755D03*
X-175255Y353162D03*
X-173483D03*
X-175255Y356162D03*
X-173483D03*
X-136614Y354500D03*
X-138386D03*
X-264772Y356649D03*
X-263000D03*
X-264750Y359583D03*
X-262978D03*
X-229508Y338653D03*
X-231280D03*
X-226386Y342000D03*
X-224614D03*
Y339000D03*
X-226386D03*
G54D158*
X-163402Y109500D03*
X-188598D03*
X-163402Y146500D03*
X-188598D03*
G54D149*
X-134116Y281416D03*
G54D39*
X-344415Y296085D03*
X-346585Y293915D03*
X-357115Y303785D03*
X-359285Y301615D03*
X-341315Y293085D03*
X-343485Y290915D03*
X-311415Y354085D03*
X-313585Y351915D03*
X-308215Y351085D03*
X-310385Y348915D03*
X-302215Y345085D03*
X-304385Y342915D03*
X-307385Y345915D03*
X-305215Y348085D03*
X-99285Y30715D03*
X-97115Y32885D03*
G54D66*
X-375365Y242131D03*
X-371035Y244100D03*
X-375365Y246069D03*
X-75335Y172969D03*
X-79665Y171000D03*
X-75335Y169031D03*
G54D75*
X-291126Y367626D03*
X-289874Y366374D03*
X-83374Y73374D03*
X-84626Y74626D03*
X-85374Y71374D03*
X-86626Y72626D03*
X-70684Y83595D03*
X-71936Y84847D03*
X-72685Y81594D03*
X-73937Y82846D03*
X-95374Y60874D03*
X-96626Y62126D03*
X-97374Y58874D03*
X-98626Y60126D03*
X-91374Y64874D03*
X-92626Y66126D03*
X-89374Y66874D03*
X-90626Y68126D03*
X-79374Y77374D03*
X-80626Y78626D03*
X-77374Y79374D03*
X-78626Y80626D03*
X-66274Y83774D03*
X-67526Y85026D03*
G54D93*
X-64477Y58908D03*
X-58909Y64476D03*
G54D84*
X-182086Y-3228D03*
X-184055D03*
X-186023D03*
X-187992D03*
X-189960D03*
X-191929D03*
X-193897D03*
X-195866D03*
X-197834D03*
X-199803D03*
X-201771D03*
X-203740D03*
X-205708D03*
X-207677D03*
X-209645D03*
X-211614D03*
G54D159*
X-48052Y60578D03*
X-46660Y61971D03*
X-51393Y66703D03*
X-49444Y59187D03*
X-52785Y65311D03*
X-54176Y63919D03*
X-52228Y56403D03*
X-50836Y57794D03*
X-55569Y62527D03*
X-56960Y61135D03*
X-55012Y53619D03*
X-53620Y55011D03*
X-58353Y59743D03*
X-59744Y58352D03*
X-57795Y50835D03*
X-56404Y52227D03*
X-61136Y56959D03*
X-62528Y55568D03*
X-63920Y54175D03*
X-60579Y48051D03*
X-59188Y49443D03*
X-65312Y52784D03*
X-66704Y51392D03*
X-61972Y46659D03*
G54D57*
X-323914Y152177D03*
X-321945D03*
Y108083D03*
X-323914D03*
X-318008Y152177D03*
X-319977D03*
X-316040Y108083D03*
X-318008D03*
X-319977D03*
X-314071Y152177D03*
X-312103D03*
X-316040D03*
X-312103Y108083D03*
X-314071D03*
X-308166Y152177D03*
X-306197D03*
X-310134D03*
X-306197Y108083D03*
X-308166D03*
X-310134D03*
X-302260Y152177D03*
X-300292D03*
X-304229D03*
X-300292Y108083D03*
X-302260D03*
X-304229D03*
X-298323Y152177D03*
X-296355D03*
Y108083D03*
X-298323D03*
X-292418Y152177D03*
X-290449D03*
X-294386D03*
X-290449Y108083D03*
X-292418D03*
X-294386D03*
X-286512Y152177D03*
X-284544D03*
X-288481D03*
X-284544Y108083D03*
X-286512D03*
X-288481D03*
X-282575Y152177D03*
X-280607D03*
Y108083D03*
X-282575D03*
X-276670Y152177D03*
X-278638D03*
X-276670Y108083D03*
X-278638D03*
X-274701Y152177D03*
Y108083D03*
X-270764Y152177D03*
X-272733D03*
X-270764Y108083D03*
X-272733D03*
G54D48*
X-363400Y234165D03*
Y237235D03*
X-312500Y257535D03*
Y254465D03*
X-337000Y190035D03*
Y186965D03*
X-311600Y178335D03*
Y175265D03*
X-385800Y244635D03*
Y241565D03*
X-381800Y244635D03*
Y241565D03*
X-297694Y211518D03*
Y214588D03*
X-293194Y201018D03*
Y204088D03*
X-293094Y261118D03*
Y264188D03*
X-297044Y260988D03*
Y257918D03*
X-282194Y340088D03*
Y337018D03*
X-34400Y185565D03*
Y188635D03*
X-38600Y137265D03*
Y140335D03*
X-19400Y141665D03*
Y144735D03*
X-226100Y78335D03*
Y75265D03*
X-241400Y78235D03*
Y75165D03*
X-237300Y74235D03*
Y71165D03*
X-207100Y111235D03*
Y108165D03*
X-229300Y103535D03*
Y100465D03*
X-243800Y109635D03*
Y106565D03*
X-59500Y103965D03*
Y107035D03*
X-71000Y107965D03*
Y111035D03*
X-100500Y121465D03*
Y124535D03*
X-52000Y135465D03*
Y138535D03*
X-99300Y215235D03*
Y212165D03*
X-66700Y231635D03*
Y228565D03*
X-67500Y107035D03*
Y103965D03*
X-50500Y121535D03*
Y118465D03*
X-59000Y138535D03*
Y135465D03*
X-55500Y138535D03*
Y135465D03*
X-189000Y77035D03*
Y73965D03*
X-162500Y77535D03*
Y74465D03*
X-176500Y77035D03*
Y73965D03*
X-166694Y238718D03*
Y241788D03*
X-189500Y187035D03*
Y183965D03*
X-185000Y187035D03*
Y183965D03*
X-191694Y273988D03*
Y270918D03*
X-168294Y273988D03*
Y270918D03*
X-273294Y274988D03*
Y271918D03*
X-210694Y269588D03*
Y266518D03*
X-181000Y187035D03*
Y183965D03*
X-176500Y186535D03*
Y183465D03*
X-242394Y270788D03*
Y267718D03*
X-266694Y269588D03*
Y266518D03*
X-149600Y330665D03*
Y333735D03*
X-153600Y330665D03*
Y333735D03*
X-214194Y341188D03*
Y338118D03*
X-166594Y339888D03*
Y336818D03*
X-271494Y340188D03*
Y337118D03*
X-209694Y341088D03*
Y338018D03*
X-266494Y340088D03*
Y337018D03*
X-248094Y340188D03*
Y337118D03*
X-275694Y340188D03*
Y337118D03*
X-262194Y340188D03*
Y337118D03*
G54D168*
X-134160Y367848D03*
X-131040Y366752D03*
G54D177*
X-180113Y354662D03*
X-185625D03*
X-154256Y358200D03*
X-148744D03*
X-158700Y358456D03*
Y352944D03*
G54D178*
G01X-335700Y-288900D02*
Y-278900D01*
X-331700D01*
X-330100Y-279400D01*
X-328900Y-280067D01*
X-327900Y-281067D01*
X-327100Y-282234D01*
X-326900Y-283900D01*
X-327100Y-285567D01*
X-327900Y-286733D01*
X-328900Y-287734D01*
X-330100Y-288400D01*
X-331700Y-288900D01*
X-335700D01*
G01X-322200Y-284400D02*
X-315800D01*
X-316400Y-283233D01*
X-317400Y-282567D01*
X-318800Y-282234D01*
X-320200Y-282400D01*
X-321400Y-282900D01*
X-322200Y-284067D01*
X-322600Y-285067D01*
Y-286067D01*
X-322200Y-287067D01*
X-321200Y-288067D01*
X-320000Y-288733D01*
X-318600Y-288900D01*
X-317200Y-288567D01*
X-315800Y-287567D01*
G01X-310100Y-287734D02*
X-309100Y-288400D01*
X-307700Y-288900D01*
X-306500D01*
X-305300Y-288567D01*
X-304500Y-288067D01*
X-304100Y-287400D01*
X-304300Y-286400D01*
X-305100Y-285900D01*
X-308700Y-284900D01*
X-309500Y-283733D01*
X-309100Y-282900D01*
X-308300Y-282400D01*
X-307100Y-282234D01*
X-305900Y-282400D01*
X-304700Y-282900D01*
G01X-295000Y-282234D02*
Y-288900D01*
G01Y-279567D02*
X-295400Y-279400D01*
Y-279067D01*
X-295000Y-278900D01*
X-294600Y-279067D01*
Y-279400D01*
X-295000Y-279567D01*
G01X-285700Y-291400D02*
X-284300Y-292067D01*
X-282700Y-292233D01*
X-281300Y-292067D01*
X-280100Y-291233D01*
X-279300Y-290067D01*
Y-282234D01*
G01Y-283567D02*
X-280100Y-282900D01*
X-281300Y-282400D01*
X-282700Y-282234D01*
X-284300Y-282567D01*
X-285300Y-283233D01*
X-286100Y-284400D01*
X-286500Y-285567D01*
X-286300Y-286567D01*
X-285500Y-287734D01*
X-284300Y-288567D01*
X-282700Y-288900D01*
X-281500Y-288733D01*
X-280100Y-288067D01*
X-279300Y-287400D01*
G01X-274200Y-288900D02*
Y-282234D01*
G01Y-283900D02*
X-273400Y-283067D01*
X-272200Y-282400D01*
X-270600Y-282234D01*
X-269200Y-282400D01*
X-268000Y-283067D01*
X-267400Y-284233D01*
Y-288900D01*
G01X-250800Y-287567D02*
X-249200Y-288400D01*
X-247400Y-288900D01*
X-245800D01*
X-244200Y-288400D01*
X-243000Y-287567D01*
X-242400Y-286400D01*
X-242800Y-285234D01*
X-243800Y-284233D01*
X-245600Y-283567D01*
X-248000Y-283233D01*
X-249400Y-282567D01*
X-250000Y-281400D01*
X-249600Y-280233D01*
X-248600Y-279400D01*
X-247200Y-278900D01*
X-245800D01*
X-244400Y-279233D01*
X-243200Y-280067D01*
G01X-238700Y-288900D02*
Y-278900D01*
G01X-230300D02*
Y-288900D01*
G01Y-283900D02*
X-238700D01*
G01X-224800Y-278900D02*
X-220000D01*
G01X-222400D02*
Y-288900D01*
G01X-224800D02*
X-220000D01*
G01X-214100D02*
Y-278900D01*
X-206500D01*
G01X-209300Y-283733D02*
X-214100D01*
G01X-198200Y-278900D02*
Y-288900D01*
G01X-202800Y-278900D02*
X-193600D01*
G36*
G01X-47147Y68165D02*
G03X-44363Y70949I1392J1392D01*
G01X-48259Y74846D01*
G03X-48334Y74916I-1388J-1397D01*
G03X-50905Y74985I-1318J-1183D01*
G01X-52853Y73037D01*
G03X-50348Y70531I1252J-1253D01*
G01X-49931Y70949D01*
X-47147Y68165D01*
G37*
G54D49*
X-316800Y226665D03*
Y229735D03*
X-327500Y223465D03*
Y226535D03*
X-320900Y99565D03*
Y102635D03*
X-293194Y193818D03*
Y196888D03*
X-297044Y265218D03*
Y268288D03*
X-205500Y50535D03*
Y47465D03*
X-230200Y71165D03*
Y74235D03*
X-203900Y111235D03*
Y108165D03*
X-63300Y270835D03*
Y267765D03*
X-57500Y123535D03*
Y120465D03*
X-111200Y219565D03*
Y222635D03*
X-66700Y236565D03*
Y239635D03*
X-67900Y267765D03*
Y270835D03*
X-74700Y290565D03*
Y293635D03*
X-144200Y289565D03*
Y292635D03*
X-59500Y169965D03*
Y173035D03*
X-69000Y169965D03*
Y173035D03*
X-55000Y103965D03*
Y107035D03*
X-86500Y106965D03*
Y110035D03*
X-190194Y253518D03*
Y256588D03*
X-149600Y340735D03*
Y337665D03*
X-153600Y340735D03*
Y337665D03*
X-235000Y338465D03*
Y341535D03*
G54D169*
X-55359Y345162D03*
G54D85*
X-165000Y11400D03*
Y5600D03*
X-171681Y13254D03*
Y19054D03*
G54D67*
X-369460Y242131D03*
Y246069D03*
X-81240Y172969D03*
Y169031D03*
G54D76*
X-301828Y352872D03*
X-299000Y361357D03*
X-293343Y355700D03*
G54D58*
X-316827Y136626D03*
G54D179*
G01X-335933Y-307400D02*
X-334813Y-312400D01*
X-333600Y-307400D01*
X-332387Y-312400D01*
X-331267Y-307400D01*
G01X-328433D02*
X-327313Y-312400D01*
X-326100Y-307400D01*
X-324887Y-312400D01*
X-323767Y-307400D01*
G01X-320933D02*
X-319813Y-312400D01*
X-318600Y-307400D01*
X-317387Y-312400D01*
X-316267Y-307400D01*
G01X-311100Y-312650D02*
X-311287Y-312525D01*
Y-312275D01*
X-311100Y-312150D01*
X-310913Y-312275D01*
Y-312525D01*
X-311100Y-312650D01*
G01X-301920Y-304900D02*
Y-312400D01*
G01Y-311275D02*
X-302293Y-311900D01*
X-302853Y-312275D01*
X-303507Y-312400D01*
X-304253Y-312150D01*
X-304813Y-311525D01*
X-305187Y-310775D01*
X-305280Y-309900D01*
X-305187Y-309025D01*
X-304813Y-308275D01*
X-304253Y-307650D01*
X-303507Y-307400D01*
X-302853Y-307525D01*
X-302387Y-307775D01*
X-301920Y-308275D01*
G01X-297500Y-309025D02*
X-294513D01*
X-294793Y-308150D01*
X-295260Y-307650D01*
X-295913Y-307400D01*
X-296567Y-307525D01*
X-297127Y-307900D01*
X-297500Y-308775D01*
X-297687Y-309525D01*
Y-310275D01*
X-297500Y-311025D01*
X-297033Y-311775D01*
X-296473Y-312275D01*
X-295820Y-312400D01*
X-295167Y-312150D01*
X-294513Y-311400D01*
G01X-290000Y-311525D02*
X-289533Y-312025D01*
X-288880Y-312400D01*
X-288320D01*
X-287760Y-312150D01*
X-287387Y-311775D01*
X-287200Y-311275D01*
X-287293Y-310525D01*
X-287667Y-310150D01*
X-289347Y-309400D01*
X-289720Y-308525D01*
X-289533Y-307900D01*
X-289160Y-307525D01*
X-288600Y-307400D01*
X-288040Y-307525D01*
X-287480Y-307900D01*
G01X-281100Y-307400D02*
Y-312400D01*
G01Y-305400D02*
X-281287Y-305275D01*
Y-305025D01*
X-281100Y-304900D01*
X-280913Y-305025D01*
Y-305275D01*
X-281100Y-305400D01*
G01X-274907Y-314275D02*
X-274253Y-314775D01*
X-273507Y-314900D01*
X-272853Y-314775D01*
X-272293Y-314150D01*
X-271920Y-313275D01*
Y-307400D01*
G01Y-308400D02*
X-272293Y-307900D01*
X-272853Y-307525D01*
X-273507Y-307400D01*
X-274253Y-307650D01*
X-274720Y-308150D01*
X-275093Y-309025D01*
X-275280Y-309900D01*
X-275187Y-310650D01*
X-274813Y-311525D01*
X-274253Y-312150D01*
X-273507Y-312400D01*
X-272947Y-312275D01*
X-272293Y-311775D01*
X-271920Y-311275D01*
G01X-267687Y-312400D02*
Y-307400D01*
G01Y-308650D02*
X-267313Y-308025D01*
X-266753Y-307525D01*
X-266007Y-307400D01*
X-265353Y-307525D01*
X-264793Y-308025D01*
X-264513Y-308900D01*
Y-312400D01*
G01X-259813Y-309900D02*
X-257387D01*
G01X-252500Y-311525D02*
X-252033Y-312025D01*
X-251380Y-312400D01*
X-250820D01*
X-250260Y-312150D01*
X-249887Y-311775D01*
X-249700Y-311275D01*
X-249793Y-310525D01*
X-250167Y-310150D01*
X-251847Y-309400D01*
X-252220Y-308525D01*
X-252033Y-307900D01*
X-251660Y-307525D01*
X-251100Y-307400D01*
X-250540Y-307525D01*
X-249980Y-307900D01*
G01X-245187Y-312400D02*
Y-304900D01*
G01Y-308525D02*
X-244720Y-307900D01*
X-244253Y-307525D01*
X-243507Y-307400D01*
X-242947Y-307525D01*
X-242293Y-308025D01*
X-242013Y-308775D01*
Y-312400D01*
G01X-236100Y-307400D02*
Y-312400D01*
G01Y-305400D02*
X-236287Y-305275D01*
Y-305025D01*
X-236100Y-304900D01*
X-235913Y-305025D01*
Y-305275D01*
X-236100Y-305400D01*
G01X-229160Y-312400D02*
Y-306025D01*
X-228973Y-305400D01*
X-228600Y-305025D01*
X-228040Y-304900D01*
X-227480Y-305150D01*
X-227200Y-305775D01*
G01X-228320Y-307900D02*
X-230187D01*
G01X-221100Y-304900D02*
Y-312400D01*
G01X-222407Y-307400D02*
X-219793D01*
G01X-213600Y-312650D02*
X-213787Y-312525D01*
Y-312275D01*
X-213600Y-312150D01*
X-213413Y-312275D01*
Y-312525D01*
X-213600Y-312650D01*
G01X-204607Y-308025D02*
X-205260Y-307525D01*
X-205820Y-307400D01*
X-206567Y-307650D01*
X-207127Y-308150D01*
X-207500Y-309025D01*
X-207593Y-309900D01*
X-207500Y-310775D01*
X-207127Y-311525D01*
X-206567Y-312150D01*
X-205820Y-312400D01*
X-205167Y-312150D01*
X-204607Y-311650D01*
G01X-198600Y-312400D02*
X-199160Y-312275D01*
X-199720Y-311775D01*
X-200093Y-310900D01*
X-200280Y-309900D01*
X-200093Y-308900D01*
X-199720Y-308025D01*
X-199160Y-307525D01*
X-198600Y-307400D01*
X-198040Y-307525D01*
X-197480Y-308025D01*
X-197107Y-308900D01*
X-197013Y-309900D01*
X-197107Y-310900D01*
X-197480Y-311775D01*
X-198040Y-312275D01*
X-198600Y-312400D01*
G01X-193900D02*
Y-307400D01*
G01Y-308775D02*
X-193620Y-308150D01*
X-193153Y-307650D01*
X-192500Y-307400D01*
X-191847Y-307650D01*
X-191380Y-308150D01*
X-191100Y-308775D01*
Y-312400D01*
G01Y-308775D02*
X-190820Y-308150D01*
X-190353Y-307650D01*
X-189700Y-307400D01*
X-189047Y-307650D01*
X-188580Y-308150D01*
X-188300Y-308900D01*
Y-312400D01*
G01X-336033Y-307400D02*
X-334913Y-312400D01*
X-333700Y-307400D01*
X-332487Y-312400D01*
X-331367Y-307400D01*
G01X-328533D02*
X-327413Y-312400D01*
X-326200Y-307400D01*
X-324987Y-312400D01*
X-323867Y-307400D01*
G01X-321033D02*
X-319913Y-312400D01*
X-318700Y-307400D01*
X-317487Y-312400D01*
X-316367Y-307400D01*
G01X-311200Y-312650D02*
X-311387Y-312525D01*
Y-312275D01*
X-311200Y-312150D01*
X-311013Y-312275D01*
Y-312525D01*
X-311200Y-312650D01*
G01X-302020Y-304900D02*
Y-312400D01*
G01Y-311275D02*
X-302393Y-311900D01*
X-302953Y-312275D01*
X-303607Y-312400D01*
X-304353Y-312150D01*
X-304913Y-311525D01*
X-305287Y-310775D01*
X-305380Y-309900D01*
X-305287Y-309025D01*
X-304913Y-308275D01*
X-304353Y-307650D01*
X-303607Y-307400D01*
X-302953Y-307525D01*
X-302487Y-307775D01*
X-302020Y-308275D01*
G01X-297600Y-309025D02*
X-294613D01*
X-294893Y-308150D01*
X-295360Y-307650D01*
X-296013Y-307400D01*
X-296667Y-307525D01*
X-297227Y-307900D01*
X-297600Y-308775D01*
X-297787Y-309525D01*
Y-310275D01*
X-297600Y-311025D01*
X-297133Y-311775D01*
X-296573Y-312275D01*
X-295920Y-312400D01*
X-295267Y-312150D01*
X-294613Y-311400D01*
G01X-290100Y-311525D02*
X-289633Y-312025D01*
X-288980Y-312400D01*
X-288420D01*
X-287860Y-312150D01*
X-287487Y-311775D01*
X-287300Y-311275D01*
X-287393Y-310525D01*
X-287767Y-310150D01*
X-289447Y-309400D01*
X-289820Y-308525D01*
X-289633Y-307900D01*
X-289260Y-307525D01*
X-288700Y-307400D01*
X-288140Y-307525D01*
X-287580Y-307900D01*
G01X-281200Y-307400D02*
Y-312400D01*
G01Y-305400D02*
X-281387Y-305275D01*
Y-305025D01*
X-281200Y-304900D01*
X-281013Y-305025D01*
Y-305275D01*
X-281200Y-305400D01*
G01X-275007Y-314275D02*
X-274353Y-314775D01*
X-273607Y-314900D01*
X-272953Y-314775D01*
X-272393Y-314150D01*
X-272020Y-313275D01*
Y-307400D01*
G01Y-308400D02*
X-272393Y-307900D01*
X-272953Y-307525D01*
X-273607Y-307400D01*
X-274353Y-307650D01*
X-274820Y-308150D01*
X-275193Y-309025D01*
X-275380Y-309900D01*
X-275287Y-310650D01*
X-274913Y-311525D01*
X-274353Y-312150D01*
X-273607Y-312400D01*
X-273047Y-312275D01*
X-272393Y-311775D01*
X-272020Y-311275D01*
G01X-267787Y-312400D02*
Y-307400D01*
G01Y-308650D02*
X-267413Y-308025D01*
X-266853Y-307525D01*
X-266107Y-307400D01*
X-265453Y-307525D01*
X-264893Y-308025D01*
X-264613Y-308900D01*
Y-312400D01*
G01X-259913Y-309900D02*
X-257487D01*
G01X-252600Y-311525D02*
X-252133Y-312025D01*
X-251480Y-312400D01*
X-250920D01*
X-250360Y-312150D01*
X-249987Y-311775D01*
X-249800Y-311275D01*
X-249893Y-310525D01*
X-250267Y-310150D01*
X-251947Y-309400D01*
X-252320Y-308525D01*
X-252133Y-307900D01*
X-251760Y-307525D01*
X-251200Y-307400D01*
X-250640Y-307525D01*
X-250080Y-307900D01*
G01X-245287Y-312400D02*
Y-304900D01*
G01Y-308525D02*
X-244820Y-307900D01*
X-244353Y-307525D01*
X-243607Y-307400D01*
X-243047Y-307525D01*
X-242393Y-308025D01*
X-242113Y-308775D01*
Y-312400D01*
G01X-236200Y-307400D02*
Y-312400D01*
G01Y-305400D02*
X-236387Y-305275D01*
Y-305025D01*
X-236200Y-304900D01*
X-236013Y-305025D01*
Y-305275D01*
X-236200Y-305400D01*
G01X-229260Y-312400D02*
Y-306025D01*
X-229073Y-305400D01*
X-228700Y-305025D01*
X-228140Y-304900D01*
X-227580Y-305150D01*
X-227300Y-305775D01*
G01X-228420Y-307900D02*
X-230287D01*
G01X-221200Y-304900D02*
Y-312400D01*
G01X-222507Y-307400D02*
X-219893D01*
G01X-213700Y-312650D02*
X-213887Y-312525D01*
Y-312275D01*
X-213700Y-312150D01*
X-213513Y-312275D01*
Y-312525D01*
X-213700Y-312650D01*
G01X-204707Y-308025D02*
X-205360Y-307525D01*
X-205920Y-307400D01*
X-206667Y-307650D01*
X-207227Y-308150D01*
X-207600Y-309025D01*
X-207693Y-309900D01*
X-207600Y-310775D01*
X-207227Y-311525D01*
X-206667Y-312150D01*
X-205920Y-312400D01*
X-205267Y-312150D01*
X-204707Y-311650D01*
G01X-198700Y-312400D02*
X-199260Y-312275D01*
X-199820Y-311775D01*
X-200193Y-310900D01*
X-200380Y-309900D01*
X-200193Y-308900D01*
X-199820Y-308025D01*
X-199260Y-307525D01*
X-198700Y-307400D01*
X-198140Y-307525D01*
X-197580Y-308025D01*
X-197207Y-308900D01*
X-197113Y-309900D01*
X-197207Y-310900D01*
X-197580Y-311775D01*
X-198140Y-312275D01*
X-198700Y-312400D01*
G01X-194000D02*
Y-307400D01*
G01Y-308775D02*
X-193720Y-308150D01*
X-193253Y-307650D01*
X-192600Y-307400D01*
X-191947Y-307650D01*
X-191480Y-308150D01*
X-191200Y-308775D01*
Y-312400D01*
G01Y-308775D02*
X-190920Y-308150D01*
X-190453Y-307650D01*
X-189800Y-307400D01*
X-189147Y-307650D01*
X-188680Y-308150D01*
X-188400Y-308900D01*
Y-312400D01*
G01X-336133Y-307400D02*
X-335013Y-312400D01*
X-333800Y-307400D01*
X-332587Y-312400D01*
X-331467Y-307400D01*
G01X-328633D02*
X-327513Y-312400D01*
X-326300Y-307400D01*
X-325087Y-312400D01*
X-323967Y-307400D01*
G01X-321133D02*
X-320013Y-312400D01*
X-318800Y-307400D01*
X-317587Y-312400D01*
X-316467Y-307400D01*
G01X-311300Y-312650D02*
X-311487Y-312525D01*
Y-312275D01*
X-311300Y-312150D01*
X-311113Y-312275D01*
Y-312525D01*
X-311300Y-312650D01*
G01X-302120Y-304900D02*
Y-312400D01*
G01Y-311275D02*
X-302493Y-311900D01*
X-303053Y-312275D01*
X-303707Y-312400D01*
X-304453Y-312150D01*
X-305013Y-311525D01*
X-305387Y-310775D01*
X-305480Y-309900D01*
X-305387Y-309025D01*
X-305013Y-308275D01*
X-304453Y-307650D01*
X-303707Y-307400D01*
X-303053Y-307525D01*
X-302587Y-307775D01*
X-302120Y-308275D01*
G01X-297700Y-309025D02*
X-294713D01*
X-294993Y-308150D01*
X-295460Y-307650D01*
X-296113Y-307400D01*
X-296767Y-307525D01*
X-297327Y-307900D01*
X-297700Y-308775D01*
X-297887Y-309525D01*
Y-310275D01*
X-297700Y-311025D01*
X-297233Y-311775D01*
X-296673Y-312275D01*
X-296020Y-312400D01*
X-295367Y-312150D01*
X-294713Y-311400D01*
G01X-290200Y-311525D02*
X-289733Y-312025D01*
X-289080Y-312400D01*
X-288520D01*
X-287960Y-312150D01*
X-287587Y-311775D01*
X-287400Y-311275D01*
X-287493Y-310525D01*
X-287867Y-310150D01*
X-289547Y-309400D01*
X-289920Y-308525D01*
X-289733Y-307900D01*
X-289360Y-307525D01*
X-288800Y-307400D01*
X-288240Y-307525D01*
X-287680Y-307900D01*
G01X-281300Y-307400D02*
Y-312400D01*
G01Y-305400D02*
X-281487Y-305275D01*
Y-305025D01*
X-281300Y-304900D01*
X-281113Y-305025D01*
Y-305275D01*
X-281300Y-305400D01*
G01X-275107Y-314275D02*
X-274453Y-314775D01*
X-273707Y-314900D01*
X-273053Y-314775D01*
X-272493Y-314150D01*
X-272120Y-313275D01*
Y-307400D01*
G01Y-308400D02*
X-272493Y-307900D01*
X-273053Y-307525D01*
X-273707Y-307400D01*
X-274453Y-307650D01*
X-274920Y-308150D01*
X-275293Y-309025D01*
X-275480Y-309900D01*
X-275387Y-310650D01*
X-275013Y-311525D01*
X-274453Y-312150D01*
X-273707Y-312400D01*
X-273147Y-312275D01*
X-272493Y-311775D01*
X-272120Y-311275D01*
G01X-267887Y-312400D02*
Y-307400D01*
G01Y-308650D02*
X-267513Y-308025D01*
X-266953Y-307525D01*
X-266207Y-307400D01*
X-265553Y-307525D01*
X-264993Y-308025D01*
X-264713Y-308900D01*
Y-312400D01*
G01X-260013Y-309900D02*
X-257587D01*
G01X-252700Y-311525D02*
X-252233Y-312025D01*
X-251580Y-312400D01*
X-251020D01*
X-250460Y-312150D01*
X-250087Y-311775D01*
X-249900Y-311275D01*
X-249993Y-310525D01*
X-250367Y-310150D01*
X-252047Y-309400D01*
X-252420Y-308525D01*
X-252233Y-307900D01*
X-251860Y-307525D01*
X-251300Y-307400D01*
X-250740Y-307525D01*
X-250180Y-307900D01*
G01X-245387Y-312400D02*
Y-304900D01*
G01Y-308525D02*
X-244920Y-307900D01*
X-244453Y-307525D01*
X-243707Y-307400D01*
X-243147Y-307525D01*
X-242493Y-308025D01*
X-242213Y-308775D01*
Y-312400D01*
G01X-236300Y-307400D02*
Y-312400D01*
G01Y-305400D02*
X-236487Y-305275D01*
Y-305025D01*
X-236300Y-304900D01*
X-236113Y-305025D01*
Y-305275D01*
X-236300Y-305400D01*
G01X-229360Y-312400D02*
Y-306025D01*
X-229173Y-305400D01*
X-228800Y-305025D01*
X-228240Y-304900D01*
X-227680Y-305150D01*
X-227400Y-305775D01*
G01X-228520Y-307900D02*
X-230387D01*
G01X-221300Y-304900D02*
Y-312400D01*
G01X-222607Y-307400D02*
X-219993D01*
G01X-213800Y-312650D02*
X-213987Y-312525D01*
Y-312275D01*
X-213800Y-312150D01*
X-213613Y-312275D01*
Y-312525D01*
X-213800Y-312650D01*
G01X-204807Y-308025D02*
X-205460Y-307525D01*
X-206020Y-307400D01*
X-206767Y-307650D01*
X-207327Y-308150D01*
X-207700Y-309025D01*
X-207793Y-309900D01*
X-207700Y-310775D01*
X-207327Y-311525D01*
X-206767Y-312150D01*
X-206020Y-312400D01*
X-205367Y-312150D01*
X-204807Y-311650D01*
G01X-198800Y-312400D02*
X-199360Y-312275D01*
X-199920Y-311775D01*
X-200293Y-310900D01*
X-200480Y-309900D01*
X-200293Y-308900D01*
X-199920Y-308025D01*
X-199360Y-307525D01*
X-198800Y-307400D01*
X-198240Y-307525D01*
X-197680Y-308025D01*
X-197307Y-308900D01*
X-197213Y-309900D01*
X-197307Y-310900D01*
X-197680Y-311775D01*
X-198240Y-312275D01*
X-198800Y-312400D01*
G01X-194100D02*
Y-307400D01*
G01Y-308775D02*
X-193820Y-308150D01*
X-193353Y-307650D01*
X-192700Y-307400D01*
X-192047Y-307650D01*
X-191580Y-308150D01*
X-191300Y-308775D01*
Y-312400D01*
G01Y-308775D02*
X-191020Y-308150D01*
X-190553Y-307650D01*
X-189900Y-307400D01*
X-189247Y-307650D01*
X-188780Y-308150D01*
X-188500Y-308900D01*
Y-312400D01*
G01X-336233Y-307400D02*
X-335113Y-312400D01*
X-333900Y-307400D01*
X-332687Y-312400D01*
X-331567Y-307400D01*
G01X-328733D02*
X-327613Y-312400D01*
X-326400Y-307400D01*
X-325187Y-312400D01*
X-324067Y-307400D01*
G01X-321233D02*
X-320113Y-312400D01*
X-318900Y-307400D01*
X-317687Y-312400D01*
X-316567Y-307400D01*
G01X-311400Y-312650D02*
X-311587Y-312525D01*
Y-312275D01*
X-311400Y-312150D01*
X-311213Y-312275D01*
Y-312525D01*
X-311400Y-312650D01*
G01X-302220Y-304900D02*
Y-312400D01*
G01Y-311275D02*
X-302593Y-311900D01*
X-303153Y-312275D01*
X-303807Y-312400D01*
X-304553Y-312150D01*
X-305113Y-311525D01*
X-305487Y-310775D01*
X-305580Y-309900D01*
X-305487Y-309025D01*
X-305113Y-308275D01*
X-304553Y-307650D01*
X-303807Y-307400D01*
X-303153Y-307525D01*
X-302687Y-307775D01*
X-302220Y-308275D01*
G01X-297800Y-309025D02*
X-294813D01*
X-295093Y-308150D01*
X-295560Y-307650D01*
X-296213Y-307400D01*
X-296867Y-307525D01*
X-297427Y-307900D01*
X-297800Y-308775D01*
X-297987Y-309525D01*
Y-310275D01*
X-297800Y-311025D01*
X-297333Y-311775D01*
X-296773Y-312275D01*
X-296120Y-312400D01*
X-295467Y-312150D01*
X-294813Y-311400D01*
G01X-290300Y-311525D02*
X-289833Y-312025D01*
X-289180Y-312400D01*
X-288620D01*
X-288060Y-312150D01*
X-287687Y-311775D01*
X-287500Y-311275D01*
X-287593Y-310525D01*
X-287967Y-310150D01*
X-289647Y-309400D01*
X-290020Y-308525D01*
X-289833Y-307900D01*
X-289460Y-307525D01*
X-288900Y-307400D01*
X-288340Y-307525D01*
X-287780Y-307900D01*
G01X-281400Y-307400D02*
Y-312400D01*
G01Y-305400D02*
X-281587Y-305275D01*
Y-305025D01*
X-281400Y-304900D01*
X-281213Y-305025D01*
Y-305275D01*
X-281400Y-305400D01*
G01X-275207Y-314275D02*
X-274553Y-314775D01*
X-273807Y-314900D01*
X-273153Y-314775D01*
X-272593Y-314150D01*
X-272220Y-313275D01*
Y-307400D01*
G01Y-308400D02*
X-272593Y-307900D01*
X-273153Y-307525D01*
X-273807Y-307400D01*
X-274553Y-307650D01*
X-275020Y-308150D01*
X-275393Y-309025D01*
X-275580Y-309900D01*
X-275487Y-310650D01*
X-275113Y-311525D01*
X-274553Y-312150D01*
X-273807Y-312400D01*
X-273247Y-312275D01*
X-272593Y-311775D01*
X-272220Y-311275D01*
G01X-267987Y-312400D02*
Y-307400D01*
G01Y-308650D02*
X-267613Y-308025D01*
X-267053Y-307525D01*
X-266307Y-307400D01*
X-265653Y-307525D01*
X-265093Y-308025D01*
X-264813Y-308900D01*
Y-312400D01*
G01X-260113Y-309900D02*
X-257687D01*
G01X-252800Y-311525D02*
X-252333Y-312025D01*
X-251680Y-312400D01*
X-251120D01*
X-250560Y-312150D01*
X-250187Y-311775D01*
X-250000Y-311275D01*
X-250093Y-310525D01*
X-250467Y-310150D01*
X-252147Y-309400D01*
X-252520Y-308525D01*
X-252333Y-307900D01*
X-251960Y-307525D01*
X-251400Y-307400D01*
X-250840Y-307525D01*
X-250280Y-307900D01*
G01X-245487Y-312400D02*
Y-304900D01*
G01Y-308525D02*
X-245020Y-307900D01*
X-244553Y-307525D01*
X-243807Y-307400D01*
X-243247Y-307525D01*
X-242593Y-308025D01*
X-242313Y-308775D01*
Y-312400D01*
G01X-236400Y-307400D02*
Y-312400D01*
G01Y-305400D02*
X-236587Y-305275D01*
Y-305025D01*
X-236400Y-304900D01*
X-236213Y-305025D01*
Y-305275D01*
X-236400Y-305400D01*
G01X-229460Y-312400D02*
Y-306025D01*
X-229273Y-305400D01*
X-228900Y-305025D01*
X-228340Y-304900D01*
X-227780Y-305150D01*
X-227500Y-305775D01*
G01X-228620Y-307900D02*
X-230487D01*
G01X-221400Y-304900D02*
Y-312400D01*
G01X-222707Y-307400D02*
X-220093D01*
G01X-213900Y-312650D02*
X-214087Y-312525D01*
Y-312275D01*
X-213900Y-312150D01*
X-213713Y-312275D01*
Y-312525D01*
X-213900Y-312650D01*
G01X-204907Y-308025D02*
X-205560Y-307525D01*
X-206120Y-307400D01*
X-206867Y-307650D01*
X-207427Y-308150D01*
X-207800Y-309025D01*
X-207893Y-309900D01*
X-207800Y-310775D01*
X-207427Y-311525D01*
X-206867Y-312150D01*
X-206120Y-312400D01*
X-205467Y-312150D01*
X-204907Y-311650D01*
G01X-198900Y-312400D02*
X-199460Y-312275D01*
X-200020Y-311775D01*
X-200393Y-310900D01*
X-200580Y-309900D01*
X-200393Y-308900D01*
X-200020Y-308025D01*
X-199460Y-307525D01*
X-198900Y-307400D01*
X-198340Y-307525D01*
X-197780Y-308025D01*
X-197407Y-308900D01*
X-197313Y-309900D01*
X-197407Y-310900D01*
X-197780Y-311775D01*
X-198340Y-312275D01*
X-198900Y-312400D01*
G01X-194200D02*
Y-307400D01*
G01Y-308775D02*
X-193920Y-308150D01*
X-193453Y-307650D01*
X-192800Y-307400D01*
X-192147Y-307650D01*
X-191680Y-308150D01*
X-191400Y-308775D01*
Y-312400D01*
G01Y-308775D02*
X-191120Y-308150D01*
X-190653Y-307650D01*
X-190000Y-307400D01*
X-189347Y-307650D01*
X-188880Y-308150D01*
X-188600Y-308900D01*
Y-312400D01*
G01X-118600Y-281900D02*
X-119347Y-281775D01*
X-120000Y-281275D01*
X-120560Y-280525D01*
X-120933Y-279650D01*
X-121120Y-278650D01*
Y-277650D01*
X-120933Y-276650D01*
X-120560Y-275775D01*
X-120000Y-275025D01*
X-119347Y-274525D01*
X-118600Y-274400D01*
X-117853Y-274525D01*
X-117200Y-275025D01*
X-116640Y-275775D01*
X-116267Y-276650D01*
X-116080Y-277650D01*
Y-278650D01*
X-116267Y-279650D01*
X-116640Y-280525D01*
X-117200Y-281275D01*
X-117853Y-281775D01*
X-118600Y-281900D01*
G01X-112967D02*
Y-274400D01*
X-110633D01*
X-109887Y-274775D01*
X-109420Y-275275D01*
X-109233Y-276275D01*
X-109420Y-277275D01*
X-109980Y-277900D01*
X-110633Y-278275D01*
X-112967D01*
G01X-110633D02*
X-109233Y-281900D01*
G01X-106400Y-274400D02*
X-105093Y-281900D01*
X-103600Y-274400D01*
X-102107Y-281900D01*
X-100800Y-274400D01*
G01X-97967D02*
Y-281900D01*
X-94233D01*
G01X-59533Y-282500D02*
X-63267D01*
Y-275000D01*
X-59533D01*
G01X-61027Y-278625D02*
X-63267D01*
G01X-56233Y-275000D02*
X-53900Y-282500D01*
X-51567Y-275000D01*
G01X-46400D02*
Y-282500D01*
G01X-48547Y-275000D02*
X-44253D01*
G01X-132400Y-308900D02*
X-133067Y-309067D01*
X-133567Y-309483D01*
X-133900Y-309983D01*
X-134150Y-310650D01*
X-134233Y-311400D01*
X-134150Y-312150D01*
X-133900Y-312817D01*
X-133567Y-313317D01*
X-133067Y-313733D01*
X-132400Y-313900D01*
X-131733Y-313733D01*
X-131233Y-313317D01*
X-130900Y-312817D01*
X-130650Y-312150D01*
X-130567Y-311400D01*
X-130650Y-310650D01*
X-130900Y-309983D01*
X-131233Y-309483D01*
X-131733Y-309067D01*
X-132400Y-308900D01*
G01X-126167Y-313900D02*
X-126000Y-312817D01*
X-125750Y-311900D01*
X-125417Y-311067D01*
X-125000Y-310150D01*
X-124333Y-308900D01*
X-127667D01*
G01X-121100Y-314067D02*
X-118100Y-308900D01*
G01X-114783Y-309733D02*
X-114283Y-309233D01*
X-113700Y-308983D01*
X-113033Y-308900D01*
X-112200Y-309067D01*
X-111617Y-309483D01*
X-111450Y-309983D01*
X-111533Y-310483D01*
X-111867Y-310900D01*
X-113533Y-311733D01*
X-114283Y-312317D01*
X-114783Y-313150D01*
X-114950Y-313900D01*
X-111450D01*
G01X-106800Y-308900D02*
X-107467Y-309067D01*
X-107967Y-309483D01*
X-108300Y-309983D01*
X-108550Y-310650D01*
X-108633Y-311400D01*
X-108550Y-312150D01*
X-108300Y-312817D01*
X-107967Y-313317D01*
X-107467Y-313733D01*
X-106800Y-313900D01*
X-106133Y-313733D01*
X-105633Y-313317D01*
X-105300Y-312817D01*
X-105050Y-312150D01*
X-104967Y-311400D01*
X-105050Y-310650D01*
X-105300Y-309983D01*
X-105633Y-309483D01*
X-106133Y-309067D01*
X-106800Y-308900D01*
G01X-101900Y-314067D02*
X-98900Y-308900D01*
G01X-94000Y-313900D02*
Y-308900D01*
X-95000Y-309900D01*
G01Y-313900D02*
X-93000D01*
G01X-89433Y-313150D02*
X-88933Y-313567D01*
X-88350Y-313817D01*
X-87600Y-313900D01*
X-86850Y-313733D01*
X-86267Y-313400D01*
X-85850Y-312817D01*
X-85767Y-312150D01*
X-85933Y-311483D01*
X-86350Y-311067D01*
X-86933Y-310733D01*
X-87517Y-310650D01*
X-88100Y-310733D01*
X-88850Y-311067D01*
X-88600Y-308900D01*
X-86350D01*
G01X-81200Y-310567D02*
X-80367Y-309525D01*
Y-308900D01*
X-80992D01*
Y-309525D01*
X-80367D01*
G01X-25006Y-280215D02*
Y-275215D01*
X-27006D01*
X-27673Y-275465D01*
X-28173Y-276048D01*
X-28340Y-276715D01*
X-28173Y-277382D01*
X-27756Y-277882D01*
X-27006Y-278132D01*
X-25006D01*
G01X-30990Y-280215D02*
X-33073Y-275215D01*
X-35156Y-280215D01*
G01X-34406Y-278465D02*
X-31740D01*
G01X-37640Y-280215D02*
Y-275215D01*
X-39306D01*
X-39973Y-275465D01*
X-40473Y-275798D01*
X-40890Y-276298D01*
X-41223Y-276882D01*
X-41306Y-277715D01*
X-41223Y-278548D01*
X-40890Y-279132D01*
X-40473Y-279632D01*
X-39973Y-279965D01*
X-39306Y-280215D01*
X-37640D01*
G01X-43373Y-281882D02*
X-48373D01*
G01X-52940Y-277548D02*
X-53273Y-277298D01*
X-53523Y-276882D01*
X-53690Y-276298D01*
X-53523Y-275798D01*
X-53190Y-275465D01*
X-52606Y-275215D01*
X-50356D01*
Y-280215D01*
X-53106D01*
X-53690Y-279882D01*
X-54023Y-279382D01*
X-54190Y-278798D01*
X-54023Y-278215D01*
X-53523Y-277715D01*
X-52940Y-277548D01*
X-50356D01*
G01X-58673Y-280215D02*
X-58006Y-280132D01*
X-57423Y-279798D01*
X-56923Y-279298D01*
X-56590Y-278715D01*
X-56423Y-278048D01*
Y-277382D01*
X-56590Y-276715D01*
X-56923Y-276132D01*
X-57423Y-275632D01*
X-58006Y-275298D01*
X-58673Y-275215D01*
X-59340Y-275298D01*
X-59923Y-275632D01*
X-60423Y-276132D01*
X-60756Y-276715D01*
X-60923Y-277382D01*
Y-278048D01*
X-60756Y-278715D01*
X-60423Y-279298D01*
X-59923Y-279798D01*
X-59340Y-280132D01*
X-58673Y-280215D01*
G01X-65073Y-275215D02*
Y-280215D01*
G01X-63156Y-275215D02*
X-66990D01*
G54D59*
X-316827Y123634D03*
X-303835Y136626D03*
Y123634D03*
X-290843Y136626D03*
Y123634D03*
X-277851Y136626D03*
Y123634D03*
G54D86*
X-176700Y13900D03*
X-182500D03*
X-14200Y177400D03*
X-20000D03*
X-38500Y130600D03*
X-32700D03*
G54D77*
X-328807Y323239D03*
X-329921Y322126D03*
X-331034Y321012D03*
X-325467Y326580D03*
X-326580Y325467D03*
X-327693Y324353D03*
X-322126Y329921D03*
X-323239Y328807D03*
X-324353Y327693D03*
X-321012Y331034D03*
G36*
G01X-68166Y47146D02*
G02X-70950Y44362I-1392J-1392D01*
G01X-74847Y48258D01*
G02X-74917Y48333I1397J1388D01*
G02X-74986Y50904I1183J1318D01*
G01X-73038Y52852D01*
G02X-70532Y50347I1253J-1252D01*
G01X-70950Y49930D01*
X-68166Y47146D01*
G37*
G54D68*
X-326535Y269276D03*
Y272425D03*
Y270850D03*
Y274000D03*
Y275575D03*
Y278724D03*
Y277150D03*
X-332035Y243776D03*
Y246925D03*
Y245350D03*
Y248500D03*
Y250075D03*
Y253224D03*
Y251650D03*
G54D96*
X-60161Y35104D03*
X-35105Y60160D03*
G54D87*
X-143984Y15248D03*
X-142016D03*
X-143984Y33752D03*
X-142016D03*
X-216179Y131836D03*
X-214210D03*
X-220116D03*
X-218147D03*
X-222084D03*
X-226021D03*
X-224053D03*
X-227990D03*
X-216179Y111364D03*
X-214210D03*
X-220116D03*
X-218147D03*
X-222084D03*
X-226021D03*
X-224053D03*
X-227990D03*
G54D78*
X-287739Y358174D03*
X-283007Y353442D03*
X-272149Y373764D03*
X-267417Y369032D03*
G54D69*
X-318465Y269276D03*
Y270850D03*
Y272425D03*
Y274000D03*
Y275575D03*
Y278724D03*
Y277150D03*
X-323965Y243776D03*
Y245350D03*
Y246925D03*
Y248500D03*
Y250075D03*
Y253224D03*
Y251650D03*
G54D97*
X-16535Y196851D03*
G54D88*
X-148315Y17610D03*
X-137685D03*
X-148315Y19579D03*
X-137685D03*
X-148315Y21547D03*
X-137685D03*
X-148315Y23516D03*
X-137685D03*
X-148315Y25484D03*
X-137685D03*
X-148315Y27453D03*
X-137685D03*
X-148315Y29421D03*
X-137685D03*
X-148315Y31390D03*
X-137685D03*
X-210864Y128490D03*
X-231336D03*
X-210864Y124553D03*
Y126521D03*
X-231336Y124553D03*
Y126521D03*
X-210864Y122584D03*
X-231336D03*
X-210864Y118647D03*
Y120616D03*
X-231336Y118647D03*
Y120616D03*
X-210864Y114710D03*
Y116679D03*
X-231336D03*
Y114710D03*
X-164507Y358213D03*
G54D79*
X-142400Y-6400D03*
G54D98*
X-24891Y277238D03*
G54D89*
X-143000Y24500D03*
G54D99*
X-248500Y51390D03*
Y49500D03*
M02*
