G04 ================== begin FILE IDENTIFICATION RECORD ==================*
G04 Layout Name:  ORWL_Design_SHIFT.brd*
G04 Film Name:    sgnd*
G04 File Format:  Gerber RS274X*
G04 File Origin:  Cadence Allegro 16.6-P004*
G04 Origin Date:  Sat Sep 19 15:46:42 2015*
G04 *
G04 Layer:  ANTI ETCH/SGND*
G04 Layer:  VIA CLASS/SGND*
G04 Layer:  PIN/SGND*
G04 Layer:  ETCH/SGND*
G04 Layer:  DRAWING FORMAT/SGND*
G04 Layer:  BOARD GEOMETRY/LOGO*
G04 *
G04 Offset:    (0.00 0.00)*
G04 Mirror:    No*
G04 Mode:      Negative*
G04 Rotation:  0*
G04 FullContactRelief:  Yes*
G04 UndefLineWidth:     6.00*
G04 ================== end FILE IDENTIFICATION RECORD ====================*
%FSLAX45Y45*MOIN*%
%IR0*IPPOS*OFA0.00000B0.00000*MIA0B0*SFA1.00000B1.00000*%
%AMMACRO20*
21,1,.012,.105,0.0,0.0,118.*
1,1,.105,-.002817,.005298*
1,1,.105,.002817,-.005298*%
%ADD20MACRO20*%
%AMMACRO19*
21,1,.012,.105,0.0,0.0,107.424*
1,1,.105,-.001797,.005725*
1,1,.105,.001797,-.005725*%
%ADD19MACRO19*%
%ADD17C,.05*%
%ADD15C,.023*%
%AMMACRO10*
21,1,.015,.044,0.0,0.0,135.*
1,1,.044,-.005303,.005303*
1,1,.044,.005303,-.005303*%
%ADD10MACRO10*%
%ADD14C,.025*%
%ADD18C,.036*%
%ADD12C,.063*%
%ADD23C,.055*%
%ADD22C,.029*%
%ADD11C,.083*%
%ADD13C,.048*%
%ADD16C,.105*%
%AMMACRO21*
21,1,.015,.044,0.0,0.0,45.*
1,1,.044,.005303,.005303*
1,1,.044,-.005303,-.005303*%
%ADD21MACRO21*%
%ADD24C,.02*%
%ADD25C,.014*%
%ADD26C,.015*%
%ADD27C,.006*%
%ADD29C,.07302*%
%ADD32C,.07254*%
%ADD30C,.06454*%
%ADD31C,.09254*%
%ADD33C,.05754*%
%ADD28C,.11502*%
G75*
%LPD*%
G75*
G36*
G01X-540000Y-500000D02*
X1130000D01*
Y630000D01*
X-540000D01*
Y-500000D01*
G37*
%LPC*%
G75*
G36*
G01X-143062Y-12661D02*
G02X-335788Y31064I-53789J209513D01*
G03X-336924Y31188I-657J-755D01*
G02X-337119Y31216I-79J144D01*
G03X-337121Y31218I-709J-707D01*
G01X-362484Y56582D01*
G02X-362512Y56776I116J116D01*
G03X-362647Y57927I-879J480D01*
G02X-384275Y88866I165785J138922D01*
G01Y88867D01*
G02X-384225Y89084I143J81D01*
G03X-384217Y89089I-527J851D01*
G03X-394067Y108396I-5546J9337D01*
G03X-394076Y108392I402J-917D01*
G02X-394281Y108479I-55J155D01*
G01Y108480D01*
G02X-315387Y377786I197429J88372D01*
G01X-310466Y368531D01*
G03X-310452Y368505I888J462D01*
G01X-309996Y367648D01*
X-309151Y368097D01*
G03X-309112Y368117I-437J901D01*
G01X-300395Y372753D01*
G03X-300370Y372767I-477J880D01*
G01X-299512Y373223D01*
X-299962Y374069D01*
G03X-299981Y374107I-905J-429D01*
G01X-305257Y384030D01*
G02X-245224Y407677I108402J-187175D01*
G01X-242315Y396821D01*
G03X-242302Y396775I970J249D01*
G01X-242055Y395855D01*
X-241130Y396103D01*
G03X-241089Y396113I-217J977D01*
G01X-231551Y398669D01*
G03X-231502Y398684I-268J964D01*
G01X-230586Y398929D01*
X-230830Y399838D01*
G03X-230843Y399895I-982J-194D01*
G01X-233556Y410020D01*
G02X-188111Y412980I36704J-213172D01*
G03X-188103I4J1000D01*
G02X-187947Y412796I-7J-164D01*
G03X-187538Y408280I10781J-1300D01*
G03X-167563Y406426I10372J3214D01*
G03X-166328Y410813I-9603J5071D01*
G02X-166141Y410965I164J-11D01*
G01X-166140D01*
G02X587Y108497I-30711J-214115D01*
G02X359Y108420I-150J67D01*
G03X321Y108440I-485J-876D01*
G03X-3865Y109706I-5172J-9548D01*
G03X-12893Y91595I-987J-10814D01*
G03X-9537Y89096I8042J7297D01*
G03X-9507Y89081I463J888D01*
G02X-9435Y88851I-71J-148D01*
G01Y88850D01*
G02X-31064Y57913I-187426J108006D01*
G03X-31188Y56777I755J-657D01*
G02X-31207Y56592I-144J-79D01*
G03X-31217Y56582I703J-713D01*
G01X-56582Y31217D01*
G03X-56592Y31207I703J-713D01*
G02X-56777Y31188I-106J125D01*
G03X-57913Y31064I-479J-879D01*
G02X-93257Y6963I-138934J165780D01*
G03X-92700Y13217I-4521J3554D01*
G01X-93264Y14276D01*
G03X-103420Y8877I-5078J-2699D01*
G01X-102856Y7818D01*
G03X-97360Y4782I5078J2700D01*
G02X-102282Y2311I-99499J192056D01*
G03X-102290Y2307I443J-896D01*
G01X-107569Y12232D01*
G03X-107582Y12256I-887J-465D01*
G01X-108039Y13115D01*
X-108884Y12666D01*
G03X-108923Y12646I437J-901D01*
G01X-117640Y8010D01*
G03X-117665Y7996I477J-880D01*
G01X-118523Y7540D01*
X-118073Y6694D01*
G03X-118054Y6656I905J429D01*
G01X-113134Y-2599D01*
G02X-122054Y-6112I-83697J199438D01*
G01X-124784Y4078D01*
G03X-124798Y4124I-964J-268D01*
G01X-125044Y5044D01*
X-125969Y4796D01*
G03X-126010Y4786I217J-977D01*
G01X-135548Y2230D01*
G03X-135597Y2215I268J-964D01*
G01X-136513Y1970D01*
X-136270Y1061D01*
G03X-136256Y1004I979J210D01*
G01X-133329Y-9918D01*
G02X-138645Y-11477I-63525J206769D01*
G03X-136733Y-5250I-3575J4505D01*
G01X-137093Y-4106D01*
G03X-148067Y-7550I-5487J-1722D01*
G01X-147707Y-8694D01*
G03X-143062Y-12661I5487J1722D01*
G37*
%LPD*%
G75*
G36*
G01X-279280Y359123D02*
X-281747D01*
X-283491Y360867D01*
Y363333D01*
X-282369Y364454D01*
X-282639D01*
X-284383Y366198D01*
Y368664D01*
X-282639Y370408D01*
X-280174D01*
X-278428Y368663D01*
Y366198D01*
X-279549Y365077D01*
X-279281D01*
X-277536Y363333D01*
Y360867D01*
X-279280Y359123D01*
G37*
G36*
G01X-272517Y356798D02*
X-274983D01*
X-276727Y358542D01*
X-276728Y360867D01*
Y361008D01*
X-274983Y362753D01*
X-272664D01*
Y363333D01*
X-270919Y365077D01*
X-268454D01*
X-266709Y363333D01*
Y360867D01*
X-268453Y359123D01*
X-270773D01*
Y358542D01*
X-272517Y356798D01*
G37*
G36*
G01X-224702Y363482D02*
G02X-226935Y362939I-298J-3639D01*
G02X-224702Y363482I298J3639D01*
G37*
G36*
G01X-343226Y66953D02*
G02X-347012Y63167I-1893J-1893D01*
G01X-348073Y64228D01*
G02X-344287Y68014I1893J1893D01*
G01X-343226Y66953D01*
G37*
G36*
G01X-64228Y45627D02*
G02X-68014Y49413I-1893J1893D01*
G01X-66953Y50474D01*
G02X-63167Y46688I1893J-1893D01*
G01X-64228Y45627D01*
G37*
G54D29*
X-259689Y372803D03*
X-255315Y345276D03*
X-124629Y77836D03*
X-149016Y72244D03*
X-118701Y57677D03*
X-145947Y51822D03*
G54D32*
X-324606Y157480D03*
G54D30*
X-55359Y350173D03*
X-43527Y338341D03*
G54D31*
X-324606Y236220D03*
G54D33*
X-47495Y66146D03*
X-327554Y47495D03*
G54D28*
X-251314Y400113D03*
X-295641Y382651D03*
G54D20*
X-98060Y11047D03*
G54D19*
X-142400Y-6400D03*
G54D10*
X-345650Y65591D03*
G54D15*
X-371600Y232500D03*
X-375490Y236845D03*
X-338000Y215300D03*
X-337600Y217100D03*
X-339388Y216428D03*
X-339522Y214667D03*
X-371700Y230200D03*
X-338000Y237600D03*
X-349400Y231600D03*
X-351500Y233500D03*
X-352300Y235200D03*
X-349700Y233500D03*
X-350600Y235000D03*
X-346200Y164300D03*
X-344400Y164200D03*
Y166000D03*
X-346100D03*
X-342900Y165200D03*
X-354600Y144300D03*
X-372100Y159400D03*
X-334700Y249100D03*
X-331400Y248600D03*
X-333100D03*
X-335900Y250300D03*
X-305040Y288570D03*
X-359900Y297500D03*
X-358600Y296100D03*
X-314800Y238700D03*
X-315400Y240600D03*
X-287542Y200798D03*
X-291400Y188667D03*
X-303660Y216610D03*
X-345300Y259700D03*
X-314300Y251600D03*
X-352900Y310200D03*
X-351200D03*
X-352900Y308500D03*
X-316300Y254900D03*
X-316100Y253100D03*
X-324000Y227900D03*
Y226200D03*
X-325800Y228170D03*
X-327510Y228190D03*
X-326600Y226220D03*
X-293600Y244700D03*
X-307950Y233763D03*
X-370700Y260500D03*
X-296200Y254100D03*
X-280994Y228071D03*
X-277294Y302953D03*
X-314500Y255100D03*
X-314400Y253300D03*
X-279594Y204653D03*
X-276180Y248440D03*
X-320000Y280500D03*
X-278900Y192600D03*
X-309000Y278300D03*
X-318800Y184900D03*
X-313300Y193400D03*
X-288394Y255853D03*
X-278600Y209800D03*
X-305900Y250800D03*
X-294694Y247053D03*
X-297300Y243653D03*
X-284194Y248053D03*
X-292500Y261200D03*
X-293700Y264300D03*
X-289080Y259430D03*
X-368227Y246069D03*
X-305800Y244700D03*
X-276994Y241700D03*
X-338690Y271040D03*
X-285000Y240500D03*
X-328900Y274900D03*
X-306715Y275200D03*
X-291894Y246453D03*
X-281694Y245253D03*
X-302594Y231453D03*
X-293600Y233600D03*
X-297500Y236800D03*
X-289294Y228653D03*
X-313400Y272800D03*
X-337600Y266300D03*
X-288494Y250553D03*
X-286200Y255800D03*
X-288894Y236253D03*
X-307190Y216740D03*
X-375500Y262900D03*
X-319000Y268500D03*
X-334500Y263500D03*
X-280100Y251900D03*
X-333300Y195100D03*
X-368000Y256319D03*
X-335520Y244680D03*
X-304750Y282490D03*
X-311500Y260410D03*
X-301700Y189000D03*
X-318900Y212100D03*
X-318800Y210000D03*
X-286620Y235880D03*
X-287000Y220800D03*
Y218708D03*
X-284000Y184500D03*
X-286200Y184200D03*
X-278700Y184400D03*
X-276600Y184200D03*
X-299609Y221827D03*
X-300400Y226250D03*
X-284400Y186700D03*
X-298500Y188200D03*
X-306600Y278300D03*
X-298794Y247053D03*
X-311594Y235353D03*
X-302400Y241300D03*
X-304895Y276500D03*
X-276774Y198053D03*
X-281593Y209252D03*
X-320660Y261350D03*
X-319000Y261770D03*
X-319020Y260140D03*
X-319350Y258530D03*
X-320710Y259690D03*
X-357400Y260800D03*
X-353300D03*
X-355000D03*
X-329400Y262600D03*
Y264300D03*
X-331060Y259940D03*
X-331200Y261600D03*
X-329400Y260800D03*
X-281630Y211589D03*
X-282794Y294653D03*
X-279694Y313053D03*
X-334900Y238400D03*
Y236600D03*
X-336700D03*
X-332100Y203900D03*
X-333700D03*
X-335300D03*
X-330200Y203800D03*
X-328000Y205900D03*
X-337879Y256744D03*
X-337900Y255100D03*
X-339300Y254100D03*
X-339269Y255940D03*
X-338600Y252600D03*
X-289194Y218053D03*
X-370000Y253500D03*
X-385000Y250100D03*
X-386386Y246700D03*
X-277100Y232900D03*
X-288394Y238353D03*
X-298100Y266680D03*
X-301300Y254200D03*
X-329800Y205925D03*
X-336500Y238200D03*
X-334600Y205925D03*
X-333000D03*
X-331400D03*
X-336200D03*
X-310000Y189500D03*
Y223780D03*
X-311440Y222960D03*
X-312990Y223510D03*
X-307740Y220740D03*
X-307990Y218990D03*
X-281773Y221953D03*
X-281587Y216660D03*
X-281594Y234453D03*
X-281694Y236953D03*
X-281780Y219853D03*
X-298000Y225400D03*
X-294300Y240300D03*
X-294200Y219900D03*
X-307500Y242200D03*
X-301200Y250100D03*
X-306100Y236100D03*
X-278444Y290253D03*
X-301900Y272700D03*
X-303400Y274100D03*
X-335983Y217669D03*
X-304600Y229300D03*
X-281594Y232253D03*
X-322900Y214900D03*
X-285864Y191703D03*
X-361500Y303000D03*
X-288330Y192900D03*
X-278894Y198053D03*
X-278700Y194900D03*
X-283350Y203550D03*
X-286100Y202700D03*
X-278400Y215900D03*
X-279400Y217728D03*
X-291560Y232690D03*
X-302800Y223000D03*
X-304850Y226250D03*
X-288300Y244600D03*
X-283794Y194953D03*
X-281518Y207093D03*
X-277100Y205390D03*
X-276000Y201500D03*
X-293900Y186900D03*
X-288618Y94632D03*
X-316000Y165000D03*
X-296520Y171260D03*
X-299300Y171400D03*
X-297100Y53300D03*
X-294500Y53100D03*
X-329100Y100200D03*
X-330900D03*
X-331400Y101900D03*
X-329500Y102100D03*
X-292300Y159600D03*
X-287200Y215900D03*
X-276300Y220000D03*
X-278400Y219700D03*
X-287100Y212800D03*
X-276700Y225400D03*
X-297814Y230086D03*
X-278294Y230746D03*
X-276149Y230797D03*
X-275800Y213900D03*
X-277900D03*
X-312985Y302300D03*
X-311600Y303800D03*
X-300700Y69300D03*
X-302500Y70900D03*
X-326900Y91400D03*
X-308300Y75300D03*
X-306200Y73400D03*
X-276386Y165600D03*
X-296900Y213200D03*
X-294700Y213900D03*
X-337200Y141900D03*
X-335100Y142000D03*
X-334600Y98600D03*
X-333100Y97100D03*
X-320900Y311100D03*
X-317860Y297830D03*
X-319385Y296400D03*
X-322500Y309700D03*
X-307894Y311900D03*
X-309500Y310275D03*
X-349500Y115100D03*
Y117400D03*
X-328400Y92900D03*
X-291600Y361800D03*
X-298900Y363000D03*
X-277800Y329200D03*
X-279400Y329300D03*
X-289950Y369000D03*
X-293600Y347726D03*
X-277000Y375500D03*
X-280080D03*
X-302600Y361200D03*
X-321500Y317500D03*
X-319700Y318700D03*
X-302620Y319940D03*
X-304100Y318500D03*
X-199587Y-1500D03*
X-170200Y10700D03*
X-247800Y20400D03*
X-211398Y-1500D03*
X-209901Y-4200D03*
X-197618Y-5000D03*
X-206800Y0D03*
X-182700Y400D03*
X-170100Y12600D03*
X-195686Y-1500D03*
X-201726Y-1608D03*
X-206700Y2200D03*
X-200600Y2000D03*
X-272089Y236948D03*
X-274194Y239753D03*
X-274000Y236312D03*
X-272600Y229600D03*
X-271894Y240353D03*
X-271994Y226153D03*
X-271900Y214300D03*
X-274300Y203180D03*
X-272900Y216100D03*
X-273000Y218900D03*
X-272569Y204400D03*
X-272470Y209350D03*
X-249500Y185800D03*
X-254920Y211210D03*
X-254700Y206400D03*
X-254880Y213870D03*
X-251394Y205453D03*
X-245300Y190600D03*
X-269100Y230400D03*
X-183494Y290353D03*
X-204694Y307753D03*
X-260194Y290453D03*
X-244324Y308022D03*
X-168894Y304233D03*
X-260666Y234081D03*
X-137806Y311080D03*
X-35600Y230200D03*
X-148900Y297000D03*
X-112700Y243100D03*
X-88700Y241800D03*
X-109100Y292000D03*
X-107500D03*
X-105800D03*
X-109700Y294500D03*
X-108000Y294600D03*
X-106300D03*
X-104600Y294700D03*
X-104100Y291900D03*
X-206100Y194700D03*
X-219200Y189100D03*
X-266500Y182800D03*
X-109200Y233900D03*
X-102700Y244100D03*
X-163400Y241700D03*
X-161200Y279500D03*
X-92000Y224000D03*
X-92400Y254900D03*
X-97700Y254100D03*
X-98200Y220100D03*
X-78700Y225300D03*
X-80700Y254600D03*
X-106500Y252100D03*
X-106700Y223100D03*
X-107200Y231800D03*
X-225794Y241953D03*
X-66200Y299100D03*
X-224920Y199190D03*
X-212400Y192900D03*
X-213915Y200232D03*
X-117200Y199000D03*
Y196900D03*
X-96200Y245600D03*
X-80700Y222800D03*
X-96700Y241474D03*
X-111200Y234300D03*
X-107200Y227800D03*
X-87500Y216000D03*
X-73700Y229600D03*
X-56000Y277300D03*
X-52800Y256100D03*
X-85380Y230200D03*
X-114009Y309190D03*
X-85500Y222100D03*
X-90600Y231800D03*
X-101200Y245700D03*
X-79200Y244600D03*
X-99200Y228600D03*
X-223100Y200300D03*
X-201594Y238100D03*
X-215494Y235953D03*
X-177994Y314853D03*
X-202694Y244953D03*
X-205469Y245153D03*
X-201794Y241253D03*
X-242132Y250653D03*
X-252394Y241053D03*
X-116200Y243100D03*
X-86000Y250200D03*
X-101100Y225500D03*
X-96100Y213200D03*
X-100100Y212900D03*
X-96400Y223100D03*
X-258294Y239553D03*
X-186194Y306353D03*
X-200794Y256353D03*
X-184594Y307853D03*
X-197794Y259953D03*
X-177994Y310953D03*
X-192294Y258353D03*
X-203494Y253513D03*
X-173994Y312953D03*
X-200494Y248253D03*
X-171574Y310253D03*
X-176094Y311053D03*
X-200204Y251693D03*
X-200484Y242953D03*
X-173444Y310653D03*
X-196564Y252253D03*
X-174094Y304863D03*
X-194694Y247353D03*
X-171694Y304423D03*
X-176201Y303006D03*
X-198094Y250813D03*
X-175694Y301053D03*
X-199994Y254353D03*
X-195019Y254463D03*
X-173694Y301053D03*
X-189494Y314603D03*
X-212094Y246353D03*
X-213464Y240853D03*
X-212761Y242620D03*
X-185794Y314853D03*
X-206294Y239653D03*
X-208194Y239553D03*
X-180994Y310853D03*
X-196464Y261753D03*
X-182594Y306593D03*
X-193694Y266783D03*
X-179694Y306853D03*
X-197794Y255753D03*
X-180194Y304953D03*
X-197784Y257853D03*
X-242369Y258858D03*
X-250889Y305253D03*
X-238194Y259453D03*
X-250744Y301153D03*
X-241194Y264253D03*
X-248474Y301153D03*
X-240294Y261753D03*
X-252794Y297453D03*
X-244394Y264453D03*
X-250694Y297453D03*
X-245794Y268753D03*
X-248644Y297453D03*
X-244294Y267253D03*
X-186094Y304253D03*
X-202694Y257253D03*
X-246094Y249253D03*
X-261994Y305653D03*
X-245594Y251353D03*
X-256694Y297453D03*
X-249894Y269953D03*
X-254694Y293453D03*
X-254294Y267453D03*
X-257394Y291033D03*
X-252194Y267353D03*
X-256594Y295553D03*
X-251994Y270053D03*
X-256994Y292903D03*
X-254094Y270653D03*
X-262784Y293553D03*
X-249894Y267253D03*
Y265153D03*
X-263224Y291153D03*
X-264641Y295660D03*
X-241494Y253653D03*
X-266594Y295153D03*
X-236994Y250653D03*
X-266594Y293153D03*
X-243094Y262053D03*
X-253044Y308953D03*
X-238194Y257353D03*
X-250826Y309153D03*
X-238194Y254953D03*
X-246894Y309073D03*
X-238194Y252853D03*
X-252794Y305253D03*
X-245494Y254943D03*
X-256794Y300453D03*
X-261054Y302053D03*
X-247303Y253453D03*
X-260364Y295453D03*
X-260564Y293213D03*
X-260780Y299167D03*
X-247294Y257653D03*
X-262694Y299653D03*
X-244794Y246553D03*
X-259894Y305418D03*
X-264094Y305653D03*
X-241894Y242753D03*
X-86037Y232963D03*
X-80700Y229900D03*
X-109300Y231800D03*
X-113200Y234600D03*
X-94137Y241437D03*
X-101800Y230600D03*
X-251939Y290286D03*
X-251879Y292486D03*
X-246934Y311153D03*
X-248924Y311453D03*
X-170827Y315708D03*
X-173027Y315768D03*
X-261737Y239661D03*
X-82200Y243400D03*
X-83390Y230000D03*
X-92100Y230400D03*
X-97700Y249100D03*
X-112200Y227600D03*
X-107000Y249900D03*
X-110000Y250100D03*
X-91700Y249500D03*
X-92488Y244100D03*
X-219800Y191700D03*
X-270505Y235095D03*
X-102700Y239600D03*
X-77400Y231100D03*
X-28700Y225300D03*
X-98600Y234100D03*
X-55626Y263017D03*
X-99300Y243200D03*
X-88189Y238413D03*
X-90800Y241800D03*
X-96300Y231300D03*
X-104200Y230200D03*
X-83700Y235100D03*
X-207400Y191800D03*
X-69700Y247600D03*
X-93500Y247100D03*
X-270530Y200850D03*
X-269494Y202653D03*
X-262894Y206953D03*
X-102663Y232963D03*
X-107200Y244900D03*
X-117200Y223400D03*
X-87200Y225700D03*
X-89700Y250900D03*
X-84200Y238100D03*
X-86000Y235031D03*
X-88700Y244974D03*
X-78200Y238600D03*
X-91126Y246700D03*
X-80700Y227200D03*
X-102631Y235031D03*
X-84200Y254600D03*
X-102400Y253800D03*
X-102200Y220600D03*
X-217193Y238849D03*
X-216794Y231653D03*
X-164694Y237053D03*
X-216946Y234185D03*
X-204194Y243483D03*
X-205469Y248553D03*
X-201994Y249723D03*
X-68700Y249600D03*
X-75700Y262100D03*
X-43909Y242897D03*
X-262694Y243053D03*
X-265794Y300453D03*
X-175194Y284853D03*
X-168294Y301653D03*
X-265132Y241125D03*
X-80900Y303100D03*
X-248494Y242053D03*
X-244694Y240653D03*
X-213294Y248153D03*
X-212768Y244553D03*
X-182857Y301447D03*
X-188763Y301507D03*
X-191400Y304084D03*
X-206094Y296753D03*
X-252594Y256453D03*
X-247894Y288953D03*
X-233739Y256453D03*
X-212594D03*
X-257194Y309773D03*
X-161100Y281900D03*
Y283600D03*
Y288700D03*
Y285300D03*
Y287000D03*
Y290300D03*
Y291900D03*
X-224494Y240153D03*
X-237594Y240653D03*
X-234819D03*
X-221944Y240153D03*
X-232094D03*
X-229544D03*
X-227044D03*
X-239694D03*
X-249794D03*
X-247294D03*
X-241294Y256653D03*
X-222894Y256953D03*
X-243894Y297653D03*
X-264694Y286553D03*
X-191482Y309653D03*
X-206094Y313653D03*
X-196594Y287253D03*
X-258694Y232753D03*
X-261594Y223253D03*
X-267194Y223853D03*
X-262616Y212953D03*
X-260666Y213025D03*
X-259294Y209053D03*
X-264780Y215639D03*
X-258716Y212553D03*
X-256766Y212481D03*
X-117000Y194800D03*
Y193200D03*
Y191400D03*
X-118700Y191300D03*
Y193100D03*
Y194800D03*
X-121500Y190700D03*
X-120500Y218000D03*
X-252526Y218419D03*
X-126300Y180800D03*
X-123600Y181100D03*
X-121900D03*
X-147700Y308000D03*
X-82200Y247600D03*
X-55610Y260519D03*
X-91200Y252300D03*
X-257480Y215639D03*
X-257494Y227653D03*
Y225053D03*
X-268066Y207053D03*
X-267808Y209039D03*
X-267780Y211239D03*
X-87500Y311200D03*
X-262794Y221353D03*
X-260666Y221381D03*
X-264894Y232153D03*
X-99700Y223700D03*
X-243494Y237553D03*
X-231532Y237074D03*
X-233141Y236828D03*
X-235870Y236890D03*
X-248594Y237753D03*
X-245994Y237553D03*
X-253650Y232070D03*
X-253694Y227753D03*
Y225553D03*
Y234353D03*
X-253794Y223253D03*
X-257494Y234453D03*
X-256194Y236053D03*
X-62800Y226100D03*
X-268794Y217553D03*
X-95600Y254400D03*
X-89900D03*
X-130900Y238200D03*
X-96900Y227600D03*
X-71200Y242100D03*
X-66700Y234600D03*
X-266100Y235700D03*
X-134300Y238200D03*
X-132600D03*
X-146200Y238100D03*
X-147900D03*
X-146400Y240700D03*
X-148100D03*
X-144700D03*
X-77400Y228600D03*
X-68700Y229600D03*
X-144900Y242400D03*
X-149800D03*
X-148100D03*
X-146500D03*
X-149800Y240700D03*
X-136700D03*
X-135100Y239700D03*
X-107900Y242600D03*
X-159600Y225700D03*
X-267780Y220039D03*
X-144000Y226900D03*
X-142300Y223300D03*
X-144000Y223400D03*
X-142300Y226900D03*
X-144000Y225100D03*
X-107200Y247900D03*
X-46300Y283500D03*
X-256794Y238153D03*
X-267360Y231940D03*
X-261494Y229353D03*
Y227653D03*
X-240556Y232132D03*
X-236650D03*
X-236670Y223331D03*
X-240556Y223135D03*
X-236676Y212343D03*
X-236675Y207936D03*
X-236644Y218953D03*
X-240587Y212343D03*
X-240594Y218953D03*
X-240587Y207936D03*
X-101200Y250100D03*
X-58200Y248100D03*
X-246694Y291853D03*
X-202594Y292253D03*
X-168494Y294242D03*
X-169100Y227220D03*
X-166780Y217440D03*
X-166840Y220660D03*
X-169070Y220670D03*
X-166730Y223960D03*
X-168980Y223980D03*
X-170870Y222600D03*
X-166820Y227200D03*
X-170820Y213310D03*
X-168950Y217470D03*
X-168980Y214260D03*
X-166750Y214240D03*
X-174700Y222200D03*
X-174500Y215700D03*
X-174700Y217700D03*
Y219800D03*
X-168980Y211500D03*
X-166720Y211460D03*
X-230512Y216935D03*
X-220696Y217049D03*
X-230512Y212535D03*
X-228495Y212665D03*
X-214709Y219665D03*
X-214710Y217093D03*
X-224591Y208272D03*
X-212626Y211819D03*
X-218094Y209153D03*
X-208626Y211819D03*
X-210626D03*
X-214626D03*
X-216626D03*
X-179570Y217770D03*
X-181200Y217800D03*
X-179570Y220370D03*
X-181200Y220400D03*
X-208869Y217085D03*
X-210818Y217101D03*
X-212761Y217085D03*
X-208892Y219657D03*
X-210826Y219649D03*
X-212760Y219672D03*
X-230494Y221353D03*
X-224591Y217072D03*
X-220644Y221453D03*
X-228495Y217065D03*
X-220696Y212649D03*
X-220686Y208059D03*
X-228495Y230265D03*
Y225865D03*
X-230494Y225753D03*
X-224591Y225872D03*
Y230272D03*
X-230394Y234553D03*
X-220704Y234648D03*
X-230494Y230153D03*
X-182820Y220450D03*
X-184440Y220470D03*
X-186070Y220500D03*
X-187780D03*
X-189400Y220470D03*
X-191030Y220450D03*
X-191000Y217590D03*
X-189370Y217610D03*
X-187750Y217640D03*
X-186040D03*
X-184410Y217610D03*
X-182790Y217590D03*
X-177950Y220350D03*
X-176300Y220300D03*
X-177950Y217750D03*
X-176300Y217700D03*
X-228494Y221453D03*
X-224599Y234671D03*
X-228507Y234468D03*
X-220696Y225849D03*
X-230512Y208035D03*
X-224591Y212672D03*
X-262194Y235853D03*
X-212194Y204453D03*
X-224594Y221453D03*
X-220696Y230249D03*
X-228495Y208265D03*
X-204300Y186800D03*
X-86637Y241600D03*
X-247794Y202553D03*
X-230500Y181200D03*
X-245800Y182100D03*
X-248354Y216733D03*
X-248334Y218919D03*
X-248308Y227727D03*
X-248354Y223316D03*
X-248366Y232134D03*
X-248340Y229951D03*
X-248327Y225528D03*
X-244330Y184710D03*
X-248330Y207935D03*
X-248334Y212329D03*
X-248354Y210144D03*
X-248347Y214547D03*
X-230800Y186300D03*
X-166580Y198790D03*
X-168930Y198690D03*
X-166570Y201670D03*
X-168860Y201770D03*
X-168740Y187240D03*
X-166430Y187230D03*
X-174350Y204090D03*
X-172600Y204020D03*
X-170950Y204070D03*
X-166530Y195710D03*
X-168860Y195740D03*
X-171760Y197690D03*
X-173370Y197670D03*
X-175120Y197740D03*
X-166560Y189650D03*
X-168900Y189690D03*
X-166560Y192640D03*
X-168780Y192790D03*
X-232694Y216753D03*
Y214553D03*
X-180980Y187980D03*
X-184940Y187900D03*
X-185900Y197620D03*
X-184150Y197550D03*
X-180240Y204060D03*
X-183520Y204070D03*
X-181870Y204050D03*
X-187290Y204060D03*
X-185270Y204140D03*
X-189220Y197580D03*
X-190970Y197650D03*
X-182440Y197570D03*
X-187570Y197600D03*
X-180410Y197620D03*
X-189500Y187880D03*
X-223164Y203634D03*
X-190800Y203950D03*
X-189160Y203990D03*
X-228309Y203675D03*
X-225715Y203651D03*
X-220738Y203655D03*
X-237198Y203808D03*
X-244093Y234662D03*
X-242130Y234656D03*
X-232794Y229978D03*
X-232761Y232151D03*
X-240195Y234671D03*
X-236295D03*
X-238245Y234661D03*
X-232894Y227653D03*
X-232772Y234345D03*
X-232190Y203785D03*
X-232694Y225453D03*
X-232894Y223153D03*
X-176450Y187440D03*
X-178660Y197550D03*
X-178490Y203990D03*
X-176750Y204070D03*
X-176940Y197540D03*
X-233094Y220253D03*
X-232754Y207949D03*
X-232763Y210144D03*
X-232757Y212329D03*
X-250094Y203853D03*
X-210894Y206061D03*
X-84306Y243600D03*
X-95469Y250100D03*
X-92600Y220000D03*
X-84900Y213400D03*
X-92100Y227600D03*
X-99300Y238700D03*
X-94400Y251800D03*
X-68700Y267765D03*
X-109200Y247900D03*
X-213100Y188700D03*
X-208100Y188900D03*
X-244594Y223335D03*
X-244679Y229937D03*
X-244579Y225536D03*
X-244684Y227736D03*
X-244484Y212328D03*
X-244479Y218950D03*
X-244495Y216739D03*
Y214538D03*
X-244479Y210132D03*
Y207931D03*
X-269600Y241300D03*
X-78400Y236600D03*
X-259700Y200500D03*
Y198500D03*
X-257694Y201053D03*
Y203153D03*
X-259159Y192520D03*
X-259210Y194550D03*
X-259170Y190410D03*
X-266600Y185100D03*
X-224194Y196953D03*
X-222900Y191600D03*
X-217400Y190400D03*
X-264275Y238832D03*
X-257694Y198053D03*
X-251794Y202453D03*
X-257694Y196053D03*
X-252994Y204053D03*
X-255660Y190400D03*
X-250494Y191653D03*
X-255660Y188400D03*
X-250494Y189053D03*
X-189300Y167000D03*
X-186800Y167200D03*
X-253300Y180200D03*
X-255400Y180300D03*
X-266500Y180400D03*
X-247100Y174000D03*
X-201800Y167100D03*
X-191300Y167000D03*
X-210100Y177100D03*
X-193500Y166800D03*
X-230500Y166100D03*
X-161512Y168905D03*
X-77100Y164300D03*
X-73714Y163100D03*
X-83000Y163700D03*
X-84458Y160800D03*
X-124900Y180000D03*
X-125400Y178400D03*
X-78614Y161500D03*
X-76590Y177960D03*
X-156900Y165890D03*
X-151000Y167500D03*
X-59627Y150700D03*
X-84800Y167600D03*
X-201500Y108100D03*
X-228923Y45960D03*
X-274000Y57300D03*
X-273200Y76600D03*
X-263013Y50000D03*
X-265987Y48787D03*
X-255546Y137612D03*
X-268100Y165700D03*
X-270100D03*
X-255800Y145500D03*
X-255032Y142255D03*
X-133886Y105314D03*
X-246894Y100054D03*
X-63200Y140033D03*
X-75731Y141000D03*
X-63528Y125639D03*
X-85105Y142570D03*
X-64114Y112100D03*
X-66267Y114737D03*
X-79735Y105500D03*
X-78881Y116900D03*
X-82030Y117100D03*
X-145614Y105586D03*
X-108500Y73600D03*
X-50300Y141900D03*
X-51114Y106953D03*
X-61898Y137064D03*
X-177210Y99020D03*
X-175720Y125950D03*
X-176190Y96760D03*
X-57900Y50700D03*
X-56300Y60000D03*
X-189770Y69840D03*
X-195890Y62600D03*
X-198070Y62750D03*
X-194240Y69840D03*
X-204500Y79000D03*
X-72167Y143500D03*
X-80456Y144477D03*
X-158500Y75500D03*
X-196292Y97319D03*
Y102119D03*
X-194692D03*
X-196292Y98919D03*
X-194692D03*
Y97219D03*
X-196292Y100519D03*
X-194692D03*
X-88900Y99800D03*
X-157500Y64400D03*
X-178600Y74400D03*
X-193270Y62600D03*
X-165700Y52600D03*
X-244327Y100592D03*
X-236264Y101043D03*
X-247500Y97200D03*
X-173700Y49400D03*
X-169300Y52200D03*
X-203100Y57200D03*
Y59200D03*
X-239700Y45800D03*
X-186900Y70150D03*
X-184610Y70650D03*
X-153000Y77100D03*
X-183000Y135200D03*
X-183400Y136800D03*
X-181800D03*
X-183400Y138400D03*
X-184600Y135200D03*
X-234200Y121100D03*
X-234600Y136900D03*
X-229300Y125800D03*
X-229200Y128000D03*
X-212500Y132000D03*
X-229400Y156900D03*
X-183400Y140000D03*
X-181800D03*
X-184800Y167300D03*
X-181800Y138400D03*
X-175600Y163250D03*
X-180700Y167300D03*
X-182700D03*
X-173334Y164600D03*
X-245200Y142600D03*
X-204800Y143400D03*
X-175830Y127965D03*
X-175820Y131100D03*
X-203600Y145200D03*
X-241147Y97540D03*
X-243332Y97609D03*
X-181000Y38200D03*
X-179100Y40000D03*
X-181000Y39800D03*
X-179100Y41800D03*
X-180900Y41700D03*
X-182100Y37000D03*
X-183700D03*
X-185371D03*
X-154100Y42000D03*
X-149615Y25484D03*
X-153300Y37000D03*
X-153200Y35300D03*
X-239200Y44200D03*
X-262000Y31000D03*
X-274700Y225400D03*
X-85050Y74590D03*
X-235297Y49408D03*
X-86560Y73030D03*
X-233232Y49381D03*
X-175500Y167900D03*
X-173200Y168000D03*
X-243294Y203853D03*
X-243194Y201853D03*
X-231700Y38800D03*
X-231600Y41100D03*
Y43100D03*
X-187400Y75800D03*
X-173830Y76680D03*
X-171230Y76540D03*
X-231600Y45200D03*
X-153500Y97300D03*
X-155200Y99000D03*
X-206130Y72800D03*
X-206100Y74900D03*
X-181984Y76700D03*
X-214094Y191053D03*
X-220094Y193853D03*
X-221900Y174900D03*
X-274100Y165500D03*
X-271375Y170200D03*
X-268875D03*
X-68900Y232700D03*
X-70800Y225600D03*
X-49817Y291812D03*
X-49500Y295100D03*
X-155202Y304302D03*
X-207494Y165491D03*
X-213700Y170100D03*
Y168100D03*
X-223000Y165100D03*
X-219300Y170700D03*
X-221000Y165000D03*
X-217300Y170800D03*
X-204618Y165408D03*
X-123706Y339437D03*
X-104600Y360500D03*
X-115500Y344200D03*
X-150800Y352200D03*
X-110900Y348700D03*
X-106300Y344000D03*
X-115400Y365000D03*
X-118400Y331800D03*
X-182750Y343390D03*
X-180950D03*
Y341590D03*
X-182750D03*
X-120000Y357100D03*
X-94766Y344554D03*
X-122800Y332200D03*
X-139614Y334400D03*
X-86114Y346900D03*
X-117000Y362100D03*
X-134500Y325800D03*
X-122000Y360200D03*
X-121500Y346200D03*
X-111300Y369500D03*
X-146806Y356920D03*
X-145700Y347700D03*
X-137130Y350073D03*
X-84700Y343000D03*
X-125845Y342172D03*
X-81300Y351300D03*
X-111898Y352302D03*
X-103800Y346300D03*
X-141700Y327200D03*
X-178194Y323753D03*
X-169494Y319753D03*
X-148300Y340700D03*
X-152400Y331300D03*
X-96500Y363500D03*
X-119800Y339437D03*
X-170500Y333500D03*
X-273900Y332200D03*
X-274320Y371020D03*
X-274550Y375500D03*
X-274000Y351300D03*
Y349600D03*
X-272300Y351300D03*
X-272400Y349600D03*
X-257300Y360300D03*
X-262900Y365900D03*
X-249600Y363800D03*
X-192800Y363700D03*
X-128000Y344500D03*
X-124600Y344000D03*
X-259894Y324153D03*
X-188563Y323323D03*
X-246800Y347700D03*
X-253200Y367200D03*
X-241700Y363800D03*
X-189614Y320753D03*
X-181694Y319173D03*
X-177994Y319003D03*
X-267900Y372000D03*
X-226996Y354884D03*
X-183186Y367000D03*
X-191800Y347300D03*
X-218000Y355500D03*
X-194400Y372100D03*
X-191794Y320653D03*
Y318623D03*
X-199700Y340400D03*
X-270000Y329100D03*
X-70200Y324800D03*
X-262900Y363500D03*
X-185100Y352600D03*
X-51400Y340500D03*
X-222800Y390033D03*
X-229694Y325053D03*
X-212894Y337053D03*
X-181694Y316903D03*
X-177994Y316953D03*
X-189594Y316921D03*
X-185794Y316758D03*
X-185700Y343614D03*
X-141500Y344400D03*
X-117800Y347100D03*
X-218200Y348900D03*
X-238600Y383100D03*
X-145600Y352500D03*
X-143600Y354662D03*
X-109500Y358586D03*
X-220800Y348900D03*
X-112300Y358586D03*
X-179600Y348200D03*
X-115200Y358586D03*
G54D17*
X-273750Y359775D03*
X-281406Y367431D03*
X-280513Y362100D03*
X-269687D03*
G54D14*
X-370717Y168037D03*
X-373200Y166700D03*
X-373300Y169100D03*
X-362600Y158700D03*
X-349200Y299400D03*
X-371900Y133600D03*
X-380100Y130000D03*
X-382600Y132500D03*
X-380200Y132600D03*
Y135100D03*
X-382600D03*
X-340500Y47000D03*
X-347200Y53900D03*
X-338600Y48600D03*
X-333600Y53200D03*
X-340400Y60200D03*
X-345400Y55500D03*
X-293800Y76900D03*
X-281700Y81900D03*
X-283100Y84100D03*
X-279600Y53000D03*
X-283300Y47100D03*
X-336500Y113700D03*
X-291348Y102463D03*
X-185000Y20100D03*
X-182400Y20000D03*
X-179800D03*
Y17500D03*
X-182200D03*
X-184700D03*
X-196600Y16400D03*
X-201500Y16300D03*
X-199100Y16400D03*
X-206300Y16300D03*
X-203900D03*
X-148600Y12900D03*
X-148700Y15400D03*
X-147700Y6800D03*
X-150100D03*
X-131300Y13300D03*
X-110735Y276065D03*
X-88900Y211600D03*
X-88800Y209000D03*
X-67700Y289000D03*
Y281000D03*
Y286300D03*
Y283600D03*
X-65600Y285100D03*
Y279800D03*
Y282400D03*
Y287700D03*
X-102700Y282100D03*
X-127700Y289100D03*
X-131800Y208100D03*
X-68600Y209900D03*
X-100200Y295600D03*
X-123200Y289300D03*
X-143200Y207100D03*
X-56300Y182600D03*
X-38800Y212600D03*
X-6700Y221700D03*
X-40800Y229200D03*
X-69200Y223100D03*
X-84000Y277600D03*
X-122600Y276700D03*
X-120200Y213100D03*
X-138200Y205700D03*
X-124400Y210400D03*
X-163100Y184100D03*
X-38900Y312600D03*
X-74947Y308637D03*
X-153500Y311200D03*
X-199694Y215553D03*
X-204694D03*
X-194694D03*
X-159660Y156460D03*
X-154700Y156800D03*
X-162100Y159090D03*
X-164560Y158930D03*
X-162600Y161500D03*
X-154500Y151900D03*
X-157200Y156900D03*
X-152000Y151900D03*
X-152200Y156700D03*
X-157200Y154400D03*
X-154600Y154300D03*
X-152100D03*
X-157800Y161500D03*
X-156400Y159400D03*
X-160200Y161500D03*
X-159700Y159100D03*
X-26000Y170000D03*
X-33500D03*
X-28500Y170100D03*
X-23500Y170000D03*
X-23700Y172500D03*
X-28600D03*
X-23500Y175200D03*
X-25900Y175100D03*
X-91600Y168700D03*
X-89200Y166300D03*
X-91600D03*
X-90400Y164000D03*
X-95200Y163900D03*
X-92800D03*
X-51800Y162900D03*
X-56600Y163000D03*
X-59000Y161700D03*
X-54200Y160500D03*
X-55600Y158100D03*
X-51800Y160500D03*
X-114500Y177400D03*
X-165000Y161500D03*
X-157000Y152000D03*
X-26100Y172500D03*
X-31000D03*
Y170100D03*
X-28500Y175000D03*
X-124761Y155161D03*
X-98200Y156300D03*
X-53000Y158100D03*
X-56600Y160500D03*
X-54200Y163000D03*
X-264629Y82700D03*
Y85400D03*
X-266729Y83900D03*
X-266829Y86400D03*
X-268700Y68600D03*
X-271100D03*
X-266829Y89000D03*
X-134100Y115700D03*
X-134000Y118500D03*
Y121500D03*
X-134100Y124400D03*
X-145900Y110400D03*
X-145400Y114300D03*
X-157760Y125640D03*
X-155010Y128450D03*
X-154950Y122960D03*
X-154970Y125750D03*
X-152400Y123100D03*
X-149700Y125800D03*
X-152300Y128400D03*
X-145900Y117200D03*
Y119800D03*
X-142900Y117200D03*
Y119800D03*
X-143000Y114500D03*
X-139900Y117200D03*
Y119800D03*
X-146400Y125700D03*
X-146500Y123000D03*
X-143500D03*
X-146400Y128300D03*
X-139900D03*
X-143400D03*
Y125700D03*
X-140000Y123000D03*
X-155630Y116960D03*
X-157840Y122980D03*
X-152820Y119690D03*
X-152830Y116870D03*
X-155490Y119770D03*
X-136500Y109700D03*
X-140000D03*
X-149400Y117200D03*
Y119800D03*
X-140000Y114500D03*
X-136400Y117200D03*
Y119800D03*
X-136500Y114500D03*
X-149800Y123100D03*
X-149700Y128400D03*
X-152400Y125800D03*
X-157700Y128400D03*
X-91000Y116500D03*
X-36300Y121800D03*
X-91800Y128900D03*
X-103600Y48100D03*
X-53600Y46800D03*
X-33800Y121700D03*
X-30900Y121500D03*
X-33800Y124300D03*
X-60200Y53300D03*
X-55500Y48600D03*
X-48600Y55500D03*
X-139900Y125700D03*
X-136500Y123000D03*
X-136400Y128300D03*
Y125700D03*
X-136500Y112100D03*
X-140000D03*
X-91400Y142000D03*
X-30900Y126800D03*
X-36300Y124400D03*
X-36400Y127000D03*
X-33800Y126700D03*
X-30900Y124300D03*
X-92500Y122000D03*
Y135500D03*
X-163900Y128400D03*
X-163800Y123100D03*
X-160620Y123010D03*
X-160730Y125660D03*
X-53300Y60300D03*
X-46700Y53900D03*
X-143500Y111500D03*
X-96500Y125800D03*
X-160830Y128380D03*
X-163800Y125700D03*
X-210200Y53300D03*
X-207800Y53200D03*
X-205300Y53400D03*
X-205500Y55800D03*
X-208000D03*
X-205300Y58200D03*
X-202200Y63200D03*
X-181600Y61700D03*
X-181400Y64100D03*
X-165980Y69450D03*
X-212300Y56600D03*
X-213500Y58800D03*
X-211000D03*
X-214800Y56600D03*
X-216000Y58800D03*
X-151900Y59700D03*
X-149400D03*
X-128200Y45200D03*
X-130700Y45100D03*
X-17500Y132500D03*
X-19900D03*
X-17500Y137800D03*
X-19900D03*
X-17100Y135100D03*
X-19980Y135189D03*
X-208600Y135500D03*
X-169800Y151300D03*
X-171900Y154800D03*
Y157600D03*
X-169800Y159000D03*
X-167300D03*
X-164550Y156340D03*
X-167120D03*
X-169630Y153730D03*
X-169830Y156300D03*
X-162110Y153780D03*
X-169800Y161400D03*
X-167400Y161500D03*
X-162055Y156292D03*
X-164560Y153830D03*
X-167090Y153760D03*
X-159690Y153830D03*
X-94400Y32700D03*
X-95500Y34900D03*
X-98700D03*
X-97300Y37200D03*
X-86300Y42600D03*
X-88700D03*
X-86900Y40000D03*
X-84500Y40500D03*
X-129800Y42300D03*
X-132400D03*
X-153300Y321500D03*
X-89700Y340000D03*
X-100388Y355520D03*
X-62400Y326300D03*
X-225194Y324553D03*
X-262694Y333553D03*
X-206700Y336600D03*
X-204100Y336500D03*
X-229994Y330753D03*
X-185452Y390348D03*
X-253394Y323953D03*
X-250794D03*
X-210594Y327453D03*
X-205794Y327353D03*
X-212994Y327453D03*
X-208194Y327353D03*
X-225794Y322153D03*
X-223394Y319753D03*
Y322153D03*
X-216194Y324553D03*
Y329053D03*
G54D12*
X-324606Y157480D03*
X-149016Y72244D03*
X-145947Y51822D03*
X-124629Y77836D03*
X-118701Y57677D03*
X-255315Y345276D03*
X-259689Y372803D03*
X-226637Y366578D03*
X-225000Y359843D03*
G54D18*
X-330617Y328389D03*
X-328389Y330617D03*
X-337994Y329086D03*
X-335767Y331312D03*
X-331312Y335767D03*
X-329086Y337994D03*
G54D23*
X-43527Y338341D03*
X-55359Y350173D03*
G54D11*
X-324606Y236220D03*
G54D22*
X-148200Y191900D03*
X-52300Y226500D03*
X-49300D03*
X-52000Y223500D03*
X-49100D03*
X-55400Y226500D03*
Y229500D03*
X-52300D03*
X-49200D03*
X-111000Y158400D03*
X-108000D03*
X-114000D03*
X-105000D03*
X-117000D03*
X-102000D03*
X-110900Y88400D03*
X-113900D03*
X-116900D03*
X-119900D03*
X-124500Y133000D03*
X-94000D03*
X-119900Y91200D03*
X-116900D03*
X-113900D03*
X-110900D03*
X-97000Y317300D03*
G54D13*
X-327554Y47495D03*
X-47495Y66146D03*
G54D16*
X-295641Y382651D03*
X-251314Y400113D03*
G54D21*
X-65591Y48050D03*
%LPC*%
G75*
G54D24*
G01X-79200Y-264100D02*
X-353200D01*
G03X-358200Y-269100I0J-5000D01*
G01Y-338100D01*
G03X-353200Y-343100I4375J-625D01*
G01X16300D01*
G01X27800Y-261100D02*
X-353200D01*
G03X-361200Y-269100I-1000J-7000D01*
G01Y-341100D01*
G03X-354200Y-346100I6667J1934D01*
G01X14300D01*
G01X-133005Y-10866D02*
G02X-336445Y30309I-63846J207718D01*
G01X-395195Y108071D02*
G02X-315906Y378642I198343J88780D01*
G01X-393670Y107477D02*
G02X-395195Y108071I-461J1070D01*
G01X-384728Y89950D02*
G03X-393670Y107477I-5036J8475D01*
G01X-385142Y88367D02*
G02X-384728Y89950I1010J582D01*
G01X-363391Y57256D02*
G02X-385142Y88367I166532J139589D01*
G01X-363192Y55874D02*
G02X-363391Y57256I824J824D01*
G01X-337828Y30509D02*
X-363192Y55874D01*
G01X-336445Y30309D02*
G02X-337828Y30509I-558J1023D01*
G01X-305786Y384881D02*
G02X-245417Y408660I108930J-188027D01*
G01X-306156Y383588D02*
G02X-305786Y384881I855J455D01*
G01X-300865Y373637D02*
X-306156Y383588D01*
G01X-309582Y369001D02*
X-300865Y373637D01*
G01X-314520Y378287D02*
X-309582Y369001D01*
G01X-315906Y378642D02*
G02X-314520Y378287I531J-810D01*
G01X-70200Y-306100D02*
X-20200D01*
G01X-70200Y-264100D02*
Y-322100D01*
G01X-140200Y-288100D02*
X-20200D01*
G01X-140200Y-322100D02*
X-20200D01*
G01X-140200Y-264100D02*
Y-343100D01*
G01X-20200Y-264100D02*
Y-343100D01*
G01X15300D02*
X28000D01*
G03X32800Y-339100I32J4842D01*
G01Y-269100D01*
G03X27800Y-264100I-6500J-1500D01*
G01X15300D01*
G01X13800Y-346100D02*
X28000D01*
G03X35800Y-339100I339J7468D01*
G01Y-270100D01*
G03X27800Y-261100I-8500J500D01*
G01X-132354Y-9690D02*
G02X-133005Y-10866I-936J-250D01*
G01X-135289Y1263D02*
X-132354Y-9690D01*
G01X-125751Y3819D02*
X-135289Y1263D01*
G01X-123012Y-6405D02*
X-125751Y3819D01*
G01X-121742Y-7064D02*
G02X-123012Y-6405I-334J909D01*
G01X-112713Y-3508D02*
G02X-121742Y-7064I-84120J200347D01*
G01X-112233Y-2160D02*
G02X-112713Y-3508I-855J-455D01*
G01X-117170Y7126D02*
X-112233Y-2160D01*
G01X-108453Y11762D02*
X-117170Y7126D01*
G01X-103160Y1810D02*
X-108453Y11762D01*
G01X-101882Y1393D02*
G02X-103160Y1810I-423J871D01*
G01X-57256Y30309D02*
G02X-101882Y1393I-139590J166536D01*
G01X15800Y-264100D02*
X-79200D01*
G01X-121Y107541D02*
G03X-9079Y89986I-4731J-8649D01*
G01X1501Y108088D02*
G02X-121Y107541I-1064J476D01*
G01X-165998Y411956D02*
G02X1501Y108088I-30853J-215106D01*
G01X-55874Y30509D02*
G02X-57256Y30309I-825J823D01*
G01X-30509Y55874D02*
X-55874Y30509D01*
G01X-30309Y57256D02*
G02X-30509Y55874I-1023J-557D01*
G01X-8568Y88351D02*
G02X-30309Y57256I-188294J108503D01*
G01X-9079Y89986D02*
G02X-8568Y88351I-499J-1053D01*
G01X-186953Y412676D02*
G03X-167327Y410876I9787J-1181D01*
G01X-188062Y413980D02*
G02X-186953Y412676I-48J-1164D01*
G01X-233761Y411000D02*
G02X-188062Y413980I36911J-214152D01*
G01X-234532Y409795D02*
G02X-233761Y411000I935J251D01*
G01X-231810Y399636D02*
X-234532Y409795D01*
G01X-241348Y397080D02*
X-231810Y399636D01*
G01X-244265Y407967D02*
X-241348Y397080D01*
G01X-245417Y408660D02*
G02X-244265Y407967I217J-943D01*
G01X-167327Y410876D02*
G02X-165998Y411956I1163J-74D01*
G54D25*
G01X-335700Y-288900D02*
Y-278900D01*
X-331700D01*
X-330100Y-279400D01*
X-328900Y-280067D01*
X-327900Y-281067D01*
X-327100Y-282234D01*
X-326900Y-283900D01*
X-327100Y-285567D01*
X-327900Y-286733D01*
X-328900Y-287734D01*
X-330100Y-288400D01*
X-331700Y-288900D01*
X-335700D01*
G01X-322200Y-284400D02*
X-315800D01*
X-316400Y-283233D01*
X-317400Y-282567D01*
X-318800Y-282234D01*
X-320200Y-282400D01*
X-321400Y-282900D01*
X-322200Y-284067D01*
X-322600Y-285067D01*
Y-286067D01*
X-322200Y-287067D01*
X-321200Y-288067D01*
X-320000Y-288733D01*
X-318600Y-288900D01*
X-317200Y-288567D01*
X-315800Y-287567D01*
G01X-310100Y-287734D02*
X-309100Y-288400D01*
X-307700Y-288900D01*
X-306500D01*
X-305300Y-288567D01*
X-304500Y-288067D01*
X-304100Y-287400D01*
X-304300Y-286400D01*
X-305100Y-285900D01*
X-308700Y-284900D01*
X-309500Y-283733D01*
X-309100Y-282900D01*
X-308300Y-282400D01*
X-307100Y-282234D01*
X-305900Y-282400D01*
X-304700Y-282900D01*
G01X-295000Y-282234D02*
Y-288900D01*
G01Y-279567D02*
X-295400Y-279400D01*
Y-279067D01*
X-295000Y-278900D01*
X-294600Y-279067D01*
Y-279400D01*
X-295000Y-279567D01*
G01X-285700Y-291400D02*
X-284300Y-292067D01*
X-282700Y-292233D01*
X-281300Y-292067D01*
X-280100Y-291233D01*
X-279300Y-290067D01*
Y-282234D01*
G01Y-283567D02*
X-280100Y-282900D01*
X-281300Y-282400D01*
X-282700Y-282234D01*
X-284300Y-282567D01*
X-285300Y-283233D01*
X-286100Y-284400D01*
X-286500Y-285567D01*
X-286300Y-286567D01*
X-285500Y-287734D01*
X-284300Y-288567D01*
X-282700Y-288900D01*
X-281500Y-288733D01*
X-280100Y-288067D01*
X-279300Y-287400D01*
G01X-274200Y-288900D02*
Y-282234D01*
G01Y-283900D02*
X-273400Y-283067D01*
X-272200Y-282400D01*
X-270600Y-282234D01*
X-269200Y-282400D01*
X-268000Y-283067D01*
X-267400Y-284233D01*
Y-288900D01*
G01X-250800Y-287567D02*
X-249200Y-288400D01*
X-247400Y-288900D01*
X-245800D01*
X-244200Y-288400D01*
X-243000Y-287567D01*
X-242400Y-286400D01*
X-242800Y-285234D01*
X-243800Y-284233D01*
X-245600Y-283567D01*
X-248000Y-283233D01*
X-249400Y-282567D01*
X-250000Y-281400D01*
X-249600Y-280233D01*
X-248600Y-279400D01*
X-247200Y-278900D01*
X-245800D01*
X-244400Y-279233D01*
X-243200Y-280067D01*
G01X-238700Y-288900D02*
Y-278900D01*
G01X-230300D02*
Y-288900D01*
G01Y-283900D02*
X-238700D01*
G01X-224800Y-278900D02*
X-220000D01*
G01X-222400D02*
Y-288900D01*
G01X-224800D02*
X-220000D01*
G01X-214100D02*
Y-278900D01*
X-206500D01*
G01X-209300Y-283733D02*
X-214100D01*
G01X-198200Y-278900D02*
Y-288900D01*
G01X-202800Y-278900D02*
X-193600D01*
G54D26*
G01X-12200Y-316200D02*
Y-296200D01*
X-14600Y-300200D01*
G01Y-316200D02*
X-9800D01*
G01X-4000Y-307867D02*
X-2600Y-305533D01*
X-1400Y-304200D01*
X200Y-303534D01*
X1600Y-304200D01*
X2600Y-305533D01*
X3400Y-307533D01*
X3600Y-309867D01*
X3400Y-311867D01*
X2600Y-313867D01*
X1400Y-315533D01*
X0Y-316200D01*
X-1600Y-315533D01*
X-3000Y-313534D01*
X-3800Y-310533D01*
X-4000Y-307200D01*
X-3600Y-302867D01*
X-3000Y-300533D01*
X-2000Y-298200D01*
X-600Y-296533D01*
X800Y-296200D01*
X2200Y-296867D01*
X3200Y-298533D01*
G01X11800Y-316867D02*
X11400Y-316533D01*
Y-315867D01*
X11800Y-315533D01*
X12200Y-315867D01*
Y-316533D01*
X11800Y-316867D01*
G01X19400Y-313201D02*
X20600Y-314867D01*
X22000Y-315867D01*
X23800Y-316200D01*
X25600Y-315533D01*
X27000Y-314200D01*
X28000Y-311867D01*
X28200Y-309200D01*
X27800Y-306534D01*
X26800Y-304867D01*
X25400Y-303534D01*
X24000Y-303200D01*
X22600Y-303534D01*
X20800Y-304867D01*
X21400Y-296200D01*
X26800D01*
G54D27*
G01X-335933Y-307400D02*
X-334813Y-312400D01*
X-333600Y-307400D01*
X-332387Y-312400D01*
X-331267Y-307400D01*
G01X-328433D02*
X-327313Y-312400D01*
X-326100Y-307400D01*
X-324887Y-312400D01*
X-323767Y-307400D01*
G01X-320933D02*
X-319813Y-312400D01*
X-318600Y-307400D01*
X-317387Y-312400D01*
X-316267Y-307400D01*
G01X-311100Y-312650D02*
X-311287Y-312525D01*
Y-312275D01*
X-311100Y-312150D01*
X-310913Y-312275D01*
Y-312525D01*
X-311100Y-312650D01*
G01X-301920Y-304900D02*
Y-312400D01*
G01Y-311275D02*
X-302293Y-311900D01*
X-302853Y-312275D01*
X-303507Y-312400D01*
X-304253Y-312150D01*
X-304813Y-311525D01*
X-305187Y-310775D01*
X-305280Y-309900D01*
X-305187Y-309025D01*
X-304813Y-308275D01*
X-304253Y-307650D01*
X-303507Y-307400D01*
X-302853Y-307525D01*
X-302387Y-307775D01*
X-301920Y-308275D01*
G01X-297500Y-309025D02*
X-294513D01*
X-294793Y-308150D01*
X-295260Y-307650D01*
X-295913Y-307400D01*
X-296567Y-307525D01*
X-297127Y-307900D01*
X-297500Y-308775D01*
X-297687Y-309525D01*
Y-310275D01*
X-297500Y-311025D01*
X-297033Y-311775D01*
X-296473Y-312275D01*
X-295820Y-312400D01*
X-295167Y-312150D01*
X-294513Y-311400D01*
G01X-290000Y-311525D02*
X-289533Y-312025D01*
X-288880Y-312400D01*
X-288320D01*
X-287760Y-312150D01*
X-287387Y-311775D01*
X-287200Y-311275D01*
X-287293Y-310525D01*
X-287667Y-310150D01*
X-289347Y-309400D01*
X-289720Y-308525D01*
X-289533Y-307900D01*
X-289160Y-307525D01*
X-288600Y-307400D01*
X-288040Y-307525D01*
X-287480Y-307900D01*
G01X-281100Y-307400D02*
Y-312400D01*
G01Y-305400D02*
X-281287Y-305275D01*
Y-305025D01*
X-281100Y-304900D01*
X-280913Y-305025D01*
Y-305275D01*
X-281100Y-305400D01*
G01X-274907Y-314275D02*
X-274253Y-314775D01*
X-273507Y-314900D01*
X-272853Y-314775D01*
X-272293Y-314150D01*
X-271920Y-313275D01*
Y-307400D01*
G01Y-308400D02*
X-272293Y-307900D01*
X-272853Y-307525D01*
X-273507Y-307400D01*
X-274253Y-307650D01*
X-274720Y-308150D01*
X-275093Y-309025D01*
X-275280Y-309900D01*
X-275187Y-310650D01*
X-274813Y-311525D01*
X-274253Y-312150D01*
X-273507Y-312400D01*
X-272947Y-312275D01*
X-272293Y-311775D01*
X-271920Y-311275D01*
G01X-267687Y-312400D02*
Y-307400D01*
G01Y-308650D02*
X-267313Y-308025D01*
X-266753Y-307525D01*
X-266007Y-307400D01*
X-265353Y-307525D01*
X-264793Y-308025D01*
X-264513Y-308900D01*
Y-312400D01*
G01X-259813Y-309900D02*
X-257387D01*
G01X-252500Y-311525D02*
X-252033Y-312025D01*
X-251380Y-312400D01*
X-250820D01*
X-250260Y-312150D01*
X-249887Y-311775D01*
X-249700Y-311275D01*
X-249793Y-310525D01*
X-250167Y-310150D01*
X-251847Y-309400D01*
X-252220Y-308525D01*
X-252033Y-307900D01*
X-251660Y-307525D01*
X-251100Y-307400D01*
X-250540Y-307525D01*
X-249980Y-307900D01*
G01X-245187Y-312400D02*
Y-304900D01*
G01Y-308525D02*
X-244720Y-307900D01*
X-244253Y-307525D01*
X-243507Y-307400D01*
X-242947Y-307525D01*
X-242293Y-308025D01*
X-242013Y-308775D01*
Y-312400D01*
G01X-236100Y-307400D02*
Y-312400D01*
G01Y-305400D02*
X-236287Y-305275D01*
Y-305025D01*
X-236100Y-304900D01*
X-235913Y-305025D01*
Y-305275D01*
X-236100Y-305400D01*
G01X-229160Y-312400D02*
Y-306025D01*
X-228973Y-305400D01*
X-228600Y-305025D01*
X-228040Y-304900D01*
X-227480Y-305150D01*
X-227200Y-305775D01*
G01X-228320Y-307900D02*
X-230187D01*
G01X-221100Y-304900D02*
Y-312400D01*
G01X-222407Y-307400D02*
X-219793D01*
G01X-213600Y-312650D02*
X-213787Y-312525D01*
Y-312275D01*
X-213600Y-312150D01*
X-213413Y-312275D01*
Y-312525D01*
X-213600Y-312650D01*
G01X-204607Y-308025D02*
X-205260Y-307525D01*
X-205820Y-307400D01*
X-206567Y-307650D01*
X-207127Y-308150D01*
X-207500Y-309025D01*
X-207593Y-309900D01*
X-207500Y-310775D01*
X-207127Y-311525D01*
X-206567Y-312150D01*
X-205820Y-312400D01*
X-205167Y-312150D01*
X-204607Y-311650D01*
G01X-198600Y-312400D02*
X-199160Y-312275D01*
X-199720Y-311775D01*
X-200093Y-310900D01*
X-200280Y-309900D01*
X-200093Y-308900D01*
X-199720Y-308025D01*
X-199160Y-307525D01*
X-198600Y-307400D01*
X-198040Y-307525D01*
X-197480Y-308025D01*
X-197107Y-308900D01*
X-197013Y-309900D01*
X-197107Y-310900D01*
X-197480Y-311775D01*
X-198040Y-312275D01*
X-198600Y-312400D01*
G01X-193900D02*
Y-307400D01*
G01Y-308775D02*
X-193620Y-308150D01*
X-193153Y-307650D01*
X-192500Y-307400D01*
X-191847Y-307650D01*
X-191380Y-308150D01*
X-191100Y-308775D01*
Y-312400D01*
G01Y-308775D02*
X-190820Y-308150D01*
X-190353Y-307650D01*
X-189700Y-307400D01*
X-189047Y-307650D01*
X-188580Y-308150D01*
X-188300Y-308900D01*
Y-312400D01*
G01X-336033Y-307400D02*
X-334913Y-312400D01*
X-333700Y-307400D01*
X-332487Y-312400D01*
X-331367Y-307400D01*
G01X-328533D02*
X-327413Y-312400D01*
X-326200Y-307400D01*
X-324987Y-312400D01*
X-323867Y-307400D01*
G01X-321033D02*
X-319913Y-312400D01*
X-318700Y-307400D01*
X-317487Y-312400D01*
X-316367Y-307400D01*
G01X-311200Y-312650D02*
X-311387Y-312525D01*
Y-312275D01*
X-311200Y-312150D01*
X-311013Y-312275D01*
Y-312525D01*
X-311200Y-312650D01*
G01X-302020Y-304900D02*
Y-312400D01*
G01Y-311275D02*
X-302393Y-311900D01*
X-302953Y-312275D01*
X-303607Y-312400D01*
X-304353Y-312150D01*
X-304913Y-311525D01*
X-305287Y-310775D01*
X-305380Y-309900D01*
X-305287Y-309025D01*
X-304913Y-308275D01*
X-304353Y-307650D01*
X-303607Y-307400D01*
X-302953Y-307525D01*
X-302487Y-307775D01*
X-302020Y-308275D01*
G01X-297600Y-309025D02*
X-294613D01*
X-294893Y-308150D01*
X-295360Y-307650D01*
X-296013Y-307400D01*
X-296667Y-307525D01*
X-297227Y-307900D01*
X-297600Y-308775D01*
X-297787Y-309525D01*
Y-310275D01*
X-297600Y-311025D01*
X-297133Y-311775D01*
X-296573Y-312275D01*
X-295920Y-312400D01*
X-295267Y-312150D01*
X-294613Y-311400D01*
G01X-290100Y-311525D02*
X-289633Y-312025D01*
X-288980Y-312400D01*
X-288420D01*
X-287860Y-312150D01*
X-287487Y-311775D01*
X-287300Y-311275D01*
X-287393Y-310525D01*
X-287767Y-310150D01*
X-289447Y-309400D01*
X-289820Y-308525D01*
X-289633Y-307900D01*
X-289260Y-307525D01*
X-288700Y-307400D01*
X-288140Y-307525D01*
X-287580Y-307900D01*
G01X-281200Y-307400D02*
Y-312400D01*
G01Y-305400D02*
X-281387Y-305275D01*
Y-305025D01*
X-281200Y-304900D01*
X-281013Y-305025D01*
Y-305275D01*
X-281200Y-305400D01*
G01X-275007Y-314275D02*
X-274353Y-314775D01*
X-273607Y-314900D01*
X-272953Y-314775D01*
X-272393Y-314150D01*
X-272020Y-313275D01*
Y-307400D01*
G01Y-308400D02*
X-272393Y-307900D01*
X-272953Y-307525D01*
X-273607Y-307400D01*
X-274353Y-307650D01*
X-274820Y-308150D01*
X-275193Y-309025D01*
X-275380Y-309900D01*
X-275287Y-310650D01*
X-274913Y-311525D01*
X-274353Y-312150D01*
X-273607Y-312400D01*
X-273047Y-312275D01*
X-272393Y-311775D01*
X-272020Y-311275D01*
G01X-267787Y-312400D02*
Y-307400D01*
G01Y-308650D02*
X-267413Y-308025D01*
X-266853Y-307525D01*
X-266107Y-307400D01*
X-265453Y-307525D01*
X-264893Y-308025D01*
X-264613Y-308900D01*
Y-312400D01*
G01X-259913Y-309900D02*
X-257487D01*
G01X-252600Y-311525D02*
X-252133Y-312025D01*
X-251480Y-312400D01*
X-250920D01*
X-250360Y-312150D01*
X-249987Y-311775D01*
X-249800Y-311275D01*
X-249893Y-310525D01*
X-250267Y-310150D01*
X-251947Y-309400D01*
X-252320Y-308525D01*
X-252133Y-307900D01*
X-251760Y-307525D01*
X-251200Y-307400D01*
X-250640Y-307525D01*
X-250080Y-307900D01*
G01X-245287Y-312400D02*
Y-304900D01*
G01Y-308525D02*
X-244820Y-307900D01*
X-244353Y-307525D01*
X-243607Y-307400D01*
X-243047Y-307525D01*
X-242393Y-308025D01*
X-242113Y-308775D01*
Y-312400D01*
G01X-236200Y-307400D02*
Y-312400D01*
G01Y-305400D02*
X-236387Y-305275D01*
Y-305025D01*
X-236200Y-304900D01*
X-236013Y-305025D01*
Y-305275D01*
X-236200Y-305400D01*
G01X-229260Y-312400D02*
Y-306025D01*
X-229073Y-305400D01*
X-228700Y-305025D01*
X-228140Y-304900D01*
X-227580Y-305150D01*
X-227300Y-305775D01*
G01X-228420Y-307900D02*
X-230287D01*
G01X-221200Y-304900D02*
Y-312400D01*
G01X-222507Y-307400D02*
X-219893D01*
G01X-213700Y-312650D02*
X-213887Y-312525D01*
Y-312275D01*
X-213700Y-312150D01*
X-213513Y-312275D01*
Y-312525D01*
X-213700Y-312650D01*
G01X-204707Y-308025D02*
X-205360Y-307525D01*
X-205920Y-307400D01*
X-206667Y-307650D01*
X-207227Y-308150D01*
X-207600Y-309025D01*
X-207693Y-309900D01*
X-207600Y-310775D01*
X-207227Y-311525D01*
X-206667Y-312150D01*
X-205920Y-312400D01*
X-205267Y-312150D01*
X-204707Y-311650D01*
G01X-198700Y-312400D02*
X-199260Y-312275D01*
X-199820Y-311775D01*
X-200193Y-310900D01*
X-200380Y-309900D01*
X-200193Y-308900D01*
X-199820Y-308025D01*
X-199260Y-307525D01*
X-198700Y-307400D01*
X-198140Y-307525D01*
X-197580Y-308025D01*
X-197207Y-308900D01*
X-197113Y-309900D01*
X-197207Y-310900D01*
X-197580Y-311775D01*
X-198140Y-312275D01*
X-198700Y-312400D01*
G01X-194000D02*
Y-307400D01*
G01Y-308775D02*
X-193720Y-308150D01*
X-193253Y-307650D01*
X-192600Y-307400D01*
X-191947Y-307650D01*
X-191480Y-308150D01*
X-191200Y-308775D01*
Y-312400D01*
G01Y-308775D02*
X-190920Y-308150D01*
X-190453Y-307650D01*
X-189800Y-307400D01*
X-189147Y-307650D01*
X-188680Y-308150D01*
X-188400Y-308900D01*
Y-312400D01*
G01X-336133Y-307400D02*
X-335013Y-312400D01*
X-333800Y-307400D01*
X-332587Y-312400D01*
X-331467Y-307400D01*
G01X-328633D02*
X-327513Y-312400D01*
X-326300Y-307400D01*
X-325087Y-312400D01*
X-323967Y-307400D01*
G01X-321133D02*
X-320013Y-312400D01*
X-318800Y-307400D01*
X-317587Y-312400D01*
X-316467Y-307400D01*
G01X-311300Y-312650D02*
X-311487Y-312525D01*
Y-312275D01*
X-311300Y-312150D01*
X-311113Y-312275D01*
Y-312525D01*
X-311300Y-312650D01*
G01X-302120Y-304900D02*
Y-312400D01*
G01Y-311275D02*
X-302493Y-311900D01*
X-303053Y-312275D01*
X-303707Y-312400D01*
X-304453Y-312150D01*
X-305013Y-311525D01*
X-305387Y-310775D01*
X-305480Y-309900D01*
X-305387Y-309025D01*
X-305013Y-308275D01*
X-304453Y-307650D01*
X-303707Y-307400D01*
X-303053Y-307525D01*
X-302587Y-307775D01*
X-302120Y-308275D01*
G01X-297700Y-309025D02*
X-294713D01*
X-294993Y-308150D01*
X-295460Y-307650D01*
X-296113Y-307400D01*
X-296767Y-307525D01*
X-297327Y-307900D01*
X-297700Y-308775D01*
X-297887Y-309525D01*
Y-310275D01*
X-297700Y-311025D01*
X-297233Y-311775D01*
X-296673Y-312275D01*
X-296020Y-312400D01*
X-295367Y-312150D01*
X-294713Y-311400D01*
G01X-290200Y-311525D02*
X-289733Y-312025D01*
X-289080Y-312400D01*
X-288520D01*
X-287960Y-312150D01*
X-287587Y-311775D01*
X-287400Y-311275D01*
X-287493Y-310525D01*
X-287867Y-310150D01*
X-289547Y-309400D01*
X-289920Y-308525D01*
X-289733Y-307900D01*
X-289360Y-307525D01*
X-288800Y-307400D01*
X-288240Y-307525D01*
X-287680Y-307900D01*
G01X-281300Y-307400D02*
Y-312400D01*
G01Y-305400D02*
X-281487Y-305275D01*
Y-305025D01*
X-281300Y-304900D01*
X-281113Y-305025D01*
Y-305275D01*
X-281300Y-305400D01*
G01X-275107Y-314275D02*
X-274453Y-314775D01*
X-273707Y-314900D01*
X-273053Y-314775D01*
X-272493Y-314150D01*
X-272120Y-313275D01*
Y-307400D01*
G01Y-308400D02*
X-272493Y-307900D01*
X-273053Y-307525D01*
X-273707Y-307400D01*
X-274453Y-307650D01*
X-274920Y-308150D01*
X-275293Y-309025D01*
X-275480Y-309900D01*
X-275387Y-310650D01*
X-275013Y-311525D01*
X-274453Y-312150D01*
X-273707Y-312400D01*
X-273147Y-312275D01*
X-272493Y-311775D01*
X-272120Y-311275D01*
G01X-267887Y-312400D02*
Y-307400D01*
G01Y-308650D02*
X-267513Y-308025D01*
X-266953Y-307525D01*
X-266207Y-307400D01*
X-265553Y-307525D01*
X-264993Y-308025D01*
X-264713Y-308900D01*
Y-312400D01*
G01X-260013Y-309900D02*
X-257587D01*
G01X-252700Y-311525D02*
X-252233Y-312025D01*
X-251580Y-312400D01*
X-251020D01*
X-250460Y-312150D01*
X-250087Y-311775D01*
X-249900Y-311275D01*
X-249993Y-310525D01*
X-250367Y-310150D01*
X-252047Y-309400D01*
X-252420Y-308525D01*
X-252233Y-307900D01*
X-251860Y-307525D01*
X-251300Y-307400D01*
X-250740Y-307525D01*
X-250180Y-307900D01*
G01X-245387Y-312400D02*
Y-304900D01*
G01Y-308525D02*
X-244920Y-307900D01*
X-244453Y-307525D01*
X-243707Y-307400D01*
X-243147Y-307525D01*
X-242493Y-308025D01*
X-242213Y-308775D01*
Y-312400D01*
G01X-236300Y-307400D02*
Y-312400D01*
G01Y-305400D02*
X-236487Y-305275D01*
Y-305025D01*
X-236300Y-304900D01*
X-236113Y-305025D01*
Y-305275D01*
X-236300Y-305400D01*
G01X-229360Y-312400D02*
Y-306025D01*
X-229173Y-305400D01*
X-228800Y-305025D01*
X-228240Y-304900D01*
X-227680Y-305150D01*
X-227400Y-305775D01*
G01X-228520Y-307900D02*
X-230387D01*
G01X-221300Y-304900D02*
Y-312400D01*
G01X-222607Y-307400D02*
X-219993D01*
G01X-213800Y-312650D02*
X-213987Y-312525D01*
Y-312275D01*
X-213800Y-312150D01*
X-213613Y-312275D01*
Y-312525D01*
X-213800Y-312650D01*
G01X-204807Y-308025D02*
X-205460Y-307525D01*
X-206020Y-307400D01*
X-206767Y-307650D01*
X-207327Y-308150D01*
X-207700Y-309025D01*
X-207793Y-309900D01*
X-207700Y-310775D01*
X-207327Y-311525D01*
X-206767Y-312150D01*
X-206020Y-312400D01*
X-205367Y-312150D01*
X-204807Y-311650D01*
G01X-198800Y-312400D02*
X-199360Y-312275D01*
X-199920Y-311775D01*
X-200293Y-310900D01*
X-200480Y-309900D01*
X-200293Y-308900D01*
X-199920Y-308025D01*
X-199360Y-307525D01*
X-198800Y-307400D01*
X-198240Y-307525D01*
X-197680Y-308025D01*
X-197307Y-308900D01*
X-197213Y-309900D01*
X-197307Y-310900D01*
X-197680Y-311775D01*
X-198240Y-312275D01*
X-198800Y-312400D01*
G01X-194100D02*
Y-307400D01*
G01Y-308775D02*
X-193820Y-308150D01*
X-193353Y-307650D01*
X-192700Y-307400D01*
X-192047Y-307650D01*
X-191580Y-308150D01*
X-191300Y-308775D01*
Y-312400D01*
G01Y-308775D02*
X-191020Y-308150D01*
X-190553Y-307650D01*
X-189900Y-307400D01*
X-189247Y-307650D01*
X-188780Y-308150D01*
X-188500Y-308900D01*
Y-312400D01*
G01X-336233Y-307400D02*
X-335113Y-312400D01*
X-333900Y-307400D01*
X-332687Y-312400D01*
X-331567Y-307400D01*
G01X-328733D02*
X-327613Y-312400D01*
X-326400Y-307400D01*
X-325187Y-312400D01*
X-324067Y-307400D01*
G01X-321233D02*
X-320113Y-312400D01*
X-318900Y-307400D01*
X-317687Y-312400D01*
X-316567Y-307400D01*
G01X-311400Y-312650D02*
X-311587Y-312525D01*
Y-312275D01*
X-311400Y-312150D01*
X-311213Y-312275D01*
Y-312525D01*
X-311400Y-312650D01*
G01X-302220Y-304900D02*
Y-312400D01*
G01Y-311275D02*
X-302593Y-311900D01*
X-303153Y-312275D01*
X-303807Y-312400D01*
X-304553Y-312150D01*
X-305113Y-311525D01*
X-305487Y-310775D01*
X-305580Y-309900D01*
X-305487Y-309025D01*
X-305113Y-308275D01*
X-304553Y-307650D01*
X-303807Y-307400D01*
X-303153Y-307525D01*
X-302687Y-307775D01*
X-302220Y-308275D01*
G01X-297800Y-309025D02*
X-294813D01*
X-295093Y-308150D01*
X-295560Y-307650D01*
X-296213Y-307400D01*
X-296867Y-307525D01*
X-297427Y-307900D01*
X-297800Y-308775D01*
X-297987Y-309525D01*
Y-310275D01*
X-297800Y-311025D01*
X-297333Y-311775D01*
X-296773Y-312275D01*
X-296120Y-312400D01*
X-295467Y-312150D01*
X-294813Y-311400D01*
G01X-290300Y-311525D02*
X-289833Y-312025D01*
X-289180Y-312400D01*
X-288620D01*
X-288060Y-312150D01*
X-287687Y-311775D01*
X-287500Y-311275D01*
X-287593Y-310525D01*
X-287967Y-310150D01*
X-289647Y-309400D01*
X-290020Y-308525D01*
X-289833Y-307900D01*
X-289460Y-307525D01*
X-288900Y-307400D01*
X-288340Y-307525D01*
X-287780Y-307900D01*
G01X-281400Y-307400D02*
Y-312400D01*
G01Y-305400D02*
X-281587Y-305275D01*
Y-305025D01*
X-281400Y-304900D01*
X-281213Y-305025D01*
Y-305275D01*
X-281400Y-305400D01*
G01X-275207Y-314275D02*
X-274553Y-314775D01*
X-273807Y-314900D01*
X-273153Y-314775D01*
X-272593Y-314150D01*
X-272220Y-313275D01*
Y-307400D01*
G01Y-308400D02*
X-272593Y-307900D01*
X-273153Y-307525D01*
X-273807Y-307400D01*
X-274553Y-307650D01*
X-275020Y-308150D01*
X-275393Y-309025D01*
X-275580Y-309900D01*
X-275487Y-310650D01*
X-275113Y-311525D01*
X-274553Y-312150D01*
X-273807Y-312400D01*
X-273247Y-312275D01*
X-272593Y-311775D01*
X-272220Y-311275D01*
G01X-267987Y-312400D02*
Y-307400D01*
G01Y-308650D02*
X-267613Y-308025D01*
X-267053Y-307525D01*
X-266307Y-307400D01*
X-265653Y-307525D01*
X-265093Y-308025D01*
X-264813Y-308900D01*
Y-312400D01*
G01X-260113Y-309900D02*
X-257687D01*
G01X-252800Y-311525D02*
X-252333Y-312025D01*
X-251680Y-312400D01*
X-251120D01*
X-250560Y-312150D01*
X-250187Y-311775D01*
X-250000Y-311275D01*
X-250093Y-310525D01*
X-250467Y-310150D01*
X-252147Y-309400D01*
X-252520Y-308525D01*
X-252333Y-307900D01*
X-251960Y-307525D01*
X-251400Y-307400D01*
X-250840Y-307525D01*
X-250280Y-307900D01*
G01X-245487Y-312400D02*
Y-304900D01*
G01Y-308525D02*
X-245020Y-307900D01*
X-244553Y-307525D01*
X-243807Y-307400D01*
X-243247Y-307525D01*
X-242593Y-308025D01*
X-242313Y-308775D01*
Y-312400D01*
G01X-236400Y-307400D02*
Y-312400D01*
G01Y-305400D02*
X-236587Y-305275D01*
Y-305025D01*
X-236400Y-304900D01*
X-236213Y-305025D01*
Y-305275D01*
X-236400Y-305400D01*
G01X-229460Y-312400D02*
Y-306025D01*
X-229273Y-305400D01*
X-228900Y-305025D01*
X-228340Y-304900D01*
X-227780Y-305150D01*
X-227500Y-305775D01*
G01X-228620Y-307900D02*
X-230487D01*
G01X-221400Y-304900D02*
Y-312400D01*
G01X-222707Y-307400D02*
X-220093D01*
G01X-213900Y-312650D02*
X-214087Y-312525D01*
Y-312275D01*
X-213900Y-312150D01*
X-213713Y-312275D01*
Y-312525D01*
X-213900Y-312650D01*
G01X-204907Y-308025D02*
X-205560Y-307525D01*
X-206120Y-307400D01*
X-206867Y-307650D01*
X-207427Y-308150D01*
X-207800Y-309025D01*
X-207893Y-309900D01*
X-207800Y-310775D01*
X-207427Y-311525D01*
X-206867Y-312150D01*
X-206120Y-312400D01*
X-205467Y-312150D01*
X-204907Y-311650D01*
G01X-198900Y-312400D02*
X-199460Y-312275D01*
X-200020Y-311775D01*
X-200393Y-310900D01*
X-200580Y-309900D01*
X-200393Y-308900D01*
X-200020Y-308025D01*
X-199460Y-307525D01*
X-198900Y-307400D01*
X-198340Y-307525D01*
X-197780Y-308025D01*
X-197407Y-308900D01*
X-197313Y-309900D01*
X-197407Y-310900D01*
X-197780Y-311775D01*
X-198340Y-312275D01*
X-198900Y-312400D01*
G01X-194200D02*
Y-307400D01*
G01Y-308775D02*
X-193920Y-308150D01*
X-193453Y-307650D01*
X-192800Y-307400D01*
X-192147Y-307650D01*
X-191680Y-308150D01*
X-191400Y-308775D01*
Y-312400D01*
G01Y-308775D02*
X-191120Y-308150D01*
X-190653Y-307650D01*
X-190000Y-307400D01*
X-189347Y-307650D01*
X-188880Y-308150D01*
X-188600Y-308900D01*
Y-312400D01*
G01X-118600Y-281900D02*
X-119347Y-281775D01*
X-120000Y-281275D01*
X-120560Y-280525D01*
X-120933Y-279650D01*
X-121120Y-278650D01*
Y-277650D01*
X-120933Y-276650D01*
X-120560Y-275775D01*
X-120000Y-275025D01*
X-119347Y-274525D01*
X-118600Y-274400D01*
X-117853Y-274525D01*
X-117200Y-275025D01*
X-116640Y-275775D01*
X-116267Y-276650D01*
X-116080Y-277650D01*
Y-278650D01*
X-116267Y-279650D01*
X-116640Y-280525D01*
X-117200Y-281275D01*
X-117853Y-281775D01*
X-118600Y-281900D01*
G01X-112967D02*
Y-274400D01*
X-110633D01*
X-109887Y-274775D01*
X-109420Y-275275D01*
X-109233Y-276275D01*
X-109420Y-277275D01*
X-109980Y-277900D01*
X-110633Y-278275D01*
X-112967D01*
G01X-110633D02*
X-109233Y-281900D01*
G01X-106400Y-274400D02*
X-105093Y-281900D01*
X-103600Y-274400D01*
X-102107Y-281900D01*
X-100800Y-274400D01*
G01X-97967D02*
Y-281900D01*
X-94233D01*
G01X-59533Y-282500D02*
X-63267D01*
Y-275000D01*
X-59533D01*
G01X-61027Y-278625D02*
X-63267D01*
G01X-56233Y-275000D02*
X-53900Y-282500D01*
X-51567Y-275000D01*
G01X-46400D02*
Y-282500D01*
G01X-48547Y-275000D02*
X-44253D01*
G01X-32283Y-298017D02*
X-31700Y-297433D01*
X-31200Y-297100D01*
X-30533Y-296933D01*
X-29950Y-297100D01*
X-29533Y-297433D01*
X-29200Y-297933D01*
X-29117Y-298517D01*
X-29200Y-299017D01*
X-29533Y-299517D01*
X-30033Y-299933D01*
X-30617Y-300100D01*
X-31283Y-299933D01*
X-31867Y-299433D01*
X-32200Y-298683D01*
X-32283Y-297850D01*
X-32117Y-296767D01*
X-31867Y-296183D01*
X-31450Y-295600D01*
X-30867Y-295183D01*
X-30283Y-295100D01*
X-29700Y-295267D01*
X-29283Y-295683D01*
G01X-60450Y-279433D02*
X-59783Y-279850D01*
X-59033Y-280100D01*
X-58367D01*
X-57700Y-279850D01*
X-57200Y-279433D01*
X-56950Y-278850D01*
X-57117Y-278267D01*
X-57533Y-277767D01*
X-58283Y-277433D01*
X-59283Y-277267D01*
X-59867Y-276933D01*
X-60117Y-276350D01*
X-59950Y-275767D01*
X-59533Y-275350D01*
X-58950Y-275100D01*
X-58367D01*
X-57783Y-275267D01*
X-57283Y-275683D01*
G01X-51800Y-277600D02*
X-50133D01*
Y-279100D01*
X-50633Y-279600D01*
X-51217Y-279933D01*
X-52050Y-280100D01*
X-52883Y-279933D01*
X-53467Y-279600D01*
X-53967Y-279100D01*
X-54300Y-278517D01*
X-54467Y-277850D01*
Y-277267D01*
X-54300Y-276767D01*
X-53967Y-276183D01*
X-53467Y-275683D01*
X-52967Y-275350D01*
X-52300Y-275100D01*
X-51717D01*
X-51050Y-275267D01*
X-50550Y-275600D01*
G01X-47817Y-280100D02*
Y-275100D01*
X-43983Y-280100D01*
Y-275100D01*
G01X-41333Y-280100D02*
Y-275100D01*
X-39667D01*
X-39000Y-275350D01*
X-38500Y-275683D01*
X-38083Y-276183D01*
X-37750Y-276767D01*
X-37667Y-277600D01*
X-37750Y-278433D01*
X-38083Y-279017D01*
X-38500Y-279517D01*
X-39000Y-279850D01*
X-39667Y-280100D01*
X-41333D01*
G01X-132400Y-308900D02*
X-133067Y-309067D01*
X-133567Y-309483D01*
X-133900Y-309983D01*
X-134150Y-310650D01*
X-134233Y-311400D01*
X-134150Y-312150D01*
X-133900Y-312817D01*
X-133567Y-313317D01*
X-133067Y-313733D01*
X-132400Y-313900D01*
X-131733Y-313733D01*
X-131233Y-313317D01*
X-130900Y-312817D01*
X-130650Y-312150D01*
X-130567Y-311400D01*
X-130650Y-310650D01*
X-130900Y-309983D01*
X-131233Y-309483D01*
X-131733Y-309067D01*
X-132400Y-308900D01*
G01X-126167Y-313900D02*
X-126000Y-312817D01*
X-125750Y-311900D01*
X-125417Y-311067D01*
X-125000Y-310150D01*
X-124333Y-308900D01*
X-127667D01*
G01X-121100Y-314067D02*
X-118100Y-308900D01*
G01X-114783Y-309733D02*
X-114283Y-309233D01*
X-113700Y-308983D01*
X-113033Y-308900D01*
X-112200Y-309067D01*
X-111617Y-309483D01*
X-111450Y-309983D01*
X-111533Y-310483D01*
X-111867Y-310900D01*
X-113533Y-311733D01*
X-114283Y-312317D01*
X-114783Y-313150D01*
X-114950Y-313900D01*
X-111450D01*
G01X-106800Y-308900D02*
X-107467Y-309067D01*
X-107967Y-309483D01*
X-108300Y-309983D01*
X-108550Y-310650D01*
X-108633Y-311400D01*
X-108550Y-312150D01*
X-108300Y-312817D01*
X-107967Y-313317D01*
X-107467Y-313733D01*
X-106800Y-313900D01*
X-106133Y-313733D01*
X-105633Y-313317D01*
X-105300Y-312817D01*
X-105050Y-312150D01*
X-104967Y-311400D01*
X-105050Y-310650D01*
X-105300Y-309983D01*
X-105633Y-309483D01*
X-106133Y-309067D01*
X-106800Y-308900D01*
G01X-101900Y-314067D02*
X-98900Y-308900D01*
G01X-94000Y-313900D02*
Y-308900D01*
X-95000Y-309900D01*
G01Y-313900D02*
X-93000D01*
G01X-89433Y-313150D02*
X-88933Y-313567D01*
X-88350Y-313817D01*
X-87600Y-313900D01*
X-86850Y-313733D01*
X-86267Y-313400D01*
X-85850Y-312817D01*
X-85767Y-312150D01*
X-85933Y-311483D01*
X-86350Y-311067D01*
X-86933Y-310733D01*
X-87517Y-310650D01*
X-88100Y-310733D01*
X-88850Y-311067D01*
X-88600Y-308900D01*
X-86350D01*
G01X-81200Y-310567D02*
X-80367Y-309525D01*
Y-308900D01*
X-80992D01*
Y-309525D01*
X-80367D01*
M02*
