G04 ================== begin FILE IDENTIFICATION RECORD ==================*
G04 Layout Name:  ORWL_Design_SHIFT.brd*
G04 Film Name:    svcc*
G04 File Format:  Gerber RS274X*
G04 File Origin:  Cadence Allegro 16.6-P004*
G04 Origin Date:  Sat Sep 19 15:46:56 2015*
G04 *
G04 Layer:  ANTI ETCH/SVCC*
G04 Layer:  VIA CLASS/SVCC*
G04 Layer:  PIN/SVCC*
G04 Layer:  ETCH/SVCC*
G04 Layer:  DRAWING FORMAT/SVCC*
G04 Layer:  BOARD GEOMETRY/LOGO*
G04 *
G04 Offset:    (0.00 0.00)*
G04 Mirror:    No*
G04 Mode:      Negative*
G04 Rotation:  0*
G04 FullContactRelief:  Yes*
G04 UndefLineWidth:     6.00*
G04 ================== end FILE IDENTIFICATION RECORD ====================*
%FSLAX45Y45*MOIN*%
%IR0*IPPOS*OFA0.00000B0.00000*MIA0B0*SFA1.00000B1.00000*%
%AMMACRO26*
21,1,.012,.105,0.0,0.0,118.*
1,1,.105,-.002817,.005298*
1,1,.105,.002817,-.005298*%
%ADD26MACRO26*%
%AMMACRO13*
21,1,.014,.036,0.0,0.0,135.*
1,1,.036,-.00495,.00495*
1,1,.036,.00495,-.00495*%
%ADD13MACRO13*%
%AMMACRO14*
21,1,.04,.043,0.0,0.0,135.*
1,1,.04,.015203,.015203*
1,1,.04,-.015203,-.015203*%
%ADD14MACRO14*%
%AMMACRO12*
21,1,.027,.036,0.0,0.0,135.*
1,1,.036,-.009546,.009546*
1,1,.036,.009546,-.009546*%
%ADD12MACRO12*%
%AMMACRO25*
21,1,.012,.105,0.0,0.0,107.424*
1,1,.105,-.001797,.005725*
1,1,.105,.001797,-.005725*%
%ADD25MACRO25*%
%ADD34C,.03*%
%AMMACRO15*
21,1,.04,.039,0.0,0.0,135.*
1,1,.04,.013789,.013789*
1,1,.04,-.013789,-.013789*%
%ADD15MACRO15*%
%ADD23C,.05*%
%ADD22C,.023*%
%AMMACRO11*
21,1,.015,.044,0.0,0.0,135.*
1,1,.044,-.005303,.005303*
1,1,.044,.005303,-.005303*%
%ADD11MACRO11*%
%AMMACRO35*
21,1,.023,.036,0.0,0.0,135.*
1,1,.036,-.008132,.008132*
1,1,.036,.008132,-.008132*%
%ADD35MACRO35*%
%ADD10C,.025*%
%ADD24C,.036*%
%ADD17C,.063*%
%ADD36C,.055*%
%ADD33C,.029*%
%ADD21C,.038*%
%ADD16C,.083*%
%ADD18C,.048*%
%ADD19C,.095*%
%AMMACRO29*
21,1,.014,.036,0.0,0.0,45.*
1,1,.036,.00495,.00495*
1,1,.036,-.00495,-.00495*%
%ADD29MACRO29*%
%AMMACRO30*
21,1,.04,.043,0.0,0.0,45.*
1,1,.04,.015203,-.015203*
1,1,.04,-.015203,.015203*%
%ADD30MACRO30*%
%AMMACRO28*
21,1,.027,.036,0.0,0.0,45.*
1,1,.036,.009546,.009546*
1,1,.036,-.009546,-.009546*%
%ADD28MACRO28*%
%ADD20C,.105*%
%AMMACRO31*
21,1,.04,.039,0.0,0.0,45.*
1,1,.04,.013789,-.013789*
1,1,.04,-.013789,.013789*%
%ADD31MACRO31*%
%AMMACRO27*
21,1,.015,.044,0.0,0.0,45.*
1,1,.044,.005303,.005303*
1,1,.044,-.005303,-.005303*%
%ADD27MACRO27*%
%ADD32C,.166*%
%ADD37C,.01*%
%ADD38C,.02*%
%ADD39C,.014*%
%ADD40C,.015*%
%ADD41C,.08*%
%ADD42C,.006*%
%ADD44C,.07302*%
%ADD45C,.07254*%
%ADD43C,.05754*%
G75*
%LPD*%
G75*
G36*
G01X-540000Y-500000D02*
X1130000D01*
Y630000D01*
X-540000D01*
Y-500000D01*
G37*
%LPC*%
G75*
G36*
G01X-76911Y24098D02*
G03X-78338Y23116I-89J-1398D01*
G02X-87271Y17348I-118512J173741D01*
G03X-89561Y15970I-929J-1049D01*
G02X-93079Y13929I-107293J180885D01*
G01X-93264Y14276D01*
G03X-102523Y15525I-5078J-2700D01*
G01X-103679Y17698D01*
G03X-109091Y19352I-3533J-1878D01*
G01X-123106Y11900D01*
G03X-123725Y11493I1879J-3532D01*
G03X-124665Y11358I95J-4000D01*
G01X-139998Y7249D01*
G03X-142828Y2348I1035J-3865D01*
G01X-142174Y-91D01*
G03X-148067Y-7550I-406J-5737D01*
G01X-148018Y-7707D01*
G02X-251202Y-6311I-48834J204559D01*
G03X-253757Y-5610I-1398J-89D01*
G02X-325796Y30713I56907J202461D01*
G03X-326917Y31589I-1304J-513D01*
G02X-345136Y47719I130065J165264D01*
G01X-357426Y60008D01*
X-357517Y60407D01*
G03X-358362Y62157I-3918J-813D01*
G02X-376674Y87800I161513J134699D01*
G03X-390685Y115260I-13090J10625D01*
G02X-405302Y168982I193835J81589D01*
G01X-404882Y169402D01*
G03X-404797Y169499I-709J707D01*
G01X-388915D01*
X-387501Y168085D01*
Y145000D01*
G03X-387388Y144538I1001J0D01*
G01X-387308Y144378D01*
G03X-387109Y144093I908J422D01*
G01X-366621Y123549D01*
G03X-359564Y116473I2247J-4816D01*
G01X-350409Y107293D01*
G03X-350379Y107265I698J718D01*
G01X-326027Y83012D01*
G03X-325300Y82699I727J688D01*
G01X-321264D01*
G03X-319936I664J1001D01*
G01X-288315D01*
X-255108Y49492D01*
G03X-254380Y49199I708J708D01*
G01X-238473Y49161D01*
G03X-236426Y48998I1073J539D01*
G03X-234273Y48781I1129J410D01*
G03X-232135Y48891I1041J600D01*
G03X-229954Y49140I1035J609D01*
G01X-212925Y49099D01*
G03X-212192Y49392I25J1001D01*
G01X-209494Y52090D01*
G03X-208990Y52594I-706J1210D01*
G01X-208492Y53092D01*
G03X-208199Y53823I-708J708D01*
G01Y59615D01*
X-207616Y60199D01*
X-122723D01*
G03X-121991Y60493I23J1001D01*
G01X-74291Y108293D01*
G03X-73999Y109023I-709J707D01*
G01Y211025D01*
X-73542Y211482D01*
G03X-73377Y211699I-707J709D01*
G01X-39873D01*
G03X-37727I1073J901D01*
G01X12245D01*
X12622Y211322D01*
G03X12973Y211095I707J709D01*
G02X13228Y187069I-209824J-14241D01*
G03X13111Y184817I772J-1169D01*
G02X11253Y166493I-209962J12033D01*
G03X10845Y163814I147J-1393D01*
G02X-2860Y115633I-207695J33039D01*
G03X-17237Y87453I-1992J-16741D01*
G02X-24163Y76818I-179617J109402D01*
G03X-24488Y76351I964J-1017D01*
G02X-31634Y66726I-172365J120506D01*
G03X-32088Y66151I834J-1126D01*
G02X-47552Y48732I-164768J130702D01*
G03X-48052Y48117I2839J-2819D01*
G03X-48668Y47616I2204J-3339D01*
G02X-76911Y24098I-148185J149239D01*
G37*
G36*
G01X-111708Y368208D02*
X-116663Y363253D01*
G03X-118153Y361763I-337J-1153D01*
G01X-124715Y355201D01*
X-142527D01*
G03X-144673I-1073J-539D01*
G01X-154985D01*
X-167392Y367608D01*
G03X-168123Y367901I-708J-708D01*
G01X-182392D01*
G03X-183980I-794J-901D01*
G01X-223234D01*
G03X-230040I-3403J-1323D01*
G01X-252225D01*
G03X-254175I-975J-701D01*
G01X-278428D01*
Y368663D01*
X-280174Y370408D01*
X-282639D01*
X-284383Y368664D01*
Y366198D01*
X-283100Y364916D01*
X-334915Y313101D01*
X-366416D01*
G03X-368784I-1184J-201D01*
G01X-372106D01*
G02X-317550Y369072I175255J-116251D01*
G01X-314356Y363065D01*
G03X-308944Y361411I3533J1878D01*
G01X-294929Y368863D01*
G03X-293274Y374275I-1878J3533D01*
G01X-294711Y376976D01*
G03X-290471Y385169I-930J5675D01*
G02X-256812Y398427I93616J-188313D01*
G03X-248127Y395326I5498J1686D01*
G01X-247347Y392415D01*
G03X-242434Y389541I3877J991D01*
G01X-227100Y393650D01*
G03X-224283Y398594I-1036J3865D01*
G01X-226032Y405122D01*
G02X-208107Y406855I29181J-208262D01*
G03X-206384Y406940I807J1145D01*
G02X-193450Y407129I9538J-210080D01*
G03X-161947Y404241I16284J4365D01*
G02X-155401Y403032I-34918J-207387D01*
G03X-152702Y402472I1401J-33D01*
G02X-77198Y369802I-44150J-205620D01*
G03X-75875Y368501I1398J98D01*
G01X-110977D01*
G03X-111708Y368208I-23J-1001D01*
G37*
G36*
G01X-284979Y320965D02*
X-277937Y328007D01*
G03X-276607Y329337I137J1193D01*
G01X-275045Y330899D01*
X-185843D01*
G03X-184797I523J1081D01*
G01X-183343D01*
G03X-182297I523J1081D01*
G01X-180843D01*
G03X-179797I523J1081D01*
G01X-178343D01*
G03X-177297I523J1081D01*
G01X-175843D01*
G03X-174797I523J1081D01*
G01X-171315D01*
X-162201Y321785D01*
Y292380D01*
G03Y291420I1101J-480D01*
G01Y290780D01*
G03Y289820I1101J-480D01*
G01Y289180D01*
G03Y288220I1101J-480D01*
G01Y287480D01*
G03Y286520I1101J-480D01*
G01Y285780D01*
G03Y284820I1101J-480D01*
G01Y284080D01*
G03Y283120I1101J-480D01*
G01Y282380D01*
G03Y281420I1101J-480D01*
G01Y280164D01*
G03Y278836I1001J-664D01*
G01Y235115D01*
X-162915Y234401D01*
X-166899D01*
X-212993Y234454D01*
G03X-213861Y233954I-1J-1001D01*
G01X-215767D01*
G03X-217489Y235256I-1179J231D01*
G01X-219126Y236893D01*
G03X-219494Y237054I-368J-340D01*
G01X-221287D01*
X-221593Y237360D01*
Y238753D01*
G03X-221754Y239121I-501J0D01*
G01X-223426Y240793D01*
G03X-223543Y240887I-369J-339D01*
G03X-225389Y240954I-951J-734D01*
G01X-226149D01*
G03X-227939I-895J-801D01*
G01X-228649D01*
G03X-230439I-895J-801D01*
G01X-231199D01*
G03X-232989I-895J-801D01*
G01X-233656D01*
G03X-235982I-1163J-301D01*
G01X-236431D01*
G03X-238757I-1163J-301D01*
G01X-238799D01*
G03X-240589I-895J-801D01*
G01X-243531D01*
G03X-245857I-1163J-301D01*
G01X-246399D01*
G03X-248189I-895J-801D01*
G01X-248899D01*
G03X-250689I-895J-801D01*
G01X-260687D01*
X-261226Y241493D01*
G03X-261293Y241553I-366J-342D01*
G01Y245253D01*
G03X-261454Y245621I-501J0D01*
G01X-262621Y246788D01*
G03X-262639Y246807I-373J-335D01*
G01X-280245Y264454D01*
G03X-280618Y264601I-355J-354D01*
G01X-282000D01*
G03X-282800Y265001I-800J-600D01*
G01X-284390D01*
G03X-284451Y265068I-770J-640D01*
G01X-284979Y265596D01*
Y320965D01*
G37*
G36*
G01X-405565Y171501D02*
X-405582Y171518D01*
G03X-405631Y171564I-709J-707D01*
G02X-405611Y222299I208781J25285D01*
G01X-402732D01*
G03X-400468I1132J401D01*
G01X-396392D01*
G03X-394208I1092J501D01*
G01X-369715D01*
X-369001Y221585D01*
Y172115D01*
X-369615Y171501D01*
X-384477D01*
G03X-384523I-23J-1001D01*
G01X-388477D01*
G03X-388523I-23J-1001D01*
G01X-405565D01*
G37*
G36*
G01X-76001Y142170D02*
G03Y139830I270J-1170D01*
G01Y109414D01*
X-78977Y106432D01*
G03X-80665Y104740I-758J-931D01*
G01X-123116Y62201D01*
X-167205D01*
G03X-168995I-895J-801D01*
G01X-180292D01*
G03X-182908I-1308J-501D01*
G01X-200199D01*
G03X-200341Y62211I-141J-991D01*
G01X-207821Y62203D01*
G03X-208201Y62202I-187J-983D01*
G01X-209186Y62201D01*
X-209856Y62870D01*
G03X-209892Y62908I-745J-669D01*
G01X-213792Y66808D01*
G03X-213880Y66887I-712J-704D01*
G01X-259393Y112309D01*
X-270392Y123308D01*
G03X-271123Y123601I-708J-708D01*
G01X-316335D01*
X-334088Y141354D01*
G03X-335746Y143012I-1012J646D01*
G01X-350919Y158185D01*
Y166365D01*
X-348965Y168319D01*
X-300963D01*
G03X-300232Y168612I23J1001D01*
G01X-291433Y177411D01*
G03X-290411Y178433I-167J1189D01*
G01X-285762Y183082D01*
G03X-285082Y183762I-438J1118D01*
G01X-283152Y185692D01*
G03X-282859Y186423I-708J708D01*
G01Y194199D01*
G03Y195707I-935J754D01*
G01Y202454D01*
G03Y204646I-491J1096D01*
G01Y212425D01*
X-282032Y213252D01*
G03X-281774Y214222I-708J708D01*
G01X-280722Y215279D01*
X-279429Y215281D01*
G03X-277369Y215284I1029J619D01*
G01X-273787Y215290D01*
G03X-272011Y215293I887J810D01*
G01X-268218Y215299D01*
G03X-267842Y215449I18J501D01*
G01X-265683Y217652D01*
X-253450D01*
G03X-251865Y217416I924J767D01*
G01X-251595Y217146D01*
Y206637D01*
G03Y204269I201J-1184D01*
G01Y193953D01*
X-251601Y187901D01*
G03X-252001Y187100I602J-801D01*
G01Y165124D01*
G03X-251713Y164397I1001J-24D01*
G01X-237713Y150197D01*
G03X-237703Y150187I713J703D01*
G01X-206008Y118492D01*
G03X-205277Y118199I708J708D01*
G01X-173855D01*
X-173528Y117872D01*
G03X-173501Y117846I708J708D01*
G01Y110723D01*
G03X-173208Y109992I1001J-23D01*
G01X-170408Y107192D01*
G03X-169677Y106899I708J708D01*
G01X-134423D01*
G03X-133692Y107192I23J1001D01*
G01X-124345Y116539D01*
G03X-123539Y117345I-655J1461D01*
G01X-122485Y118399D01*
G03X-120899Y119985I-15J1601D01*
G01X-119485Y121399D01*
G03X-117899Y122985I-15J1601D01*
G01X-116683Y124201D01*
G03X-115399Y126859I83J1599D01*
G01Y127641D01*
G03Y129759I-1201J1059D01*
G01Y185377D01*
G03X-115692Y186108I-1001J23D01*
G01X-120099Y190515D01*
Y196492D01*
G03Y198874I-158J1191D01*
G01Y211085D01*
X-119592Y211592D01*
G03X-119499Y211699I-707J709D01*
G01X-76523D01*
G03X-76358Y211482I872J492D01*
G01X-76001Y211125D01*
Y142170D01*
G37*
G36*
G01X-262295Y237050D02*
G03Y234656I101J-1197D01*
G01Y232260D01*
X-264201Y230354D01*
X-266185D01*
X-275945Y240154D01*
G03X-276318Y240301I-355J-354D01*
G01X-276833D01*
G03X-277700Y240801I-867J-502D01*
G01X-283837D01*
G03X-286163I-1163J-301D01*
G01X-293208D01*
G03X-295392I-1092J-501D01*
G01X-314216D01*
G03X-316584I-1184J-201D01*
G01X-323954D01*
G03X-325258I-652J-4581D01*
G01X-351099D01*
G03X-353501Y240817I-1201J-1D01*
G01X-361399Y248715D01*
Y260885D01*
X-359285Y262999D01*
X-335592D01*
G03X-333408I1092J501D01*
G01X-304875D01*
G03X-302925I975J701D01*
G01X-302340D01*
G03X-300260I1040J601D01*
G01X-286153D01*
G03X-286107I23J1001D01*
G01X-282800D01*
G03X-281883Y263599I0J1001D01*
G01X-280808D01*
X-263349Y246099D01*
G03X-263329Y246080I355J354D01*
G01X-262295Y245046D01*
Y240725D01*
G03Y238597I558J-1064D01*
G01Y237050D01*
G37*
G36*
G01X-274086Y216292D02*
X-277263Y216287D01*
G03X-279538Y216283I-1137J-387D01*
G01X-280931Y216281D01*
G03X-281299Y216119I1J-501D01*
G01X-282484Y214928D01*
G03X-283448Y214668I-256J-968D01*
G01X-284568Y213548D01*
G03X-284861Y212817I708J-708D01*
G01Y195504D01*
G03Y194402I1067J-551D01*
G01Y187809D01*
G03X-285487Y186189I461J-1109D01*
G01X-286278Y185398D01*
G03X-287398Y184278I78J-1198D01*
G01X-291918Y179758D01*
G03X-292758Y178918I318J-1158D01*
G01X-299093Y172583D01*
G03X-300483Y171193I-207J-1183D01*
G01X-301355Y170321D01*
X-349357D01*
G03X-350088Y170028I-23J-1001D01*
G01X-352628Y167488D01*
G03X-352921Y166757I708J-708D01*
G01Y157793D01*
G03X-352628Y157062I1001J-23D01*
G01X-338172Y142606D01*
G03X-336494Y140928I972J-706D01*
G01X-317458Y121892D01*
G03X-316727Y121599I708J708D01*
G01X-271515D01*
X-260809Y110893D01*
G03X-260807Y110891I709J707D01*
G01X-210307Y60491D01*
G03X-210201Y60399I708J708D01*
G01Y54701D01*
G03X-211536Y52880I1J-1401D01*
G01X-213314Y51102D01*
X-253984Y51200D01*
X-287192Y84408D01*
G03X-287923Y84701I-708J-708D01*
G01X-319936D01*
G03X-321264I-664J-1001D01*
G01X-324887D01*
X-348967Y108682D01*
G03X-348991Y108707I-734J-681D01*
G01X-359060Y118804D01*
G03X-364289Y124046I-5314J-71D01*
G01X-385499Y145314D01*
Y168085D01*
X-384085Y169499D01*
X-383122D01*
G03X-380328I1397J111D01*
G01X-369223D01*
G03X-368492Y169792I23J1001D01*
G01X-367292Y170992D01*
G03X-366999Y171723I-708J708D01*
G01Y194285D01*
G03X-366992Y194292I-705J711D01*
G01X-365285Y195999D01*
X-332523D01*
G03X-331792Y196292I23J1001D01*
G01X-324692Y203392D01*
G03X-324399Y204123I-708J708D01*
G01Y231598D01*
G03X-320764Y238799I-207J4622D01*
G01X-277700D01*
G03X-276833Y239299I0J1002D01*
G01X-276509D01*
X-266749Y229499D01*
G03X-266376Y229352I355J354D01*
G01X-263994D01*
G03X-263626Y229513I0J501D01*
G01X-261454Y231685D01*
G03X-261293Y232053I-340J368D01*
G01Y235059D01*
G03Y236647I-901J794D01*
G01Y238545D01*
G03X-260572Y239952I-444J1116D01*
G01X-250978D01*
G03X-248610I1184J201D01*
G01X-248478D01*
G03X-246110I1184J201D01*
G01X-245669D01*
G03X-243719I975J701D01*
G01X-240878D01*
G03X-238522Y239891I1184J201D01*
G03X-236619Y239952I928J762D01*
G01X-235794D01*
G03X-233844I975J701D01*
G01X-233278D01*
G03X-230910I1184J201D01*
G01X-230728D01*
G03X-228360I1184J201D01*
G01X-228228D01*
G03X-225860I1184J201D01*
G01X-225678D01*
G03X-223511Y239462I1184J201D01*
G01X-222595Y238546D01*
Y237360D01*
X-222901Y237054D01*
X-230994D01*
G03X-231362Y236893I0J-501D01*
G01X-231701Y236554D01*
X-249694D01*
G03X-250062Y236393I0J-501D01*
G01X-251434Y235021D01*
G03X-251595Y234653I340J-368D01*
G01Y233450D01*
G03Y231050I35J-1200D01*
G01Y228942D01*
G03X-252002Y226646I79J-1198D01*
G03X-251595Y224339I466J-1107D01*
G01Y224331D01*
G03Y221929I25J-1201D01*
G01Y219178D01*
G03X-253704Y218654I-931J-759D01*
G01X-265875D01*
G03X-266252Y218504I-19J-501D01*
G01X-268411Y216301D01*
X-271715Y216296D01*
G03X-274086Y216292I-1185J-195D01*
G37*
G36*
G01X-120099Y214497D02*
Y216868D01*
G03X-121234Y218950I-400J1132D01*
G01X-136392Y234108D01*
G03X-137123Y234401I-708J-708D01*
G01X-159567D01*
G03X-159602Y234438I-745J-669D01*
G01X-160199Y235035D01*
Y278836D01*
G03Y280164I-1001J664D01*
G01Y281106D01*
G03Y282694I-901J794D01*
G01Y282806D01*
G03Y284394I-901J794D01*
G01Y284506D01*
G03Y286094I-901J794D01*
G01Y286206D01*
G03Y287794I-901J794D01*
G01Y287906D01*
G03Y289494I-901J794D01*
G01Y289506D01*
G03Y291094I-901J794D01*
G01Y291106D01*
G03Y292694I-901J794D01*
G01Y322177D01*
G03X-160492Y322908I-1001J23D01*
G01X-170192Y332608D01*
G03X-170923Y332901I-708J-708D01*
G01X-174549D01*
G03X-176091I-771J-921D01*
G01X-177049D01*
G03X-178591I-771J-921D01*
G01X-179549D01*
G03X-181091I-771J-921D01*
G01X-182049D01*
G03X-183591I-771J-921D01*
G01X-184549D01*
G03X-186091I-771J-921D01*
G01X-272925D01*
G03X-274875I-975J-701D01*
G01X-275321D01*
G03X-276181Y332604I-139J-991D01*
G01X-276418Y332358D01*
G03X-276428Y332348I703J-713D01*
G01X-278590Y330186D01*
G03X-280286Y328490I-810J-886D01*
G01X-286688Y322088D01*
G03X-286981Y321357I708J-708D01*
G01Y265354D01*
X-287267Y265068D01*
G03X-287328Y265001I709J-707D01*
G01X-292725D01*
G03X-294675I-975J-701D01*
G01X-328425D01*
G03X-330375I-975J-701D01*
G01X-359677D01*
G03X-360408Y264708I-23J-1001D01*
G01X-363108Y262008D01*
G03X-363401Y261277I708J-708D01*
G01Y248323D01*
G03X-363108Y247592I1001J-23D01*
G01X-354608Y239092D01*
G03X-353877Y238799I708J708D01*
G01X-328448D01*
G03X-326401Y231955I3842J-2579D01*
G01Y229210D01*
G03Y227130I601J-1040D01*
G01Y204515D01*
X-332915Y198001D01*
X-365285D01*
X-366992Y199708D01*
G03X-366999Y199715I-711J-704D01*
G01Y221977D01*
G03X-367292Y222708I-1001J23D01*
G01X-368592Y224008D01*
G03X-369323Y224301I-708J-708D01*
G01X-405358D01*
G02X-402779Y239541I208508J-27447D01*
G03X-402478Y240965I-1021J960D01*
G02X-376258Y306585I205627J-44115D01*
G03X-375704Y307485I-642J1015D01*
G02X-373418Y311099I178868J-110611D01*
G01X-334523D01*
G03X-333792Y311392I23J1001D01*
G01X-283491Y361693D01*
Y360867D01*
X-281747Y359123D01*
X-279280D01*
X-277536Y360867D01*
Y363333D01*
X-279281Y365077D01*
X-279549D01*
X-278727Y365899D01*
X-264101D01*
G03X-261699I1201J1D01*
G01X-230224D01*
G03X-226935Y362939I3587J679D01*
G03X-224702Y363482I1935J-3096D01*
G03X-223050Y365899I-1935J3096D01*
G01X-183666D01*
G03X-182706I480J1101D01*
G01X-168515D01*
X-156108Y353492D01*
G03X-155377Y353199I708J708D01*
G01X-124323D01*
G03X-123592Y353492I23J1001D01*
G01X-120841Y356243D01*
G03X-119143Y357941I841J857D01*
G01X-110585Y366499D01*
X-72560D01*
G02X-56272Y353268I-124290J-169649D01*
G03X-52201Y349511I913J-3095D01*
G02X-44190Y341500I-144650J-152661D01*
G03X-40432Y337428I663J-3159D01*
G02X-36961Y333467I-156422J-140573D01*
G03X-36149Y332511I1361J333D01*
G02X-21679Y313228I-160701J-135661D01*
G03X-21425Y312845I1279J572D01*
G02X-13201Y299327I-175430J-115988D01*
G03X-12520Y298098I1401J-27D01*
G02X12736Y214236I-184331J-101247D01*
G03X12622Y214138I594J-806D01*
G01X12185Y213701D01*
X-37934D01*
G03X-39666I-866J-1101D01*
G01X-83737D01*
G03X-86063I-1163J-301D01*
G01X-95008D01*
G03X-97192I-1092J-501D01*
G01X-99205D01*
G03X-100995I-895J-801D01*
G01X-118934D01*
G03X-120099Y214497I-1265J-601D01*
G37*
G36*
G01X-121063Y122653D02*
X-122153Y121563D01*
G03X-124063Y119653I-347J-1563D01*
G01X-124284Y119432D01*
G03X-126432Y117284I-716J-1432D01*
G01X-134815Y108901D01*
X-169285D01*
X-171499Y111115D01*
Y119637D01*
G03Y119683I-1001J23D01*
G01Y134899D01*
G03Y137301I-1J1201D01*
G01Y140003D01*
G03X-170308Y141699I99J1197D01*
G01X-164080D01*
G03X-163120I480J1101D01*
G01X-156823D01*
G03X-156092Y141992I23J1001D01*
G01X-148292Y149792D01*
G03X-147999Y150523I-708J708D01*
G01Y191177D01*
G03X-148292Y191908I-1001J23D01*
G01X-162392Y206008D01*
G03X-163123Y206301I-708J-708D01*
G01X-191200D01*
G03X-192194Y205181I0J-1001D01*
G01X-192568Y204901D01*
X-205296D01*
X-206744Y206312D01*
G03X-207113Y206454I-350J-359D01*
G01X-209759D01*
G03X-212029I-1135J-393D01*
G01X-230587D01*
X-230993Y206860D01*
Y235846D01*
X-230787Y236052D01*
X-219701D01*
X-218114Y234465D01*
G03X-216648Y233021I1168J-280D01*
G03X-216394Y232952I254J433D01*
G01X-213861D01*
G03X-212995Y232452I867J501D01*
G01X-166901Y232399D01*
G03X-166899I1J1001D01*
G01X-162523D01*
G03X-162477I23J1001D01*
G01X-137515D01*
X-122101Y216985D01*
Y200295D01*
G03Y198505I801J-895D01*
G01Y191740D01*
G03X-121963Y189592I601J-1040D01*
G03X-121808Y189392I863J508D01*
G01X-117401Y184985D01*
Y159950D01*
G03Y156850I401J-1550D01*
G01Y130086D01*
G03Y127314I801J-1386D01*
G01Y127186D01*
G03X-118179Y125537I801J-1386D01*
G01X-119153Y124563D01*
G03X-121063Y122653I-347J-1563D01*
G37*
G36*
G01X-204885Y120201D02*
X-236287Y151603D01*
X-249999Y165511D01*
Y187100D01*
G03X-250599Y188017I-1001J0D01*
G01X-250593Y193952D01*
Y193953D01*
Y204558D01*
G03Y206348I-801J895D01*
G01Y222432D01*
G03Y223828I-977J698D01*
G01Y224795D01*
G03Y226283I-943J744D01*
G01Y226976D01*
G03Y228512I-923J768D01*
G01Y229268D01*
G03Y230556I-1014J644D01*
G01Y231538D01*
G03Y232962I-967J712D01*
G01Y234446D01*
X-249487Y235552D01*
X-247154D01*
X-246695Y235093D01*
Y234053D01*
G03X-246534Y233685I501J0D01*
G01X-246062Y233213D01*
G03X-245694Y233052I368J340D01*
G01X-235901D01*
X-235195Y232346D01*
Y201053D01*
G03X-235034Y200685I501J0D01*
G01X-232095Y197746D01*
X-232098Y193953D01*
Y193952D01*
X-232101Y190900D01*
G03X-231940Y190532I501J0D01*
G01X-215868Y174460D01*
G03X-215500Y174299I368J340D01*
G01X-204755D01*
G03X-204509Y173893I955J301D01*
G01X-188097Y157428D01*
G03X-186175Y155501I1197J-728D01*
G01X-185619Y154943D01*
G03X-183661Y152978I1119J-843D01*
G01X-173501Y142786D01*
Y141300D01*
G03Y141240I1001J-30D01*
G01Y120714D01*
G03X-173528Y120688I681J-734D01*
G01X-174015Y120201D01*
X-204885D01*
G37*
G36*
G01X-171633Y143701D02*
G03X-171791Y143907I-867J-501D01*
G01X-203091Y175307D01*
G03X-204515Y175301I-709J-707D01*
G01X-215293D01*
X-231099Y191107D01*
X-231097Y193952D01*
Y193953D01*
X-231093Y197953D01*
G03X-231254Y198321I-501J0D01*
G01X-234193Y201260D01*
Y232553D01*
G03X-234354Y232921I-501J0D01*
G01X-235326Y233893D01*
G03X-235694Y234054I-368J-340D01*
G01X-245487D01*
X-245693Y234260D01*
Y235163D01*
X-245304Y235552D01*
X-231995D01*
Y206653D01*
G03X-231834Y206285I501J0D01*
G01X-231148Y205599D01*
G03X-230746Y205455I354J354D01*
G03X-230694Y205452I55J498D01*
G01X-211929D01*
G03X-209859I1035J609D01*
G01X-207298D01*
X-205850Y204041D01*
G03X-205481Y203899I350J359D01*
G01X-192420D01*
G03X-192099Y203999I20J501D01*
G01X-191592Y204379D01*
G03X-191200Y204299I392J920D01*
G01X-163515D01*
X-150001Y190785D01*
Y150915D01*
X-157215Y143701D01*
X-162806D01*
G03X-164394I-794J-901D01*
G01X-171633D01*
G37*
%LPD*%
G75*
G36*
G01X-343226Y66953D02*
G02X-347012Y63167I-1893J-1893D01*
G01X-348073Y64228D01*
G02X-344287Y68014I1893J1893D01*
G01X-343226Y66953D01*
G37*
G36*
G01X-64228Y45627D02*
G02X-68014Y49413I-1893J1893D01*
G01X-66953Y50474D01*
G02X-63167Y46688I1893J-1893D01*
G01X-64228Y45627D01*
G37*
G36*
G01X-272517Y356798D02*
X-274983D01*
X-276727Y358542D01*
X-276728Y360867D01*
Y361008D01*
X-274983Y362753D01*
X-272664D01*
Y363333D01*
X-270919Y365077D01*
X-268454D01*
X-266709Y363333D01*
Y360867D01*
X-268453Y359123D01*
X-270773D01*
Y358542D01*
X-272517Y356798D01*
G37*
G54D44*
X-118701Y57677D03*
X-145947Y51822D03*
X-259689Y372803D03*
X-124629Y77836D03*
X-149016Y72244D03*
X-255315Y345276D03*
G54D45*
X-324606Y157480D03*
G54D43*
X-47495Y66146D03*
X-327554Y47495D03*
G54D26*
X-98060Y11047D03*
G54D13*
X-334792Y64477D03*
X-329224Y58909D03*
G54D14*
X-321777Y48121D03*
X-345580Y71924D03*
G54D12*
X-343074Y72759D03*
X-320942Y50627D03*
G54D25*
X-142400Y-6400D03*
G54D15*
X-359152Y59605D03*
X-334096Y34549D03*
G54D34*
X-193500Y32500D03*
X-191925Y34469D03*
Y30531D03*
X-195075D03*
Y34469D03*
G54D11*
X-345650Y65591D03*
G54D22*
X-395300Y222800D03*
X-401600Y222700D03*
X-362000Y234300D03*
X-352300Y240800D03*
X-357200Y240200D03*
X-363700Y240400D03*
X-364700Y243700D03*
X-375490Y236845D03*
X-338000Y215300D03*
X-337600Y217100D03*
X-339388Y216428D03*
X-339522Y214667D03*
X-349400Y231600D03*
X-351500Y233500D03*
X-352300Y235200D03*
X-349700Y233500D03*
X-350600Y235000D03*
X-354600Y144300D03*
X-358200Y146200D03*
X-372100Y159400D03*
X-334700Y249100D03*
X-331400Y248600D03*
X-333100D03*
X-335900Y250300D03*
X-305040Y288570D03*
X-359900Y297500D03*
X-358600Y296100D03*
X-314800Y238700D03*
X-315400Y240600D03*
X-287542Y200798D03*
X-291400Y188667D03*
X-303660Y216610D03*
X-345300Y259700D03*
X-314300Y251600D03*
X-352900Y310200D03*
X-351200D03*
X-352900Y308500D03*
X-316300Y254900D03*
X-316100Y253100D03*
X-324000Y227900D03*
Y226200D03*
X-325800Y228170D03*
X-327510Y228190D03*
X-326600Y226220D03*
X-293600Y244700D03*
X-307950Y233763D03*
X-370700Y260500D03*
X-296200Y254100D03*
X-280994Y228071D03*
X-277294Y302953D03*
X-314500Y255100D03*
X-314400Y253300D03*
X-279594Y204653D03*
X-276180Y248440D03*
X-320000Y280500D03*
X-278900Y192600D03*
X-309000Y278300D03*
X-318800Y184900D03*
X-313300Y193400D03*
X-288394Y255853D03*
X-278600Y209800D03*
X-305900Y250800D03*
X-294694Y247053D03*
X-297300Y243653D03*
X-344300Y284600D03*
X-371400Y249500D03*
Y299900D03*
X-371700Y286200D03*
X-376400Y278700D03*
X-352800Y271300D03*
X-352500Y252500D03*
X-363700Y252200D03*
X-358100Y245500D03*
X-352100Y244900D03*
X-305294Y293206D03*
X-301700Y268400D03*
X-301300Y261100D03*
Y263600D03*
X-303900Y263700D03*
X-304200Y268400D03*
X-320500Y309100D03*
X-321700Y315400D03*
X-319694Y283553D03*
Y286053D03*
Y289053D03*
X-301400Y258600D03*
X-314864Y198563D03*
X-297400Y197900D03*
X-300100D03*
X-295500Y197200D03*
X-295300Y202000D03*
X-302500Y200300D03*
X-300100D03*
X-297500Y200400D03*
X-279135Y202653D03*
X-302400Y197800D03*
X-277400Y186600D03*
X-283000Y181500D03*
X-277700Y181300D03*
X-376900Y307600D03*
X-362700Y306700D03*
X-367600Y312900D03*
X-322000Y306900D03*
X-344200Y304600D03*
X-305294Y305700D03*
X-284194Y248053D03*
X-292500Y261200D03*
X-293700Y264300D03*
X-289080Y259430D03*
X-368227Y246069D03*
X-305800Y244700D03*
X-276994Y241700D03*
X-338690Y271040D03*
X-285000Y240500D03*
X-328900Y274900D03*
X-306715Y275200D03*
X-291894Y246453D03*
X-281694Y245253D03*
X-302594Y231453D03*
X-293600Y233600D03*
X-297500Y236800D03*
X-289294Y228653D03*
X-313400Y272800D03*
X-337600Y266300D03*
X-288494Y250553D03*
X-286200Y255800D03*
X-288894Y236253D03*
X-307190Y216740D03*
X-375500Y262900D03*
X-319000Y268500D03*
X-334500Y263500D03*
X-280100Y251900D03*
X-333300Y195100D03*
X-368000Y256319D03*
X-335520Y244680D03*
X-304750Y282490D03*
X-311500Y260410D03*
X-301700Y189000D03*
X-318900Y212100D03*
X-318800Y210000D03*
X-286620Y235880D03*
X-287000Y220800D03*
Y218708D03*
X-284000Y184500D03*
X-286200Y184200D03*
X-278700Y184400D03*
X-276600Y184200D03*
X-299609Y221827D03*
X-300400Y226250D03*
X-284400Y186700D03*
X-298500Y188200D03*
X-306600Y278300D03*
X-298794Y247053D03*
X-311594Y235353D03*
X-302400Y241300D03*
X-304895Y276500D03*
X-276774Y198053D03*
X-281593Y209252D03*
X-320660Y261350D03*
X-319000Y261770D03*
X-319020Y260140D03*
X-319350Y258530D03*
X-320710Y259690D03*
X-329400Y262600D03*
Y264300D03*
X-331060Y259940D03*
X-331200Y261600D03*
X-329400Y260800D03*
X-282794Y294653D03*
X-279694Y313053D03*
X-337879Y256744D03*
X-337900Y255100D03*
X-339300Y254100D03*
X-339269Y255940D03*
X-338600Y252600D03*
X-277100Y232900D03*
X-288394Y238353D03*
X-301300Y254200D03*
X-310000Y189500D03*
Y223780D03*
X-311440Y222960D03*
X-312990Y223510D03*
X-307740Y220740D03*
X-307990Y218990D03*
X-281773Y221953D03*
X-281587Y216660D03*
X-281594Y234453D03*
X-281694Y236953D03*
X-281780Y219853D03*
X-298000Y225400D03*
X-294300Y240300D03*
X-294200Y219900D03*
X-307500Y242200D03*
X-301200Y250100D03*
X-306100Y236100D03*
X-278444Y290253D03*
X-301900Y272700D03*
X-303400Y274100D03*
X-335983Y217669D03*
X-304600Y229300D03*
X-281594Y232253D03*
X-322900Y214900D03*
X-285864Y191703D03*
X-361500Y303000D03*
X-288330Y192900D03*
X-278894Y198053D03*
X-278700Y194900D03*
X-283350Y203550D03*
X-286100Y202700D03*
X-278400Y215900D03*
X-279400Y217728D03*
X-291560Y232690D03*
X-302800Y223000D03*
X-304850Y226250D03*
X-288300Y244600D03*
X-283794Y194953D03*
X-281518Y207093D03*
X-277100Y205390D03*
X-276000Y201500D03*
X-293900Y186900D03*
X-288618Y94632D03*
X-316000Y165000D03*
X-372700Y123900D03*
X-357300Y128200D03*
X-367500Y138100D03*
X-329700Y143400D03*
X-291600Y178600D03*
X-288600Y178800D03*
X-296520Y171260D03*
X-299300Y171400D03*
X-310800Y138300D03*
X-320500Y146800D03*
X-318300Y129900D03*
X-325100Y134900D03*
X-335000Y136300D03*
X-323400Y118100D03*
X-302200Y110600D03*
X-305800Y43900D03*
X-309800Y53000D03*
X-285500Y37400D03*
X-330600Y87100D03*
X-295900Y51000D03*
X-334700Y117900D03*
X-297200Y115700D03*
X-296500Y40900D03*
X-320600Y83700D03*
X-303800Y66100D03*
X-335900Y50800D03*
X-331800Y46800D03*
X-340800Y53300D03*
X-347500Y60500D03*
X-342800Y58100D03*
X-342600Y93800D03*
X-337500Y88700D03*
X-335200Y96600D03*
X-336500Y99800D03*
X-330500Y93000D03*
X-326200Y89400D03*
X-304400Y74700D03*
X-307900Y77400D03*
X-299200Y67700D03*
X-307100Y70900D03*
X-324800Y76500D03*
X-331800Y77800D03*
X-297100Y53300D03*
X-294500Y53100D03*
X-329100Y100200D03*
X-330900D03*
X-331400Y101900D03*
X-329500Y102100D03*
X-349100Y119600D03*
X-349400Y111900D03*
X-311200Y106300D03*
X-292300Y159600D03*
X-278500Y165700D03*
X-287200Y215900D03*
X-276300Y220000D03*
X-278400Y219700D03*
X-287100Y212800D03*
X-276700Y225400D03*
X-297814Y230086D03*
X-278294Y230746D03*
X-276149Y230797D03*
X-275800Y213900D03*
X-277900D03*
X-312985Y302300D03*
X-311600Y303800D03*
X-300700Y69300D03*
X-302500Y70900D03*
X-326900Y91400D03*
X-308300Y75300D03*
X-306200Y73400D03*
X-276386Y165600D03*
X-296900Y213200D03*
X-294700Y213900D03*
X-337200Y141900D03*
X-335100Y142000D03*
X-334600Y98600D03*
X-333100Y97100D03*
X-320900Y311100D03*
X-317860Y297830D03*
X-319385Y296400D03*
X-322500Y309700D03*
X-307894Y311900D03*
X-309500Y310275D03*
X-349500Y115100D03*
Y117400D03*
X-328400Y92900D03*
X-291600Y361800D03*
X-298900Y363000D03*
X-277800Y329200D03*
X-279400Y329300D03*
X-289950Y369000D03*
X-293600Y347726D03*
X-277000Y375500D03*
X-280080D03*
X-288000Y327423D03*
X-293400Y343400D03*
X-297200Y327800D03*
X-277494Y343053D03*
X-282894Y343453D03*
X-280894D03*
X-318000Y320000D03*
X-299712Y320311D03*
X-302600Y361200D03*
X-321500Y317500D03*
X-319700Y318700D03*
X-302620Y319940D03*
X-304100Y318500D03*
X-166500Y20500D03*
X-136200Y18700D03*
X-199587Y-1500D03*
X-170200Y10700D03*
X-247800Y20400D03*
X-211398Y-1500D03*
X-209901Y-4200D03*
X-197618Y-5000D03*
X-206800Y0D03*
X-182700Y400D03*
X-170100Y12600D03*
X-195686Y-1500D03*
X-201726Y-1608D03*
X-206700Y2200D03*
X-200600Y2000D03*
X-272089Y236948D03*
X-274194Y239753D03*
X-274000Y236312D03*
X-272600Y229600D03*
X-271894Y240353D03*
X-271994Y226153D03*
X-271900Y214300D03*
X-274300Y203180D03*
X-272900Y216100D03*
X-273000Y218900D03*
X-272569Y204400D03*
X-272470Y209350D03*
X-249500Y185800D03*
X-254920Y211210D03*
X-254700Y206400D03*
X-254880Y213870D03*
X-251394Y205453D03*
X-245300Y190600D03*
X-269100Y230400D03*
X-183494Y290353D03*
X-204694Y307753D03*
X-260194Y290453D03*
X-244324Y308022D03*
X-168894Y304233D03*
X-260666Y234081D03*
X-137806Y311080D03*
X-35600Y230200D03*
X-148900Y297000D03*
X-112700Y243100D03*
X-88700Y241800D03*
X-109100Y292000D03*
X-107500D03*
X-105800D03*
X-109700Y294500D03*
X-108000Y294600D03*
X-106300D03*
X-104600Y294700D03*
X-104100Y291900D03*
X-206100Y194700D03*
X-219200Y189100D03*
X-266500Y182800D03*
X-109200Y233900D03*
X-102700Y244100D03*
X-163400Y241700D03*
X-161200Y279500D03*
X-92000Y224000D03*
X-92400Y254900D03*
X-97700Y254100D03*
X-98200Y220100D03*
X-78700Y225300D03*
X-80700Y254600D03*
X-106500Y252100D03*
X-106700Y223100D03*
X-107200Y231800D03*
X-225794Y241953D03*
X-66200Y299100D03*
X-224920Y199190D03*
X-212400Y192900D03*
X-213915Y200232D03*
X-117200Y199000D03*
Y196900D03*
X-96200Y245600D03*
X-80700Y222800D03*
X-96700Y241474D03*
X-111200Y234300D03*
X-107200Y227800D03*
X-87500Y216000D03*
X-73700Y229600D03*
X-56000Y277300D03*
X-52800Y256100D03*
X-85380Y230200D03*
X-114009Y309190D03*
X-85500Y222100D03*
X-84700Y285100D03*
X-89600Y297600D03*
X-59400Y296600D03*
X-87100Y314200D03*
X-254986Y186417D03*
X-31300Y183600D03*
X-32300Y210600D03*
X-50600Y254100D03*
X-52600Y259800D03*
X-44300Y250200D03*
X-34600Y244700D03*
X-25400Y244600D03*
X-20000Y261200D03*
X-9700Y274200D03*
X-35000Y288600D03*
X-23600Y308000D03*
X3100Y247500D03*
X-116597Y246668D03*
X-126000Y259700D03*
X-139600Y258800D03*
X-136100Y269700D03*
X-136200Y283400D03*
X-145100Y287900D03*
X-117100Y280500D03*
X-97300Y272500D03*
X-89000Y261600D03*
X-75200Y271100D03*
X-53390Y219550D03*
X-55980Y219600D03*
X-134900Y296900D03*
Y294300D03*
X-136600D03*
X-138400D03*
X-136600Y296900D03*
X-138300D03*
X-133100D03*
X-133000Y294300D03*
X-131300Y294200D03*
X-131400Y296900D03*
X-95200Y280600D03*
X-93200D03*
X-91200D03*
X-97200D03*
X-120257Y197683D03*
X-121300Y199400D03*
X-123457Y199383D03*
X-124357Y197683D03*
X-122357D03*
X-51600Y303900D03*
X-94500Y238000D03*
Y236000D03*
X-92500D03*
X-90500Y234000D03*
X-92500D03*
Y238000D03*
X-53380Y221290D03*
X-56000Y221300D03*
X-262800Y201500D03*
X-220516Y232623D03*
X-222578Y232418D03*
X-228485Y232387D03*
X-230511Y232417D03*
X-222694Y234253D03*
X-226594D03*
X-222694Y229853D03*
X-226594D03*
X-226296Y232521D03*
X-236120Y227751D03*
X-236107Y229941D03*
X-240363Y229858D03*
X-242403Y225496D03*
X-242486Y227721D03*
X-242557Y230100D03*
X-239944Y216753D03*
X-235994D03*
X-224527Y223739D03*
X-228444Y223717D03*
X-226544Y221103D03*
X-222644Y225503D03*
X-226544D03*
X-240209Y225201D03*
X-240347Y227629D03*
X-216794Y214253D03*
X-226544Y216703D03*
X-222619Y216698D03*
X-210894Y214253D03*
X-212794D03*
X-222644Y212303D03*
X-226544D03*
X-222644Y221103D03*
X-236105Y225530D03*
X-236044Y214553D03*
X-224548Y215075D03*
X-220538Y214926D03*
X-239944Y214553D03*
X-239994Y210153D03*
X-236044D03*
X-226594Y207853D03*
X-248400Y196200D03*
X-196463Y207373D03*
X-222694Y207853D03*
X-216194Y207953D03*
X-209694Y207753D03*
X-207794Y207053D03*
X-201475Y207434D03*
X-198775Y207414D03*
X-251560Y232250D03*
X-251570Y223130D03*
X-251607Y229912D03*
X-251536Y225539D03*
X-251516Y227744D03*
X-260494Y215753D03*
X-255700Y192400D03*
X-254400Y237000D03*
X-90600Y231800D03*
X-101200Y245700D03*
X-79200Y244600D03*
X-99200Y228600D03*
X-223100Y200300D03*
X-201594Y238100D03*
X-215494Y235953D03*
X-177994Y314853D03*
X-202694Y244953D03*
X-205469Y245153D03*
X-201794Y241253D03*
X-242132Y250653D03*
X-252394Y241053D03*
X-116200Y243100D03*
X-86000Y250200D03*
X-101100Y225500D03*
X-96100Y213200D03*
X-100100Y212900D03*
X-96400Y223100D03*
X-258294Y239553D03*
X-186194Y306353D03*
X-200794Y256353D03*
X-184594Y307853D03*
X-197794Y259953D03*
X-177994Y310953D03*
X-192294Y258353D03*
X-203494Y253513D03*
X-173994Y312953D03*
X-200494Y248253D03*
X-171574Y310253D03*
X-176094Y311053D03*
X-200204Y251693D03*
X-200484Y242953D03*
X-173444Y310653D03*
X-196564Y252253D03*
X-174094Y304863D03*
X-194694Y247353D03*
X-171694Y304423D03*
X-176201Y303006D03*
X-198094Y250813D03*
X-175694Y301053D03*
X-199994Y254353D03*
X-195019Y254463D03*
X-173694Y301053D03*
X-189494Y314603D03*
X-212094Y246353D03*
X-213464Y240853D03*
X-212761Y242620D03*
X-185794Y314853D03*
X-206294Y239653D03*
X-208194Y239553D03*
X-180994Y310853D03*
X-196464Y261753D03*
X-182594Y306593D03*
X-193694Y266783D03*
X-179694Y306853D03*
X-197794Y255753D03*
X-180194Y304953D03*
X-197784Y257853D03*
X-242369Y258858D03*
X-250889Y305253D03*
X-238194Y259453D03*
X-250744Y301153D03*
X-241194Y264253D03*
X-248474Y301153D03*
X-240294Y261753D03*
X-252794Y297453D03*
X-244394Y264453D03*
X-250694Y297453D03*
X-245794Y268753D03*
X-248644Y297453D03*
X-244294Y267253D03*
X-186094Y304253D03*
X-202694Y257253D03*
X-246094Y249253D03*
X-261994Y305653D03*
X-245594Y251353D03*
X-256694Y297453D03*
X-249894Y269953D03*
X-254694Y293453D03*
X-254294Y267453D03*
X-257394Y291033D03*
X-252194Y267353D03*
X-256594Y295553D03*
X-251994Y270053D03*
X-256994Y292903D03*
X-254094Y270653D03*
X-262784Y293553D03*
X-249894Y267253D03*
Y265153D03*
X-263224Y291153D03*
X-264641Y295660D03*
X-241494Y253653D03*
X-266594Y295153D03*
X-236994Y250653D03*
X-266594Y293153D03*
X-243094Y262053D03*
X-253044Y308953D03*
X-238194Y257353D03*
X-250826Y309153D03*
X-238194Y254953D03*
X-246894Y309073D03*
X-238194Y252853D03*
X-252794Y305253D03*
X-245494Y254943D03*
X-256794Y300453D03*
X-261054Y302053D03*
X-247303Y253453D03*
X-260364Y295453D03*
X-260564Y293213D03*
X-260780Y299167D03*
X-247294Y257653D03*
X-262694Y299653D03*
X-244794Y246553D03*
X-259894Y305418D03*
X-264094Y305653D03*
X-241894Y242753D03*
X-86037Y232963D03*
X-80700Y229900D03*
X-109300Y231800D03*
X-113200Y234600D03*
X-94137Y241437D03*
X-101800Y230600D03*
X-251939Y290286D03*
X-251879Y292486D03*
X-246934Y311153D03*
X-248924Y311453D03*
X-170827Y315708D03*
X-173027Y315768D03*
X-261737Y239661D03*
X-82200Y243400D03*
X-83390Y230000D03*
X-92100Y230400D03*
X-97700Y249100D03*
X-112200Y227600D03*
X-107000Y249900D03*
X-110000Y250100D03*
X-91700Y249500D03*
X-92488Y244100D03*
X-219800Y191700D03*
X-270505Y235095D03*
X-102700Y239600D03*
X-77400Y231100D03*
X-28700Y225300D03*
X-98600Y234100D03*
X-55626Y263017D03*
X-99300Y243200D03*
X-88189Y238413D03*
X-90800Y241800D03*
X-96300Y231300D03*
X-104200Y230200D03*
X-83700Y235100D03*
X-207400Y191800D03*
X-69700Y247600D03*
X-93500Y247100D03*
X-270530Y200850D03*
X-269494Y202653D03*
X-262894Y206953D03*
X-102663Y232963D03*
X-107200Y244900D03*
X-117200Y223400D03*
X-87200Y225700D03*
X-89700Y250900D03*
X-84200Y238100D03*
X-86000Y235031D03*
X-88700Y244974D03*
X-78200Y238600D03*
X-91126Y246700D03*
X-80700Y227200D03*
X-102631Y235031D03*
X-84200Y254600D03*
X-102400Y253800D03*
X-102200Y220600D03*
X-217193Y238849D03*
X-216794Y231653D03*
X-164694Y237053D03*
X-216946Y234185D03*
X-204194Y243483D03*
X-205469Y248553D03*
X-201994Y249723D03*
X-68700Y249600D03*
X-75700Y262100D03*
X-43909Y242897D03*
X-262694Y243053D03*
X-265794Y300453D03*
X-175194Y284853D03*
X-168294Y301653D03*
X-265132Y241125D03*
X-80900Y303100D03*
X-248494Y242053D03*
X-244694Y240653D03*
X-213294Y248153D03*
X-212768Y244553D03*
X-182857Y301447D03*
X-188763Y301507D03*
X-191400Y304084D03*
X-206094Y296753D03*
X-252594Y256453D03*
X-247894Y288953D03*
X-233739Y256453D03*
X-212594D03*
X-257194Y309773D03*
X-161100Y281900D03*
Y283600D03*
Y288700D03*
Y285300D03*
Y287000D03*
Y290300D03*
Y291900D03*
X-224494Y240153D03*
X-237594Y240653D03*
X-234819D03*
X-221944Y240153D03*
X-232094D03*
X-229544D03*
X-227044D03*
X-239694D03*
X-249794D03*
X-247294D03*
X-241294Y256653D03*
X-222894Y256953D03*
X-243894Y297653D03*
X-264694Y286553D03*
X-191482Y309653D03*
X-206094Y313653D03*
X-196594Y287253D03*
X-258694Y232753D03*
X-261594Y223253D03*
X-267194Y223853D03*
X-121500Y190700D03*
X-120500Y218000D03*
X-252526Y218419D03*
X-126300Y180800D03*
X-123600Y181100D03*
X-121900D03*
X-147700Y308000D03*
X-82200Y247600D03*
X-55610Y260519D03*
X-91200Y252300D03*
X-257480Y215639D03*
X-257494Y227653D03*
Y225053D03*
X-268066Y207053D03*
X-267808Y209039D03*
X-267780Y211239D03*
X-87500Y311200D03*
X-262794Y221353D03*
X-260666Y221381D03*
X-99700Y223700D03*
X-257494Y234453D03*
X-256194Y236053D03*
X-62800Y226100D03*
X-268794Y217553D03*
X-95600Y254400D03*
X-266100Y235700D03*
X-107900Y242600D03*
X-159600Y225700D03*
X-267780Y220039D03*
X-144000Y226900D03*
X-142300Y223300D03*
X-144000Y223400D03*
X-142300Y226900D03*
X-144000Y225100D03*
X-107200Y247900D03*
X-46300Y283500D03*
X-256794Y238153D03*
X-267360Y231940D03*
X-261494Y229353D03*
Y227653D03*
X-240556Y232132D03*
X-236650D03*
X-236670Y223331D03*
X-240556Y223135D03*
X-236676Y212343D03*
X-236675Y207936D03*
X-236644Y218953D03*
X-240587Y212343D03*
X-240594Y218953D03*
X-240587Y207936D03*
X-101200Y250100D03*
X-58200Y248100D03*
X-246694Y291853D03*
X-202594Y292253D03*
X-168494Y294242D03*
X-262194Y235853D03*
X-212194Y204453D03*
X-204300Y186800D03*
X-86637Y241600D03*
X-247794Y202553D03*
X-237198Y203808D03*
X-250094Y203853D03*
X-210894Y206061D03*
X-84306Y243600D03*
X-95469Y250100D03*
X-92600Y220000D03*
X-84900Y213400D03*
X-92100Y227600D03*
X-99300Y238700D03*
X-94400Y251800D03*
X-68700Y267765D03*
X-109200Y247900D03*
X-213100Y188700D03*
X-208100Y188900D03*
X-244594Y223335D03*
X-244679Y229937D03*
X-244579Y225536D03*
X-244684Y227736D03*
X-244484Y212328D03*
X-244479Y218950D03*
X-244495Y216739D03*
Y214538D03*
X-244479Y210132D03*
Y207931D03*
X-269600Y241300D03*
X-78400Y236600D03*
X-259700Y200500D03*
Y198500D03*
X-257694Y201053D03*
Y203153D03*
X-259159Y192520D03*
X-259210Y194550D03*
X-259170Y190410D03*
X-266600Y185100D03*
X-224194Y196953D03*
X-222900Y191600D03*
X-217400Y190400D03*
X-264275Y238832D03*
X-257694Y198053D03*
X-251794Y202453D03*
X-257694Y196053D03*
X-252994Y204053D03*
X-255660Y190400D03*
X-250494Y191653D03*
X-255660Y188400D03*
X-250494Y189053D03*
X-272100Y180200D03*
X-273700Y170300D03*
X-189300Y167000D03*
X-186800Y167200D03*
X-253300Y180200D03*
X-255400Y180300D03*
X-266500Y180400D03*
X-247100Y174000D03*
X-201800Y167100D03*
X-191300Y167000D03*
X-266800Y178300D03*
X-224800Y166300D03*
X-210100Y177100D03*
X-266800Y170300D03*
X-215800Y169300D03*
X-221000Y172000D03*
X-193500Y166800D03*
X-230500Y166100D03*
X-146100Y154800D03*
X-135600Y155500D03*
X-89300Y150800D03*
X-161512Y168905D03*
X-77100Y164300D03*
X-73714Y163100D03*
X-83000Y163700D03*
X-84458Y160800D03*
X-124900Y180000D03*
X-125400Y178400D03*
X-78614Y161500D03*
X-76590Y177960D03*
X-156900Y165890D03*
X-151000Y167500D03*
X-59627Y150700D03*
X-40400Y180600D03*
X-84800Y167600D03*
X-201500Y108100D03*
X-99800Y108800D03*
X-163600Y142800D03*
X-33500Y115700D03*
X-56000Y127600D03*
X-171800Y39900D03*
X-146300Y94900D03*
X-123600Y94400D03*
X-217000Y81200D03*
X-177400Y29200D03*
X-228923Y45960D03*
X-231200Y96900D03*
X-274000Y57300D03*
X-273200Y76600D03*
X-263013Y50000D03*
X-265987Y48787D03*
X-269100Y131600D03*
X-265600Y133400D03*
X-260700Y129500D03*
X-255546Y137612D03*
X-272100Y165500D03*
X-255800Y145500D03*
X-255032Y142255D03*
X-133886Y105314D03*
X-246894Y100054D03*
X-63200Y140033D03*
X-75731Y141000D03*
X-63528Y125639D03*
X-85105Y142570D03*
X-64100Y72400D03*
X-55000Y56300D03*
X-60000Y60400D03*
X-47500Y58900D03*
X-64114Y112100D03*
X-66267Y114737D03*
X-79735Y105500D03*
X-78881Y116900D03*
X-82030Y117100D03*
X-145614Y105586D03*
X-50300Y141900D03*
X-79100Y83200D03*
X-76500Y82500D03*
X-72300Y87200D03*
X-95000Y66300D03*
X-101300Y60900D03*
X-96200Y62500D03*
X-93100Y51600D03*
X-87400Y57000D03*
X-60400Y76200D03*
X-51114Y106953D03*
X-61898Y137064D03*
X-177210Y99020D03*
X-175720Y125950D03*
X-176190Y96760D03*
X-57900Y50700D03*
X-56300Y60000D03*
X-67908Y89211D03*
X-82200Y77800D03*
X-83400Y73300D03*
X-85000Y71600D03*
X-90900Y70800D03*
X-231100Y49500D03*
X-189770Y69840D03*
X-195890Y62600D03*
X-198070Y62750D03*
X-194240Y69840D03*
X-204500Y79000D03*
X-174900Y106400D03*
X-173200D03*
X-176500D03*
X-171500D03*
X-72167Y143500D03*
X-80456Y144477D03*
X-158500Y75500D03*
X-233700Y45600D03*
X-196292Y97319D03*
Y102119D03*
X-194692D03*
X-196292Y98919D03*
X-194692D03*
Y97219D03*
X-196292Y100519D03*
X-194692D03*
X-160300Y54800D03*
X-160600Y49600D03*
X-88900Y99800D03*
X-237400Y49700D03*
X-238970Y86370D03*
X-247530Y79320D03*
X-177300Y122400D03*
X-175600D03*
X-173900Y122300D03*
X-178600Y74400D03*
X-193270Y62600D03*
X-171000Y71800D03*
X-175100Y78300D03*
X-168700Y76500D03*
X-168100Y61400D03*
X-160400Y63500D03*
X-246370Y87060D03*
X-244327Y100592D03*
X-236264Y101043D03*
X-247500Y97200D03*
X-173700Y49400D03*
X-169300Y52200D03*
X-218310Y99190D03*
X-218440Y91410D03*
X-224680Y89360D03*
X-229000Y92160D03*
X-223580Y101960D03*
X-223100Y96690D03*
X-240400Y78910D03*
X-203100Y57200D03*
Y59200D03*
X-239700Y45800D03*
X-186900Y70150D03*
X-184610Y70650D03*
X-160700Y58400D03*
X-153000Y77100D03*
X-193200Y114900D03*
X-198000Y115000D03*
X-196400D03*
X-194800D03*
X-234200Y121100D03*
X-234600Y136900D03*
X-229300Y125800D03*
X-229200Y128000D03*
X-212500Y132000D03*
X-229400Y156900D03*
X-171400Y141200D03*
X-238600Y156200D03*
X-184800Y167300D03*
X-206056Y164017D03*
X-218900Y165000D03*
X-175600Y163250D03*
X-180700Y167300D03*
X-182700D03*
X-173334Y164600D03*
X-245200Y142600D03*
X-204800Y143400D03*
X-218750Y104670D03*
X-175830Y127965D03*
X-171500Y136100D03*
X-175820Y131100D03*
X-242000Y142500D03*
X-239500Y148700D03*
X-203600Y145200D03*
X-233400Y37400D03*
Y42100D03*
X-164700Y25000D03*
X-241147Y97540D03*
X-243332Y97609D03*
X-166200Y29700D03*
X-139200Y22500D03*
X-136100Y26500D03*
Y30500D03*
X-181000Y38200D03*
X-179100Y40000D03*
X-181000Y39800D03*
X-179100Y41800D03*
X-180900Y41700D03*
X-182100Y37000D03*
X-183700D03*
X-185371D03*
X-154100Y42000D03*
X-149615Y25484D03*
X-153300Y37000D03*
X-153200Y35300D03*
X-239200Y44200D03*
X-262000Y31000D03*
X-194764Y91446D03*
X-189500Y124600D03*
X-199100Y30200D03*
X-189900Y146600D03*
X-274700Y225400D03*
X-85050Y74590D03*
X-235297Y49408D03*
X-86560Y73030D03*
X-233232Y49381D03*
X-175500Y167900D03*
X-173200Y168000D03*
X-243294Y203853D03*
X-243194Y201853D03*
X-231700Y38800D03*
X-231600Y41100D03*
Y43100D03*
X-187400Y75800D03*
X-173830Y76680D03*
X-171230Y76540D03*
X-231600Y45200D03*
X-153500Y97300D03*
X-155200Y99000D03*
X-206130Y72800D03*
X-206100Y74900D03*
X-181984Y76700D03*
X-214094Y191053D03*
X-220094Y193853D03*
X-221900Y174900D03*
X-274100Y165500D03*
X-271375Y170200D03*
X-268875D03*
X-182900Y113000D03*
X-68900Y232700D03*
X-70800Y225600D03*
X-49817Y291812D03*
X-49500Y295100D03*
X-155202Y304302D03*
X-207494Y165491D03*
X-213700Y170100D03*
Y168100D03*
X-223000Y165100D03*
X-219300Y170700D03*
X-221000Y165000D03*
X-217300Y170800D03*
X-204618Y165408D03*
X-123706Y339437D03*
X-104600Y360500D03*
X-115500Y344200D03*
X-150800Y352200D03*
X-110900Y348700D03*
X-106300Y344000D03*
X-115400Y365000D03*
X-118400Y331800D03*
X-182750Y343390D03*
X-180950D03*
Y341590D03*
X-182750D03*
X-175320Y331980D03*
X-120000Y357100D03*
X-94766Y344554D03*
X-122800Y332200D03*
X-139614Y334400D03*
X-86114Y346900D03*
X-83200Y324300D03*
X-91800Y326900D03*
X-81100Y334400D03*
X-117000Y362100D03*
X-134500Y325800D03*
X-122000Y360200D03*
X-177820Y331980D03*
X-121500Y346200D03*
X-182820Y331980D03*
X-180320D03*
X-111300Y369500D03*
X-146806Y356920D03*
X-145700Y347700D03*
X-137130Y350073D03*
X-84700Y343000D03*
X-125845Y342172D03*
X-81300Y351300D03*
X-111898Y352302D03*
X-103800Y346300D03*
X-141700Y327200D03*
X-178194Y323753D03*
X-169494Y319753D03*
X-119800Y339437D03*
X-170500Y333500D03*
X-273900Y332200D03*
X-274320Y371020D03*
X-274550Y375500D03*
X-274000Y351300D03*
Y349600D03*
X-272300Y351300D03*
X-272400Y349600D03*
X-257300Y360300D03*
X-262900Y365900D03*
X-249600Y363800D03*
X-192800Y363700D03*
X-128000Y344500D03*
X-124600Y344000D03*
X-259894Y324153D03*
X-188563Y323323D03*
X-246800Y347700D03*
X-253200Y367200D03*
X-241700Y363800D03*
X-105400Y319000D03*
X-231200Y359800D03*
X-219500Y362400D03*
X-266500Y358269D03*
X-185320Y331980D03*
X-189614Y320753D03*
X-181694Y319173D03*
X-177994Y319003D03*
X-267900Y372000D03*
X-226996Y354884D03*
X-183186Y367000D03*
X-191800Y347300D03*
X-218000Y355500D03*
X-194400Y372100D03*
X-191794Y320653D03*
Y318623D03*
X-270000Y329100D03*
X-70200Y324800D03*
X-262900Y363500D03*
X-185100Y352600D03*
X-51400Y340500D03*
X-222800Y390033D03*
X-229694Y325053D03*
X-212894Y337053D03*
X-181694Y316903D03*
X-177994Y316953D03*
X-189594Y316921D03*
X-185794Y316758D03*
X-185700Y343614D03*
X-141500Y344400D03*
X-117800Y347100D03*
X-218200Y348900D03*
X-238600Y383100D03*
X-145600Y352500D03*
X-143600Y354662D03*
X-109500Y358586D03*
X-220800Y348900D03*
X-112300Y358586D03*
X-179600Y348200D03*
X-115200Y358586D03*
G54D23*
X-273750Y359775D03*
X-281406Y367431D03*
X-280513Y362100D03*
X-269687D03*
G54D35*
X-51252Y352191D03*
X-41509Y342448D03*
G54D10*
X-307200Y13500D03*
X-283400Y2100D03*
X-396300Y227800D03*
X-395000Y237800D03*
X-403800Y240500D03*
X-407300Y228200D03*
X-410900Y211400D03*
X-381181Y159483D03*
X-393300Y153600D03*
X-403000Y148500D03*
X-407934Y173995D03*
X-410632Y172202D03*
X-381725Y169610D03*
X-406400Y166100D03*
X-370717Y168037D03*
X-373200Y166700D03*
X-373300Y169100D03*
X-362600Y158700D03*
X-392100Y248500D03*
X-371700Y282300D03*
X-374300Y295200D03*
X-383400Y277000D03*
X-384100Y298100D03*
X-391100Y282400D03*
X-402300Y250600D03*
X-349200Y299400D03*
X-382567Y304735D03*
X-371900Y133600D03*
X-386900Y126500D03*
X-388800Y135200D03*
X-397600Y129500D03*
X-391500Y112100D03*
X-345700Y43200D03*
X-353600Y51000D03*
X-317500Y21100D03*
X-327100Y30200D03*
X-350800Y77500D03*
X-380500Y88500D03*
X-358000Y72000D03*
X-365170Y99641D03*
X-354100Y105100D03*
X-365200Y80600D03*
X-369700Y90900D03*
X-340500Y47000D03*
X-347200Y53900D03*
X-338600Y48600D03*
X-333600Y53200D03*
X-340400Y60200D03*
X-345400Y55500D03*
X-351100Y58800D03*
X-293800Y76900D03*
X-281700Y81900D03*
X-283100Y84100D03*
X-279600Y53000D03*
X-283300Y47100D03*
X-336500Y113700D03*
X-291348Y102463D03*
X-334800Y43700D03*
X-363700Y63300D03*
X-317500Y372900D03*
X-297500Y374800D03*
X-289500Y389500D03*
X-276500Y393500D03*
X-372570Y320640D03*
X-367752Y326816D03*
X-254500Y-8400D03*
X-235400Y-13500D03*
X-223300Y-14200D03*
X-211600Y-16100D03*
X-196900Y-16200D03*
X-184500Y-16500D03*
X-164700Y-13000D03*
X-119200Y-100D03*
X-150800Y-11000D03*
X-129700Y6300D03*
X-185000Y20100D03*
X-182400Y20000D03*
X-179800D03*
Y17500D03*
X-182200D03*
X-184700D03*
X-196600Y16400D03*
X-201500Y16300D03*
X-199100Y16400D03*
X-206300Y16300D03*
X-203900D03*
X-148600Y12900D03*
X-148700Y15400D03*
X-147700Y6800D03*
X-150100D03*
X-221700Y1500D03*
X-240200Y-12000D03*
X-131300Y13300D03*
X-88200Y16300D03*
X-110735Y276065D03*
X-88900Y211600D03*
X-88800Y209000D03*
X-67700Y289000D03*
Y281000D03*
Y286300D03*
Y283600D03*
X-65600Y285100D03*
Y279800D03*
Y282400D03*
Y287700D03*
X-102700Y282100D03*
X-127700Y289100D03*
X-131800Y208100D03*
X-68600Y209900D03*
X-100200Y295600D03*
X-123200Y289300D03*
X-143200Y207100D03*
X-56300Y182600D03*
X-20400Y313800D03*
X-11800Y299300D03*
X-23100Y299400D03*
X-38100Y302700D03*
X-36800Y290800D03*
X-30000Y306800D03*
X-1300Y283100D03*
X3100Y267200D03*
X-13400Y264300D03*
X-38500Y260900D03*
X-31300Y253300D03*
X-17700Y240100D03*
X-7900Y247500D03*
X7300Y253800D03*
X3500Y239800D03*
X13200Y229700D03*
X-23600Y216200D03*
X1800Y222200D03*
X14900Y206400D03*
X14000Y185900D03*
X-1000Y210000D03*
X-61200Y214400D03*
X-197194Y215553D03*
X-202194D03*
X-40100Y309300D03*
X-38800Y212600D03*
X-6700Y221700D03*
X-40800Y229200D03*
X-69200Y223100D03*
X-84000Y277600D03*
X-122600Y276700D03*
X-120200Y213100D03*
X-138200Y205700D03*
X-124400Y210400D03*
X-163100Y184100D03*
X-74947Y308637D03*
X-153500Y311200D03*
X-8700Y156300D03*
X100Y152300D03*
X-123800Y163600D03*
X-126500Y169500D03*
X-60900Y167500D03*
X-59100Y165500D03*
X-91600Y168700D03*
X-89200Y166300D03*
X-91600D03*
X-90400Y164000D03*
X-95200Y163900D03*
X-92800D03*
X-51800Y162900D03*
X-56600Y163000D03*
X-59000Y161700D03*
X-54200Y160500D03*
X-55600Y158100D03*
X-51800Y160500D03*
X-114500Y177400D03*
X-124761Y155161D03*
X-98200Y156300D03*
X-126700Y167000D03*
X-67800Y166600D03*
X-126600Y174700D03*
X-62600Y164500D03*
X-65900D03*
X-70700Y166300D03*
X-121100Y163700D03*
X-126600Y172200D03*
X11400Y165100D03*
X-3300Y179200D03*
X-53000Y158100D03*
X-56600Y160500D03*
X-54200Y163000D03*
X-95200Y22300D03*
X7800Y141100D03*
X-8700Y113100D03*
X-14700Y88200D03*
X-23200Y75800D03*
X-36900Y73500D03*
X-30800Y65600D03*
X-64200Y29800D03*
X-83900Y29600D03*
X-77000Y22700D03*
X-264629Y82700D03*
Y85400D03*
X-266729Y83900D03*
X-266829Y86400D03*
X-253700Y47800D03*
X-268700Y68600D03*
X-271100D03*
X-266829Y89000D03*
X-82800Y128900D03*
X-82700Y134900D03*
X-82500Y123100D03*
X-77306Y128947D03*
X-91000Y116500D03*
X-36300Y121800D03*
X-91800Y128900D03*
X-53600Y46800D03*
X-33800Y121700D03*
X-30900Y121500D03*
X-33800Y124300D03*
X-60200Y53300D03*
X-55500Y48600D03*
X-48600Y55500D03*
X-91400Y142000D03*
X-30900Y126800D03*
X-36300Y124400D03*
X-36400Y127000D03*
X-33800Y126700D03*
X-30900Y124300D03*
X-92500Y122000D03*
Y135500D03*
X-71600Y123100D03*
X-77300Y134900D03*
X-71600Y135000D03*
Y128800D03*
X-77300Y123100D03*
X-53300Y60300D03*
X-46700Y53900D03*
X-96500Y125800D03*
X-178900Y105840D03*
X-178860Y102830D03*
X-190800Y95800D03*
X-233400Y65700D03*
X-236200D03*
X-210200Y53300D03*
X-207800Y53200D03*
X-205300Y53400D03*
X-205500Y55800D03*
X-208000D03*
X-205300Y58200D03*
X-188200Y96000D03*
X-202200Y63200D03*
X-181600Y61700D03*
X-181400Y64100D03*
X-165980Y69450D03*
X-151900Y59700D03*
X-149400D03*
X-17500Y132500D03*
X-19900D03*
X-17500Y137800D03*
X-19900D03*
X-17100Y135100D03*
X-19980Y135189D03*
X-208600Y135500D03*
X-225900Y119000D03*
Y121500D03*
X-226100Y126100D03*
X-216300D03*
X-220900Y119100D03*
X-216400Y121500D03*
X-220900D03*
X-221200Y126000D03*
X-216300Y119000D03*
X-186900Y156700D03*
X-184500D03*
Y154100D03*
X-192000Y156700D03*
X-191860Y154170D03*
X-189400Y154100D03*
X-186900Y154200D03*
X-189500Y156800D03*
X-223300Y151800D03*
X-225800D03*
X-219600D03*
X-86300Y42600D03*
X-88700D03*
X-86900Y40000D03*
X-84500Y40500D03*
X-248200Y44600D03*
X-142200Y21200D03*
X-248400Y41400D03*
X-142200Y26100D03*
X-258200Y36100D03*
X-168700Y398600D03*
X-163900Y407200D03*
X-154000Y403000D03*
X-75800Y369900D03*
X-83900Y376300D03*
X-108705Y390826D03*
X-116900Y395200D03*
X-124800Y398300D03*
X-153300Y321500D03*
X-89700Y340000D03*
X-100388Y355520D03*
X-141500Y402600D03*
X-62400Y326300D03*
X-225194Y324553D03*
X-262694Y333553D03*
X-206700Y336600D03*
X-204100Y336500D03*
X-229994Y330753D03*
X-61700Y359900D03*
X-66400Y351500D03*
X-70100Y363300D03*
X-44400Y326700D03*
X-35600Y333800D03*
X-62800Y347100D03*
X-28400Y325500D03*
X-244800Y394200D03*
X-227600Y398600D03*
Y407000D03*
X-216500Y408200D03*
X-207300Y408000D03*
X-192300Y408700D03*
X-187600Y400400D03*
X-185452Y390348D03*
X-253394Y323953D03*
X-250794D03*
X-210594Y327453D03*
X-205794Y327353D03*
X-212994Y327453D03*
X-208194Y327353D03*
X-225794Y322153D03*
X-223394Y319753D03*
Y322153D03*
X-216194Y324553D03*
Y329053D03*
X-34600Y317000D03*
G54D17*
X-324606Y157480D03*
X-149016Y72244D03*
X-145947Y51822D03*
X-124629Y77836D03*
X-118701Y57677D03*
X-255315Y345276D03*
X-259689Y372803D03*
X-226637Y366578D03*
X-225000Y359843D03*
G54D24*
X-330617Y328389D03*
X-328389Y330617D03*
X-337994Y329086D03*
X-335767Y331312D03*
X-331312Y335767D03*
X-329086Y337994D03*
G54D36*
X-43527Y338341D03*
X-55359Y350173D03*
G54D16*
X-324606Y236220D03*
G54D21*
X-350089Y62959D03*
X-330742Y43612D03*
X-62959Y43611D03*
X-43612Y62958D03*
G54D33*
X-48688Y182615D03*
X-48207Y186814D03*
X-52727Y190265D03*
X-52754Y186654D03*
X-50454Y184995D03*
X-51818Y182427D03*
X-50561Y188473D03*
X-56552Y195990D03*
X-53637D03*
X-50320Y192405D03*
X-48340Y190372D03*
X-148200Y191900D03*
X-52300Y226500D03*
X-49300D03*
X-52000Y223500D03*
X-49100D03*
X-55400Y226500D03*
Y229500D03*
X-52300D03*
X-49200D03*
X-111000Y158400D03*
X-108000D03*
X-114000D03*
X-105000D03*
X-117000D03*
X-102000D03*
X-110900Y88400D03*
X-113900D03*
X-116900D03*
X-119900D03*
X-116600Y125800D03*
X-107500Y128800D03*
Y123000D03*
X-124500Y133000D03*
X-94000D03*
X-125000Y118000D03*
X-116500Y123000D03*
X-113500Y120000D03*
X-116500D03*
X-119500Y123000D03*
X-122500Y126000D03*
X-122400Y128800D03*
X-113600Y125800D03*
X-110500Y123000D03*
Y120000D03*
X-107500Y126000D03*
X-113500Y123000D03*
X-110600Y125800D03*
X-110500Y128700D03*
X-113500Y128800D03*
X-116600Y128700D03*
X-125000Y124500D03*
X-122500Y120000D03*
X-119500D03*
X-122500Y123000D03*
X-125000Y121500D03*
X-119900Y91200D03*
X-116900D03*
X-113900D03*
X-110900D03*
X-119400Y128700D03*
X-107500Y120000D03*
X-128000Y123000D03*
Y126000D03*
Y129000D03*
X-119500Y125900D03*
X-125000Y127500D03*
X-97000Y317300D03*
G54D18*
X-327554Y47495D03*
X-47495Y66146D03*
G54D19*
X-364374Y118733D03*
X-118733Y29326D03*
X-29326Y274968D03*
G54D29*
X-64477Y58908D03*
X-58909Y64476D03*
G54D30*
X-48121Y71923D03*
X-71924Y48120D03*
G54D20*
X-393957Y264719D03*
X-295641Y382651D03*
X-268149Y958D03*
X-958Y125551D03*
X-251314Y400113D03*
G54D28*
X-72759Y50626D03*
X-50627Y72758D03*
G54D31*
X-59605Y34548D03*
X-34549Y59604D03*
G54D27*
X-65591Y48050D03*
G54D32*
X-16535Y196851D03*
%LPC*%
G75*
G54D40*
G01X-12200Y-316200D02*
Y-296200D01*
X-14600Y-300200D01*
G01Y-316200D02*
X-9800D01*
G01X-4000Y-307867D02*
X-2600Y-305533D01*
X-1400Y-304200D01*
X200Y-303534D01*
X1600Y-304200D01*
X2600Y-305533D01*
X3400Y-307533D01*
X3600Y-309867D01*
X3400Y-311867D01*
X2600Y-313867D01*
X1400Y-315533D01*
X0Y-316200D01*
X-1600Y-315533D01*
X-3000Y-313534D01*
X-3800Y-310533D01*
X-4000Y-307200D01*
X-3600Y-302867D01*
X-3000Y-300533D01*
X-2000Y-298200D01*
X-600Y-296533D01*
X800Y-296200D01*
X2200Y-296867D01*
X3200Y-298533D01*
G01X11800Y-316867D02*
X11400Y-316533D01*
Y-315867D01*
X11800Y-315533D01*
X12200Y-315867D01*
Y-316533D01*
X11800Y-316867D01*
G01X19400Y-313201D02*
X20600Y-314867D01*
X22000Y-315867D01*
X23800Y-316200D01*
X25600Y-315533D01*
X27000Y-314200D01*
X28000Y-311867D01*
X28200Y-309200D01*
X27800Y-306534D01*
X26800Y-304867D01*
X25400Y-303534D01*
X24000Y-303200D01*
X22600Y-303534D01*
X20800Y-304867D01*
X21400Y-296200D01*
X26800D01*
G54D41*
G01X-135761Y-8565D02*
G02X-347957Y44882I-61090J205416D01*
G01X-135761Y-8565D02*
G02X-347957Y44882I-61090J205416D01*
G01X-393138Y110833D02*
G02X-316119Y374903I196287J86017D01*
G01X-393138Y110833D02*
G02X-316119Y374903I196287J86017D01*
G01X-381698Y88412D02*
G03X-393138Y110833I-8067J10013D01*
G01X-381698Y88412D02*
G03X-393138Y110833I-8067J10013D01*
G01X-361071Y57995D02*
X-361435Y59594D01*
G01X-347957Y44882D02*
X-361071Y57995D01*
G01D02*
X-361435Y59594D01*
G01X-347957Y44882D02*
X-361071Y57995D01*
G01X-361435Y59594D02*
G02X-381698Y88412I164587J137260D01*
G01X-361435Y59594D02*
G02X-381698Y88412I164587J137260D01*
G01X-302583Y383259D02*
G02X-246653Y405290I105729J-186403D01*
G01X-302583Y383259D02*
G02X-246653Y405290I105729J-186403D01*
G01X-310823Y364943D02*
X-296807Y372396D01*
G01X-310823Y364943D02*
X-296807Y372396D01*
G01D02*
X-302583Y383259D01*
G01X-296807Y372396D02*
X-302583Y383259D01*
G01X-316119Y374903D02*
X-310823Y364943D01*
G01X-316119Y374903D02*
X-310823Y364943D01*
G01X-101435Y4956D02*
X-107212Y15820D01*
G01X-101435Y4956D02*
X-107212Y15820D01*
G01D02*
X-121228Y8367D01*
G01X-107212Y15820D02*
X-121228Y8367D01*
G01X-123629Y7493D02*
X-138963Y3384D01*
G01X-123629Y7493D02*
X-138963Y3384D01*
G01D02*
X-135761Y-8565D01*
G01X-138963Y3384D02*
X-135761Y-8565D01*
G01X-115932Y-1593D02*
G02X-120693Y-3468I-80907J198457D01*
G01X-115932Y-1593D02*
G02X-120693Y-3468I-80907J198457D01*
G01X-121228Y8367D02*
X-115932Y-1593D01*
G01X-120693Y-3468D02*
X-123629Y7493D01*
G01X-121228Y8367D02*
X-115932Y-1593D01*
G01X-120693Y-3468D02*
X-123629Y7493D01*
G01X-45849Y44777D02*
G02X-101435Y4956I-151003J152079D01*
G01X-45849Y44777D02*
G02X-101435Y4956I-151003J152079D01*
G01X-164611Y408719D02*
G02X-495Y110990I-32240J-211869D01*
G01X-164611Y408719D02*
G02X-495Y110990I-32240J-211869D01*
G01D02*
G03X-12090Y88264I-4357J-12098D01*
G01X-495Y110990D02*
G03X-12090Y88264I-4357J-12098D01*
G01D02*
G02X-44712Y45914I-184768J108586D01*
G01X-12090Y88264D02*
G02X-44712Y45914I-184768J108586D01*
G01X-246653Y405290D02*
X-243470Y393406D01*
G01X-246653Y405290D02*
X-243470Y393406D01*
G01X-231055Y408410D02*
G02X-190016Y411049I34208J-211550D01*
G01X-231055Y408410D02*
G02X-190016Y411049I34208J-211550D01*
G01D02*
G03X-164611Y408719I12850J446D01*
G01X-190016Y411049D02*
G03X-164611Y408719I12850J446D01*
G01X-228136Y397515D02*
X-231055Y408410D01*
G01X-228136Y397515D02*
X-231055Y408410D01*
G01X-243470Y393406D02*
X-228136Y397515D01*
G01X-243470Y393406D02*
X-228136Y397515D01*
G54D42*
G01X-335933Y-307400D02*
X-334813Y-312400D01*
X-333600Y-307400D01*
X-332387Y-312400D01*
X-331267Y-307400D01*
G01X-328433D02*
X-327313Y-312400D01*
X-326100Y-307400D01*
X-324887Y-312400D01*
X-323767Y-307400D01*
G01X-320933D02*
X-319813Y-312400D01*
X-318600Y-307400D01*
X-317387Y-312400D01*
X-316267Y-307400D01*
G01X-311100Y-312650D02*
X-311287Y-312525D01*
Y-312275D01*
X-311100Y-312150D01*
X-310913Y-312275D01*
Y-312525D01*
X-311100Y-312650D01*
G01X-301920Y-304900D02*
Y-312400D01*
G01Y-311275D02*
X-302293Y-311900D01*
X-302853Y-312275D01*
X-303507Y-312400D01*
X-304253Y-312150D01*
X-304813Y-311525D01*
X-305187Y-310775D01*
X-305280Y-309900D01*
X-305187Y-309025D01*
X-304813Y-308275D01*
X-304253Y-307650D01*
X-303507Y-307400D01*
X-302853Y-307525D01*
X-302387Y-307775D01*
X-301920Y-308275D01*
G01X-297500Y-309025D02*
X-294513D01*
X-294793Y-308150D01*
X-295260Y-307650D01*
X-295913Y-307400D01*
X-296567Y-307525D01*
X-297127Y-307900D01*
X-297500Y-308775D01*
X-297687Y-309525D01*
Y-310275D01*
X-297500Y-311025D01*
X-297033Y-311775D01*
X-296473Y-312275D01*
X-295820Y-312400D01*
X-295167Y-312150D01*
X-294513Y-311400D01*
G01X-290000Y-311525D02*
X-289533Y-312025D01*
X-288880Y-312400D01*
X-288320D01*
X-287760Y-312150D01*
X-287387Y-311775D01*
X-287200Y-311275D01*
X-287293Y-310525D01*
X-287667Y-310150D01*
X-289347Y-309400D01*
X-289720Y-308525D01*
X-289533Y-307900D01*
X-289160Y-307525D01*
X-288600Y-307400D01*
X-288040Y-307525D01*
X-287480Y-307900D01*
G01X-281100Y-307400D02*
Y-312400D01*
G01Y-305400D02*
X-281287Y-305275D01*
Y-305025D01*
X-281100Y-304900D01*
X-280913Y-305025D01*
Y-305275D01*
X-281100Y-305400D01*
G01X-274907Y-314275D02*
X-274253Y-314775D01*
X-273507Y-314900D01*
X-272853Y-314775D01*
X-272293Y-314150D01*
X-271920Y-313275D01*
Y-307400D01*
G01Y-308400D02*
X-272293Y-307900D01*
X-272853Y-307525D01*
X-273507Y-307400D01*
X-274253Y-307650D01*
X-274720Y-308150D01*
X-275093Y-309025D01*
X-275280Y-309900D01*
X-275187Y-310650D01*
X-274813Y-311525D01*
X-274253Y-312150D01*
X-273507Y-312400D01*
X-272947Y-312275D01*
X-272293Y-311775D01*
X-271920Y-311275D01*
G01X-267687Y-312400D02*
Y-307400D01*
G01Y-308650D02*
X-267313Y-308025D01*
X-266753Y-307525D01*
X-266007Y-307400D01*
X-265353Y-307525D01*
X-264793Y-308025D01*
X-264513Y-308900D01*
Y-312400D01*
G01X-259813Y-309900D02*
X-257387D01*
G01X-252500Y-311525D02*
X-252033Y-312025D01*
X-251380Y-312400D01*
X-250820D01*
X-250260Y-312150D01*
X-249887Y-311775D01*
X-249700Y-311275D01*
X-249793Y-310525D01*
X-250167Y-310150D01*
X-251847Y-309400D01*
X-252220Y-308525D01*
X-252033Y-307900D01*
X-251660Y-307525D01*
X-251100Y-307400D01*
X-250540Y-307525D01*
X-249980Y-307900D01*
G01X-245187Y-312400D02*
Y-304900D01*
G01Y-308525D02*
X-244720Y-307900D01*
X-244253Y-307525D01*
X-243507Y-307400D01*
X-242947Y-307525D01*
X-242293Y-308025D01*
X-242013Y-308775D01*
Y-312400D01*
G01X-236100Y-307400D02*
Y-312400D01*
G01Y-305400D02*
X-236287Y-305275D01*
Y-305025D01*
X-236100Y-304900D01*
X-235913Y-305025D01*
Y-305275D01*
X-236100Y-305400D01*
G01X-229160Y-312400D02*
Y-306025D01*
X-228973Y-305400D01*
X-228600Y-305025D01*
X-228040Y-304900D01*
X-227480Y-305150D01*
X-227200Y-305775D01*
G01X-228320Y-307900D02*
X-230187D01*
G01X-221100Y-304900D02*
Y-312400D01*
G01X-222407Y-307400D02*
X-219793D01*
G01X-213600Y-312650D02*
X-213787Y-312525D01*
Y-312275D01*
X-213600Y-312150D01*
X-213413Y-312275D01*
Y-312525D01*
X-213600Y-312650D01*
G01X-204607Y-308025D02*
X-205260Y-307525D01*
X-205820Y-307400D01*
X-206567Y-307650D01*
X-207127Y-308150D01*
X-207500Y-309025D01*
X-207593Y-309900D01*
X-207500Y-310775D01*
X-207127Y-311525D01*
X-206567Y-312150D01*
X-205820Y-312400D01*
X-205167Y-312150D01*
X-204607Y-311650D01*
G01X-198600Y-312400D02*
X-199160Y-312275D01*
X-199720Y-311775D01*
X-200093Y-310900D01*
X-200280Y-309900D01*
X-200093Y-308900D01*
X-199720Y-308025D01*
X-199160Y-307525D01*
X-198600Y-307400D01*
X-198040Y-307525D01*
X-197480Y-308025D01*
X-197107Y-308900D01*
X-197013Y-309900D01*
X-197107Y-310900D01*
X-197480Y-311775D01*
X-198040Y-312275D01*
X-198600Y-312400D01*
G01X-193900D02*
Y-307400D01*
G01Y-308775D02*
X-193620Y-308150D01*
X-193153Y-307650D01*
X-192500Y-307400D01*
X-191847Y-307650D01*
X-191380Y-308150D01*
X-191100Y-308775D01*
Y-312400D01*
G01Y-308775D02*
X-190820Y-308150D01*
X-190353Y-307650D01*
X-189700Y-307400D01*
X-189047Y-307650D01*
X-188580Y-308150D01*
X-188300Y-308900D01*
Y-312400D01*
G01X-336033Y-307400D02*
X-334913Y-312400D01*
X-333700Y-307400D01*
X-332487Y-312400D01*
X-331367Y-307400D01*
G01X-328533D02*
X-327413Y-312400D01*
X-326200Y-307400D01*
X-324987Y-312400D01*
X-323867Y-307400D01*
G01X-321033D02*
X-319913Y-312400D01*
X-318700Y-307400D01*
X-317487Y-312400D01*
X-316367Y-307400D01*
G01X-311200Y-312650D02*
X-311387Y-312525D01*
Y-312275D01*
X-311200Y-312150D01*
X-311013Y-312275D01*
Y-312525D01*
X-311200Y-312650D01*
G01X-302020Y-304900D02*
Y-312400D01*
G01Y-311275D02*
X-302393Y-311900D01*
X-302953Y-312275D01*
X-303607Y-312400D01*
X-304353Y-312150D01*
X-304913Y-311525D01*
X-305287Y-310775D01*
X-305380Y-309900D01*
X-305287Y-309025D01*
X-304913Y-308275D01*
X-304353Y-307650D01*
X-303607Y-307400D01*
X-302953Y-307525D01*
X-302487Y-307775D01*
X-302020Y-308275D01*
G01X-297600Y-309025D02*
X-294613D01*
X-294893Y-308150D01*
X-295360Y-307650D01*
X-296013Y-307400D01*
X-296667Y-307525D01*
X-297227Y-307900D01*
X-297600Y-308775D01*
X-297787Y-309525D01*
Y-310275D01*
X-297600Y-311025D01*
X-297133Y-311775D01*
X-296573Y-312275D01*
X-295920Y-312400D01*
X-295267Y-312150D01*
X-294613Y-311400D01*
G01X-290100Y-311525D02*
X-289633Y-312025D01*
X-288980Y-312400D01*
X-288420D01*
X-287860Y-312150D01*
X-287487Y-311775D01*
X-287300Y-311275D01*
X-287393Y-310525D01*
X-287767Y-310150D01*
X-289447Y-309400D01*
X-289820Y-308525D01*
X-289633Y-307900D01*
X-289260Y-307525D01*
X-288700Y-307400D01*
X-288140Y-307525D01*
X-287580Y-307900D01*
G01X-281200Y-307400D02*
Y-312400D01*
G01Y-305400D02*
X-281387Y-305275D01*
Y-305025D01*
X-281200Y-304900D01*
X-281013Y-305025D01*
Y-305275D01*
X-281200Y-305400D01*
G01X-275007Y-314275D02*
X-274353Y-314775D01*
X-273607Y-314900D01*
X-272953Y-314775D01*
X-272393Y-314150D01*
X-272020Y-313275D01*
Y-307400D01*
G01Y-308400D02*
X-272393Y-307900D01*
X-272953Y-307525D01*
X-273607Y-307400D01*
X-274353Y-307650D01*
X-274820Y-308150D01*
X-275193Y-309025D01*
X-275380Y-309900D01*
X-275287Y-310650D01*
X-274913Y-311525D01*
X-274353Y-312150D01*
X-273607Y-312400D01*
X-273047Y-312275D01*
X-272393Y-311775D01*
X-272020Y-311275D01*
G01X-267787Y-312400D02*
Y-307400D01*
G01Y-308650D02*
X-267413Y-308025D01*
X-266853Y-307525D01*
X-266107Y-307400D01*
X-265453Y-307525D01*
X-264893Y-308025D01*
X-264613Y-308900D01*
Y-312400D01*
G01X-259913Y-309900D02*
X-257487D01*
G01X-252600Y-311525D02*
X-252133Y-312025D01*
X-251480Y-312400D01*
X-250920D01*
X-250360Y-312150D01*
X-249987Y-311775D01*
X-249800Y-311275D01*
X-249893Y-310525D01*
X-250267Y-310150D01*
X-251947Y-309400D01*
X-252320Y-308525D01*
X-252133Y-307900D01*
X-251760Y-307525D01*
X-251200Y-307400D01*
X-250640Y-307525D01*
X-250080Y-307900D01*
G01X-245287Y-312400D02*
Y-304900D01*
G01Y-308525D02*
X-244820Y-307900D01*
X-244353Y-307525D01*
X-243607Y-307400D01*
X-243047Y-307525D01*
X-242393Y-308025D01*
X-242113Y-308775D01*
Y-312400D01*
G01X-236200Y-307400D02*
Y-312400D01*
G01Y-305400D02*
X-236387Y-305275D01*
Y-305025D01*
X-236200Y-304900D01*
X-236013Y-305025D01*
Y-305275D01*
X-236200Y-305400D01*
G01X-229260Y-312400D02*
Y-306025D01*
X-229073Y-305400D01*
X-228700Y-305025D01*
X-228140Y-304900D01*
X-227580Y-305150D01*
X-227300Y-305775D01*
G01X-228420Y-307900D02*
X-230287D01*
G01X-221200Y-304900D02*
Y-312400D01*
G01X-222507Y-307400D02*
X-219893D01*
G01X-213700Y-312650D02*
X-213887Y-312525D01*
Y-312275D01*
X-213700Y-312150D01*
X-213513Y-312275D01*
Y-312525D01*
X-213700Y-312650D01*
G01X-204707Y-308025D02*
X-205360Y-307525D01*
X-205920Y-307400D01*
X-206667Y-307650D01*
X-207227Y-308150D01*
X-207600Y-309025D01*
X-207693Y-309900D01*
X-207600Y-310775D01*
X-207227Y-311525D01*
X-206667Y-312150D01*
X-205920Y-312400D01*
X-205267Y-312150D01*
X-204707Y-311650D01*
G01X-198700Y-312400D02*
X-199260Y-312275D01*
X-199820Y-311775D01*
X-200193Y-310900D01*
X-200380Y-309900D01*
X-200193Y-308900D01*
X-199820Y-308025D01*
X-199260Y-307525D01*
X-198700Y-307400D01*
X-198140Y-307525D01*
X-197580Y-308025D01*
X-197207Y-308900D01*
X-197113Y-309900D01*
X-197207Y-310900D01*
X-197580Y-311775D01*
X-198140Y-312275D01*
X-198700Y-312400D01*
G01X-194000D02*
Y-307400D01*
G01Y-308775D02*
X-193720Y-308150D01*
X-193253Y-307650D01*
X-192600Y-307400D01*
X-191947Y-307650D01*
X-191480Y-308150D01*
X-191200Y-308775D01*
Y-312400D01*
G01Y-308775D02*
X-190920Y-308150D01*
X-190453Y-307650D01*
X-189800Y-307400D01*
X-189147Y-307650D01*
X-188680Y-308150D01*
X-188400Y-308900D01*
Y-312400D01*
G01X-336133Y-307400D02*
X-335013Y-312400D01*
X-333800Y-307400D01*
X-332587Y-312400D01*
X-331467Y-307400D01*
G01X-328633D02*
X-327513Y-312400D01*
X-326300Y-307400D01*
X-325087Y-312400D01*
X-323967Y-307400D01*
G01X-321133D02*
X-320013Y-312400D01*
X-318800Y-307400D01*
X-317587Y-312400D01*
X-316467Y-307400D01*
G01X-311300Y-312650D02*
X-311487Y-312525D01*
Y-312275D01*
X-311300Y-312150D01*
X-311113Y-312275D01*
Y-312525D01*
X-311300Y-312650D01*
G01X-302120Y-304900D02*
Y-312400D01*
G01Y-311275D02*
X-302493Y-311900D01*
X-303053Y-312275D01*
X-303707Y-312400D01*
X-304453Y-312150D01*
X-305013Y-311525D01*
X-305387Y-310775D01*
X-305480Y-309900D01*
X-305387Y-309025D01*
X-305013Y-308275D01*
X-304453Y-307650D01*
X-303707Y-307400D01*
X-303053Y-307525D01*
X-302587Y-307775D01*
X-302120Y-308275D01*
G01X-297700Y-309025D02*
X-294713D01*
X-294993Y-308150D01*
X-295460Y-307650D01*
X-296113Y-307400D01*
X-296767Y-307525D01*
X-297327Y-307900D01*
X-297700Y-308775D01*
X-297887Y-309525D01*
Y-310275D01*
X-297700Y-311025D01*
X-297233Y-311775D01*
X-296673Y-312275D01*
X-296020Y-312400D01*
X-295367Y-312150D01*
X-294713Y-311400D01*
G01X-290200Y-311525D02*
X-289733Y-312025D01*
X-289080Y-312400D01*
X-288520D01*
X-287960Y-312150D01*
X-287587Y-311775D01*
X-287400Y-311275D01*
X-287493Y-310525D01*
X-287867Y-310150D01*
X-289547Y-309400D01*
X-289920Y-308525D01*
X-289733Y-307900D01*
X-289360Y-307525D01*
X-288800Y-307400D01*
X-288240Y-307525D01*
X-287680Y-307900D01*
G01X-281300Y-307400D02*
Y-312400D01*
G01Y-305400D02*
X-281487Y-305275D01*
Y-305025D01*
X-281300Y-304900D01*
X-281113Y-305025D01*
Y-305275D01*
X-281300Y-305400D01*
G01X-275107Y-314275D02*
X-274453Y-314775D01*
X-273707Y-314900D01*
X-273053Y-314775D01*
X-272493Y-314150D01*
X-272120Y-313275D01*
Y-307400D01*
G01Y-308400D02*
X-272493Y-307900D01*
X-273053Y-307525D01*
X-273707Y-307400D01*
X-274453Y-307650D01*
X-274920Y-308150D01*
X-275293Y-309025D01*
X-275480Y-309900D01*
X-275387Y-310650D01*
X-275013Y-311525D01*
X-274453Y-312150D01*
X-273707Y-312400D01*
X-273147Y-312275D01*
X-272493Y-311775D01*
X-272120Y-311275D01*
G01X-267887Y-312400D02*
Y-307400D01*
G01Y-308650D02*
X-267513Y-308025D01*
X-266953Y-307525D01*
X-266207Y-307400D01*
X-265553Y-307525D01*
X-264993Y-308025D01*
X-264713Y-308900D01*
Y-312400D01*
G01X-260013Y-309900D02*
X-257587D01*
G01X-252700Y-311525D02*
X-252233Y-312025D01*
X-251580Y-312400D01*
X-251020D01*
X-250460Y-312150D01*
X-250087Y-311775D01*
X-249900Y-311275D01*
X-249993Y-310525D01*
X-250367Y-310150D01*
X-252047Y-309400D01*
X-252420Y-308525D01*
X-252233Y-307900D01*
X-251860Y-307525D01*
X-251300Y-307400D01*
X-250740Y-307525D01*
X-250180Y-307900D01*
G01X-245387Y-312400D02*
Y-304900D01*
G01Y-308525D02*
X-244920Y-307900D01*
X-244453Y-307525D01*
X-243707Y-307400D01*
X-243147Y-307525D01*
X-242493Y-308025D01*
X-242213Y-308775D01*
Y-312400D01*
G01X-236300Y-307400D02*
Y-312400D01*
G01Y-305400D02*
X-236487Y-305275D01*
Y-305025D01*
X-236300Y-304900D01*
X-236113Y-305025D01*
Y-305275D01*
X-236300Y-305400D01*
G01X-229360Y-312400D02*
Y-306025D01*
X-229173Y-305400D01*
X-228800Y-305025D01*
X-228240Y-304900D01*
X-227680Y-305150D01*
X-227400Y-305775D01*
G01X-228520Y-307900D02*
X-230387D01*
G01X-221300Y-304900D02*
Y-312400D01*
G01X-222607Y-307400D02*
X-219993D01*
G01X-213800Y-312650D02*
X-213987Y-312525D01*
Y-312275D01*
X-213800Y-312150D01*
X-213613Y-312275D01*
Y-312525D01*
X-213800Y-312650D01*
G01X-204807Y-308025D02*
X-205460Y-307525D01*
X-206020Y-307400D01*
X-206767Y-307650D01*
X-207327Y-308150D01*
X-207700Y-309025D01*
X-207793Y-309900D01*
X-207700Y-310775D01*
X-207327Y-311525D01*
X-206767Y-312150D01*
X-206020Y-312400D01*
X-205367Y-312150D01*
X-204807Y-311650D01*
G01X-198800Y-312400D02*
X-199360Y-312275D01*
X-199920Y-311775D01*
X-200293Y-310900D01*
X-200480Y-309900D01*
X-200293Y-308900D01*
X-199920Y-308025D01*
X-199360Y-307525D01*
X-198800Y-307400D01*
X-198240Y-307525D01*
X-197680Y-308025D01*
X-197307Y-308900D01*
X-197213Y-309900D01*
X-197307Y-310900D01*
X-197680Y-311775D01*
X-198240Y-312275D01*
X-198800Y-312400D01*
G01X-194100D02*
Y-307400D01*
G01Y-308775D02*
X-193820Y-308150D01*
X-193353Y-307650D01*
X-192700Y-307400D01*
X-192047Y-307650D01*
X-191580Y-308150D01*
X-191300Y-308775D01*
Y-312400D01*
G01Y-308775D02*
X-191020Y-308150D01*
X-190553Y-307650D01*
X-189900Y-307400D01*
X-189247Y-307650D01*
X-188780Y-308150D01*
X-188500Y-308900D01*
Y-312400D01*
G01X-336233Y-307400D02*
X-335113Y-312400D01*
X-333900Y-307400D01*
X-332687Y-312400D01*
X-331567Y-307400D01*
G01X-328733D02*
X-327613Y-312400D01*
X-326400Y-307400D01*
X-325187Y-312400D01*
X-324067Y-307400D01*
G01X-321233D02*
X-320113Y-312400D01*
X-318900Y-307400D01*
X-317687Y-312400D01*
X-316567Y-307400D01*
G01X-311400Y-312650D02*
X-311587Y-312525D01*
Y-312275D01*
X-311400Y-312150D01*
X-311213Y-312275D01*
Y-312525D01*
X-311400Y-312650D01*
G01X-302220Y-304900D02*
Y-312400D01*
G01Y-311275D02*
X-302593Y-311900D01*
X-303153Y-312275D01*
X-303807Y-312400D01*
X-304553Y-312150D01*
X-305113Y-311525D01*
X-305487Y-310775D01*
X-305580Y-309900D01*
X-305487Y-309025D01*
X-305113Y-308275D01*
X-304553Y-307650D01*
X-303807Y-307400D01*
X-303153Y-307525D01*
X-302687Y-307775D01*
X-302220Y-308275D01*
G01X-297800Y-309025D02*
X-294813D01*
X-295093Y-308150D01*
X-295560Y-307650D01*
X-296213Y-307400D01*
X-296867Y-307525D01*
X-297427Y-307900D01*
X-297800Y-308775D01*
X-297987Y-309525D01*
Y-310275D01*
X-297800Y-311025D01*
X-297333Y-311775D01*
X-296773Y-312275D01*
X-296120Y-312400D01*
X-295467Y-312150D01*
X-294813Y-311400D01*
G01X-290300Y-311525D02*
X-289833Y-312025D01*
X-289180Y-312400D01*
X-288620D01*
X-288060Y-312150D01*
X-287687Y-311775D01*
X-287500Y-311275D01*
X-287593Y-310525D01*
X-287967Y-310150D01*
X-289647Y-309400D01*
X-290020Y-308525D01*
X-289833Y-307900D01*
X-289460Y-307525D01*
X-288900Y-307400D01*
X-288340Y-307525D01*
X-287780Y-307900D01*
G01X-281400Y-307400D02*
Y-312400D01*
G01Y-305400D02*
X-281587Y-305275D01*
Y-305025D01*
X-281400Y-304900D01*
X-281213Y-305025D01*
Y-305275D01*
X-281400Y-305400D01*
G01X-275207Y-314275D02*
X-274553Y-314775D01*
X-273807Y-314900D01*
X-273153Y-314775D01*
X-272593Y-314150D01*
X-272220Y-313275D01*
Y-307400D01*
G01Y-308400D02*
X-272593Y-307900D01*
X-273153Y-307525D01*
X-273807Y-307400D01*
X-274553Y-307650D01*
X-275020Y-308150D01*
X-275393Y-309025D01*
X-275580Y-309900D01*
X-275487Y-310650D01*
X-275113Y-311525D01*
X-274553Y-312150D01*
X-273807Y-312400D01*
X-273247Y-312275D01*
X-272593Y-311775D01*
X-272220Y-311275D01*
G01X-267987Y-312400D02*
Y-307400D01*
G01Y-308650D02*
X-267613Y-308025D01*
X-267053Y-307525D01*
X-266307Y-307400D01*
X-265653Y-307525D01*
X-265093Y-308025D01*
X-264813Y-308900D01*
Y-312400D01*
G01X-260113Y-309900D02*
X-257687D01*
G01X-252800Y-311525D02*
X-252333Y-312025D01*
X-251680Y-312400D01*
X-251120D01*
X-250560Y-312150D01*
X-250187Y-311775D01*
X-250000Y-311275D01*
X-250093Y-310525D01*
X-250467Y-310150D01*
X-252147Y-309400D01*
X-252520Y-308525D01*
X-252333Y-307900D01*
X-251960Y-307525D01*
X-251400Y-307400D01*
X-250840Y-307525D01*
X-250280Y-307900D01*
G01X-245487Y-312400D02*
Y-304900D01*
G01Y-308525D02*
X-245020Y-307900D01*
X-244553Y-307525D01*
X-243807Y-307400D01*
X-243247Y-307525D01*
X-242593Y-308025D01*
X-242313Y-308775D01*
Y-312400D01*
G01X-236400Y-307400D02*
Y-312400D01*
G01Y-305400D02*
X-236587Y-305275D01*
Y-305025D01*
X-236400Y-304900D01*
X-236213Y-305025D01*
Y-305275D01*
X-236400Y-305400D01*
G01X-229460Y-312400D02*
Y-306025D01*
X-229273Y-305400D01*
X-228900Y-305025D01*
X-228340Y-304900D01*
X-227780Y-305150D01*
X-227500Y-305775D01*
G01X-228620Y-307900D02*
X-230487D01*
G01X-221400Y-304900D02*
Y-312400D01*
G01X-222707Y-307400D02*
X-220093D01*
G01X-213900Y-312650D02*
X-214087Y-312525D01*
Y-312275D01*
X-213900Y-312150D01*
X-213713Y-312275D01*
Y-312525D01*
X-213900Y-312650D01*
G01X-204907Y-308025D02*
X-205560Y-307525D01*
X-206120Y-307400D01*
X-206867Y-307650D01*
X-207427Y-308150D01*
X-207800Y-309025D01*
X-207893Y-309900D01*
X-207800Y-310775D01*
X-207427Y-311525D01*
X-206867Y-312150D01*
X-206120Y-312400D01*
X-205467Y-312150D01*
X-204907Y-311650D01*
G01X-198900Y-312400D02*
X-199460Y-312275D01*
X-200020Y-311775D01*
X-200393Y-310900D01*
X-200580Y-309900D01*
X-200393Y-308900D01*
X-200020Y-308025D01*
X-199460Y-307525D01*
X-198900Y-307400D01*
X-198340Y-307525D01*
X-197780Y-308025D01*
X-197407Y-308900D01*
X-197313Y-309900D01*
X-197407Y-310900D01*
X-197780Y-311775D01*
X-198340Y-312275D01*
X-198900Y-312400D01*
G01X-194200D02*
Y-307400D01*
G01Y-308775D02*
X-193920Y-308150D01*
X-193453Y-307650D01*
X-192800Y-307400D01*
X-192147Y-307650D01*
X-191680Y-308150D01*
X-191400Y-308775D01*
Y-312400D01*
G01Y-308775D02*
X-191120Y-308150D01*
X-190653Y-307650D01*
X-190000Y-307400D01*
X-189347Y-307650D01*
X-188880Y-308150D01*
X-188600Y-308900D01*
Y-312400D01*
G01X-118600Y-281900D02*
X-119347Y-281775D01*
X-120000Y-281275D01*
X-120560Y-280525D01*
X-120933Y-279650D01*
X-121120Y-278650D01*
Y-277650D01*
X-120933Y-276650D01*
X-120560Y-275775D01*
X-120000Y-275025D01*
X-119347Y-274525D01*
X-118600Y-274400D01*
X-117853Y-274525D01*
X-117200Y-275025D01*
X-116640Y-275775D01*
X-116267Y-276650D01*
X-116080Y-277650D01*
Y-278650D01*
X-116267Y-279650D01*
X-116640Y-280525D01*
X-117200Y-281275D01*
X-117853Y-281775D01*
X-118600Y-281900D01*
G01X-112967D02*
Y-274400D01*
X-110633D01*
X-109887Y-274775D01*
X-109420Y-275275D01*
X-109233Y-276275D01*
X-109420Y-277275D01*
X-109980Y-277900D01*
X-110633Y-278275D01*
X-112967D01*
G01X-110633D02*
X-109233Y-281900D01*
G01X-106400Y-274400D02*
X-105093Y-281900D01*
X-103600Y-274400D01*
X-102107Y-281900D01*
X-100800Y-274400D01*
G01X-97967D02*
Y-281900D01*
X-94233D01*
G01X-59533Y-282500D02*
X-63267D01*
Y-275000D01*
X-59533D01*
G01X-61027Y-278625D02*
X-63267D01*
G01X-56233Y-275000D02*
X-53900Y-282500D01*
X-51567Y-275000D01*
G01X-46400D02*
Y-282500D01*
G01X-48547Y-275000D02*
X-44253D01*
G01X-32533Y-299350D02*
X-32033Y-299767D01*
X-31450Y-300017D01*
X-30700Y-300100D01*
X-29950Y-299933D01*
X-29367Y-299600D01*
X-28950Y-299017D01*
X-28867Y-298350D01*
X-29033Y-297683D01*
X-29450Y-297267D01*
X-30033Y-296933D01*
X-30617Y-296850D01*
X-31200Y-296933D01*
X-31950Y-297267D01*
X-31700Y-295100D01*
X-29450D01*
G01X-58450Y-279433D02*
X-57783Y-279850D01*
X-57033Y-280100D01*
X-56367D01*
X-55700Y-279850D01*
X-55200Y-279433D01*
X-54950Y-278850D01*
X-55117Y-278267D01*
X-55533Y-277767D01*
X-56283Y-277433D01*
X-57283Y-277267D01*
X-57867Y-276933D01*
X-58117Y-276350D01*
X-57950Y-275767D01*
X-57533Y-275350D01*
X-56950Y-275100D01*
X-56367D01*
X-55783Y-275267D01*
X-55283Y-275683D01*
G01X-52383Y-275100D02*
X-50300Y-280100D01*
X-48217Y-275100D01*
G01X-42067Y-275517D02*
X-42567Y-275267D01*
X-43150Y-275100D01*
X-43817D01*
X-44567Y-275350D01*
X-45150Y-275767D01*
X-45567Y-276267D01*
X-45900Y-277100D01*
X-45983Y-277850D01*
X-45817Y-278600D01*
X-45567Y-279100D01*
X-45067Y-279600D01*
X-44483Y-279933D01*
X-43900Y-280100D01*
X-43317D01*
X-42733Y-279933D01*
X-42233Y-279683D01*
X-41817Y-279350D01*
G01X-35667Y-275517D02*
X-36167Y-275267D01*
X-36750Y-275100D01*
X-37417D01*
X-38167Y-275350D01*
X-38750Y-275767D01*
X-39167Y-276267D01*
X-39500Y-277100D01*
X-39583Y-277850D01*
X-39417Y-278600D01*
X-39167Y-279100D01*
X-38667Y-279600D01*
X-38083Y-279933D01*
X-37500Y-280100D01*
X-36917D01*
X-36333Y-279933D01*
X-35833Y-279683D01*
X-35417Y-279350D01*
G01X-132400Y-308900D02*
X-133067Y-309067D01*
X-133567Y-309483D01*
X-133900Y-309983D01*
X-134150Y-310650D01*
X-134233Y-311400D01*
X-134150Y-312150D01*
X-133900Y-312817D01*
X-133567Y-313317D01*
X-133067Y-313733D01*
X-132400Y-313900D01*
X-131733Y-313733D01*
X-131233Y-313317D01*
X-130900Y-312817D01*
X-130650Y-312150D01*
X-130567Y-311400D01*
X-130650Y-310650D01*
X-130900Y-309983D01*
X-131233Y-309483D01*
X-131733Y-309067D01*
X-132400Y-308900D01*
G01X-126167Y-313900D02*
X-126000Y-312817D01*
X-125750Y-311900D01*
X-125417Y-311067D01*
X-125000Y-310150D01*
X-124333Y-308900D01*
X-127667D01*
G01X-121100Y-314067D02*
X-118100Y-308900D01*
G01X-114783Y-309733D02*
X-114283Y-309233D01*
X-113700Y-308983D01*
X-113033Y-308900D01*
X-112200Y-309067D01*
X-111617Y-309483D01*
X-111450Y-309983D01*
X-111533Y-310483D01*
X-111867Y-310900D01*
X-113533Y-311733D01*
X-114283Y-312317D01*
X-114783Y-313150D01*
X-114950Y-313900D01*
X-111450D01*
G01X-106800Y-308900D02*
X-107467Y-309067D01*
X-107967Y-309483D01*
X-108300Y-309983D01*
X-108550Y-310650D01*
X-108633Y-311400D01*
X-108550Y-312150D01*
X-108300Y-312817D01*
X-107967Y-313317D01*
X-107467Y-313733D01*
X-106800Y-313900D01*
X-106133Y-313733D01*
X-105633Y-313317D01*
X-105300Y-312817D01*
X-105050Y-312150D01*
X-104967Y-311400D01*
X-105050Y-310650D01*
X-105300Y-309983D01*
X-105633Y-309483D01*
X-106133Y-309067D01*
X-106800Y-308900D01*
G01X-101900Y-314067D02*
X-98900Y-308900D01*
G01X-94000Y-313900D02*
Y-308900D01*
X-95000Y-309900D01*
G01Y-313900D02*
X-93000D01*
G01X-89433Y-313150D02*
X-88933Y-313567D01*
X-88350Y-313817D01*
X-87600Y-313900D01*
X-86850Y-313733D01*
X-86267Y-313400D01*
X-85850Y-312817D01*
X-85767Y-312150D01*
X-85933Y-311483D01*
X-86350Y-311067D01*
X-86933Y-310733D01*
X-87517Y-310650D01*
X-88100Y-310733D01*
X-88850Y-311067D01*
X-88600Y-308900D01*
X-86350D01*
G01X-81200Y-310567D02*
X-80367Y-309525D01*
Y-308900D01*
X-80992D01*
Y-309525D01*
X-80367D01*
G01X-44712Y45914D02*
X-45849Y44777D01*
G01X-44712Y45914D02*
X-45849Y44777D01*
G54D37*
G01X-251794Y218053D02*
X-251094Y217353D01*
Y218653D01*
X-251594Y218153D01*
X-265894D01*
X-268200Y215800D01*
X-280930Y215780D01*
X-282740Y213960D01*
G01X-262994Y246453D02*
X-261794Y245253D01*
Y232053D01*
X-263994Y229853D01*
X-266394D01*
X-276300Y239800D01*
X-277700D01*
G01X-262994Y246453D02*
X-280600Y264100D01*
X-283500D01*
G01X-234694Y201053D02*
X-231594Y197953D01*
X-231600Y190900D01*
X-215500Y174800D01*
X-203800D01*
X-203600Y174900D01*
X-203500Y174600D01*
G01X-246899Y236015D02*
Y236005D01*
X-246239Y235345D01*
X-246219D01*
X-245559Y236005D01*
G01X-246194Y236053D02*
Y234053D01*
X-245694Y233553D01*
X-235694D01*
G01X-260994Y240453D02*
Y240353D01*
X-261594Y239753D01*
Y241153D01*
X-260894Y240453D01*
X-223794D01*
X-222094Y238753D01*
Y237153D01*
X-221594Y236653D01*
X-222594D01*
X-222094Y237153D01*
G01X-251094Y193953D02*
X-251100Y187800D01*
G01X-251094Y232153D02*
Y193953D01*
G01X-234694Y201053D02*
Y232553D01*
X-235694Y233553D01*
G01X-231494Y236053D02*
Y206653D01*
X-230794Y205953D01*
G01X-191200Y205300D02*
X-192400Y204400D01*
X-205500D01*
X-207094Y205953D01*
X-230694D01*
G01X-251094Y232153D02*
Y234653D01*
X-249694Y236053D01*
X-231494D01*
X-230994Y236553D01*
X-219494D01*
X-216394Y233453D01*
X-212994D01*
G54D38*
G01X-79200Y-264100D02*
X-353200D01*
G03X-358200Y-269100I0J-5000D01*
G01Y-338100D01*
G03X-353200Y-343100I4375J-625D01*
G01X16300D01*
G01X27800Y-261100D02*
X-353200D01*
G03X-361200Y-269100I-1000J-7000D01*
G01Y-341100D01*
G03X-354200Y-346100I6667J1934D01*
G01X14300D01*
G01X-325400Y239600D02*
Y204100D01*
X-332500Y197000D01*
X-368000D01*
Y171700D01*
X-369200Y170500D01*
X-386500D01*
Y145000D01*
X-386400Y144800D01*
X-349700Y108000D01*
X-325300Y83700D01*
X-287900D01*
X-258000Y53800D01*
G01X-271100Y122600D02*
X-316750D01*
X-351920Y157770D01*
Y166780D01*
X-349540Y169160D01*
G01X-282740Y213960D02*
X-283860Y212840D01*
Y186400D01*
X-300940Y169320D01*
X-349380D01*
X-351920Y166780D01*
G01X-324700Y239480D02*
X-325400Y238780D01*
X-326100Y239480D01*
G01X-277700Y239800D02*
X-353900D01*
X-362400Y248300D01*
Y261300D01*
X-359700Y264000D01*
X-282800D01*
G01X-286559Y264360D02*
X-285859Y265060D01*
X-285159Y264360D01*
G01X-275460Y331910D02*
X-275720Y331640D01*
X-285980Y321380D01*
Y264150D01*
X-286130Y264000D01*
G01X-52300Y367500D02*
X-111000D01*
X-124300Y354200D01*
X-155400D01*
X-168100Y366900D01*
X-279700D01*
X-334500Y312100D01*
X-378900D01*
X-379400Y312600D01*
G01X-368000Y197000D02*
Y222000D01*
X-369300Y223300D01*
X-408900D01*
X-409300Y222900D01*
G01X-367700Y199000D02*
X-365700Y197000D01*
X-367700Y195000D01*
G01X-386500Y170500D02*
X-408500D01*
X-410280Y179700D01*
X-410600Y179380D01*
G01X-406290Y170810D02*
X-405590Y170110D01*
X-406290Y169410D01*
G01X-384500Y170500D02*
X-386500Y168500D01*
X-388500Y170500D01*
G01X-322400Y233400D02*
G03I-2206J2820D01*
G01X-324700Y234200D02*
G03I94J2020D01*
G01X-326500Y236300D02*
X-323000D01*
X-322800Y236100D01*
G01X-365200Y114500D02*
G03I826J4233D01*
G01X-363600Y116000D02*
G03I-774J2733D01*
G01X-363500Y117600D02*
G03I-874J1133D01*
G01X-365200Y118400D02*
X-364000D01*
X-363700Y118700D01*
G01X-70200Y-306100D02*
X-20200D01*
G01X-70200Y-264100D02*
Y-322100D01*
G01X-140200Y-288100D02*
X-20200D01*
G01X-140200Y-322100D02*
X-20200D01*
G01X-140200Y-264100D02*
Y-343100D01*
G01X-20200Y-264100D02*
Y-343100D01*
G01X15300D02*
X28000D01*
G03X32800Y-339100I32J4842D01*
G01Y-269100D01*
G03X27800Y-264100I-6500J-1500D01*
G01X15300D01*
G01X13800Y-346100D02*
X28000D01*
G03X35800Y-339100I339J7468D01*
G01Y-270100D01*
G03X27800Y-261100I-8500J500D01*
G01X15800Y-264100D02*
X-79200D01*
G01X-251000Y187100D02*
Y165100D01*
X-237000Y150900D01*
X-205300Y119200D01*
X-172500D01*
Y135300D01*
G01X-271100Y122600D02*
X-260100Y111600D01*
X-209600Y61200D01*
X-122700D01*
X-75000Y109000D01*
Y212500D01*
X-75100Y212700D01*
X-119940D01*
X-120010Y212630D01*
X-120710Y213330D01*
G01X-172820Y118580D02*
X-173520Y119280D01*
X-172820Y119980D01*
X-172500Y119660D01*
Y110700D01*
X-169700Y107900D01*
X-134400D01*
X-116400Y125900D01*
Y185400D01*
X-121100Y190100D01*
Y217400D01*
X-137100Y233400D01*
X-162500D01*
G01X-149000Y191200D02*
Y150500D01*
X-156800Y142700D01*
X-172400D01*
X-172500Y141270D01*
Y134200D01*
Y143200D01*
X-203800Y174600D01*
G01X-172280Y142880D02*
X-171580Y142180D01*
X-172280Y141480D01*
G01X-209135Y60190D02*
X-208900Y61100D01*
G01X-208010Y61220D02*
X-209063Y60166D01*
G01X-214500Y66100D02*
X-210600Y62200D01*
G01X-258900Y54700D02*
X-254400Y50200D01*
X-212900Y50100D01*
X-209200Y53800D01*
Y61200D01*
X-200340Y61210D01*
G01X-74250Y212190D02*
X-74950Y211490D01*
X-75650Y212190D01*
G01X-121000Y213000D02*
X-120300Y212300D01*
X-121000Y211600D01*
G01X-85100Y212700D02*
X16780D01*
X17490Y211990D01*
G01X13330Y212030D02*
X12630Y212730D01*
X13330Y213430D01*
G01X-161710Y233730D02*
X-161010Y234430D01*
X-160310Y233730D01*
G01X-149000Y191200D02*
X-163100Y205300D01*
X-191200D01*
G01X-212994Y233453D02*
X-166900Y233400D01*
X-162500D01*
X-161200Y234700D01*
Y322200D01*
X-170900Y331900D01*
X-275380D01*
G54D39*
G01X-335700Y-288900D02*
Y-278900D01*
X-331700D01*
X-330100Y-279400D01*
X-328900Y-280067D01*
X-327900Y-281067D01*
X-327100Y-282234D01*
X-326900Y-283900D01*
X-327100Y-285567D01*
X-327900Y-286733D01*
X-328900Y-287734D01*
X-330100Y-288400D01*
X-331700Y-288900D01*
X-335700D01*
G01X-322200Y-284400D02*
X-315800D01*
X-316400Y-283233D01*
X-317400Y-282567D01*
X-318800Y-282234D01*
X-320200Y-282400D01*
X-321400Y-282900D01*
X-322200Y-284067D01*
X-322600Y-285067D01*
Y-286067D01*
X-322200Y-287067D01*
X-321200Y-288067D01*
X-320000Y-288733D01*
X-318600Y-288900D01*
X-317200Y-288567D01*
X-315800Y-287567D01*
G01X-310100Y-287734D02*
X-309100Y-288400D01*
X-307700Y-288900D01*
X-306500D01*
X-305300Y-288567D01*
X-304500Y-288067D01*
X-304100Y-287400D01*
X-304300Y-286400D01*
X-305100Y-285900D01*
X-308700Y-284900D01*
X-309500Y-283733D01*
X-309100Y-282900D01*
X-308300Y-282400D01*
X-307100Y-282234D01*
X-305900Y-282400D01*
X-304700Y-282900D01*
G01X-295000Y-282234D02*
Y-288900D01*
G01Y-279567D02*
X-295400Y-279400D01*
Y-279067D01*
X-295000Y-278900D01*
X-294600Y-279067D01*
Y-279400D01*
X-295000Y-279567D01*
G01X-285700Y-291400D02*
X-284300Y-292067D01*
X-282700Y-292233D01*
X-281300Y-292067D01*
X-280100Y-291233D01*
X-279300Y-290067D01*
Y-282234D01*
G01Y-283567D02*
X-280100Y-282900D01*
X-281300Y-282400D01*
X-282700Y-282234D01*
X-284300Y-282567D01*
X-285300Y-283233D01*
X-286100Y-284400D01*
X-286500Y-285567D01*
X-286300Y-286567D01*
X-285500Y-287734D01*
X-284300Y-288567D01*
X-282700Y-288900D01*
X-281500Y-288733D01*
X-280100Y-288067D01*
X-279300Y-287400D01*
G01X-274200Y-288900D02*
Y-282234D01*
G01Y-283900D02*
X-273400Y-283067D01*
X-272200Y-282400D01*
X-270600Y-282234D01*
X-269200Y-282400D01*
X-268000Y-283067D01*
X-267400Y-284233D01*
Y-288900D01*
G01X-250800Y-287567D02*
X-249200Y-288400D01*
X-247400Y-288900D01*
X-245800D01*
X-244200Y-288400D01*
X-243000Y-287567D01*
X-242400Y-286400D01*
X-242800Y-285234D01*
X-243800Y-284233D01*
X-245600Y-283567D01*
X-248000Y-283233D01*
X-249400Y-282567D01*
X-250000Y-281400D01*
X-249600Y-280233D01*
X-248600Y-279400D01*
X-247200Y-278900D01*
X-245800D01*
X-244400Y-279233D01*
X-243200Y-280067D01*
G01X-238700Y-288900D02*
Y-278900D01*
G01X-230300D02*
Y-288900D01*
G01Y-283900D02*
X-238700D01*
G01X-224800Y-278900D02*
X-220000D01*
G01X-222400D02*
Y-288900D01*
G01X-224800D02*
X-220000D01*
G01X-214100D02*
Y-278900D01*
X-206500D01*
G01X-209300Y-283733D02*
X-214100D01*
G01X-198200Y-278900D02*
Y-288900D01*
G01X-202800Y-278900D02*
X-193600D01*
M02*
